<svg id="Cavaliers" xmlns="http://www.w3.org/2000/svg" viewBox="0 0 512 512"><defs><style>.cls-1{opacity:0.5;}.cls-2{fill:#fff;}.cls-3{fill:#841717;}.cls-4{fill:#cc8217;}</style></defs><title>Cavaliers</title><g class="cls-1"><ellipse class="cls-2" cx="256" cy="256" rx="242.51" ry="244.7"/><path class="cls-3" d="M256,503.34c-65.48,0-127-25.73-173.35-72.45a248.9,248.9,0,0,1,0-349.77C129,34.4,190.52,8.66,256,8.66S383,34.4,429.35,81.12a248.9,248.9,0,0,1,0,349.77C383,477.6,321.48,503.34,256,503.34Zm0-489.4A237.21,237.21,0,0,0,86.4,84.83a243.63,243.63,0,0,0,0,342.35,238.34,238.34,0,0,0,339.21,0,243.63,243.63,0,0,0,0-342.35A237.21,237.21,0,0,0,256,13.94Z"/></g><g class="cls-1"><ellipse class="cls-2" cx="254.73" cy="256.04" rx="169.5" ry="169.09"/><path class="cls-3" d="M254.73,427.15c-94.58,0-171.52-76.76-171.52-171.11S160.15,84.92,254.73,84.92,426.25,161.68,426.25,256,349.31,427.15,254.73,427.15Zm0-338.19C162.38,89,87.25,163.91,87.25,256s75.13,167.07,167.48,167.07S422.21,348.16,422.21,256,347.08,89,254.73,89Z"/></g><g class="cls-1"><ellipse class="cls-4" cx="251.5" cy="257.13" rx="147.98" ry="153.11"/><path class="cls-3" d="M251.5,410.53c-81.76,0-148.27-68.82-148.27-153.4s66.51-153.4,148.27-153.4,148.27,68.82,148.27,153.4S333.26,410.53,251.5,410.53Zm0-306.22c-81.43,0-147.69,68.55-147.69,152.82S170.06,409.95,251.5,409.95,399.18,341.4,399.18,257.13,332.93,104.31,251.5,104.31Z"/></g><rect class="cls-3" x="103.52" y="255.08" width="295.96" height="4.1"/><rect class="cls-3" x="252.01" y="105.22" width="2.34" height="306.22"/><path class="cls-3" d="M353.24,370.86c-33.37-9.38-57.17-47.89-60.62-98.13-1.82-26.4,2.52-53,12.23-74.84,10.9-24.56,28.14-42.54,49.85-52l1.17,2.68c-21,9.17-37.74,26.64-48.34,50.52-9.51,21.43-13.77,47.52-12,73.45,3.37,49,26.33,86.47,58.49,95.51Z"/><path class="cls-3" d="M150.13,370.86l-.79-2.82c32.16-9,55.12-46.53,58.49-95.51,1.79-25.93-2.47-52-12-73.45-10.6-23.88-27.31-41.35-48.34-50.52l1.17-2.68c21.71,9.47,38.95,27.46,49.85,52,9.7,21.86,14,48.44,12.23,74.84C207.29,323,183.5,361.49,150.13,370.86Z"/><path d="M87.81,113.59a1,1,0,0,1,.32-.87,2.61,2.61,0,0,1,1.06-.68,2.25,2.25,0,0,1,1.28-.08,1.28,1.28,0,0,1,.91.92,8.56,8.56,0,0,1,.44,3,27.37,27.37,0,0,1-.32,4.16,40.21,40.21,0,0,1-1,4.78,36.86,36.86,0,0,1-1.72,4.89,27.76,27.76,0,0,1-2.42,4.46,15.65,15.65,0,0,1-3.21,3.54,5.93,5.93,0,0,1-2.52,1.05,11.76,11.76,0,0,1-3.48.17,13.11,13.11,0,0,1-3.68-.89,7.67,7.67,0,0,1-3.06-2.16A14.29,14.29,0,0,1,68,131.57a33.82,33.82,0,0,1-1.6-6,44.34,44.34,0,0,1-.66-6.79,37,37,0,0,1,.44-6.73,24.42,24.42,0,0,1,1.61-5.75,9,9,0,0,1,2.77-3.78,4,4,0,0,1,2-.7,9.46,9.46,0,0,1,2.45.07,8.29,8.29,0,0,1,2.32.72,4,4,0,0,1,1.56,1.21,11,11,0,0,1,1.27,2.65q.59,1.68,1,3.31a23.39,23.39,0,0,1,.55,2.88c.1.83.08,1.3-.07,1.4a2.1,2.1,0,0,1-.88.23c-.44.05-.91.09-1.41.11a10,10,0,0,1-1.39,0,1.18,1.18,0,0,1-.81-.28,3.49,3.49,0,0,1-.26-1c-.1-.56-.23-1.23-.38-2s-.32-1.59-.51-2.43a16.43,16.43,0,0,0-.66-2.24,3.68,3.68,0,0,0-.87-1.43.81.81,0,0,0-1.13,0,5.17,5.17,0,0,0-1.5,2.76,29.11,29.11,0,0,0-.91,5,46.44,46.44,0,0,0-.2,6.2,56.51,56.51,0,0,0,.55,6.39A34.17,34.17,0,0,0,72.55,131a11.45,11.45,0,0,0,1.88,3.78c.37.45.73.87,1.07,1.25a2.87,2.87,0,0,0,1.1.8,2.15,2.15,0,0,0,1.34,0,5,5,0,0,0,1.78-1A17.08,17.08,0,0,0,83,132.29a25.25,25.25,0,0,0,2.34-4.1,31.53,31.53,0,0,0,1.59-4.34,31.19,31.19,0,0,0,.91-4.16,23.9,23.9,0,0,0,.27-3.56A9.88,9.88,0,0,0,87.81,113.59Zm-18.52,18a3.28,3.28,0,0,0-.17-.49c-.07-.17-.14-.34-.2-.52l-.18-.54q-.09-.27-.2-.57-.28-1.08-.56-2.33-.07-.34-.12-.64t-.12-.64l-.09-.61c0-.2-.07-.42-.12-.65q-.16-1.29-.25-2.55t-.13-2.53q0-.61,0-1.21c0-.4,0-.78,0-1.15s0-.79,0-1.13,0-.69,0-1q.05-1,.09-1.8t.11-1.43q.06-.55.12-.93a2,2,0,0,0,0-.34l-.08.34a3,3,0,0,0-.06.38q0,.24-.06.55c-.05.41-.11.89-.17,1.44s-.11,1.16-.14,1.82q0,.48-.06,1t0,1.13c0,.39,0,.78,0,1.18s0,.8,0,1.21a35.57,35.57,0,0,0,.41,5.11,19.1,19.1,0,0,0,.44,2.55q.16.61.31,1.2l.28,1.17c.08.2.15.39.21.57l.18.54.44,1,.22.5a.42.42,0,0,0,.1.2.73.73,0,0,1,.13.24.66.66,0,0,0,.12.22.69.69,0,0,1,.12.22.66.66,0,0,0,.12.22.69.69,0,0,1,.12.22,1.16,1.16,0,0,1,.12.18,1.19,1.19,0,0,0,.12.18,1.31,1.31,0,0,1,.24.37,2.78,2.78,0,0,1,.24.32,1,1,0,0,0,.28.29l.45.54a1.93,1.93,0,0,0,.23.23,1.7,1.7,0,0,1,.2.2c.08.09.14.14.18.13l.17.2a1.6,1.6,0,0,1,.28.17.25.25,0,0,0,.1.08l.08.05.06.07-.06-.07-.08-.05a.26.26,0,0,1-.1-.08,1.29,1.29,0,0,0-.27-.23l-.28-.34a2.78,2.78,0,0,1-.44-.44l-.45-.54a2.77,2.77,0,0,1-.22-.3,4.06,4.06,0,0,1-.21-.37.87.87,0,0,1-.11-.17,1,1,0,0,0-.14-.2.38.38,0,0,0-.09-.18.67.67,0,0,1-.12-.22,1.08,1.08,0,0,1-.12-.19,1.21,1.21,0,0,0-.12-.18,2,2,0,0,0-.1-.24,1.69,1.69,0,0,1-.1-.24.68.68,0,0,0-.12-.22.65.65,0,0,1-.12-.22Zm.36-1.22c-.11-.29-.21-.6-.31-.91a8.37,8.37,0,0,1-.26-1q-.15-.51-.26-1l-.23-.95a9.46,9.46,0,0,0-.18-.93,7.79,7.79,0,0,1-.16-.83l-.17-1.22L68,123c0,.14,0,.3,0,.48a2.6,2.6,0,0,1,.06.58,5.44,5.44,0,0,0,.06.75c0,.27.08.55.13.83s.1.59.15.93l.23.95q.12.47.22,1,.29,1,.61,1.89a2.15,2.15,0,0,0,.16.44l.2.4a1.4,1.4,0,0,0,.15.39c.06.1.13.22.19.35s.22.45.3.61a2.29,2.29,0,0,0,.3.44,1.21,1.21,0,0,0,.19.3l.08.1-.08-.1a1.22,1.22,0,0,1-.19-.3.43.43,0,0,0-.1-.2.7.7,0,0,1-.13-.24l-.13-.32-.13-.32c-.07-.13-.13-.26-.17-.37l-.17-.37a2.21,2.21,0,0,0-.16-.44A2.14,2.14,0,0,1,69.64,130.37Z"/><path d="M99.37,107.79q0-.27.64-.35a5.08,5.08,0,0,1,1.39,0,5.6,5.6,0,0,1,1.38.38c.41.18.62.4.63.67q0,1.73.19,4.1a30.56,30.56,0,0,1-.08,4.78,16.68,16.68,0,0,1-1.07,4.55,7.36,7.36,0,0,1-2.78,3.46,6.19,6.19,0,0,1-2,.81,8.77,8.77,0,0,1-5-.22,4,4,0,0,1-2-1.46,12.19,12.19,0,0,1-1.45-3.1A48.26,48.26,0,0,1,88,116.71q-.61-2.69-1.1-5.78T86,104.72q-.33-3.12-.55-6c-.15-1.93-.25-3.64-.33-5.15S85,90.83,85,89.9a10.63,10.63,0,0,0-.11-1.47.48.48,0,0,1,.19-.75,2.49,2.49,0,0,1,.79-.17,8.3,8.3,0,0,1,1.44,0,7.11,7.11,0,0,1,1.55.27,1.77,1.77,0,0,1,1.06.71,5.11,5.11,0,0,1,.23,1.67c0,.94.1,2.15.16,3.61s.14,3.14.23,5,.22,3.78.4,5.76.39,4,.63,5.95.55,3.85.91,5.58a47.25,47.25,0,0,0,1.17,4.62,11.58,11.58,0,0,0,1.39,3.1c.34.48.82.5,1.44.07A4.89,4.89,0,0,0,98,122.05a10.35,10.35,0,0,0,.92-2.53,19.34,19.34,0,0,0,.44-3q.11-1.57.12-3.15t0-3Q99.41,108.91,99.37,107.79ZM89.48,118.1a3.47,3.47,0,0,1,.12.53,2.1,2.1,0,0,0,.09.39.64.64,0,0,0,.09.31c-.06-.39-.15-.81-.26-1.27l-.27-1.42c-.1-.54-.22-1.15-.36-1.84,0-.36-.1-.72-.18-1.08s-.15-.73-.2-1.12-.12-.78-.18-1.18-.14-.82-.23-1.26q-.19-1.31-.38-2.67t-.34-2.74q-.18-1.42-.31-2.78t-.22-2.68q-.09-1.31-.16-2.53t-.16-2.26c0-.72-.06-1.36-.1-1.93s-.07-1.05-.11-1.45-.07-.9-.1-1.29c0,.37,0,.8,0,1.29s0,.92,0,1.51,0,1.23,0,1.92.05,1.48.08,2.28.07,1.65.13,2.52.12,1.77.2,2.69.17,1.85.29,2.8.25,1.86.39,2.76.27,1.77.38,2.62l.25,1.24c.08.39.15.79.23,1.21s.15.8.23,1.15.15.71.22,1q.21,1,.42,1.82T89.48,118.1Zm4.3,4.39a2.79,2.79,0,0,0-.14-.33,1.43,1.43,0,0,1-.12-.4,6.54,6.54,0,0,1-.33-1c0-.18-.09-.37-.15-.57s-.12-.41-.2-.64-.12-.42-.16-.64-.1-.45-.14-.7q-.17-.69-.31-1.44l-.29-1.51q-.31-1.55-.53-3-.11-.72-.21-1.37T91,109.67c-.05-.39-.1-.74-.13-1s-.07-.58-.1-.81a3.58,3.58,0,0,0-.1-.72v.2a.69.69,0,0,0,0,.21.66.66,0,0,1,0,.27c0,.41.07,1,.14,1.91q.08.59.15,1.25t.18,1.39q.11.72.22,1.47c.07.5.15,1,.25,1.51s.21,1,.3,1.53.2,1,.32,1.46a6.73,6.73,0,0,1,.19.67c0,.22.1.43.16.64l.22.62a5.33,5.33,0,0,1,.17.55,4.93,4.93,0,0,0,.19.54,2.23,2.23,0,0,1,.14.47,4.12,4.12,0,0,0,.18.39,2.9,2.9,0,0,0,.19.32A2.4,2.4,0,0,0,94,123l.1.14L94,123A2.37,2.37,0,0,1,93.78,122.49Zm-6.61-29c0-.3,0-.57-.07-.82L87,92.11a3.71,3.71,0,0,0-.05-.59c0,.16,0,.35,0,.56a5.49,5.49,0,0,1,0,.64q0,.4,0,.85t0,1.06c0,.36,0,.72.05,1.09s0,.76,0,1.18a11.21,11.21,0,0,0,.1,1.25,19.13,19.13,0,0,0,.21,2.39c0,.37.06.73.11,1.09s.08.69.11,1,.09.6.14.83l.13.63,0,.41a.3.3,0,0,0,0,.14c0-.16,0-.35,0-.55s0-.37-.06-.62,0-.54-.09-.86a7.77,7.77,0,0,0-.06-1c0-.36-.08-.72-.11-1.09q-.08-1.1-.21-2.39c0-.41,0-.82-.05-1.23s-.06-.8-.09-1.2,0-.73-.08-1.08S87.17,93.89,87.17,93.54Z"/><path d="M118.28,96.86a2.77,2.77,0,0,1,1.34.24,2,2,0,0,1,1,1,4.19,4.19,0,0,1,.19,1.66,20.5,20.5,0,0,1-.31,3,34.72,34.72,0,0,1-.87,3.79,27,27,0,0,1-1.5,4,19.46,19.46,0,0,1-2.22,3.67,11,11,0,0,1-3.1,2.77,5.93,5.93,0,0,1-2.9.78,11.61,11.61,0,0,1-3.4-.39,11.78,11.78,0,0,1-3.24-1.4,7.46,7.46,0,0,1-2.39-2.28,10,10,0,0,1-1.25-3,16.69,16.69,0,0,1-.47-3.76,24,24,0,0,1,.3-4,19,19,0,0,1,1-3.87,15.39,15.39,0,0,1,1.67-3.23,7.07,7.07,0,0,1,2.27-2.17,5.5,5.5,0,0,1,3-.88,5.44,5.44,0,0,1,2.29.58,3.86,3.86,0,0,1,1.36,1.1q.42.6.24.7a.87.87,0,0,1-.3.11,2.51,2.51,0,0,1,.34.51,6.57,6.57,0,0,1,.74,2.88,10.67,10.67,0,0,1-.39,3.39,11.35,11.35,0,0,1-1.47,3.22,7.8,7.8,0,0,1-2.56,2.45,5.84,5.84,0,0,1-2.14.82,6.87,6.87,0,0,1-1.86,0,10.64,10.64,0,0,0,1.42,4.41,11.76,11.76,0,0,0,.89,1.24,5.64,5.64,0,0,0,1,1,2.73,2.73,0,0,0,1.16.5,1.77,1.77,0,0,0,1.25-.28,11.41,11.41,0,0,0,3.12-2.77,16.8,16.8,0,0,0,2.08-3.47,20.49,20.49,0,0,0,1.24-3.68q.43-1.85.65-3.45t.27-2.7c0-.73.06-1.22.08-1.47.06-.53.44-.85,1.12-.95ZM100,106q0-.23.06-.45c0-.14,0-.3.06-.45a1.62,1.62,0,0,1,0-.42,1.59,1.59,0,0,0,0-.42l.12-.7q.08-.36.16-.64a1.86,1.86,0,0,0,.07-.48.66.66,0,0,0,0-.18.37.37,0,0,1,0-.12l0-.13,0,.13a.37.37,0,0,0,0,.12.66.66,0,0,1,0,.18c0,.13-.09.29-.14.47s-.11.39-.18.6a1.9,1.9,0,0,1-.08.36,1.21,1.21,0,0,0-.06.4,2.38,2.38,0,0,0-.09.39c0,.13,0,.28-.07.43s0,.31-.06.45,0,.3-.06.45a7.07,7.07,0,0,1,0,.91c0,.16,0,.31,0,.44a4.44,4.44,0,0,0,0,.44c0,.16,0,.31,0,.44s0,.28,0,.44a1.6,1.6,0,0,0,.06.38,1.5,1.5,0,0,1,.06.38,5.46,5.46,0,0,1,.2.7c.07.23.13.43.19.58a2.26,2.26,0,0,0,.2.42.79.79,0,0,0,.21.33l-.07-.11a.72.72,0,0,1-.1-.25.43.43,0,0,0-.07-.21.44.44,0,0,1-.08-.21c0-.12-.1-.32-.2-.6a.63.63,0,0,0,0-.31,1.54,1.54,0,0,1-.09-.38,1.53,1.53,0,0,0-.06-.38,1.58,1.58,0,0,1-.06-.38q0-.24,0-.44t0-.44a4,4,0,0,1,0-.42,2.35,2.35,0,0,0,0-.46,2.41,2.41,0,0,1,0-.46C100,106.29,100,106.15,100,106Zm-.13-2.66a1.8,1.8,0,0,0,0,.27c0,.07,0,.14,0,.2a.52.52,0,0,1,0,.17.51.51,0,0,0,0-.17.59.59,0,0,1,0-.2,1.46,1.46,0,0,0,.05-.26,7.61,7.61,0,0,0,.2-.77,8.9,8.9,0,0,1,.27-1,5.19,5.19,0,0,1,.15-.56l.2-.58c.07-.22.15-.43.23-.63s.16-.41.23-.63a5.22,5.22,0,0,1,.28-.66c.11-.22.22-.45.33-.68a4,4,0,0,1,.38-.66q.22-.31.4-.62a7.27,7.27,0,0,1,1-1.21,6.61,6.61,0,0,1,1.13-1l.62-.36a3,3,0,0,1,.66-.28.45.45,0,0,1,.15-.06.42.42,0,0,0,.15-.06l.16,0,.16,0a.44.44,0,0,0,.16,0l.16,0a.39.39,0,0,0,.27-.05,4.77,4.77,0,0,1,1.06,0,1.42,1.42,0,0,1,.43,0,2,2,0,0,0,.38,0l.25.06a.5.5,0,0,0,.22,0,.31.31,0,0,0,.18,0,.49.49,0,0,1-.16-.06,3.62,3.62,0,0,1-.49-.13l-.35,0a1.47,1.47,0,0,1-.44-.08,1.71,1.71,0,0,1-.53,0,3.32,3.32,0,0,0-.55,0,1,1,0,0,1-.32.08,1.3,1.3,0,0,0-.3,0l-.37.11-.16,0-.16,0a6.75,6.75,0,0,0-1.38.69l-.62.46a4.3,4.3,0,0,0-.62.57,7.29,7.29,0,0,0-1,1.21,7.21,7.21,0,0,0-.46.68l-.39.69c-.11.23-.2.47-.29.69s-.19.46-.29.69a10.23,10.23,0,0,0-.42,1.28q-.15.61-.3,1.16a5.75,5.75,0,0,0-.19,1A6.62,6.62,0,0,1,99.84,103.35Zm4.67,3.16a7.47,7.47,0,0,0,2.63-2.49,7.94,7.94,0,0,0,1.06-2.87,9.76,9.76,0,0,0,0-2.86q-.2-1.39-.44-2.46l-.28.14-.28.14a4.7,4.7,0,0,0-1.58,1.62,11.19,11.19,0,0,0-1.19,2.62,19.17,19.17,0,0,0-.7,3.22,20.44,20.44,0,0,0-.18,3.38A3.13,3.13,0,0,0,104.51,106.51Zm10.67,4.71c.1-.16.18-.31.25-.45l.19-.36a3,3,0,0,0,.15-.34,3,3,0,0,1-.15.34c-.06.1-.13.22-.22.36l-.29.44a5.92,5.92,0,0,0-.37.49,3.63,3.63,0,0,1-.45.54,2.21,2.21,0,0,1-.25.3,2.3,2.3,0,0,0-.25.3,2.32,2.32,0,0,1-.25.3l-.32.29a1.31,1.31,0,0,1-.26.28,1.36,1.36,0,0,0-.26.28,3.41,3.41,0,0,1-.3.26l-.3.26-.52.47a2.39,2.39,0,0,0-.28.2l-.24.17a2.69,2.69,0,0,1-.44.32,2,2,0,0,1-.36.27.59.59,0,0,0-.14.11l-.09.08-.08.05.34-.21.38-.23a2.67,2.67,0,0,0,.44-.32,3.85,3.85,0,0,0,.53-.37,4.6,4.6,0,0,0,.59-.45l.28-.25.33-.27.28-.24a2,2,0,0,0,.3-.31,1.32,1.32,0,0,1,.26-.28,1.31,1.31,0,0,0,.26-.28l.51-.6c.14-.22.28-.42.42-.6A2.86,2.86,0,0,0,115.18,111.21Zm-6.53-12.41a.12.12,0,0,0,0,.1.14.14,0,0,0,0,.12.31.31,0,0,1,0,.16c0,.14,0,.29,0,.46s0,.38,0,.62a4,4,0,0,1-.09.66c0,.22-.08.49-.14.79,0,.13-.09.26-.12.4s-.08.27-.12.4a2.15,2.15,0,0,0-.17.43,1.14,1.14,0,0,1-.19.39l-.18.41a.47.47,0,0,1-.12.2.47.47,0,0,0-.12.2,5,5,0,0,1-.53.72,2.2,2.2,0,0,1-.28.32,2.19,2.19,0,0,0-.28.32,2.54,2.54,0,0,1-.59.51l-.46.43-.44.27a1.29,1.29,0,0,1-.28.23l-.09.05.39-.24.44-.27.25-.18a2.53,2.53,0,0,1,.29-.21,2.08,2.08,0,0,1,.27-.24l.32-.27a2.23,2.23,0,0,1,.28-.32A2.23,2.23,0,0,0,107,105a3.94,3.94,0,0,0,.28-.37,3.82,3.82,0,0,1,.28-.37.48.48,0,0,1,.12-.2.47.47,0,0,0,.12-.2l.18-.41a1.06,1.06,0,0,0,.23-.42,2.18,2.18,0,0,1,.17-.43,3,3,0,0,1,.11-.42,3.09,3.09,0,0,0,.11-.42,1.2,1.2,0,0,1,.07-.4,1.21,1.21,0,0,0,.07-.4v-.36a2.26,2.26,0,0,1,0-.32,2.48,2.48,0,0,0,0-.6,2.21,2.21,0,0,1,0-.43Z"/><path d="M138.62,87q.08-.46.69-.44a4.17,4.17,0,0,1,1.3.28,6.18,6.18,0,0,1,1.25.64c.38.25.56.45.54.58a17,17,0,0,1-.46,2.34,7.08,7.08,0,0,1-1,2.19,9.78,9.78,0,0,1-1.91,2,14.41,14.41,0,0,1-3.06,1.81,4.24,4.24,0,0,1-2.48.08q-.53,2-1.22,4.06a30.79,30.79,0,0,1-1.55,3.74,18.34,18.34,0,0,1-1.86,3,6.66,6.66,0,0,1-2.15,1.9,3.14,3.14,0,0,1-1.82.19,9.88,9.88,0,0,1-2.45-.66A11.3,11.3,0,0,1,120,107.4a6,6,0,0,1-1.78-2,9.32,9.32,0,0,1-.92-3,29,29,0,0,1-.34-4,39.37,39.37,0,0,1,.16-4.34q.2-2.22.5-4a23.29,23.29,0,0,1,.68-3c.25-.82.49-1.28.71-1.39a2,2,0,0,1,1.2-.14,6.31,6.31,0,0,1,1.42.37,5.85,5.85,0,0,1,1.22.65,2,2,0,0,1,.65.61,2.84,2.84,0,0,1-.15,1.22c-.16.68-.37,1.55-.61,2.61s-.47,2.24-.68,3.54a33.72,33.72,0,0,0-.41,4,20.8,20.8,0,0,0,.2,4,10.75,10.75,0,0,0,1.11,3.49q.27.5.57.34a6,6,0,0,0,2-1.82,15.5,15.5,0,0,0,1.61-2.87,28.49,28.49,0,0,0,1.27-3.53q.55-1.88,1-3.79a5.25,5.25,0,0,1-.43-.55,4.45,4.45,0,0,1-.34-.59,6,6,0,0,1-.46-1.85,18.33,18.33,0,0,1-.11-2.55q0-1.37.2-2.79t.4-2.59a16.31,16.31,0,0,1,.5-2q.27-.8.51-.91a2.55,2.55,0,0,1,1.29-.2,4.18,4.18,0,0,1,1.36.35,4.76,4.76,0,0,1,1.15.72,2.52,2.52,0,0,1,.7.87,1.77,1.77,0,0,1,.06.72c0,.34-.05.76-.1,1.24s-.12,1-.2,1.63-.16,1.22-.21,1.85a7.46,7.46,0,0,1,.63,1.21,2.55,2.55,0,0,1,.19,1.22c0,.59-.09,1.21-.19,1.85s-.2,1.31-.32,2a.66.66,0,0,0,.8.07,4.38,4.38,0,0,0,1.66-1.31,9,9,0,0,0,1.1-1.84,10.94,10.94,0,0,0,.68-2Q138.47,87.83,138.62,87Zm-20.16,17.44c-.07-.2-.15-.45-.25-.77a3.41,3.41,0,0,0-.08-.51q-.06-.27-.12-.59c0-.19-.06-.39-.1-.6a4.83,4.83,0,0,1-.07-.66,4,4,0,0,1-.09-.7c0-.23,0-.47,0-.72a6.89,6.89,0,0,0,0-.79,6.84,6.84,0,0,1,0-.79q0-.41,0-.8c0-.26,0-.53,0-.8q0-.85,0-1.63c0-.52,0-1,.08-1.56,0-.29.07-.54.09-.77s0-.46.07-.71.05-.48.08-.69,0-.42.06-.62q.08-.64.16-1.12t.17-.88c0-.11,0-.21.05-.3s0-.17,0-.24v0s-.07.21-.15.52a1.61,1.61,0,0,1-.08.41,2.8,2.8,0,0,0-.11.48l-.08.53c0,.18-.06.38-.1.6s0,.38-.07.6a5.69,5.69,0,0,1-.12.73,5.11,5.11,0,0,0-.08.69q0,.36-.08.79-.08.74-.12,1.55t-.07,1.63c0,.27,0,.55,0,.82s0,.54,0,.8a8.54,8.54,0,0,0,0,1.58q0,.38,0,.72a4.06,4.06,0,0,0,.09.7c.05.24.1.46.13.66s.07.41.11.62a3.15,3.15,0,0,0,.12.53,2.07,2.07,0,0,1,.1.5,4.92,4.92,0,0,1,.27.8,1.67,1.67,0,0,0,.12.33l.11.19.08.15a.23.23,0,0,0,0-.18l-.11-.19A1.72,1.72,0,0,1,118.45,104.45Zm-.42-3.62a18.26,18.26,0,0,1-.12-2.38c0-.77,0-1.45,0-2s.06-1.36.09-2a.48.48,0,0,0,0,.16.76.76,0,0,0,0,.19.39.39,0,0,1,0,.22,5.72,5.72,0,0,1,0,.63c0,.26,0,.54-.07.86q-.06.88,0,2t.14,2.35c0,.42.08.81.13,1.2s.12.76.2,1.11l.32,1a4.85,4.85,0,0,0,.36.88,4.25,4.25,0,0,0,.42.67,2.07,2.07,0,0,0,.19.3,1.79,1.79,0,0,0,.19.2,1,1,0,0,0,.32.28.12.12,0,0,0,.09.05l0,0,0,0-.09-.05a.36.36,0,0,1-.13-.13.65.65,0,0,0-.15-.17,1.66,1.66,0,0,1-.19-.2,2,2,0,0,1-.19-.3A4.22,4.22,0,0,1,119,105a4.89,4.89,0,0,1-.36-.88c-.1-.33-.19-.67-.27-1s-.15-.72-.23-1.1A8.54,8.54,0,0,1,118,100.83Zm10.16.91s0,0,0,.06a.15.15,0,0,1-.07.08.15.15,0,0,0-.07.08c0,.08-.08.18-.13.29l-.2.37-.23.41-.26.47-.33.49-.33.49a1.52,1.52,0,0,1-.18.24,1.57,1.57,0,0,0-.18.24,5.93,5.93,0,0,1-.36.48l-.33.37a2.41,2.41,0,0,1-.35.33.32.32,0,0,1-.15.18.54.54,0,0,0-.18.14.76.76,0,0,1-.24.18.61.61,0,0,1-.2.15l0,0,0,0,.1,0a.37.37,0,0,0,.14,0l.3-.16a.31.31,0,0,1,.16-.11.49.49,0,0,0,.21-.13.54.54,0,0,1,.18-.14.94.94,0,0,0,.22-.16,1.63,1.63,0,0,0,.4-.4,7.54,7.54,0,0,0,.78-.95c.12-.19.23-.37.34-.52a1.65,1.65,0,0,1,.14-.27,1.48,1.48,0,0,0,.14-.27l.25-.49a2.3,2.3,0,0,0,.16-.45,1,1,0,0,0,.14-.39,1.12,1.12,0,0,1,.07-.3Zm.13,2.24a1.83,1.83,0,0,1,.11-.23,1.75,1.75,0,0,0,.11-.23l.07-.18-.07.18a1.73,1.73,0,0,1-.28.43,9.61,9.61,0,0,1-.85,1.36,4.67,4.67,0,0,1-.54.67,1,1,0,0,1-.14.15l-.14.15a.84.84,0,0,1-.26.24.41.41,0,0,1-.11.11.41.41,0,0,0-.11.11l-.22.11a.21.21,0,0,1-.11.11l0,0,.17-.09a.61.61,0,0,0,.2-.15.76.76,0,0,0,.24-.17l.3-.23a2,2,0,0,0,.32-.29,4.71,4.71,0,0,0,.54-.67,1.56,1.56,0,0,0,.27-.38,1.84,1.84,0,0,1,.23-.36,1.91,1.91,0,0,0,.16-.33A1.88,1.88,0,0,1,128.32,104ZM129,86.22l.08-.81c0-.27,0-.52.05-.75s0-.4.07-.59,0-.35.06-.49a.94.94,0,0,0,0-.41.12.12,0,0,1,0,.1,1,1,0,0,0-.08.33c0,.14,0,.29-.07.47s-.08.37-.13.59-.08.49-.11.75-.06.52-.09.79a5.63,5.63,0,0,0-.1.87q0,.45-.08.91c0,.32,0,.63,0,.93a7.64,7.64,0,0,0,0,.87,4.3,4.3,0,0,0,0,.78c0,.25.06.49.1.73a3.13,3.13,0,0,0,.27,1,.84.84,0,0,0,.09.3l0,.08,0-.08a.5.5,0,0,1,0-.13.65.65,0,0,0-.05-.17c0-.19,0-.34-.05-.46a1.51,1.51,0,0,0-.05-.29,1.38,1.38,0,0,1-.05-.29,12.07,12.07,0,0,1-.05-1.53c0-.3,0-.59,0-.88a6,6,0,0,1,.06-.9Q128.89,87.2,129,86.22Zm.49-3.76,0,.2,0,.06,0-.06a.73.73,0,0,0,.07-.23,1.13,1.13,0,0,0,.08-.26c0-.09,0-.19.07-.3a2.63,2.63,0,0,0,.06-.32l0-.25a.12.12,0,0,0,0-.1.12.12,0,0,1,0-.1s0,0,0-.06,0,0,0,.06,0,.07,0,.08,0,0,0,.08a1.47,1.47,0,0,0-.1.29l-.08.33a2.38,2.38,0,0,0-.06.32Zm8.6,8.27-.08.18-.11.24a1.58,1.58,0,0,1-.16.26,5.75,5.75,0,0,1-1,1.39,1.2,1.2,0,0,1-.29.32,3.91,3.91,0,0,1-.68.62l-.31.21a.78.78,0,0,1-.25.16.6.6,0,0,1-.21.14c-.06,0-.1.05-.1.07a.11.11,0,0,1-.06.05l0,0,.23-.1.2-.09a1.54,1.54,0,0,0,.28-.17,3.07,3.07,0,0,0,.72-.47l.35-.32.35-.32a1.56,1.56,0,0,0,.3-.37q.11-.19.24-.39a3.3,3.3,0,0,0,.21-.38,2,2,0,0,1,.19-.32,1.5,1.5,0,0,1,.09-.28l.11-.24Z"/><path d="M158.82,79.3a2.72,2.72,0,0,1,1.27.45,2.06,2.06,0,0,1,.85,1.1,4.21,4.21,0,0,1-.07,1.67,20.37,20.37,0,0,1-.75,2.93A34.18,34.18,0,0,1,158.71,89a26.76,26.76,0,0,1-2.06,3.71A19,19,0,0,1,153.94,96a10.68,10.68,0,0,1-3.43,2.22,5.75,5.75,0,0,1-2.94.3,11.44,11.44,0,0,1-3.25-.94,11.77,11.77,0,0,1-2.95-1.91,7.57,7.57,0,0,1-2-2.63,10.23,10.23,0,0,1-.77-3.19,16.85,16.85,0,0,1,.1-3.78,23.94,23.94,0,0,1,.89-3.93,18.72,18.72,0,0,1,1.57-3.64,15.11,15.11,0,0,1,2.11-2.91,6.85,6.85,0,0,1,2.53-1.77,5.11,5.11,0,0,1,5.21.56,3.9,3.9,0,0,1,1.16,1.31q.32.65.13.72a.82.82,0,0,1-.3.06,2.53,2.53,0,0,1,.26.56,6.66,6.66,0,0,1,.3,3,10.67,10.67,0,0,1-.88,3.28,11.15,11.15,0,0,1-1.91,2.94,7.55,7.55,0,0,1-2.86,2,5.63,5.63,0,0,1-2.21.46,6.71,6.71,0,0,1-1.81-.26,10.81,10.81,0,0,0,.73,4.57,11.8,11.8,0,0,0,.68,1.36,5.74,5.74,0,0,0,.85,1.15,2.74,2.74,0,0,0,1.05.68,1.71,1.71,0,0,0,1.26-.07,11,11,0,0,0,3.45-2.22,16.43,16.43,0,0,0,2.54-3.08,20.36,20.36,0,0,0,1.76-3.42q.69-1.75,1.15-3.29t.66-2.61q.21-1.07.3-1.43.21-.77,1.23-.75Zm-19.2,6c0-.15.09-.29.12-.43s.07-.28.12-.43a1.62,1.62,0,0,1,.11-.4,1.62,1.62,0,0,0,.11-.4l.22-.66q.13-.34.25-.6a1.89,1.89,0,0,0,.14-.46.66.66,0,0,0,.07-.17.36.36,0,0,1,0-.11l.06-.12-.06.12a.35.35,0,0,0,0,.11.65.65,0,0,1-.07.17q-.09.18-.21.44t-.26.56a1.92,1.92,0,0,1-.13.34,1.19,1.19,0,0,0-.12.38,2.3,2.3,0,0,0-.15.37l-.13.41q-.07.22-.12.43c0,.14-.07.29-.12.43a7.16,7.16,0,0,1-.18.89c0,.16,0,.31,0,.44s0,.28,0,.44,0,.31,0,.44,0,.28,0,.44a1.63,1.63,0,0,0,0,.38,1.55,1.55,0,0,1,0,.38,5.45,5.45,0,0,1,.09.73c0,.24.06.44.1.6a2.27,2.27,0,0,0,.14.44.81.81,0,0,0,.16.36l-.05-.12a.74.74,0,0,1-.06-.26.44.44,0,0,0,0-.22.45.45,0,0,1,0-.22c0-.12-.05-.33-.11-.62a.63.63,0,0,0,0-.31,1.55,1.55,0,0,1,0-.39,1.53,1.53,0,0,0,0-.38,1.62,1.62,0,0,1,0-.38c0-.16,0-.31,0-.44s0-.28,0-.44a4.16,4.16,0,0,1,.07-.41,2.36,2.36,0,0,0,.05-.45,2.37,2.37,0,0,1,.06-.45C139.57,85.61,139.6,85.47,139.61,85.34Zm.27-2.64a1.81,1.81,0,0,0-.06.26l0,.2a.53.53,0,0,1,0,.16.52.52,0,0,0,0-.16.58.58,0,0,1,.06-.19,1.45,1.45,0,0,0,.09-.25,7.36,7.36,0,0,0,.31-.72,8.65,8.65,0,0,1,.4-.9,5.19,5.19,0,0,1,.23-.52l.28-.54q.15-.3.32-.58c.11-.19.22-.38.32-.58a5.09,5.09,0,0,1,.37-.6q.21-.3.42-.62a4,4,0,0,1,.46-.59q.26-.27.48-.55a7.08,7.08,0,0,1,1.16-1,6.38,6.38,0,0,1,1.25-.81l.66-.25a3,3,0,0,1,.69-.17l.15,0a.4.4,0,0,0,.15,0,.46.46,0,0,0,.16,0h.48a.38.38,0,0,0,.27,0,4.69,4.69,0,0,1,1,.13,1.41,1.41,0,0,1,.42.08,2.08,2.08,0,0,0,.37.1l.23.1a.48.48,0,0,0,.22.06.3.3,0,0,0,.18,0,.49.49,0,0,1-.14-.09,3.47,3.47,0,0,1-.46-.21l-.34-.09a1.43,1.43,0,0,1-.42-.15,1.66,1.66,0,0,1-.52-.06,3.3,3.3,0,0,0-.54-.1.9.9,0,0,1-.32,0,1.32,1.32,0,0,0-.29,0l-.37,0h-.32a6.52,6.52,0,0,0-1.44.46l-.67.35a4.19,4.19,0,0,0-.69.46,7.1,7.1,0,0,0-1.16,1,7,7,0,0,0-.55.6l-.48.62c-.14.21-.27.42-.39.63l-.39.63a10.11,10.11,0,0,0-.6,1.19l-.47,1.1a5.65,5.65,0,0,0-.33.95A6.54,6.54,0,0,1,139.89,82.7ZM144,86.57a7.23,7.23,0,0,0,2.93-2,7.83,7.83,0,0,0,1.46-2.66,9.79,9.79,0,0,0,.45-2.81c0-.94,0-1.77-.07-2.5l-.3.09-.3.09a4.56,4.56,0,0,0-1.78,1.34,11,11,0,0,0-1.55,2.39,19,19,0,0,0-1.16,3.06,20.44,20.44,0,0,0-.67,3.3A3,3,0,0,0,144,86.57Zm9.7,6.37c.12-.14.22-.27.31-.4l.24-.33a3,3,0,0,0,.2-.31,3,3,0,0,1-.2.31l-.27.31-.34.39a6,6,0,0,0-.43.43,3.46,3.46,0,0,1-.52.46,2.24,2.24,0,0,1-.29.25,2.18,2.18,0,0,0-.29.25,2.31,2.31,0,0,1-.29.25l-.35.23a1.26,1.26,0,0,1-.3.24,1.31,1.31,0,0,0-.3.24l-.33.2-.34.2-.58.37-.31.15-.26.13a2.57,2.57,0,0,1-.48.24,1.91,1.91,0,0,1-.39.21.56.56,0,0,0-.15.08l-.1.07-.09,0,.36-.15.4-.16a2.52,2.52,0,0,0,.48-.24,3.6,3.6,0,0,0,.57-.28,4.44,4.44,0,0,0,.64-.35l.31-.2.36-.21.31-.19a2,2,0,0,0,.34-.25,1.3,1.3,0,0,1,.3-.23,1.25,1.25,0,0,0,.3-.23l.58-.51q.25-.29.5-.52A2.8,2.8,0,0,0,153.66,92.93Zm-4.52-13.27a.12.12,0,0,0,0,.1.14.14,0,0,0,0,.12.32.32,0,0,1,0,.16l-.07.45q0,.25-.12.61a4,4,0,0,1-.19.64c-.06.21-.15.46-.25.76-.06.12-.12.24-.18.38s-.12.26-.18.38a2.1,2.1,0,0,0-.23.39,1.12,1.12,0,0,1-.24.35l-.23.37a.45.45,0,0,1-.15.18.47.47,0,0,0-.15.18,4.79,4.79,0,0,1-.62.62,2.07,2.07,0,0,1-.32.27,2.16,2.16,0,0,0-.32.27,2.45,2.45,0,0,1-.65.4l-.51.35-.47.19a1.2,1.2,0,0,1-.31.18l-.09,0,.42-.17.47-.19.27-.13.32-.15a2,2,0,0,1,.3-.19L146,86a2.14,2.14,0,0,1,.32-.27,2.08,2.08,0,0,0,.33-.27,3.73,3.73,0,0,0,.33-.32,3.58,3.58,0,0,1,.33-.32.47.47,0,0,1,.15-.18.46.46,0,0,0,.15-.18l.23-.37a1,1,0,0,0,.29-.37,2.11,2.11,0,0,1,.23-.39,2.94,2.94,0,0,1,.17-.4,3,3,0,0,0,.17-.4,1.2,1.2,0,0,1,.13-.38,1.21,1.21,0,0,0,.13-.38l.06-.35a2.27,2.27,0,0,1,.07-.31,2.52,2.52,0,0,0,.07-.59,2.26,2.26,0,0,1,0-.43Z"/><path d="M170.25,75.6q.08-.25.69-.16a5,5,0,0,1,1.3.42,5.55,5.55,0,0,1,1.2.75c.34.28.48.56.41.82q-.4,1.67-.88,4A30.62,30.62,0,0,1,171.66,86,16.37,16.37,0,0,1,169.49,90a7,7,0,0,1-3.5,2.52,5.86,5.86,0,0,1-2,.22,8.29,8.29,0,0,1-2.43-.46,8.48,8.48,0,0,1-2.23-1.17,4.06,4.06,0,0,1-1.46-1.95,12.55,12.55,0,0,1-.57-3.37c-.08-1.45-.09-3.08,0-4.91s.23-3.77.45-5.83.51-4.11.83-6.17.67-4,1-5.9.7-3.56,1-5,.57-2.65.77-3.55a10.74,10.74,0,0,0,.27-1.44.47.47,0,0,1,.37-.66,2.41,2.41,0,0,1,.79.06,8.09,8.09,0,0,1,1.36.38,7,7,0,0,1,1.39.69,1.8,1.8,0,0,1,.82,1,5.19,5.19,0,0,1-.22,1.67c-.2.91-.46,2.08-.78,3.51s-.68,3-1.08,4.85-.77,3.68-1.11,5.62-.66,3.89-.94,5.87-.47,3.84-.58,5.59-.14,3.33-.09,4.74a11.89,11.89,0,0,0,.51,3.36c.19.56.64.71,1.34.47a4.62,4.62,0,0,0,1.9-1.26,10.07,10.07,0,0,0,1.51-2.16A19.21,19.21,0,0,0,168,84q.51-1.47.93-3t.75-2.91Zm-11.94,7.08a3.49,3.49,0,0,1,0,.54,2.14,2.14,0,0,0,0,.4.65.65,0,0,0,0,.32q.06-.58.08-1.28t.11-1.43c0-.54.08-1.16.13-1.86q.08-.54.11-1.08t.1-1.12c0-.39.09-.78.13-1.18s.08-.82.11-1.27q.15-1.3.33-2.66t.38-2.72q.2-1.4.42-2.75t.48-2.62l.5-2.46q.24-1.18.43-2.2c.16-.69.29-1.32.41-1.87s.2-1,.27-1.42l.24-1.27q-.12.54-.3,1.24l-.37,1.45-.47,1.85-.51,2.21q-.27,1.17-.53,2.45t-.51,2.63q-.25,1.35-.44,2.76T159,72.08q-.15,1.35-.32,2.61,0,.66-.09,1.26t-.1,1.22c0,.42-.06.8-.08,1.17s0,.72-.06,1.07c0,.7-.07,1.32-.07,1.86S158.31,82.28,158.31,82.68Zm2.9,5.41a3,3,0,0,0,0-.36,1.44,1.44,0,0,1,0-.41,6.76,6.76,0,0,1-.05-1.05c0-.19,0-.38,0-.58s0-.42,0-.67,0-.43,0-.65,0-.46,0-.71c0-.47,0-1,.08-1.47l.12-1.52q.11-1.56.27-3,.08-.72.16-1.37c.05-.43.1-.84.16-1.23s.1-.73.14-1l.12-.8a3.62,3.62,0,0,0,.09-.72l0,.2a.7.7,0,0,0,0,.21.66.66,0,0,1,0,.27c-.09.4-.21,1-.36,1.87-.05.39-.11.8-.18,1.24s-.13.9-.18,1.38-.11,1-.17,1.47-.11,1-.15,1.51-.07,1.05-.11,1.54-.07,1-.07,1.49a6.9,6.9,0,0,1,0,.7c0,.22,0,.44,0,.65s0,.46,0,.66a5.72,5.72,0,0,1,0,.57,5.09,5.09,0,0,0,0,.57,2.24,2.24,0,0,1,0,.48,4.22,4.22,0,0,0,.07.42,2.94,2.94,0,0,0,.1.36,2.48,2.48,0,0,0,.13.51l.06.17-.06-.17A2.43,2.43,0,0,1,161.22,88.09Zm1.24-29.55c.06-.29.11-.56.15-.8l.1-.6a3.75,3.75,0,0,0,.1-.58q0,.24-.12.54a5.53,5.53,0,0,1-.15.62c-.07.25-.14.52-.2.82s-.17.67-.25,1-.16.7-.23,1.06-.16.74-.26,1.14a11.07,11.07,0,0,0-.23,1.22,19.28,19.28,0,0,0-.42,2.34q-.1.54-.18,1.07c-.05.35-.1.68-.15,1s-.07.6-.09.84l0,.64-.09.4a.31.31,0,0,0,0,.14c0-.16.05-.34.1-.54s.05-.36.1-.61.09-.53.14-.85a7.83,7.83,0,0,0,.2-1c.05-.35.11-.71.18-1.07q.21-1.08.42-2.34.14-.6.27-1.19T162,60.6c.07-.36.14-.71.21-1.05S162.37,58.87,162.46,58.54Z"/><path d="M194.81,69.51q.12-.16.54,0a3.79,3.79,0,0,1,.88.57,7,7,0,0,1,.85.84,1.89,1.89,0,0,1,.46.81,4,4,0,0,1-.25,1.57,25.21,25.21,0,0,1-1,2.63q-.62,1.49-1.48,3.17A29.41,29.41,0,0,1,193,82.25a17,17,0,0,1-2,2.5,4.61,4.61,0,0,1-2.16,1.31,2.65,2.65,0,0,1-1.45-.15,9.67,9.67,0,0,1-1.68-.76,7.71,7.71,0,0,1-1.45-1,2.34,2.34,0,0,1-.74-1l-.09-.34q-.76,1.14-1.55,2.19t-1.58,1.9a13.76,13.76,0,0,1-1.53,1.44,4.17,4.17,0,0,1-1.43.79A4.43,4.43,0,0,1,174.9,89a11.37,11.37,0,0,1-2.57-1.07,10.78,10.78,0,0,1-2.18-1.61,4.33,4.33,0,0,1-1.2-1.74,8.74,8.74,0,0,1-.2-3.89,19.35,19.35,0,0,1,1.3-4.57,30.83,30.83,0,0,1,2.43-4.66,31.85,31.85,0,0,1,3.13-4.19A24,24,0,0,1,179,64.1,8.65,8.65,0,0,1,182,62.48a3.92,3.92,0,0,1,2.89.31,6.22,6.22,0,0,1,2,1.7,5.17,5.17,0,0,1,1,1.95q.21.94-.23,1a.8.8,0,0,1-.8-.2q-.31-.31-.63-.71a2.83,2.83,0,0,0-.81-.67,1.84,1.84,0,0,0-1.33-.07,6.92,6.92,0,0,0-2.64,1.45,21.47,21.47,0,0,0-2.9,2.91A30.74,30.74,0,0,0,175.84,74a28.42,28.42,0,0,0-2.11,4.22,19.59,19.59,0,0,0-1.15,4.06,7.49,7.49,0,0,0,.1,3.34,1,1,0,0,0,1.4.82,4.92,4.92,0,0,0,2-1.28,16.27,16.27,0,0,0,2-2.38q1-1.38,1.9-3t1.76-3.11q.81-1.5,1.43-2.76t1-2c.17-.43.32-.66.45-.7a1.71,1.71,0,0,1,.84.27,14.48,14.48,0,0,1,1.34.77,14.73,14.73,0,0,1,1.26.91q.56.46.61.67a2.82,2.82,0,0,1-.15.8c-.12.45-.25,1-.39,1.6s-.3,1.27-.47,2-.31,1.32-.4,1.9a11.31,11.31,0,0,0-.16,1.42c0,.36.08.52.26.48A3.51,3.51,0,0,0,189,80.89a13.45,13.45,0,0,0,1.6-2.23,27.29,27.29,0,0,0,1.41-2.78q.66-1.49,1.21-2.82t.94-2.3A6.3,6.3,0,0,1,194.81,69.51ZM170,78.79a7.12,7.12,0,0,1,.3-1l.4-1q.26-.53.5-1.06c.16-.35.32-.71.5-1.06s.36-.71.56-1.05l.62-1.07a23.15,23.15,0,0,1,1.33-2q.73-1,1.48-1.93.35-.46.71-.9a10.5,10.5,0,0,1,.74-.81q.37-.41.75-.79l.73-.69A12.4,12.4,0,0,1,180,64.25a1.31,1.31,0,0,1,.29-.21,1.29,1.29,0,0,0,.29-.21,3.56,3.56,0,0,1,.56-.32l.47-.25a1.33,1.33,0,0,1,.34-.13.23.23,0,0,0,.12-.05.11.11,0,0,1,.07,0l.1,0-.3.07-.17.06-.17.06a.67.67,0,0,1-.24.1.67.67,0,0,0-.24.1l-.28.16-.33.17a1.27,1.27,0,0,1-.29.21,1.32,1.32,0,0,0-.29.21q-.37.23-.73.5c-.24.18-.47.38-.7.59q-.74.64-1.51,1.44t-1.58,1.74q-.75.93-1.49,1.91a21.47,21.47,0,0,0-1.37,2.07q-.6,1-1.16,2.16-.26.53-.5,1.06t-.45,1a18.13,18.13,0,0,0-.69,2,5.82,5.82,0,0,0-.22,1,3.36,3.36,0,0,1-.09.46,3.76,3.76,0,0,0-.09.46,5.85,5.85,0,0,0-.08.83c0,.26,0,.51,0,.76a1,1,0,0,0,0,.35,1.46,1.46,0,0,1,0,.29,1.2,1.2,0,0,0,0,.31.74.74,0,0,1,0,.27,2,2,0,0,0,.08.41l.1.31.09.29,0-.08a.46.46,0,0,1,0-.22l-.09-.29a.39.39,0,0,0,0-.2.72.72,0,0,1,0-.25,1.07,1.07,0,0,1,0-.55,3.74,3.74,0,0,1,0-.69,9.06,9.06,0,0,1,.14-1.56l.2-.89a2.21,2.21,0,0,1,.12-.47Q169.93,79,170,78.79Zm11.81,5.12.34-.43.26-.36.21-.33a2.91,2.91,0,0,1-.23.28l-.29.32-.36.43a4.93,4.93,0,0,1-.41.54l-.5.56-.51.59c-.16.2-.35.4-.56.61a1.73,1.73,0,0,0-.29.31,1.8,1.8,0,0,1-.29.31l-.25.25-.3.26-.3.24-.3.24a.77.77,0,0,1-.27.19,1.92,1.92,0,0,0-.28.15,695.18,695.18,0,0,0-.53.24l-.41.12-.17,0h-.12l-.09,0,.09,0a.36.36,0,0,0,.15,0h.15l.21,0a.35.35,0,0,0,.2-.08l.28-.08a1.13,1.13,0,0,0,.31-.13l.28-.15a.77.77,0,0,0,.27-.19,2.46,2.46,0,0,0,.32-.2l.3-.24.3-.26.3-.26a1.87,1.87,0,0,0,.29-.31,1.78,1.78,0,0,1,.29-.31,6.12,6.12,0,0,0,.55-.63c.16-.21.33-.41.51-.61s.34-.38.47-.56S181.7,84.1,181.82,83.91Zm-4,.07a.74.74,0,0,0-.15.18l0,.06,0-.06a.74.74,0,0,1,.15-.18l.23-.27a3.12,3.12,0,0,1,.31-.34c.1-.12.21-.25.32-.41s.22-.32.34-.5a5.89,5.89,0,0,0,.37-.51l.36-.55c.12-.18.23-.36.33-.54s.2-.36.29-.53a4.9,4.9,0,0,0,.3-.51,4.3,4.3,0,0,1,.26-.45c.07-.14.12-.27.17-.41a1.49,1.49,0,0,1,.15-.31,1.43,1.43,0,0,1,.13-.26l-.18.27-.18.27a3,3,0,0,0-.21.37,4.1,4.1,0,0,0-.26.45,5.11,5.11,0,0,1-.3.51c-.12.18-.23.36-.34.54s-.22.36-.33.54l-.68,1-.32.5a3.83,3.83,0,0,1-.29.4,4.71,4.71,0,0,0-.29.4Zm1.64-18.56a3.29,3.29,0,0,0,.31-.26,1.69,1.69,0,0,0,.21-.23l.22-.19s0,0,0,.06l-.09,0-.09,0a.94.94,0,0,1-.24.22l-.39.26-.37.3a3.63,3.63,0,0,0-.4.4l-.46.39a3.81,3.81,0,0,0-.44.43l-.39.44-.39.44-.36.44-.27.37-.25.36-.17.25-.15.22a.54.54,0,0,1,.15-.22l.49-.54.69-.77q.37-.41.82-.9a4.64,4.64,0,0,1,.42-.43,5,5,0,0,0,.42-.43q.22-.19.38-.37A2.09,2.09,0,0,1,179.47,65.42Z"/><path d="M216.53,66q.16-.33.74-.13a5.26,5.26,0,0,1,1.2.61,4.32,4.32,0,0,1,1,.94c.27.35.37.64.29.85-.5,1.17-1.17,2.53-2,4.05A39.09,39.09,0,0,1,215,76.7a23.12,23.12,0,0,1-3.3,3.67,7.13,7.13,0,0,1-3.58,1.86,2.91,2.91,0,0,1-1.5-.22,8.13,8.13,0,0,1-1.61-.84A8.54,8.54,0,0,1,203.66,80a2.3,2.3,0,0,1-.69-1.13,6.84,6.84,0,0,1,.19-2.67,33.23,33.23,0,0,1,1.07-3.57q.69-1.94,1.51-4.06t1.44-4.07a64.84,64.84,0,0,0-5.62,7.66c-1.49,2.41-2.67,4.53-3.57,6.36s-1.56,3.29-2,4.37-.73,1.63-.89,1.67a1.63,1.63,0,0,1-.8-.12,4.76,4.76,0,0,1-1.06-.53,5.39,5.39,0,0,1-1-.84,2.25,2.25,0,0,1-.57-1A8.06,8.06,0,0,1,192,80q.38-1.77,1-4.22t1.45-5.26q.8-2.81,1.54-5.28T197.2,61a7.33,7.33,0,0,0,.4-2.2.34.34,0,0,1,0-.18.41.41,0,0,1,.37-.29,2.6,2.6,0,0,1,1,0,5.56,5.56,0,0,1,1.14.38,3.1,3.1,0,0,1,1,.7,1.85,1.85,0,0,1,.5,1,4.25,4.25,0,0,1-.12,1.13q-.16.88-.49,2.11t-.72,2.72l-.82,3q1.22-1.88,2.6-3.83t2.61-3.62q1.23-1.67,2.2-2.83a10.26,10.26,0,0,1,1.34-1.44.12.12,0,0,0,.07,0,.11.11,0,0,1,.07,0,.16.16,0,0,1,.11,0,.34.34,0,0,1,.21,0,5,5,0,0,1,.86.34,5.26,5.26,0,0,1,1.06.69,4.8,4.8,0,0,1,1,1.09,3.64,3.64,0,0,1,.54,1.52,5.29,5.29,0,0,1-.29,2q-.38,1.32-1,2.93t-1.29,3.43q-.71,1.81-1.24,3.45t-.86,3a5.37,5.37,0,0,0-.22,2,4.85,4.85,0,0,0,2.36-1.26A16.4,16.4,0,0,0,212,74a41.22,41.22,0,0,0,2.38-3.74Q215.55,68.17,216.53,66Zm-18.9,5.53q.16-.48.27-.95t.28-.95c.1-.35.19-.68.27-1s.17-.63.28-.95l.22-.89.19-.79c.06-.25.11-.47.16-.66l.14-.52a.32.32,0,0,0,0-.16.32.32,0,0,1,0-.16.16.16,0,0,1,0-.14Q198.74,67,198,69.56l-.52,1.91L197,73.14q-.13.38-.2.66l-.12.52a1.4,1.4,0,0,0-.12.43c0-.13.1-.27.16-.44l.38-1.15q.13-.38.22-.78C197.44,72.12,197.53,71.83,197.63,71.51ZM198.88,69a.12.12,0,0,1,0-.1.14.14,0,0,0,0-.12.23.23,0,0,1,.07-.17,7.19,7.19,0,0,0,.37-1.05,6.93,6.93,0,0,0,.25-.72q.11-.38.25-.76l.26-.85q.13-.42.25-.89a7.25,7.25,0,0,0,.21-.86c.05-.29.1-.58.16-.85s.1-.54.14-.81l.11-.71A5,5,0,0,0,201,60l0-.17a.17.17,0,0,0-.07-.12.12.12,0,0,1-.07-.08l.07.08,0,.13,0,.17a.38.38,0,0,0,0,.2.69.69,0,0,1,0,.25.63.63,0,0,0-.08.3,1.49,1.49,0,0,1,0,.29,4.11,4.11,0,0,1-.16.74,7.93,7.93,0,0,0-.2.79,6.94,6.94,0,0,0-.24.82q-.1.44-.23.87l-.23.89q-.1.42-.18.84c-.09.28-.16.55-.21.8s-.12.48-.18.7a5.75,5.75,0,0,1-.09.62,4,4,0,0,1-.12.45Zm5.15,6.4a5.73,5.73,0,0,0,.27-.87,5.34,5.34,0,0,1,.27-.87q.17-.47.3-.9a8.9,8.9,0,0,1,.31-.85,10.06,10.06,0,0,1,.5-1.51l.15-.62a3.81,3.81,0,0,1,.13-.44,2.09,2.09,0,0,1,.1-.33.12.12,0,0,0,0-.09.12.12,0,0,1,0,.09,1,1,0,0,0-.15.29l-.18.45-.25.6q-.15.34-.28.71t-.32.77q-.18.43-.33.86l-.32.9c-.08.28-.17.57-.25.87l-.25.87-.1.42a3.27,3.27,0,0,1-.11.38,2.9,2.9,0,0,0-.08.41l0,.36a1.66,1.66,0,0,0,0,.63,1.83,1.83,0,0,0,0,.25,1.09,1.09,0,0,0,0,.24l.05.3,0,.09,0-.09a.89.89,0,0,1,0-.31,5.36,5.36,0,0,1,.15-1.1c.05-.25.12-.49.19-.75S203.94,75.64,204,75.39Zm6.08,5.69a.8.8,0,0,1,.24-.15.42.42,0,0,0,.19-.14.75.75,0,0,0,.17-.16l-.17.12L210,81a5.25,5.25,0,0,1-1.45.58l-.42.07h-.43a2,2,0,0,1-.74-.1l-.3-.08a.28.28,0,0,1-.2-.06c-.06,0-.09,0-.1,0s0,0-.05,0,0,0-.05,0l.16.11a.82.82,0,0,1,.21.1l.3.08a1.9,1.9,0,0,0,.33.1,2.16,2.16,0,0,0,.42,0,.5.5,0,0,0,.22,0,.5.5,0,0,1,.22,0l.47-.07a1.91,1.91,0,0,0,.41-.11,3.48,3.48,0,0,0,.4-.2,2.2,2.2,0,0,0,.38-.17A1.9,1.9,0,0,0,210.11,81.08Zm-2.49-15.3q-.39,1.12-1,2.55l-.27.71a6.43,6.43,0,0,0-.21.7,4.12,4.12,0,0,0-.22.64,6.07,6.07,0,0,1-.18.59c0,.18-.08.35-.12.49a2.07,2.07,0,0,0-.09.39.65.65,0,0,0,0,.32,2.13,2.13,0,0,1,.1-.33,1.32,1.32,0,0,0,.12-.35,3.48,3.48,0,0,1,.14-.49c.14-.35.29-.75.43-1.2s.31-.92.51-1.39l.27-.71c.08-.22.16-.44.23-.66s.18-.48.25-.68.13-.38.17-.54l.13-.46c0-.16.09-.3.14-.42a2.3,2.3,0,0,0,.1-.33,2.74,2.74,0,0,0-.15.33,1.83,1.83,0,0,0-.15.38A3.1,3.1,0,0,1,207.62,65.78Z"/><path d="M243.32,64.05q.15-.14.55.14a3.54,3.54,0,0,1,.79.77,7.46,7.46,0,0,1,.69,1.08,2.31,2.31,0,0,1,.31,1,3.81,3.81,0,0,1-.59,1.26q-.59,1-1.51,2.34t-2,2.83q-1.11,1.49-2.22,2.76a23.49,23.49,0,0,1-2.09,2.14,3,3,0,0,1-1.63.9,4,4,0,0,1-2-.47,8.87,8.87,0,0,1-2-1.38,10.24,10.24,0,0,1-1.62-1.86,5.15,5.15,0,0,1-.85-1.92q-1,1.27-2,2.46A24.07,24.07,0,0,1,225,78.22a14,14,0,0,1-2,1.55,4.53,4.53,0,0,1-1.87.71,4.38,4.38,0,0,1-2.36-.46,11.67,11.67,0,0,1-2.34-1.46,10.24,10.24,0,0,1-1.87-1.93,4.35,4.35,0,0,1-.89-1.92,8.78,8.78,0,0,1,.44-3.87,20,20,0,0,1,2-4.31,29.83,29.83,0,0,1,3.14-4.21,31.7,31.7,0,0,1,3.76-3.61,23.84,23.84,0,0,1,3.83-2.57,8.57,8.57,0,0,1,3.27-1.09,4,4,0,0,1,1.93.31,5.44,5.44,0,0,1,1.5,1q1.15-3.1,2.34-6t2.19-5.18c.66-1.52,1.22-2.76,1.65-3.71a11,11,0,0,0,.65-1.56q0-.62.66-.44a4.79,4.79,0,0,1,1.48.73A9.85,9.85,0,0,1,244,41.47a2,2,0,0,1,.7,1.15,12.06,12.06,0,0,1-.74,1.64c-.49,1-1.12,2.3-1.86,3.87s-1.58,3.35-2.48,5.33-1.78,4-2.61,6.07-1.58,4.08-2.24,6.05-1.18,3.72-1.56,5.24a15.17,15.17,0,0,0-.54,3.67q0,1.38.83,1.33a2.58,2.58,0,0,0,1.43-.9,27.9,27.9,0,0,0,1.89-2.13q1-1.26,2.11-2.74t2-2.76l1.56-2.2A10.68,10.68,0,0,1,243.32,64.05Zm-27.89,5.11c.08-.19.15-.36.23-.52a2.94,2.94,0,0,0,.19-.47,5.65,5.65,0,0,1,.32-.66l.12-.28s0,0,0,0a.12.12,0,0,0,0,.09.12.12,0,0,1,0,.09,2.07,2.07,0,0,0-.19.27c-.07.11-.14.25-.22.4l-.24.47-.24.47-.23.56q-.11.28-.22.6a6.11,6.11,0,0,0-.2.58q-.08.3-.15.57l-.1.57a3.84,3.84,0,0,1-.11.48,1,1,0,0,0,0,.43,1,1,0,0,1,0,.33,1.13,1.13,0,0,0,0,.27,1.14,1.14,0,0,1,0-.27c0-.09,0-.2.06-.32a3.09,3.09,0,0,1,.09-.41q.09-.45.26-1c.11-.38.23-.76.35-1.13q.11-.32.22-.6Zm1.74,7.22c.1.78.51,1.13,1.24,1A6.57,6.57,0,0,0,221.67,76a17.61,17.61,0,0,0,3-3,31.61,31.61,0,0,0,2.64-3.87q1.23-2.11,2.28-4.1t1.82-3.65c.51-1.11.93-2,1.23-2.57a2.12,2.12,0,0,0-.44-.1,2.93,2.93,0,0,0-.54,0,6.85,6.85,0,0,0-2.83,1,21.39,21.39,0,0,0-3.33,2.39,30.57,30.57,0,0,0-3.31,3.33,28.25,28.25,0,0,0-2.76,3.81,19.57,19.57,0,0,0-1.8,3.81A7.52,7.52,0,0,0,217.17,76.38Zm6.69-1.63s0,0,0,0a.14.14,0,0,1-.09.05.14.14,0,0,0-.09.05l-.22.22-.31.27-.38.3-.43.31a3.05,3.05,0,0,1-.49.36,3,3,0,0,0-.49.36,10,10,0,0,1-2,1l-.42.12-.28.06-.28,0h.14a.34.34,0,0,0,.14,0l.28,0a2.39,2.39,0,0,0,.42-.09.9.9,0,0,1,.26-.07.89.89,0,0,0,.26-.07l.25-.09.25-.09a.76.76,0,0,1,.27-.14.77.77,0,0,0,.27-.14l.54-.32a10.92,10.92,0,0,0,1.73-1.42l.31-.27.22-.22ZM220.76,61.3c-.15.16-.27.3-.36.41l-.23.27-.23.24a.81.81,0,0,1,.23-.24,2.73,2.73,0,0,1,.28-.25l.42-.35.47-.4a6.41,6.41,0,0,0,.46-.44c.15-.16.32-.33.51-.49s.39-.33.61-.5l.57-.47.57-.47a3.08,3.08,0,0,1,.5-.42,6.2,6.2,0,0,0,.51-.38,3.36,3.36,0,0,0,.41-.3,3.38,3.38,0,0,1,.31-.25,2.3,2.3,0,0,1,.29-.2l-.29.16-.34.23-.44.28a4.91,4.91,0,0,1-.53.38,2.72,2.72,0,0,0-.53.42l-.6.43c-.21.15-.41.31-.59.48l-.56.5q-.28.25-.51.49c-.19.17-.35.32-.49.47A5.65,5.65,0,0,1,220.76,61.3Zm6.47-4-.32.2-.32.2q-.63.41-1.18.83c-.37.28-.69.55-1,.81l-.6.63c-.06.07-.09.1-.09.12s0,0,0,.07l0,0,.24-.2.72-.51a3.72,3.72,0,0,1,.5-.35,2.32,2.32,0,0,0,.5-.4l.58-.38.63-.38a3.28,3.28,0,0,1,.63-.4l.29-.18.29-.18a1.31,1.31,0,0,1,.32-.16.67.67,0,0,0,.27-.15l.3-.11.25-.11a.58.58,0,0,1,.27-.11.59.59,0,0,0,.23-.06,1.89,1.89,0,0,1,.4-.12.24.24,0,0,0,.13,0,.11.11,0,0,1,.08,0H230a1.32,1.32,0,0,0-.35.07l-.28,0-.28.09a1.07,1.07,0,0,1-.3.07.61.61,0,0,0-.3.11.85.85,0,0,1-.3.13,1.47,1.47,0,0,0-.35.14Zm3.63,7.08q.11-.49.26-1t.31-1l-.35.75a6.83,6.83,0,0,1-.4.75l-.86,1.54q-.42.76-.81,1.49t-.76,1.38l-.71,1.25-.6,1-.47.81-.38.69a.7.7,0,0,1,.13-.19,3.11,3.11,0,0,0,.3-.47l.52-.79.65-1a4.9,4.9,0,0,0,.4-.58c.11-.2.25-.41.39-.63s.29-.44.42-.67l.42-.71q.35-.64.74-1.33ZM234,56.49q-.22.67-.42,1.21l-.33.9c-.12.3-.22.56-.31.77q.13-.32.31-.77c.09-.24.21-.54.35-.9l.49-1.17c.18-.42.37-.89.56-1.4s.42-1,.66-1.57.44-1.08.67-1.64l.73-1.73q.7-1.75,1.43-3.36l.65-1.57q.31-.76.56-1.38c.16-.42.33-.81.49-1.18s.3-.68.4-.91a7.39,7.39,0,0,0,.3-.76q-.15.31-.35.76a8.21,8.21,0,0,0-.42.89q-.22.53-.52,1.16t-.61,1.39q-.32.76-.7,1.57-.67,1.61-1.43,3.36-.38.85-.7,1.71c-.21.57-.43,1.12-.64,1.66s-.46,1.07-.64,1.57S234.13,56.07,234,56.49ZM239.69,44a4.76,4.76,0,0,1,.22-.65l.22-.51a2.24,2.24,0,0,0,.15-.44l-.2.45-.22.49c-.08.18-.17.39-.27.63l-.32.76-.37.85-.36.94q-.17.45-.41.94c-.26.63-.5,1.25-.74,1.86l-.63,1.63c-.09.24-.18.45-.26.63l-.21.49a2.12,2.12,0,0,0-.13.45,1.39,1.39,0,0,1,.19-.4c.06-.15.14-.31.24-.5a6,6,0,0,0,.28-.63q.33-.72.71-1.61.19-.45.35-.92a8.54,8.54,0,0,1,.41-1l.72-1.87c.13-.3.24-.58.34-.85S239.6,44.19,239.69,44Z"/><path d="M285.12,64.45a.92.92,0,0,1,.79-.43,2.42,2.42,0,0,1,1.19.19,2.13,2.13,0,0,1,1,.79,1.33,1.33,0,0,1,.06,1.29,8.75,8.75,0,0,1-1.61,2.51,27.35,27.35,0,0,1-2.91,2.89,39.25,39.25,0,0,1-3.8,2.89,35.07,35.07,0,0,1-4.35,2.51,25.7,25.7,0,0,1-4.55,1.71,14.1,14.1,0,0,1-4.51.49,5.38,5.38,0,0,1-2.44-.9,11.09,11.09,0,0,1-2.54-2.2,13.05,13.05,0,0,1-2-3.13,8.05,8.05,0,0,1-.76-3.65,15.05,15.05,0,0,1,1.06-4.76,34.7,34.7,0,0,1,2.66-5.51,44.44,44.44,0,0,1,3.84-5.49,36.15,36.15,0,0,1,4.59-4.72,23.3,23.3,0,0,1,4.8-3.21,8.24,8.24,0,0,1,4.37-1,3.68,3.68,0,0,1,1.85.8,9.05,9.05,0,0,1,1.69,1.68,8.27,8.27,0,0,1,1.18,2.08,4.14,4.14,0,0,1,.33,1.94,11.46,11.46,0,0,1-.8,2.83q-.66,1.65-1.42,3.13a23.94,23.94,0,0,1-1.46,2.52c-.47.69-.78,1-.95,1a1.94,1.94,0,0,1-.77-.41q-.52-.38-1.06-.86a9.7,9.7,0,0,1-1-1c-.28-.32-.41-.57-.39-.74a3.62,3.62,0,0,1,.44-.91l1-1.76q.59-1,1.2-2.16a17,17,0,0,0,1-2.11,3.86,3.86,0,0,0,.3-1.65.78.78,0,0,0-.8-.74,4.83,4.83,0,0,0-2.83,1.06,28.08,28.08,0,0,0-3.83,3.12,45.63,45.63,0,0,0-4.09,4.49,56.17,56.17,0,0,0-3.68,5.13,34.94,34.94,0,0,0-2.66,5,12,12,0,0,0-1.08,4.06c0,.59,0,1.13,0,1.65a3,3,0,0,0,.26,1.33,2.06,2.06,0,0,0,.92.92,4.52,4.52,0,0,0,1.9.42,15.31,15.31,0,0,0,4.51-.43A23.34,23.34,0,0,0,274,73.7a30.06,30.06,0,0,0,3.9-2.18,30.49,30.49,0,0,0,3.31-2.5,23.61,23.61,0,0,0,2.47-2.48A10,10,0,0,0,285.12,64.45Zm-24.53,1.08a3.55,3.55,0,0,0,.19-.48c.06-.17.12-.35.19-.52l.22-.52q.11-.26.22-.56.49-1,1.09-2.11c.11-.2.22-.39.33-.56s.22-.36.33-.56l.33-.51q.16-.26.33-.56.71-1.07,1.45-2.06t1.52-2q.39-.46.75-.93l.7-.88.73-.84.67-.75,1.21-1.29c.36-.39.69-.72,1-1l.68-.61a1.79,1.79,0,0,0,.23-.25l-.28.2a2.73,2.73,0,0,0-.28.24l-.39.37-1,1q-.59.55-1.26,1.26c-.22.22-.46.46-.7.73l-.75.81-.77.86q-.39.44-.77.9a35.51,35.51,0,0,0-3,4.08,19.31,19.31,0,0,0-1.31,2.19l-.55,1.1-.54,1.06c-.08.2-.15.39-.22.56l-.22.52-.33,1-.17.52a.45.45,0,0,0-.06.22.76.76,0,0,1-.06.26.68.68,0,0,0-.06.24A.71.71,0,0,1,260,67a.7.7,0,0,0-.06.24.69.69,0,0,1-.06.24,1.29,1.29,0,0,1,0,.22,1.31,1.31,0,0,0,0,.22,1.45,1.45,0,0,1-.06.44,3,3,0,0,1,0,.39,1.07,1.07,0,0,0,0,.4l0,.7a2.1,2.1,0,0,0,0,.33,1.86,1.86,0,0,1,0,.29c0,.12,0,.19,0,.22v.26a1.79,1.79,0,0,1,.09.31.28.28,0,0,0,0,.13.18.18,0,0,1,0,.09v0a.18.18,0,0,0,0-.09.28.28,0,0,1,0-.13,1.33,1.33,0,0,0,0-.35v-.44a3.08,3.08,0,0,1,0-.62l0-.7a2.85,2.85,0,0,1,0-.37c0-.13,0-.27.09-.41a.91.91,0,0,1,0-.2,1.09,1.09,0,0,0,0-.24.41.41,0,0,0,.06-.2.7.7,0,0,1,.06-.24,1.15,1.15,0,0,1,0-.22,1.23,1.23,0,0,0,0-.22,1.94,1.94,0,0,0,.08-.24,1.89,1.89,0,0,1,.08-.24.7.7,0,0,0,.06-.24.69.69,0,0,1,.06-.24Zm1-.67c.11-.29.23-.59.36-.89a8.7,8.7,0,0,1,.46-.93c.15-.32.29-.62.44-.9l.44-.86c.18-.28.34-.56.47-.81a7.68,7.68,0,0,1,.41-.73l.66-1,.28-.43c-.07.11-.16.24-.27.38a2.6,2.6,0,0,1-.33.47,5.52,5.52,0,0,0-.43.6l-.44.71-.49.79-.44.86c-.15.29-.31.59-.49.9-.29.63-.55,1.24-.77,1.82a2.23,2.23,0,0,0-.17.43l-.11.44a1.45,1.45,0,0,0-.14.39c0,.12-.05.25-.09.39s-.13.48-.17.65a2.48,2.48,0,0,0-.07.52,1.3,1.3,0,0,0-.06.35v0a1.31,1.31,0,0,1,.06-.35.44.44,0,0,0,.06-.22.75.75,0,0,1,.06-.26l.11-.33.11-.33c0-.15.08-.28.11-.39s.08-.25.11-.39a2.37,2.37,0,0,0,.17-.43A2.25,2.25,0,0,1,261.61,64.87Z"/><path d="M308.72,69.94c.12-.06.28,0,.49.24a3.79,3.79,0,0,1,.58.86,7.13,7.13,0,0,1,.45,1.11,1.89,1.89,0,0,1,.1.92,4,4,0,0,1-.85,1.35,25.29,25.29,0,0,1-1.91,2q-1.16,1.13-2.61,2.33A29.36,29.36,0,0,1,302,80.94a16.92,16.92,0,0,1-2.85,1.5,4.6,4.6,0,0,1-2.5.36,2.63,2.63,0,0,1-1.27-.71,9.67,9.67,0,0,1-1.24-1.36,7.68,7.68,0,0,1-.91-1.53A2.33,2.33,0,0,1,293,78l.05-.35q-1.14.76-2.28,1.41t-2.19,1.13a13.77,13.77,0,0,1-2,.73A4.14,4.14,0,0,1,285,81a4.37,4.37,0,0,1-2.19-1,11.19,11.19,0,0,1-1.92-2,10.71,10.71,0,0,1-1.36-2.33,4.36,4.36,0,0,1-.41-2.07A8.79,8.79,0,0,1,280.47,70a19.45,19.45,0,0,1,3-3.69,30.71,30.71,0,0,1,4-3.33A31.66,31.66,0,0,1,292,60.33a23.82,23.82,0,0,1,4.34-1.59,8.58,8.58,0,0,1,3.44-.28,3.9,3.9,0,0,1,2.53,1.42,6.21,6.21,0,0,1,1.19,2.36,5.2,5.2,0,0,1,.11,2.17c-.12.63-.33.92-.63.87a.8.8,0,0,1-.65-.5c-.1-.27-.2-.57-.3-.9a2.81,2.81,0,0,0-.48-.93,1.83,1.83,0,0,0-1.19-.59,6.88,6.88,0,0,0-3,.3,21.38,21.38,0,0,0-3.81,1.54,30.58,30.58,0,0,0-4,2.46,28.32,28.32,0,0,0-3.58,3A19.68,19.68,0,0,0,283.32,73a7.53,7.53,0,0,0-1.22,3.11c-.09.79.23,1.22,1,1.31a4.88,4.88,0,0,0,2.32-.4,16.35,16.35,0,0,0,2.74-1.41q1.41-.89,2.91-2t2.83-2.17q1.34-1.06,2.39-2T298,68c.33-.33.56-.48.69-.46s.35.22.66.58a14.24,14.24,0,0,1,.92,1.23,14.64,14.64,0,0,1,.8,1.33,1.78,1.78,0,0,1,.3.86,2.81,2.81,0,0,1-.45.68c-.28.37-.61.8-1,1.32s-.78,1.05-1.21,1.61-.8,1.09-1.12,1.59a11.31,11.31,0,0,0-.7,1.24q-.23.49.05.54a3.5,3.5,0,0,0,2-.38,13.46,13.46,0,0,0,2.35-1.42,27.28,27.28,0,0,0,2.39-2q1.19-1.11,2.22-2.11t1.77-1.75A6.29,6.29,0,0,1,308.72,69.94Zm-26.36-1.21a7,7,0,0,1,.66-.79l.76-.77.87-.78c.28-.26.57-.52.87-.78s.61-.51.93-.75l1-.74a23.25,23.25,0,0,1,2-1.35q1.06-.63,2.11-1.19l1-.54a10.65,10.65,0,0,1,1-.45q.5-.24,1-.43l.93-.35a12.38,12.38,0,0,1,1.7-.53,1.32,1.32,0,0,1,.35-.08,1.29,1.29,0,0,0,.35-.08,3.55,3.55,0,0,1,.64-.07l.53,0a1.33,1.33,0,0,1,.36,0,.23.23,0,0,0,.13,0h.08l.1,0-.31-.05h-.36a.65.65,0,0,1-.26,0,.68.68,0,0,0-.26,0l-.32,0-.37,0a1.26,1.26,0,0,1-.35.08,1.28,1.28,0,0,0-.35.08q-.43.06-.86.17t-.87.26q-.93.3-1.95.73t-2.13,1q-1.06.56-2.11,1.17a21.41,21.41,0,0,0-2.06,1.37q-1,.72-1.91,1.53l-.87.78c-.28.26-.56.52-.82.79a18,18,0,0,0-1.43,1.6,5.93,5.93,0,0,0-.59.82,3.38,3.38,0,0,1-.27.39,3.48,3.48,0,0,0-.27.39,5.93,5.93,0,0,0-.4.73c-.11.24-.21.47-.3.7a1,1,0,0,0-.16.31,1.59,1.59,0,0,1-.1.28,1.17,1.17,0,0,0-.08.3.74.74,0,0,1-.08.26,2,2,0,0,0-.09.41l0,.33,0,.31V73.7a.47.47,0,0,1,.07-.21l0-.31a.38.38,0,0,0,.07-.19.71.71,0,0,1,.07-.24,1.07,1.07,0,0,1,.2-.51,3.72,3.72,0,0,1,.26-.63,9.13,9.13,0,0,1,.74-1.38l.53-.74a2.23,2.23,0,0,1,.29-.39Zm8.77,9.35.48-.26.38-.23.32-.22-.32.17-.39.18-.5.26a5,5,0,0,1-.58.34l-.68.32-.7.34c-.23.12-.47.23-.75.34a1.68,1.68,0,0,0-.38.17,1.69,1.69,0,0,1-.38.17l-.33.13-.38.13-.37.1-.37.11a.77.77,0,0,1-.32.07l-.31,0a.72.72,0,0,1-.29,0,.71.71,0,0,1-.29,0l-.42-.05-.16,0-.11,0h0a.38.38,0,0,0,.14.06.37.37,0,0,1,.14.06l.21,0a.35.35,0,0,0,.21,0l.28,0a1.11,1.11,0,0,0,.33,0l.31,0a.76.76,0,0,0,.32-.07,2.55,2.55,0,0,0,.37-.06l.37-.1.38-.13.38-.13a1.78,1.78,0,0,0,.38-.17,1.78,1.78,0,0,1,.38-.17,6,6,0,0,0,.75-.36c.23-.13.46-.25.7-.36l.65-.33Q290.87,78.26,291.14,78.08Zm-3.67-1.5a.76.76,0,0,0-.21.1l-.05,0,.05,0a.74.74,0,0,1,.21-.1l.31-.16a3.17,3.17,0,0,1,.41-.19l.45-.25.51-.33a6.09,6.09,0,0,0,.53-.32l.54-.37.52-.37.47-.37a4.9,4.9,0,0,0,.47-.35,3.93,3.93,0,0,1,.42-.31l.32-.31a1.53,1.53,0,0,1,.26-.23,1.41,1.41,0,0,1,.23-.19l-.27.18-.27.18a3,3,0,0,0-.34.26,4,4,0,0,0-.42.32,4.87,4.87,0,0,1-.47.35l-.52.37-.52.37-1,.7-.49.33a3.62,3.62,0,0,1-.42.25,4.49,4.49,0,0,0-.42.25Zm8.79-16.42.38-.12a1.63,1.63,0,0,0,.28-.13l.27-.09s0,0-.06,0h-.21a.91.91,0,0,1-.3.11l-.46.08-.46.13a3.67,3.67,0,0,0-.52.21l-.57.18a3.74,3.74,0,0,0-.58.22l-.53.25-.53.25-.5.26-.39.23-.37.24-.25.16-.23.15a.52.52,0,0,1,.23-.15l.66-.3.94-.44,1.11-.5a4.63,4.63,0,0,1,.55-.23,5,5,0,0,0,.55-.23l.5-.19A2.12,2.12,0,0,1,296.27,60.16Z"/><path d="M331.61,75.68c.24-.2.51-.17.81.1a4.1,4.1,0,0,1,.81,1,6.11,6.11,0,0,1,.55,1.29c.13.44.14.7,0,.79a17.18,17.18,0,0,1-1.84,1.5,7.07,7.07,0,0,1-2.19,1,9.68,9.68,0,0,1-2.73.32,14,14,0,0,1-3.47-.56,4.14,4.14,0,0,1-1.92-1.52q-1.7,1.23-3.5,2.34a30.82,30.82,0,0,1-3.55,1.88A18,18,0,0,1,311.32,85a6.42,6.42,0,0,1-2.82.08,3,3,0,0,1-1.48-1A9.73,9.73,0,0,1,305.6,82a11.35,11.35,0,0,1-1-2.59,6.1,6.1,0,0,1-.09-2.64,9.54,9.54,0,0,1,1.2-2.87A29,29,0,0,1,308,70.65a39.68,39.68,0,0,1,2.86-3.23q1.55-1.58,2.93-2.78a23,23,0,0,1,2.43-1.9c.71-.47,1.18-.67,1.42-.62a2,2,0,0,1,1,.66,6.27,6.27,0,0,1,.83,1.19,5.88,5.88,0,0,1,.51,1.28,2.08,2.08,0,0,1,.1.88c0,.14-.33.42-.89.84l-2.12,1.61q-1.28,1-2.76,2.29a34,34,0,0,0-2.83,2.81,21.09,21.09,0,0,0-2.36,3.17,11,11,0,0,0-1.37,3.39c-.08.37,0,.58.21.63a5.75,5.75,0,0,0,2.66-.11,15.28,15.28,0,0,0,3-1.18,28.39,28.39,0,0,0,3.19-1.9q1.61-1.1,3.14-2.29a5.44,5.44,0,0,1,0-.7,4.63,4.63,0,0,1,.12-.67A6.08,6.08,0,0,1,321,72.3a18.63,18.63,0,0,1,1.54-2q.9-1,1.92-2t1.95-1.73A16.23,16.23,0,0,1,328,65.33c.47-.29.8-.42,1-.37a2.49,2.49,0,0,1,1.1.67,4.17,4.17,0,0,1,.81,1.14,4.81,4.81,0,0,1,.41,1.28,2.52,2.52,0,0,1,0,1.11,1.81,1.81,0,0,1-.41.59c-.23.25-.52.55-.87.89s-.74.72-1.19,1.12-.89.84-1.34,1.29a7.57,7.57,0,0,1-.29,1.33,2.57,2.57,0,0,1-.63,1.05q-.6.65-1.32,1.3l-1.52,1.34q0,.42.56.56a4.26,4.26,0,0,0,2.09.05,8.9,8.9,0,0,0,2-.71,10.92,10.92,0,0,0,1.8-1.12C330.7,76.44,331.19,76,331.61,75.68Zm-26.25.52c.07-.19.17-.44.3-.75a3.47,3.47,0,0,0,.26-.44l.28-.53c.1-.16.2-.33.31-.52a4.92,4.92,0,0,1,.36-.55,4.14,4.14,0,0,1,.37-.6c.14-.18.28-.38.43-.58a7.09,7.09,0,0,0,.48-.62,6.92,6.92,0,0,1,.49-.62q.27-.3.51-.61c.16-.21.33-.41.51-.61l1.06-1.23c.34-.39.69-.77,1-1.14q.32-.29.56-.53l.5-.5.5-.48q.23-.22.44-.44l.83-.76c.24-.22.47-.4.68-.57l.23-.2.17-.16.14-.15-.14.15-.44.31a1.61,1.61,0,0,1-.32.26,2.87,2.87,0,0,0-.38.3l-.4.36-.45.39-.43.42a5.72,5.72,0,0,1-.55.49,5.07,5.07,0,0,0-.5.48c-.16.18-.35.36-.56.55q-.53.52-1.07,1.12l-1.08,1.21c-.18.2-.35.41-.52.63l-.47.64a8.68,8.68,0,0,0-1,1.23l-.42.59a3.89,3.89,0,0,0-.37.6c-.11.22-.22.41-.32.58l-.31.54a3.26,3.26,0,0,0-.25.49,2.08,2.08,0,0,1-.24.44,4.9,4.9,0,0,1-.31.79,1.73,1.73,0,0,0-.12.34l0,.22,0,.17a.24.24,0,0,0,.08-.16l0-.22A1.73,1.73,0,0,1,305.37,76.2Zm2-3a18.55,18.55,0,0,1,1.41-1.9q.74-.88,1.3-1.57l1.35-1.51a.53.53,0,0,0-.13.11.78.78,0,0,0-.11.16.39.39,0,0,1-.16.15,6,6,0,0,1-.41.47l-.59.61q-.6.64-1.32,1.54T307.3,73.1c-.24.34-.46.68-.66,1s-.39.66-.55,1l-.4,1a5,5,0,0,0-.28.91,4.27,4.27,0,0,0-.11.78,2,2,0,0,0,0,.35,1.7,1.7,0,0,0,0,.27,1,1,0,0,0,.06.42.13.13,0,0,0,0,.1v0l0-.1a.37.37,0,0,1,0-.18.68.68,0,0,0,0-.22,1.64,1.64,0,0,1,0-.27,2,2,0,0,1,0-.35,4.36,4.36,0,0,1,.11-.78,4.9,4.9,0,0,1,.28-.91c.13-.32.28-.64.45-1s.34-.65.53-1A8.59,8.59,0,0,1,307.34,73.15Zm7,7.18s0,0-.06,0a.15.15,0,0,1-.11,0,.14.14,0,0,0-.1,0l-.28.14-.39.16-.44.17-.49.2-.56.16-.56.17a1.51,1.51,0,0,1-.29.07l-.29.07a5.63,5.63,0,0,1-.57.14l-.48.07a2.34,2.34,0,0,1-.47,0,.31.31,0,0,1-.23,0,.51.51,0,0,0-.22,0,.74.74,0,0,1-.29,0,.56.56,0,0,1-.24,0h0l.09,0a.35.35,0,0,0,.14.05l.33.07a.29.29,0,0,1,.19,0,.47.47,0,0,0,.24,0,.52.52,0,0,1,.22,0,.91.91,0,0,0,.27,0,1.57,1.57,0,0,0,.55-.06,7.31,7.31,0,0,0,1.19-.23l.58-.18a1.62,1.62,0,0,1,.27-.12,1.5,1.5,0,0,0,.27-.12l.5-.22a2.33,2.33,0,0,0,.41-.24,1,1,0,0,0,.35-.21,1.13,1.13,0,0,1,.24-.19ZM313,82.15l.22-.11.22-.11.17-.1-.17.1a1.74,1.74,0,0,1-.48.16,9.45,9.45,0,0,1-1.5.51,4.58,4.58,0,0,1-.83.17l-.2,0-.2,0a.82.82,0,0,1-.35,0h-.3l-.23-.05a.21.21,0,0,1-.15,0h0l.19,0a.56.56,0,0,0,.24,0,.72.72,0,0,0,.29,0h.36a2,2,0,0,0,.42,0,4.54,4.54,0,0,0,.83-.17,1.5,1.5,0,0,0,.45-.12,1.79,1.79,0,0,1,.4-.13,1.82,1.82,0,0,0,.33-.15A1.9,1.9,0,0,1,313,82.15Zm11.79-13.21.58-.57c.19-.19.36-.37.52-.54l.43-.41.36-.34a1,1,0,0,0,.29-.29.12.12,0,0,1-.07.07,1,1,0,0,0-.27.2l-.35.31-.47.37-.56.51-.57.55a5.51,5.51,0,0,0-.63.6c-.2.22-.41.44-.64.65l-.6.7a8.09,8.09,0,0,0-.54.68,4.36,4.36,0,0,0-.49.6c-.14.21-.27.41-.39.62a3.18,3.18,0,0,0-.46,1,.89.89,0,0,0-.12.29l0,.09,0-.09a.55.55,0,0,1,.06-.12.64.64,0,0,0,.07-.16c.11-.15.19-.28.26-.39a1.65,1.65,0,0,0,.14-.26,1.39,1.39,0,0,1,.14-.26,12.44,12.44,0,0,1,.94-1.21q.29-.33.57-.67a5.76,5.76,0,0,1,.62-.66Q324.13,69.61,324.84,68.94Zm2.77-2.57-.15.14-.06,0,.06,0a.71.71,0,0,0,.2-.13,1,1,0,0,0,.23-.14l.24-.18.24-.21.18-.18a.12.12,0,0,0,.07-.07.12.12,0,0,1,.07-.07s0,0,.06,0-.05,0-.06,0-.06,0-.07,0,0,0-.07,0a1.51,1.51,0,0,0-.26.16L328,66a2.13,2.13,0,0,0-.24.21Zm1.23,11.85-.18.09-.24.11a1.59,1.59,0,0,1-.29.1,5.66,5.66,0,0,1-1.62.45,1.19,1.19,0,0,1-.43.06,2,2,0,0,1-.48,0,2.06,2.06,0,0,1-.43,0l-.37,0a.79.79,0,0,1-.3,0,.6.6,0,0,1-.25,0,.22.22,0,0,0-.12,0H324l.24.06.21.06a1.48,1.48,0,0,0,.32,0,3,3,0,0,0,.84.1l.47,0,.47,0a1.55,1.55,0,0,0,.46-.1l.43-.15a3.15,3.15,0,0,0,.41-.16,2,2,0,0,1,.35-.13,1.46,1.46,0,0,1,.25-.16l.24-.11Z"/><path d="M355.54,84c.13,0,.27.06.44.32a3.83,3.83,0,0,1,.43,1,7.07,7.07,0,0,1,.26,1.17,1.88,1.88,0,0,1-.05.93,4,4,0,0,1-1.07,1.18,25.24,25.24,0,0,1-2.25,1.67c-.9.61-1.9,1.21-3,1.84A29.59,29.59,0,0,1,347,93.71a17.13,17.13,0,0,1-3.09,1,4.67,4.67,0,0,1-2.54-.08,2.68,2.68,0,0,1-1.14-.92,9.76,9.76,0,0,1-1-1.56,7.73,7.73,0,0,1-.65-1.66,2.32,2.32,0,0,1-.05-1.27l.11-.33q-1.26.55-2.5,1t-2.36.73a13.82,13.82,0,0,1-2.08.37,4.19,4.19,0,0,1-1.64-.12,4.43,4.43,0,0,1-2-1.37,11.27,11.27,0,0,1-1.57-2.3,10.75,10.75,0,0,1-.95-2.54,4.34,4.34,0,0,1-.06-2.12,8.76,8.76,0,0,1,2-3.37A19.4,19.4,0,0,1,331,76a30.68,30.68,0,0,1,4.58-2.58,31.83,31.83,0,0,1,4.92-1.8,24,24,0,0,1,4.58-.81,8.7,8.7,0,0,1,3.47.32A4,4,0,0,1,350.86,73a6.23,6.23,0,0,1,.78,2.53,5.14,5.14,0,0,1-.25,2.16c-.23.6-.48.85-.77.74a.81.81,0,0,1-.57-.61c-.06-.28-.11-.6-.14-.94a2.8,2.8,0,0,0-.32-1,1.86,1.86,0,0,0-1.08-.79,7,7,0,0,0-3-.23,21.6,21.6,0,0,0-4,.85,30.8,30.8,0,0,0-4.4,1.73A28.39,28.39,0,0,0,333,79.81a19.68,19.68,0,0,0-3.19,2.78A7.48,7.48,0,0,0,328,85.44a1,1,0,0,0,.73,1.45,5,5,0,0,0,2.37,0,16.51,16.51,0,0,0,3-.91q1.55-.63,3.23-1.47t3.18-1.65q1.51-.81,2.71-1.53t1.93-1.11c.38-.27.63-.38.76-.34s.31.28.56.69a14.46,14.46,0,0,1,.71,1.38,14.62,14.62,0,0,1,.57,1.45,1.78,1.78,0,0,1,.15.9,2.8,2.8,0,0,1-.56.59q-.52.47-1.21,1.12l-1.47,1.38q-.78.72-1.38,1.37a11.33,11.33,0,0,0-.91,1.1c-.21.3-.22.48,0,.55a3.56,3.56,0,0,0,2.1,0,13.59,13.59,0,0,0,2.58-1,27.39,27.39,0,0,0,2.72-1.56q1.37-.89,2.57-1.69t2.06-1.41A6.26,6.26,0,0,1,355.54,84Zm-26-5.8a7.05,7.05,0,0,1,.79-.66l.89-.63,1-.62,1-.62c.34-.2.69-.39,1-.58l1.1-.56a23.62,23.62,0,0,1,2.23-1q1.16-.44,2.3-.81l1.09-.36a10.45,10.45,0,0,1,1.06-.27c.36-.1.71-.18,1.06-.25l1-.18a12.42,12.42,0,0,1,1.78-.23,1.32,1.32,0,0,1,.36,0,1.35,1.35,0,0,0,.36,0,3.57,3.57,0,0,1,.65,0l.54,0a1.31,1.31,0,0,1,.36.08.24.24,0,0,0,.13,0h.08l.1,0-.29-.1-.18,0-.18,0a.69.69,0,0,1-.26,0,.68.68,0,0,0-.26,0l-.32,0-.37,0a1.27,1.27,0,0,1-.36,0,1.31,1.31,0,0,0-.36,0c-.29,0-.59,0-.89,0s-.6.06-.91.11q-1,.13-2.06.38t-2.28.59q-1.14.37-2.29.79a21.51,21.51,0,0,0-2.28,1q-1.07.54-2.16,1.18l-1,.62-.95.63A17.83,17.83,0,0,0,329.35,78a5.94,5.94,0,0,0-.72.7,3.56,3.56,0,0,1-.33.34,3.44,3.44,0,0,0-.33.34,5.94,5.94,0,0,0-.52.65l-.41.64a1,1,0,0,0-.21.28,1.53,1.53,0,0,1-.15.25,1.17,1.17,0,0,0-.13.28.75.75,0,0,1-.12.24,2,2,0,0,0-.16.39l-.09.32-.08.3,0-.08a.46.46,0,0,1,.11-.2l.08-.3a.39.39,0,0,0,.1-.18.72.72,0,0,1,.11-.22,1.06,1.06,0,0,1,.29-.47,3.68,3.68,0,0,1,.37-.58,9,9,0,0,1,1-1.23l.65-.64a2.35,2.35,0,0,1,.35-.33ZM336.67,89l.52-.17.41-.16.36-.16-.35.12-.42.11-.54.17a5,5,0,0,1-.64.23l-.73.2-.76.22q-.37.11-.8.2a1.75,1.75,0,0,0-.41.1,1.78,1.78,0,0,1-.41.1l-.35.07-.4.06-.39,0-.39,0a.77.77,0,0,1-.33,0l-.32,0a646.91,646.91,0,0,0-.57-.09l-.41-.13-.15-.07-.11-.06-.09,0,.09,0a.38.38,0,0,0,.12.08.4.4,0,0,1,.12.08l.2.08a.35.35,0,0,0,.21,0l.27.08a1.15,1.15,0,0,0,.33.06l.32,0a.77.77,0,0,0,.33,0h.38l.39,0,.4-.06.4-.06a1.84,1.84,0,0,0,.41-.1,1.82,1.82,0,0,1,.41-.1,6.17,6.17,0,0,0,.81-.22c.25-.09.5-.17.76-.24l.7-.21C336.27,89.14,336.47,89.06,336.67,89Zm-3.39-2.12a.74.74,0,0,0-.22.07l-.06,0,.06,0a.73.73,0,0,1,.22-.07l.34-.1a3.27,3.27,0,0,1,.44-.11l.49-.17.56-.23a5.86,5.86,0,0,0,.59-.23l.6-.27.58-.27.53-.29a4.77,4.77,0,0,0,.53-.26,4.16,4.16,0,0,1,.47-.24l.37-.25a10.34,10.34,0,0,1,.55-.32l-.3.13-.3.13a3,3,0,0,0-.38.2,4.13,4.13,0,0,0-.47.24,5.22,5.22,0,0,1-.53.26l-.58.27-.58.27-1.14.51-.54.24a3.7,3.7,0,0,1-.46.17l-.46.18ZM344.82,72.2l.4,0a1.66,1.66,0,0,0,.3-.08l.29,0s0,0-.06,0h-.21a.94.94,0,0,1-.32.05h-.47l-.48,0a3.57,3.57,0,0,0-.56.11l-.6.08a3.69,3.69,0,0,0-.61.12l-.57.16-.57.16-.54.17-.43.16-.41.17-.28.12-.25.1a.53.53,0,0,1,.25-.1l.71-.19,1-.27,1.18-.3a4.77,4.77,0,0,1,.59-.13,5.08,5.08,0,0,0,.59-.13l.52-.1A2.12,2.12,0,0,1,344.82,72.2Z"/><path d="M368,89.34q.23-.14.63.34a5,5,0,0,1,.71,1.18,5.59,5.59,0,0,1,.43,1.36c.07.44,0,.74-.22.89q-1.41,1-3.3,2.42a30.57,30.57,0,0,1-4,2.57,16.51,16.51,0,0,1-4.33,1.62,7.07,7.07,0,0,1-4.33-.4,5.9,5.9,0,0,1-1.7-1.17,8.33,8.33,0,0,1-1.54-1.94,8.5,8.5,0,0,1-.92-2.35,4.07,4.07,0,0,1,.17-2.43,12.53,12.53,0,0,1,1.78-2.91,48.75,48.75,0,0,1,3.21-3.72q1.89-2,4.17-4.1t4.69-4.11q2.4-2,4.67-3.77t4.08-3.12l2.92-2.17a10.68,10.68,0,0,0,1.16-.9.48.48,0,0,1,.72-.26,2.45,2.45,0,0,1,.56.57,8.22,8.22,0,0,1,.79,1.18,7,7,0,0,1,.61,1.44,1.79,1.79,0,0,1,0,1.28,5.16,5.16,0,0,1-1.27,1.11l-2.91,2.13-4,2.94q-2.24,1.65-4.55,3.5t-4.57,3.81q-2.27,2-4.12,3.83t-3.18,3.52a11.85,11.85,0,0,0-1.82,2.87c-.22.54,0,1,.7,1.24a4.66,4.66,0,0,0,2.27.29,10.06,10.06,0,0,0,2.57-.63,19.12,19.12,0,0,0,2.69-1.28q1.36-.77,2.67-1.63t2.49-1.7Zm-13.75-2.52a3.55,3.55,0,0,1-.37.4,2.2,2.2,0,0,0-.28.29.65.65,0,0,0-.21.25q.43-.4.9-.92l1-1,1.32-1.32c.28-.24.54-.48.79-.74s.52-.52.81-.78l.88-.8q.44-.41.92-.88l2-1.79q1-.91,2.08-1.8t2.13-1.79q1.05-.86,2.09-1.66l2-1.53c.64-.49,1.23-.95,1.78-1.38s1.09-.8,1.54-1.14l1.14-.89,1-.8c-.3.22-.65.46-1,.73l-1.24.84-1.57,1.08-1.84,1.33q-1,.7-2,1.5L366,75.67q-1.08.85-2.15,1.79t-2.07,1.85q-1,.92-2,1.76l-.89.89-.87.85q-.45.43-.83.83l-.75.76q-.74.75-1.28,1.36Zm-1.35,6a2.8,2.8,0,0,0,.2-.3,1.52,1.52,0,0,1,.26-.32,6.55,6.55,0,0,1,.65-.83l.39-.44c.13-.15.27-.32.42-.52s.28-.33.44-.49l.5-.51q.48-.52,1-1.05l1.09-1.07Q359,86.19,360,85.21l1-.93.93-.82.79-.69.61-.53a3.64,3.64,0,0,0,.54-.48l-.16.12a.74.74,0,0,0-.15.15.64.64,0,0,1-.21.17q-.49.36-1.5,1.18l-1,.81q-.51.43-1,.92l-1.1,1q-.56.5-1.11,1t-1.1,1.09q-.54.52-1,1.07a6.44,6.44,0,0,1-.46.53q-.23.24-.44.49l-.4.53q-.18.24-.37.44a4.92,4.92,0,0,0-.34.45,2.23,2.23,0,0,1-.31.37q-.13.19-.22.36a2.94,2.94,0,0,0-.16.34,2.39,2.39,0,0,0-.24.47l-.07.16.07-.16A2.43,2.43,0,0,1,352.88,92.81Zm20.38-21.47.64-.51.47-.39a3.85,3.85,0,0,0,.46-.37q-.19.16-.45.33a5.77,5.77,0,0,1-.52.37c-.22.14-.45.3-.69.49l-.86.6-.87.65-.95.69a11.2,11.2,0,0,0-1,.77,19.08,19.08,0,0,0-1.86,1.49c-.29.23-.57.46-.84.69l-.76.63q-.37.32-.62.57l-.45.45-.33.24a.32.32,0,0,0-.1.1c.12-.11.26-.22.43-.34l.48-.39q.3-.23.66-.55a7.93,7.93,0,0,0,.81-.61c.27-.23.55-.46.84-.69q.87-.68,1.86-1.49l1-.72.94-.74.85-.66C372.7,71.74,373,71.54,373.26,71.34Z"/><path d="M379.21,94.56c.16-.09.36,0,.6.18a2.53,2.53,0,0,1,.62.86,4,4,0,0,1,.34,1.29,2.34,2.34,0,0,1-.25,1.36,4.38,4.38,0,0,1-1.2,1.16,21.84,21.84,0,0,1-2.43,1.54,35.33,35.33,0,0,1-3.22,1.57,22.7,22.7,0,0,1-3.59,1.21,16.67,16.67,0,0,1-3.56.5,6.91,6.91,0,0,1-3.13-.6,4.15,4.15,0,0,1-1.1-.89,9.28,9.28,0,0,1-1.23-1.62,8.78,8.78,0,0,1-.87-1.9,2.45,2.45,0,0,1,0-1.78,10,10,0,0,1,1.59-2.28,38.72,38.72,0,0,1,2.85-2.92q1.64-1.53,3.46-3.07t3.38-2.75q1.56-1.21,2.67-2t1.26-.84q.42-.14.83.39a4.5,4.5,0,0,1,.67,1.32,7.29,7.29,0,0,1,.34,1.58,2.35,2.35,0,0,1-.14,1.23,7.64,7.64,0,0,1-1.16,1q-1.08.87-2.61,2.05t-3.24,2.57q-1.71,1.38-3.08,2.58t-2.17,2q-.79.84-.48,1a6.28,6.28,0,0,0,3.74.46,16.94,16.94,0,0,0,4-1.21,31.51,31.51,0,0,0,3.88-2Q377.89,95.46,379.21,94.56ZM361.86,96a7.8,7.8,0,0,1,.57-.56l.66-.62.86-.82a5.81,5.81,0,0,1,.49-.48,4.84,4.84,0,0,0,.51-.52l.56-.52a7.18,7.18,0,0,1,.61-.5q.58-.56,1.23-1.13t1.35-1.12L370,88.62q.65-.57,1.3-1.09a5.81,5.81,0,0,0,.48-.36l.25-.22.21-.22a4,4,0,0,1,.38-.33c.36-.28.67-.54.93-.77l.69-.6a2.22,2.22,0,0,0,.27-.21l.19-.15.19-.15,0,0-.68.46q-.34.23-.75.57t-.94.72l-1.9,1.47q-.84.65-2.15,1.79t-2.55,2.27q-1.21,1.14-2.13,2.13l-.8.87c-.24.26-.44.49-.6.67a.94.94,0,0,0-.23.28.44.44,0,0,1-.13.18A.67.67,0,0,0,361.86,96Zm3.83-2.86.38-.41.34-.33a1.39,1.39,0,0,0,.3-.3,1.54,1.54,0,0,1-.28.26l-.38.29a3.67,3.67,0,0,0-.43.41q-.53.44-1.09,1l-1.19,1.2-.59.6a7.28,7.28,0,0,0-.55.62l-.47.56a5.5,5.5,0,0,0-.42.58,1.86,1.86,0,0,0-.31.46l-.19.42a.34.34,0,0,0,0,.28.12.12,0,0,0,0,.1.12.12,0,0,1,0-.1s0-.13.06-.26a4.51,4.51,0,0,1,.54-.86l.45-.52.47-.56,1.18-1.2a7.41,7.41,0,0,1,.55-.62l.58-.56q.3-.3.57-.54A6.21,6.21,0,0,0,365.69,93.17ZM380.4,84a1.18,1.18,0,0,1-.46-.57,7.27,7.27,0,0,1-.39-1,5.08,5.08,0,0,1-.22-1.06,2.68,2.68,0,0,1,0-.73,4.66,4.66,0,0,1,.86-.92,17,17,0,0,1,1.71-1.37,15.34,15.34,0,0,1,1.89-1.15c.62-.31,1-.42,1.27-.3a1.88,1.88,0,0,1,.73.91,9.09,9.09,0,0,1,.56,1.49,14.12,14.12,0,0,1,.33,1.45,1.84,1.84,0,0,1,0,.83,3.07,3.07,0,0,1-1,.59q-.89.44-2,.88t-2.11.76A2.27,2.27,0,0,1,380.4,84Zm-8.64,16.85.42-.13.51-.19a4.08,4.08,0,0,0,.51-.24,4.07,4.07,0,0,1,.51-.24,4.14,4.14,0,0,0,.51-.24l.46-.26.46-.26.4-.24.32-.23a.7.7,0,0,1,.27-.16l.19-.15-.23.13a1.12,1.12,0,0,0-.29.13l-.33.2a9,9,0,0,0-.89.44l-.46.26a4.2,4.2,0,0,1-.51.24,4,4,0,0,0-.51.24,4.23,4.23,0,0,1-.51.24,2.68,2.68,0,0,1-.46.21l-.44.17-.63.28a.53.53,0,0,1-.25.07l.25-.07A2,2,0,0,0,371.76,100.8Zm5.69-2.46.34-.27a1.4,1.4,0,0,1,.3-.19l.26-.17-.26.17-.33.15a1.74,1.74,0,0,0-.37.23,2.74,2.74,0,0,1-.46.29,5.4,5.4,0,0,0-.52.3l-.53.32-.59.34-1.14.61a3.8,3.8,0,0,1-.5.29l-.48.25-.41.21-.31.12a.68.68,0,0,1-.21.09l-.06,0,.06,0h.09a.34.34,0,0,0,.15,0,1.8,1.8,0,0,1,.34-.13,1.82,1.82,0,0,0,.42-.18l.48-.25.53-.23,1.14-.61.59-.34.53-.32.51-.33C377.18,98.55,377.32,98.45,377.45,98.35Z"/><path d="M398.08,105.36a2.78,2.78,0,0,1,.49,1.28,2,2,0,0,1-.3,1.36,4.16,4.16,0,0,1-1.34,1,20.55,20.55,0,0,1-2.76,1.27,35.12,35.12,0,0,1-3.71,1.18,27.24,27.24,0,0,1-4.23.76,19.47,19.47,0,0,1-4.29,0,11,11,0,0,1-3.95-1.24,5.85,5.85,0,0,1-2.14-2.08,11.51,11.51,0,0,1-1.38-3.12,11.81,11.81,0,0,1-.43-3.5A7.55,7.55,0,0,1,374.8,99a10.16,10.16,0,0,1,2-2.63,16.7,16.7,0,0,1,3-2.33,23.67,23.67,0,0,1,3.61-1.82,18.69,18.69,0,0,1,3.83-1.11,15.24,15.24,0,0,1,3.62-.22,7,7,0,0,1,3,.84,5.52,5.52,0,0,1,2.29,2.14,5.46,5.46,0,0,1,.67,2.27,3.84,3.84,0,0,1-.25,1.73c-.2.44-.36.63-.48.56a.86.86,0,0,1-.25-.2,2.53,2.53,0,0,1-.26.56,6.55,6.55,0,0,1-2.1,2.11,10.7,10.7,0,0,1-3.12,1.4,11.34,11.34,0,0,1-3.52.39,7.75,7.75,0,0,1-3.4-.94,5.77,5.77,0,0,1-1.79-1.42,6.79,6.79,0,0,1-1-1.57,10.72,10.72,0,0,0-3.05,3.47,11.68,11.68,0,0,0-.61,1.39,5.64,5.64,0,0,0-.33,1.39,2.74,2.74,0,0,0,.15,1.25,1.74,1.74,0,0,0,.87.93,11.32,11.32,0,0,0,4,1.26,16.85,16.85,0,0,0,4,0,20.61,20.61,0,0,0,3.8-.81c1.21-.38,2.31-.78,3.3-1.2s1.81-.8,2.46-1.14,1.08-.57,1.3-.68a1.12,1.12,0,0,1,1.39.49ZM380.9,94.29l.41-.18.41-.18a1.64,1.64,0,0,1,.38-.17,1.67,1.67,0,0,0,.38-.17l.66-.25.63-.19a1.82,1.82,0,0,0,.45-.19l.18-.06.11,0,.13,0-.13,0-.11,0-.18.06-.47.12-.61.15a1.92,1.92,0,0,1-.35.11,1.18,1.18,0,0,0-.37.15,2.29,2.29,0,0,0-.38.12l-.4.16-.41.18-.41.18a7.21,7.21,0,0,1-.8.43l-.36.26-.36.26-.36.26-.36.26a1.67,1.67,0,0,0-.3.24,1.51,1.51,0,0,1-.29.24,5.41,5.41,0,0,1-.5.54c-.17.18-.3.33-.4.46a2.32,2.32,0,0,0-.25.39.79.79,0,0,0-.18.35l.06-.12a.75.75,0,0,1,.16-.21.43.43,0,0,0,.14-.17.44.44,0,0,1,.15-.17l.41-.48a.62.62,0,0,0,.24-.2,1.62,1.62,0,0,1,.28-.28,1.52,1.52,0,0,0,.3-.24,1.66,1.66,0,0,1,.3-.24l.36-.26.36-.26a3.72,3.72,0,0,1,.36-.21,2.45,2.45,0,0,0,.39-.25,2.33,2.33,0,0,1,.39-.25Zm2.21-1.47-.24.12-.17.11a.51.51,0,0,1-.15.07l.15-.07a.6.6,0,0,1,.19-.08l.25-.09a7.55,7.55,0,0,0,.76-.22,8.74,8.74,0,0,1,1-.26,5.31,5.31,0,0,1,.55-.16l.6-.13.66-.12.66-.12a5.16,5.16,0,0,1,.7-.1l.75-.07a4.13,4.13,0,0,1,.75,0c.25,0,.49,0,.73,0a7.25,7.25,0,0,1,1.55.25,6.49,6.49,0,0,1,1.44.45l.62.35a3,3,0,0,1,.58.43.46.46,0,0,1,.13.1.42.42,0,0,0,.13.1.46.46,0,0,0,.12.12.49.49,0,0,1,.12.12.46.46,0,0,0,.12.12.47.47,0,0,1,.12.12.4.4,0,0,0,.19.21,4.85,4.85,0,0,1,.58.89,1.43,1.43,0,0,1,.21.37,2.08,2.08,0,0,0,.16.35,1.8,1.8,0,0,1,.07.25.48.48,0,0,0,.09.21.3.3,0,0,0,.09.16.5.5,0,0,1,0-.17,3.5,3.5,0,0,1-.14-.49,2.6,2.6,0,0,0-.15-.32,1.47,1.47,0,0,1-.15-.42,1.72,1.72,0,0,1-.29-.45,3.28,3.28,0,0,0-.27-.48.91.91,0,0,1-.23-.23,1.31,1.31,0,0,0-.16-.25,2.62,2.62,0,0,1-.28-.26.46.46,0,0,0-.12-.12.45.45,0,0,1-.12-.12,6.73,6.73,0,0,0-1.29-.83l-.71-.3a4.25,4.25,0,0,0-.8-.24,7.23,7.23,0,0,0-1.55-.25,7.32,7.32,0,0,0-.82,0l-.79,0-.74.1-.74.1a10.18,10.18,0,0,0-1.31.3l-1.15.34a5.66,5.66,0,0,0-.94.35A6.33,6.33,0,0,1,383.11,92.82Zm-.35,5.62a7.38,7.38,0,0,0,3.47,1,7.91,7.91,0,0,0,3-.56,9.7,9.7,0,0,0,2.47-1.44q1.1-.88,1.89-1.64l-.26-.17-.26-.17a4.68,4.68,0,0,0-2.19-.53,11,11,0,0,0-2.85.32,18.87,18.87,0,0,0-3.12,1,20.41,20.41,0,0,0-3,1.58A3.1,3.1,0,0,0,382.76,98.44ZM384.14,110h.52l.41,0,.37,0-.37,0h-.42l-.53,0q-.26,0-.61-.07a3.58,3.58,0,0,1-.7-.11,2.22,2.22,0,0,1-.39-.06,2.2,2.2,0,0,0-.39-.06,2.33,2.33,0,0,1-.39-.06l-.41-.12a1.32,1.32,0,0,1-.38-.08,1.29,1.29,0,0,0-.38-.08l-.38-.13-.38-.13-.67-.21-.31-.14-.27-.12a2.57,2.57,0,0,1-.49-.21,2.05,2.05,0,0,1-.41-.17l-.16-.06-.12,0-.09,0,.35.18.39.21a2.64,2.64,0,0,0,.49.21,3.74,3.74,0,0,0,.58.26,4.65,4.65,0,0,0,.69.27l.35.12.4.14.35.12a2.16,2.16,0,0,0,.42.1,1.33,1.33,0,0,1,.38.08,1.28,1.28,0,0,0,.38.08l.77.13c.26,0,.5,0,.73.06A2.88,2.88,0,0,0,384.14,110Zm7.32-12a.12.12,0,0,0-.09.05.13.13,0,0,0-.1.07.32.32,0,0,1-.12.11l-.4.23-.55.29a4,4,0,0,1-.62.26l-.75.29-.41.1-.41.1a2.1,2.1,0,0,0-.45.08,1.15,1.15,0,0,1-.43,0l-.44.06a.46.46,0,0,1-.23,0,.46.46,0,0,0-.23,0,5,5,0,0,1-.88-.08,2.15,2.15,0,0,1-.42-.08,2.22,2.22,0,0,0-.42-.08,2.51,2.51,0,0,1-.73-.25l-.6-.17-.45-.24a1.24,1.24,0,0,1-.34-.13l-.09,0,.4.21.45.24.28.12.32.15a2,2,0,0,1,.34.11l.39.13a2.26,2.26,0,0,1,.42.08,2.1,2.1,0,0,0,.42.08l.46.05a3.79,3.79,0,0,1,.46.05.46.46,0,0,1,.23,0,.46.46,0,0,0,.23,0l.44-.06a1,1,0,0,0,.48,0,2.16,2.16,0,0,1,.45-.08,3.07,3.07,0,0,1,.42-.12,3.29,3.29,0,0,0,.42-.12,1.19,1.19,0,0,1,.37-.14,1.2,1.2,0,0,0,.38-.14L390,99l.29-.14a2.46,2.46,0,0,0,.51-.32,2.18,2.18,0,0,1,.35-.26Z"/><path d="M412.9,115.33a1,1,0,0,1,1,.26,3.08,3.08,0,0,1,.81,1.11A3.28,3.28,0,0,1,415,118a.93.93,0,0,1-.5.91c-.33.16-.92.39-1.76.69s-1.85.61-3,.93-2.41.64-3.74,1a34.54,34.54,0,0,1-3.88.68,21.23,21.23,0,0,1-3.48.14,5.18,5.18,0,0,1-2.58-.72,3.5,3.5,0,0,1-.72-.83,6.24,6.24,0,0,1-.8-1.63,6.59,6.59,0,0,1-.34-2.06,4,4,0,0,1,.66-2.18,9,9,0,0,1,2.56-2.59,35.85,35.85,0,0,1,3.48-2.14l3.29-1.75a5.26,5.26,0,0,0,1.93-1.45c.06-.1-.06-.4-.38-.9a11.67,11.67,0,0,0-1-1.33c-1.08.53-2.29,1.13-3.61,1.82l-3.58,1.86a.69.69,0,0,1-1-.14,3,3,0,0,1-.51-1.21,4,4,0,0,1,0-1.48,1.18,1.18,0,0,1,.54-1l2.76-1.61q1.46-.85,2.83-1.56-.55-.81-1-1.66a6.64,6.64,0,0,1-.67-1.74,5.58,5.58,0,0,1-.11-1.83,4.61,4.61,0,0,1,.66-1.88,7.48,7.48,0,0,1,2-2.12,16.6,16.6,0,0,1,2.91-1.73,21.75,21.75,0,0,1,3.36-1.24,26.14,26.14,0,0,1,3.31-.71,16.25,16.25,0,0,1,2.75-.18,3.53,3.53,0,0,1,1.72.38,4.58,4.58,0,0,1,1.2,1.3,10.81,10.81,0,0,1,1.07,2,7.75,7.75,0,0,1,.53,2.23,2.87,2.87,0,0,1-.43,1.88,6.47,6.47,0,0,1-1.59,1.42q-1.19.84-3,1.88t-4,2.2q-2.2,1.16-4.65,2.35.59.74,1.22,1.65a14.3,14.3,0,0,1,1.08,1.81,6,6,0,0,1,.57,1.7,1.82,1.82,0,0,1-.24,1.35,4.67,4.67,0,0,1-1.3,1q-1.05.64-2.41,1.43l-2.85,1.65q-1.5.86-2.65,1.63a16.09,16.09,0,0,0-1.78,1.33q-.63.56-.25.8a3.65,3.65,0,0,0,2,.45,15.52,15.52,0,0,0,2.83-.29,30.41,30.41,0,0,0,3.2-.79q1.65-.5,3.11-1t2.56-.9Zm-5.57-24.5.49-.22.49-.22,1-.33a2.27,2.27,0,0,1,.42-.15,2.36,2.36,0,0,0,.42-.15c.28-.1.52-.18.73-.24l.57-.19.49-.16-.14,0-.15,0-.22,0a2.4,2.4,0,0,1-.61.14,3.41,3.41,0,0,0-.77.19,3.25,3.25,0,0,0-.44.09l-.47.13-1,.33-.55.15-.5.19-1,.45a3.85,3.85,0,0,1-.47.25l-.52.23-.45.27-.45.27-.42.28-.42.28a3.6,3.6,0,0,0-.64.54,1.45,1.45,0,0,0-.32.27,1.3,1.3,0,0,1-.23.22,2.49,2.49,0,0,0-.34.46.21.21,0,0,0-.11.14.2.2,0,0,1-.11.14l0,.08s0,0,0,.06l.07-.11a1.2,1.2,0,0,1,.23-.27l.41-.37a3.72,3.72,0,0,1,.57-.43l.36-.24.37-.24.41-.26.41-.26.92-.47,1-.48ZM401,98.18s0,0,0-.06,0-.14,0-.21a.86.86,0,0,1,0-.28c0-.1,0-.22,0-.36a3.07,3.07,0,0,1,.11-.91.66.66,0,0,1,.08-.23.65.65,0,0,0,.08-.23,1.28,1.28,0,0,0,.11-.24,1.31,1.31,0,0,1,.11-.24l.25-.41a1.89,1.89,0,0,0,.32-.42,3.77,3.77,0,0,0,.29-.34,4.23,4.23,0,0,1,.29-.34.92.92,0,0,0,.28-.21,1.55,1.55,0,0,1,.22-.2.17.17,0,0,1,.07-.06.16.16,0,0,0,.07-.06l0,0s-.05,0-.07,0a.17.17,0,0,1-.07.06.17.17,0,0,0-.07.06,1.35,1.35,0,0,0-.22.15,3.41,3.41,0,0,1-.33.24.37.37,0,0,0-.15.14.37.37,0,0,1-.15.14,1.29,1.29,0,0,0-.34.36,1.48,1.48,0,0,0-.29.39,1.93,1.93,0,0,0-.32.42,1974,1974,0,0,1-.36,1c0,.16,0,.32,0,.47s0,.31,0,.47a3,3,0,0,0,0,.37,1.61,1.61,0,0,0,.07.3Zm2.66-.59a2.37,2.37,0,0,0-.4,1.46,4.09,4.09,0,0,0,.53,1.57q2.78-1.48,5.27-2.86t4.31-2.5c1.22-.75,2.16-1.36,2.81-1.84s.88-.79.69-.91a2.43,2.43,0,0,0-1.23-.15,13.59,13.59,0,0,0-2.24.31q-1.29.27-2.76.71a19.69,19.69,0,0,0-2.84,1.1,17.08,17.08,0,0,0-2.48,1.44A5.86,5.86,0,0,0,403.64,97.59Zm3.76,1.93.92-.51.93-.5.91-.52.86-.54.41-.23.41-.23q.37-.28.7-.49a10.14,10.14,0,0,1,1-.76.54.54,0,0,1,.12-.13.59.59,0,0,0,.12-.13s.06-.06.09,0l0,0a1.28,1.28,0,0,1-.42.25l-.5.28c-.2.1-.4.22-.62.36q-.68.45-1.54.94t-1.81,1c-.62.37-1.22.72-1.8,1l-1.56.88q-.83.41-1.53.85l0,0,.48-.17a2.6,2.6,0,0,1,.49-.24,6.45,6.45,0,0,0,.65-.29A14.19,14.19,0,0,0,407.4,99.52Zm-10.64,14.37a.3.3,0,0,1-.11.08l-.31.22-.38.41-.42.49a3.79,3.79,0,0,0-.5,1.09.93.93,0,0,0-.08.41.31.31,0,0,1,0,.14.17.17,0,0,1,0-.14.7.7,0,0,0,.07-.16.77.77,0,0,1,.09-.2,3,3,0,0,1,.25-.49l.34-.54c.14-.16.27-.32.39-.48a3.6,3.6,0,0,1,.34-.41,1,1,0,0,1,.25-.31Zm3.13-2.13a.4.4,0,0,1,.1-.12.42.42,0,0,0,.1-.12.12.12,0,0,1,.09,0,.12.12,0,0,0-.09,0,.14.14,0,0,0-.1.07.32.32,0,0,1-.13.1l-.41.26a4.79,4.79,0,0,0-.45.34l-.53.42a6.48,6.48,0,0,0-.58.49l-.28.26-.31.3-.55.59a4,4,0,0,0-.29.31,3,3,0,0,0-.24.34,1.07,1.07,0,0,0-.23.32,1.1,1.1,0,0,1-.23.32,1.81,1.81,0,0,1-.17.36,1.25,1.25,0,0,0-.14.32.37.37,0,0,1-.05.18.35.35,0,0,0-.05.17.65.65,0,0,0-.08.31.64.64,0,0,0-.08.31.44.44,0,0,0,0,.13.55.55,0,0,1,0,.13.72.72,0,0,0,0,.25,1.35,1.35,0,0,1,0,.21l.07.25a.12.12,0,0,0,0,.1l0,0,0,0v-.1a.55.55,0,0,1,0-.26.74.74,0,0,1,0-.47.12.12,0,0,1,0-.1.33.33,0,0,0,0-.14.62.62,0,0,1,.06-.28.34.34,0,0,1,.05-.18.37.37,0,0,0,.05-.18.45.45,0,0,0,.06-.14.41.41,0,0,1,.06-.14,1.29,1.29,0,0,1,.15-.32l.21-.33.21-.33a1.79,1.79,0,0,1,.25-.31,2.67,2.67,0,0,1,.23-.32l.27-.29a2,2,0,0,0,.26-.33,1,1,0,0,1,.31-.3l.27-.29a1,1,0,0,1,.29-.23l.56-.5.51-.43A3.72,3.72,0,0,1,399.89,111.76Z"/><path d="M432.13,129.85a.73.73,0,0,1,1,.26,2.82,2.82,0,0,1,.44,1.29,3.51,3.51,0,0,1-.15,1.48,1.35,1.35,0,0,1-.75.92A32.77,32.77,0,0,1,428,135a26.47,26.47,0,0,1-5.63.43,24.73,24.73,0,0,1-6.1-1,19.36,19.36,0,0,1-6.12-3.05l-.58-.34-.55-.38a5.68,5.68,0,0,1-1.73-1.88,4.69,4.69,0,0,1-.28-3.94,5,5,0,0,1,.94-1.6,4.45,4.45,0,0,1,1.05-.92,1.86,1.86,0,0,1,.79-.28.62.62,0,0,1,.45.11c.09.08.11.16.06.23a2.64,2.64,0,0,0-.71,2,3.8,3.8,0,0,0,.83,1.95,8.26,8.26,0,0,0,1.86,1.71,10.46,10.46,0,0,0,2.29,1.22,7,7,0,0,0,2.18.47,2,2,0,0,0,1.59-.53c.28-.3.25-.75-.09-1.34a15.4,15.4,0,0,0-1.46-2l-2.07-2.49a17.44,17.44,0,0,1-1.89-2.73,6.78,6.78,0,0,1-.88-2.76,3.51,3.51,0,0,1,.95-2.61,5.74,5.74,0,0,1,2.48-1.66,11.45,11.45,0,0,1,3.26-.62,18.51,18.51,0,0,1,3.62.19,23.12,23.12,0,0,1,3.55.81,25.94,25.94,0,0,1,3,1.15A10.6,10.6,0,0,1,431,116.3a2.37,2.37,0,0,1,.91,1.35,3.74,3.74,0,0,1,0,1.62,5.61,5.61,0,0,1-.61,1.59,6.54,6.54,0,0,1-.88,1.23,4.09,4.09,0,0,1-1.31.87,11.89,11.89,0,0,1-1.72.63,11.3,11.3,0,0,1-1.53.33c-.45.06-.71.06-.8,0l-.6-.47a9.59,9.59,0,0,1-.83-.73,4.06,4.06,0,0,1-.64-.8c-.17-.27-.17-.48,0-.62a3.06,3.06,0,0,1,.89-.48l1.43-.56,1.44-.56a3.17,3.17,0,0,0,.9-.47q.11-.14-.59-.51a11.7,11.7,0,0,0-1.88-.75q-1.19-.38-2.66-.71a19.12,19.12,0,0,0-2.87-.43,12.67,12.67,0,0,0-2.54.05,2.45,2.45,0,0,0-1.64.76c-.05.07.12.34.51.8l1.46,1.75q.87,1,1.81,2.39a19.08,19.08,0,0,1,1.6,2.7,8.14,8.14,0,0,1,.79,2.61A2.84,2.84,0,0,1,421,130c-.2.25-.39.48-.56.67s-.35.38-.52.54a22,22,0,0,0,6.8,0A25.16,25.16,0,0,0,432.13,129.85Zm-16.88-15.6.52-.19a3.09,3.09,0,0,1,.57-.16l1.31-.2a10.11,10.11,0,0,1,1.45-.07l1.51,0a21.78,21.78,0,0,1,3,.36q1.49.29,2.62.59l1.08.32c.31.09.57.18.78.27a1,1,0,0,1,.3.09,1.14,1.14,0,0,0,.23.1l.13.1s.05,0,.07,0l0,0a.13.13,0,0,0-.08,0,.12.12,0,0,1-.08,0,4.29,4.29,0,0,1-.51-.23c-.24-.11-.51-.21-.81-.32l-1.06-.34-1.25-.36a10.38,10.38,0,0,0-1.37-.28q-.77-.13-1.53-.23t-1.51-.15a15.46,15.46,0,0,0-3,.06,4.77,4.77,0,0,0-.69.1l-.64.13a3.18,3.18,0,0,0-.57.16l-.52.19a2.31,2.31,0,0,0-.82.44l-.36.23a.43.43,0,0,1-.11.11.39.39,0,0,0-.11.11,2.14,2.14,0,0,0-.32.37l-.08.11.08-.11a.81.81,0,0,1,.14-.15l.23-.19a.81.81,0,0,1,.22-.22l.33-.2a1.55,1.55,0,0,1,.4-.2A3,3,0,0,1,415.25,114.25Zm.51.36.63-.12.7-.12q.37-.06.71-.09a5.79,5.79,0,0,0,.64-.08,2.32,2.32,0,0,1,.44-.06h.21l-.18,0-.24,0h-.26l-1.37.1a4.61,4.61,0,0,0-1.3.37l-.42.13a.3.3,0,0,0-.12.08s.05,0,.07,0l.09,0c.09,0,.14,0,.16,0l.12,0Zm.07,15.54a.76.76,0,0,0,.24,0,.15.15,0,0,1,.11,0l-.32-.08-.4-.14a2.11,2.11,0,0,1-.47-.13l-.58-.24-.61-.27-.66-.38-.66-.38-.61-.45a1.42,1.42,0,0,1-.57-.42,3,3,0,0,1-.29-.24l-.25-.21a1.08,1.08,0,0,0-.22-.21,1.06,1.06,0,0,1-.22-.21,1,1,0,0,0-.2-.2.57.57,0,0,1-.16-.17,4,4,0,0,1-.25-.34l-.17-.28,0,.07a1.14,1.14,0,0,0,.13.25l.1.16.1.16a.93.93,0,0,0,.16.2,1,1,0,0,1,.16.2l.45.49a1.15,1.15,0,0,0,.24.23,1.18,1.18,0,0,1,.24.23l.61.45.61.45.68.39a5.55,5.55,0,0,0,.66.33l.33.14.33.14a2.17,2.17,0,0,0,.55.19l.27.1.23.07Z"/></svg>