<svg id="Celtics" xmlns="http://www.w3.org/2000/svg" viewBox="0 0 512 512"><defs><style>.cls-1{opacity:0.5;}.cls-2{fill:#fff;}.cls-3{fill:#841717;}.cls-4{fill:#008348;}.cls-5{fill:#cc8217;}</style></defs><title>Celtics</title><g class="cls-1"><ellipse class="cls-2" cx="256" cy="256" rx="242.51" ry="244.7"/><path class="cls-3" d="M256,503.34c-65.48,0-127-25.73-173.35-72.45a248.9,248.9,0,0,1,0-349.77C129,34.4,190.52,8.66,256,8.66S383,34.4,429.35,81.12a248.9,248.9,0,0,1,0,349.77C383,477.61,321.48,503.34,256,503.34Zm0-489.4A237.21,237.21,0,0,0,86.4,84.83a243.63,243.63,0,0,0,0,342.35,238.34,238.34,0,0,0,339.21,0,243.63,243.63,0,0,0,0-342.35A237.21,237.21,0,0,0,256,13.94Z"/></g><g class="cls-1"><ellipse class="cls-4" cx="254.73" cy="256.04" rx="169.5" ry="169.09"/><path class="cls-3" d="M254.73,427.15c-94.58,0-171.52-76.76-171.52-171.11S160.15,84.92,254.73,84.92,426.25,161.68,426.25,256,349.31,427.15,254.73,427.15Zm0-338.19C162.38,89,87.25,163.91,87.25,256s75.13,167.07,167.48,167.07S422.21,348.16,422.21,256,347.08,89,254.73,89Z"/></g><g class="cls-1"><ellipse class="cls-5" cx="251.5" cy="257.13" rx="147.98" ry="153.11"/><path class="cls-3" d="M251.5,410.54c-81.76,0-148.27-68.82-148.27-153.4s66.51-153.4,148.27-153.4,148.27,68.82,148.27,153.4S333.26,410.54,251.5,410.54Zm0-306.22c-81.43,0-147.69,68.55-147.69,152.82S170.06,409.95,251.5,409.95,399.18,341.4,399.18,257.13,332.93,104.31,251.5,104.31Z"/></g><rect class="cls-3" x="103.52" y="255.08" width="295.96" height="4.1"/><rect class="cls-3" x="252.01" y="105.22" width="2.34" height="306.22"/><path class="cls-3" d="M353.24,370.86c-33.37-9.38-57.17-47.89-60.62-98.13-1.82-26.4,2.52-53,12.23-74.84,10.9-24.56,28.14-42.54,49.85-52l1.17,2.68c-21,9.17-37.74,26.64-48.34,50.52-9.51,21.43-13.77,47.52-12,73.45,3.37,49,26.33,86.47,58.49,95.51Z"/><path class="cls-3" d="M150.13,370.86l-.79-2.82c32.16-9,55.12-46.53,58.49-95.51,1.79-25.93-2.47-52-12-73.45-10.6-23.88-27.31-41.35-48.34-50.52l1.17-2.68c21.71,9.47,38.95,27.46,49.85,52,9.7,21.86,14,48.44,12.23,74.84C207.29,323,183.5,361.49,150.13,370.86Z"/><path d="M132.27,86.41a6.89,6.89,0,0,1,1.12,3.22A9,9,0,0,1,133,93a15,15,0,0,1-1.51,3.32,33.42,33.42,0,0,1-2.2,3.2,7.55,7.55,0,0,1,4.79-.42c1.54.39,3,1.64,4.4,3.74a5.8,5.8,0,0,1,1,3.16,10.9,10.9,0,0,1-.49,3.42,16.73,16.73,0,0,1-1.45,3.36,33,33,0,0,1-1.88,3,27.54,27.54,0,0,1-1.82,2.31,11.85,11.85,0,0,1-1.25,1.28,5.05,5.05,0,0,1-2.2,1.1,3.83,3.83,0,0,1-1.82-.08,3.87,3.87,0,0,1-1.34-.72,6.44,6.44,0,0,1-.77-.73c-.15-.18-.17-.31-.05-.39a1.87,1.87,0,0,1,.6-.2q.42-.09,1-.26a3.2,3.2,0,0,0,1.07-.58,12.63,12.63,0,0,0,2-2,26.73,26.73,0,0,0,1.86-2.66,30.85,30.85,0,0,0,1.6-3,21.6,21.6,0,0,0,1.15-2.9,11.83,11.83,0,0,0,.51-2.48,2.62,2.62,0,0,0-.33-1.72,1.92,1.92,0,0,0-1.57-.76,7.48,7.48,0,0,0-2.58.39,17.54,17.54,0,0,0-3.14,1.35,24.42,24.42,0,0,0-3.25,2.1,12.34,12.34,0,0,0-1.41,1.25q-.64.67-1.14,1.25c-.33.39-.61.74-.85,1a4.24,4.24,0,0,1-.53.59c-.11.09-.32.08-.62,0a9.37,9.37,0,0,1-.92-.41,60.21,60.21,0,0,0,1.34,6.24,10.24,10.24,0,0,0,1.58,3.66,6.19,6.19,0,0,0,.92.89l.85.69a3.07,3.07,0,0,1,.52.54.29.29,0,0,1-.07.43,2.11,2.11,0,0,1-.9.28,5.57,5.57,0,0,1-1.64,0,7.56,7.56,0,0,1-2-.59,5.56,5.56,0,0,1-1.94-1.45,10.56,10.56,0,0,1-1.77-3.71,52.62,52.62,0,0,1-1.46-6.07c-.42-2.28-.74-4.68-1-7.2s-.35-4.86-.42-7a27.7,27.7,0,0,1-2.18,2.36.8.8,0,0,1-.89,0,5.16,5.16,0,0,1-1.09-.7,11.88,11.88,0,0,1-1-.91q-.45-.45-.59-.62s.1-.27.4-.67.73-.92,1.27-1.56,1.18-1.34,1.91-2.1,1.47-1.51,2.23-2.27a4.51,4.51,0,0,1,.23-1.66,2,2,0,0,1,.85-.34,6.58,6.58,0,0,1,1.11-.08q1.25-1.08,2.3-1.84A19.52,19.52,0,0,1,121.66,84a11.7,11.7,0,0,1,3.74-1,7.72,7.72,0,0,1,3.71.55A7,7,0,0,1,132.27,86.41ZM116.67,113a.31.31,0,0,0-.06-.15.31.31,0,0,1-.06-.15.16.16,0,0,1,0-.14.3.3,0,0,1,0,.14,2.1,2.1,0,0,0,.08.34l.19,1.22q.17.78.4,1.74a12.19,12.19,0,0,0,.62,1.9l.24.43.24.43a1.35,1.35,0,0,0,.25.45,2,2,0,0,1,.26.38l.32.36a1.29,1.29,0,0,1,.33.3l.33.26a1,1,0,0,0,.34.19,1.57,1.57,0,0,0,.63.33l.25.13.22.1a1,1,0,0,0,.32.13l.1,0-.38-.2a9.51,9.51,0,0,1-1-.69,1.31,1.31,0,0,1-.28-.25,1.8,1.8,0,0,0-.31-.28l-.26-.3-.29-.33-.49-.8-.25-.45a2,2,0,0,1-.18-.45l-.36-.91a3.8,3.8,0,0,0-.16-.47,3.72,3.72,0,0,1-.16-.47c-.08-.31-.17-.61-.26-.88s-.17-.53-.24-.78-.14-.47-.21-.66A5.43,5.43,0,0,1,116.67,113Zm15.93,2.87a2.82,2.82,0,0,0,.23-.32l.15-.26a2.1,2.1,0,0,0,.15-.22,1,1,0,0,0-.17.19,2,2,0,0,1-.17.24l-.25.3q-.27.32-.67.71l-.81.77a3.1,3.1,0,0,1-.39.36l-.42.33-.4.31a2.17,2.17,0,0,0-.38.25,1.54,1.54,0,0,0-.34.22l-.15.06a.46.46,0,0,1-.15.06l-.16.13s0,0-.07,0,0,0,.07,0a.11.11,0,0,1,.07,0,.23.23,0,0,0,.11-.06.41.41,0,0,0,.15-.06l.15-.06a.45.45,0,0,0,.17-.08.49.49,0,0,1,.17-.08.58.58,0,0,0,.21-.11.59.59,0,0,1,.21-.11l.4-.32a2.62,2.62,0,0,0,.47-.34c.14-.13.28-.25.44-.38s.24-.25.38-.38.26-.25.38-.38a3.24,3.24,0,0,1,.32-.41Zm-13.5-11.3a52.88,52.88,0,0,0,5.68-5.84,38.39,38.39,0,0,0,3.72-5.27,15.8,15.8,0,0,0,1.78-4.23,3.59,3.59,0,0,0-.17-2.71,1.68,1.68,0,0,0-1.72-.65,9.82,9.82,0,0,0-2.63.69,20.87,20.87,0,0,0-2.81,1.38c-.93.54-1.67,1-2.24,1.43a20.1,20.1,0,0,0-2.49,2.26c0,1.61.12,3.56.26,5.86S118.82,102.12,119.1,104.55Zm17.24,2.78a1.15,1.15,0,0,0,0-.21.72.72,0,0,1,0-.15l0-.13-.12.46c-.06.15-.12.33-.19.54a7.4,7.4,0,0,1-.26.7q-.07.16-.14.34l-.15.4q-.09.23-.19.44c-.07.14-.13.28-.19.44a5,5,0,0,0-.22.48,2.14,2.14,0,0,1-.24.45,5.28,5.28,0,0,0-.21.48,2.14,2.14,0,0,1-.24.45,2.83,2.83,0,0,0-.26.46,2.85,2.85,0,0,1-.26.46l-.28.43-.28.43-.28.43-.24.4a4,4,0,0,1-.28.38l-.27.32a1.4,1.4,0,0,1-.23.32.87.87,0,0,0-.19.29,1.08,1.08,0,0,1-.21.22.64.64,0,0,0-.17.19,2.39,2.39,0,0,1-.23.29l-.12.09.12-.09a1.29,1.29,0,0,0,.25-.25.65.65,0,0,1,.17-.19,1.08,1.08,0,0,0,.21-.22,5.37,5.37,0,0,0,.5-.6l.27-.32a3.89,3.89,0,0,0,.28-.38l.57-.76a4.82,4.82,0,0,0,.27-.45,4.59,4.59,0,0,1,.27-.45,9.28,9.28,0,0,0,.52-.93,3,3,0,0,0,.26-.46c.07-.16.15-.33.24-.5a2.14,2.14,0,0,0,.24-.45,5.07,5.07,0,0,1,.22-.48l.31-.88.17-.42a2.59,2.59,0,0,0,.13-.39c.08-.24.16-.46.22-.67S136.31,107.46,136.34,107.33ZM118.43,87.68a3,3,0,0,1-.28.31.58.58,0,0,1-.12.14l.47-.34a4.22,4.22,0,0,1,1-.72l1-.74L121,86a.19.19,0,0,0-.12,0,1.71,1.71,0,0,1-.36.2l-.54.3-.56.37-.52.37A3.92,3.92,0,0,0,118.43,87.68Zm.49-1.12a.52.52,0,0,0-.13.12.31.31,0,0,1-.08.09l-.1.07.33-.24.39-.25.51-.29.3-.19.3-.18a4.48,4.48,0,0,0,.72-.4l.76-.34a5.35,5.35,0,0,1,.78-.3,2.77,2.77,0,0,1,.79-.28l.77-.21.4-.08L125,84a2.26,2.26,0,0,1,.65-.07,5.37,5.37,0,0,1,.94,0,.27.27,0,0,0,.16,0h.13a.69.69,0,0,1-.24-.05l-.37,0a3.19,3.19,0,0,0-.57,0,1.87,1.87,0,0,0-.34,0,1.8,1.8,0,0,1-.34,0l-.37.07-.37.07a1.62,1.62,0,0,0-.39.1,1.52,1.52,0,0,1-.39.1l-.87.28-.76.34-.81.37a2.27,2.27,0,0,0-.36.2,1.4,1.4,0,0,1-.31.17,3.28,3.28,0,0,1-.35.22l-.3.19Z"/><path d="M160.51,80.43q.07-.47.68-.56a3.62,3.62,0,0,1,1.28.06,5.38,5.38,0,0,1,1.24.42c.37.18.56.36.55.52a35.9,35.9,0,0,1-.29,3.79,20.42,20.42,0,0,1-1.09,4.46,17.22,17.22,0,0,1-2.35,4.36A12.26,12.26,0,0,1,156.4,97l-.42.23a2.75,2.75,0,0,1-.44.19q-.33,1.59-.79,3.05a18.49,18.49,0,0,1-1.07,2.71,12.14,12.14,0,0,1-1.4,2.23,6.79,6.79,0,0,1-1.74,1.57,4.78,4.78,0,0,1-1.62.46,10.75,10.75,0,0,1-2.56.06,10,10,0,0,1-2.72-.62,4.27,4.27,0,0,1-2.1-1.67,7.28,7.28,0,0,1-1-2.44,17.77,17.77,0,0,1-.4-3.18,21.9,21.9,0,0,1,.14-3.43,27.66,27.66,0,0,1,.56-3.2l-.44-.71a4,4,0,0,1-.43-2.75,11.45,11.45,0,0,1,1.08-3.37,15.31,15.31,0,0,1,2.11-3.19,9.47,9.47,0,0,1,2.53-2.18,3.84,3.84,0,0,1,1.85-.34,7,7,0,0,1,2.56.55,10.46,10.46,0,0,1,2.64,1.59A8.41,8.41,0,0,1,155,85.23a10.47,10.47,0,0,1,1,3.52,24.9,24.9,0,0,1,.12,4.43,7.64,7.64,0,0,0,2.13-2.7A16.82,16.82,0,0,0,159.45,87a29.87,29.87,0,0,0,.63-3.56Q160.29,81.7,160.51,80.43Zm-16.08,23.48a1.23,1.23,0,0,1-.13-.39,1.27,1.27,0,0,1-.13-.39,3.73,3.73,0,0,0-.1-.49,3.86,3.86,0,0,1-.1-.48,3,3,0,0,1-.15-1c0-.16,0-.31,0-.44s0-.28,0-.44a1,1,0,0,0-.05-.33.37.37,0,0,1,0-.25.54.54,0,0,1,0-.27,2.15,2.15,0,0,1,0,.27.86.86,0,0,0,0,.28,2.43,2.43,0,0,1,0,.32,4.6,4.6,0,0,0,0,.92c0,.16,0,.32,0,.49s0,.33,0,.49a2.13,2.13,0,0,0,.13.49,2,2,0,0,1,.13.49,1.28,1.28,0,0,0,.15.42.89.89,0,0,1,.09.18.89.89,0,0,0,.09.18,1.66,1.66,0,0,0,.15.32l.14.22.12.19,0,0a.08.08,0,0,1,0-.07s0-.06,0-.11a1.36,1.36,0,0,1-.12-.24Zm.39-.14-.14-.41a2.53,2.53,0,0,1-.09-.43,6.65,6.65,0,0,1-.15-1l0-.61a2.65,2.65,0,0,1-.06-.58c0-.2,0-.41,0-.62s0-.42,0-.62q0-.65.1-1.3c0-.22.05-.44.09-.65s.07-.41.11-.61l-.34-.26-.06.19c0,.22-.06.44-.09.65a5.9,5.9,0,0,0-.06.69q-.05.65-.1,1.3,0,.37,0,.68l0,.61a2.1,2.1,0,0,0,0,.34l.05.28a.63.63,0,0,0,0,.29.63.63,0,0,1,0,.29c0,.19.08.36.12.52a3.74,3.74,0,0,1,.1.48c0,.12.07.27.11.45a1.21,1.21,0,0,1,.1.2,1.17,1.17,0,0,0,.1.2,3.3,3.3,0,0,0,.27.61.42.42,0,0,0,.11.22.86.86,0,0,1,.13.15l.07.11-.07-.11a1.34,1.34,0,0,0-.19-.4,1.45,1.45,0,0,0-.09-.28A1.56,1.56,0,0,1,144.82,103.77Zm1.36,1.48a8.45,8.45,0,0,0,2.63-2.69,15.75,15.75,0,0,0,1.72-3.81,8.25,8.25,0,0,1-3-.34A9.83,9.83,0,0,1,145,97.22a16.08,16.08,0,0,0-.17,4.13A8.54,8.54,0,0,0,146.18,105.25Zm-.7-10.1a3.22,3.22,0,0,0,2,1.68,5.6,5.6,0,0,0,3.66-.54,32.67,32.67,0,0,0,.53-3.73,25.62,25.62,0,0,0,.06-3.62,21.8,21.8,0,0,0-.41-3.2,9.39,9.39,0,0,0-.85-2.49.87.87,0,0,0-1.33-.43,6.4,6.4,0,0,0-2.43,2.59,15,15,0,0,0-1.54,4,4.66,4.66,0,0,1,1.39.69q.55.42.43.74c-.09.19-.3.68-.62,1.45A23.48,23.48,0,0,0,145.48,95.15Zm5.21,4.26a1.26,1.26,0,0,0,.13-.33c0-.12.06-.24.11-.37s0,0-.05,0,0,0-.06,0l-.24.7a3.15,3.15,0,0,0-.19.52,2.47,2.47,0,0,1-.17.46,3,3,0,0,1-.18.44,2.19,2.19,0,0,0-.14.31,2.46,2.46,0,0,1-.11.3,1.72,1.72,0,0,0-.09.24.29.29,0,0,1-.08.15l.31-.65a3.54,3.54,0,0,0,.17-.36c.06-.14.12-.27.19-.42s.14-.29.2-.45S150.62,99.63,150.69,99.42Zm-5.62-5.56a1.73,1.73,0,0,0,.06.25,2,2,0,0,1,.06.25q.07-.3.13-.54t.16-.5l.17-.48a3.43,3.43,0,0,0,.13-.46l.23-.65.24-.65a.62.62,0,0,1-.09.16,1.48,1.48,0,0,0-.13.2,1.91,1.91,0,0,0-.1.24q-.12.32-.29.71t-.36.9Zm-3.34-6.75a3.61,3.61,0,0,1-.14.34,2.92,2.92,0,0,0-.12.28l-.07.2,0,0,.07-.2a2.85,2.85,0,0,1,.12-.28l.17-.3.2-.35q.11-.19.28-.44c.08-.15.15-.29.22-.43a1.76,1.76,0,0,1,.29-.42c.11-.17.21-.33.29-.47a3,3,0,0,1,.27-.41,2.52,2.52,0,0,0,.3-.4,3.33,3.33,0,0,1,.26-.38q.29-.37.39-.53l.15-.18,0,0-.19.21q-.12.12-.42.49l-.6.77c-.2.27-.4.56-.6.88a8.66,8.66,0,0,0-.5.88Zm0-1c0,.06-.07.1-.06.11s0,0,0,.08l0,.07a2.69,2.69,0,0,0,.17-.25,1.06,1.06,0,0,1,.16-.27,2.88,2.88,0,0,0,.23-.36,2.37,2.37,0,0,0,.31-.44,5.48,5.48,0,0,1,.29-.48.75.75,0,0,1,.17-.25.74.74,0,0,0,.17-.25,1,1,0,0,1,.21-.25,1,1,0,0,0,.21-.25c.07-.1.2-.28.39-.53a4.34,4.34,0,0,0,.37-.46c.13-.14.26-.28.4-.4a3.53,3.53,0,0,0,.36-.38,2.13,2.13,0,0,1,.34-.29.53.53,0,0,1,.15-.13.54.54,0,0,0,.15-.13l.19-.11s0,0,0-.06l-.29.16-.29.16a2,2,0,0,0-.41.28,4,4,0,0,0-.44.35,1.21,1.21,0,0,1-.21.19,1.2,1.2,0,0,0-.21.19c-.16.16-.31.32-.45.48l-.43.52-.37.52a4.09,4.09,0,0,0-.34.56,5.52,5.52,0,0,0-.47.94A3,3,0,0,0,141.73,86.14Zm10.53,5.47c0-.13,0-.26,0-.38s0-.24,0-.38,0-.48,0-.7,0-.44,0-.67a3,3,0,0,1,0-.63,3.71,3.71,0,0,0,0-.59q-.18-1.1-.25-1.81a2.43,2.43,0,0,1-.07-.46.34.34,0,0,0,0-.18.35.35,0,0,1,0,.18c0,.07,0,.14,0,.22s0,.17,0,.26.07.48.1.8,0,.66,0,1c0,.19,0,.38,0,.58s0,.41,0,.64,0,.45,0,.67,0,.45,0,.7a5.83,5.83,0,0,1,0,.71c0,.14,0,.26,0,.38a1.74,1.74,0,0,1,0,.34q-.06.43-.1.78t0,.76c0,.26-.09.51-.14.76s-.09.49-.13.76a1.23,1.23,0,0,1-.07.39,1.19,1.19,0,0,0-.07.39l.18-.1.14-.69c0-.26.09-.51.13-.76s.09-.49.14-.76l.1-.78c0-.23,0-.48.05-.76s0-.26,0-.36S152.26,91.74,152.26,91.61Zm.35-3.84c0-.24-.09-.48-.11-.71s-.06-.47-.11-.71-.1-.47-.16-.69-.12-.43-.18-.63a3.36,3.36,0,0,0-.19-.64,5,5,0,0,1-.2-.54l-.39-.74-.16-.31,0,.08a.31.31,0,0,1,0,.11.39.39,0,0,0,0,.15,3,3,0,0,1,.14.32c.05.14.1.29.16.46a5.21,5.21,0,0,0,.19.52,3.33,3.33,0,0,1,.18.63q.07.36.15.67t.15.67l.13.7q.06.34.14.7c0,.21.06.43.07.63s0,.39,0,.56l.06.49a1.32,1.32,0,0,1,0,.38.63.63,0,0,0,.06.22.12.12,0,0,1,0,.1v-.31a2.15,2.15,0,0,0,0-.39c0-.15,0-.32,0-.51s0-.35,0-.57A3.7,3.7,0,0,0,152.61,87.77Z"/><path d="M182.41,75.54a.71.71,0,0,1,.71-.71,2.72,2.72,0,0,1,1.3.3,3.51,3.51,0,0,1,1.17.91,1.38,1.38,0,0,1,.4,1.12,33.84,33.84,0,0,1-1.28,4.54,26.76,26.76,0,0,1-2.38,5,24.34,24.34,0,0,1-3.74,4.71,18.69,18.69,0,0,1-5.52,3.7l-.57.32-.59.29a5.49,5.49,0,0,1-2.43.56,4.73,4.73,0,0,1-2-.49A4.83,4.83,0,0,1,166,94.58,5.1,5.1,0,0,1,165,93a4.52,4.52,0,0,1-.3-1.37,1.85,1.85,0,0,1,.14-.82.62.62,0,0,1,.31-.34c.11,0,.19,0,.23.06a2.66,2.66,0,0,0,1.39,1.6,3.75,3.75,0,0,0,2.08.25,8,8,0,0,0,2.36-.75,10.17,10.17,0,0,0,2.14-1.37,6.78,6.78,0,0,0,1.45-1.64,2,2,0,0,0,.32-1.63c-.13-.39-.52-.59-1.19-.6a14.58,14.58,0,0,0-2.46.23l-3.15.54a17.69,17.69,0,0,1-3.27.29,6.83,6.83,0,0,1-2.82-.58,3.52,3.52,0,0,1-1.82-2.1,5.71,5.71,0,0,1-.24-3,11.33,11.33,0,0,1,1.07-3.15,18.25,18.25,0,0,1,2-3.07,22.75,22.75,0,0,1,2.47-2.69,25.2,25.2,0,0,1,2.51-2.06,10.45,10.45,0,0,1,2.06-1.19,2.36,2.36,0,0,1,1.62-.1,3.7,3.7,0,0,1,1.39.83,5.62,5.62,0,0,1,1.06,1.33,6.62,6.62,0,0,1,.62,1.39,4.16,4.16,0,0,1,.09,1.56,12,12,0,0,1-.32,1.8,11.41,11.41,0,0,1-.48,1.49c-.17.42-.3.64-.4.68l-.7.28a9.58,9.58,0,0,1-1,.35,4.06,4.06,0,0,1-1,.15q-.48,0-.55-.3a3.05,3.05,0,0,1,0-1q.1-.71.22-1.52c.08-.54.16-1,.24-1.52a3.13,3.13,0,0,0,0-1c0-.11-.29,0-.73.25a11.5,11.5,0,0,0-1.58,1.25q-.92.84-1.94,1.95a18.62,18.62,0,0,0-1.79,2.28,12.47,12.47,0,0,0-1.2,2.23,2.44,2.44,0,0,0-.14,1.81c0,.08.35.06.95-.05l2.23-.41q1.34-.24,3-.38a18.11,18.11,0,0,1,3.1,0,7.87,7.87,0,0,1,2.62.64,2.86,2.86,0,0,1,1.55,1.58q.18.45.3.83c.08.25.15.49.21.72a22,22,0,0,0,3.33-5.8A25.78,25.78,0,0,0,182.41,75.54Zm-21.74,6.71c0-.18.06-.36.09-.55a3.16,3.16,0,0,1,.14-.58l.47-1.24a10,10,0,0,1,.66-1.3l.78-1.3a21.59,21.59,0,0,1,1.81-2.45q1-1.15,1.81-2l.82-.77a8.14,8.14,0,0,1,.62-.55,1,1,0,0,1,.23-.22,1.12,1.12,0,0,0,.2-.15l.15-.06s0,0,0-.06l-.05,0a.12.12,0,0,0-.07.05.13.13,0,0,1-.07.05,4.28,4.28,0,0,1-.45.33c-.21.15-.44.33-.68.55l-.83.75-.93.9a10.55,10.55,0,0,0-.92,1q-.5.6-1,1.22c-.31.41-.6.82-.88,1.24a15.33,15.33,0,0,0-1.42,2.64,4.83,4.83,0,0,0-.25.65c-.07.23-.14.44-.2.63a3.22,3.22,0,0,0-.14.58c0,.19-.05.38-.09.55a2.31,2.31,0,0,0,0,.93l0,.42a.44.44,0,0,1,0,.15.41.41,0,0,0,0,.15,2.06,2.06,0,0,0,.16.46l.06.12-.06-.12a.82.82,0,0,1-.06-.19c0-.07,0-.17-.05-.29a.83.83,0,0,1-.09-.3,3.11,3.11,0,0,0,0-.38,1.58,1.58,0,0,1,0-.45A2.89,2.89,0,0,1,160.67,82.25Zm.57-.27.21-.61.24-.67c.08-.23.18-.45.27-.66a6,6,0,0,0,.25-.6,2.18,2.18,0,0,1,.16-.41l.09-.19a.64.64,0,0,1-.11.15,1.49,1.49,0,0,0-.15.19,1.87,1.87,0,0,0-.13.23l-.59,1.24a4.62,4.62,0,0,0-.31,1.31,4.29,4.29,0,0,0-.09.43.3.3,0,0,0,0,.14s0,0,0-.06v-.1c0-.08.05-.14,0-.16a.37.37,0,0,0,0-.11A.37.37,0,0,1,161.24,82Zm13.45,7.66a.78.78,0,0,0,.13-.2.15.15,0,0,1,.07-.08l-.22.24-.31.27a2,2,0,0,1-.34.33l-.48.37L173,91l-.64.37-.64.38-.67.3a1.36,1.36,0,0,1-.63.28l-.35.13-.3.11a1.05,1.05,0,0,0-.29.08,1,1,0,0,1-.29.08,1,1,0,0,0-.26.07.53.53,0,0,1-.22.05l-.41,0H168l.06,0a1.13,1.13,0,0,0,.28,0h.37a.92.92,0,0,0,.25,0,1.07,1.07,0,0,1,.25,0l.64-.15a1.1,1.1,0,0,0,.31-.09,1.12,1.12,0,0,1,.31-.09l.67-.3.67-.3.66-.39a5.63,5.63,0,0,0,.6-.4l.28-.22.28-.22a2,2,0,0,0,.43-.37l.22-.19.17-.17A3.37,3.37,0,0,1,174.69,89.64Z"/><path d="M198.63,70.5q.14-.49.77-.42a3.46,3.46,0,0,1,1.3.44,5,5,0,0,1,1.17.89c.33.34.45.63.37.86-.41,1.31-.91,2.77-1.47,4.39a34.13,34.13,0,0,1-2,4.69,20.26,20.26,0,0,1-2.76,4,8.33,8.33,0,0,1-3.8,2.49,6.86,6.86,0,0,1-2,.24,8,8,0,0,1-2.66-.5,8.35,8.35,0,0,1-2.67-1.6,7.33,7.33,0,0,1-2-3.13,10.43,10.43,0,0,1-.37-2.88c0-1.37,0-3,.09-4.76s.26-3.73.49-5.78.48-4,.77-6q-1,.42-2,.74l-1.85.62a2.9,2.9,0,0,1-2.16.08,2.78,2.78,0,0,1-1.24-1,2.71,2.71,0,0,1-.44-1.31q0-.66.28-.78l1.49-.52,2.25-.79,2.43-.84c.8-.27,1.46-.5,2-.7.53-3,1-5.37,1.32-7.05a12.73,12.73,0,0,0,.41-2.87.6.6,0,0,1,.53-.86,3.91,3.91,0,0,1,1.74.13,7.94,7.94,0,0,1,1.91.8,2.09,2.09,0,0,1,1.08,1.17,7.46,7.46,0,0,1-.34,1.77c-.26,1-.65,2.69-1.12,5,1.68-.56,3.22-1,4.62-1.43s2.43-.66,3.07-.81a4.67,4.67,0,0,1,1.75-.17,1.88,1.88,0,0,1,1,.43,1.75,1.75,0,0,1,.5.83c.1.34.18.68.26,1a.65.65,0,0,1-.35.8,5.35,5.35,0,0,1-1.21.42q-2.53.6-5.2,1.48t-5.26,1.87q-.57,3.09-1.06,6.62t-.71,6.78a55.91,55.91,0,0,0-.11,5.95A15.65,15.65,0,0,0,188,85q.34,1,.94.8a7.5,7.5,0,0,0,3.37-2.4,23.36,23.36,0,0,0,2.7-4,40.68,40.68,0,0,0,2.13-4.63C197.74,73.16,198.25,71.75,198.63,70.5ZM186.38,86.62a1.4,1.4,0,0,0,.39.24l.18.08a.49.49,0,0,1-.13-.09l-.18-.15-.24-.17a.76.76,0,0,1-.24-.17,1.67,1.67,0,0,0-.26-.21l-.29-.25a3.06,3.06,0,0,1-.31-.29l-.27-.25-.27-.25a2.68,2.68,0,0,1-.48-.48l-.17-.19a.49.49,0,0,1-.11-.17.17.17,0,0,1-.09-.11v0l.06.17a.94.94,0,0,0,.09.18l.17.24a1.42,1.42,0,0,1,.16.24,1,1,0,0,0,.23.27,3.24,3.24,0,0,1,.28.27,3.44,3.44,0,0,0,.28.27c.2.18.41.35.62.5A3,3,0,0,0,186.38,86.62ZM183.1,73.26q0,.85-.08,1.51c0,.44,0,.83,0,1.17s0,.65,0,1a.5.5,0,0,0,0-.24,2.2,2.2,0,0,0,0-.31c0-.14,0-.29,0-.45,0-.32.07-.7.1-1.15s.08-.94.15-1.49.15-1.22.26-2,.21-1.62.31-2.49.22-1.74.35-2.61.25-1.68.36-2.42c0-.09,0-.19,0-.28l0-.28a1.39,1.39,0,0,1-.4.17.76.76,0,0,0,0,.19.79.79,0,0,1,0,.19c-.07.39-.13.84-.19,1.35s-.14,1-.22,1.57-.16,1.05-.22,1.55-.11.92-.14,1.27q-.1,1.05-.16,2T183.1,73.26Zm.64,1.22a1,1,0,0,0,.06-.32,3.35,3.35,0,0,1,0-.4c0-.29.1-.63.15-1l.06-.55a5.71,5.71,0,0,1,.1-.61c0-.19,0-.39.05-.6s0-.39.07-.55,0-.37,0-.55,0-.34.06-.5l.07-1-.23,1c0,.16,0,.33-.06.5s0,.34-.06.5A3.83,3.83,0,0,1,184,71a3,3,0,0,0-.07.62l-.11,1.15c0,.19,0,.36,0,.52l-.06.48a2.65,2.65,0,0,0,0,.42c0,.12,0,.23,0,.32a1.32,1.32,0,0,1,0,.28ZM185.34,57a5,5,0,0,1-.1.53,1.78,1.78,0,0,0-.06.29c0,.09,0,.21,0,.33s-.06.34-.12.63l.37-.11c0-.28.05-.49.07-.62a1.69,1.69,0,0,0,0-.31,1.64,1.64,0,0,1,0-.26c0-.09,0-.26.09-.48.1-.55.18-1.06.24-1.52a7.67,7.67,0,0,1,.23-1.19,3.53,3.53,0,0,0,.06-.41c0-.11,0-.21,0-.31a1.13,1.13,0,0,1,0-.28,1.43,1.43,0,0,0,0,.24.72.72,0,0,0-.11.31c0,.13,0,.27-.08.44-.09.36-.17.76-.26,1.2S185.48,56.47,185.34,57Z"/><path d="M221.86,62.24a.66.66,0,0,1,.8-.33,3.56,3.56,0,0,1,1.18.45,5.29,5.29,0,0,1,1,.78c.3.29.42.51.37.66a36.07,36.07,0,0,1-1.39,3.51,20.32,20.32,0,0,1-2.33,3.91A16.86,16.86,0,0,1,218,74.65a11.71,11.71,0,0,1-4.87,2l-.46.09a2.66,2.66,0,0,1-.46,0q-.77,1.4-1.62,2.66a18.11,18.11,0,0,1-1.79,2.24,11.67,11.67,0,0,1-2,1.68,6.4,6.4,0,0,1-2.08.94,4.54,4.54,0,0,1-1.64-.07,10.36,10.36,0,0,1-2.4-.74,9.83,9.83,0,0,1-2.34-1.44A4.36,4.36,0,0,1,197,79.85a7.48,7.48,0,0,1-.19-2.61,17.92,17.92,0,0,1,.55-3.13,21.82,21.82,0,0,1,1.13-3.21A27.23,27.23,0,0,1,199.93,68l-.2-.81a4,4,0,0,1,.4-2.74,11.2,11.2,0,0,1,2-2.86A14.75,14.75,0,0,1,205,59.25,9,9,0,0,1,208,58a3.7,3.7,0,0,1,1.83.25,6.92,6.92,0,0,1,2.22,1.31,10.53,10.53,0,0,1,2,2.32,8.59,8.59,0,0,1,1.22,3.27,10.69,10.69,0,0,1-.1,3.65A25.16,25.16,0,0,1,214,73a7.38,7.38,0,0,0,2.78-1.91,16.6,16.6,0,0,0,2.16-2.9,29.71,29.71,0,0,0,1.64-3.2Q221.28,63.39,221.86,62.24ZM200,79.58a3050.55,3050.55,0,0,1,0-.81,3.79,3.79,0,0,0,.05-.49,3.85,3.85,0,0,1,.05-.49,3,3,0,0,1,.15-1c0-.16.06-.3.09-.43s.07-.27.1-.43a1.05,1.05,0,0,0,0-.33.37.37,0,0,1,.07-.24.54.54,0,0,1,.09-.25,2.11,2.11,0,0,1-.09.25.84.84,0,0,0-.12.26,2.48,2.48,0,0,1-.1.3,4.64,4.64,0,0,0-.24.88q0,.24-.11.48c0,.16-.08.32-.11.48a2.16,2.16,0,0,0,0,.5,2.09,2.09,0,0,1,0,.51,1.31,1.31,0,0,0,0,.45.84.84,0,0,1,0,.2.9.9,0,0,0,0,.2,1.7,1.7,0,0,0,0,.35l.07.26.06.21v0a.09.09,0,0,1,0-.07s0-.06,0-.11a1.5,1.5,0,0,1,0-.26C200,79.85,200,79.73,200,79.58Zm.4,0c0-.15,0-.29,0-.43a2.54,2.54,0,0,1,0-.44,6.7,6.7,0,0,1,.15-1l.16-.58a2.67,2.67,0,0,1,.11-.57c.05-.2.11-.39.18-.59s.13-.4.19-.59l.48-1.2c.09-.2.18-.4.27-.59s.19-.37.28-.54l-.24-.35-.12.16-.27.59a5.84,5.84,0,0,0-.26.63l-.47,1.2c-.08.23-.14.44-.2.64l-.16.58a2.17,2.17,0,0,0-.07.34l0,.28a.63.63,0,0,0-.05.29.63.63,0,0,1-.05.29c0,.19,0,.36,0,.53a3.89,3.89,0,0,1-.05.49q0,.18,0,.46a1.19,1.19,0,0,1,0,.22,1.26,1.26,0,0,0,0,.22,3.35,3.35,0,0,0,.07.66.43.43,0,0,0,0,.24.9.9,0,0,1,.07.18l0,.13,0-.13a1.38,1.38,0,0,0-.06-.44,1.45,1.45,0,0,0,0-.3A1.61,1.61,0,0,1,200.42,79.56Zm.83,1.83a8,8,0,0,0,3.23-1.73,15.33,15.33,0,0,0,2.71-3.08,8,8,0,0,1-2.7-1.25,9.86,9.86,0,0,1-2-1.9,16.05,16.05,0,0,0-1.36,3.87A8.73,8.73,0,0,0,201.24,81.39Zm2.29-9.79a3.27,3.27,0,0,0,1.4,2.22,5.38,5.38,0,0,0,3.57.63,32.72,32.72,0,0,0,1.58-3.38,26,26,0,0,0,1.12-3.42,22.06,22.06,0,0,0,.56-3.17,9.59,9.59,0,0,0-.06-2.62c-.12-.66-.5-.94-1.12-.82a6.15,6.15,0,0,0-3,1.71A14.62,14.62,0,0,0,205,66.05,4.67,4.67,0,0,1,206,67.14q.39.57.18.84c-.14.15-.48.55-1,1.19A22.79,22.79,0,0,0,203.53,71.6Zm3.6,5.66a1.23,1.23,0,0,0,.22-.27,3.75,3.75,0,0,1,.21-.32s0,0-.05,0,0,0-.05,0l-.42.59a3,3,0,0,0-.33.43,2.38,2.38,0,0,1-.29.38,3,3,0,0,1-.29.36,2.1,2.1,0,0,0-.22.25,2.42,2.42,0,0,1-.19.25,1.64,1.64,0,0,0-.16.19c-.05.07-.09.11-.12.12l.48-.52a3.4,3.4,0,0,0,.26-.29l.3-.34.32-.37Zm-3.61-7a1.68,1.68,0,0,0,0,.25,2.06,2.06,0,0,1,0,.25l.28-.47q.13-.21.29-.43l.3-.41a3.38,3.38,0,0,0,.25-.39l.4-.54.41-.54a.61.61,0,0,1-.13.12l-.18.15-.17.19c-.14.18-.29.37-.47.58s-.38.45-.59.74Zm-1.14-7.45a3.56,3.56,0,0,1-.23.28l-.19.22-.12.16h.05l.12-.16.19-.22.24-.24.29-.27.39-.33.33-.34a1.67,1.67,0,0,1,.39-.31c.15-.12.29-.24.41-.36a3,3,0,0,1,.37-.31,2.39,2.39,0,0,0,.4-.29,3.25,3.25,0,0,1,.35-.28c.25-.17.43-.3.52-.38l.19-.13v0l-.24.14a6.13,6.13,0,0,0-.53.34l-.78.55q-.4.29-.81.65a8.33,8.33,0,0,0-.72.68Zm.28-.92c-.06,0-.09.07-.09.09s0,0,0,.08l0,.05.23-.19a1,1,0,0,1,.23-.21,2.65,2.65,0,0,0,.32-.27,2.3,2.3,0,0,0,.42-.32c.12-.12.26-.24.41-.36a.72.72,0,0,1,.23-.19.69.69,0,0,0,.23-.19,1,1,0,0,1,.26-.17,1,1,0,0,0,.26-.17,6.34,6.34,0,0,1,.52-.38,4.14,4.14,0,0,0,.48-.32l.49-.26a3.53,3.53,0,0,0,.44-.25,2.07,2.07,0,0,1,.4-.17.51.51,0,0,1,.18-.08.52.52,0,0,0,.18-.08l.21,0s0,0,0-.05l-.32.06-.32.06a2,2,0,0,0-.46.14,3.7,3.7,0,0,0-.51.19,1.17,1.17,0,0,1-.25.12,1.14,1.14,0,0,0-.25.12c-.2.1-.39.21-.56.32l-.55.36-.49.38a4,4,0,0,0-.48.42,5.4,5.4,0,0,0-.71.74A3,3,0,0,0,202.67,61.88Zm8.21,8.45q.07-.19.11-.36c0-.11.07-.23.11-.36s.17-.44.24-.65.13-.42.19-.64a3,3,0,0,1,.14-.61,3.76,3.76,0,0,0,.15-.57q.16-1.1.29-1.8a2.5,2.5,0,0,1,.07-.46.35.35,0,0,0,0-.18.35.35,0,0,1,0,.18c0,.06,0,.14-.07.21s0,.16-.06.26-.08.48-.14.79-.15.64-.26,1c0,.19-.08.37-.13.56l-.17.61c-.06.22-.12.43-.19.64s-.14.42-.24.65a5.86,5.86,0,0,1-.23.67c0,.13-.08.25-.11.36a1.7,1.7,0,0,1-.12.31l-.32.71c-.09.21-.18.45-.27.7l-.35.68-.34.68a1.19,1.19,0,0,1-.18.35,1.17,1.17,0,0,0-.18.35l.19,0,.33-.61.35-.68.35-.68.32-.71c.09-.21.18-.45.27-.7l.11-.34Zm1.45-3.54c0-.24.06-.48.1-.71s.08-.47.11-.71,0-.48.06-.7,0-.44,0-.65a3.44,3.44,0,0,0,0-.67,5.16,5.16,0,0,1,0-.58l-.15-.82-.06-.35,0,.09a.3.3,0,0,1,0,.11.4.4,0,0,0,0,.16,2.93,2.93,0,0,1,0,.35c0,.15,0,.31,0,.49a5.1,5.1,0,0,0,0,.55,3.4,3.4,0,0,1,0,.65c0,.24,0,.47-.06.68s0,.44-.06.68-.05.48-.08.71-.05.46-.08.71-.07.42-.12.63l-.13.54-.09.49a1.36,1.36,0,0,1-.11.36.63.63,0,0,0,0,.23.12.12,0,0,1,0,.1l.1-.29a2.19,2.19,0,0,0,.14-.36c0-.14.08-.31.12-.49s.09-.34.16-.54A3.8,3.8,0,0,0,212.33,66.79Z"/><path d="M242.91,64.12c.13-.21.38-.23.76-.07a5.37,5.37,0,0,1,1.17.71,4.32,4.32,0,0,1,1,1c.24.38.32.67.22.87-.62,1.13-1.42,2.41-2.4,3.86a41.7,41.7,0,0,1-3.19,4.15,24.13,24.13,0,0,1-3.6,3.4,7.24,7.24,0,0,1-3.71,1.59,2.93,2.93,0,0,1-1.48-.33,8.19,8.19,0,0,1-1.56-.95,8.61,8.61,0,0,1-1.29-1.21,2.29,2.29,0,0,1-.62-1.17,6.76,6.76,0,0,1,.37-2.65,32,32,0,0,1,1.32-3.49q.84-1.89,1.82-3.95t1.77-4a59.56,59.56,0,0,0-6.28,7.27,69.44,69.44,0,0,0-4,6.15c-1,1.78-1.76,3.2-2.26,4.26s-.82,1.59-1,1.62a1.64,1.64,0,0,1-.8-.16,4.82,4.82,0,0,1-1-.58,5.4,5.4,0,0,1-1-.89,2.25,2.25,0,0,1-.53-1.07,8,8,0,0,1,.4-2.1c.31-1.17.73-2.56,1.26-4.17s1.12-3.34,1.77-5.18,1.29-3.57,1.89-5.19,1.12-3,1.53-4.16a7.18,7.18,0,0,0,.56-2.17.33.33,0,0,1,0-.18.43.43,0,0,1,.4-.27,2.76,2.76,0,0,1,1,.1,5.77,5.77,0,0,1,1.15.45,3.15,3.15,0,0,1,1,.76,1.81,1.81,0,0,1,.45,1,4.2,4.2,0,0,1-.2,1.12q-.23.86-.65,2.08l-.93,2.67-1,3q1.37-1.8,2.92-3.67t2.94-3.44c.92-1.05,1.75-1.94,2.48-2.67a10.41,10.41,0,0,1,1.5-1.34.13.13,0,0,0,.08,0,.12.12,0,0,1,.08,0,.17.17,0,0,1,.11,0,.36.36,0,0,1,.22,0,5.23,5.23,0,0,1,.86.41,5.39,5.39,0,0,1,1,.77,4.78,4.78,0,0,1,.89,1.16,3.55,3.55,0,0,1,.43,1.56,5.21,5.21,0,0,1-.47,1.94q-.5,1.28-1.22,2.84t-1.58,3.32q-.86,1.76-1.52,3.35t-1.09,2.89a5.31,5.31,0,0,0-.36,2A5,5,0,0,0,235,74.28a16.91,16.91,0,0,0,2.67-2.56,44,44,0,0,0,2.71-3.54Q241.71,66.22,242.91,64.12Zm-19.66,4.19q.19-.47.34-.93t.34-.93c.13-.34.24-.66.34-1s.21-.62.35-.93l.28-.88.24-.78q.11-.37.21-.64l.18-.51a.32.32,0,0,0,0-.16.31.31,0,0,1,0-.16.16.16,0,0,1,0-.14q-1,2.54-1.87,5.1l-.65,1.88-.56,1.65c-.1.25-.18.47-.24.65l-.16.51a1.39,1.39,0,0,0-.14.42q.07-.19.19-.43l.45-1.13q.15-.37.28-.77C223,68.91,223.12,68.62,223.25,68.31Zm1.43-2.44a.12.12,0,0,1,0-.09.14.14,0,0,0,0-.12.23.23,0,0,1,.08-.16,7.26,7.26,0,0,0,.44-1,6.88,6.88,0,0,0,.3-.7q.14-.37.3-.74l.32-.83q.16-.42.32-.88a7.25,7.25,0,0,0,.27-.85c.07-.29.15-.57.22-.84s.14-.54.2-.8l.16-.7a4.9,4.9,0,0,0,0-1.11l0-.17a.16.16,0,0,0-.07-.13.12.12,0,0,1-.06-.08l.06.08v.13l0,.17a.38.38,0,0,0,0,.2.66.66,0,0,1,0,.25.61.61,0,0,0-.1.3,1.44,1.44,0,0,1,0,.29,4.1,4.1,0,0,1-.21.73,7.77,7.77,0,0,0-.26.78,7,7,0,0,0-.31.81c-.09.29-.19.57-.3.85l-.29.87c-.09.28-.17.55-.24.82s-.2.54-.27.78-.15.48-.23.69a5.65,5.65,0,0,1-.13.61,3.76,3.76,0,0,1-.15.44Zm4.8,6.7a5.67,5.67,0,0,0,.33-.85,5.28,5.28,0,0,1,.34-.85c.14-.31.26-.6.36-.87a8.73,8.73,0,0,1,.37-.83,9.87,9.87,0,0,1,.62-1.47l.2-.61a3.81,3.81,0,0,1,.16-.43,2.13,2.13,0,0,1,.12-.32.12.12,0,0,0,0-.09.12.12,0,0,1,0,.09,1,1,0,0,0-.18.28l-.21.44-.3.58c-.11.22-.23.45-.34.69s-.24.49-.38.74-.27.56-.4.83l-.39.88c-.11.28-.21.56-.31.85l-.31.85-.13.41a3.24,3.24,0,0,1-.13.37,2.94,2.94,0,0,0-.1.41l-.06.36a1.64,1.64,0,0,0-.08.63,1.81,1.81,0,0,0,0,.25,1.07,1.07,0,0,0,0,.24l0,.31v.09l0-.09a.88.88,0,0,1,0-.31,5.39,5.39,0,0,1,.23-1.08c.07-.24.15-.49.24-.73S229.37,72.81,229.48,72.57Zm5.71,6.1a.8.8,0,0,1,.25-.13.42.42,0,0,0,.21-.13.75.75,0,0,0,.18-.15l-.18.1-.51.22a5.33,5.33,0,0,1-1.49.47l-.43,0h-.43a2,2,0,0,1-.73-.15l-.3-.1a.28.28,0,0,1-.2-.07c-.06,0-.09,0-.1,0s0,0,0,0,0,0-.05,0l.15.12a.79.79,0,0,1,.2.11l.3.1a1.9,1.9,0,0,0,.32.12,2.21,2.21,0,0,0,.41.07.5.5,0,0,0,.22,0,.52.52,0,0,1,.22,0l.47,0a2,2,0,0,0,.42-.08,3.58,3.58,0,0,0,.42-.17,2.28,2.28,0,0,0,.39-.14A2,2,0,0,0,235.18,78.67Zm-1.35-15.45c-.32.73-.72,1.55-1.18,2.48l-.32.69a6.18,6.18,0,0,0-.27.68,4.07,4.07,0,0,0-.27.62,6,6,0,0,1-.23.57,4.92,4.92,0,0,1-.16.48,2.09,2.09,0,0,0-.11.39.64.64,0,0,0-.07.32,2.17,2.17,0,0,1,.12-.32,1.34,1.34,0,0,0,.14-.34,3.43,3.43,0,0,1,.18-.48c.17-.34.35-.73.53-1.17s.39-.89.62-1.35l.33-.69c.1-.21.2-.43.28-.64l.31-.66c.09-.2.16-.37.22-.52l.17-.45c.06-.15.12-.29.18-.41a2.32,2.32,0,0,0,.13-.32,2.85,2.85,0,0,0-.18.32,1.81,1.81,0,0,0-.18.37A3,3,0,0,1,233.83,63.22Z"/><path d="M285.86,65.58a.94.94,0,0,1,.83-.39,2.53,2.53,0,0,1,1.21.27,2.19,2.19,0,0,1,.94.85,1.3,1.3,0,0,1,0,1.29A8.72,8.72,0,0,1,287.06,70a28.55,28.55,0,0,1-3.11,2.72,42.34,42.34,0,0,1-4,2.69,38,38,0,0,1-4.5,2.31,27.22,27.22,0,0,1-4.65,1.54,14.54,14.54,0,0,1-4.54.35,5.45,5.45,0,0,1-2.42-1,11.29,11.29,0,0,1-2.51-2.26,13.3,13.3,0,0,1-2-3.16,8,8,0,0,1-.72-3.66,14.7,14.7,0,0,1,1.15-4.74,33.1,33.1,0,0,1,2.83-5.46,42,42,0,0,1,4.09-5.4,34.86,34.86,0,0,1,4.9-4.57,23.42,23.42,0,0,1,5.13-3,8.85,8.85,0,0,1,4.62-.77,4,4,0,0,1,1.91.9A9.38,9.38,0,0,1,285,48.29a8.21,8.21,0,0,1,1.14,2.14,4,4,0,0,1,.26,2,11,11,0,0,1-1,2.78q-.76,1.61-1.61,3.05a24.1,24.1,0,0,1-1.62,2.44c-.51.66-.85,1-1,1a2,2,0,0,1-.78-.45c-.35-.27-.7-.58-1.06-.91a10,10,0,0,1-1-1c-.28-.33-.4-.59-.38-.76a3.53,3.53,0,0,1,.49-.89l1.12-1.71q.65-1,1.33-2.1a16.79,16.79,0,0,0,1.1-2.06,3.68,3.68,0,0,0,.38-1.63c0-.45-.3-.71-.81-.78a5.12,5.12,0,0,0-3,.92,27.84,27.84,0,0,0-4.1,3,43.37,43.37,0,0,0-4.38,4.34,52.85,52.85,0,0,0-3.92,5,33.4,33.4,0,0,0-2.83,4.93,11.76,11.76,0,0,0-1.18,4q-.05.88-.08,1.65a3,3,0,0,0,.23,1.33,2.09,2.09,0,0,0,.91.94,4.65,4.65,0,0,0,1.9.47,16,16,0,0,0,4.57-.3,24.7,24.7,0,0,0,4.37-1.34,32,32,0,0,0,4-2,32.42,32.42,0,0,0,3.49-2.34,24.73,24.73,0,0,0,2.64-2.35A10.08,10.08,0,0,0,285.86,65.58Zm-25.16.15a3.63,3.63,0,0,0,.2-.47c.06-.17.13-.34.21-.52l.23-.51c.08-.17.16-.36.24-.56q.52-1,1.15-2.09c.12-.2.23-.38.35-.55s.23-.35.35-.55l.35-.51c.12-.17.23-.35.35-.55q.75-1,1.54-2t1.61-1.92l.8-.9.75-.86.78-.81.72-.73,1.3-1.24q.58-.56,1.06-1l.73-.59a2.2,2.2,0,0,0,.25-.24l-.3.19a2.91,2.91,0,0,0-.3.23l-.42.35-1.11.93q-.63.53-1.35,1.22c-.24.21-.49.45-.74.7l-.8.79-.83.83-.82.88a33.88,33.88,0,0,0-3.15,4,18.9,18.9,0,0,0-1.39,2.16l-.58,1.09-.57,1c-.08.2-.16.39-.24.56l-.23.52-.36,1-.18.52a.42.42,0,0,0-.06.22.73.73,0,0,1-.06.26.67.67,0,0,0-.06.24.72.72,0,0,1-.06.24.67.67,0,0,0-.06.24.7.7,0,0,1-.06.24,1.25,1.25,0,0,1,0,.22,1.11,1.11,0,0,0,0,.22,1.37,1.37,0,0,1-.07.44,2.8,2.8,0,0,1,0,.39,1.07,1.07,0,0,0,0,.4l0,.7a2.05,2.05,0,0,0,0,.33,1.85,1.85,0,0,1,0,.29c0,.12,0,.19,0,.22v.26a1.78,1.78,0,0,1,.08.31.29.29,0,0,0,0,.13.18.18,0,0,1,0,.09v0a.18.18,0,0,0,0-.09.28.28,0,0,1,0-.13,1.36,1.36,0,0,0,0-.35l0-.44a2.86,2.86,0,0,1,0-.62l0-.7a2.87,2.87,0,0,1,0-.37,4,4,0,0,1,.1-.41.88.88,0,0,1,0-.2,1.08,1.08,0,0,0,0-.24.39.39,0,0,0,.06-.19.68.68,0,0,1,.06-.24,1.16,1.16,0,0,1,0-.22,1.19,1.19,0,0,0,0-.22,2,2,0,0,0,.09-.24,1.79,1.79,0,0,1,.09-.24.68.68,0,0,0,.06-.24.66.66,0,0,1,.06-.24Zm1.05-.65c.12-.29.25-.58.38-.88a8.48,8.48,0,0,1,.49-.92c.16-.31.31-.61.47-.89l.47-.85c.19-.28.35-.55.49-.8a7.59,7.59,0,0,1,.44-.72l.7-1,.29-.42-.29.38a2.64,2.64,0,0,1-.35.46,5.6,5.6,0,0,0-.46.58l-.47.69-.52.78-.47.85c-.16.28-.33.58-.52.89q-.47.94-.82,1.8a2.19,2.19,0,0,0-.18.43l-.13.43a1.43,1.43,0,0,0-.15.39c0,.12-.06.25-.1.39s-.14.48-.19.65a2.41,2.41,0,0,0-.08.52,1.32,1.32,0,0,0-.07.35v0a1.3,1.3,0,0,1,.07-.35.44.44,0,0,0,.06-.22.73.73,0,0,1,.07-.26L261,67l.12-.32c0-.14.08-.27.12-.39s.08-.24.12-.39a2.2,2.2,0,0,0,.18-.43A2.21,2.21,0,0,1,261.75,65.08Z"/><path d="M305.67,71.75a2.77,2.77,0,0,1,.81,1.1,2,2,0,0,1,.08,1.39,4.2,4.2,0,0,1-1,1.33,21,21,0,0,1-2.3,2A36.4,36.4,0,0,1,300,79.7a28.05,28.05,0,0,1-3.8,1.91,19.56,19.56,0,0,1-4.06,1.19,10.7,10.7,0,0,1-4.06,0,5.7,5.7,0,0,1-2.6-1.36,11.56,11.56,0,0,1-2.19-2.56,12,12,0,0,1-1.43-3.2,7.62,7.62,0,0,1-.24-3.29,10.13,10.13,0,0,1,1.09-3.1,16.43,16.43,0,0,1,2.15-3.11,23.24,23.24,0,0,1,2.92-2.81,18.42,18.42,0,0,1,3.36-2.18,15.12,15.12,0,0,1,3.43-1.25,7.12,7.12,0,0,1,3.17,0,5.59,5.59,0,0,1,2.83,1.41,5.44,5.44,0,0,1,1.29,2,3.82,3.82,0,0,1,.24,1.74c-.07.48-.17.7-.31.67a.85.85,0,0,1-.3-.12,2.45,2.45,0,0,1-.1.61A6.58,6.58,0,0,1,300,68.77a10.86,10.86,0,0,1-2.6,2.21,11.53,11.53,0,0,1-3.26,1.37,7.76,7.76,0,0,1-3.52.08,5.75,5.75,0,0,1-2.11-.83,6.82,6.82,0,0,1-1.38-1.22,10.68,10.68,0,0,0-1.89,4.22,12,12,0,0,0-.17,1.51,5.76,5.76,0,0,0,.09,1.43,2.74,2.74,0,0,0,.5,1.15,1.71,1.71,0,0,0,1.09.63,11.16,11.16,0,0,0,4.09,0,16.9,16.9,0,0,0,3.83-1.15A21.27,21.27,0,0,0,298,76.37q1.57-1.06,2.83-2.07c.84-.68,1.52-1.26,2-1.78s.88-.85,1.07-1a1.11,1.11,0,0,1,1.47.09ZM286,66l.34-.3.34-.3a1.66,1.66,0,0,1,.31-.28,1.59,1.59,0,0,0,.31-.28l.55-.43.54-.37a1.91,1.91,0,0,0,.38-.31.67.67,0,0,0,.15-.11l.09-.07.12-.07-.12.07-.09.07-.15.11-.42.26-.54.32a1.88,1.88,0,0,1-.3.21,1.22,1.22,0,0,0-.31.26,2.26,2.26,0,0,0-.33.23l-.34.27-.34.3c-.11.1-.22.2-.34.3a7,7,0,0,1-.64.65q-.14.2-.27.35a4.42,4.42,0,0,0-.27.35c-.09.13-.18.25-.27.36s-.18.22-.27.36a1.59,1.59,0,0,0-.21.32,1.57,1.57,0,0,1-.21.32,5.32,5.32,0,0,1-.32.66c-.1.22-.19.41-.25.56a2.27,2.27,0,0,0-.13.45.82.82,0,0,0-.06.39l0-.13a.75.75,0,0,1,.09-.25.44.44,0,0,0,.09-.21.44.44,0,0,1,.09-.21c.05-.11.14-.3.25-.58a.64.64,0,0,0,.17-.26,1.52,1.52,0,0,1,.19-.35,1.55,1.55,0,0,0,.21-.32,1.69,1.69,0,0,1,.21-.32,4.29,4.29,0,0,1,.27-.35c.09-.1.18-.22.27-.36s.18-.21.29-.31a2.43,2.43,0,0,0,.3-.35,2.31,2.31,0,0,1,.3-.35ZM287.73,64a1.72,1.72,0,0,0-.19.19l-.13.15a.51.51,0,0,1-.13.11.53.53,0,0,0,.13-.11.61.61,0,0,1,.16-.13,1.42,1.42,0,0,0,.21-.16,7.53,7.53,0,0,0,.66-.44,8.59,8.59,0,0,1,.85-.53,5,5,0,0,1,.49-.31l.54-.3.6-.31.6-.31a5.29,5.29,0,0,1,.65-.29l.71-.28a4.16,4.16,0,0,1,.73-.23c.25-.05.49-.12.72-.19a7.27,7.27,0,0,1,1.57-.2,6.63,6.63,0,0,1,1.53,0l.7.16a3.09,3.09,0,0,1,.68.25.45.45,0,0,1,.15.06.43.43,0,0,0,.15.06.48.48,0,0,0,.15.08.51.51,0,0,1,.15.08.46.46,0,0,0,.15.08.5.5,0,0,1,.15.08.4.4,0,0,0,.24.15,4.88,4.88,0,0,1,.82.7,1.45,1.45,0,0,1,.31.3,2.05,2.05,0,0,0,.26.29,1.82,1.82,0,0,1,.14.22.5.5,0,0,0,.15.17c.05.07.1.12.13.12a.48.48,0,0,1-.07-.15,3.5,3.5,0,0,1-.28-.43,2.4,2.4,0,0,0-.24-.26,1.47,1.47,0,0,1-.27-.36,1.74,1.74,0,0,1-.41-.35,3.42,3.42,0,0,0-.4-.39.93.93,0,0,1-.29-.16,1.37,1.37,0,0,0-.23-.19,2.45,2.45,0,0,1-.34-.17.49.49,0,0,0-.15-.08.48.48,0,0,1-.15-.08,6.82,6.82,0,0,0-1.49-.43l-.78-.08a4.42,4.42,0,0,0-.85,0,7.38,7.38,0,0,0-1.57.2,7.06,7.06,0,0,0-.8.19l-.76.25-.69.31-.68.31a10.18,10.18,0,0,0-1.18.66l-1,.66a5.75,5.75,0,0,0-.81.61A6.68,6.68,0,0,1,287.73,64ZM289,69.43a7.45,7.45,0,0,0,3.6-.07A8,8,0,0,0,295.37,68a9.9,9.9,0,0,0,2-2.08q.8-1.16,1.36-2.1l-.3-.09-.3-.09a4.71,4.71,0,0,0-2.27.11,11,11,0,0,0-2.66,1.12,18.56,18.56,0,0,0-2.69,1.9,19.89,19.89,0,0,0-2.39,2.38A3.09,3.09,0,0,0,289,69.43Zm4.58,10.67.49-.16.38-.14.34-.15-.34.15-.4.11-.5.13a5.59,5.59,0,0,0-.6.11,3.55,3.55,0,0,1-.69.09,2.22,2.22,0,0,1-.38.05,2.17,2.17,0,0,0-.38.05,2.19,2.19,0,0,1-.38.05h-.42a1.27,1.27,0,0,1-.38,0,1.28,1.28,0,0,0-.38,0h-1.47l-.33,0-.29,0a2.54,2.54,0,0,1-.53-.06,2,2,0,0,1-.43,0h-.29l-.09,0,.38.07.42.08a2.57,2.57,0,0,0,.53.06,3.61,3.61,0,0,0,.62.08,4.48,4.48,0,0,0,.73.06h.37l.41,0h.37a1.92,1.92,0,0,0,.42,0,1.27,1.27,0,0,1,.38,0,1.26,1.26,0,0,0,.38,0l.76-.1c.25-.06.48-.12.71-.16A2.84,2.84,0,0,0,293.63,80.1Zm3.65-13.54a.12.12,0,0,0-.07.07.13.13,0,0,0-.08.1.32.32,0,0,1-.09.14l-.32.33-.45.44a4.14,4.14,0,0,1-.52.42l-.64.49-.36.21-.36.21a2.15,2.15,0,0,0-.41.2,1.15,1.15,0,0,1-.4.16l-.4.18a.47.47,0,0,1-.22.06.48.48,0,0,0-.22.06,5,5,0,0,1-.87.18,2.11,2.11,0,0,1-.42,0,2.23,2.23,0,0,0-.43,0,2.51,2.51,0,0,1-.77,0h-.62l-.5-.1a1.24,1.24,0,0,1-.36,0l-.1,0,.45.09.5.1.3,0,.35,0a2,2,0,0,1,.36,0H291a2.14,2.14,0,0,1,.43,0,2.25,2.25,0,0,0,.43,0l.46-.08a3.67,3.67,0,0,1,.46-.08.47.47,0,0,1,.22-.06.46.46,0,0,0,.22-.06l.41-.18a1,1,0,0,0,.45-.15,2.16,2.16,0,0,1,.41-.2,3.12,3.12,0,0,1,.37-.23,3.09,3.09,0,0,0,.37-.23,1.18,1.18,0,0,1,.32-.24,1.24,1.24,0,0,0,.32-.24l.24-.26a2.36,2.36,0,0,1,.23-.22,2.5,2.5,0,0,0,.4-.45,2.27,2.27,0,0,1,.27-.34Z"/><path d="M317.43,75.4c.15-.1.37,0,.67.28a5,5,0,0,1,.84,1.11,5.57,5.57,0,0,1,.56,1.32c.12.43.07.73-.14.91q-1.33,1.11-3.09,2.7a32,32,0,0,1-3.76,2.93,17,17,0,0,1-4.15,2,7.1,7.1,0,0,1-4.33.05,5.89,5.89,0,0,1-1.8-1A8.39,8.39,0,0,1,300.49,84a8.54,8.54,0,0,1-1.18-2.23,4.06,4.06,0,0,1-.11-2.43,12.37,12.37,0,0,1,1.44-3.1,46.63,46.63,0,0,1,2.78-4.05q1.67-2.19,3.74-4.53t4.29-4.56q2.21-2.23,4.34-4.21c1.42-1.32,2.7-2.48,3.84-3.48s2.07-1.8,2.77-2.42a10.62,10.62,0,0,0,1.09-1q.17-.5.72-.31a2.59,2.59,0,0,1,.64.52,8.51,8.51,0,0,1,1,1.12,7.2,7.2,0,0,1,.79,1.4,1.75,1.75,0,0,1,.12,1.28,5,5,0,0,1-1.19,1.21l-2.77,2.36Q321.08,61,319,62.85t-4.26,3.91q-2.14,2.06-4.22,4.24c-1.38,1.45-2.62,2.86-3.73,4.23a45.92,45.92,0,0,0-2.8,3.84,11.75,11.75,0,0,0-1.5,3.05c-.16.57.12.95.84,1.15a4.71,4.71,0,0,0,2.29.05,10.37,10.37,0,0,0,2.5-.89,19.94,19.94,0,0,0,2.56-1.54q1.28-.9,2.51-1.88t2.33-1.93Zm-14.12-1.15a3.38,3.38,0,0,1-.33.43,2.18,2.18,0,0,0-.24.32.65.65,0,0,0-.18.27q.38-.44.8-1l.91-1.12,1.18-1.45q.38-.4.71-.83c.22-.29.47-.58.73-.87l.8-.89c.27-.3.54-.63.83-1l1.82-2q.93-1,1.91-2t2-2q1-1,2-1.85l1.88-1.71q.91-.81,1.68-1.53t1.46-1.28l1.08-1,1-.88-1,.82L321,55.7l-1.5,1.22-1.75,1.49q-.92.79-1.9,1.68t-2,1.85q-1,1-2,2T310,66q-.91,1-1.78,2l-.8,1-.78.94q-.41.48-.74.91l-.66.84c-.44.55-.81,1-1.13,1.49Zm-.67,6.1a3.05,3.05,0,0,0,.17-.32,1.41,1.41,0,0,1,.22-.35,6.48,6.48,0,0,1,.56-.89l.34-.47q.17-.25.37-.56c.12-.18.25-.36.38-.53l.45-.56q.42-.56.91-1.16l1-1.18q1-1.22,2-2.31l.93-1,.85-.91.73-.77.57-.58a3.65,3.65,0,0,0,.5-.54l-.15.14a.7.7,0,0,0-.13.17.66.66,0,0,1-.2.19c-.31.27-.77.71-1.39,1.32l-.87.91c-.31.32-.63.66-1,1l-1,1.1q-.51.56-1,1.15t-1,1.2q-.48.57-.91,1.18c-.13.21-.26.4-.4.57s-.26.35-.38.53l-.34.57a5.47,5.47,0,0,1-.32.48,4.9,4.9,0,0,0-.29.49,2.26,2.26,0,0,1-.27.4q-.11.2-.18.38a3,3,0,0,0-.12.35,2.39,2.39,0,0,0-.19.49l0,.17,0-.17A2.42,2.42,0,0,1,302.64,80.35ZM320.92,57l.6-.56L322,56a3.82,3.82,0,0,0,.44-.41c-.12.12-.26.24-.42.37a5.39,5.39,0,0,1-.5.41c-.21.16-.43.34-.66.54l-.82.68-.83.72-.89.77a10.73,10.73,0,0,0-.92.86,18.62,18.62,0,0,0-1.74,1.66q-.41.38-.79.77l-.7.7c-.23.24-.41.45-.56.63l-.41.5-.31.27a.3.3,0,0,0-.09.11c.11-.12.24-.25.4-.38s.26-.26.44-.44.39-.38.62-.61a7.74,7.74,0,0,0,.76-.68c.25-.26.51-.51.79-.77q.81-.76,1.74-1.66c.32-.27.63-.54.93-.81s.6-.54.88-.82l.8-.73Q320.52,57.29,320.92,57Z"/><path d="M333.2,81.57q.42-.29.87.15a3.52,3.52,0,0,1,.76,1.16,5,5,0,0,1,.37,1.43c0,.47,0,.77-.25.9-1.14.76-2.45,1.6-3.91,2.52a34.44,34.44,0,0,1-4.53,2.41,20.6,20.6,0,0,1-4.7,1.45,8.43,8.43,0,0,1-4.55-.41,6.89,6.89,0,0,1-1.75-1.07,7.93,7.93,0,0,1-1.78-2,8.32,8.32,0,0,1-1.1-2.91,7.34,7.34,0,0,1,.37-3.7,10.45,10.45,0,0,1,1.5-2.49q1.23-1.65,3-3.68t4-4.23q2.18-2.2,4.33-4.21c-.7-.2-1.37-.42-2-.65L322,65.53a2.91,2.91,0,0,1-1.74-1.28,2.77,2.77,0,0,1-.33-1.57,2.7,2.7,0,0,1,.47-1.3c.26-.36.49-.51.7-.43l1.49.51,2.25.78,2.44.85,2,.69c2.29-2,4.12-3.59,5.43-4.71a12.75,12.75,0,0,0,2.11-2,.6.6,0,0,1,1-.34,4,4,0,0,1,1.3,1.18,8,8,0,0,1,1,1.82,2.08,2.08,0,0,1,.13,1.59,7.39,7.39,0,0,1-1.38,1.18c-.86.65-2.19,1.71-4,3.18q2.52.91,4.56,1.77c1.36.57,2.34,1,3,1.28a4.8,4.8,0,0,1,1.5,1,1.91,1.91,0,0,1,.51.95,1.72,1.72,0,0,1-.12,1c-.13.32-.28.65-.43,1A.65.65,0,0,1,343,73a5.57,5.57,0,0,1-1.23-.43q-2.4-1.12-5.06-2.09t-5.33-1.81q-2.37,2.07-5,4.53T321.66,78a56,56,0,0,0-3.78,4.6,15.6,15.6,0,0,0-2.12,3.67q-.36,1,.24,1.21a7.57,7.57,0,0,0,4.15.22,23.78,23.78,0,0,0,4.63-1.47,41.13,41.13,0,0,0,4.57-2.3C330.83,83.1,332.12,82.31,333.2,81.57Zm-19.71,5a1.38,1.38,0,0,0,.16.43l.09.17a.48.48,0,0,1,0-.16c0-.07,0-.14-.05-.23l-.08-.28a.73.73,0,0,1-.08-.28,1.76,1.76,0,0,0-.07-.33c0-.13,0-.26-.08-.37a3.06,3.06,0,0,1-.06-.42c0-.13,0-.25-.05-.37s0-.23-.06-.37a2.7,2.7,0,0,1-.08-.68c0-.09,0-.18,0-.26a.49.49,0,0,1,0-.2.17.17,0,0,1,0-.14v0l-.06.17a1,1,0,0,0,0,.2c0,.07,0,.17,0,.29a1.42,1.42,0,0,1,0,.29,1,1,0,0,0,0,.35,3.41,3.41,0,0,1,0,.39,3.41,3.41,0,0,0,0,.39q.07.4.17.78A2.93,2.93,0,0,0,313.49,86.59Zm5.73-12.52-1,1.14q-.45.5-.75.9l-.59.77a.52.52,0,0,0,.17-.17,2.31,2.31,0,0,0,.22-.23l.31-.33q.34-.35.79-.84t1-1.08l1.45-1.42L322.63,71q.93-.92,1.9-1.83l1.78-1.68.19-.21.2-.21a1.39,1.39,0,0,1-.42-.11.72.72,0,0,0-.14.14.85.85,0,0,1-.14.14c-.29.26-.62.58-1,.94s-.75.73-1.15,1.1-.78.73-1.14,1.08l-.9.91q-.73.76-1.37,1.47T319.22,74.07ZM319,75.42a1,1,0,0,0,.24-.22,3.5,3.5,0,0,1,.27-.3l.75-.71.39-.4a5.38,5.38,0,0,1,.46-.42l.41-.44.4-.39.37-.4.36-.36.67-.74-.8.64-.36.36-.36.36a3.89,3.89,0,0,1-.43.41,3,3,0,0,0-.44.45l-.8.83-.36.38-.34.34a2.57,2.57,0,0,0-.28.32l-.2.26a1.29,1.29,0,0,1-.19.21Zm12.1-12.69a5.4,5.4,0,0,1-.41.36,1.83,1.83,0,0,0-.23.19l-.24.24-.49.42.36.14.44-.44a1.83,1.83,0,0,0,.21-.23,1.6,1.6,0,0,1,.17-.19l.37-.33q.64-.55,1.14-1a7.65,7.65,0,0,1,.92-.79,3.81,3.81,0,0,0,.3-.28l.21-.22a1.16,1.16,0,0,1,.2-.2,1.4,1.4,0,0,0-.19.16.73.73,0,0,0-.28.17l-.33.29c-.29.23-.61.49-.95.78S331.52,62.38,331.06,62.74Z"/><path d="M344.74,87c.16-.08.36,0,.61.19A2.61,2.61,0,0,1,346,88a4.08,4.08,0,0,1,.34,1.3,2.3,2.3,0,0,1-.26,1.36,4.31,4.31,0,0,1-1.22,1.14,22.57,22.57,0,0,1-2.47,1.5q-1.48.79-3.26,1.53a23.82,23.82,0,0,1-3.61,1.18,17.36,17.36,0,0,1-3.57.49,7,7,0,0,1-3.14-.59,4.2,4.2,0,0,1-1.11-.89,9.38,9.38,0,0,1-1.25-1.61,9,9,0,0,1-.91-1.9,2.46,2.46,0,0,1,0-1.78,9.75,9.75,0,0,1,1.56-2.3,36.82,36.82,0,0,1,2.83-2.95q1.64-1.54,3.46-3.09t3.4-2.76c1-.81,2-1.47,2.7-2s1.18-.78,1.28-.83c.28-.09.57,0,.86.41a4.59,4.59,0,0,1,.71,1.34,7.25,7.25,0,0,1,.37,1.59,2.3,2.3,0,0,1-.13,1.23,7.6,7.6,0,0,1-1.18,1q-1.1.86-2.65,2t-3.27,2.56q-1.72,1.38-3.1,2.59a29.83,29.83,0,0,0-2.16,2.06c-.53.57-.68.9-.47,1a6.44,6.44,0,0,0,3.77.45A17.53,17.53,0,0,0,337.56,91a33.07,33.07,0,0,0,3.93-2C342.75,88.23,343.84,87.56,344.74,87Zm-17.59,1.4a7.28,7.28,0,0,1,.57-.57l.65-.63.85-.83a6.1,6.1,0,0,1,.49-.48,4.66,4.66,0,0,0,.51-.52l.56-.52a6.93,6.93,0,0,1,.61-.5c.39-.37.8-.75,1.23-1.14s.88-.76,1.35-1.13l1.32-1.14q.66-.57,1.31-1.09c.22-.15.39-.27.48-.36l.25-.22.22-.22a3.65,3.65,0,0,1,.39-.33c.37-.28.68-.54.95-.77l.69-.6a2.39,2.39,0,0,0,.28-.21L340,77l.19-.15,0,0-.69.45q-.34.23-.76.57t-1,.72L335.84,80q-.85.65-2.16,1.8t-2.56,2.28q-1.2,1.15-2.12,2.14l-.79.88c-.24.26-.44.49-.59.68a.93.93,0,0,0-.23.28.44.44,0,0,1-.13.18A.64.64,0,0,0,327.14,88.37ZM331,85.48l.38-.41c.11-.11.22-.22.34-.33a1.36,1.36,0,0,0,.3-.3,1.51,1.51,0,0,1-.28.26l-.38.29a3.84,3.84,0,0,0-.43.41c-.35.29-.71.61-1.09,1l-1.18,1.21-.59.61a7.06,7.06,0,0,0-.54.63l-.46.57a5.55,5.55,0,0,0-.41.59,1.83,1.83,0,0,0-.31.47l-.18.42a.34.34,0,0,0,0,.28.12.12,0,0,0,0,.1.13.13,0,0,1,0-.1s0-.13.06-.26a4.49,4.49,0,0,1,.53-.87l.44-.53.46-.57,1.18-1.21a7.31,7.31,0,0,1,.55-.63l.58-.56c.2-.2.39-.38.57-.54A6.32,6.32,0,0,0,331,85.48Zm14.91-9.16a1.26,1.26,0,0,1-.48-.58,7.54,7.54,0,0,1-.42-1,5.11,5.11,0,0,1-.25-1.07,2.6,2.6,0,0,1,0-.74,4.5,4.5,0,0,1,.88-.92,16.67,16.67,0,0,1,1.75-1.35,15,15,0,0,1,1.94-1.12c.64-.3,1.08-.39,1.31-.28a2,2,0,0,1,.77.93,9.36,9.36,0,0,1,.6,1.51,13.94,13.94,0,0,1,.35,1.47,1.8,1.8,0,0,1,0,.84,3.05,3.05,0,0,1-1,.57q-.91.42-2.06.84t-2.16.72A2.39,2.39,0,0,1,345.88,76.32Zm-8.69,16.82.43-.13.51-.19a4.08,4.08,0,0,0,.51-.24,4.1,4.1,0,0,1,.51-.23,4.13,4.13,0,0,0,.51-.23l.47-.25.47-.25.41-.24.32-.23a.71.71,0,0,1,.28-.15l.19-.15-.24.13a1.19,1.19,0,0,0-.29.12l-.33.2a9.12,9.12,0,0,0-.9.43l-.47.26a4.07,4.07,0,0,1-.51.23,4,4,0,0,0-.51.23,4.24,4.24,0,0,1-.51.24,2.79,2.79,0,0,1-.47.21l-.45.17-.64.27a.55.55,0,0,1-.26.07l.26-.07A2,2,0,0,0,337.19,93.14Zm5.76-2.39.34-.27a1.43,1.43,0,0,1,.3-.19l.26-.16-.26.16-.34.15a1.72,1.72,0,0,0-.38.22,2.79,2.79,0,0,1-.46.28,5.08,5.08,0,0,0-.53.3l-.54.32-.6.33-1.15.59a4,4,0,0,1-.51.28l-.49.24-.41.21-.31.12a.71.71,0,0,1-.21.09l-.06,0,.06,0h.09l.15,0a1.82,1.82,0,0,1,.34-.12,1.85,1.85,0,0,0,.43-.18l.49-.24.54-.22,1.16-.59.6-.33.54-.32.51-.33Z"/><path d="M364,98.56c.15,0,.29.1.4.4a4.58,4.58,0,0,1,.24,1.06,7,7,0,0,1,0,1.22,1.81,1.81,0,0,1-.23.9,3.34,3.34,0,0,1-1.51.73,29.28,29.28,0,0,1-3.19.77c-1.27.25-2.69.44-4.24.59a40.46,40.46,0,0,1-4.75.18A31.33,31.33,0,0,1,346,104a12.93,12.93,0,0,1-4.09-1.4,5.56,5.56,0,0,1-2-2,11.71,11.71,0,0,1-1.28-2.83,11.86,11.86,0,0,1-.51-2.92,4.69,4.69,0,0,1,.35-2.26,9.7,9.7,0,0,1,2.25-2.83,20.46,20.46,0,0,1,3.49-2.51,25.45,25.45,0,0,1,4.24-1.94,26.54,26.54,0,0,1,4.46-1.17,17.56,17.56,0,0,1,4.08-.23,6.89,6.89,0,0,1,3.08.84,5,5,0,0,1,1.71,1.7,7.16,7.16,0,0,1,.92,2.27,6.8,6.8,0,0,1,.09,2.37,5,5,0,0,1-.71,2,5.68,5.68,0,0,1-1.55,1.54,12.34,12.34,0,0,1-2.14,1.22,12.16,12.16,0,0,1-2,.72,1.87,1.87,0,0,1-1.29,0,1.82,1.82,0,0,1-.44-.47,2.44,2.44,0,0,1,.45,0l.44-.12.42-.08a2.34,2.34,0,0,1,.37-.16l.35-.12a1.33,1.33,0,0,0,.26-.12.58.58,0,0,1,.24-.09l.18-.09s-.05,0-.07,0l-.08,0-.08,0a.71.71,0,0,1-.23.07,1.5,1.5,0,0,0-.29.08,2.73,2.73,0,0,1-.72.18,3.21,3.21,0,0,1-.43.1,3,3,0,0,0-.43.1l-.24,0-.24,0a3.63,3.63,0,0,1-.44-1.39,1.86,1.86,0,0,1,.09-1.07,2.21,2.21,0,0,1,1-.6q.85-.34,1.87-.8t2-1a3.58,3.58,0,0,0,1.4-1.2,3.39,3.39,0,0,0,.22-.46q.13-.31-.52-.71a5.57,5.57,0,0,0-2.59-.69,14,14,0,0,0-3.46.26,22.3,22.3,0,0,0-3.76,1.09,23.19,23.19,0,0,0-3.62,1.76,19.08,19.08,0,0,0-3,2.24,9.33,9.33,0,0,0-2,2.5,3.51,3.51,0,0,0-.45,1.87c0,.6.52,1.14,1.45,1.65a10.22,10.22,0,0,0,3.69,1.13,25.88,25.88,0,0,0,4.32.16,38.61,38.61,0,0,0,4.44-.45c1.48-.24,2.83-.47,4.06-.71s2.28-.45,3.14-.65S363.74,98.59,364,98.56Zm-20.22-8.14.58-.44q.28-.2.49-.38a3.31,3.31,0,0,1,.43-.32l.39-.24a1.57,1.57,0,0,0,.3-.24.12.12,0,0,1-.09.05.28.28,0,0,0-.12.06l-.14.1a3.21,3.21,0,0,0-.37.2l-.48.29-.54.36-.63.42q-.6.48-1.17,1a3,3,0,0,0-.32.28l-.27.3a2.75,2.75,0,0,0-.23.28c-.07.1-.15.2-.25.32a3.32,3.32,0,0,0-.41.58l-.3.59a4.09,4.09,0,0,0-.33.87.44.44,0,0,0,0,.15.34.34,0,0,1,0,.11.12.12,0,0,0,0,.1.12.12,0,0,1,0-.1l.12-.23a5.27,5.27,0,0,1,.38-.84q.33-.52.78-1.13a9.4,9.4,0,0,1,1-1.15,4.54,4.54,0,0,1,.58-.51Zm1.8-3c-.07.06,0,.05.13,0l.59-.28.72-.34a2.57,2.57,0,0,1,.5-.21l.48-.22a3.63,3.63,0,0,0,.41-.2,7.5,7.5,0,0,0,.71-.31.61.61,0,0,0,.23-.1l.19-.12a.49.49,0,0,1,.16-.06.49.49,0,0,0-.16.06l-.2.09-.25.07-.77.26a9.35,9.35,0,0,0-.9.39,4.25,4.25,0,0,0-.53.21,4,4,0,0,1-.53.22Zm10.79,13.07.25-.05.2-.08a.5.5,0,0,1,.16-.06l-.6.09-.71.12a8.65,8.65,0,0,1-.89.12l-1.11.14-1.19.1a3.07,3.07,0,0,1-.65,0,5.62,5.62,0,0,0-.69,0l-.63,0h-.68a7.93,7.93,0,0,1-1.33,0l-.68,0-.66-.05a7.8,7.8,0,0,1-1.21-.19.46.46,0,0,1-.27,0,.47.47,0,0,0-.27,0l-.27-.08-.27-.08a5.3,5.3,0,0,1-.89-.24,1.31,1.31,0,0,1-.41-.13,1.17,1.17,0,0,0-.3-.12.94.94,0,0,1-.26-.09l-.19-.11-.13-.07.17.1.39.21.3.17a1.81,1.81,0,0,0,.37.15l.44.17a2,2,0,0,0,.46.13,1.36,1.36,0,0,0,.54.15l.54.15a.83.83,0,0,1,.31.05.81.81,0,0,0,.31.05,3.54,3.54,0,0,0,.63.11l.65.07a5.83,5.83,0,0,0,.67,0,11.61,11.61,0,0,0,1.37,0,18.21,18.21,0,0,0,2.69-.17l1.2-.16,1.1-.17q.53-.08.89-.17ZM358,95.37l-.51.22a3.42,3.42,0,0,1-.49.19l-.79.29-.29.08a1,1,0,0,1,.29-.08l.34-.05a1.91,1.91,0,0,0,.45-.13,8.54,8.54,0,0,0,1.09-.36l.61-.24a4.74,4.74,0,0,0,.59-.3c.2-.12.38-.23.53-.34s.38-.23.53-.34a1.49,1.49,0,0,0,.22-.2,1.41,1.41,0,0,1,.22-.2l.2-.16a1,1,0,0,0,.15-.19,1.58,1.58,0,0,0,.28-.34l.16-.26.16-.26-.16.26a.65.65,0,0,0-.21.23.36.36,0,0,0-.15.14.66.66,0,0,1-.18.18.64.64,0,0,1-.16.16l-.23.17-.42.36a.59.59,0,0,0-.25.15,1,1,0,0,1-.28.19l-.55.28A5.36,5.36,0,0,1,358,95.37Z"/><path d="M383.33,113.34a.75.75,0,0,1,1,.29,2.91,2.91,0,0,1,.44,1.31,3.5,3.5,0,0,1-.16,1.5,1.32,1.32,0,0,1-.76.91,34.22,34.22,0,0,1-4.67,1.09,27.88,27.88,0,0,1-5.67.35,26.07,26.07,0,0,1-6.13-1,20.07,20.07,0,0,1-6.15-3l-.58-.34-.56-.37a5.74,5.74,0,0,1-1.76-1.85,4.72,4.72,0,0,1-.36-3.94,5,5,0,0,1,.9-1.62,4.42,4.42,0,0,1,1-.95,1.84,1.84,0,0,1,.78-.29.64.64,0,0,1,.46.1c.09.08.11.16.06.23a2.63,2.63,0,0,0-.67,2,3.85,3.85,0,0,0,.87,1.94,8.48,8.48,0,0,0,1.9,1.7,10.78,10.78,0,0,0,2.32,1.2,7.12,7.12,0,0,0,2.2.46,2,2,0,0,0,1.59-.53c.27-.31.24-.76-.11-1.35a15.35,15.35,0,0,0-1.51-2.05q-1-1.16-2.13-2.49a18.35,18.35,0,0,1-2-2.72,7,7,0,0,1-1-2.76,3.47,3.47,0,0,1,.87-2.64,5.65,5.65,0,0,1,2.46-1.71,11.37,11.37,0,0,1,3.3-.65,18.54,18.54,0,0,1,3.69.18,23.38,23.38,0,0,1,3.65.83,26.23,26.23,0,0,1,3.13,1.19A11.15,11.15,0,0,1,382,99.6a2.51,2.51,0,0,1,1,1.39,3.72,3.72,0,0,1,0,1.64,5.49,5.49,0,0,1-.6,1.6,6.36,6.36,0,0,1-.88,1.23,4.07,4.07,0,0,1-1.32.86,12.15,12.15,0,0,1-1.74.61,11.71,11.71,0,0,1-1.55.31,1.53,1.53,0,0,1-.81,0l-.62-.48a10.25,10.25,0,0,1-.85-.74,4.26,4.26,0,0,1-.67-.81c-.17-.28-.18-.49,0-.63a3.06,3.06,0,0,1,.9-.48l1.44-.56,1.45-.55a3.1,3.1,0,0,0,.91-.46q.11-.14-.61-.52a12.13,12.13,0,0,0-1.93-.78c-.81-.26-1.72-.51-2.72-.73a19.17,19.17,0,0,0-2.93-.44,12.62,12.62,0,0,0-2.58.06,2.42,2.42,0,0,0-1.65.78c0,.07.13.34.54.8l1.52,1.75q.91,1.05,1.89,2.4a19.17,19.17,0,0,1,1.66,2.72,8.19,8.19,0,0,1,.83,2.63,2.82,2.82,0,0,1-.56,2.16q-.3.38-.56.68c-.18.2-.35.38-.52.54a23.07,23.07,0,0,0,6.86.08A26.09,26.09,0,0,0,383.33,113.34ZM365.92,97.49l.53-.2a3.24,3.24,0,0,1,.57-.17l1.32-.21a10.07,10.07,0,0,1,1.47-.08l1.54,0a21.89,21.89,0,0,1,3.08.37c1,.19,1.91.4,2.69.61l1.11.33c.32.1.59.19.81.28a1,1,0,0,1,.31.1l.24.1.13.1s.05,0,.07,0l0,0-.08,0a.14.14,0,0,1-.08,0,4.54,4.54,0,0,1-.53-.23c-.24-.11-.52-.22-.84-.33l-1.1-.35-1.28-.37a10.9,10.9,0,0,0-1.4-.29q-.79-.14-1.57-.23t-1.54-.15a15.49,15.49,0,0,0-3,.08,4.76,4.76,0,0,0-.7.11l-.65.14a3.17,3.17,0,0,0-.57.17l-.53.2a2.29,2.29,0,0,0-.82.45l-.35.24a.43.43,0,0,1-.11.11.39.39,0,0,0-.11.11,2.08,2.08,0,0,0-.31.37l-.07.11.07-.11a.85.85,0,0,1,.13-.15l.23-.19a.8.8,0,0,1,.22-.23l.33-.2a1.54,1.54,0,0,1,.4-.21A2.91,2.91,0,0,1,365.92,97.49Zm.53.36.64-.12.71-.13c.25,0,.49-.07.72-.09a6.08,6.08,0,0,0,.65-.08,2.2,2.2,0,0,1,.44-.07h.21l-.18,0-.24,0h-.27l-1.39.11a4.61,4.61,0,0,0-1.31.38l-.42.14a.3.3,0,0,0-.12.08s.05,0,.07,0l.09,0c.09,0,.15,0,.16,0l.12,0Zm.41,15.62a.81.81,0,0,0,.24,0,.16.16,0,0,1,.11,0l-.32-.08-.4-.14a2.14,2.14,0,0,1-.47-.13l-.58-.24-.62-.27-.66-.38-.67-.37-.61-.44a1.44,1.44,0,0,1-.58-.41,2.9,2.9,0,0,1-.3-.24l-.26-.21a1.1,1.1,0,0,0-.22-.21,1.08,1.08,0,0,1-.22-.21,1,1,0,0,0-.2-.19.56.56,0,0,1-.16-.17c-.13-.16-.22-.28-.26-.34l-.17-.28,0,.06a1.26,1.26,0,0,0,.13.25l.11.16.11.15a1,1,0,0,0,.17.2,1.05,1.05,0,0,1,.17.2l.46.48a1.18,1.18,0,0,0,.24.22,1.2,1.2,0,0,1,.24.23l.62.44.61.44.69.39a5.92,5.92,0,0,0,.67.33l.34.14.34.14a2.14,2.14,0,0,0,.55.19l.28.1.24.07Z"/></svg>