<svg id="Raptors" xmlns="http://www.w3.org/2000/svg" viewBox="0 0 512 512"><defs><style>.cls-1{opacity:0.5;}.cls-2{fill:#fff;}.cls-3{fill:#841717;}.cls-4{fill:#cc8217;}</style></defs><title>Raptors</title><g class="cls-1"><ellipse class="cls-2" cx="256" cy="256" rx="242.51" ry="244.7"/><path class="cls-3" d="M256,503.34c-65.48,0-127-25.73-173.35-72.45a248.9,248.9,0,0,1,0-349.77C129,34.4,190.52,8.67,256,8.67S383,34.4,429.35,81.12a248.9,248.9,0,0,1,0,349.77C383,477.61,321.48,503.34,256,503.34Zm0-489.4A237.21,237.21,0,0,0,86.4,84.83a243.63,243.63,0,0,0,0,342.35,238.34,238.34,0,0,0,339.21,0,243.63,243.63,0,0,0,0-342.35A237.21,237.21,0,0,0,256,13.94Z"/></g><g class="cls-1"><ellipse class="cls-2" cx="254.73" cy="256.04" rx="169.5" ry="169.09"/><path class="cls-3" d="M254.73,427.15c-94.58,0-171.52-76.76-171.52-171.11S160.15,84.92,254.73,84.92,426.25,161.68,426.25,256,349.31,427.15,254.73,427.15Zm0-338.19C162.38,89,87.25,163.91,87.25,256s75.13,167.07,167.48,167.07S422.21,348.16,422.21,256,347.08,89,254.73,89Z"/></g><g class="cls-1"><ellipse class="cls-4" cx="251.5" cy="257.13" rx="147.98" ry="153.11"/><path class="cls-3" d="M251.5,410.54c-81.76,0-148.27-68.82-148.27-153.4s66.51-153.4,148.27-153.4,148.27,68.82,148.27,153.4S333.26,410.54,251.5,410.54Zm0-306.22c-81.43,0-147.69,68.55-147.69,152.82S170.06,409.95,251.5,409.95,399.18,341.4,399.18,257.13,332.93,104.31,251.5,104.31Z"/></g><rect class="cls-3" x="103.52" y="255.08" width="295.96" height="4.1"/><rect class="cls-3" x="252.01" y="105.22" width="2.34" height="306.22"/><path class="cls-3" d="M353.24,370.86c-33.37-9.38-57.17-47.89-60.62-98.13-1.82-26.4,2.52-53,12.23-74.84,10.9-24.56,28.14-42.54,49.85-52l1.17,2.68c-21,9.17-37.74,26.64-48.34,50.52-9.51,21.43-13.77,47.52-12,73.45,3.37,49,26.33,86.47,58.49,95.51Z"/><path class="cls-3" d="M150.13,370.86l-.79-2.82c32.16-9,55.12-46.53,58.49-95.51,1.79-25.93-2.47-52-12-73.45-10.6-23.88-27.31-41.35-48.34-50.52l1.17-2.68c21.71,9.47,38.95,27.46,49.85,52,9.7,21.86,14,48.44,12.23,74.84C207.29,323,183.5,361.49,150.13,370.86Z"/><path d="M118.47,92.87l-2,1.47A4.65,4.65,0,0,0,117,94l.63-.43c.26-.17.55-.37.88-.6s.65-.41,1-.65.71-.49,1.1-.72.8-.55,1.21-.82l1.21-.81q.65-.45,1.27-.84l1.17-.76,2.12-1.4.46-.3a6.53,6.53,0,0,1,.34.91,4.92,4.92,0,0,1,.19,1,4.22,4.22,0,0,1,0,.9.73.73,0,0,1-.26.54l-1.19.76-2.55,1.64q-1.56,1-3.53,2.35t-4.11,2.92c.06.76.17,1.84.35,3.24s.4,3,.68,4.75.59,3.65.93,5.66.71,4,1.1,6,.78,3.86,1.17,5.66.75,3.39,1.06,4.76.58,2.48.78,3.3.3,1.26.29,1.31-.31.27-.87.39a14.9,14.9,0,0,1-1.75.29c-.61.07-1.17.12-1.67.15s-.73,0-.69-.12a8.89,8.89,0,0,0-.37-1.75c-.28-1.1-.64-2.53-1.08-4.29s-.92-3.76-1.45-6-1-4.49-1.48-6.81-.88-4.59-1.25-6.81-.64-4.18-.83-5.88q-1.73,1.34-3.32,2.71t-3,2.69l-1.62,1.68a11.13,11.13,0,0,1-1.28,1.18,2.11,2.11,0,0,1-1.05.47,1.14,1.14,0,0,1-.95-.49,4.59,4.59,0,0,0-.86-.8l-.68-.45a1.3,1.3,0,0,1-.39-.36q-.11-.17.06-.55a13.22,13.22,0,0,1,1.12-1.08c.71-.64,1.63-1.46,2.78-2.44s2.49-2.08,4-3.31,3.11-2.46,4.74-3.7a2,2,0,0,0,0-.46c0-.17.4-.29,1.12-.36q2.7-2,5.38-3.93T122.63,89c1.42-1,2.57-1.7,3.46-2.27a14.4,14.4,0,0,1,1.46-.88c.15,0,.33.24.53.7l-.27.15-.27.15-1,.63q-.54.33-1.15.74c-.39.22-.78.47-1.18.74s-.83.55-1.28.82l-1.2.83q-.6.42-1.22.8Zm-.87,29.7q-.12-.58-.26-1.1a4.4,4.4,0,0,1-.08-.45l0,.42c0,.14,0,.31.09.5l.13.64a9.68,9.68,0,0,0,.26,1.62l.17.89c.06.3.11.62.16,1s.12.6.19.91.13.61.19.91.12.57.19.82.13.49.18.72a5.79,5.79,0,0,1,.14.63,5,5,0,0,0,.1.49l.13.41a.94.94,0,0,1-.06-.41q0-.2-.09-.48c0-.18-.07-.41-.12-.68l-.16-.73-.17-.84a6.23,6.23,0,0,0-.15-.91,8.43,8.43,0,0,1-.18-.94c-.06-.3-.12-.6-.18-.91s-.13-.61-.18-.91-.11-.57-.18-.83S117.64,122.8,117.59,122.57Zm-2.12-8.72a8.35,8.35,0,0,0-.19-1,7.74,7.74,0,0,1-.17-.77c0-.23-.06-.45-.08-.67a3,3,0,0,1,.08.67q.07.74.24,1.78l.16,1.17q.08.61.21,1.31c.08.46.15.93.22,1.41s.15,1,.26,1.44.13,1,.21,1.42l.26,1.38q.13.69.27,1.29c.09.4.17.79.23,1.15s.12.69.17,1a4,4,0,0,0,.19.74,1.91,1.91,0,0,0,.19.65,2.89,2.89,0,0,1-.12-.65c0-.21-.07-.46-.13-.76s-.12-.63-.18-1-.13-.75-.2-1.15-.15-.83-.24-1.29-.17-.93-.26-1.42-.16-1-.25-1.42-.13-1-.22-1.44-.18-.94-.26-1.41-.16-.89-.23-1.29S115.53,114.22,115.48,113.85Z"/><path d="M148.17,92.3c0-.32.26-.54.68-.64a4,4,0,0,1,1.35-.08,5.61,5.61,0,0,1,1.32.29c.4.15.6.3.61.46a34.56,34.56,0,0,1-.1,3.86,20.49,20.49,0,0,1-.92,4.63,18.38,18.38,0,0,1-2.27,4.68,14,14,0,0,1-4.19,4l-.43.28a3.32,3.32,0,0,1-.45.24q-.28,1.65-.71,3.19a19.52,19.52,0,0,1-1,2.88,13.47,13.47,0,0,1-1.4,2.42,7.89,7.89,0,0,1-1.79,1.79,5.5,5.5,0,0,1-1.69.65,11.75,11.75,0,0,1-2.7.34,10.31,10.31,0,0,1-2.88-.35,4.05,4.05,0,0,1-2.25-1.49,6.86,6.86,0,0,1-1.09-2.4,17.46,17.46,0,0,1-.52-3.2,22.18,22.18,0,0,1,0-3.52,28.79,28.79,0,0,1,.47-3.32l-.49-.68a3.87,3.87,0,0,1-.55-2.76,12,12,0,0,1,1-3.54,16.8,16.8,0,0,1,2.06-3.45,10.62,10.62,0,0,1,2.54-2.47,4.28,4.28,0,0,1,1.92-.53,7.37,7.37,0,0,1,2.69.29,10.4,10.4,0,0,1,2.83,1.34,8,8,0,0,1,2.4,2.54,9.87,9.87,0,0,1,1.21,3.46,23.94,23.94,0,0,1,.33,4.48,8.48,8.48,0,0,0,2.12-3,17.39,17.39,0,0,0,1.13-3.63,29.57,29.57,0,0,0,.49-3.68Q148,93.61,148.17,92.3Zm-15.86,25.58a1143.73,1143.73,0,0,0-.29-.77,3.54,3.54,0,0,0-.12-.49,3.78,3.78,0,0,1-.12-.49,2.91,2.91,0,0,1-.19-1,4.47,4.47,0,0,1-.05-.45q0-.21-.05-.45a1,1,0,0,0-.07-.33.37.37,0,0,1,0-.26.54.54,0,0,1,0-.28,2.09,2.09,0,0,1,0,.28.86.86,0,0,0,0,.29,2.44,2.44,0,0,1,0,.33,4.59,4.59,0,0,0,.06.93c0,.16,0,.33.06.5s0,.34.06.5a2,2,0,0,0,.15.49,2,2,0,0,1,.15.49,1.22,1.22,0,0,0,.17.42.8.8,0,0,1,.1.18.84.84,0,0,0,.1.18,1.58,1.58,0,0,0,.16.32l.16.21.13.18,0,0a.08.08,0,0,1,0-.07s0-.06,0-.1a1.28,1.28,0,0,1-.13-.23Zm.4-.19-.16-.4a2.35,2.35,0,0,1-.11-.43,6.4,6.4,0,0,1-.19-1l0-.62a2.54,2.54,0,0,1-.09-.59c0-.21,0-.42,0-.64s0-.43,0-.64q0-.67.06-1.34c0-.23,0-.45.07-.67s.06-.43.1-.63l-.36-.23-.06.2c0,.23,0,.45-.07.67a5.74,5.74,0,0,0,0,.71q0,.67-.06,1.34c0,.25,0,.48,0,.69l0,.62a2,2,0,0,0,0,.35l.07.28a.61.61,0,0,0,0,.29.61.61,0,0,1,0,.29c0,.19.09.36.14.52a3.61,3.61,0,0,1,.12.49c0,.12.08.27.13.45a1.08,1.08,0,0,1,.11.19,1.13,1.13,0,0,0,.11.19,3.08,3.08,0,0,0,.3.6.39.39,0,0,0,.12.21.83.83,0,0,1,.14.14l.08.11-.08-.11a1.26,1.26,0,0,0-.22-.39,1.36,1.36,0,0,0-.1-.28A1.49,1.49,0,0,1,132.72,117.69Zm1.47,1.37a9.68,9.68,0,0,0,2.68-3,16.94,16.94,0,0,0,1.67-4.07,8.83,8.83,0,0,1-3.17,0,9.7,9.7,0,0,1-2.66-.95,16.22,16.22,0,0,0,0,4.23A8.07,8.07,0,0,0,134.19,119.06Zm-1.09-10.23a3.09,3.09,0,0,0,2.19,1.5,6.24,6.24,0,0,0,3.83-.93,32.36,32.36,0,0,0,.4-3.85,25,25,0,0,0-.09-3.68,20.74,20.74,0,0,0-.57-3.21,8.85,8.85,0,0,0-1-2.43.9.9,0,0,0-1.41-.3A7.15,7.15,0,0,0,134,98.81a16,16,0,0,0-1.43,4.19,4.62,4.62,0,0,1,1.48.56q.59.37.48.71c-.09.2-.29.72-.59,1.54A24.83,24.83,0,0,0,133.1,108.83Zm5.63,3.8a1.36,1.36,0,0,0,.12-.35c0-.12.06-.25.1-.39,0,0,0,0-.06,0s0,0-.06,0l-.22.74a3.34,3.34,0,0,0-.18.55,2.63,2.63,0,0,1-.16.48,3.22,3.22,0,0,1-.17.47,2.34,2.34,0,0,0-.13.33,2.6,2.6,0,0,1-.11.32,1.82,1.82,0,0,0-.09.25.32.32,0,0,1-.08.16l.31-.7a3.68,3.68,0,0,0,.16-.38c.05-.14.12-.29.18-.45s.13-.31.2-.48S138.66,112.85,138.73,112.63Zm-6.11-5.07a1.73,1.73,0,0,0,.07.25,1.85,1.85,0,0,1,.07.25q.06-.31.12-.57T133,107l.16-.51a3.6,3.6,0,0,0,.12-.48l.22-.68.22-.68a.67.67,0,0,1-.09.17,1.65,1.65,0,0,0-.12.22,2.09,2.09,0,0,0-.1.25q-.11.34-.27.75t-.34,1ZM128.85,101c0,.14-.09.26-.14.36a2.92,2.92,0,0,0-.11.29l-.07.21,0,0,.07-.21a3.08,3.08,0,0,1,.11-.29c0-.1.1-.21.16-.33l.2-.38c.07-.14.16-.3.27-.48s.15-.31.21-.46a2,2,0,0,1,.28-.46c.11-.18.21-.35.28-.51a3.36,3.36,0,0,1,.26-.44,2.76,2.76,0,0,0,.3-.44,3.75,3.75,0,0,1,.25-.41q.29-.4.39-.57l.14-.2,0,0-.19.23c-.08.09-.22.27-.41.54l-.59.85q-.3.44-.58,1a9.46,9.46,0,0,0-.48.94Zm0-1c0,.07-.07.11-.06.12s0,0,0,.09l0,.07a3.07,3.07,0,0,0,.16-.27,1.18,1.18,0,0,1,.15-.29,3.06,3.06,0,0,0,.22-.39,2.6,2.6,0,0,0,.31-.48q.12-.24.28-.51a.81.81,0,0,1,.17-.27.79.79,0,0,0,.17-.27,1.12,1.12,0,0,1,.2-.27,1.09,1.09,0,0,0,.2-.27c.06-.11.19-.31.39-.58a4.84,4.84,0,0,0,.36-.51c.13-.16.26-.31.4-.45a3.94,3.94,0,0,0,.35-.42,2.44,2.44,0,0,1,.34-.33.6.6,0,0,1,.15-.15.59.59,0,0,0,.15-.15l.2-.13s0,0,0-.07l-.29.19-.29.19a2.31,2.31,0,0,0-.42.33,4.46,4.46,0,0,0-.44.4,1.32,1.32,0,0,1-.21.22,1.36,1.36,0,0,0-.21.22c-.16.18-.31.36-.45.54l-.42.58-.36.56a4.43,4.43,0,0,0-.33.6,5.9,5.9,0,0,0-.45,1A3.23,3.23,0,0,0,128.81,100Zm11.25,4.47c0-.14,0-.27,0-.38s0-.24,0-.38,0-.49,0-.71,0-.45,0-.68a2.88,2.88,0,0,1-.07-.63,3.68,3.68,0,0,0,0-.6c-.16-.73-.27-1.34-.35-1.81a2.4,2.4,0,0,1-.09-.46.33.33,0,0,0,0-.18.33.33,0,0,1,0,.18c0,.07,0,.15,0,.23s0,.17,0,.26.09.48.14.8a10.28,10.28,0,0,1,.09,1q0,.28.07.58t0,.65c0,.23,0,.46,0,.68s0,.46,0,.71a5.89,5.89,0,0,1,0,.73c0,.14,0,.27,0,.38a1.72,1.72,0,0,1,0,.35c0,.3-.05.57-.07.81a7.7,7.7,0,0,0,0,.78c0,.27-.08.53-.11.78s-.07.51-.11.78a1.23,1.23,0,0,1-.06.41,1.22,1.22,0,0,0-.06.41l.18-.12.12-.71c0-.27.08-.53.11-.78s.07-.51.11-.78L140,106c0-.24,0-.5,0-.78s0-.26,0-.36S140.06,104.65,140.06,104.51Zm.2-3.94c-.06-.24-.11-.47-.15-.71s-.09-.47-.15-.71-.13-.47-.2-.68-.14-.42-.22-.61a3.15,3.15,0,0,0-.23-.63,4.72,4.72,0,0,1-.23-.53l-.44-.71-.19-.3,0,.07a.3.3,0,0,1,0,.11.37.37,0,0,0,.06.15,3,3,0,0,1,.16.31q.09.2.18.46a4.9,4.9,0,0,0,.22.51,3.14,3.14,0,0,1,.22.61c.06.24.12.46.18.66s.12.42.18.66l.17.7q.08.34.17.7c0,.21.08.43.11.64s0,.4.06.56l.08.49a1.32,1.32,0,0,1,0,.38.59.59,0,0,0,.07.21.12.12,0,0,1,0,.1v-.31a2.17,2.17,0,0,0,0-.4,4.85,4.85,0,0,0-.06-.51q0-.24,0-.58A3.58,3.58,0,0,0,140.26,100.57Z"/><path d="M166.27,87.28a1.09,1.09,0,0,1,.79-.79,3.53,3.53,0,0,1,2.79.2.89.89,0,0,1,.55.88,18.77,18.77,0,0,1-.33,1.89c-.18.89-.44,1.94-.77,3.13s-.71,2.46-1.14,3.79a36.48,36.48,0,0,1-1.45,3.79,22.93,22.93,0,0,1-1.72,3.18,5.76,5.76,0,0,1-2,2,3.9,3.9,0,0,1-1.13.26,7.09,7.09,0,0,1-3.94-.68,3.79,3.79,0,0,1-1.63-1.6,8.48,8.48,0,0,1-1-3.52,34.47,34.47,0,0,1-.08-4.15q.08-2.07.17-3.79a5,5,0,0,0-.28-2.42c-.06-.1-.4-.13-1-.07a12.86,12.86,0,0,0-1.74.27c-.1,1.22-.2,2.6-.29,4.12s-.16,2.89-.22,4.11a.77.77,0,0,1-.66.84,3.21,3.21,0,0,1-1.39-.09,4,4,0,0,1-1.37-.65,1.1,1.1,0,0,1-.58-.93q0-1.53,0-3.26t.1-3.3q-1,.14-2.07.18a7.25,7.25,0,0,1-2-.18,5.59,5.59,0,0,1-1.74-.73,4.28,4.28,0,0,1-1.37-1.46,6.94,6.94,0,0,1-.87-2.78,16.1,16.1,0,0,1,0-3.46,21.9,21.9,0,0,1,.69-3.65A27.26,27.26,0,0,1,141.75,75a17.51,17.51,0,0,1,1.34-2.6,4,4,0,0,1,1.29-1.4,5.28,5.28,0,0,1,1.85-.49,11.89,11.89,0,0,1,2.46,0,8,8,0,0,1,2.32.56,2.75,2.75,0,0,1,1.48,1.27,6.07,6.07,0,0,1,.43,2.1c.08,1,.11,2.16.1,3.55s-.06,2.93-.15,4.61-.22,3.46-.38,5.31q1-.19,2.16-.34a15.55,15.55,0,0,1,2.23-.13,6.35,6.35,0,0,1,1.85.28,1.77,1.77,0,0,1,1.09.85,4.46,4.46,0,0,1,.22,1.64q0,1.25,0,2.84t0,3.34q0,1.75.06,3.15a15.62,15.62,0,0,0,.26,2.23c.12.55.32.75.6.6a4.07,4.07,0,0,0,1.47-1.58,16.71,16.71,0,0,0,1.24-2.68,31.66,31.66,0,0,0,1-3.24q.43-1.72.77-3.25t.56-2.72C166.11,88.15,166.21,87.59,166.27,87.28ZM141,80.9c0-.19.05-.37.07-.54s0-.36.07-.54l.23-1a2.33,2.33,0,0,1,.09-.45,2.32,2.32,0,0,0,.09-.45q.09-.45.18-.78c.06-.22.11-.42.14-.61l.12-.52-.06.14a.78.78,0,0,0-.05.16,1.3,1.3,0,0,1-.08.22,2.64,2.64,0,0,1-.21.62,3.52,3.52,0,0,0-.24.79,3.39,3.39,0,0,0-.16.45l-.14.48-.23,1c-.07.21-.12.4-.16.57s-.07.35-.1.54l-.16,1.16a4.07,4.07,0,0,1,0,.55c0,.2,0,.39-.07.58s0,.34,0,.53,0,.37,0,.53,0,.34,0,.52,0,.35,0,.52a3.4,3.4,0,0,0,.15.83,1.34,1.34,0,0,0,.08.41,1.26,1.26,0,0,1,.08.31,2.35,2.35,0,0,0,.24.52.2.2,0,0,0,.06.17.19.19,0,0,1,.06.17l0,.08s0,0,.07,0l-.07-.11a1.14,1.14,0,0,1-.13-.33l-.12-.54a3.57,3.57,0,0,1-.08-.72c0-.17,0-.31,0-.44s0-.28,0-.45,0-.33,0-.5,0-.33,0-.5c0-.35,0-.7.07-1.06s.06-.73.1-1.13Zm3.29,9.16s-.06,0-.07,0L144,90a.87.87,0,0,1-.28-.09l-.33-.16a2.94,2.94,0,0,1-.77-.51.61.61,0,0,1-.17-.18.6.6,0,0,0-.17-.18,1.17,1.17,0,0,0-.16-.21,1.31,1.31,0,0,1-.16-.21l-.25-.42a1.75,1.75,0,0,0-.22-.48,3.44,3.44,0,0,0-.15-.42,3.76,3.76,0,0,1-.15-.42.91.91,0,0,0,0-.36,1.4,1.4,0,0,1-.07-.29.16.16,0,0,1,0-.09.15.15,0,0,0,0-.09l0,0s0,0,0,.07a.15.15,0,0,1,0,.09.16.16,0,0,0,0,.09,1.38,1.38,0,0,0,0,.27,3.22,3.22,0,0,1,0,.41.35.35,0,0,0,0,.2.34.34,0,0,1,.05.2,1.2,1.2,0,0,0,.15.48,1.39,1.39,0,0,0,.2.45,1.8,1.8,0,0,0,.22.48,653,653,0,0,1,.74.79l.41.24.41.24.35.15A1.69,1.69,0,0,0,144,90Zm.9-2.71a2.23,2.23,0,0,0,1.12,1,4.38,4.38,0,0,0,1.72.24q.16-3.22.24-6.11c.05-1.93.08-3.63.06-5.08s-.06-2.59-.15-3.4-.24-1.16-.45-1.05a2.75,2.75,0,0,0-.81,1,14.46,14.46,0,0,0-.94,2.18q-.45,1.3-.85,2.85a20,20,0,0,0-.54,3.1,16.62,16.62,0,0,0,0,2.92A5.47,5.47,0,0,0,145.14,87.36ZM149,84.81c0-.38,0-.73,0-1.07s0-.7,0-1.07,0-.73,0-1.06,0-.68,0-1c0-.17,0-.33,0-.48s0-.31,0-.48-.06-.6-.06-.86a9.68,9.68,0,0,1-.14-1.27.53.53,0,0,1-.06-.17.54.54,0,0,0-.06-.17c0-.05,0-.09,0-.11l0,0a1.21,1.21,0,0,1,0,.5c0,.17,0,.36,0,.58s0,.47,0,.73q0,.83,0,1.84t-.09,2.1c0,.73,0,1.44,0,2.12s0,1.29,0,1.83-.06,1.23-.05,1.79l0,0,.11-.51a2.59,2.59,0,0,1,.05-.56,6.75,6.75,0,0,0,.09-.73A14.26,14.26,0,0,0,149,84.81Zm7.37,16.31a.3.3,0,0,1,0,.14,2.82,2.82,0,0,0,0,.39l.17.53q.09.28.22.61a3.57,3.57,0,0,0,.72,1,.92.92,0,0,0,.33.27.31.31,0,0,1,.11.09.16.16,0,0,1-.11-.09.6.6,0,0,0-.11-.14.74.74,0,0,1-.13-.18,2.74,2.74,0,0,1-.31-.45l-.31-.56q-.1-.29-.23-.58a3.44,3.44,0,0,1-.19-.5.92.92,0,0,1-.15-.37Zm-.26-3.82a.4.4,0,0,1-.05-.15.41.41,0,0,0,0-.15.12.12,0,0,1,0-.1.12.12,0,0,0,0,.1.13.13,0,0,0,0,.12.31.31,0,0,1,0,.16l0,.49a4.79,4.79,0,0,0,.06.57c0,.21.07.44.09.68a6,6,0,0,0,.14.75c0,.12.05.25.09.38s.07.27.11.42l.24.77a3.9,3.9,0,0,0,.13.4,3,3,0,0,0,.18.38,1,1,0,0,0,.17.36,1,1,0,0,1,.17.36,1.72,1.72,0,0,1,.24.32,1.18,1.18,0,0,0,.22.28.35.35,0,0,1,.13.13.32.32,0,0,0,.13.13.61.61,0,0,0,.24.22.62.62,0,0,0,.24.22l.12.06.12.06a.71.71,0,0,0,.22.13l.2.09.27.05a.12.12,0,0,0,.09.05l0,0,0,0-.09-.05a.53.53,0,0,1-.24-.12.74.74,0,0,1-.42-.22.12.12,0,0,1-.09-.05.31.31,0,0,0-.11-.09.58.58,0,0,1-.22-.18.33.33,0,0,1-.13-.13.36.36,0,0,0-.13-.13.44.44,0,0,0-.1-.12.4.4,0,0,1-.1-.12,1.21,1.21,0,0,1-.22-.28l-.19-.35-.19-.35a1.67,1.67,0,0,1-.15-.37,2.54,2.54,0,0,1-.17-.36c0-.11-.08-.24-.12-.38a1.75,1.75,0,0,0-.16-.39.94.94,0,0,1-.11-.42q-.06-.22-.12-.39a.94.94,0,0,1-.05-.37c-.06-.27-.12-.51-.16-.74s-.08-.45-.12-.66A3.54,3.54,0,0,1,156.06,97.29Z"/><path d="M189.14,73.59q.13-.47.77-.5a3.84,3.84,0,0,1,1.32.17,5.55,5.55,0,0,1,1.23.54q.55.33.51.57a34.87,34.87,0,0,1-.77,3.76,20.4,20.4,0,0,1-1.7,4.36,18,18,0,0,1-3,4.15,13.41,13.41,0,0,1-4.74,3.11l-.47.19a3.18,3.18,0,0,1-.48.15q-.56,1.56-1.23,3a19.14,19.14,0,0,1-1.49,2.62,13,13,0,0,1-1.77,2.1,7.5,7.5,0,0,1-2,1.41,5.27,5.27,0,0,1-1.74.3,11.37,11.37,0,0,1-2.66-.19,10.15,10.15,0,0,1-2.72-.9,4.13,4.13,0,0,1-1.91-1.89,7,7,0,0,1-.64-2.55,17.6,17.6,0,0,1,0-3.23,22.14,22.14,0,0,1,.63-3.43,28.32,28.32,0,0,1,1-3.15l-.35-.76a3.92,3.92,0,0,1-.06-2.8,11.79,11.79,0,0,1,1.57-3.26,16.2,16.2,0,0,1,2.59-3,10.18,10.18,0,0,1,2.88-1.93,4.1,4.1,0,0,1,1.94-.15,7.26,7.26,0,0,1,2.55.8,10.48,10.48,0,0,1,2.51,1.85,8.12,8.12,0,0,1,1.88,2.95,10,10,0,0,1,.57,3.62,24.07,24.07,0,0,1-.46,4.45,8.2,8.2,0,0,0,2.57-2.51,17.14,17.14,0,0,0,1.72-3.34,29.44,29.44,0,0,0,1.11-3.51Q188.75,74.84,189.14,73.59Zm-19.75,22a972.7,972.7,0,0,0-.15-.8,3.57,3.57,0,0,0,0-.5,3.81,3.81,0,0,1,0-.5,3,3,0,0,1,0-1c0-.16,0-.31,0-.45s0-.29,0-.45a1,1,0,0,0,0-.34.37.37,0,0,1,0-.26.54.54,0,0,1,.05-.27,2.05,2.05,0,0,1-.05.27.88.88,0,0,0-.08.28,2.49,2.49,0,0,1-.06.32,4.57,4.57,0,0,0-.1.92c0,.16,0,.33,0,.5s0,.34,0,.5a2.06,2.06,0,0,0,.06.51,2,2,0,0,1,.06.51,1.23,1.23,0,0,0,.09.44.8.8,0,0,1,.06.19.87.87,0,0,0,.06.19,1.56,1.56,0,0,0,.1.34l.11.24.1.2,0,0a.08.08,0,0,1,0-.07s0-.06,0-.11a1.36,1.36,0,0,1-.09-.25Zm.42-.1-.08-.42a2.41,2.41,0,0,1,0-.45,6.55,6.55,0,0,1,0-1l.06-.61a2.58,2.58,0,0,1,0-.59q0-.31.09-.63c0-.21.07-.42.09-.63l.29-1.3c.06-.22.12-.43.18-.64s.13-.41.2-.6l-.31-.29-.09.19c-.06.22-.12.44-.18.64a5.94,5.94,0,0,0-.16.68l-.29,1.3c0,.25-.08.47-.1.68l-.07.61a2.12,2.12,0,0,0,0,.35c0,.09,0,.19,0,.28a.61.61,0,0,0,0,.3.62.62,0,0,1,0,.3q0,.28,0,.54a3.73,3.73,0,0,1,0,.5c0,.12,0,.28,0,.47a1.1,1.1,0,0,1,.07.21,1.21,1.21,0,0,0,.07.21,3.13,3.13,0,0,0,.19.64.4.4,0,0,0,.08.23.81.81,0,0,1,.11.17l.06.12-.06-.12a1.27,1.27,0,0,0-.14-.42,1.38,1.38,0,0,0-.05-.29A1.52,1.52,0,0,1,169.81,95.47ZM171,97.09a9.23,9.23,0,0,0,3.11-2.44A16.5,16.5,0,0,0,176.42,91a8.59,8.59,0,0,1-3.06-.64,9.73,9.73,0,0,1-2.4-1.44A16.19,16.19,0,0,0,170.2,93,8.23,8.23,0,0,0,171,97.09Zm.71-10.2a3.13,3.13,0,0,0,1.86,1.89,6,6,0,0,0,3.86-.18,32.31,32.31,0,0,0,1-3.68,25.09,25.09,0,0,0,.55-3.62A21,21,0,0,0,179,78a9,9,0,0,0-.55-2.57.89.89,0,0,0-1.32-.56,6.88,6.88,0,0,0-2.84,2.36,15.6,15.6,0,0,0-2.11,3.82,4.67,4.67,0,0,1,1.33.83c.34.32.45.58.34.79s-.4.65-.83,1.39A24.49,24.49,0,0,0,171.71,86.89Zm4.78,4.8a1.31,1.31,0,0,0,.18-.32q.07-.17.16-.36s-.05,0-.06,0,0,0-.06,0l-.34.68a3.19,3.19,0,0,0-.27.5,2.52,2.52,0,0,1-.24.44,3.18,3.18,0,0,1-.25.42,2.32,2.32,0,0,0-.18.3,2.79,2.79,0,0,1-.16.29,1.89,1.89,0,0,0-.13.23A.31.31,0,0,1,175,94l.42-.62a3.6,3.6,0,0,0,.22-.34c.08-.13.16-.26.26-.4s.18-.28.27-.43S176.39,91.89,176.49,91.68Zm-5-6.13a1.67,1.67,0,0,0,0,.25,1.91,1.91,0,0,1,0,.25c.07-.19.14-.37.21-.53s.15-.32.23-.49l.24-.47a3.57,3.57,0,0,0,.19-.45l.33-.62.33-.62a.68.68,0,0,1-.12.15,1.58,1.58,0,0,0-.16.19,2.07,2.07,0,0,0-.14.23q-.16.31-.39.68t-.49.87ZM169,78.44a3.8,3.8,0,0,1-.19.33,2.81,2.81,0,0,0-.16.26l-.1.19.05,0,.1-.19a2.87,2.87,0,0,1,.16-.26l.21-.29.26-.33.34-.42.28-.41a1.88,1.88,0,0,1,.35-.39q.21-.23.36-.45a3.11,3.11,0,0,1,.33-.38,2.61,2.61,0,0,0,.36-.37,3.61,3.61,0,0,1,.31-.35q.35-.34.47-.49l.17-.17,0,0-.23.19a6.6,6.6,0,0,0-.49.45l-.71.71q-.36.37-.73.82a9.3,9.3,0,0,0-.63.83Zm.13-1q-.09.09-.08.11s0,0,0,.08l0,.06.21-.24a1.13,1.13,0,0,1,.2-.26,3,3,0,0,0,.28-.34,2.52,2.52,0,0,0,.38-.41q.15-.21.36-.45a.78.78,0,0,1,.21-.23.76.76,0,0,0,.21-.23,1,1,0,0,1,.24-.22,1.06,1.06,0,0,0,.24-.22c.08-.1.24-.26.47-.49a4.61,4.61,0,0,0,.44-.43l.47-.36a3.78,3.78,0,0,0,.41-.34,2.27,2.27,0,0,1,.39-.26.57.57,0,0,1,.17-.12.6.6,0,0,0,.17-.12l.21-.09s0,0,0-.06l-.32.13-.32.13a2.26,2.26,0,0,0-.46.24,4.38,4.38,0,0,0-.49.3,1.27,1.27,0,0,1-.24.17A1.26,1.26,0,0,0,172,74c-.19.14-.36.29-.53.44l-.51.48-.44.48a4.3,4.3,0,0,0-.43.52,5.79,5.79,0,0,0-.6.89A3.1,3.1,0,0,0,169.08,77.47ZM179.18,84c0-.14,0-.26.05-.38s0-.24.05-.38.1-.47.13-.69.06-.44.08-.67a2.89,2.89,0,0,1,0-.63,3.62,3.62,0,0,0,.06-.59q0-1.12,0-1.84a2.4,2.4,0,0,1,0-.47.33.33,0,0,0,0-.18.34.34,0,0,1,0,.18c0,.07,0,.14,0,.22s0,.17,0,.27,0,.49,0,.81,0,.66-.09,1c0,.19,0,.38,0,.58s0,.41-.06.64-.05.46-.08.67-.07.45-.13.69A5.79,5.79,0,0,1,179,84c0,.14,0,.26-.05.38a1.71,1.71,0,0,1-.07.34l-.21.77c-.06.23-.11.48-.15.75l-.24.75-.24.74a1.21,1.21,0,0,1-.13.39,1.21,1.21,0,0,0-.13.39l.2-.08.24-.67.24-.74.24-.74.2-.77c.06-.23.11-.48.16-.75l.06-.36Zm.87-3.81c0-.24,0-.49,0-.72s0-.48,0-.72,0-.48-.07-.7-.07-.44-.11-.64a3.17,3.17,0,0,0-.11-.66,4.76,4.76,0,0,1-.13-.56l-.31-.78-.13-.33,0,.08a.29.29,0,0,1,0,.11.37.37,0,0,0,0,.15,2.85,2.85,0,0,1,.1.34c0,.14.07.3.1.48a4.86,4.86,0,0,0,.12.54,3.21,3.21,0,0,1,.11.64c0,.25,0,.47.06.68s0,.44.06.68,0,.48,0,.71,0,.47,0,.71a6.35,6.35,0,0,1,0,.64c0,.21,0,.4,0,.56s0,.36,0,.5a1.32,1.32,0,0,1-.05.38.6.6,0,0,0,0,.22.12.12,0,0,1,0,.1l.05-.31a2.16,2.16,0,0,0,.08-.39,4.89,4.89,0,0,0,0-.51c0-.16,0-.35.07-.57A3.64,3.64,0,0,0,180.05,80.19Z"/><path d="M211.43,70.73c.09-.23.35-.31.78-.24a5.79,5.79,0,0,1,1.36.44,4.41,4.41,0,0,1,1.22.79c.33.31.47.58.41.81-.41,1.24-1,2.68-1.7,4.32A41.23,41.23,0,0,1,211,81.63a25.18,25.18,0,0,1-3.1,4.15,8.2,8.2,0,0,1-3.6,2.4,3.34,3.34,0,0,1-1.63,0,9.06,9.06,0,0,1-3.42-1.47,2.19,2.19,0,0,1-.88-1,6.39,6.39,0,0,1-.13-2.68,31.68,31.68,0,0,1,.7-3.73q.5-2,1.13-4.28t1.06-4.28a64.55,64.55,0,0,0-5.12,8.53,74.28,74.28,0,0,0-3,6.94c-.73,2-1.25,3.55-1.58,4.7s-.57,1.76-.73,1.82a1.86,1.86,0,0,1-.87,0,5.18,5.18,0,0,1-1.21-.34,5.45,5.45,0,0,1-1.17-.66,2.12,2.12,0,0,1-.75-.93,7.63,7.63,0,0,1,0-2.16c.11-1.22.29-2.68.54-4.39s.55-3.54.88-5.5.67-3.8,1-5.52.59-3.2.79-4.43a6.92,6.92,0,0,0,.16-2.26.32.32,0,0,1,0-.18.46.46,0,0,1,.36-.35,3.08,3.08,0,0,1,1.07-.12,6.32,6.32,0,0,1,1.28.18,3.27,3.27,0,0,1,1.15.53,1.74,1.74,0,0,1,.66.87,4,4,0,0,1,0,1.15q-.07.9-.27,2.18t-.45,2.82l-.51,3.15q1.08-2.08,2.33-4.25t2.37-4c.75-1.24,1.43-2.29,2-3.17a11,11,0,0,1,1.29-1.65.14.14,0,0,0,.08,0,.14.14,0,0,1,.08,0,.19.19,0,0,1,.12,0,.41.41,0,0,1,.23,0,5.77,5.77,0,0,1,1,.21,5.68,5.68,0,0,1,1.23.53,4.8,4.8,0,0,1,1.16.94,3.39,3.39,0,0,1,.76,1.43,5,5,0,0,1-.09,2q-.26,1.37-.7,3.06t-1,3.61q-.54,1.92-.92,3.63t-.57,3.08a5,5,0,0,0,0,2,5.59,5.59,0,0,0,2.38-1.62,17.74,17.74,0,0,0,2.28-3.11,43.61,43.61,0,0,0,2.12-4.07Q210.62,73.07,211.43,70.73Zm-19.69,8.51q.11-.5.17-1c0-.32.1-.65.18-1s.12-.71.17-1a10,10,0,0,1,.18-1l.12-.92q.06-.44.1-.82t.09-.68l.08-.54a.3.3,0,0,0,0-.16.31.31,0,0,1,0-.16.16.16,0,0,1,0-.14q-.51,2.71-1,5.42l-.32,2q-.15,1-.27,1.75c-.06.27-.1.5-.12.7s0,.37-.07.54a1.38,1.38,0,0,0-.07.44q0-.2.12-.46l.26-1.21c.06-.27.1-.54.14-.82S191.67,79.58,191.75,79.25Zm1-2.72a.12.12,0,0,1,0-.1.14.14,0,0,0,0-.12s0-.1.05-.18a7.07,7.07,0,0,0,.26-1.11,6.66,6.66,0,0,0,.18-.76q.07-.39.17-.8l.17-.89c.06-.3.11-.61.16-.93a7,7,0,0,0,.12-.89c0-.3,0-.59.07-.88s0-.56.06-.83,0-.51,0-.73a4.61,4.61,0,0,0-.17-1.1l-.05-.17a.16.16,0,0,0-.09-.11.12.12,0,0,1-.08-.07l.08.07,0,.13.05.17a.35.35,0,0,0,0,.21.62.62,0,0,1,0,.25.6.6,0,0,0,0,.31,1.42,1.42,0,0,1,0,.3,3.91,3.91,0,0,1-.08.76,7.45,7.45,0,0,0-.12.82,6.83,6.83,0,0,0-.16.86q-.06.46-.14.9c0,.33-.09.63-.13.92s-.07.58-.09.86-.1.57-.13.83-.06.5-.1.73a5.39,5.39,0,0,1,0,.63,3.78,3.78,0,0,1-.07.47ZM199.1,82a5.59,5.59,0,0,0,.18-.91,5.18,5.18,0,0,1,.19-.91c.08-.33.15-.65.21-.94a8.48,8.48,0,0,1,.23-.9,9.72,9.72,0,0,1,.36-1.58c0-.26.06-.47.08-.65a3.8,3.8,0,0,1,.09-.46,2,2,0,0,1,.07-.34.12.12,0,0,0,0-.1.12.12,0,0,1,0,.1,1,1,0,0,0-.13.31q-.05.2-.14.48l-.2.64q-.12.36-.22.76c-.07.27-.15.54-.25.81s-.18.61-.25.91l-.23.95q-.08.44-.16.9c-.05.31-.1.61-.16.9s0,.3-.06.43a3.19,3.19,0,0,1-.07.39,2.64,2.64,0,0,0,0,.42c0,.12,0,.24,0,.37a1.54,1.54,0,0,0,0,.63,1.75,1.75,0,0,0,0,.25,1,1,0,0,0,0,.24l.09.29,0,.08,0-.1a.83.83,0,0,1,0-.31,5.13,5.13,0,0,1,0-1.12c0-.25.06-.51.11-.77S199,82.3,199.1,82Zm7.2,4.69a.91.91,0,0,1,.24-.18.47.47,0,0,0,.19-.17.81.81,0,0,0,.16-.18l-.17.14-.49.33a6.14,6.14,0,0,1-1.47.8l-.44.13-.23,0-.23,0a2.3,2.3,0,0,1-.8,0l-.33,0a.31.31,0,0,1-.22,0c-.07,0-.1,0-.1,0s0,0-.06,0-.05,0-.06,0l.19.08a.85.85,0,0,1,.24.07l.33,0a2.16,2.16,0,0,0,.36,0,2.52,2.52,0,0,0,.45,0,.59.59,0,0,0,.23,0,.6.6,0,0,1,.23,0l.49-.15a2.13,2.13,0,0,0,.43-.17,4.07,4.07,0,0,0,.4-.26A2.51,2.51,0,0,0,206,87,2.22,2.22,0,0,0,206.3,86.73ZM201.8,71.89c-.19.79-.44,1.68-.74,2.69l-.2.75a6.13,6.13,0,0,0-.15.73,4,4,0,0,0-.16.67,5.92,5.92,0,0,1-.12.61,4.83,4.83,0,0,1-.07.5,2,2,0,0,0,0,.4.61.61,0,0,0,0,.33,2.09,2.09,0,0,1,.06-.34,1.33,1.33,0,0,0,.08-.37,3.3,3.3,0,0,1,.1-.51q.17-.56.32-1.27c.1-.47.23-1,.38-1.47l.2-.75c.06-.23.12-.46.16-.69s.14-.5.19-.72.09-.4.12-.56l.09-.48a4.18,4.18,0,0,1,.1-.44,2.19,2.19,0,0,0,.07-.34A2.83,2.83,0,0,0,202,71a1.78,1.78,0,0,0-.11.4A3,3,0,0,1,201.8,71.89Z"/><path d="M228.79,67.07c.13-.32.41-.44.84-.37a3.69,3.69,0,0,1,1.32.54,5,5,0,0,1,1.14,1c.31.37.41.66.3.88-.56,1.28-1.21,2.7-2,4.29a33.67,33.67,0,0,1-2.59,4.54,21,21,0,0,1-3.32,3.84A9.29,9.29,0,0,1,220.27,84a7.7,7.7,0,0,1-2.18.09,8.55,8.55,0,0,1-2.75-.69,8.44,8.44,0,0,1-2.64-1.8,7,7,0,0,1-1.77-3.29,10,10,0,0,1-.07-2.91c.11-1.37.3-3,.6-4.75s.67-3.71,1.11-5.74.92-4,1.41-5.92c-.73.22-1.44.42-2.14.59l-2,.48a3.13,3.13,0,0,1-2.25-.09,2.75,2.75,0,0,1-1.17-1.13,2.6,2.6,0,0,1-.32-1.35c0-.44.15-.7.37-.75l1.59-.4,2.4-.61,2.6-.65c.86-.21,1.57-.39,2.12-.54.84-3,1.54-5.29,2-6.94a12.46,12.46,0,0,0,.7-2.83q-.15-.73.63-.82a4.16,4.16,0,0,1,1.78.26,8.25,8.25,0,0,1,1.9.94,2.07,2.07,0,0,1,1,1.25,7.28,7.28,0,0,1-.52,1.75c-.37,1-.92,2.64-1.62,4.86q2.69-.65,4.93-1.08c1.49-.29,2.58-.48,3.26-.59a5.07,5.07,0,0,1,1.83,0,2,2,0,0,1,1,.5,1.69,1.69,0,0,1,.45.87c.07.34.13.69.18,1a.65.65,0,0,1-.43.78,5.84,5.84,0,0,1-1.3.33q-2.69.42-5.54,1.1t-5.64,1.48q-.89,3-1.76,6.54t-1.42,6.72a55.31,55.31,0,0,0-.73,5.94,14.87,14.87,0,0,0,.21,4.24q.25,1,.9.87a8.3,8.3,0,0,0,3.81-2.15,24.23,24.23,0,0,0,3.25-3.82,40.34,40.34,0,0,0,2.7-4.48C227.6,69.67,228.27,68.29,228.79,67.07ZM214.27,82.29a1.42,1.42,0,0,0,.39.27l.18.09a.49.49,0,0,1-.13-.1l-.17-.16-.23-.19a.76.76,0,0,1-.23-.19,1.69,1.69,0,0,0-.25-.23l-.28-.27a3,3,0,0,1-.29-.31l-.26-.27-.26-.27a2.62,2.62,0,0,1-.46-.52l-.16-.21a.47.47,0,0,1-.1-.18.16.16,0,0,1-.08-.11v0l0,.17a.86.86,0,0,0,.07.19l.15.26a1.39,1.39,0,0,1,.15.26,1,1,0,0,0,.21.29,3.35,3.35,0,0,1,.26.29,3.23,3.23,0,0,0,.26.3q.29.29.59.55A3,3,0,0,0,214.27,82.29Zm-2-13.62q-.13.85-.25,1.51c-.08.44-.13.83-.16,1.17l-.09,1a.49.49,0,0,0,.05-.24,2.15,2.15,0,0,0,.06-.31c0-.14,0-.29.08-.45.07-.32.14-.7.22-1.14s.18-.93.31-1.48l.48-2q.28-1.17.58-2.46t.63-2.58q.34-1.29.61-2.39l.05-.28.05-.28a1.53,1.53,0,0,1-.43.14.77.77,0,0,0,0,.19.83.83,0,0,1,0,.19q-.16.58-.33,1.34c-.11.51-.25,1-.39,1.56s-.27,1-.39,1.53-.21.91-.27,1.26q-.21,1-.38,2T212.27,68.67Zm.54,1.27a1,1,0,0,0,.09-.32,3.31,3.31,0,0,1,.07-.4q.12-.44.26-1l.12-.55a5.41,5.41,0,0,1,.17-.6c0-.19.07-.39.11-.59l.13-.55c0-.19.06-.37.1-.54s.07-.34.11-.5l.17-1-.34,1c0,.16-.08.33-.11.5s-.07.34-.11.5a3.75,3.75,0,0,1-.15.58,3,3,0,0,0-.14.62l-.23,1.14c0,.19-.06.36-.1.52l-.11.48a2.55,2.55,0,0,0-.07.42c0,.12,0,.23,0,.32a1.27,1.27,0,0,1,0,.28Zm3.42-17.31a5,5,0,0,1-.15.53,1.78,1.78,0,0,0-.09.29c0,.09,0,.2-.08.33s-.1.33-.19.62l.39-.08c.06-.28.1-.48.13-.61a1.64,1.64,0,0,0,.05-.3,1.64,1.64,0,0,1,0-.25q0-.14.14-.48.24-.81.4-1.5a7.59,7.59,0,0,1,.35-1.17,3.47,3.47,0,0,0,.1-.4c0-.11,0-.21.06-.3a1.13,1.13,0,0,1,.06-.28,1.46,1.46,0,0,0-.07.24.72.72,0,0,0-.15.3l-.12.43q-.19.53-.38,1.18C216.59,51.59,216.43,52.08,216.23,52.63Z"/><path d="M253.9,60.41a.72.72,0,0,1,.86-.28,3.77,3.77,0,0,1,1.21.52,5.49,5.49,0,0,1,1,.84c.29.31.4.54.34.69a34.81,34.81,0,0,1-1.73,3.42,20.39,20.39,0,0,1-2.77,3.75,17.74,17.74,0,0,1-4,3.19,13,13,0,0,1-5.33,1.72l-.49.06a3,3,0,0,1-.5,0q-.94,1.35-2,2.54a18.84,18.84,0,0,1-2.1,2.12,12.66,12.66,0,0,1-2.23,1.54,7.24,7.24,0,0,1-2.29.8,5.09,5.09,0,0,1-1.73-.18,11.11,11.11,0,0,1-2.47-.91,10.06,10.06,0,0,1-2.34-1.6,4.18,4.18,0,0,1-1.32-2.34,7.13,7.13,0,0,1,.06-2.63,17.68,17.68,0,0,1,.88-3.09,22.15,22.15,0,0,1,1.49-3.12,28.18,28.18,0,0,1,1.79-2.75l-.14-.82a4,4,0,0,1,.67-2.71,11.63,11.63,0,0,1,2.34-2.72,15.84,15.84,0,0,1,3.23-2.17,9.92,9.92,0,0,1,3.24-1.08,4,4,0,0,1,1.89.38A7.2,7.2,0,0,1,243.83,57a10.47,10.47,0,0,1,1.9,2.45,8.2,8.2,0,0,1,1,3.34,10.15,10.15,0,0,1-.4,3.64,24.19,24.19,0,0,1-1.6,4.16,8,8,0,0,0,3.1-1.73,17,17,0,0,0,2.52-2.76,29.6,29.6,0,0,0,2-3.08Q253.2,61.51,253.9,60.41ZM229.38,76.24a1173.2,1173.2,0,0,0,.07-.81,3.71,3.71,0,0,0,.1-.49,3.89,3.89,0,0,1,.1-.49,3,3,0,0,1,.26-1c0-.16.09-.3.14-.43s.1-.27.14-.43a1,1,0,0,0,.08-.33.37.37,0,0,1,.09-.24.54.54,0,0,1,.12-.24,2.05,2.05,0,0,1-.12.24.83.83,0,0,0-.15.25,2.43,2.43,0,0,1-.14.29,4.58,4.58,0,0,0-.33.86c0,.16-.1.31-.16.47s-.11.32-.16.47a2.06,2.06,0,0,0-.07.5,2,2,0,0,1-.07.5,1.25,1.25,0,0,0,0,.45.83.83,0,0,1,0,.2.88.88,0,0,0,0,.2,1.62,1.62,0,0,0,0,.35l0,.26,0,.22v0a.08.08,0,0,1,0-.07s0-.05,0-.11a1.38,1.38,0,0,1,0-.26C229.37,76.51,229.37,76.39,229.38,76.24Zm.43,0c0-.15,0-.29,0-.43a2.46,2.46,0,0,1,.08-.44,6.58,6.58,0,0,1,.26-1l.22-.57a2.58,2.58,0,0,1,.17-.56c.07-.19.16-.38.25-.58s.18-.39.25-.58l.61-1.17c.11-.2.22-.39.34-.57l.35-.52-.22-.37-.14.16-.34.57a5.87,5.87,0,0,0-.33.61L230.72,72c-.11.23-.2.43-.27.63l-.22.57a2.13,2.13,0,0,0-.1.33l-.06.28a.62.62,0,0,0-.08.28.62.62,0,0,1-.08.28c0,.18-.07.36-.09.53a3.78,3.78,0,0,1-.1.49c0,.12,0,.27-.08.46a1.15,1.15,0,0,1,0,.22,1.17,1.17,0,0,0,0,.22,3.18,3.18,0,0,0,0,.67.41.41,0,0,0,0,.24.83.83,0,0,1,.06.19l0,.13,0-.13a1.31,1.31,0,0,0,0-.44,1.42,1.42,0,0,0,0-.29A1.53,1.53,0,0,1,229.8,76.26Zm.7,1.88a8.92,8.92,0,0,0,3.58-1.51,16.15,16.15,0,0,0,3.15-2.89,8.46,8.46,0,0,1-2.74-1.44,9.72,9.72,0,0,1-1.9-2A16.14,16.14,0,0,0,230.8,74,8.34,8.34,0,0,0,230.5,78.14Zm3.33-9.62a3.16,3.16,0,0,0,1.27,2.32,5.86,5.86,0,0,0,3.71.87,32.19,32.19,0,0,0,2-3.26,25.18,25.18,0,0,0,1.47-3.34,21.16,21.16,0,0,0,.85-3.12,9.13,9.13,0,0,0,.15-2.62.89.89,0,0,0-1.1-.89,6.71,6.71,0,0,0-3.31,1.5,15.35,15.35,0,0,0-3,3.11,4.65,4.65,0,0,1,1,1.16c.24.4.28.68.12.85s-.55.51-1.16,1.12A23.94,23.94,0,0,0,233.83,68.52Zm3.28,5.91a1.27,1.27,0,0,0,.25-.26l.25-.3s-.05,0-.05,0,0,0-.06,0l-.5.56a3.19,3.19,0,0,0-.39.41,2.53,2.53,0,0,1-.34.36,3.12,3.12,0,0,1-.34.34,2.25,2.25,0,0,0-.25.24,2.58,2.58,0,0,1-.23.23l-.18.18c-.06.07-.11.11-.14.11l.56-.48a3.63,3.63,0,0,0,.3-.27l.35-.32.37-.34ZM234,67.17a1.7,1.7,0,0,0,0,.25,1.89,1.89,0,0,1,0,.25l.34-.45.35-.41.35-.39a3.36,3.36,0,0,0,.3-.38l.47-.51.48-.51a.66.66,0,0,1-.15.11l-.2.14-.19.18c-.16.17-.34.35-.55.55s-.44.43-.69.7Zm-.52-7.52-.27.26-.22.21-.15.16h.06l.14-.16.22-.21.28-.22.33-.25.43-.31.38-.32a1.83,1.83,0,0,1,.44-.28l.46-.33a3,3,0,0,1,.41-.28,2.6,2.6,0,0,0,.44-.26,3.46,3.46,0,0,1,.39-.25q.42-.23.58-.34l.21-.12v0l-.27.12a6.34,6.34,0,0,0-.58.3l-.86.49q-.44.26-.9.59a8.84,8.84,0,0,0-.81.63Zm.37-.9c-.07,0-.1.07-.1.08s0,0,0,.07l0,.05.26-.17a1.09,1.09,0,0,1,.25-.19,2.9,2.9,0,0,0,.36-.25,2.46,2.46,0,0,0,.47-.29c.13-.11.29-.22.46-.33a.77.77,0,0,1,.26-.17.74.74,0,0,0,.26-.17,1,1,0,0,1,.29-.15,1,1,0,0,0,.29-.15c.1-.07.29-.19.58-.34a4.45,4.45,0,0,0,.53-.29l.54-.22a3.75,3.75,0,0,0,.48-.22,2.28,2.28,0,0,1,.44-.14.56.56,0,0,1,.19-.07.53.53,0,0,0,.19-.07l.22,0s.05,0,.05-.05l-.33,0-.34,0a2.16,2.16,0,0,0-.5.11A4.12,4.12,0,0,0,238,56a1.23,1.23,0,0,1-.27.1,1.27,1.27,0,0,0-.27.1c-.21.09-.42.18-.61.28l-.61.33-.55.34a4.16,4.16,0,0,0-.54.39,5.61,5.61,0,0,0-.81.69A3.07,3.07,0,0,0,233.8,58.75Zm7.88,9q.09-.19.15-.35c0-.11.09-.22.15-.35s.22-.43.3-.63l.25-.63a2.92,2.92,0,0,1,.2-.6,3.64,3.64,0,0,0,.21-.55q.26-1.09.46-1.77a2.39,2.39,0,0,1,.11-.45.33.33,0,0,0,0-.18.34.34,0,0,1,0,.18c0,.06-.06.13-.09.21s-.06.16-.08.25-.12.47-.21.78-.21.63-.36,1c-.05.18-.11.37-.18.55l-.23.6-.25.63q-.13.3-.3.63a5.8,5.8,0,0,1-.3.66c-.06.13-.11.24-.15.35a1.76,1.76,0,0,1-.15.31l-.4.69a7.63,7.63,0,0,0-.34.68l-.43.65-.42.65a1.21,1.21,0,0,1-.22.34,1.19,1.19,0,0,0-.22.34l.21,0,.4-.58.42-.65.43-.65.4-.69q.18-.31.35-.68l.15-.33Zm1.83-3.44c0-.24.1-.47.17-.7s.12-.46.17-.7.09-.47.12-.7.05-.44.07-.65a3.23,3.23,0,0,0,.07-.67,4.8,4.8,0,0,1,0-.58l-.09-.83,0-.35v.09a.31.31,0,0,1,0,.11.39.39,0,0,0,0,.16,3,3,0,0,1,0,.35q0,.22,0,.49a5,5,0,0,0,0,.55,3.25,3.25,0,0,1-.07.65c0,.24-.09.47-.12.68s-.07.43-.12.68l-.14.7c0,.23-.1.46-.14.7s-.11.42-.18.62l-.19.53-.14.48a1.32,1.32,0,0,1-.15.35.61.61,0,0,0,0,.22.12.12,0,0,1,0,.09l.13-.28a2.16,2.16,0,0,0,.18-.35,4.87,4.87,0,0,0,.16-.48q.08-.23.21-.53A3.7,3.7,0,0,0,243.51,64.32Z"/><path d="M290.82,43.33a21.14,21.14,0,0,1,5.18,1,12.3,12.3,0,0,1,4,2.22A7.89,7.89,0,0,1,302.39,50a8.43,8.43,0,0,1,.2,4.52,5.64,5.64,0,0,1-1.84,3.09A16.51,16.51,0,0,1,297.14,60l.27-.15.27-.15.54-.36.54-.36a5.51,5.51,0,0,0,1-.81,6,6,0,0,0,.47-.41,5.33,5.33,0,0,0,.42-.46,3,3,0,0,0,.43-.48q.17-.24.32-.49l.14-.25.15-.25.23-.5a.4.4,0,0,0,.08-.21.65.65,0,0,1,.09-.25,1.08,1.08,0,0,1,.06-.21,1.11,1.11,0,0,0,.06-.21,2.82,2.82,0,0,1,.08-.41.84.84,0,0,0,0-.37,2,2,0,0,0,0-.62,2.79,2.79,0,0,1-.06-.41l0-.13-.07.52a.43.43,0,0,1,0,.27,1.65,1.65,0,0,0-.07.34,2.18,2.18,0,0,1-.07.35,2.31,2.31,0,0,0-.08.39.62.62,0,0,0-.09.23.64.64,0,0,1-.09.23.39.39,0,0,0-.08.21.27.27,0,0,1-.14.2,1.77,1.77,0,0,0-.11.23,1.67,1.67,0,0,1-.11.23l-.14.25a1.52,1.52,0,0,1-.14.2,5.84,5.84,0,0,1-.73.93,5.68,5.68,0,0,1-.42.46,5.91,5.91,0,0,1-.47.41,5.41,5.41,0,0,0-.47.41,3,3,0,0,1-.52.4,5.18,5.18,0,0,1-.48.34l-.54.34-.54.32a3.26,3.26,0,0,0-.48.32,2.41,2.41,0,0,0-.5.23,2.46,2.46,0,0,1-.5.24l-.44.22-.38.18a2.15,2.15,0,0,1-.35.19,1.91,1.91,0,0,0-.29.15l-.2.11-.2.07a.64.64,0,0,0-.17.07q-2,.69-4.13,1.25t-4.12,1a27.57,27.57,0,0,0,.82,3.51,22.89,22.89,0,0,0,1.15,3,48.92,48.92,0,0,0,2.34,4.3A21.85,21.85,0,0,0,291,76.91c.42.49.72.83.91,1a.66.66,0,0,1,.26.53c0,.17-.17.35-.46.53a4.43,4.43,0,0,1-1.06.45,8.74,8.74,0,0,1-1.35.28,6.42,6.42,0,0,1-1.32,0c-.27,0-.61-.29-1-.81a16.9,16.9,0,0,1-1.36-2q-.74-1.24-1.55-2.83t-1.54-3.25q-.73-1.67-1.29-3.27a17.23,17.23,0,0,1-.78-2.94l-1.22.13-1.05.14-2.82,4.87c-.89,1.55-1.67,2.92-2.34,4.11s-1.21,2.15-1.64,2.86-.69,1.07-.79,1.07a2.43,2.43,0,0,1-.89-.26,7.17,7.17,0,0,1-1.15-.65,8.76,8.76,0,0,1-1-.78,1.08,1.08,0,0,1-.42-.65,16.76,16.76,0,0,1,.81-1.68c.54-1.06,1.24-2.41,2.12-4.05s1.89-3.47,3.07-5.49,2.37-4,3.58-6.06,2.41-3.94,3.57-5.77,2.18-3.36,3-4.61a14.57,14.57,0,0,0-3.72,1.53,4.47,4.47,0,0,1-1.6.8,1.1,1.1,0,0,1-.65-.33,3.34,3.34,0,0,1-.66-.83,5.29,5.29,0,0,1-.49-1.11,2.86,2.86,0,0,1-.12-1.21c0-.15.41-.43,1.24-.85a21.9,21.9,0,0,1,3.3-1.27,31.7,31.7,0,0,1,4.73-1A24.28,24.28,0,0,1,290.82,43.33ZM272.57,66.64q.16-.35.3-.61l.25-.48a4.48,4.48,0,0,1,.22-.39c-.07.12-.16.25-.27.39a4.31,4.31,0,0,1-.27.46,4.14,4.14,0,0,0-.33.59,7.25,7.25,0,0,1-.38.7,8.92,8.92,0,0,0-.43.79,6.48,6.48,0,0,0-.48.83c-.14.29-.3.59-.48.88l-.42.88q-.21.44-.42.83t-.44.81c-.12.25-.23.49-.33.73s-.2.43-.28.59l-.23.46-.15.4a1.38,1.38,0,0,1,.2-.4c.07-.15.14-.3.23-.46s.2-.36.33-.59.27-.47.39-.7.27-.5.44-.79l.42-.81c.14-.28.3-.58.47-.9a8,8,0,0,0,.45-.85,7.39,7.39,0,0,1,.45-.85q.21-.44.4-.79C272.34,67.11,272.46,66.88,272.57,66.64Zm28-15a1.74,1.74,0,0,0-.46-1.47,5.67,5.67,0,0,0-1.85-1.36,15.31,15.31,0,0,0-3-1.08,22,22,0,0,0-3.81-.63L290.36,47h-1L288,48.93q-.9,1.35-2.1,3.23t-2.6,4.14q-1.4,2.26-2.82,4.66c1.65-.34,3.59-.79,5.81-1.34a64.19,64.19,0,0,0,6.42-1.92,25.09,25.09,0,0,0,5.35-2.59A5,5,0,0,0,300.6,51.62ZM286.34,76.73c-.09-.15-.18-.32-.27-.5a7.32,7.32,0,0,0-.37-.64,2.53,2.53,0,0,0-.21-.34,1.65,1.65,0,0,1-.21-.39,3.48,3.48,0,0,0-.21-.43,3.27,3.27,0,0,1-.21-.43c-.15-.3-.3-.61-.44-.91l-.44-1q-.47-1-.86-1.87t-.73-1.64l-.26-.65-.21-.52c-.07-.06-.1-.12-.1-.16a.3.3,0,0,0,0-.16.3.3,0,0,1,0-.13,2.12,2.12,0,0,0,.14.45,12.73,12.73,0,0,0,.42,1.21,5.09,5.09,0,0,1,.33.76,8.3,8.3,0,0,0,.37.9l.37.92c.12.32.26.64.42,1s.31.65.47,1l.46.91q.23.45.44.82t.44.73l.39.64a4.68,4.68,0,0,0,.3.46l.28.42,0-.09A.44.44,0,0,1,286.34,76.73Zm-.67-32.92-.41.06-.18,0a.3.3,0,0,1,.18,0,1.7,1.7,0,0,0,.41,0,2.84,2.84,0,0,1,.71,0l.88-.08a6.87,6.87,0,0,1,1,0l1.14,0,.65,0,.64,0,.64.07.64.07.64.08.64.12.61.12a2.89,2.89,0,0,1,.6.17l.57.14.57.14a2.67,2.67,0,0,0,.51.16,1.84,1.84,0,0,1,.46.16l.79.35.34.12.28.12a4.1,4.1,0,0,0,.39.22.18.18,0,0,0,.11.06.18.18,0,0,1-.11-.06l-.39-.22a.59.59,0,0,0-.25-.14,1.05,1.05,0,0,1-.31-.14l-.39-.17-.45-.18a2.86,2.86,0,0,0-.45-.18,5.09,5.09,0,0,1-.51-.18,4.48,4.48,0,0,0-.54-.18,4.63,4.63,0,0,1-.54-.18L294,44.1,293.3,44l-.61-.12-.67-.12-1.29-.1-.64,0a4.56,4.56,0,0,0-.65,0h-1.21a9.12,9.12,0,0,0-1,.06l-.89.08Zm-1.39,27.94a4.36,4.36,0,0,1-.24-.37.31.31,0,0,1,0-.13.31.31,0,0,0,0,.13.34.34,0,0,1,0,.18.24.24,0,0,0,.09.18l.2.52a5.83,5.83,0,0,0,.25.57,2.6,2.6,0,0,0,.25.54,3.69,3.69,0,0,1,.25.5,3,3,0,0,1,.19.32.5.5,0,0,0,.09.14c-.06-.15-.12-.32-.18-.5l-.2-.5-.25-.59Zm6.73-10a5.19,5.19,0,0,0,.73-.2l.28-.11-.28.06-.33.06a2.43,2.43,0,0,0-.45.09l-.48.14-.53.13-1.17.3q-1.23.3-2.22.59c-.37.09-.7.19-1,.29a1.11,1.11,0,0,0,.27,0l.3-.07.47-.1a3.4,3.4,0,0,1,.5-.12l.55-.12,1.17-.31,1.17-.3A7.22,7.22,0,0,0,291,61.76Z"/><path d="M326.74,70.24c.13-.06.3,0,.52.26a4,4,0,0,1,.62.9,7.12,7.12,0,0,1,.47,1.13,1.79,1.79,0,0,1,.1.93,3.84,3.84,0,0,1-.93,1.31,25.32,25.32,0,0,1-2.09,2q-1.27,1.07-2.84,2.22a31.19,31.19,0,0,1-3.17,2,18.42,18.42,0,0,1-3.08,1.39,5.24,5.24,0,0,1-2.68.27,3,3,0,0,1-1.36-.75A10.36,10.36,0,0,1,311,80.47a7.91,7.91,0,0,1-1-1.56,2.23,2.23,0,0,1-.28-1.25l.06-.35q-1.23.72-2.45,1.35T305,79.74a15.59,15.59,0,0,1-2.11.68,4.77,4.77,0,0,1-1.74.13,5,5,0,0,1-2.35-1,12.09,12.09,0,0,1-2.07-2,10.88,10.88,0,0,1-1.47-2.35,4.14,4.14,0,0,1-.46-2.08,8.25,8.25,0,0,1,1.43-3.65,19,19,0,0,1,3.2-3.65,31.11,31.11,0,0,1,4.38-3.26A33.22,33.22,0,0,1,308.66,60a26,26,0,0,1,4.72-1.47,10,10,0,0,1,3.75-.17,4.48,4.48,0,0,1,2.74,1.52,6.26,6.26,0,0,1,1.27,2.41,4.84,4.84,0,0,1,.11,2.18c-.13.63-.36.91-.68.84a.89.89,0,0,1-.71-.53q-.17-.42-.32-.92a2.85,2.85,0,0,0-.51-1,2.11,2.11,0,0,0-1.29-.64,7.94,7.94,0,0,0-3.25.19,23.19,23.19,0,0,0-4.13,1.42A32,32,0,0,0,306,66.24a28.72,28.72,0,0,0-3.87,3,19.25,19.25,0,0,0-2.85,3.24,7.08,7.08,0,0,0-1.3,3.09,1.05,1.05,0,0,0,1,1.32,5.59,5.59,0,0,0,2.49-.36,18,18,0,0,0,2.95-1.36q1.52-.86,3.14-1.94t3.06-2.1q1.45-1,2.59-1.91t1.85-1.38c.35-.32.6-.47.75-.44s.38.23.71.61a15.54,15.54,0,0,1,1.84,2.63,1.74,1.74,0,0,1,.31.87,2.7,2.7,0,0,1-.49.66q-.47.53-1.08,1.28L315.83,75q-.7.82-1.21,1.55a10.82,10.82,0,0,0-.77,1.22q-.25.49.05.55a4,4,0,0,0,2.2-.31,14.48,14.48,0,0,0,2.54-1.34,28.31,28.31,0,0,0,2.6-1.91q1.29-1.06,2.42-2t1.94-1.67A6.36,6.36,0,0,1,326.74,70.24Zm-28.5-2a7.09,7.09,0,0,1,.71-.78l.82-.76.94-.77q.46-.38.94-.76t1-.73l1.06-.72a24,24,0,0,1,2.18-1.31q1.15-.61,2.29-1.14l1.09-.52a11.48,11.48,0,0,1,1.08-.43c.36-.15.72-.28,1.08-.4l1-.32a14,14,0,0,1,1.85-.48,1.51,1.51,0,0,1,.38-.07,1.49,1.49,0,0,0,.38-.06,4.2,4.2,0,0,1,.69-.05l.58,0a1.57,1.57,0,0,1,.39,0,.26.26,0,0,0,.14,0H317l.11,0-.33-.06h-.39a.79.79,0,0,1-.28,0,.79.79,0,0,0-.29,0l-.35,0-.4,0a1.46,1.46,0,0,1-.38.06,1.52,1.52,0,0,0-.38.07q-.47.05-.94.15c-.31.06-.63.14-.95.24q-1,.27-2.12.67t-2.31.92q-1.15.54-2.29,1.12a22.46,22.46,0,0,0-2.24,1.33q-1,.7-2.07,1.5l-.94.77q-.46.39-.89.78A17.78,17.78,0,0,0,298,68a5.81,5.81,0,0,0-.63.81,3.48,3.48,0,0,1-.28.39,3.59,3.59,0,0,0-.29.39,5.75,5.75,0,0,0-.43.73q-.17.36-.32.69a1,1,0,0,0-.17.31,1.39,1.39,0,0,1-.11.28,1.09,1.09,0,0,0-.09.3.69.69,0,0,1-.08.26,1.9,1.9,0,0,0-.1.41l0,.33,0,.31v-.09a.43.43,0,0,1,.08-.21l0-.31a.37.37,0,0,0,.07-.19.66.66,0,0,1,.08-.23,1,1,0,0,1,.21-.51,3.51,3.51,0,0,1,.28-.63,8.65,8.65,0,0,1,.79-1.37l.57-.73a2.19,2.19,0,0,1,.31-.38Zm9.47,9.54.51-.25.41-.22L309,77l-.34.17-.42.17-.54.25A5.4,5.4,0,0,1,307,78l-.73.31-.76.33c-.24.11-.51.22-.8.32a1.87,1.87,0,0,0-.41.16,1.91,1.91,0,0,1-.41.16l-.35.13-.4.12-.4.1-.4.1a.85.85,0,0,1-.34.06l-.34,0a.82.82,0,0,1-.31,0,.81.81,0,0,1-.31,0l-.45-.06-.17,0-.12,0h0a.44.44,0,0,0,.15.06.44.44,0,0,1,.15.06l.22.05a.4.4,0,0,0,.23,0l.3,0a1.29,1.29,0,0,0,.36,0l.34,0a.86.86,0,0,0,.34-.06,2.57,2.57,0,0,0,.39-.05l.4-.1.4-.12.41-.12a2,2,0,0,0,.41-.16,1.92,1.92,0,0,1,.41-.16,6.81,6.81,0,0,0,.81-.34q.37-.19.76-.35l.7-.31C307.32,78,307.52,77.84,307.71,77.73Zm-3.94-1.59a.78.78,0,0,0-.22.1l-.06,0,.06,0a.78.78,0,0,1,.22-.1l.34-.15a3.42,3.42,0,0,1,.45-.18l.48-.24.55-.32a6.31,6.31,0,0,0,.58-.31l.58-.35.56-.36.51-.36a5,5,0,0,0,.51-.34,4.21,4.21,0,0,1,.45-.3l.34-.3a1.57,1.57,0,0,1,.28-.22,1.46,1.46,0,0,1,.25-.18l-.3.17-.3.17a3.14,3.14,0,0,0-.36.25,4,4,0,0,0-.45.3,5.21,5.21,0,0,1-.51.34l-.56.35-.56.36-1.11.67-.52.32a3.78,3.78,0,0,1-.46.24,4.59,4.59,0,0,0-.46.24Zm9.54-16.22.41-.11a1.72,1.72,0,0,0,.31-.12l.3-.08s0,0-.06,0H314a1.05,1.05,0,0,1-.33.1l-.5.07-.5.11a4,4,0,0,0-.57.19l-.62.16a4.09,4.09,0,0,0-.63.21l-.57.24-.57.24-.54.25-.43.22-.4.23-.28.16-.25.14a.56.56,0,0,1,.25-.14l.72-.29,1-.42,1.2-.47a5.06,5.06,0,0,1,.6-.21,5.38,5.38,0,0,0,.6-.21l.54-.17A2.33,2.33,0,0,1,313.3,59.92Z"/><path d="M351.34,77.5a.89.89,0,0,1,1.13-.08,2.82,2.82,0,0,1,.94,1.09,3.88,3.88,0,0,1,.44,1.5,1.15,1.15,0,0,1-.41,1.11,34,34,0,0,1-4.16,2.65A29.3,29.3,0,0,1,343.81,86a28.37,28.37,0,0,1-6.5,1.17,23,23,0,0,1-7.37-.79l-.1,0h0l-.1,0a7.09,7.09,0,0,1-2.06-1,7.36,7.36,0,0,1-1.51-1.43,7.45,7.45,0,0,1-1-1.7,12,12,0,0,1-.61-1.77q-2.26,2.93-4.37,5.86t-3.73,5.32c-1.08,1.59-1.95,2.94-2.62,4a10.19,10.19,0,0,0-1.08,2q-.06.3-.72,0a9,9,0,0,1-1.4-.9,9.19,9.19,0,0,1-1.34-1.26c-.4-.46-.58-.82-.53-1.08a10.15,10.15,0,0,1,1-1.67c.64-1,1.48-2.22,2.53-3.75s2.26-3.23,3.65-5.09,2.84-3.78,4.35-5.72,3-3.85,4.53-5.71,2.87-3.52,4.08-5,2.23-2.71,3-3.7a9.07,9.07,0,0,0,1.28-1.82q.26-1,.89-.84a2.63,2.63,0,0,1,1.22.91,7.29,7.29,0,0,1,1,1.66,2.3,2.3,0,0,1,.27,1.44,4.8,4.8,0,0,1-.58,1c-.35.5-.84,1.11-1.46,1.86a35.4,35.4,0,0,1,5.32-2.55,6.36,6.36,0,0,1,3.88-.47,3.25,3.25,0,0,1,1.34.85,4.12,4.12,0,0,1,1,1.71,7.8,7.8,0,0,1,.27,2.65,13.86,13.86,0,0,1-.74,3.62,13,13,0,0,1-1,2.3,24.3,24.3,0,0,1-1.58,2.44,30.59,30.59,0,0,1-2,2.42,24.25,24.25,0,0,1-2.26,2.2,23.19,23.19,0,0,0,3.92-.88,27.39,27.39,0,0,0,3.48-1.37A24.05,24.05,0,0,0,349,79.18,28.17,28.17,0,0,0,351.34,77.5ZM312,91q.36-.56.74-1.11l.67-1c.2-.32.41-.63.65-.95l-.2.23a1.94,1.94,0,0,0-.26.31l-.28.39c-.09.13-.21.27-.34.43a3.19,3.19,0,0,0-.35.51l-.4.53c-.13.17-.27.36-.41.57a3.42,3.42,0,0,1-.36.58,3.71,3.71,0,0,0-.35.54q-.3.52-.64,1a3.78,3.78,0,0,0-.43.72c-.05.11-.1.2-.15.28l.19-.23a1.33,1.33,0,0,0,.23-.29l.25-.42c.09-.13.2-.27.33-.43a3.09,3.09,0,0,0,.35-.52q.2-.27.38-.55Zm17.87-24,.32-.46a2.16,2.16,0,0,1,.28-.34,2.21,2.21,0,0,0,.24-.26h-.05q-.36.5-.84,1.06t-1,1.18q-.58.65-1.25,1.53-1.42,1.69-3.19,3.85t-3.51,4.47q-3.3,4.22-6.41,8.52l-2.79,3.88,0,.05a2.33,2.33,0,0,1,.2-.27l.26-.33.34-.45a12.83,12.83,0,0,1,.92-1.23q.56-.67,1.21-1.57l1.46-1.83c.52-.66,1-1.35,1.58-2.07s1.11-1.46,1.71-2.21,1.21-1.51,1.81-2.28,1.15-1.53,1.73-2.29l1.74-2.19q.86-1.1,1.65-2.07t1.45-1.84l.63-.84q.29-.38.56-.77a6.47,6.47,0,0,0,.53-.64Zm-2.33,10.38q-.28.7-.56,1.58a7.06,7.06,0,0,0-.32,1.71,3.09,3.09,0,0,0,.24,1.47A1.53,1.53,0,0,0,328,83a5.81,5.81,0,0,0,3.29-.1,11.73,11.73,0,0,0,3.23-1.65,18,18,0,0,0,3-2.72,34,34,0,0,0,2.59-3.28,31.13,31.13,0,0,0,2-3.33A18.38,18.38,0,0,0,343.39,69a8.59,8.59,0,0,0-3.43.8A37.06,37.06,0,0,0,335,72.27,64.8,64.8,0,0,0,327.56,77.45Zm4.57-7.4-.51.43-.37.33a1.4,1.4,0,0,0-.31.33.12.12,0,0,1,.08-.07l.28-.2a4.86,4.86,0,0,1,.4-.33l.54-.43.69-.45.75-.48a9.32,9.32,0,0,1,.8-.53q.44-.27.91-.5.83-.5,1.77-1a15.51,15.51,0,0,1,1.61-.78c.23-.12.44-.22.64-.3l.5-.2a.44.44,0,0,0,.18-.11.28.28,0,0,1,.11-.08l.13-.05-.13.05-.33.13-.52.19a5,5,0,0,0-.67.29,6.68,6.68,0,0,0-.78.3L337,67l-.91.48-.91.48-.86.52a9.56,9.56,0,0,0-.8.54,7.91,7.91,0,0,0-.73.51Q332.47,69.82,332.13,70.05Zm6.81-1.86-1,.43c-.22.09-.44.19-.67.31s-.45.25-.69.4l-.78.42-.78.47a7.93,7.93,0,0,1-.73.48l-.72.44-.67.48-.58.37-.49.37-.36.31a1.11,1.11,0,0,0-.29.24l.34-.23.35-.25a5.92,5.92,0,0,1,.54-.33c.18-.13.39-.27.61-.4l.68-.43.72-.44a8.18,8.18,0,0,0,.73-.48l.79-.47.72-.44c.23-.15.46-.28.69-.4s.45-.22.66-.31a2.55,2.55,0,0,0,.55-.3,1.94,1.94,0,0,1,.42-.25,1.34,1.34,0,0,1,.39-.16ZM335.23,82.3l.1-.06.1-.06.06,0-1.06.47a5.53,5.53,0,0,1-.51.26l-.56.25a5.51,5.51,0,0,0-.67.27,6,6,0,0,1-.66.23,4.69,4.69,0,0,0-.69.17l-.34.07-.34.07c-.3,0-.5.08-.62.11h-.32l-.27,0q-.54,0-.91,0a.63.63,0,0,1-.26,0s-.05,0-.06,0h0a.67.67,0,0,0,.26,0l.45,0a3.53,3.53,0,0,0,.51,0,1.05,1.05,0,0,1,.27,0,.87.87,0,0,0,.33,0,3.78,3.78,0,0,0,.65-.05,4.59,4.59,0,0,0,.68-.13,3.55,3.55,0,0,0,.74-.16,12,12,0,0,0,1.28-.53l1.08-.54.42-.24Zm4.57-4.92.41-.61.41-.61a5.2,5.2,0,0,0,.35-.6,4.82,4.82,0,0,1,.36-.6l.28-.53.28-.53q.27-.51.46-.92c.12-.27.23-.51.34-.72a1.13,1.13,0,0,1,.11-.26.9.9,0,0,0,.08-.18l.05-.17-.35.58c-.14.2-.29.43-.44.69s-.32.54-.49.86l-.28.53a4.11,4.11,0,0,1-.33.52l-.38.57-.37.57c-.14.2-.28.4-.43.58s-.29.38-.43.58-.28.4-.43.6a4.39,4.39,0,0,1-.54.57c-.08.13-.15.24-.21.33a1.74,1.74,0,0,1-.25.27,3.29,3.29,0,0,0-.28.28,3.38,3.38,0,0,1-.28.28l-.27.26-.27.26a1.69,1.69,0,0,0-.26.22l-.27.26a3.61,3.61,0,0,0-.57.45,2.45,2.45,0,0,1-.56.41l-.27.2-.27.2a1.43,1.43,0,0,0-.26.15,1.62,1.62,0,0,1-.26.15l-.49.27-.47.23a2.35,2.35,0,0,1-.39.21,2.44,2.44,0,0,0-.42.16l-.68.31.19-.09a1.14,1.14,0,0,1,.27-.09l.32-.07a1.49,1.49,0,0,0,.36-.13l.21-.08.21-.08.5-.22.56-.25a1.6,1.6,0,0,0,.26-.15.84.84,0,0,1,.31-.14l.27-.19.28-.19a4.65,4.65,0,0,0,1.18-.84l.28-.21.3-.26.27-.26.27-.26a2.49,2.49,0,0,0,.56-.57,1.83,1.83,0,0,0,.25-.27,3.75,3.75,0,0,1,.26-.31c.17-.19.33-.39.49-.59S339.62,77.58,339.79,77.38Zm1.67-10.65-.41.09-.41.09-.48.13-.42.15-.4.18-.4.18-.38.21-.31.18a1.48,1.48,0,0,0-.43.29l-.16.14.2-.08.23-.12.25-.16q.33-.13.7-.32a5.44,5.44,0,0,1,.82-.33,2.28,2.28,0,0,1,.85-.3l.4-.16.19,0,.19,0a2.08,2.08,0,0,0,.56-.11h.17s.06,0,.07,0l-.24,0A5,5,0,0,0,341.46,66.74Z"/><path d="M368,84.13c.29-.19.59-.14.92.17a3.72,3.72,0,0,1,.82,1.19,5,5,0,0,1,.43,1.45q.09.72-.24.91c-1.18.75-2.53,1.56-4,2.46a34.21,34.21,0,0,1-4.72,2.33A21.44,21.44,0,0,1,356.23,94a9.5,9.5,0,0,1-4.84-.54,7.84,7.84,0,0,1-1.88-1.13,8.62,8.62,0,0,1-1.92-2.1,8.39,8.39,0,0,1-1.21-3,6.94,6.94,0,0,1,.34-3.72,10,10,0,0,1,1.56-2.46q1.28-1.62,3.14-3.62t4.12-4.16q2.26-2.17,4.48-4.14-1.1-.32-2.12-.7L356,67.72a3.16,3.16,0,0,1-1.83-1.33,2.75,2.75,0,0,1-.36-1.59,2.58,2.58,0,0,1,.48-1.3q.4-.53.73-.42l1.56.55,2.35.83,2.55.91,2.09.73c2.36-2,4.24-3.53,5.59-4.63a12.38,12.38,0,0,0,2.16-2q.28-.69,1-.33a4.25,4.25,0,0,1,1.36,1.21,8.34,8.34,0,0,1,1.08,1.84,2.05,2.05,0,0,1,.16,1.6A7.21,7.21,0,0,1,373.47,65c-.88.64-2.25,1.68-4.08,3.14q2.64,1,4.77,1.86c1.42.6,2.45,1.05,3.09,1.34a5.26,5.26,0,0,1,1.57,1,2,2,0,0,1,.55,1,1.68,1.68,0,0,1-.1,1c-.13.33-.27.65-.42,1a.66.66,0,0,1-.8.4,6.14,6.14,0,0,1-1.29-.46Q374.25,74,371.45,73t-5.59-1.93q-2.45,2-5.12,4.46t-4.94,4.8a54.49,54.49,0,0,0-3.92,4.54,14.78,14.78,0,0,0-2.19,3.64q-.36,1,.27,1.22a8.45,8.45,0,0,0,4.4.33,24.67,24.67,0,0,0,4.87-1.36A40.82,40.82,0,0,0,364,86.47Q366.32,85.21,368,84.13Zm-20.7,4.56a1.42,1.42,0,0,0,.18.44l.1.18a.49.49,0,0,1-.05-.16c0-.07,0-.14-.06-.23l-.09-.29a.75.75,0,0,1-.09-.29,1.62,1.62,0,0,0-.08-.33c0-.13-.05-.26-.09-.38a3,3,0,0,1-.07-.42c0-.13,0-.26-.06-.37s0-.24-.06-.37a2.6,2.6,0,0,1-.1-.68c0-.09,0-.18,0-.26a.46.46,0,0,1,0-.2.16.16,0,0,1,0-.14v0l-.06.17a.85.85,0,0,0,0,.2c0,.07,0,.17,0,.3a1.44,1.44,0,0,1,0,.3,1,1,0,0,0,0,.35,3.44,3.44,0,0,1,.06.39,3.39,3.39,0,0,0,.06.39c.05.27.12.53.19.79A3,3,0,0,0,347.3,88.69Zm5.89-12.45-1,1.12q-.47.49-.78.89l-.62.76a.5.5,0,0,0,.18-.17l.22-.22.32-.33q.35-.34.82-.83t1.08-1.06L354.88,75l1.86-1.73q1-.91,2-1.79l1.84-1.65.2-.21.2-.2a1.52,1.52,0,0,1-.44-.12.76.76,0,0,0-.14.13.74.74,0,0,1-.14.13c-.3.26-.64.57-1,.93s-.78.72-1.19,1.08-.81.71-1.18,1.06l-.93.9q-.76.75-1.42,1.44T353.19,76.25Zm-.26,1.35a.93.93,0,0,0,.25-.21,3.29,3.29,0,0,1,.28-.29l.78-.7.41-.39a5.51,5.51,0,0,1,.48-.41l.43-.43.41-.39.39-.4.37-.35.69-.73-.83.63-.37.35-.37.35a3.58,3.58,0,0,1-.44.4,3,3,0,0,0-.46.44l-.83.82-.37.38-.36.34a2.61,2.61,0,0,0-.29.32l-.21.25a1.19,1.19,0,0,1-.19.21Zm12.51-12.49c-.2.17-.34.29-.42.35a1.72,1.72,0,0,0-.23.19l-.25.23-.51.41.38.15.45-.43a1.68,1.68,0,0,0,.21-.22,1.59,1.59,0,0,1,.17-.19c.07-.07.19-.18.38-.32q.65-.54,1.17-1a7.76,7.76,0,0,1,.95-.78,3.48,3.48,0,0,0,.3-.28l.22-.22a1.1,1.1,0,0,1,.21-.2,1.41,1.41,0,0,0-.19.16.71.71,0,0,0-.29.17l-.34.29q-.45.34-1,.77C366.33,64.44,365.92,64.76,365.44,65.11Z"/><path d="M393.11,92.82a.75.75,0,0,1,.89.27,3.94,3.94,0,0,1,.75,1.13,5.55,5.55,0,0,1,.41,1.29c.08.42,0,.67-.09.76a34.86,34.86,0,0,1-3.39,1.84,20.58,20.58,0,0,1-4.47,1.53A18.35,18.35,0,0,1,382,100a13.74,13.74,0,0,1-5.51-1.6l-.45-.23a3.13,3.13,0,0,1-.43-.27q-1.55.59-3.08,1a19.4,19.4,0,0,1-3,.58,13.17,13.17,0,0,1-2.75,0,7.51,7.51,0,0,1-2.39-.62,5.25,5.25,0,0,1-1.37-1.12,11.26,11.26,0,0,1-1.58-2.14A10.07,10.07,0,0,1,360.44,93a4.14,4.14,0,0,1,.19-2.69,7.07,7.07,0,0,1,1.51-2.15,17.59,17.59,0,0,1,2.47-2.07,22.14,22.14,0,0,1,3-1.76,28.25,28.25,0,0,1,3.05-1.28l.34-.76a3.92,3.92,0,0,1,2.08-1.88,11.8,11.8,0,0,1,3.5-.94,16.22,16.22,0,0,1,4,0,10.31,10.31,0,0,1,3.36.93,4.19,4.19,0,0,1,1.4,1.38,7.36,7.36,0,0,1,1.08,2.47,10.46,10.46,0,0,1,.25,3.12,8,8,0,0,1-1,3.35,9.94,9.94,0,0,1-2.38,2.79,24.09,24.09,0,0,1-3.69,2.55,8.37,8.37,0,0,0,3.61.33,17.47,17.47,0,0,0,3.69-.85,30,30,0,0,0,3.42-1.43Q391.9,93.33,393.11,92.82Zm-29.72-.74a95,95,0,0,1,.51-.64,3.71,3.71,0,0,0,.36-.35,3.9,3.9,0,0,1,.36-.35,2.93,2.93,0,0,1,.76-.67l.36-.27.36-.27a1,1,0,0,0,.25-.23.37.37,0,0,1,.21-.15.55.55,0,0,1,.24-.13l-.24.13a.84.84,0,0,0-.26.12l-.28.16a4.72,4.72,0,0,0-.76.53c-.12.11-.26.21-.4.3s-.27.2-.4.31a2,2,0,0,0-.34.38,2,2,0,0,1-.34.38,1.21,1.21,0,0,0-.27.36.82.82,0,0,1-.1.17.88.88,0,0,0-.1.17,1.68,1.68,0,0,0-.19.3l-.11.24-.09.2,0,0a.09.09,0,0,1,.05,0s0,0,.07-.09a1.38,1.38,0,0,1,.13-.23Zm.35.25L364,92a2.36,2.36,0,0,1,.31-.32,6.44,6.44,0,0,1,.76-.67l.51-.35a2.5,2.5,0,0,1,.46-.37l.53-.34.53-.34,1.17-.63.6-.28.59-.24,0-.43-.2.05-.61.28a5.89,5.89,0,0,0-.62.32l-1.17.63-.58.37-.51.35a2.06,2.06,0,0,0-.27.22l-.21.2a.64.64,0,0,0-.23.19.59.59,0,0,1-.23.19l-.37.39a3.66,3.66,0,0,1-.36.35c-.08.09-.19.21-.32.34a1.15,1.15,0,0,1-.11.19,1.15,1.15,0,0,0-.11.19,3.21,3.21,0,0,0-.36.56.4.4,0,0,0-.12.21.83.83,0,0,1-.06.19l-.05.12.05-.12a1.26,1.26,0,0,0,.23-.38,1.41,1.41,0,0,0,.19-.23A1.46,1.46,0,0,1,363.74,92.33Zm-.46,2a9.23,9.23,0,0,0,3.87.76,16.59,16.59,0,0,0,4.29-.63,8.59,8.59,0,0,1-1.52-2.74,9.71,9.71,0,0,1-.48-2.76A16.18,16.18,0,0,0,365.82,91,8.24,8.24,0,0,0,363.28,94.29Zm8.19-6.12a3.13,3.13,0,0,0-.22,2.64,6,6,0,0,0,2.66,2.81,32.81,32.81,0,0,0,3.49-1.6,25.06,25.06,0,0,0,3.11-1.94A21.09,21.09,0,0,0,383,88a9,9,0,0,0,1.6-2.09.9.9,0,0,0-.44-1.37,7,7,0,0,0-3.66-.62,15.59,15.59,0,0,0-4.28.89,4.66,4.66,0,0,1,.24,1.55q0,.7-.37.77c-.22,0-.75.12-1.6.28A24.35,24.35,0,0,0,371.47,88.17ZM371,94.92a1.32,1.32,0,0,0,.36-.07l.38-.11s0,0,0,0,0,0,0,0l-.74.18a3.4,3.4,0,0,0-.56.12,2.58,2.58,0,0,1-.49.11,3.3,3.3,0,0,1-.48.09l-.35.05-.32.07-.26,0a.29.29,0,0,1-.18,0l.74-.09.41-.05.47-.07.51-.08Zm1.36-7.81a1.57,1.57,0,0,0-.18.18l-.18.18.54-.18.52-.14.51-.12a3.2,3.2,0,0,0,.46-.14l.69-.16.69-.16H375l-.27,0q-.34.08-.77.14c-.29,0-.61.11-1,.19Zm3.75-6.54-.38.07-.3.05-.21,0,.05,0,.21,0,.31-.05.36,0,.42,0h.54l.5-.05a1.89,1.89,0,0,1,.53,0h.58a3.2,3.2,0,0,1,.51,0,2.73,2.73,0,0,0,.52,0,3.71,3.71,0,0,1,.47,0l.68,0,.24,0,0,0-.3,0a6.54,6.54,0,0,0-.66-.08l-1-.08c-.35,0-.72,0-1.1,0a9.17,9.17,0,0,0-1,.06Zm.82-.54c-.08,0-.12,0-.13,0s0,0-.08,0l-.07,0h.31a1.12,1.12,0,0,1,.32,0,3.06,3.06,0,0,0,.45,0,2.49,2.49,0,0,0,.56,0h.58a.8.8,0,0,1,.31,0,.78.78,0,0,0,.31,0,1.05,1.05,0,0,1,.33,0,1,1,0,0,0,.33,0c.13,0,.36,0,.68,0a4.68,4.68,0,0,0,.61.06l.58.12a4,4,0,0,0,.53.09,2.35,2.35,0,0,1,.45.13.58.58,0,0,1,.2.05.58.58,0,0,0,.2.05l.2.1s.06,0,.07,0l-.31-.16-.31-.16a2.22,2.22,0,0,0-.48-.19,4.36,4.36,0,0,0-.55-.18,1.32,1.32,0,0,1-.29-.07,1.29,1.29,0,0,0-.29-.07c-.23,0-.46-.09-.68-.11l-.7-.07-.66,0a4.35,4.35,0,0,0-.67,0,5.87,5.87,0,0,0-1.07.12A3.21,3.21,0,0,0,376.9,80ZM378.57,92l.32-.21.32-.21c.22-.12.43-.23.61-.35l.56-.38a3,3,0,0,1,.51-.38,3.58,3.58,0,0,0,.49-.34q.83-.76,1.38-1.21a2.34,2.34,0,0,1,.35-.31.34.34,0,0,0,.13-.13.33.33,0,0,1-.13.13l-.19.12-.21.16c-.16.15-.37.32-.62.52s-.53.4-.84.6c-.15.12-.3.24-.46.35l-.53.37-.56.38c-.18.12-.39.24-.61.35a5.82,5.82,0,0,1-.62.37l-.32.21a1.61,1.61,0,0,1-.3.17l-.72.35c-.21.11-.44.23-.67.37l-.73.3-.72.3a1.22,1.22,0,0,1-.38.16,1.21,1.21,0,0,0-.38.16l.19.1.67-.26.72-.3.73-.3.72-.35q.32-.16.68-.37l.31-.19ZM382,90.15c.17-.17.35-.34.54-.49s.36-.31.54-.49.34-.34.49-.51.29-.33.42-.5a3.19,3.19,0,0,0,.43-.52,4.65,4.65,0,0,1,.34-.47l.39-.74.16-.31,0,.08a.3.3,0,0,1-.08.08.39.39,0,0,0-.1.12,3.09,3.09,0,0,1-.19.3c-.09.12-.18.25-.3.39a4.87,4.87,0,0,0-.33.45,3.11,3.11,0,0,1-.42.5l-.48.49-.48.49-.51.5-.51.5q-.24.22-.49.41l-.45.33-.38.32a1.28,1.28,0,0,1-.32.2.6.6,0,0,0-.15.17.12.12,0,0,1-.09.05l.27-.16a2.3,2.3,0,0,0,.35-.19,4.42,4.42,0,0,0,.41-.31l.48-.32A3.74,3.74,0,0,0,382,90.15Z"/><path d="M406.69,106.07a1.12,1.12,0,0,1,1.09.3,3.51,3.51,0,0,1,.91,1.17,3.46,3.46,0,0,1,.37,1.39.87.87,0,0,1-.48.92,18.7,18.7,0,0,1-1.82.65q-1.31.42-3.13.87c-1.21.31-2.51.6-3.89.88a37.29,37.29,0,0,1-4,.61,23.4,23.4,0,0,1-3.65.08,5.88,5.88,0,0,1-2.75-.76,4,4,0,0,1-.8-.85,6.87,6.87,0,0,1-.93-1.67,6.79,6.79,0,0,1-.47-2.1,3.79,3.79,0,0,1,.56-2.22,8.43,8.43,0,0,1,2.55-2.63,34.14,34.14,0,0,1,3.55-2.15l3.38-1.75a5,5,0,0,0,2-1.45c.06-.1-.09-.41-.46-.93a13,13,0,0,0-1.12-1.38q-1.67.79-3.72,1.82l-3.67,1.87a.77.77,0,0,1-1.05-.15,3.22,3.22,0,0,1-.62-1.24,4,4,0,0,1-.13-1.51,1.1,1.1,0,0,1,.51-1l2.82-1.63q1.5-.86,2.9-1.57-.64-.83-1.19-1.7a7.21,7.21,0,0,1-.83-1.79,5.61,5.61,0,0,1-.24-1.87,4.29,4.29,0,0,1,.57-1.92,7,7,0,0,1,2-2.15,16,16,0,0,1,3-1.75,21.75,21.75,0,0,1,3.5-1.23,27.11,27.11,0,0,1,3.49-.68,17.54,17.54,0,0,1,2.93-.14,4.09,4.09,0,0,1,1.87.42A5.38,5.38,0,0,1,411,80.25a12.12,12.12,0,0,1,1.27,2.13,8.19,8.19,0,0,1,.7,2.3,2.74,2.74,0,0,1-.34,1.92A6,6,0,0,1,411,88q-1.22.83-3,1.86T403.86,92q-2.26,1.15-4.8,2.32.67.77,1.39,1.71A15.79,15.79,0,0,1,401.7,98a6.47,6.47,0,0,1,.7,1.75,1.76,1.76,0,0,1-.18,1.37,4.41,4.41,0,0,1-1.32,1q-1.08.64-2.46,1.42l-2.92,1.64q-1.53.85-2.71,1.63a15.44,15.44,0,0,0-1.8,1.34q-.63.57-.22.82a4.12,4.12,0,0,0,2.12.49,16.78,16.78,0,0,0,3-.25,32,32,0,0,0,3.33-.74q1.72-.48,3.23-.94t2.66-.86Zm-7.35-25.22.5-.22.5-.22,1-.32a2.25,2.25,0,0,1,.44-.15,2.4,2.4,0,0,0,.44-.15q.44-.15.77-.24c.22-.06.42-.12.6-.18l.51-.15H404l-.16,0-.23,0a2.58,2.58,0,0,1-.64.13,3.58,3.58,0,0,0-.81.19,3.09,3.09,0,0,0-.47.08l-.49.12-1,.32-.57.15-.52.18-1.08.45a3.93,3.93,0,0,1-.49.25l-.54.23-.46.27-.46.27-.43.29-.43.29a3.35,3.35,0,0,0-.64.55,1.37,1.37,0,0,0-.32.27,1.27,1.27,0,0,1-.23.23,2.32,2.32,0,0,0-.33.47.2.2,0,0,0-.11.14.19.19,0,0,1-.11.14l0,.08s0,0,0,.07l.06-.12a1.12,1.12,0,0,1,.22-.28l.41-.37a3.49,3.49,0,0,1,.58-.43l.37-.24.37-.24.42-.27.42-.27.95-.47,1-.48Zm-6.27,7.45s0,0,0-.07V88a.89.89,0,0,1-.07-.29c0-.1,0-.23,0-.37a3,3,0,0,1,.06-.93.61.61,0,0,1,.07-.24.61.61,0,0,0,.07-.24,1.15,1.15,0,0,0,.1-.24,1.23,1.23,0,0,1,.1-.24l.24-.42a1.77,1.77,0,0,0,.31-.43,3.58,3.58,0,0,0,.29-.34,3.71,3.71,0,0,1,.29-.34.89.89,0,0,0,.29-.22,1.49,1.49,0,0,1,.22-.21.16.16,0,0,1,.07-.06.16.16,0,0,0,.07-.06l0,0s-.06,0-.07,0a.16.16,0,0,1-.07.06.16.16,0,0,0-.07.06,1.26,1.26,0,0,0-.22.15,3.08,3.08,0,0,1-.34.24.35.35,0,0,0-.15.14.34.34,0,0,1-.15.14,1.21,1.21,0,0,0-.34.37,1.36,1.36,0,0,0-.29.39,1.79,1.79,0,0,0-.31.43,1.87,1.87,0,0,0-.16.52,1.9,1.9,0,0,0-.16.52c0,.17,0,.32,0,.48s0,.31,0,.48a3,3,0,0,0,0,.38,1.63,1.63,0,0,0,.09.3Zm2.79-.58a2.24,2.24,0,0,0-.33,1.49,4.4,4.4,0,0,0,.66,1.61q2.86-1.48,5.42-2.85c1.7-.92,3.18-1.75,4.44-2.49s2.21-1.35,2.87-1.83.89-.79.68-.92a2.77,2.77,0,0,0-1.32-.18,14.42,14.42,0,0,0-2.37.27q-1.36.25-2.9.68a19.73,19.73,0,0,0-3,1.08A16.64,16.64,0,0,0,397.52,86,5.47,5.47,0,0,0,395.86,87.71Zm4.12,2,1-.5,1-.5.93-.51.88-.54.42-.23.42-.23c.25-.19.49-.35.72-.49a9.52,9.52,0,0,1,1-.76.51.51,0,0,1,.12-.13.57.57,0,0,0,.12-.13s.06-.07.1,0l0,0a1.23,1.23,0,0,1-.43.25l-.52.27c-.2.1-.41.22-.64.35q-.7.45-1.58.94t-1.87,1q-1,.55-1.85,1l-1.61.88q-.85.41-1.58.85l0,0,.5-.16a2.6,2.6,0,0,1,.51-.24,6.27,6.27,0,0,0,.67-.29A14.12,14.12,0,0,0,400,89.74Zm-10.4,14.56a.3.3,0,0,1-.11.09,2.88,2.88,0,0,0-.32.22l-.37.42-.42.49a3.54,3.54,0,0,0-.47,1.1.9.9,0,0,0-.06.42.3.3,0,0,1,0,.14.16.16,0,0,1,0-.14.65.65,0,0,0,.07-.16.73.73,0,0,1,.09-.2,2.78,2.78,0,0,1,.23-.5l.32-.55c.13-.16.26-.32.38-.49a3.42,3.42,0,0,1,.34-.41.88.88,0,0,1,.25-.31Zm3.18-2.14a.38.38,0,0,1,.1-.12.41.41,0,0,0,.1-.12.12.12,0,0,1,.09,0,.12.12,0,0,0-.09,0,.14.14,0,0,0-.1.07.31.31,0,0,1-.13.1l-.41.26a4.5,4.5,0,0,0-.46.34l-.54.42a6,6,0,0,0-.58.5l-.28.27-.31.3-.54.6a3.79,3.79,0,0,0-.28.32,2.8,2.8,0,0,0-.24.34,1,1,0,0,0-.22.33,1,1,0,0,1-.23.33,1.68,1.68,0,0,1-.16.37,1.18,1.18,0,0,0-.13.33.35.35,0,0,1,0,.18.33.33,0,0,0,0,.18.62.62,0,0,0-.07.32.6.6,0,0,0-.07.32.46.46,0,0,0,0,.14.55.55,0,0,1,0,.13.69.69,0,0,0,0,.26,1.24,1.24,0,0,1,0,.22l.09.26a.12.12,0,0,0,0,.1l0,0,0,0v-.1a.54.54,0,0,1,0-.27.73.73,0,0,1,0-.48.12.12,0,0,1,0-.1.31.31,0,0,0,0-.14.59.59,0,0,1,0-.28.33.33,0,0,1,0-.18.34.34,0,0,0,0-.18.42.42,0,0,0,.06-.14.38.38,0,0,1,.06-.15,1.23,1.23,0,0,1,.13-.33l.2-.34.2-.34a1.7,1.7,0,0,1,.25-.31,2.53,2.53,0,0,1,.23-.33c.08-.09.17-.19.27-.3a1.78,1.78,0,0,0,.26-.33,1,1,0,0,1,.31-.3l.27-.3a.93.93,0,0,1,.3-.23l.56-.51.51-.43A3.51,3.51,0,0,1,392.77,102.16Z"/><path d="M427.52,121.85a.81.81,0,0,1,1,.32,3.13,3.13,0,0,1,.49,1.36,3.51,3.51,0,0,1-.12,1.53,1.25,1.25,0,0,1-.76.91,33.82,33.82,0,0,1-4.81,1,28.5,28.5,0,0,1-5.88.16,28.12,28.12,0,0,1-6.41-1.25,22.75,22.75,0,0,1-6.52-3.35l-.62-.37-.59-.4a6.51,6.51,0,0,1-1.88-2,5.09,5.09,0,0,1-.69-2.07,4.64,4.64,0,0,1,.23-2,4.69,4.69,0,0,1,.91-1.61,4.18,4.18,0,0,1,1.06-.92,1.86,1.86,0,0,1,.81-.26.7.7,0,0,1,.48.12c.09.08.12.16.07.24a2.52,2.52,0,0,0-.66,2,4.16,4.16,0,0,0,1,2,9.66,9.66,0,0,0,2,1.82,12.23,12.23,0,0,0,2.45,1.33,7.81,7.81,0,0,0,2.3.57,2,2,0,0,0,1.65-.48q.42-.45-.15-1.39a17.34,17.34,0,0,0-1.62-2.16L409,114.36a20.31,20.31,0,0,1-2.1-2.86,7.34,7.34,0,0,1-1.06-2.85,3.32,3.32,0,0,1,.87-2.65,5.46,5.46,0,0,1,2.54-1.64,11.79,11.79,0,0,1,3.41-.53,20,20,0,0,1,3.83.32,25.76,25.76,0,0,1,3.79,1,29.16,29.16,0,0,1,3.25,1.32,12.35,12.35,0,0,1,2.23,1.32,2.75,2.75,0,0,1,1,1.45,3.81,3.81,0,0,1,.06,1.68,5.28,5.28,0,0,1-.59,1.61,6,6,0,0,1-.89,1.23,3.88,3.88,0,0,1-1.34.83,12.33,12.33,0,0,1-3.39.83,1.61,1.61,0,0,1-.84,0l-.65-.51a11.47,11.47,0,0,1-.9-.79,4.73,4.73,0,0,1-.71-.85c-.19-.29-.2-.5,0-.64a2.9,2.9,0,0,1,.92-.45l1.49-.52,1.49-.51a3.05,3.05,0,0,0,.93-.44c.07-.09-.14-.28-.64-.55a13.45,13.45,0,0,0-2-.86c-.84-.29-1.79-.58-2.83-.85a20.91,20.91,0,0,0-3-.55,13.47,13.47,0,0,0-2.68,0,2.39,2.39,0,0,0-1.7.73c-.05.07.14.35.58.84l1.62,1.85q1,1.11,2,2.53a21.23,21.23,0,0,1,1.78,2.85,8.74,8.74,0,0,1,.93,2.72,2.74,2.74,0,0,1-.52,2.19q-.3.38-.57.67c-.18.2-.35.37-.53.53a24.14,24.14,0,0,0,7.13.33A25.87,25.87,0,0,0,427.52,121.85ZM409.13,105l.54-.18a3.21,3.21,0,0,1,.59-.15l1.37-.16a10.74,10.74,0,0,1,1.53,0l1.6.09a23.81,23.81,0,0,1,3.2.49c1.06.24,2,.48,2.79.71l1.15.38c.33.11.61.21.84.31a1.13,1.13,0,0,1,.32.11,1.37,1.37,0,0,0,.25.11l.14.11s.06,0,.07,0l0,0-.08,0a.14.14,0,0,1-.08,0,5,5,0,0,1-.55-.26c-.25-.12-.55-.24-.87-.36l-1.14-.39-1.33-.42a11.78,11.78,0,0,0-1.46-.34q-.82-.17-1.63-.29t-1.6-.21a16.59,16.59,0,0,0-3.16,0,5,5,0,0,0-.72.08l-.67.12a3.31,3.31,0,0,0-.59.15l-.54.18a2.23,2.23,0,0,0-.85.43l-.36.23a.38.38,0,0,1-.11.11.36.36,0,0,0-.11.11,2,2,0,0,0-.32.37l-.07.11.07-.11a.75.75,0,0,1,.14-.15l.23-.19a.74.74,0,0,1,.22-.22,2.88,2.88,0,0,0,.34-.19,1.51,1.51,0,0,1,.41-.2A2.86,2.86,0,0,1,409.13,105Zm.56.39.66-.1.73-.1c.26,0,.5-.06.75-.06a6.24,6.24,0,0,0,.67-.06A2.42,2.42,0,0,1,413,105h.22l-.19,0-.25,0h-.28L411,105a4.69,4.69,0,0,0-1.35.34l-.43.13a.28.28,0,0,0-.12.08s.06,0,.07,0l.1,0c.1,0,.15,0,.17,0l.12,0Zm.73,16a.81.81,0,0,0,.25,0,.17.17,0,0,1,.11,0l-.34-.09-.42-.16a2.37,2.37,0,0,1-.5-.16l-.61-.27-.66-.3-.7-.41-.7-.41-.65-.48a1.64,1.64,0,0,1-.61-.45,3.4,3.4,0,0,1-.31-.26l-.27-.22a1.28,1.28,0,0,0-.24-.22,1.21,1.21,0,0,1-.24-.22,1.18,1.18,0,0,0-.22-.21.63.63,0,0,1-.17-.18c-.14-.17-.23-.29-.27-.36l-.19-.3,0,.07a1.3,1.3,0,0,0,.14.26l.12.16.12.16a1.15,1.15,0,0,0,.18.21,1.17,1.17,0,0,1,.18.21l.49.52a1.32,1.32,0,0,0,.26.24,1.32,1.32,0,0,1,.26.24l.65.48.65.48.73.43a6.61,6.61,0,0,0,.71.36l.36.16.35.16a2.43,2.43,0,0,0,.58.22l.29.11.25.08Z"/></svg>