<svg id="Spurs" xmlns="http://www.w3.org/2000/svg" viewBox="0 0 512 512"><defs><style>.cls-1{opacity:0.5;}.cls-2{fill:#fff;}.cls-3{fill:#841717;}.cls-4{fill:#cc8217;}</style></defs><title>Spurs</title><g class="cls-1"><ellipse class="cls-2" cx="260.09" cy="258.67" rx="242.51" ry="244.7"/><path class="cls-3" d="M260.09,506c-65.48,0-127-25.73-173.35-72.45a248.9,248.9,0,0,1,0-349.77C133,37.06,194.6,11.33,260.09,11.33s127,25.73,173.35,72.45a248.9,248.9,0,0,1,0,349.77C387.14,480.27,325.57,506,260.09,506Zm0-489.4A237.21,237.21,0,0,0,90.48,87.5a243.63,243.63,0,0,0,0,342.35,238.34,238.34,0,0,0,339.21,0,243.63,243.63,0,0,0,0-342.35A237.21,237.21,0,0,0,260.09,16.61Z"/></g><g class="cls-1"><ellipse class="cls-2" cx="258.82" cy="258.7" rx="169.5" ry="169.09"/><path class="cls-3" d="M258.82,429.82c-94.58,0-171.52-76.76-171.52-171.11S164.24,87.59,258.82,87.59,430.34,164.35,430.34,258.7,353.4,429.82,258.82,429.82Zm0-338.19c-92.35,0-167.48,74.95-167.48,167.08s75.13,167.07,167.48,167.07S426.3,350.83,426.3,258.7,351.17,91.63,258.82,91.63Z"/></g><g class="cls-1"><ellipse class="cls-4" cx="255.59" cy="259.8" rx="147.98" ry="153.11"/><path class="cls-3" d="M255.59,413.2c-81.76,0-148.27-68.82-148.27-153.4s66.51-153.4,148.27-153.4,148.27,68.82,148.27,153.4S337.34,413.2,255.59,413.2Zm0-306.22C174.15,107,107.9,175.54,107.9,259.8s66.25,152.82,147.69,152.82S403.27,344.06,403.27,259.8,337,107,255.59,107Z"/></g><rect class="cls-3" x="107.61" y="257.75" width="295.96" height="4.1"/><rect class="cls-3" x="256.1" y="107.89" width="2.34" height="306.22"/><path class="cls-3" d="M357.33,373.53c-33.37-9.38-57.17-47.89-60.62-98.13-1.82-26.4,2.52-53,12.23-74.84,10.9-24.56,28.14-42.54,49.85-52l1.17,2.68c-21,9.17-37.74,26.64-48.34,50.52-9.51,21.43-13.77,47.52-12,73.45,3.37,49,26.33,86.47,58.49,95.51Z"/><path class="cls-3" d="M154.22,373.53l-.79-2.82c32.16-9,55.12-46.53,58.49-95.51,1.79-25.93-2.47-52-12-73.45-10.6-23.88-27.31-41.35-48.34-50.52l1.17-2.68c21.71,9.47,38.95,27.46,49.85,52,9.7,21.86,14,48.44,12.23,74.84C211.38,325.64,187.58,364.15,154.22,373.53Z"/><path d="M92.14,125.05a2.75,2.75,0,0,1-1.1.54,9,9,0,0,1-1.54.3,9.07,9.07,0,0,1-1.46,0,1.39,1.39,0,0,1-.82-.2,1.87,1.87,0,0,1-.13-1,8.38,8.38,0,0,0-.22-2,8.27,8.27,0,0,0-1-2.35,5.79,5.79,0,0,0-2.4-2.12,13.51,13.51,0,0,0-3.23,4.65,20.17,20.17,0,0,0-1.48,5.39,15.22,15.22,0,0,0,.11,4.87,5.9,5.9,0,0,0,1.43,3.14c.08.08.47-.11,1.17-.58s1.59-1,2.67-1.66,2.32-1.28,3.7-1.92A18.43,18.43,0,0,1,92,130.79a10.58,10.58,0,0,1,4,0,6.18,6.18,0,0,1,3.43,2,6.46,6.46,0,0,1,1.54,3,10.52,10.52,0,0,1,.13,3.7,16.48,16.48,0,0,1-1.14,4.1,26.52,26.52,0,0,1-2.25,4.27c0-.07.11-.21.22-.41a6.38,6.38,0,0,1,.25-.59c.09-.2.18-.39.25-.59l.47-1.17q.21-.55.38-1c.11-.32.2-.6.28-.85s.13-.49.19-.7l.18-.54-.05.11-.1.22-.1.22q-.11.29-.29.68t-.35.86c-.11.32-.25.65-.4,1s-.32.73-.51,1.13c-.09.18-.18.37-.26.58a4.65,4.65,0,0,1-.3.62c-.06.1-.15.3-.28.6l-.35.61a5.93,5.93,0,0,1-.33.55c-.13.19-.25.39-.36.59a3.61,3.61,0,0,1-.39.56q-.22.26-.42.53c-.14.18-.27.36-.4.52s-.25.32-.36.47a3.8,3.8,0,0,1-.36.44l-.39.41-.66.7-.23.25a13,13,0,0,1-4.58,3.07,10.89,10.89,0,0,1-4.09.7,8.59,8.59,0,0,1-3.28-.74A9.68,9.68,0,0,1,79,155.34a8.43,8.43,0,0,1-1.36-1.48,7.88,7.88,0,0,1-.92-1.62,4.12,4.12,0,0,1-.34-1.49,1.57,1.57,0,0,1,.35-1.1,2.24,2.24,0,0,1,.79-.6,3.27,3.27,0,0,1,.86-.25,1.9,1.9,0,0,1,.76,0,1.23,1.23,0,0,1,.46.21,1.63,1.63,0,0,1,.32,1q.09.76.21,1.62c.08.57.17,1.13.27,1.66a1.88,1.88,0,0,0,.48,1.09,2.37,2.37,0,0,0,1.19.44,4.79,4.79,0,0,0,2.14-.31,12.5,12.5,0,0,0,3.06-1.64,26.62,26.62,0,0,0,4-3.59,23,23,0,0,0,3.58-4.86,24.93,24.93,0,0,0,2-4.75,13.49,13.49,0,0,0,.64-3.9,3.47,3.47,0,0,0-.55-2.25,1.51,1.51,0,0,0-1.31-.28,10.2,10.2,0,0,0-2.14.52,27,27,0,0,0-2.59,1.07q-1.4.66-2.64,1.31t-2.22,1.27l-1.4.87a6.79,6.79,0,0,1-1.79.71,11.75,11.75,0,0,1-2.41.4,10.68,10.68,0,0,1-2.4-.11,3.25,3.25,0,0,1-1.73-.72,5,5,0,0,1-1.19-2.17,15.54,15.54,0,0,1-.63-3.56,25.14,25.14,0,0,1,.1-4.42,26.35,26.35,0,0,1,.94-4.71,23.4,23.4,0,0,1,1.82-4.45,14.09,14.09,0,0,1,2.77-3.64,5,5,0,0,1,2.64-1.34,7.67,7.67,0,0,1,2.89.07,9.77,9.77,0,0,1,2.67,1,7.4,7.4,0,0,1,2,1.51,7,7,0,0,1,1.2,2,15,15,0,0,1,.76,2.5,9.68,9.68,0,0,1,.23,2.29A2,2,0,0,1,92.14,125.05Zm2.92,25.8-.27.29-.35.37a5,5,0,0,1-.46.42l-.47.49c-.18.19-.39.39-.61.59a6.22,6.22,0,0,1-.64.56,2.29,2.29,0,0,0-.32.28,2.3,2.3,0,0,1-.32.28l-.35.25-.35.26-.35.26-.35.26a6.51,6.51,0,0,1-.68.42l-.6.34c-.19.08-.37.17-.53.26a3.27,3.27,0,0,1-.42.2l-.33.17h.07a.85.85,0,0,0,.25-.08l.43-.19.54-.24.62-.29a4.74,4.74,0,0,0,.7-.44,1.72,1.72,0,0,0,.37-.24,1.69,1.69,0,0,1,.37-.24l.67-.54A1.25,1.25,0,0,0,92,154a2.38,2.38,0,0,1,.34-.3,3.87,3.87,0,0,1,.3-.3,4,4,0,0,0,.31-.3,6.1,6.1,0,0,0,.61-.59l.47-.49a4.83,4.83,0,0,1,.4-.48,2.68,2.68,0,0,0,.32-.4Zm-15-28a13.16,13.16,0,0,1,.74-1.51,4.3,4.3,0,0,1,.35-.64.66.66,0,0,0-.11.16c0,.08-.13.23-.27.45s-.1.17-.17.28a4.21,4.21,0,0,0-.23.4,2.93,2.93,0,0,1-.19.4l-.23.44a2.19,2.19,0,0,0-.23.53,2.24,2.24,0,0,1-.23.53L79,125l-.19.66-.19.66a6.48,6.48,0,0,0-.15.65c0,.2-.09.42-.15.65s-.08.47-.1.66,0,.39,0,.61,0,.43,0,.61a3,3,0,0,0,0,.57c0,.22,0,.42,0,.6s0,.37,0,.56a2.38,2.38,0,0,0,0,.47,4.4,4.4,0,0,0,.11.45c0,.14,0,.28.06.41s0,.26,0,.38a.89.89,0,0,0,.11.33.37.37,0,0,1,0,.26c0,.1,0,.17,0,.2a.28.28,0,0,1,.07.15.27.27,0,0,0,.05.14l0-.11-.08-.42a3.91,3.91,0,0,1-.13-.56,1.64,1.64,0,0,1,0-.42,1.68,1.68,0,0,0,0-.42,6.75,6.75,0,0,1-.1-1c0-.17,0-.35,0-.53s0-.37,0-.56a5.23,5.23,0,0,0,.06-.6c0-.2,0-.41,0-.63a5,5,0,0,0,.07-.6,2.9,2.9,0,0,1,.11-.64c0-.25.09-.47.14-.66s.1-.4.17-.63a2.28,2.28,0,0,1,.13-.63c.07-.19.14-.41.21-.64a3.53,3.53,0,0,1,.17-.6q.11-.29.2-.56a2.21,2.21,0,0,0,.23-.53A2.18,2.18,0,0,1,80,122.81Zm-2.31,8.27a.6.6,0,0,0,.06.28.69.69,0,0,1,.08.21.27.27,0,0,0,.05.14s0-.06,0-.08l0-.11,0-.21a2,2,0,0,1,0-.29,3,3,0,0,0,0-.32c0-.11,0-.23,0-.35s0-.51,0-.77,0-.53.06-.78,0-.48,0-.7l0-.26a.66.66,0,0,0,0-.22.52.52,0,0,1,0-.18.81.81,0,0,1-.07.2.88.88,0,0,0-.08.23l0,.27-.06.34a1.86,1.86,0,0,0,0,.37l-.06.38a2.13,2.13,0,0,0,0,.41c0,.12,0,.26,0,.4s0,.28,0,.4a2.38,2.38,0,0,0,0,.34A.91.91,0,0,1,77.7,131.08Zm6.46,3.33a.64.64,0,0,0-.18.12.62.62,0,0,1-.18.12.3.3,0,0,1-.16.1l.12-.06a2.91,2.91,0,0,0,.44-.25l.67-.36.86-.43,2.1-1c.2-.08.41-.17.62-.27a3.35,3.35,0,0,1,.65-.24,3.48,3.48,0,0,1,.6-.24l.63-.21.64-.16.64-.15a1.39,1.39,0,0,0,.3-.07,1.47,1.47,0,0,1,.3-.07l.29,0,.29,0a1.25,1.25,0,0,1,.59-.07l.26,0,.26,0a3.77,3.77,0,0,1,1,0,3,3,0,0,1,.81.09,1.55,1.55,0,0,1,.59.11l.51.12a.29.29,0,0,0-.13-.06,1.41,1.41,0,0,1-.37-.14,2.63,2.63,0,0,0-.59-.11l-.38-.06a1.77,1.77,0,0,1-.41-.1,1.74,1.74,0,0,0-.44,0H94a3,3,0,0,1-.57,0,1.24,1.24,0,0,1-.59.07,4.05,4.05,0,0,1-.63.11l-.28.05-.32.09-.64.15-.64.16-.63.21-.63.21q-.31.11-.62.27c-.21.1-.42.19-.62.27l-.57.28-.57.28-.51.26-.51.26q-.47.22-.84.44Zm7.25-11.24c.06.18.08.27.06.24a.12.12,0,0,0,0,.11v-.07a.39.39,0,0,0,0-.13.76.76,0,0,1,0-.2,1.27,1.27,0,0,1,0-.43,4,4,0,0,1-.1-.56,1.06,1.06,0,0,0,0-.33,2.07,2.07,0,0,1-.07-.35,2.82,2.82,0,0,1-.08-.31,1.83,1.83,0,0,0-.11-.35,1.69,1.69,0,0,0-.08-.37,3.92,3.92,0,0,0-.16-.36.9.9,0,0,0-.12-.36,2.15,2.15,0,0,1-.17-.32.84.84,0,0,0-.17-.38,1,1,0,0,1-.19-.3,1.48,1.48,0,0,0-.2-.32,1.38,1.38,0,0,1-.2-.32l-.44-.49a3.1,3.1,0,0,0-.46-.42,1.82,1.82,0,0,0-.37-.32l-.36-.21a.46.46,0,0,1-.22-.15l-.06-.07.23.26.59.65a3.1,3.1,0,0,0,.36.5,3.86,3.86,0,0,1,.39.53A2.82,2.82,0,0,0,90,119a2.94,2.94,0,0,1,.36.63l.14.34.14.34.14.34.14.34a.93.93,0,0,0,.09.33.94.94,0,0,1,.09.33,2,2,0,0,1,.13.6l.09.28a1.54,1.54,0,0,1,.06.24l0,.21Z"/><path d="M124.59,106.84c0-.14.24-.21.57-.23a4.17,4.17,0,0,1,1.12.12,7.11,7.11,0,0,1,1.19.39,1.73,1.73,0,0,1,.77.54,3.72,3.72,0,0,1,.31,1.59,25.18,25.18,0,0,1,0,2.92q-.1,1.69-.38,3.68a32.14,32.14,0,0,1-.76,3.82,19.7,19.7,0,0,1-1.18,3.33,5.91,5.91,0,0,1-1.74,2.28,3.38,3.38,0,0,1-1.55.57,11.23,11.23,0,0,1-2,.11,8.2,8.2,0,0,1-1.88-.26,2.14,2.14,0,0,1-1.15-.61l-.22-.28q-.35,1.45-.78,2.83t-.91,2.58a17.18,17.18,0,0,1-1,2.13,5.53,5.53,0,0,1-1.17,1.47,5.77,5.77,0,0,1-2.51,1.19,13.1,13.1,0,0,1-3,.32,11.14,11.14,0,0,1-2.85-.37,3.89,3.89,0,0,1-1.9-1,7.76,7.76,0,0,1-1.69-3.56,19.21,19.21,0,0,1-.4-5,33,33,0,0,1,.75-5.65,36.2,36.2,0,0,1,1.67-5.55,29,29,0,0,1,2.32-4.69,11.29,11.29,0,0,1,2.59-3.05,5,5,0,0,1,3.12-1.14,6.34,6.34,0,0,1,2.73.61,4.61,4.61,0,0,1,1.72,1.36q.57.78.14,1.09a1,1,0,0,1-.91.2c-.29-.1-.6-.22-.92-.36a2.91,2.91,0,0,0-1.09-.23,2.35,2.35,0,0,0-1.41.59,9,9,0,0,0-2.21,2.68,25.63,25.63,0,0,0-1.93,4.2,34.39,34.39,0,0,0-1.39,5,30.09,30.09,0,0,0-.59,5.05,19.29,19.29,0,0,0,.35,4.42A6.68,6.68,0,0,0,107.7,133a1.1,1.1,0,0,0,1.75,0A6.47,6.47,0,0,0,111,130.8a19.59,19.59,0,0,0,1.14-3.24q.47-1.78.83-3.77t.65-3.81c.19-1.21.34-2.31.45-3.31s.21-1.78.3-2.36.09-.78.21-.88a2.06,2.06,0,0,1,1-.16,15.64,15.64,0,0,1,1.67.07,15.19,15.19,0,0,1,1.64.24,1.71,1.71,0,0,1,.88.33,2.65,2.65,0,0,1,.14.82c0,.48.1,1,.19,1.69s.16,1.34.23,2.07.17,1.39.29,2a10.47,10.47,0,0,0,.36,1.41c.12.35.27.45.45.32a4.47,4.47,0,0,0,1.37-1.93,15.3,15.3,0,0,0,.84-2.87,29.15,29.15,0,0,0,.44-3.29q.13-1.71.23-3.22t.14-2.61A6.51,6.51,0,0,1,124.59,106.84Zm-22.24,21.08a7.19,7.19,0,0,1-.06-1.09c0-.38,0-.76,0-1.16s.08-.85.11-1.26.07-.83.12-1.26.11-.85.18-1.28.15-.87.23-1.32a26,26,0,0,1,.61-2.6q.38-1.31.81-2.57.19-.61.4-1.21t.47-1.14q.23-.58.49-1.12c.17-.36.34-.7.5-1a15.35,15.35,0,0,1,1-1.77,1.69,1.69,0,0,1,.23-.34,1.65,1.65,0,0,0,.23-.34,4.65,4.65,0,0,1,.46-.58l.4-.47a1.82,1.82,0,0,1,.31-.29c.06,0,.1-.08.11-.11a.15.15,0,0,1,.06-.07l.1-.07-.29.22a.91.91,0,0,0-.15.14.87.87,0,0,1-.15.15.89.89,0,0,1-.21.22.89.89,0,0,0-.21.22l-.23.29-.28.33a1.65,1.65,0,0,1-.23.34,1.65,1.65,0,0,0-.23.34c-.2.27-.39.54-.57.83s-.35.59-.51.9q-.53,1-1,2.12t-1,2.44q-.43,1.26-.82,2.56a24.06,24.06,0,0,0-.64,2.66q-.23,1.29-.39,2.64-.07.64-.12,1.26t-.07,1.22A18.24,18.24,0,0,0,102,128a5.66,5.66,0,0,0,.15,1,3.25,3.25,0,0,1,.08.49,3.53,3.53,0,0,0,.08.49,5.41,5.41,0,0,0,.23.82c.09.25.19.49.29.71a1,1,0,0,0,.11.34,1.29,1.29,0,0,1,.13.27,1.07,1.07,0,0,0,.16.27.65.65,0,0,1,.13.23,1.71,1.71,0,0,0,.24.35l.22.25.21.23-.06-.07a.4.4,0,0,1-.1-.2l-.21-.23a.35.35,0,0,0-.09-.19.64.64,0,0,1-.12-.22,1,1,0,0,1-.22-.51,3.42,3.42,0,0,1-.27-.65,8.39,8.39,0,0,1-.45-1.54l-.13-.94a2.18,2.18,0,0,1-.06-.51C102.36,128.29,102.36,128.11,102.35,127.92Zm14.1-1.23q.11-.31.19-.57c.05-.17.09-.33.13-.47l.1-.41a3.28,3.28,0,0,1-.13.38q-.08.17-.18.45l-.21.59a5.74,5.74,0,0,1-.22.71l-.3.78q-.17.42-.31.81c-.09.27-.21.55-.35.85a2.15,2.15,0,0,0-.18.43,2.18,2.18,0,0,1-.18.43c0,.12-.1.24-.17.37l-.21.4-.22.38-.22.38a1,1,0,0,1-.21.32,2.58,2.58,0,0,0-.23.28,1,1,0,0,1-.22.25.94.94,0,0,1-.23.25l-.38.32a.69.69,0,0,1-.16.11l-.12.07-.08.07.08-.07a.54.54,0,0,0,.16-.07.52.52,0,0,1,.15-.07l.2-.14a.47.47,0,0,0,.18-.18l.25-.21a1.52,1.52,0,0,0,.27-.28,2.71,2.71,0,0,1,.23-.28,1,1,0,0,0,.2-.31,3.29,3.29,0,0,0,.25-.35l.22-.38.21-.4.21-.4a2.23,2.23,0,0,0,.18-.43,2.17,2.17,0,0,1,.18-.43,7.35,7.35,0,0,0,.33-.87q.13-.41.29-.83t.28-.76C116.33,127.15,116.39,126.92,116.45,126.69Zm-4.08,2.08a.87.87,0,0,0-.09.24l0,.07,0-.07a.88.88,0,0,1,.09-.24c0-.12.09-.24.13-.37a3.7,3.7,0,0,1,.19-.47c.06-.16.12-.34.17-.54s.11-.41.16-.65a6.54,6.54,0,0,0,.19-.66l.16-.7q.08-.35.14-.68c0-.22.07-.43.1-.64a5.44,5.44,0,0,0,.11-.63,4.55,4.55,0,0,1,.1-.56c0-.16,0-.32,0-.47a1.62,1.62,0,0,1,0-.37,1.6,1.6,0,0,1,0-.31l-.09.35-.09.35a3.12,3.12,0,0,0-.08.45,4.55,4.55,0,0,0-.1.56,5.4,5.4,0,0,1-.12.63c-.06.23-.1.46-.14.68s-.09.45-.14.68l-.3,1.32-.14.63a4.21,4.21,0,0,1-.15.52,5.29,5.29,0,0,0-.15.52Zm-5.25-18.29a4.26,4.26,0,0,0,.22-.4,2,2,0,0,0,.13-.32,3.13,3.13,0,0,1,.16-.29s0,0,0,.07a.35.35,0,0,0-.08.09.34.34,0,0,1-.08.09,1.17,1.17,0,0,1-.17.32l-.31.43-.28.47a4.38,4.38,0,0,0-.27.58l-.33.6a4.58,4.58,0,0,0-.3.63l-.24.61-.24.61q-.12.32-.21.59c-.06.18-.11.34-.14.48l-.12.47-.08.32-.07.29a.61.61,0,0,1,.07-.29l.3-.76.43-1.08q.23-.57.52-1.26a5.7,5.7,0,0,1,.28-.61,6,6,0,0,0,.28-.61c.1-.19.19-.37.26-.54A2.67,2.67,0,0,1,107.13,110.48Z"/><path d="M146,93.62c0-.25.28-.4.73-.45a6.05,6.05,0,0,1,1.48.05,4.49,4.49,0,0,1,1.42.44c.41.21.61.44.61.67-.11,1.32-.34,2.87-.66,4.67a41.75,41.75,0,0,1-1.35,5.34,26.27,26.27,0,0,1-2.13,4.9,9,9,0,0,1-3.05,3.34,3.65,3.65,0,0,1-1.64.47,9.33,9.33,0,0,1-2-.06,8.93,8.93,0,0,1-1.82-.43,2.13,2.13,0,0,1-1.12-.74,6.16,6.16,0,0,1-.77-2.59,31.42,31.42,0,0,1-.18-3.84q0-2.14.11-4.49t0-4.47a67.49,67.49,0,0,0-3.11,9.75,77,77,0,0,0-1.4,7.63c-.27,2.14-.42,3.82-.48,5s-.16,1.88-.31,2a2,2,0,0,1-.87.27,5.67,5.67,0,0,1-2.63-.3,2,2,0,0,1-1-.7,7.41,7.41,0,0,1-.47-2.13c-.17-1.23-.34-2.71-.49-4.45s-.29-3.62-.41-5.63-.23-3.9-.32-5.68-.17-3.29-.26-4.55a6.75,6.75,0,0,0-.37-2.25.31.31,0,0,1,0-.18.49.49,0,0,1,.28-.44,3.34,3.34,0,0,1,1-.42,6.84,6.84,0,0,1,1.34-.18,3.35,3.35,0,0,1,1.29.2,1.69,1.69,0,0,1,.88.67,3.86,3.86,0,0,1,.29,1.12q.15.9.26,2.21t.23,2.88q.12,1.57.24,3.22.6-2.33,1.33-4.8t1.42-4.59c.46-1.42.89-2.63,1.29-3.66a11.6,11.6,0,0,1,.9-2,.15.15,0,0,0,.07-.06.14.14,0,0,1,.07-.06.2.2,0,0,1,.12,0,.44.44,0,0,1,.23-.08,6,6,0,0,1,1-.06,5.9,5.9,0,0,1,1.36.18,4.78,4.78,0,0,1,1.39.6,3.26,3.26,0,0,1,1.11,1.19,4.81,4.81,0,0,1,.39,2q.07,1.4,0,3.17t-.12,3.79q-.09,2-.06,3.8t.16,3.16a4.86,4.86,0,0,0,.48,1.95,6.09,6.09,0,0,0,2-2.24,18.58,18.58,0,0,0,1.55-3.67,44.22,44.22,0,0,0,1.15-4.55Q145.79,96.12,146,93.62Zm-17.78,13.75q0-.52-.06-1a9.9,9.9,0,0,1-.06-1c0-.37,0-.72-.08-1.06a10,10,0,0,1,0-1l-.1-.94c0-.29-.06-.57-.09-.83s-.05-.49-.07-.69,0-.38,0-.55a.29.29,0,0,0,0-.16.29.29,0,0,1,0-.16.16.16,0,0,1,0-.14q.14,2.79.33,5.57l.15,2q.07,1,.14,1.79c0,.28,0,.52,0,.72s0,.38.06.54a1.34,1.34,0,0,0,0,.45c0-.14,0-.3,0-.49q0-.63,0-1.25c0-.28,0-.56-.05-.84S128.27,107.72,128.26,107.37Zm.38-2.94a.12.12,0,0,1,0-.1.13.13,0,0,0,0-.12s0-.1,0-.19a7,7,0,0,0,0-1.16,6.74,6.74,0,0,0,0-.79c0-.27,0-.54,0-.83s0-.61,0-.92,0-.62-.06-1a6.92,6.92,0,0,0-.09-.91c-.05-.3-.1-.59-.14-.87s-.09-.56-.14-.82l-.14-.72a4.41,4.41,0,0,0-.44-1l-.09-.15a.15.15,0,0,0-.12-.08.11.11,0,0,1-.1,0l.1,0,.07.11.09.15a.34.34,0,0,0,.06.2.59.59,0,0,1,.08.24.59.59,0,0,0,0,.32,1.37,1.37,0,0,1,.08.29,3.83,3.83,0,0,1,.1.77,7.57,7.57,0,0,0,.08.84,6.67,6.67,0,0,0,0,.88c0,.31.06.61.07.92s.06.64.09.94.07.59.11.87,0,.59.07.85.05.51.07.74a5.31,5.31,0,0,1,.13.62,3.62,3.62,0,0,1,0,.48Zm7.69,3.61a5.55,5.55,0,0,0,0-.94,5.17,5.17,0,0,1,0-.94c0-.35,0-.67,0-1a8.58,8.58,0,0,1,0-.94,9.63,9.63,0,0,1,0-1.64c0-.26,0-.48-.07-.65a3.59,3.59,0,0,1,0-.47,2.05,2.05,0,0,1,0-.35.12.12,0,0,0,0-.1.12.12,0,0,1,0,.1,1.07,1.07,0,0,0-.06.34c0,.14,0,.31,0,.5s0,.42-.05.68,0,.52,0,.8,0,.57-.06.87,0,.64,0,1,0,.64,0,1,0,.61.05.93,0,.62.06.93,0,.31,0,.44a3.17,3.17,0,0,1,0,.4,2.65,2.65,0,0,0,.07.42l.1.36a1.48,1.48,0,0,0,.19.61,1.71,1.71,0,0,0,.06.25,1,1,0,0,0,.11.22l.17.26,0,.07V111a.78.78,0,0,1-.12-.29,4.93,4.93,0,0,1-.24-1.1q0-.39-.07-.79T136.34,108Zm8.39,2.58a1,1,0,0,1,.2-.25.51.51,0,0,0,.15-.22.85.85,0,0,0,.12-.22l-.14.19-.42.46a6.73,6.73,0,0,1-1.3,1.19l-.41.25-.22.11-.22.11a2.51,2.51,0,0,1-.8.24l-.35.06a.34.34,0,0,1-.23,0c-.06,0-.1.05-.1,0s0,0-.06,0-.05,0-.07,0l.21,0a.91.91,0,0,1,.25,0l.34-.06a2.23,2.23,0,0,0,.38-.05,2.84,2.84,0,0,0,.45-.15.63.63,0,0,0,.23-.09.65.65,0,0,1,.23-.09l.46-.28a2.44,2.44,0,0,0,.39-.29,4.45,4.45,0,0,0,.35-.36,2.69,2.69,0,0,0,.34-.33A2.33,2.33,0,0,0,144.73,110.62Zm-8.1-13.23c0,.82,0,1.76-.1,2.83q0,.42,0,.79a6,6,0,0,0,0,.75,3.88,3.88,0,0,0,0,.7,5.86,5.86,0,0,1,0,.63,4.67,4.67,0,0,1,0,.51,1.94,1.94,0,0,0,.05.41.6.6,0,0,0,.07.32,2.05,2.05,0,0,1,0-.35,1.29,1.29,0,0,0,0-.38,3.25,3.25,0,0,1,0-.53c0-.39,0-.83,0-1.32s0-1,0-1.54q0-.42,0-.79c0-.24,0-.48,0-.72s0-.53,0-.75,0-.41,0-.58l0-.49a4.39,4.39,0,0,1,0-.46,2.24,2.24,0,0,0,0-.35,2.88,2.88,0,0,0,0,.38,1.8,1.8,0,0,0,0,.42A2.92,2.92,0,0,1,136.63,97.4Z"/><path d="M192.46,52.81q.23-.07.73.27a9,9,0,0,1,1,.79,8.41,8.41,0,0,1,.88.92,2.48,2.48,0,0,1,.42.64,14.8,14.8,0,0,1-.37,1.67c-.26,1.06-.61,2.43-1,4.1s-.9,3.58-1.39,5.72-1,4.31-1.49,6.52-1,4.38-1.4,6.51-.81,4-1.13,5.68-.59,3-.81,4a4.43,4.43,0,0,1-.48,1.59,2,2,0,0,1-.91,0,11.76,11.76,0,0,1-1.37-.37,11.38,11.38,0,0,1-1.29-.51c-.39-.18-.61-.33-.65-.44a5.78,5.78,0,0,1,.09-.76c.07-.48.17-1.11.3-1.89s.3-1.71.49-2.77.41-2.2.65-3.4q-1.54.59-3.27,1.31T178,83.93q-1.75.82-3.48,1.68l-3.31,1.67c-.77,1.85-1.43,3.54-2,5.05s-1,2.82-1.3,3.9-.59,1.93-.78,2.53-.33.93-.43,1a1.55,1.55,0,0,1-.86,0,7,7,0,0,1-1.28-.39,9,9,0,0,1-1.2-.59,1.71,1.71,0,0,1-.68-.6,4.92,4.92,0,0,1,.3-2.38,48.31,48.31,0,0,1,1.65-4.89l-.85.46-.37.19s-.15-.15-.31-.41-.33-.56-.51-.9a10.52,10.52,0,0,1-.45-1,.9.9,0,0,1-.09-.66,9,9,0,0,1,1.39-1c.88-.58,2.05-1.29,3.52-2.12q1.41-3.06,3.24-6.45t3.94-6.71q2.1-3.32,4.35-6.45t4.45-5.68a56.59,56.59,0,0,1,4.18-4.4,17.29,17.29,0,0,1,3.51-2.65.64.64,0,0,1,.57,0,.15.15,0,0,1,0,.17,2.35,2.35,0,0,0,.39-.16A4.9,4.9,0,0,1,192.46,52.81ZM173.38,75.24q.52-.86,1.1-1.77t1.17-1.78L178,68.15,180.11,65q.45-.67.85-1.22c.27-.37.5-.68.71-.94l.59-.85-.18.2a4.24,4.24,0,0,0-.49.58q-.29.42-.74.95A13.94,13.94,0,0,0,180,65c-.34.46-.71.94-1.1,1.46s-.78,1.06-1.15,1.63-.76,1.15-1.16,1.73-.82,1.18-1.25,1.78q-1.14,1.81-2.24,3.64l-.5.83c-.16.27-.31.54-.44.81s-.28.54-.42.78-.27.49-.38.72-.27.47-.37.67-.21.4-.33.61a7.35,7.35,0,0,1-.45,1l-.37.87a.71.71,0,0,1,.09-.23L170,81a1.73,1.73,0,0,0,.19-.36l1.29-2.23Q172.42,76.82,173.38,75.24Zm12.29,1.31q.66-2.91,1.37-5.85l1.3-5.33c.39-1.6.71-2.9.95-3.93a6.9,6.9,0,0,0,.3-1.74A86.16,86.16,0,0,0,180,71.14a88.63,88.63,0,0,0-6.38,10.7q3.05-1.55,6.19-2.92C181.95,78,183.89,77.22,185.67,76.55ZM180,79.63l1.38-.6,1.23-.54,1.23-.53-.37.13-.89.32-1.26.45a5.73,5.73,0,0,1-.67.29,7.09,7.09,0,0,0-.72.31l-.74.34-.7.28-.63.31c-.22.1-.41.2-.58.29l-.47.25-.38.17a1.91,1.91,0,0,1-.3.16l.36-.14.39-.15a3.55,3.55,0,0,0,.48-.23l.57-.24.67-.28.66-.32Zm7.59-22.36q.52-.53.91-1l.67-.78a8.19,8.19,0,0,1,.62-.64l-.21.15a1.48,1.48,0,0,1-.21.22l-.27.24-.77.76-1,1-1.11,1.15q-.59.62-1.17,1.32c-.43.48-.85,1-1.27,1.45l-1.26,1.46q-.31.38-.59.75c-.19.25-.38.51-.57.8l-.59.73c-.19.24-.36.47-.53.72l-.49.73c-.16.24-.33.47-.5.69s-.25.46-.38.67-.26.43-.39.63c-.27.41-.5.77-.69,1.09s-.35.59-.47.83a1.45,1.45,0,0,0-.16.32,1.15,1.15,0,0,1-.12.26L177,71l.12-.18.35-.55a1.67,1.67,0,0,0,.24-.35,3.18,3.18,0,0,1,.32-.47c.1-.16.22-.33.34-.5s.25-.35.39-.56.28-.41.43-.62a5.87,5.87,0,0,0,.42-.66l.51-.67.55-.73c.16-.24.34-.48.53-.72l.59-.73,1.17-1.5,1.22-1.49q.6-.73,1.25-1.44l1.14-1.33Zm-1.12,31.37a.3.3,0,0,1,0-.14.82.82,0,0,0,0-.19.67.67,0,0,1,.05-.25,4.1,4.1,0,0,0,.13-.6q0-.34.08-.73t.05-.74c0-.24,0-.45,0-.64a.71.71,0,0,0,0-.21.7.7,0,0,1,0-.21.34.34,0,0,0,0-.18l0,.2,0,.2a1.4,1.4,0,0,0,0,.24,4.17,4.17,0,0,0-.13.6q-.05.34-.09.73c0,.26,0,.5-.05.74s0,.44,0,.6a2.14,2.14,0,0,0,0,.45A.28.28,0,0,0,186.48,88.65Zm2.79-12.23c0-.07,0-.14,0-.22a2.25,2.25,0,0,1,0-.22.29.29,0,0,0,0-.14l-.15.6c-.11.38-.24.88-.38,1.51q-.13.5-.24,1c-.08.35-.15.72-.21,1.11s-.14.8-.23,1.21-.16.83-.21,1.25-.11.83-.18,1.24-.13.81-.19,1.2-.11.77-.15,1.12-.09.7-.13,1a7.57,7.57,0,0,0-.14.89c0,.26,0,.47-.06.63s0,.33,0,.43a.29.29,0,0,0,0,.14.29.29,0,0,1,0-.14,1.33,1.33,0,0,1,0-.18l.08-.24c0-.16.06-.38.11-.64s.13-.56.21-.86a18.15,18.15,0,0,1,.4-2.14q.08-.59.19-1.2t.23-1.26q.07-.63.18-1.24c.07-.41.14-.81.2-1.2s.12-.77.17-1.14.11-.71.16-1,.09-.61.12-.87S189.25,76.61,189.27,76.42Zm-5.92-15.82a3.26,3.26,0,0,0-.27.32l-.17.24-.17.24.18-.2.2-.25.3-.33.7-.74c.25-.27.5-.56.77-.9a4,4,0,0,0,.42-.44c.12-.14.24-.28.37-.42a4.06,4.06,0,0,0,.4-.4,4.18,4.18,0,0,1,.3-.33,2.41,2.41,0,0,0,.32-.28l.2-.25a.18.18,0,0,1,.07-.07.19.19,0,0,0,.07-.07s.05,0,0-.06a.75.75,0,0,1-.2.15,1.22,1.22,0,0,1-.24.24l-.35.27a3.77,3.77,0,0,0-.37.32l-.41.38a4.47,4.47,0,0,1-.36.44c-.12.13-.27.27-.43.41l-.41.48c-.12.15-.24.29-.36.42s-.22.3-.33.43S183.43,60.49,183.35,60.61Z"/><path d="M221.79,66.85c.11-.23.38-.29.81-.19a5.93,5.93,0,0,1,1.36.52,4.49,4.49,0,0,1,1.19.86c.32.33.44.61.37.83-.5,1.21-1.18,2.62-2,4.21a41.18,41.18,0,0,1-2.87,4.63,25.63,25.63,0,0,1-3.46,4,8.54,8.54,0,0,1-3.84,2.18,3.5,3.5,0,0,1-1.66-.08,9,9,0,0,1-1.82-.69,8.89,8.89,0,0,1-1.56-1,2.16,2.16,0,0,1-.82-1.06,6.27,6.27,0,0,1,.06-2.69,31.65,31.65,0,0,1,1-3.68q.66-2,1.45-4.21t1.38-4.21a65.83,65.83,0,0,0-5.82,8.21,75.37,75.37,0,0,0-3.58,6.75c-.89,1.93-1.53,3.47-2,4.6s-.71,1.72-.88,1.77a1.94,1.94,0,0,1-.89,0,5.31,5.31,0,0,1-1.2-.41,5.45,5.45,0,0,1-1.14-.73,2.09,2.09,0,0,1-.7-1,7.53,7.53,0,0,1,.2-2.15c.21-1.21.49-2.66.88-4.35s.81-3.5,1.3-5.44,1-3.76,1.4-5.46.82-3.16,1.12-4.37a6.84,6.84,0,0,0,.33-2.25.32.32,0,0,1,0-.18.48.48,0,0,1,.39-.33,3.21,3.21,0,0,1,1.09-.06,6.52,6.52,0,0,1,1.29.26,3.31,3.31,0,0,1,1.13.6,1.72,1.72,0,0,1,.61.91,3.91,3.91,0,0,1-.07,1.15q-.13.89-.43,2.17c-.19.85-.42,1.78-.66,2.8L203,71.83q1.25-2,2.67-4.1t2.7-3.88c.85-1.19,1.62-2.2,2.29-3a11.23,11.23,0,0,1,1.42-1.57.16.16,0,0,0,.08,0,.14.14,0,0,1,.08,0,.19.19,0,0,1,.12,0,.41.41,0,0,1,.23,0,6.14,6.14,0,0,1,2.18.87,4.82,4.82,0,0,1,1.11,1,3.34,3.34,0,0,1,.68,1.48,4.88,4.88,0,0,1-.23,2q-.36,1.35-.92,3t-1.25,3.54q-.69,1.88-1.2,3.57t-.8,3a5,5,0,0,0-.14,2,5.81,5.81,0,0,0,2.54-1.48,18.13,18.13,0,0,0,2.55-3,43.75,43.75,0,0,0,2.45-3.94Q220.8,69.13,221.79,66.85Zm-20.65,7.31c.1-.33.18-.66.25-1a10,10,0,0,1,.25-1q.14-.54.24-1c.07-.32.15-.65.26-1l.19-.91.16-.81q.07-.38.14-.67l.12-.53a.29.29,0,0,0,0-.16.3.3,0,0,1,0-.16.16.16,0,0,1,0-.14q-.71,2.68-1.36,5.36l-.47,2-.41,1.73c-.08.27-.14.49-.18.69l-.11.53a1.35,1.35,0,0,0-.1.44c0-.13.09-.28.16-.45l.35-1.19c.08-.26.15-.53.2-.81S201,74.49,201.14,74.16Zm1.23-2.65a.12.12,0,0,1,0-.1.13.13,0,0,0,0-.12s0-.1.07-.18a7.07,7.07,0,0,0,.35-1.09,6.77,6.77,0,0,0,.24-.74c.07-.26.14-.52.23-.79l.24-.88c.08-.29.16-.6.23-.92a7,7,0,0,0,.18-.88q.06-.45.13-.87t.12-.82l.08-.72a4.51,4.51,0,0,0-.1-1.11l0-.17a.16.16,0,0,0-.09-.11.12.12,0,0,1-.08-.07l.08.07,0,.13,0,.17a.35.35,0,0,0,0,.21.61.61,0,0,1,0,.25.59.59,0,0,0-.07.31,1.41,1.41,0,0,1,0,.3,3.88,3.88,0,0,1-.13.76,7.5,7.5,0,0,0-.18.81,6.66,6.66,0,0,0-.22.85q-.09.46-.21.89c-.07.32-.14.63-.2.91s-.11.57-.15.86-.14.57-.19.82-.1.5-.16.72a5.4,5.4,0,0,1-.06.63,3.66,3.66,0,0,1-.11.46Zm6,5.89a5.49,5.49,0,0,0,.25-.9,5.14,5.14,0,0,1,.26-.9c.11-.33.2-.64.28-.93a8.7,8.7,0,0,1,.29-.88,9.74,9.74,0,0,1,.48-1.56l.13-.64a3.73,3.73,0,0,1,.12-.46,2,2,0,0,1,.09-.34.12.12,0,0,0,0-.1.12.12,0,0,1,0,.1,1.05,1.05,0,0,0-.15.31l-.17.47-.25.62c-.09.23-.19.48-.28.74s-.19.53-.32.8-.22.59-.32.89l-.3.93c-.08.29-.16.59-.23.89s-.15.6-.22.89-.06.3-.09.43a3.16,3.16,0,0,1-.1.39,2.66,2.66,0,0,0-.06.42c0,.12,0,.24,0,.37a1.51,1.51,0,0,0,0,.64,1.71,1.71,0,0,0,0,.25,1,1,0,0,0,0,.24l.08.3,0,.09,0-.1a.8.8,0,0,1,0-.31,5,5,0,0,1,.11-1.11c0-.25.1-.51.17-.77S208.34,77.65,208.42,77.39Zm7,5.13a.92.92,0,0,1,.26-.17.49.49,0,0,0,.21-.16.81.81,0,0,0,.18-.17l-.19.13-.53.3a6.38,6.38,0,0,1-1.56.71l-.46.11-.24,0-.24,0a2.4,2.4,0,0,1-.82,0l-.34-.06a.33.33,0,0,1-.23,0c-.07,0-.1,0-.11,0s0,0-.06,0-.05,0-.06,0l.18.09a.88.88,0,0,1,.24.08l.34.06a2.2,2.2,0,0,0,.37.07,2.63,2.63,0,0,0,.46,0,.59.59,0,0,0,.24,0,.63.63,0,0,1,.24,0l.51-.12a2.36,2.36,0,0,0,.45-.15,4.43,4.43,0,0,0,.43-.23,2.58,2.58,0,0,0,.41-.2A2.17,2.17,0,0,0,215.44,82.52Zm-3.55-15.1q-.37,1.16-.94,2.64l-.26.74a6,6,0,0,0-.2.72,3.93,3.93,0,0,0-.21.66,5.77,5.77,0,0,1-.17.6,4.7,4.7,0,0,1-.11.5,2,2,0,0,0-.07.4.6.6,0,0,0,0,.32,2,2,0,0,1,.09-.34,1.3,1.3,0,0,0,.11-.36,3.27,3.27,0,0,1,.13-.51q.21-.55.41-1.25t.49-1.44l.26-.73c.08-.23.15-.45.22-.68s.17-.5.24-.71.12-.39.16-.55l.12-.48a4.49,4.49,0,0,1,.13-.43,2.26,2.26,0,0,0,.1-.34,2.81,2.81,0,0,0-.15.35,1.83,1.83,0,0,0-.14.39A3,3,0,0,1,211.89,67.42Z"/><path d="M239.75,64.23q.23-.47.89-.32a3.77,3.77,0,0,1,1.32.61,5,5,0,0,1,1.1,1q.44.57.25.9-1,1.86-2.28,4.16A33.74,33.74,0,0,1,238.08,75a21.48,21.48,0,0,1-3.65,3.64,9.71,9.71,0,0,1-4.53,2,8.14,8.14,0,0,1-2.23,0,8.87,8.87,0,0,1-2.76-.86,8.48,8.48,0,0,1-2.57-2,6.86,6.86,0,0,1-1.58-3.39,9.8,9.8,0,0,1,.13-2.91c.2-1.36.51-2.93.94-4.71s.93-3.66,1.53-5.67,1.21-3.95,1.84-5.83q-1.13.27-2.21.46l-2.05.36a3.23,3.23,0,0,1-2.28-.23,2.75,2.75,0,0,1-1.12-1.2,2.55,2.55,0,0,1-.23-1.36c.06-.44.2-.69.43-.73l1.65-.3,2.49-.46,2.69-.49,2.2-.41c1.06-2.92,1.92-5.18,2.54-6.81a12.32,12.32,0,0,0,.9-2.78c-.07-.49.16-.75.69-.78a4.3,4.3,0,0,1,1.8.37,8.42,8.42,0,0,1,1.87,1.05,2.05,2.05,0,0,1,.95,1.3,7.18,7.18,0,0,1-.64,1.71c-.44,1-1.11,2.58-2,4.76,1.86-.33,3.55-.59,5.09-.79s2.66-.33,3.36-.39a5.29,5.29,0,0,1,1.87.07,2,2,0,0,1,1,.55,1.67,1.67,0,0,1,.4.89q.07.52.12,1a.65.65,0,0,1-.49.75,6.12,6.12,0,0,1-1.35.25q-2.77.26-5.72.77T231.27,54q-1.11,3-2.22,6.42T227.14,67A54.75,54.75,0,0,0,226,72.93a14.57,14.57,0,0,0-.08,4.25q.18,1,.86.92a8.66,8.66,0,0,0,4-1.92,24.68,24.68,0,0,0,3.58-3.62,40.56,40.56,0,0,0,3.05-4.31C238.36,66.75,239.14,65.41,239.75,64.23ZM223.89,78.57a1.44,1.44,0,0,0,.38.29l.18.1a.48.48,0,0,1-.13-.11l-.17-.17-.23-.2a.75.75,0,0,1-.23-.2,1.73,1.73,0,0,0-.23-.25l-.27-.28a2.92,2.92,0,0,1-.28-.33l-.24-.29-.24-.29a2.6,2.6,0,0,1-.43-.54l-.15-.22a.46.46,0,0,1-.09-.18.16.16,0,0,1-.08-.12v0l0,.17a.85.85,0,0,0,.06.19l.13.27a1.32,1.32,0,0,1,.13.27,1,1,0,0,0,.19.3,3.13,3.13,0,0,1,.25.31,3.38,3.38,0,0,0,.25.31c.18.2.37.4.57.59A3,3,0,0,0,223.89,78.57Zm-1.11-13.73c-.13.56-.25,1.05-.36,1.49s-.19.82-.24,1.16l-.16,1a.49.49,0,0,0,.07-.24,2.22,2.22,0,0,0,.08-.31c0-.14.07-.29.12-.44q.14-.47.3-1.13t.42-1.46l.62-2q.37-1.16.76-2.42t.82-2.54q.43-1.27.79-2.35l.07-.28.07-.28a1.56,1.56,0,0,1-.45.12.76.76,0,0,0-.06.19.77.77,0,0,1-.06.19c-.14.38-.28.82-.43,1.31s-.32,1-.5,1.53-.35,1-.5,1.51-.27.9-.36,1.24c-.19.69-.36,1.34-.52,2S223,64.31,222.79,64.84Zm.46,1.3a.94.94,0,0,0,.12-.31,3.32,3.32,0,0,1,.1-.4c.1-.29.21-.62.34-1l.16-.54a5.58,5.58,0,0,1,.21-.59q.07-.28.16-.58l.17-.54c0-.18.09-.36.14-.54s.1-.34.15-.49l.24-1-.42,1q-.08.24-.15.49c0,.17-.1.34-.15.49a3.82,3.82,0,0,1-.19.57,2.93,2.93,0,0,0-.18.61l-.32,1.12q-.06.28-.14.51l-.14.47a2.55,2.55,0,0,0-.1.42c0,.12,0,.23-.06.32a1.26,1.26,0,0,1-.06.28Zm4.65-17.08a5,5,0,0,1-.19.52,1.8,1.8,0,0,0-.11.28c0,.09-.06.2-.1.33s-.12.33-.23.61l.41-.06q.12-.42.18-.6a1.7,1.7,0,0,0,.07-.3,1.53,1.53,0,0,1,.05-.25c0-.09.08-.25.17-.47q.3-.8.5-1.47a7.58,7.58,0,0,1,.44-1.15,3.48,3.48,0,0,0,.12-.39c0-.11.05-.21.08-.3a1.1,1.1,0,0,1,.08-.28,1.4,1.4,0,0,0-.09.23.73.73,0,0,0-.17.29l-.15.42q-.23.52-.46,1.15T227.9,49.06Z"/><path d="M265.83,59.06a.75.75,0,0,1,.9-.22,4,4,0,0,1,1.21.59,5.55,5.55,0,0,1,1,.9c.28.32.38.56.31.7a34.48,34.48,0,0,1-2,3.31,20.37,20.37,0,0,1-3.06,3.58,18.21,18.21,0,0,1-4.25,3,13.7,13.7,0,0,1-5.57,1.4l-.51,0a3.16,3.16,0,0,1-.51,0q-1,1.29-2.16,2.42a19.26,19.26,0,0,1-2.29,2,13.14,13.14,0,0,1-2.38,1.41,7.63,7.63,0,0,1-2.4.66,5.34,5.34,0,0,1-1.76-.28,11.42,11.42,0,0,1-2.47-1.05,10.19,10.19,0,0,1-2.28-1.74,4.12,4.12,0,0,1-1.19-2.42,7,7,0,0,1,.24-2.62,17.56,17.56,0,0,1,1.11-3,22.22,22.22,0,0,1,1.73-3,28.56,28.56,0,0,1,2-2.64l-.09-.83a3.9,3.9,0,0,1,.86-2.67,11.86,11.86,0,0,1,2.56-2.57,16.41,16.41,0,0,1,3.44-2,10.37,10.37,0,0,1,3.37-.89,4.19,4.19,0,0,1,1.9.49,7.34,7.34,0,0,1,2.17,1.59,10.45,10.45,0,0,1,1.79,2.56,8.05,8.05,0,0,1,.83,3.4,10,10,0,0,1-.64,3.61,23.83,23.83,0,0,1-1.9,4.06,8.34,8.34,0,0,0,3.28-1.54,17.23,17.23,0,0,0,2.75-2.61,29.58,29.58,0,0,0,2.21-3Q265.05,60.12,265.83,59.06ZM239.75,73.42a898,898,0,0,0,.12-.81,3.53,3.53,0,0,0,.13-.48,3.67,3.67,0,0,1,.14-.48,2.94,2.94,0,0,1,.33-1c.06-.15.11-.29.17-.42s.12-.26.17-.42a1,1,0,0,0,.1-.32.37.37,0,0,1,.11-.23.53.53,0,0,1,.14-.24,2,2,0,0,1-.14.24.85.85,0,0,0-.17.24,2.41,2.41,0,0,1-.16.28,4.57,4.57,0,0,0-.4.84c-.06.15-.12.31-.19.46s-.14.31-.19.46a2,2,0,0,0-.11.5,2,2,0,0,1-.1.5,1.24,1.24,0,0,0-.06.45.81.81,0,0,1,0,.2.82.82,0,0,0,0,.2,1.58,1.58,0,0,0,0,.35l0,.26,0,.22v0a.08.08,0,0,1,0-.07s0-.05,0-.11a1.32,1.32,0,0,1,0-.26C239.71,73.69,239.73,73.57,239.75,73.42Zm.43,0c0-.15,0-.29.06-.43a2.35,2.35,0,0,1,.11-.43,6.45,6.45,0,0,1,.33-1l.26-.56a2.59,2.59,0,0,1,.21-.55c.09-.19.19-.37.29-.56s.21-.38.29-.56l.7-1.13.38-.55.39-.5-.2-.38-.15.15-.39.55a5.78,5.78,0,0,0-.38.59l-.7,1.13c-.12.22-.23.42-.32.61l-.27.56a2.14,2.14,0,0,0-.13.32l-.08.27a.61.61,0,0,0-.1.28.61.61,0,0,1-.1.28c-.05.18-.1.36-.13.52a3.76,3.76,0,0,1-.13.48c0,.12-.06.27-.11.45a1.11,1.11,0,0,1,0,.22,1.12,1.12,0,0,0,0,.22,3.07,3.07,0,0,0,0,.67.39.39,0,0,0,0,.24.81.81,0,0,1,0,.19v0a1.28,1.28,0,0,0,0-.44,1.35,1.35,0,0,0,0-.29A1.51,1.51,0,0,1,240.18,73.46Zm.59,1.92a9.35,9.35,0,0,0,3.76-1.29,16.6,16.6,0,0,0,3.41-2.7,8.66,8.66,0,0,1-2.71-1.6,9.74,9.74,0,0,1-1.81-2.15,16.2,16.2,0,0,0-2.08,3.66A8.18,8.18,0,0,0,240.77,75.38Zm4-9.41A3.12,3.12,0,0,0,246,68.36a6.09,6.09,0,0,0,3.74,1.09,32.3,32.3,0,0,0,2.21-3.14,24.93,24.93,0,0,0,1.71-3.25A20.77,20.77,0,0,0,254.68,60a8.94,8.94,0,0,0,.32-2.61.9.9,0,0,0-1.07-1,7,7,0,0,0-3.48,1.31,15.71,15.71,0,0,0-3.26,2.92,4.66,4.66,0,0,1,1,1.22q.33.61.07.85c-.18.13-.6.48-1.25,1A24.65,24.65,0,0,0,244.81,66Zm3,6.09a1.32,1.32,0,0,0,.28-.24l.27-.29s-.05,0-.05,0,0,0-.06,0l-.55.53a3.29,3.29,0,0,0-.42.39,2.6,2.6,0,0,1-.37.34,3.16,3.16,0,0,1-.37.32,2.33,2.33,0,0,0-.27.22l-.25.22-.2.17a.31.31,0,0,1-.15.1l.6-.45.33-.25.38-.3.4-.32ZM245,64.63a1.63,1.63,0,0,0-.06.25,1.77,1.77,0,0,1-.06.25l.38-.43.38-.39.38-.36a3.41,3.41,0,0,0,.33-.36l.52-.48.52-.48a.64.64,0,0,1-.16.1l-.21.13-.21.17c-.17.16-.37.33-.6.51s-.48.4-.75.66ZM245,57.09l-.29.25-.24.2-.16.15h.06l.16-.15.24-.2.3-.2.35-.23.46-.28.4-.3a1.88,1.88,0,0,1,.47-.26l.49-.3a3.15,3.15,0,0,1,.44-.25,2.68,2.68,0,0,0,.47-.23,3.56,3.56,0,0,1,.41-.23q.44-.21.61-.31l.22-.1v0l-.28.11q-.17.06-.61.26l-.91.44q-.47.23-1,.54a9.22,9.22,0,0,0-.87.58Zm.44-.88c-.07,0-.11.06-.11.08s0,0-.05.07l-.05,0,.27-.16a1.14,1.14,0,0,1,.27-.18,3,3,0,0,0,.38-.23,2.49,2.49,0,0,0,.49-.26c.14-.1.31-.2.49-.3a.79.79,0,0,1,.28-.15.77.77,0,0,0,.28-.15,1.07,1.07,0,0,1,.31-.13,1.06,1.06,0,0,0,.31-.13c.11-.07.31-.17.61-.31a4.71,4.71,0,0,0,.56-.26L250,54a3.83,3.83,0,0,0,.51-.19,2.36,2.36,0,0,1,.45-.12.58.58,0,0,1,.2-.06.58.58,0,0,0,.2-.06h.23s.06,0,.05,0l-.34,0-.34,0a2.31,2.31,0,0,0-.51.08,4.39,4.39,0,0,0-.57.13,1.26,1.26,0,0,1-.28.09,1.33,1.33,0,0,0-.28.09c-.22.07-.44.15-.65.24l-.64.29-.58.31a4.38,4.38,0,0,0-.58.35,5.83,5.83,0,0,0-.87.64A3.12,3.12,0,0,0,245.41,56.22Zm7.48,9.46.17-.34.17-.34c.13-.21.25-.42.35-.61l.3-.61a2.93,2.93,0,0,1,.25-.59,3.51,3.51,0,0,0,.25-.54q.33-1.07.58-1.74a2.32,2.32,0,0,1,.15-.45.34.34,0,0,0,0-.18.33.33,0,0,1,0,.18l-.1.2-.1.25q-.1.31-.27.76c-.12.3-.26.62-.42.95q-.1.27-.22.54l-.27.59-.3.61a7.05,7.05,0,0,1-.35.61,5.83,5.83,0,0,1-.35.64l-.17.34a1.64,1.64,0,0,1-.17.3l-.45.67c-.13.2-.27.42-.39.66l-.48.63-.47.63a1.2,1.2,0,0,1-.25.33,1.19,1.19,0,0,0-.25.33l.22,0,.45-.56.47-.63.48-.63.45-.67c.13-.2.27-.42.4-.66l.17-.32ZM255,62.35q.09-.36.22-.69c.08-.22.15-.45.22-.69s.12-.47.16-.69.08-.44.11-.64a3.15,3.15,0,0,0,.11-.66,4.83,4.83,0,0,1,.06-.57l0-.83,0-.35v.09a.29.29,0,0,1,0,.11.39.39,0,0,0,0,.15,3,3,0,0,1,0,.35c0,.15,0,.31-.06.49a4.67,4.67,0,0,0-.06.55,3.22,3.22,0,0,1-.11.64q-.1.36-.17.67c0,.21-.1.43-.16.67l-.19.69q-.1.34-.19.69a6.42,6.42,0,0,1-.22.61l-.22.52-.17.47a1.3,1.3,0,0,1-.17.34.58.58,0,0,0,0,.22.12.12,0,0,1-.05.09l.15-.27a2.32,2.32,0,0,0,.2-.34,5,5,0,0,0,.2-.47c.07-.15.15-.32.25-.52A3.77,3.77,0,0,0,255,62.35Z"/><path d="M288.23,63.52c.16-.19.44-.19.83,0a5.91,5.91,0,0,1,1.18.85,4.45,4.45,0,0,1,.92,1.14q.33.6.14.89c-.8,1-1.82,2.22-3,3.55a41.54,41.54,0,0,1-4,3.73,25.72,25.72,0,0,1-4.35,2.93,8.49,8.49,0,0,1-4.26,1.12,3.46,3.46,0,0,1-1.58-.51,9.18,9.18,0,0,1-2.81-2.5,2.18,2.18,0,0,1-.51-1.24,6.31,6.31,0,0,1,.76-2.58,31.73,31.73,0,0,1,1.9-3.3q1.16-1.77,2.49-3.69t2.42-3.71a65.56,65.56,0,0,0-7.72,6.43,75.37,75.37,0,0,0-5.19,5.59c-1.35,1.64-2.36,3-3.06,3.94s-1.12,1.48-1.3,1.48a1.91,1.91,0,0,1-.84-.26,5.25,5.25,0,0,1-1-.71,5.48,5.48,0,0,1-.9-1,2.09,2.09,0,0,1-.42-1.13,7.53,7.53,0,0,1,.74-2c.51-1.12,1.16-2.44,2-4s1.68-3.17,2.65-4.92,1.88-3.38,2.76-4.91,1.61-2.84,2.2-3.94a6.89,6.89,0,0,0,.9-2.08.31.31,0,0,1,.06-.18.47.47,0,0,1,.46-.22,3.16,3.16,0,0,1,1.06.23,6.33,6.33,0,0,1,1.17.59,3.28,3.28,0,0,1,.93.87,1.72,1.72,0,0,1,.35,1,3.93,3.93,0,0,1-.36,1.09c-.24.55-.56,1.21-1,2l-1.35,2.53-1.52,2.82q1.72-1.62,3.63-3.27t3.6-3c1.13-.93,2.13-1.71,3-2.35a11.21,11.21,0,0,1,1.78-1.15l.09,0a.14.14,0,0,1,.09,0,.19.19,0,0,1,.11,0,.42.42,0,0,1,.23.06,5.92,5.92,0,0,1,.86.51,5.7,5.7,0,0,1,1,.89,4.75,4.75,0,0,1,.81,1.26,3.33,3.33,0,0,1,.27,1.6,4.9,4.9,0,0,1-.74,1.87q-.69,1.21-1.67,2.67t-2.12,3.1q-1.15,1.64-2.08,3.14t-1.56,2.73a5,5,0,0,0-.65,1.89,5.78,5.78,0,0,0,2.82-.77,18.15,18.15,0,0,0,3.22-2.21A44.07,44.07,0,0,0,285,67.24Q286.68,65.46,288.23,63.52Zm-21.75,1.73q.27-.44.49-.88a10,10,0,0,1,.49-.88c.18-.32.35-.63.5-.92a9.64,9.64,0,0,1,.5-.88l.42-.83.37-.74q.17-.35.31-.61l.26-.48a.31.31,0,0,0,.06-.15.3.3,0,0,1,.06-.15.16.16,0,0,1,.06-.13q-1.37,2.4-2.69,4.82l-1,1.78-.84,1.57c-.14.23-.26.44-.35.62l-.24.49a1.36,1.36,0,0,0-.21.4c.07-.12.16-.25.27-.4l.64-1.06c.14-.24.28-.48.4-.73S266.3,65.54,266.48,65.24ZM268.35,63a.12.12,0,0,1,.06-.09.13.13,0,0,0,.06-.11s0-.09.11-.15a7.19,7.19,0,0,0,.61-1,6.76,6.76,0,0,0,.42-.66c.13-.23.27-.47.43-.7l.45-.79q.23-.39.46-.83a7,7,0,0,0,.41-.81l.35-.81c.12-.26.22-.52.32-.76l.27-.68a4.52,4.52,0,0,0,.19-1.09v-.18a.16.16,0,0,0-.05-.13.12.12,0,0,1-.06-.09l.06.09v.31a.35.35,0,0,0-.06.2.62.62,0,0,1-.06.24.59.59,0,0,0-.15.28,1.34,1.34,0,0,1-.09.28,3.8,3.8,0,0,1-.32.7,7.46,7.46,0,0,0-.38.74,6.6,6.6,0,0,0-.43.76c-.14.28-.28.55-.43.81l-.43.83c-.13.26-.26.52-.37.79s-.28.51-.4.74-.23.45-.34.66a5.27,5.27,0,0,1-.22.59,3.66,3.66,0,0,1-.22.42Zm4.28,7.25a5.6,5.6,0,0,0,.47-.8,5.17,5.17,0,0,1,.48-.8c.19-.29.36-.56.51-.82a8.81,8.81,0,0,1,.51-.78,9.71,9.71,0,0,1,.86-1.38l.29-.58a3.47,3.47,0,0,1,.23-.41,1.94,1.94,0,0,1,.17-.3.12.12,0,0,0,.06-.09.12.12,0,0,1-.06.09,1,1,0,0,0-.23.26l-.29.41-.4.54q-.23.3-.46.65c-.15.23-.32.46-.51.69s-.37.52-.54.78l-.53.82-.45.8-.45.8-.2.39a3.25,3.25,0,0,1-.19.35,2.69,2.69,0,0,0-.17.39l-.11.35a1.51,1.51,0,0,0-.17.61,1.79,1.79,0,0,0-.08.24,1,1,0,0,0,0,.24v.4l.05-.09a.84.84,0,0,1,.06-.31,5,5,0,0,1,.39-1c.11-.23.23-.46.36-.7S272.49,70.48,272.63,70.25ZM278,77a.93.93,0,0,1,.29-.1.49.49,0,0,0,.24-.1.81.81,0,0,0,.22-.12l-.21.08-.58.15a6.35,6.35,0,0,1-1.69.29l-.47,0-.24,0-.23,0a2.39,2.39,0,0,1-.78-.24l-.31-.14a.32.32,0,0,1-.21-.09c-.07,0-.1,0-.1,0s0,0-.05,0-.05,0-.05,0l.15.14a.87.87,0,0,1,.21.14l.31.14a2.24,2.24,0,0,0,.34.16,2.49,2.49,0,0,0,.44.12.6.6,0,0,0,.23.05.61.61,0,0,1,.23.05l.52,0a2.31,2.31,0,0,0,.47,0,4.23,4.23,0,0,0,.48-.11,2.57,2.57,0,0,0,.45-.09A2.36,2.36,0,0,0,278,77Zm.5-15.5q-.66,1-1.59,2.31l-.44.64a6.26,6.26,0,0,0-.38.65,4,4,0,0,0-.38.58,5.73,5.73,0,0,1-.32.54c-.08.17-.16.32-.23.45a2,2,0,0,0-.18.37.59.59,0,0,0-.12.3,2,2,0,0,1,.17-.3,1.33,1.33,0,0,0,.2-.32,3.28,3.28,0,0,1,.26-.45c.23-.32.47-.68.72-1.1s.53-.84.84-1.27l.44-.64c.14-.2.27-.4.38-.6l.42-.62c.12-.18.22-.35.3-.49l.24-.43c.08-.14.16-.27.24-.39a2,2,0,0,0,.18-.3,2.68,2.68,0,0,0-.24.3,1.72,1.72,0,0,0-.24.34A2.83,2.83,0,0,1,278.55,61.52Z"/><path d="M301.59,64.81c.13-.13.35-.14.67,0a2.82,2.82,0,0,1,1,.62,4.15,4.15,0,0,1,.82,1.11,2.21,2.21,0,0,1,.25,1.37,4.14,4.14,0,0,1-.8,1.48,21.61,21.61,0,0,1-1.91,2.24,36.61,36.61,0,0,1-2.69,2.52,24.38,24.38,0,0,1-3.2,2.31,18.43,18.43,0,0,1-3.43,1.64,8,8,0,0,1-3.41.47,4.83,4.83,0,0,1-1.45-.48A10.45,10.45,0,0,1,285.53,77a9.44,9.44,0,0,1-1.61-1.5,2.36,2.36,0,0,1-.63-1.69,9.2,9.2,0,0,1,.76-2.68,36.45,36.45,0,0,1,1.81-3.71q1.1-2,2.38-4t2.42-3.72q1.14-1.66,2-2.75c.56-.73.89-1.13,1-1.21q.37-.27,1,.1a4.88,4.88,0,0,1,1.19,1,7.37,7.37,0,0,1,.94,1.38,2.22,2.22,0,0,1,.32,1.21,7.33,7.33,0,0,1-.8,1.35q-.78,1.17-1.91,2.8T292,67q-1.23,1.87-2.18,3.46a29.43,29.43,0,0,0-1.44,2.65c-.33.71-.37,1.07-.12,1.09a7.26,7.26,0,0,0,4-.8A18.16,18.16,0,0,0,295.88,71a32.26,32.26,0,0,0,3.2-3.18Q300.57,66.09,301.59,64.81Zm-17.16,7.1a7.23,7.23,0,0,1,.37-.72l.43-.81.56-1.06a5.62,5.62,0,0,1,.32-.62,4.59,4.59,0,0,0,.32-.66l.38-.68a6.79,6.79,0,0,1,.44-.67q.39-.72.83-1.48t1-1.51l.91-1.51c.3-.5.61-1,.92-1.46a5.92,5.92,0,0,0,.36-.5l.17-.29.14-.27a4,4,0,0,1,.27-.44q.39-.58.67-1l.48-.79a2.21,2.21,0,0,0,.2-.29,1.53,1.53,0,0,1,.14-.21,1.48,1.48,0,0,1,.13-.21h-.06l-.52.66q-.26.33-.56.78t-.69,1l-1.4,2q-.61.9-1.52,2.41t-1.76,3q-.8,1.48-1.38,2.72l-.48,1.09q-.22.49-.35.83a.86.86,0,0,0-.13.34.42.42,0,0,1-.07.22A.59.59,0,0,0,284.43,71.91Zm2.84-4,.23-.51c.07-.14.14-.28.23-.42a1.32,1.32,0,0,0,.19-.38,1.47,1.47,0,0,1-.19.34l-.28.4a3.44,3.44,0,0,0-.29.53c-.25.39-.5.81-.75,1.26l-.76,1.53-.38.77a7.05,7.05,0,0,0-.32.77l-.26.69a5.16,5.16,0,0,0-.21.69,1.71,1.71,0,0,0-.14.54l0,.46a.32.32,0,0,0,.09.27.12.12,0,0,0,0,.09.12.12,0,0,1,0-.09s0-.12,0-.27a4.17,4.17,0,0,1,.23-1c.09-.2.17-.41.26-.64l.26-.69.76-1.53a6.93,6.93,0,0,1,.33-.77c.13-.26.25-.49.38-.72s.26-.49.38-.7A5.9,5.9,0,0,0,287.27,67.93Zm11.59-13.56a1.35,1.35,0,0,1-.68-.39,7.82,7.82,0,0,1-.78-.82,5.18,5.18,0,0,1-.63-.93,2.59,2.59,0,0,1-.27-.69,4.31,4.31,0,0,1,.54-1.16,16.49,16.49,0,0,1,1.24-1.85,15.08,15.08,0,0,1,1.51-1.71c.52-.5.92-.73,1.19-.7a2.14,2.14,0,0,1,1.09.62A9.48,9.48,0,0,1,303.2,48a14.24,14.24,0,0,1,.87,1.27,1.78,1.78,0,0,1,.34.78c0,.12-.27.41-.77.87s-1.07,1-1.73,1.48-1.28,1-1.87,1.4S299.05,54.4,298.86,54.37Zm-2.55,18.76.38-.26.45-.35a4.1,4.1,0,0,0,.43-.39,4,4,0,0,1,.43-.39,4.27,4.27,0,0,0,.43-.39l.38-.4.38-.39c.13-.13.23-.25.32-.36a3.64,3.64,0,0,0,.23-.32.71.71,0,0,1,.22-.24,1.42,1.42,0,0,1,.14-.2l-.19.2a1.2,1.2,0,0,0-.25.21l-.26.3a9.13,9.13,0,0,0-.75.7l-.38.4a4.3,4.3,0,0,1-.43.39,4,4,0,0,0-.43.39,4.28,4.28,0,0,1-.43.39,2.76,2.76,0,0,1-.39.35l-.39.31-.54.47a.57.57,0,0,1-.23.15l.23-.15A2.14,2.14,0,0,0,296.31,73.14ZM301.2,69l.24-.37a1.39,1.39,0,0,1,.23-.28l.2-.24-.2.24-.28.25a1.71,1.71,0,0,0-.29.34,2.65,2.65,0,0,1-.36.42,5.35,5.35,0,0,0-.42.45q-.2.24-.42.48l-.48.51-.94.94a3.92,3.92,0,0,1-.41.44c-.14.13-.28.26-.4.39l-.34.34a2,2,0,0,1-.27.21.73.73,0,0,1-.18.16l-.06,0,.06,0,.09,0a.38.38,0,0,0,.14-.07,1.85,1.85,0,0,1,.3-.23,1.9,1.9,0,0,0,.36-.31c.12-.13.26-.26.4-.39l.46-.39.94-.94.48-.51c.15-.16.29-.32.42-.48l.39-.48C301,69.25,301.1,69.1,301.2,69Z"/><path d="M328.27,66.21a.75.75,0,0,1,.93,0,3.93,3.93,0,0,1,1,.87A5.58,5.58,0,0,1,331,68.2c.19.38.23.63.13.76a34.74,34.74,0,0,1-2.73,2.74,20.55,20.55,0,0,1-3.85,2.74,18.32,18.32,0,0,1-4.86,1.84,13.82,13.82,0,0,1-5.76,0l-.5-.09a3.12,3.12,0,0,1-.49-.14q-1.33,1-2.69,1.83a19.38,19.38,0,0,1-2.71,1.39,13.26,13.26,0,0,1-2.66.8,7.66,7.66,0,0,1-2.5.07,5.33,5.33,0,0,1-1.64-.7,11.42,11.42,0,0,1-2.14-1.61,10.11,10.11,0,0,1-1.8-2.24,4.1,4.1,0,0,1-.57-2.63,7,7,0,0,1,.86-2.49,17.71,17.71,0,0,1,1.81-2.68,22.28,22.28,0,0,1,2.41-2.52,28.83,28.83,0,0,1,2.59-2.08l.12-.83A3.91,3.91,0,0,1,305.5,60a12,12,0,0,1,3.11-1.88A16.5,16.5,0,0,1,312.43,57a10.41,10.41,0,0,1,3.5,0,4.19,4.19,0,0,1,1.73.93,7.36,7.36,0,0,1,1.73,2.06,10.45,10.45,0,0,1,1.12,2.92,8,8,0,0,1,0,3.5A9.92,9.92,0,0,1,319,69.7a24,24,0,0,1-2.83,3.48,8.4,8.4,0,0,0,3.57-.7A17.31,17.31,0,0,0,323,70.61a29.75,29.75,0,0,0,2.88-2.34Q327.25,67,328.27,66.21ZM299.4,73.87a1.19,1.19,0,0,1,.16-.38,1.21,1.21,0,0,1,.16-.38,3.87,3.87,0,0,0,.25-.43,3.76,3.76,0,0,1,.25-.43,2.93,2.93,0,0,1,.55-.86c.09-.13.18-.26.27-.36s.18-.23.27-.36a1,1,0,0,0,.18-.29.37.37,0,0,1,.16-.2.54.54,0,0,1,.19-.19l-.19.19a.84.84,0,0,0-.22.19,2.63,2.63,0,0,1-.22.24,4.6,4.6,0,0,0-.59.72c-.09.14-.19.27-.3.4s-.21.27-.3.4a2,2,0,0,0-.22.46,2,2,0,0,1-.22.46,1.24,1.24,0,0,0-.16.42.75.75,0,0,1-.05.19.86.86,0,0,0-.05.19,1.62,1.62,0,0,0-.1.34l0,.26,0,.22v0a.08.08,0,0,1,0-.06s0,0,0-.11a1.33,1.33,0,0,1,.06-.26Zm.41.14.16-.4a2.41,2.41,0,0,1,.21-.39,6.49,6.49,0,0,1,.55-.86l.39-.48a2.55,2.55,0,0,1,.34-.49c.13-.16.27-.32.42-.47s.29-.31.42-.47l1-.93.51-.44.5-.39-.11-.42-.18.11-.51.44a6,6,0,0,0-.51.48l-1,.93c-.17.18-.32.35-.45.51l-.39.48a2.1,2.1,0,0,0-.2.28l-.14.25a.62.62,0,0,0-.17.24.6.6,0,0,1-.17.24q-.14.25-.25.48a3.57,3.57,0,0,1-.25.43c-.05.11-.12.25-.22.41a1.22,1.22,0,0,1-.05.21,1.14,1.14,0,0,0-.06.21,3.12,3.12,0,0,0-.19.64.4.4,0,0,0-.06.24.87.87,0,0,1,0,.2l0,.13,0-.13a1.26,1.26,0,0,0,.11-.43,1.41,1.41,0,0,0,.12-.27A1.46,1.46,0,0,1,299.81,74Zm.11,2a9.37,9.37,0,0,0,4-.35,16.75,16.75,0,0,0,4-1.8,8.64,8.64,0,0,1-2.25-2.2,9.7,9.7,0,0,1-1.24-2.52,16.26,16.26,0,0,0-2.91,3A8.19,8.19,0,0,0,299.92,76Zm6.2-8.16a3.11,3.11,0,0,0,.54,2.59,6.09,6.09,0,0,0,3.37,2,32.59,32.59,0,0,0,2.91-2.52,24.86,24.86,0,0,0,2.45-2.74,21.05,21.05,0,0,0,1.78-2.72,8.92,8.92,0,0,0,.95-2.46.9.9,0,0,0-.81-1.19,7,7,0,0,0-3.7.43,15.72,15.72,0,0,0-3.88,2.05,4.65,4.65,0,0,1,.67,1.42q.17.68-.14.84c-.2.09-.7.32-1.47.71A24.6,24.6,0,0,0,306.12,67.86Zm1.42,6.63a1.34,1.34,0,0,0,.33-.17l.34-.21s-.05,0-.05,0,0,0,0,0l-.66.38a3.45,3.45,0,0,0-.51.27,2.45,2.45,0,0,1-.45.24,3.19,3.19,0,0,1-.44.22l-.32.15-.29.15-.23.12a.3.3,0,0,1-.17.06l.69-.29.38-.16.44-.2.47-.21Zm-.89-7.88a1.52,1.52,0,0,0-.12.23,1.77,1.77,0,0,1-.12.23l.47-.33.46-.28.46-.26a3.4,3.4,0,0,0,.41-.27l.62-.34.62-.34-.18.06-.24.07-.24.12c-.21.11-.44.23-.71.35s-.56.27-.89.46Zm1.77-7.33-.34.17-.28.13-.19.1h.06l.19-.1.28-.13.34-.13.4-.14.52-.16.46-.19a1.89,1.89,0,0,1,.51-.14l.55-.18a3.27,3.27,0,0,1,.49-.14,2.65,2.65,0,0,0,.51-.11,3.48,3.48,0,0,1,.46-.12c.32-.06.54-.11.67-.15l.24,0v0l-.3,0q-.18,0-.66.11l-1,.21c-.34.08-.7.17-1.06.29a9,9,0,0,0-1,.35Zm.64-.74c-.08,0-.12,0-.12,0s0,0-.07.06l-.06,0,.3-.09a1.14,1.14,0,0,1,.31-.11,3.13,3.13,0,0,0,.43-.13,2.61,2.61,0,0,0,.54-.13c.16-.06.35-.12.55-.18a.81.81,0,0,1,.3-.08.78.78,0,0,0,.3-.08,1.1,1.1,0,0,1,.33-.06,1.05,1.05,0,0,0,.33-.06c.12,0,.35-.09.67-.15a4.66,4.66,0,0,0,.6-.12l.59-.05a3.88,3.88,0,0,0,.54-.06,2.42,2.42,0,0,1,.47,0,.62.62,0,0,1,.21,0,.58.58,0,0,0,.21,0l.23,0s.06,0,.07,0l-.34-.06-.34-.06a2.3,2.3,0,0,0-.52,0,4.17,4.17,0,0,0-.58,0,1.33,1.33,0,0,1-.3,0,1.31,1.31,0,0,0-.3,0c-.24,0-.47,0-.69.08l-.69.13-.64.16a4.38,4.38,0,0,0-.65.2,5.84,5.84,0,0,0-1,.42A3.19,3.19,0,0,0,309.07,58.53Zm5,11,.25-.29.25-.29q.27-.26.49-.51l.44-.52a2.93,2.93,0,0,1,.38-.51,3.68,3.68,0,0,0,.37-.46q.58-1,1-1.55a2.28,2.28,0,0,1,.25-.4.33.33,0,0,0,.09-.16.33.33,0,0,1-.09.16l-.15.17-.16.22q-.17.28-.45.67c-.19.26-.4.53-.64.82s-.22.31-.35.47l-.41.5-.44.52c-.14.17-.31.34-.49.51a6,6,0,0,1-.49.53l-.25.29a1.68,1.68,0,0,1-.24.25l-.6.54c-.18.16-.36.34-.54.55l-.62.49L311,72a1.24,1.24,0,0,1-.32.26,1.24,1.24,0,0,0-.32.26l.21,0,.57-.43.61-.49.61-.49.6-.54c.18-.16.36-.34.55-.55l.25-.27Zm2.84-2.72c.12-.22.24-.42.38-.62s.26-.4.38-.62.23-.43.33-.63.19-.4.26-.6a3.17,3.17,0,0,0,.27-.62,4.63,4.63,0,0,1,.2-.54l.16-.82.07-.34,0,.09a.3.3,0,0,1,0,.1.38.38,0,0,0-.06.15,2.79,2.79,0,0,1-.1.34c0,.14-.11.29-.18.46a4.93,4.93,0,0,0-.19.52,3.13,3.13,0,0,1-.26.6c-.12.22-.23.42-.32.61l-.32.61-.35.62-.35.63c-.11.19-.23.36-.36.53l-.34.45-.28.42a1.25,1.25,0,0,1-.25.29.6.6,0,0,0-.1.21.12.12,0,0,1-.07.08l.21-.23a2.32,2.32,0,0,0,.28-.28,4.87,4.87,0,0,0,.3-.41c.1-.13.22-.28.37-.44A3.79,3.79,0,0,0,316.88,66.79Z"/><path d="M371.65,78.34a2.52,2.52,0,0,1-.89-.77,8.35,8.35,0,0,1-.84-1.27,8.71,8.71,0,0,1-.58-1.3,1.4,1.4,0,0,1-.13-.82c.06-.13.34-.32.86-.54a8.32,8.32,0,0,0,1.68-1,8.5,8.5,0,0,0,1.72-1.85,6.06,6.06,0,0,0,1-3,12.29,12.29,0,0,0-5.3-1,18.73,18.73,0,0,0-5.28.92,14.75,14.75,0,0,0-4.22,2.14,6.12,6.12,0,0,0-2.22,2.6c0,.11.27.38.93.81s1.47,1,2.42,1.71a38.81,38.81,0,0,1,3,2.54,17.23,17.23,0,0,1,2.73,3.18,10.32,10.32,0,0,1,1.53,3.63,6.39,6.39,0,0,1-.49,3.93,6.7,6.7,0,0,1-2.08,2.64,10.39,10.39,0,0,1-3.22,1.66,15.58,15.58,0,0,1-4,.69,24,24,0,0,1-4.57-.24l.44,0a5.81,5.81,0,0,1,.61,0c.21,0,.41,0,.61,0l1.2-.07,1-.08q.48,0,.85-.11l.69-.12.55-.06h-.58l-.7,0c-.27,0-.57,0-.88,0s-.66.05-1,.06h-1.18a5.59,5.59,0,0,0-.6,0,4.36,4.36,0,0,1-.65,0h-.62l-.66-.06a5.09,5.09,0,0,1-.6-.06l-.65-.08a3.14,3.14,0,0,1-.63-.12l-.62-.16-.59-.15-.54-.13a3.43,3.43,0,0,1-.51-.14l-.5-.18-.85-.3-.3-.1a11.29,11.29,0,0,1-4.29-2.84,10.2,10.2,0,0,1-2-3.4,8.84,8.84,0,0,1-.51-3.26,10.47,10.47,0,0,1,.36-2.46,9.12,9.12,0,0,1,.8-1.85,8.26,8.26,0,0,1,1.07-1.51,4.14,4.14,0,0,1,1.16-.93,1.4,1.4,0,0,1,1.07-.15,1.94,1.94,0,0,1,.79.46,3,3,0,0,1,.51.67,1.89,1.89,0,0,1,.24.7,1.28,1.28,0,0,1,0,.5,1.67,1.67,0,0,1-.72.69l-1.32.87q-.7.47-1.33.94a2,2,0,0,0-.77.89,2.51,2.51,0,0,0,0,1.25,4.53,4.53,0,0,0,1,1.8,10.92,10.92,0,0,0,2.5,2.07,22.81,22.81,0,0,0,4.54,2.09,20.19,20.19,0,0,0,5.54,1.19,22.83,22.83,0,0,0,4.91-.16,12.93,12.93,0,0,0,3.67-1.05A3.52,3.52,0,0,0,366,86.22a1.52,1.52,0,0,0-.24-1.29,9.61,9.61,0,0,0-1.25-1.71,25.1,25.1,0,0,0-1.9-1.89q-1.09-1-2.12-1.83T358.54,78l-1.26-.9A6.11,6.11,0,0,1,356,75.81a11,11,0,0,1-1.21-2,10.45,10.45,0,0,1-.77-2.21,3.4,3.4,0,0,1,0-1.86,5.24,5.24,0,0,1,1.46-2,15.54,15.54,0,0,1,2.88-2.05A24.17,24.17,0,0,1,362.27,64a24.6,24.6,0,0,1,4.47-1.12,21.44,21.44,0,0,1,4.58-.21,12.79,12.79,0,0,1,4.24,1,4.6,4.6,0,0,1,2.16,1.82,7.51,7.51,0,0,1,1,2.64,9.94,9.94,0,0,1,.12,2.82,7.7,7.7,0,0,1-.6,2.41,7.24,7.24,0,0,1-1.37,1.94A15.1,15.1,0,0,1,375,77,9.66,9.66,0,0,1,373,78.12,1.88,1.88,0,0,1,371.65,78.34ZM350,91.74l-.35-.13-.45-.16a4.35,4.35,0,0,1-.53-.24l-.6-.21c-.23-.08-.48-.18-.73-.31a5.29,5.29,0,0,1-.72-.34,2,2,0,0,0-.36-.17,1.9,1.9,0,0,1-.36-.17l-.35-.21-.35-.21-.35-.21-.35-.21a5.73,5.73,0,0,1-.61-.43l-.51-.4A5.17,5.17,0,0,0,343,88a3,3,0,0,1-.32-.29l-.26-.22,0,.06a.8.8,0,0,0,.16.19L343,88l.4.39c.14.14.3.28.47.43a4.08,4.08,0,0,0,.63.44,1.49,1.49,0,0,0,.34.23,1.49,1.49,0,0,1,.34.23l.71.38a1.09,1.09,0,0,0,.37.22,2.11,2.11,0,0,1,.38.18l.37.15.37.15a5.08,5.08,0,0,0,.73.3l.6.21a4.21,4.21,0,0,1,.56.15,2.3,2.3,0,0,0,.46.12Zm19.1-25.27a12.05,12.05,0,0,1,1.6,0,4.06,4.06,0,0,1,.69,0l-.18,0-.49-.06-.31,0-.44,0a2.7,2.7,0,0,1-.42,0l-.47,0a2,2,0,0,0-.55,0,2,2,0,0,1-.55,0l-1.19.09-.65.1-.65.1c-.23,0-.43.08-.62.13s-.4.1-.62.14l-.61.19-.55.21-.55.21a2.85,2.85,0,0,0-.5.23l-.53.24-.48.27a2.34,2.34,0,0,0-.4.23,4.5,4.5,0,0,0-.36.29l-.33.23-.32.19a1,1,0,0,0-.24.24.37.37,0,0,1-.21.16c-.09,0-.15.06-.16.1a.31.31,0,0,1-.11.12.27.27,0,0,0-.1.1l.09-.06.34-.25a4.15,4.15,0,0,1,.44-.35,1.55,1.55,0,0,1,.35-.2,1.67,1.67,0,0,0,.35-.2,6.6,6.6,0,0,1,.81-.49l.46-.23.48-.27a4.9,4.9,0,0,0,.55-.19l.56-.23a4.61,4.61,0,0,0,.55-.19,2.79,2.79,0,0,1,.6-.17L365,67l.62-.11a2.13,2.13,0,0,1,.6-.14l.64-.08a3.43,3.43,0,0,1,.58-.1l.57-.06a2,2,0,0,0,.55,0A2,2,0,0,1,369.14,66.46ZM361,67.84a.64.64,0,0,0-.22.18.7.7,0,0,1-.15.15.28.28,0,0,0-.1.1s.06,0,.07,0l.09-.06.17-.12.24-.14.29-.1.31-.14.68-.31.7-.27.64-.25.25-.07a.65.65,0,0,0,.19-.09.56.56,0,0,1,.16-.08l-.2,0a.82.82,0,0,0-.23,0l-.25.07-.32.09a1.73,1.73,0,0,0-.34.13l-.35.1a2,2,0,0,0-.37.14l-.35.17-.35.17-.28.17A.9.9,0,0,1,361,67.84ZM360.47,75a.58.58,0,0,0-.17-.11.56.56,0,0,1-.17-.11.27.27,0,0,1-.15-.1l.09.08a2.56,2.56,0,0,0,.38.29l.56.45.69.6,1.62,1.49c.14.15.3.3.46.45a15.38,15.38,0,0,0,.88.93c.14.17.28.33.42.48l.37.51.37.51a1.3,1.3,0,0,0,.18.24,1.33,1.33,0,0,1,.18.24l.14.25.14.25a1.2,1.2,0,0,1,.28.5l.12.22.12.22a3.73,3.73,0,0,1,.35.91,2.93,2.93,0,0,1,.22.76,1.56,1.56,0,0,1,.12.58l.08.51a.29.29,0,0,0,0-.14,1.44,1.44,0,0,1,0-.39,2.61,2.61,0,0,0-.12-.58,3,3,0,0,0-.09-.37,1.77,1.77,0,0,1-.07-.41,1.68,1.68,0,0,0-.13-.41c-.06-.14-.12-.28-.18-.44a2.85,2.85,0,0,1-.21-.52,1.17,1.17,0,0,1-.28-.5,3.74,3.74,0,0,1-.33-.52,2.25,2.25,0,0,0-.15-.23l-.2-.25-.37-.51-.37-.51c-.14-.15-.28-.31-.42-.48s-.28-.33-.42-.48-.3-.3-.46-.45-.32-.3-.47-.45l-.46-.39-.46-.39-.41-.35-.41-.35q-.36-.33-.69-.58ZM373,76.88c-.14.13-.21.18-.19.15a.12.12,0,0,0-.09.06l.07,0,.12,0,.19-.06a1.21,1.21,0,0,1,.39-.16,3.75,3.75,0,0,1,.46-.32,1.07,1.07,0,0,0,.3-.11,2,2,0,0,1,.28-.21l.25-.2a1.79,1.79,0,0,0,.27-.24,1.76,1.76,0,0,0,.3-.23l.26-.29a.92.92,0,0,0,.28-.26,2.16,2.16,0,0,1,.22-.29.87.87,0,0,0,.27-.31,1.09,1.09,0,0,1,.2-.3,1.45,1.45,0,0,0,.21-.32,1.5,1.5,0,0,1,.21-.32l.27-.6a3.22,3.22,0,0,0,.2-.59,1.86,1.86,0,0,0,.14-.47c0-.15,0-.29.05-.41a.47.47,0,0,1,.05-.27l0-.08-.14.32-.36.8a3.26,3.26,0,0,0-.31.54,4,4,0,0,1-.32.58,2.94,2.94,0,0,0-.42.58,3.09,3.09,0,0,1-.42.58l-.25.27-.25.27-.25.27-.25.27a.94.94,0,0,0-.26.22,1,1,0,0,1-.26.22,2,2,0,0,1-.48.36l-.21.19-.19.15-.18.11Z"/><path d="M399.06,99.18a1,1,0,0,1,1.17.17,3,3,0,0,1,.75,1.29,3.93,3.93,0,0,1,.16,1.58,1.11,1.11,0,0,1-.63,1,34,34,0,0,1-4.72,1.69,30.18,30.18,0,0,1-12.83.75,25,25,0,0,1-7.35-2.4l-.1,0,0,0-.09,0a7.65,7.65,0,0,1-1.9-1.44,7.79,7.79,0,0,1-1.26-1.74,7.6,7.6,0,0,1-.7-1.89,11.9,11.9,0,0,1-.28-1.88q-2.86,2.4-5.57,4.81t-4.82,4.42q-2.11,2-3.44,3.39a9.87,9.87,0,0,0-1.49,1.75c-.08.19-.32.12-.73-.19a9.52,9.52,0,0,1-1.25-1.19,9.69,9.69,0,0,1-1.12-1.53c-.32-.54-.43-.93-.33-1.18a9.94,9.94,0,0,1,1.34-1.43c.84-.81,1.94-1.86,3.3-3.13s2.93-2.68,4.7-4.22,3.61-3.1,5.53-4.68,3.82-3.13,5.7-4.63,3.59-2.84,5.11-4,2.78-2.19,3.77-3a8.87,8.87,0,0,0,1.65-1.52q.46-.95,1.06-.63a2.79,2.79,0,0,1,1.06,1.17,7.5,7.5,0,0,1,.71,1.86,2.26,2.26,0,0,1,0,1.48,4.67,4.67,0,0,1-.77.81q-.67.62-1.83,1.51a36.49,36.49,0,0,1,5.88-1.35,6.74,6.74,0,0,1,4,.38,3.49,3.49,0,0,1,1.19,1.13,4.24,4.24,0,0,1,.66,1.9,7.69,7.69,0,0,1-.23,2.67,13.37,13.37,0,0,1-1.43,3.41,12.49,12.49,0,0,1-1.48,2,23.55,23.55,0,0,1-2.07,2.06,29.74,29.74,0,0,1-2.46,1.95,23.9,23.9,0,0,1-2.71,1.67,24.56,24.56,0,0,0,4.16,0,28.45,28.45,0,0,0,3.8-.58,24.4,24.4,0,0,0,3.28-1A27.91,27.91,0,0,0,399.06,99.18Zm-42.57,4.7q.47-.47,1-.93l.88-.82q.4-.41.84-.79l-.25.18a1.87,1.87,0,0,0-.33.24l-.36.33c-.12.11-.26.22-.43.34a3,3,0,0,0-.46.43l-.51.43c-.17.14-.34.29-.53.47a3.35,3.35,0,0,1-.48.49,3.63,3.63,0,0,0-.46.45,11.68,11.68,0,0,1-.84.84,3.74,3.74,0,0,0-.58.62l-.21.25.24-.19a1.36,1.36,0,0,0,.29-.24l.34-.36c.12-.11.26-.23.42-.35a3,3,0,0,0,.45-.43c.17-.15.34-.3.49-.46Zm22.78-19.69.41-.39a2,2,0,0,1,.35-.27,2.1,2.1,0,0,0,.29-.2l-.05,0c-.3.28-.65.56-1.05.86s-.76.6-1.24.94-1,.75-1.56,1.23q-1.77,1.35-4,3.09T368,93.06q-4.16,3.43-8.17,7l-3.59,3.21,0,.06a2.24,2.24,0,0,1,.26-.23l.33-.27.43-.37a12.55,12.55,0,0,1,1.18-1q.7-.54,1.53-1.28l1.83-1.48q1-.8,2-1.69T366,95.18l2.28-1.85q1.09-1,2.2-1.87l2.18-1.78q1.09-.9,2.07-1.68t1.83-1.5l.8-.69c.24-.21.48-.42.71-.63a6.39,6.39,0,0,0,.66-.51Zm-4.36,9.7q-.42.63-.87,1.43a6.75,6.75,0,0,0-.65,1.61,3,3,0,0,0,0,1.5,1.63,1.63,0,0,0,.95,1.07,6.24,6.24,0,0,0,3.37.63,12,12,0,0,0,3.6-.92,17.89,17.89,0,0,0,3.56-2,33.14,33.14,0,0,0,3.25-2.67,30.27,30.27,0,0,0,2.68-2.84,17.69,17.69,0,0,0,1.83-2.63,9,9,0,0,0-3.63,0,38.29,38.29,0,0,0-5.47,1.33A65.74,65.74,0,0,0,374.92,93.89ZM381,87.61l-.6.32-.44.25a1.36,1.36,0,0,0-.38.26.12.12,0,0,1,.09-.05l.32-.14a4.62,4.62,0,0,1,.46-.24l.63-.3.78-.3.86-.31a9.18,9.18,0,0,1,.91-.35q.5-.17,1-.3c.62-.21,1.28-.4,2-.57a15.64,15.64,0,0,1,1.78-.41c.25-.07.49-.12.7-.15l.54-.09a.46.46,0,0,0,.2-.07.27.27,0,0,1,.13-.06l.14,0-.14,0-.36.06-.57.07a5.26,5.26,0,0,0-.73.14,6.79,6.79,0,0,0-.85.13l-1,.22-1,.27-1,.27-1,.32a9.49,9.49,0,0,0-.91.35,8.09,8.09,0,0,0-.84.34C381.49,87.4,381.24,87.51,381,87.61Zm7.26-.34-1.14.2c-.24,0-.48.09-.73.16s-.51.15-.77.24l-.87.25-.89.29a8,8,0,0,1-.83.32l-.81.28-.77.33-.66.24-.57.26-.43.23a1.08,1.08,0,0,0-.34.18l.39-.15.4-.17a5.94,5.94,0,0,1,.61-.21q.32-.14.7-.26l.77-.28.81-.28a8.1,8.1,0,0,0,.83-.32l.89-.29.82-.27q.39-.14.77-.24c.25-.07.5-.12.73-.16a2.65,2.65,0,0,0,.61-.18,2,2,0,0,1,.47-.15,1.37,1.37,0,0,1,.43-.07Zm-6.45,13.09.11,0,.11,0h.07l-1.17.23a5.55,5.55,0,0,1-.57.15l-.62.13a5.49,5.49,0,0,0-.73.12,6.59,6.59,0,0,1-.71.08,5,5,0,0,0-.74,0h-.72c-.31,0-.53,0-.65,0l-.33-.07-.28,0q-.56-.08-.94-.17a.71.71,0,0,1-.26-.08s-.05,0-.07,0l0,0a.71.71,0,0,0,.26.08l.45.12a3.75,3.75,0,0,0,.51.11,1.18,1.18,0,0,1,.27.06.92.92,0,0,0,.34,0,4.07,4.07,0,0,0,.67.09,4.79,4.79,0,0,0,.72,0,3.72,3.72,0,0,0,.78,0,12.52,12.52,0,0,0,1.4-.24l1.2-.29.48-.15Zm5.57-3.84.53-.51.53-.51a5,5,0,0,0,.47-.52,4.86,4.86,0,0,1,.48-.52l.38-.47.39-.46c.25-.3.46-.57.64-.8l.48-.64a1.11,1.11,0,0,1,.16-.24.85.85,0,0,0,.12-.16l.08-.15-.47.49q-.27.25-.58.58t-.66.74l-.39.47a4,4,0,0,1-.43.44l-.49.48-.49.48c-.18.17-.36.33-.55.48s-.37.31-.55.48-.36.34-.56.5a4.38,4.38,0,0,1-.65.45l-.28.28a1.72,1.72,0,0,1-.3.21,3.17,3.17,0,0,0-.34.22l-.34.22-.33.2-.33.2a1.7,1.7,0,0,0-.31.16l-.32.2a3.62,3.62,0,0,0-.67.32,2.48,2.48,0,0,1-.64.28l-.32.13-.32.13a1.52,1.52,0,0,0-.3.09,1.52,1.52,0,0,1-.3.09l-.55.16-.52.12a2.46,2.46,0,0,1-.43.12,2.6,2.6,0,0,0-.46.06l-.75.16.2,0a1.24,1.24,0,0,1,.29,0h.33a1.56,1.56,0,0,0,.39,0l.23,0,.23,0,.55-.11.62-.12a1.53,1.53,0,0,0,.3-.09.89.89,0,0,1,.34-.07l.32-.13.32-.13a4.66,4.66,0,0,0,1.36-.57l.33-.15.35-.19.33-.2.33-.2a2.44,2.44,0,0,0,.67-.44,1.77,1.77,0,0,0,.3-.21,3.58,3.58,0,0,1,.32-.25q.31-.23.6-.47T387.36,96.51Zm3.71-10.13h-.86l-.51,0-.46.06-.44.09-.44.09-.42.13-.35.11a1.52,1.52,0,0,0-.49.19l-.18.1.21,0,.26-.06.28-.1c.24,0,.49-.1.77-.17a5.62,5.62,0,0,1,.9-.15,2.39,2.39,0,0,1,.92-.11l.43-.07h.39a2.18,2.18,0,0,0,.59,0l.09,0,.09,0s.06,0,.07,0l-.25,0A5.22,5.22,0,0,0,391.07,86.38Z"/><path d="M422.56,115.29c.25-.07.48.09.69.48a5.11,5.11,0,0,1,.58,2.74c0,.45-.18.71-.43.78-1.35.35-3,.67-4.92,1a53.18,53.18,0,0,1-5.86.6,33,33,0,0,1-5.68-.19,9.94,9.94,0,0,1-4.44-1.52,4.1,4.1,0,0,1-1.26-1.33,4.93,4.93,0,0,1-.6-1.59,4.56,4.56,0,0,1,0-1.53,2.22,2.22,0,0,1,.42-1.09,8.12,8.12,0,0,1,1.15-.95q.89-.65,2.25-1.49-2.08.51-4,.89a35.21,35.21,0,0,1-3.69.53,15.81,15.81,0,0,1-3.18,0,6.09,6.09,0,0,1-2.46-.78,4.07,4.07,0,0,1-1.05-1,6.12,6.12,0,0,1-.89-1.62,5.16,5.16,0,0,1-.32-1.92,3.41,3.41,0,0,1,.68-1.94,7.49,7.49,0,0,1,1.93-1.63q1.51-1,3.53-2.16t4.3-2.34c1.52-.79,2.95-1.51,4.27-2.18s2.45-1.23,3.38-1.72a7.39,7.39,0,0,0,1.66-1,.36.36,0,0,1,.51-.09,1.58,1.58,0,0,1,.51.64,7.77,7.77,0,0,1,.44,1.12,8.5,8.5,0,0,1,.3,1.27,6.6,6.6,0,0,1,.09,1.11,1.37,1.37,0,0,1-.13.68,5,5,0,0,1-1.38.72q-1.26.54-3.06,1.37T402,102.89q-2.07,1-3.87,1.94T395,106.57a6.74,6.74,0,0,0-1.61,1.18,6,6,0,0,0,3.58.47,44.07,44.07,0,0,0,5.42-.91q3-.67,6.28-1.6c2.18-.62,4.2-1.17,6-1.67s3.4-.9,4.67-1.2a4.79,4.79,0,0,1,2.14-.27,1.9,1.9,0,0,1,.79,1.11,3.75,3.75,0,0,1,.07,1.33,4.23,4.23,0,0,1-.33,1.2,4.72,4.72,0,0,1-.42.78,14.81,14.81,0,0,1-1.44.77l-3,1.51q-1.78.88-3.79,1.93t-3.68,2q-1.67.92-2.69,1.58c-.68.44-1,.7-.84.78a6.92,6.92,0,0,0,2.83,1,19,19,0,0,0,3.89.2,42.93,42.93,0,0,0,4.64-.47Q420,115.9,422.56,115.29Zm-29.7-11.63.45-.27a5.08,5.08,0,0,0,1-.57l.59-.34a3.43,3.43,0,0,0,.63-.29l.67-.36q.65-.33,1.32-.72a14.4,14.4,0,0,1,1.4-.72q.75-.36,1.45-.74c.46-.25.92-.48,1.36-.68s.88-.46,1.27-.69l1.11-.63,1-.49a4.92,4.92,0,0,0,.72-.43.6.6,0,0,0,.26-.15.66.66,0,0,1,.19-.14.43.43,0,0,1,.19-.09l-.68.3q-.36.14-.81.35c-.3.14-.63.29-1,.44s-.74.4-1.16.6l-1.3.62a13.84,13.84,0,0,0-1.41.66q-.7.37-1.43.7l-1.39.78-1.37.74q-.61.36-1.18.73l-1.09.68c-.65.44-1.16.8-1.54,1.08a.61.61,0,0,0-.24.19.36.36,0,0,1-.15.14.62.62,0,0,0-.14.12.34.34,0,0,1,.14-.12l.18-.1.28-.14a2.89,2.89,0,0,1,.3-.23Zm6.71,7.85.19,0,.12,0H400l-.42,0a2.7,2.7,0,0,0-.55,0,5,5,0,0,1-.69.06l-.35,0a2.18,2.18,0,0,1-.4,0l-.44,0-.44,0h-1l-1,0a1.75,1.75,0,0,0-.51-.06,2.2,2.2,0,0,1-.46,0,.51.51,0,0,1-.26,0,.51.51,0,0,0-.27,0l-.44-.11a.34.34,0,0,1-.23,0,.58.58,0,0,0-.21-.07l-.44-.11-.18-.11a.26.26,0,0,0-.13-.05.12.12,0,0,1-.08,0l-.37-.22a.72.72,0,0,1-.15-.12.71.71,0,0,0-.15-.12.5.5,0,0,0-.12-.12.46.46,0,0,1-.12-.12,1,1,0,0,1-.19-.21.34.34,0,0,1-.14-.19l-.11-.14-.11-.14a.17.17,0,0,0-.07-.09l.07.09.11.14a.75.75,0,0,1,.08.18l.14.19a1.27,1.27,0,0,0,.16.25l.23.24a1.44,1.44,0,0,0,.3.23l.37.22.18.11a.36.36,0,0,0,.21.07,2,2,0,0,0,.46.18,2.19,2.19,0,0,0,.41.15,2.34,2.34,0,0,1,.51.1.51.51,0,0,1,.24,0,.5.5,0,0,0,.24,0,2.28,2.28,0,0,0,.53.07,3.15,3.15,0,0,1,.48,0h1l.44,0h.49l1.67-.19.64-.09Zm-2.2-2a1.71,1.71,0,0,0-.41,0l-.29.05a.88.88,0,0,1-.26,0h.07s0,0,.19,0l.3,0,.37,0h.49l.51,0,.53-.06a5.25,5.25,0,0,0,.55-.09,10.93,10.93,0,0,0,2-.37l.35-.08.33,0,.26-.09-.24.06-.33,0-.35.08-1,.16-1.1.18A16.11,16.11,0,0,1,397.36,109.54Zm10.8-.61a.39.39,0,0,0,.22-.07.74.74,0,0,1,.17-.1.51.51,0,0,1,.17,0,.52.52,0,0,0-.17,0l-.18.06-.23,0-.63.18-.8.23-2,.57a11.69,11.69,0,0,1-1.17.3l-1.22.28-1.21.29c-.39.08-.77.15-1.16.22l-1.12.22-.52.06a3.46,3.46,0,0,0-.48.09l-1.53.18a.84.84,0,0,1-.25,0h-.19c-.08,0-.12,0-.14,0s.06,0,.14,0H396a.88.88,0,0,0,.25,0,4.43,4.43,0,0,0,.67,0,4.09,4.09,0,0,0,.88-.07,6.48,6.48,0,0,0,1-.06l1.12-.17,1.18-.25,1.21-.28a22.3,22.3,0,0,0,2.39-.58c.38-.1.73-.21,1.06-.32l.92-.31.78-.24Zm6.35.08a3.22,3.22,0,0,0-.69.37l-.27.19.29-.12a1.33,1.33,0,0,0,.36-.15l.41-.22a4,4,0,0,1,.5-.21,2.9,2.9,0,0,0,.53-.24,3.52,3.52,0,0,1,.58-.31l.63-.28a3.49,3.49,0,0,1,.58-.31,5,5,0,0,0,.56-.28,7.13,7.13,0,0,1,1-.55,2.5,2.5,0,0,0,.37-.22l.28-.18a1.09,1.09,0,0,1,.25-.14l-.3.11a1.44,1.44,0,0,0-.35.13l-.4.2-.48.22a4.16,4.16,0,0,0-.51.26l-.61.29-.61.3a3.67,3.67,0,0,1-.58.31,4.57,4.57,0,0,0-.56.28C415.16,108.67,414.81,108.86,414.52,109Z"/><path d="M439,129.56a1.21,1.21,0,0,1,1.08.49,3.82,3.82,0,0,1,.78,1.33,3.58,3.58,0,0,1,.2,1.46.84.84,0,0,1-.6.85,18.94,18.94,0,0,1-1.93.35c-.93.14-2,.25-3.29.35s-2.63.18-4.08.23a38.29,38.29,0,0,1-4.2-.06,24.74,24.74,0,0,1-3.73-.53,6.38,6.38,0,0,1-2.72-1.23,4.33,4.33,0,0,1-.71-1A7.27,7.27,0,0,1,419,130a6.93,6.93,0,0,1-.23-2.19,3.67,3.67,0,0,1,.85-2.14,8.13,8.13,0,0,1,2.93-2.21,33.53,33.53,0,0,1,3.89-1.57l3.66-1.2a4.87,4.87,0,0,0,2.17-1.13c.07-.09,0-.43-.35-1a14.07,14.07,0,0,0-1-1.57q-1.8.51-4,1.21l-4,1.27a.82.82,0,0,1-1.06-.33,3.38,3.38,0,0,1-.48-1.35,4,4,0,0,1,.06-1.54q.18-.75.65-.89l3.08-1.17q1.63-.62,3.15-1.1-.55-.94-1-1.91a7.55,7.55,0,0,1-.62-1.93,5.62,5.62,0,0,1,0-1.92,4.16,4.16,0,0,1,.82-1.83,6.72,6.72,0,0,1,2.27-1.83,15.85,15.85,0,0,1,3.26-1.26,22,22,0,0,1,3.72-.66,27.74,27.74,0,0,1,3.63-.11,18.27,18.27,0,0,1,3,.34,4.36,4.36,0,0,1,1.84.73,5.79,5.79,0,0,1,1.21,1.59,12.87,12.87,0,0,1,1,2.35,8.46,8.46,0,0,1,.43,2.43,2.68,2.68,0,0,1-.59,1.88,5.81,5.81,0,0,1-1.81,1.16c-.9.42-2,.88-3.32,1.36s-2.79,1-4.42,1.5-3.36,1-5.17,1.54q.58.88,1.21,2a17.06,17.06,0,0,1,1,2.09,6.75,6.75,0,0,1,.5,1.88,1.73,1.73,0,0,1-.35,1.35,4.3,4.3,0,0,1-1.46.79q-1.18.46-2.68,1l-3.18,1.16q-1.67.6-3,1.18a15.14,15.14,0,0,0-2,1c-.47.31-.58.57-.32.79a4.47,4.47,0,0,0,2.1.85,17.76,17.76,0,0,0,3.05.24,33,33,0,0,0,3.49-.19q1.81-.19,3.41-.41t2.81-.42ZM434.62,103c.19,0,.37-.08.54-.13l.54-.13,1.08-.16a2.35,2.35,0,0,1,.46-.08,2.43,2.43,0,0,0,.46-.08q.46-.08.81-.11c.23,0,.44,0,.63-.09l.54-.07h-.56a2.7,2.7,0,0,1-.67,0,3.72,3.72,0,0,0-.85.06,3.5,3.5,0,0,0-.49,0l-.51,0-1.08.16-.6.06-.55.1-1.15.27a3.91,3.91,0,0,1-.53.18l-.57.14-.5.2-.5.2-.48.22-.47.22a3.31,3.31,0,0,0-.72.44,1.33,1.33,0,0,0-.36.22,1.16,1.16,0,0,1-.26.19,2.2,2.2,0,0,0-.39.42.19.19,0,0,0-.13.12.19.19,0,0,1-.13.12l-.05.07s0,0,0,.07l.08-.1a1.06,1.06,0,0,1,.26-.24L429,105a3.43,3.43,0,0,1,.64-.34l.41-.18.41-.18.46-.2.46-.2,1-.32,1.1-.31Zm-7.31,6.44s0,0,0-.07v-.21a.9.9,0,0,1,0-.3c0-.11,0-.23,0-.37a2.92,2.92,0,0,1,.17-.92.59.59,0,0,1,.1-.23.6.6,0,0,0,.1-.23,1.12,1.12,0,0,0,.14-.23,1.19,1.19,0,0,1,.14-.23l.29-.38a1.69,1.69,0,0,0,.37-.38,3.24,3.24,0,0,0,.34-.29,3.58,3.58,0,0,1,.34-.29.85.85,0,0,0,.32-.17,1.47,1.47,0,0,1,.25-.17.17.17,0,0,1,.08-.05.15.15,0,0,0,.08-.05l0,0s-.06,0-.07,0a.15.15,0,0,1-.08.05.16.16,0,0,0-.08.05,1.26,1.26,0,0,0-.24.12,3.19,3.19,0,0,1-.37.19.34.34,0,0,0-.17.12.33.33,0,0,1-.17.12,1.17,1.17,0,0,0-.39.31,1.31,1.31,0,0,0-.34.35,1.74,1.74,0,0,0-.37.38,628.24,628.24,0,0,1-.45,1c0,.17,0,.33-.06.48s0,.31-.06.48a3,3,0,0,0,0,.39,1.77,1.77,0,0,0,.06.32Zm2.91-.12a2.18,2.18,0,0,0-.52,1.44,4.56,4.56,0,0,0,.47,1.72q3.1-1,5.87-2c1.84-.65,3.45-1.23,4.82-1.77s2.42-1,3.15-1.37,1-.65.81-.81a3,3,0,0,0-1.32-.4,15,15,0,0,0-2.44-.12q-1.41,0-3,.21a19.83,19.83,0,0,0-3.14.6,16.46,16.46,0,0,0-2.77,1A5.29,5.29,0,0,0,430.22,109.29Zm3.95,2.71,1-.35,1-.35,1-.36,1-.4.46-.16.46-.16c.28-.15.55-.27.79-.37a9.34,9.34,0,0,1,1.14-.59.51.51,0,0,1,.14-.11.52.52,0,0,0,.14-.12s.07-.05.11,0l0,0a1.22,1.22,0,0,1-.47.18l-.56.19c-.22.07-.45.15-.69.25-.51.22-1.08.45-1.72.68s-1.32.45-2,.67-1.36.51-2,.74l-1.74.62q-.92.28-1.71.6l0,0,.53-.08a2.58,2.58,0,0,1,.54-.15,6.35,6.35,0,0,0,.72-.18A14.12,14.12,0,0,0,434.17,112Zm-12.4,12.91a.29.29,0,0,1-.13.07,2.71,2.71,0,0,0-.35.17l-.43.36-.49.43a3.41,3.41,0,0,0-.61,1,.87.87,0,0,0-.12.41.3.3,0,0,1,0,.14.16.16,0,0,1,0-.14.63.63,0,0,0,.09-.15.7.7,0,0,1,.12-.19,2.63,2.63,0,0,1,.3-.46l.4-.5c.16-.14.31-.28.45-.43a3.35,3.35,0,0,1,.4-.36.85.85,0,0,1,.29-.27Zm3.51-1.62a.35.35,0,0,1,.12-.1.39.39,0,0,0,.12-.1.12.12,0,0,1,.1,0,.12.12,0,0,0-.1,0,.13.13,0,0,0-.11,0,.29.29,0,0,1-.14.08l-.46.2a4.59,4.59,0,0,0-.51.26l-.6.33a5.76,5.76,0,0,0-.65.4l-.32.22-.35.25-.63.51a3.67,3.67,0,0,0-.33.27,2.75,2.75,0,0,0-.28.31,1,1,0,0,0-.27.29,1,1,0,0,1-.27.29,1.62,1.62,0,0,1-.2.34,1.13,1.13,0,0,0-.18.31.34.34,0,0,1-.07.17.33.33,0,0,0-.07.17,104.28,104.28,0,0,0-.21.62.45.45,0,0,0,0,.14.6.6,0,0,1,0,.14.69.69,0,0,0,0,.26,1.27,1.27,0,0,1,0,.22l.06.28a.12.12,0,0,0,0,.1l0,0,0,0v-.1a.54.54,0,0,1,0-.28.73.73,0,0,1,0-.48.12.12,0,0,1,0-.1.3.3,0,0,0,0-.14.58.58,0,0,1,.08-.27.31.31,0,0,1,.07-.17.34.34,0,0,0,.07-.17.4.4,0,0,0,.08-.14.38.38,0,0,1,.07-.14,1.15,1.15,0,0,1,.18-.31l.25-.31.25-.31a1.62,1.62,0,0,1,.29-.27,2.42,2.42,0,0,1,.27-.29l.31-.25a1.75,1.75,0,0,0,.31-.29.91.91,0,0,1,.35-.25l.31-.25a.92.92,0,0,1,.33-.18l.63-.42.58-.35A3.44,3.44,0,0,1,425.27,123.29Z"/><path d="M458.29,149.07a.87.87,0,0,1,1,.51,3.35,3.35,0,0,1,.34,1.47,3.54,3.54,0,0,1-.3,1.54,1.19,1.19,0,0,1-.88.79,34.05,34.05,0,0,1-5,.16,29.7,29.7,0,0,1-6-.85,30.33,30.33,0,0,1-6.38-2.37,25.21,25.21,0,0,1-6.24-4.52l-.59-.48-.56-.51a7.18,7.18,0,0,1-1.69-2.32,5.35,5.35,0,0,1-.46-2.21,4.59,4.59,0,0,1,.47-2,4.49,4.49,0,0,1,1.13-1.47,4,4,0,0,1,1.19-.75,1.87,1.87,0,0,1,.86-.13.76.76,0,0,1,.48.2c.09.1.1.19,0,.25a2.44,2.44,0,0,0-.92,1.94,4.45,4.45,0,0,0,.73,2.21,10.64,10.64,0,0,0,1.84,2.18,13.48,13.48,0,0,0,2.34,1.77,8.44,8.44,0,0,0,2.28,1,2,2,0,0,0,1.73-.2c.32-.26.33-.74,0-1.43a19.07,19.07,0,0,0-1.39-2.47q-.92-1.42-2-3.06a22.08,22.08,0,0,1-1.8-3.25,7.72,7.72,0,0,1-.73-3.06,3.22,3.22,0,0,1,1.21-2.53,5.34,5.34,0,0,1,2.78-1.23,12.13,12.13,0,0,1,3.54,0,21.09,21.09,0,0,1,3.86,1,27.44,27.44,0,0,1,3.74,1.62,31.39,31.39,0,0,1,3.15,1.88,13.57,13.57,0,0,1,2.11,1.72,3,3,0,0,1,.85,1.64,3.87,3.87,0,0,1-.14,1.71,5.13,5.13,0,0,1-.79,1.54,5.68,5.68,0,0,1-1,1.1,3.75,3.75,0,0,1-1.47.62,12.4,12.4,0,0,1-3.55.27,1.7,1.7,0,0,1-.85-.19l-.6-.63a12.5,12.5,0,0,1-.83-1,5.21,5.21,0,0,1-.62-1c-.15-.32-.14-.54,0-.66a2.87,2.87,0,0,1,1-.3l1.57-.27,1.58-.26a3,3,0,0,0,1-.29c.08-.08-.11-.31-.58-.67a14.62,14.62,0,0,0-1.95-1.21q-1.23-.66-2.78-1.33a22.44,22.44,0,0,0-3-1.07,14.15,14.15,0,0,0-2.72-.49,2.38,2.38,0,0,0-1.82.45c-.06.06.1.38.49.95l1.42,2.14q.85,1.29,1.74,2.9a23,23,0,0,1,1.48,3.18,9.26,9.26,0,0,1,.62,2.92,2.69,2.69,0,0,1-.79,2.13q-.35.33-.66.58t-.6.45a25.38,25.38,0,0,0,7.22,1.56A26,26,0,0,0,458.29,149.07Zm-16.7-20.16.58-.09a3.17,3.17,0,0,1,.62-.05l1.42.07a11.24,11.24,0,0,1,1.56.24l1.62.36a25.37,25.37,0,0,1,3.2,1q1.57.63,2.75,1.19l1.13.58c.33.17.6.32.81.45a1.19,1.19,0,0,1,.32.17,1.5,1.5,0,0,0,.24.15l.13.13s.05,0,.07,0l0,0a.16.16,0,0,0-.08-.05.16.16,0,0,1-.08-.05,5.34,5.34,0,0,1-.53-.35c-.24-.16-.52-.34-.84-.51l-1.11-.59-1.3-.65a12.58,12.58,0,0,0-1.44-.59q-.82-.31-1.62-.57t-1.6-.48a17.29,17.29,0,0,0-3.21-.57,5.16,5.16,0,0,0-.75,0h-.7a3.31,3.31,0,0,0-.62.05l-.58.09a2.2,2.2,0,0,0-.92.29l-.4.17a.38.38,0,0,1-.13.09.36.36,0,0,0-.13.09,1.85,1.85,0,0,0-.37.32l-.09.1.09-.1a.71.71,0,0,1,.16-.12l.26-.15a.72.72,0,0,1,.25-.19l.37-.14a1.52,1.52,0,0,1,.44-.13A3,3,0,0,1,441.59,128.92Zm.52.49h.68l.76,0c.26,0,.52,0,.77.06a6.4,6.4,0,0,0,.69.05,2.43,2.43,0,0,1,.47,0l.22,0-.19-.06-.25-.09-.28-.05-1.48-.19a4.73,4.73,0,0,0-1.42.12l-.46.05a.28.28,0,0,0-.13.06s.05,0,.07,0l.1,0c.1,0,.16,0,.18,0h.25Zm-1.17,16.28a.9.9,0,0,0,.25.07.19.19,0,0,1,.11.05l-.34-.15-.41-.23a2.64,2.64,0,0,1-.49-.24l-.59-.38-.63-.42-.67-.54-.67-.54-.61-.6a1.82,1.82,0,0,1-.57-.55,3.8,3.8,0,0,1-.29-.31,3.24,3.24,0,0,0-.25-.27,1.35,1.35,0,0,0-.21-.27,1.31,1.31,0,0,1-.21-.27,1.27,1.27,0,0,0-.2-.25.71.71,0,0,1-.15-.21q-.19-.3-.24-.41l-.16-.33v.07a1.39,1.39,0,0,0,.11.29l.1.18.1.18a1.2,1.2,0,0,0,.16.24,1.29,1.29,0,0,1,.16.24l.44.61a1.46,1.46,0,0,0,.23.29,1.48,1.48,0,0,1,.23.29l.61.59.61.6.69.56a7.12,7.12,0,0,0,.68.49l.34.22.34.22a2.72,2.72,0,0,0,.57.32l.28.16.24.12Z"/></svg>