<svg id="Warriors" xmlns="http://www.w3.org/2000/svg" viewBox="0 0 512 512"><defs><style>.cls-1{opacity:0.5;}.cls-2{fill:#fff;}.cls-3{fill:#ffef3b;}.cls-4{fill:#841717;}</style></defs><title>Warriors</title><g class="cls-1"><ellipse class="cls-2" cx="255.18" cy="247.34" rx="242.51" ry="244.7"/><path d="M255.18,494.67c-65.48,0-127-25.73-173.35-72.45a248.9,248.9,0,0,1,0-349.77C128.14,25.73,189.7,0,255.18,0s127,25.73,173.35,72.45a248.9,248.9,0,0,1,0,349.77C382.23,468.94,320.67,494.67,255.18,494.67Zm0-489.4A237.21,237.21,0,0,0,85.58,76.16a243.63,243.63,0,0,0,0,342.35,238.34,238.34,0,0,0,339.21,0,243.63,243.63,0,0,0,0-342.35A237.21,237.21,0,0,0,255.18,5.27Z"/></g><g class="cls-1"><ellipse class="cls-3" cx="253.91" cy="247.37" rx="169.5" ry="169.09"/><path d="M253.91,418.48c-94.58,0-171.52-76.76-171.52-171.11S159.34,76.26,253.91,76.26,425.44,153,425.44,247.37,348.49,418.48,253.91,418.48Zm0-338.19c-92.35,0-167.48,74.95-167.48,167.08s75.13,167.07,167.48,167.07S421.4,339.5,421.4,247.37,346.27,80.3,253.91,80.3Z"/></g><g class="cls-1"><ellipse class="cls-2" cx="250.68" cy="248.47" rx="147.98" ry="153.11"/><path class="cls-2" d="M250.68,401.87c-81.76,0-148.27-68.82-148.27-153.4s66.51-153.4,148.27-153.4S399,163.88,399,248.47,332.44,401.87,250.68,401.87Zm0-306.22C169.25,95.65,103,164.2,103,248.47s66.25,152.82,147.69,152.82,147.69-68.55,147.69-152.82S332.12,95.65,250.68,95.65Z"/></g><rect x="102.7" y="246.42" width="295.96" height="4.1"/><rect x="251.2" y="96.56" width="2.34" height="306.22"/><path class="cls-4" d="M352.43,362.2c-33.37-9.38-57.17-47.89-60.62-98.13-1.82-26.4,2.52-53,12.23-74.84,10.9-24.56,28.14-42.54,49.85-52L355,139.9c-21,9.17-37.74,26.64-48.34,50.52-9.51,21.43-13.77,47.52-12,73.45,3.37,49,26.33,86.47,58.49,95.51Z"/><path d="M149.31,362.2l-.79-2.82c32.16-9,55.12-46.53,58.49-95.51,1.79-25.93-2.47-52-12-73.45-10.6-23.88-27.31-41.35-48.34-50.52l1.17-2.68c21.71,9.47,38.95,27.46,49.85,52,9.7,21.86,14,48.44,12.23,74.84C206.48,314.3,182.68,352.82,149.31,362.2Z"/><path d="M74.36,129.6a.59.59,0,0,1,.71.42,2.46,2.46,0,0,1,0,1.41,7.45,7.45,0,0,1-.84,2,9.6,9.6,0,0,1-1.8,2.22q-.29.33-.63.66c-.23.22-.45.45-.67.7a28.85,28.85,0,0,1,.57,2.86q.28,1.75.4,3.81t0,4.33a29.88,29.88,0,0,1-.5,4.46,20.09,20.09,0,0,1-1.27,4.19,12.58,12.58,0,0,1-2.29,3.56,7.78,7.78,0,0,1-2.35,1.65,9.89,9.89,0,0,1-3.44.93,11.35,11.35,0,0,1-4-.38,10.64,10.64,0,0,1-4.16-2.3,10.52,10.52,0,0,1-2.77-4.26,29.35,29.35,0,0,1-1.65-6.52,47.61,47.61,0,0,1-.44-7.7,51.7,51.7,0,0,1,.73-7.77,34.71,34.71,0,0,1,1.81-6.69,12.49,12.49,0,0,1,2.71-4.46A7.38,7.38,0,0,1,57.19,121a6.23,6.23,0,0,1,2.41-.37,4.43,4.43,0,0,1,2,.58A6.11,6.11,0,0,1,63,122.27a4.83,4.83,0,0,1,.93,1.81,19.4,19.4,0,0,1,.62,2.52,19.16,19.16,0,0,1,.28,2.3q.05,1-.11,1.17a2.21,2.21,0,0,1-.69.39,4.56,4.56,0,0,1-1,.27,5.12,5.12,0,0,1-1.11,0,1.28,1.28,0,0,1-.86-.35,2.89,2.89,0,0,1-.55-1.48q-.19-1.11-.39-2.12a3.65,3.65,0,0,0-.61-1.52c-.27-.33-.69-.22-1.28.35a11.3,11.3,0,0,0-2.55,4.13,26.14,26.14,0,0,0-1.46,5.89,36.42,36.42,0,0,0-.26,6.7A37.2,37.2,0,0,0,54.8,149a28.63,28.63,0,0,0,2,5.75,12.46,12.46,0,0,0,2.91,4.06,7.81,7.81,0,0,0,1.08.81,2.31,2.31,0,0,0,1.18.36,2.75,2.75,0,0,0,1.38-.4,7.25,7.25,0,0,0,1.73-1.49,10.88,10.88,0,0,0,2.42-4.1,17.33,17.33,0,0,0,.78-4.45,21.73,21.73,0,0,0-.22-4.3q-.32-2.05-.63-3.54c-.68.88-1.2,1.53-1.58,1.93l-1,1a1.29,1.29,0,0,1-1.16.34,5.27,5.27,0,0,1-1.48-.43,9.5,9.5,0,0,1-1.38-.75,6.6,6.6,0,0,1-.89-.66q-.09-.09.82-1.17t2.38-2.58q1.47-1.51,3.26-3.23T69.87,133q1.66-1.45,2.92-2.42A6,6,0,0,1,74.36,129.6ZM51.58,154.08a2.82,2.82,0,0,1-.14-.5,2.89,2.89,0,0,0-.14-.5q-.29-.93-.43-1.51c0-.23-.06-.38-.07-.45a.15.15,0,0,1,0-.14.15.15,0,0,0,0,.14,4.5,4.5,0,0,1,.07.45,13.8,13.8,0,0,0,.32,1.57q.11.48.27,1t.41,1.1a3.58,3.58,0,0,0,.21.56c.08.17.18.35.28.54l.27.53.3.56a3.83,3.83,0,0,0,.34.51l.38.47.38.47a3.14,3.14,0,0,0,.41.43,2.59,2.59,0,0,0,.38.4l.42.36a2,2,0,0,1,.4.27,2,2,0,0,0,.4.27,3.55,3.55,0,0,0,.71.39,2.71,2.71,0,0,0,.61.3.61.61,0,0,1,.2.1.33.33,0,0,0,.17.07.15.15,0,0,0,.14,0,.16.16,0,0,1-.14,0l-.17-.11a1,1,0,0,1-.2-.14,1.38,1.38,0,0,1-.25-.11l-.32-.17a1.25,1.25,0,0,1-.32-.2,1.75,1.75,0,0,0-.35-.23,2,2,0,0,1-.4-.27l-.4-.34q-.17-.14-.36-.35t-.4-.38l-.38-.44c-.12-.13-.25-.27-.38-.44a5.82,5.82,0,0,1-.36-.49c-.11-.17-.22-.35-.32-.54s-.21-.37-.32-.54a4.76,4.76,0,0,1-.29-.51,4.26,4.26,0,0,1-.27-.57q-.11-.28-.23-.54c-.08-.17-.16-.35-.23-.54Zm18.47,2.31a.17.17,0,0,1,0-.11,440.44,440.44,0,0,0,.08-.22.17.17,0,0,1,0,.11.28.28,0,0,0-.06.09.44.44,0,0,1-.09.13c-.11.24-.24.51-.39.8a7.65,7.65,0,0,1-.71,1.08,1.29,1.29,0,0,1-.2.28,1.93,1.93,0,0,0-.24.32,2.85,2.85,0,0,0-.22.27,1.26,1.26,0,0,1-.29.28,1.1,1.1,0,0,1-.24.29,2.68,2.68,0,0,0-.27.26,1.88,1.88,0,0,0-.28.25,2,2,0,0,1-.28.25l-.53.39-.49.35a2.35,2.35,0,0,0-.45.24l-.35.19-.31.15h.07a1.22,1.22,0,0,0,.28-.11.34.34,0,0,0,.14-.06l.17-.1a.51.51,0,0,0,.24-.11.5.5,0,0,1,.24-.11l.26-.16.26-.16.56-.43.6-.46.5-.55a5.39,5.39,0,0,0,.51-.62,5.5,5.5,0,0,0,.44-.61,1.2,1.2,0,0,0,.18-.26l.15-.29c.15-.25.25-.42.3-.52s.16-.33.23-.47A1.84,1.84,0,0,0,70.06,156.39Zm.8-4.4s0,0,0,.07a.12.12,0,0,0,0,.07.13.13,0,0,1,0,.07c0,.09,0,.3-.12.63s-.19.55-.3.86-.23.63-.34,1-.28.69-.41,1l-.36.83a1.56,1.56,0,0,1-.17.35,1.12,1.12,0,0,0-.13.24.63.63,0,0,0-.08.22,1.06,1.06,0,0,0,.15-.22.71.71,0,0,1,.15-.22,1,1,0,0,0,.19-.33,2.61,2.61,0,0,1,.18-.38c.06-.11.14-.25.21-.42a4.73,4.73,0,0,0,.2-.5,5,5,0,0,1,.21-.5,4.15,4.15,0,0,0,.35-1,1.72,1.72,0,0,0,.16-.48,3.54,3.54,0,0,1,.08-.4c.07-.33.11-.54.12-.63Zm-20.5-14.85a1,1,0,0,1,0,.31.49.49,0,0,0,0,.23c0,.1,0,.16,0,.18s0-.08,0-.18a4.2,4.2,0,0,1,.1-.55q0-.36.14-.88t.17-1.1c.05-.22.1-.44.13-.65s.07-.43.1-.68a5,5,0,0,1,.15-.72,5.21,5.21,0,0,0,.15-.72,5.79,5.79,0,0,1,.15-.76q.11-.39.2-.8t.2-.8a8,8,0,0,1,.27-.81l.26-.82c0-.12.08-.26.11-.39a2.38,2.38,0,0,1,.15-.43l.13-.38a4.29,4.29,0,0,1,.17-.42,3.66,3.66,0,0,1,.14-.36l.19-.4.32-.69a4.07,4.07,0,0,0,.4-.7.8.8,0,0,1,.19-.31.8.8,0,0,0,.19-.31,4.29,4.29,0,0,1,.45-.56l.19-.27a2.23,2.23,0,0,1,.22-.24l.43-.41a.44.44,0,0,1,.16-.18l.19-.15a2,2,0,0,0,.37-.3.74.74,0,0,0,.3-.16.78.78,0,0,1,.22-.15.67.67,0,0,0,.2-.13l0,0a.29.29,0,0,1-.16.09l-.23.1a2.5,2.5,0,0,0-.32.18.62.62,0,0,0-.18.11.61.61,0,0,1-.18.11l-.21.17-.21.17a2.76,2.76,0,0,1-.46.38,2.88,2.88,0,0,0-.24.26,2.79,2.79,0,0,1-.24.26l-.42.59a1.62,1.62,0,0,1-.25.3.86.86,0,0,0-.21.33l-.21.33-.21.33a1.61,1.61,0,0,1-.18.37,1.66,1.66,0,0,0-.18.37l-.19.4-.19.4c0,.13-.09.26-.15.4s-.11.27-.15.4-.13.29-.17.42a4.4,4.4,0,0,1-.17.42l-.22.78q-.14.45-.24.84c-.07.26-.14.53-.2.8l-.18.81c-.06.27-.11.53-.14.77s-.11.52-.15.76-.08.47-.11.71l-.09.69-.08.62c0,.39-.08.75-.1,1.09S50.38,136.9,50.36,137.14Zm1.89-6.77a3.07,3.07,0,0,1,.06-.31,3.16,3.16,0,0,0,.06-.31l0-.22-.1.23a1.42,1.42,0,0,1-.08.3,1.37,1.37,0,0,0-.08.3c-.06.27-.13.56-.21.87s-.15.63-.22.94-.17.68-.24,1-.11.6-.14.84l-.1.8a.36.36,0,0,0,.06-.19,6.49,6.49,0,0,0,.19-.64,7.64,7.64,0,0,1,.16-.83q.11-.46.25-1t.22-1Q52.2,130.74,52.25,130.37Zm21.85,0-.19.12-.54.31a8.81,8.81,0,0,0-.76.52q-.38.29-.78.66a9.86,9.86,0,0,0-1.38,1.29,4,4,0,0,1-.41.45.77.77,0,0,0-.17.22.77.77,0,0,0,.23-.16l.2-.16a2.34,2.34,0,0,0,.28-.23l.71-.54q.39-.31.76-.65t.76-.65l.65-.6ZM63.43,125c0,.16.1.33.16.51a1.67,1.67,0,0,1,.07.24.41.41,0,0,1,0-.21l0-.26-.06-.36a1.4,1.4,0,0,0-.06-.36l-.12-.43a3.17,3.17,0,0,0-.39-.84.4.4,0,0,0-.11-.2.39.39,0,0,1-.11-.2l-.3-.32-.3-.32a.88.88,0,0,1-.28-.22,2.5,2.5,0,0,0-.32-.18l-.24-.08-.2,0,0,0a.15.15,0,0,0,.08,0,.17.17,0,0,1,.08,0,.12.12,0,0,1,.1,0,.28.28,0,0,0,.13.06l.21.23a.73.73,0,0,1,.28.22l.27.29a.93.93,0,0,1,.14.2.75.75,0,0,0,.11.16,1.14,1.14,0,0,1,.21.4,3.37,3.37,0,0,0,.24.38,1.32,1.32,0,0,1,.19.42,2.53,2.53,0,0,0,.14.41A1.53,1.53,0,0,1,63.43,125Z"/><path d="M93.47,112c0-.32.18-.55.57-.7a3.78,3.78,0,0,1,1.3-.22,5.48,5.48,0,0,1,1.32.14c.41.1.63.23.66.39a34.26,34.26,0,0,1,.42,3.81,20.14,20.14,0,0,1-.28,4.66,17.66,17.66,0,0,1-1.61,4.85,13.2,13.2,0,0,1-3.59,4.37l-.39.32a3.14,3.14,0,0,1-.41.28q-.07,1.65-.3,3.22a18.86,18.86,0,0,1-.66,2.94,13,13,0,0,1-1.08,2.53,7.51,7.51,0,0,1-1.54,1.94,5.25,5.25,0,0,1-1.59.8,11.28,11.28,0,0,1-2.61.58,10.06,10.06,0,0,1-2.86-.08,4.11,4.11,0,0,1-2.37-1.27,7,7,0,0,1-1.34-2.27,17.78,17.78,0,0,1-.88-3.11,22.57,22.57,0,0,1-.38-3.46,29,29,0,0,1,.07-3.31l-.55-.62a4,4,0,0,1-.87-2.66,11.87,11.87,0,0,1,.53-3.57,16.21,16.21,0,0,1,1.57-3.58,10,10,0,0,1,2.15-2.66,4,4,0,0,1,1.79-.7,7.2,7.2,0,0,1,2.65,0,10.52,10.52,0,0,1,2.92,1,8.21,8.21,0,0,1,2.66,2.26,10.11,10.11,0,0,1,1.63,3.28,23.9,23.9,0,0,1,.89,4.38A8.08,8.08,0,0,0,93,122.4a16.89,16.89,0,0,0,.62-3.69,29,29,0,0,0,0-3.67Q93.49,113.26,93.47,112ZM81.21,138.69a741.1,741.1,0,0,0-.37-.73,3.57,3.57,0,0,0-.17-.47,3.8,3.8,0,0,1-.17-.47,3,3,0,0,1-.3-1c0-.16-.08-.3-.11-.44s-.06-.28-.1-.44a1,1,0,0,0-.11-.32.37.37,0,0,1,0-.25.54.54,0,0,1,0-.27,2,2,0,0,1,0,.27.87.87,0,0,0,0,.29,2.5,2.5,0,0,1,0,.32,4.63,4.63,0,0,0,.17.91q.07.23.12.49c0,.17.07.33.12.49a2,2,0,0,0,.21.47,2,2,0,0,1,.21.47,1.24,1.24,0,0,0,.22.4.79.79,0,0,1,.11.16.83.83,0,0,0,.11.16,1.58,1.58,0,0,0,.2.3l.18.19.15.16,0,0a.08.08,0,0,1,0-.07s0-.05-.05-.1a1.35,1.35,0,0,1-.16-.21Zm.37-.22-.2-.38a2.45,2.45,0,0,1-.16-.42,6.58,6.58,0,0,1-.3-1l-.11-.61a2.6,2.6,0,0,1-.15-.57c0-.2-.07-.41-.09-.63s-.05-.42-.09-.63q-.05-.66-.1-1.33c0-.23,0-.45,0-.67s0-.43,0-.63l-.38-.19,0,.21c0,.23,0,.45,0,.67a5.9,5.9,0,0,0,0,.7q0,.66.1,1.33c0,.25.06.47.1.68l.11.61a2.07,2.07,0,0,0,.09.34l.1.27a.62.62,0,0,0,.08.29.62.62,0,0,1,.08.29q.1.27.2.5a3.66,3.66,0,0,1,.17.47q.08.17.18.43a1.14,1.14,0,0,1,.13.18,1.2,1.2,0,0,0,.13.18,3.14,3.14,0,0,0,.36.56.4.4,0,0,0,.14.2.82.82,0,0,1,.15.13l.09.1-.09-.1a1.26,1.26,0,0,0-.26-.36,1.39,1.39,0,0,0-.13-.27A1.51,1.51,0,0,1,81.58,138.47Zm1.6,1.22a9.21,9.21,0,0,0,2.27-3.24,16.3,16.3,0,0,0,1.15-4.17,8.49,8.49,0,0,1-3.11.28,9.66,9.66,0,0,1-2.71-.69,16.39,16.39,0,0,0,.47,4.17A8.26,8.26,0,0,0,83.18,139.69Zm-2.27-10A3.13,3.13,0,0,0,83.23,131a6,6,0,0,0,3.62-1.29,31.62,31.62,0,0,0-.09-3.83,24.88,24.88,0,0,0-.55-3.62,20.93,20.93,0,0,0-1-3.1A9.13,9.13,0,0,0,84,116.86a.89.89,0,0,0-1.41-.15,6.79,6.79,0,0,0-2,3.06,15.72,15.72,0,0,0-.87,4.25,4.65,4.65,0,0,1,1.51.41c.41.21.6.42.55.65s-.19.73-.38,1.57A24.72,24.72,0,0,0,80.91,129.71Zm6,3.21a1.32,1.32,0,0,0,.08-.36c0-.12,0-.25.05-.39,0,0,0,0-.05,0s0,0-.05,0l-.13.75a3.24,3.24,0,0,0-.11.56,2.56,2.56,0,0,1-.1.49,3.15,3.15,0,0,1-.11.48,2.27,2.27,0,0,0-.09.34,2.59,2.59,0,0,1-.07.32,1.81,1.81,0,0,0-.06.26.31.31,0,0,1-.06.17l.22-.71a3.68,3.68,0,0,0,.12-.39c0-.15.08-.3.13-.46s.09-.32.13-.49S86.83,133.14,86.87,132.92Zm-6.58-4.41a1.65,1.65,0,0,0,.1.24,1.86,1.86,0,0,1,.1.24c0-.21,0-.39,0-.57s0-.35.08-.53l.09-.52a3.45,3.45,0,0,0,.05-.48l.13-.69.13-.69a.65.65,0,0,1-.07.17,1.61,1.61,0,0,0-.1.23,2,2,0,0,0-.07.26c0,.23-.1.48-.18.76s-.14.6-.21,1Zm-4.46-6.07a3.68,3.68,0,0,1-.09.37,2.93,2.93,0,0,0-.07.3l0,.21,0,0,0-.21a2.93,2.93,0,0,1,.07-.3c0-.11.07-.22.12-.34L76,122c.05-.14.12-.31.2-.49s.1-.32.15-.47a1.84,1.84,0,0,1,.22-.48c.08-.19.16-.36.21-.53a3.1,3.1,0,0,1,.2-.46,2.58,2.58,0,0,0,.24-.46,3.44,3.44,0,0,1,.19-.42q.23-.42.3-.6l.12-.21,0,0a2.47,2.47,0,0,1-.16.25c-.07.09-.18.28-.33.57l-.47.89q-.24.46-.45,1a9.11,9.11,0,0,0-.35,1Zm-.16-1c0,.07-.05.11,0,.12s0,0,0,.09v.07a2.92,2.92,0,0,0,.13-.28,1.12,1.12,0,0,1,.11-.3,2.93,2.93,0,0,0,.17-.41,2.48,2.48,0,0,0,.24-.5c.06-.16.13-.34.21-.53a.77.77,0,0,1,.13-.28.75.75,0,0,0,.13-.28,1,1,0,0,1,.17-.28,1,1,0,0,0,.16-.28q.07-.18.3-.6a4.51,4.51,0,0,0,.29-.53q.16-.25.33-.48a3.77,3.77,0,0,0,.29-.44,2.29,2.29,0,0,1,.29-.36.54.54,0,0,1,.12-.16.56.56,0,0,0,.12-.16l.17-.14s0,0,0-.07l-.26.22-.26.22a2.22,2.22,0,0,0-.36.36,4.23,4.23,0,0,0-.38.43,1.23,1.23,0,0,1-.17.23,1.27,1.27,0,0,0-.17.23c-.13.19-.26.38-.37.57l-.34.6-.28.58a4.29,4.29,0,0,0-.25.62,5.72,5.72,0,0,0-.31,1A3.1,3.1,0,0,0,75.66,121.47Zm11.51,3.33c0-.14,0-.26-.06-.38s0-.24-.06-.37,0-.48-.08-.7-.08-.44-.12-.67a2.89,2.89,0,0,1-.15-.61,3.73,3.73,0,0,0-.12-.58q-.37-1.06-.57-1.75a2.37,2.37,0,0,1-.15-.44.34.34,0,0,0-.07-.17.34.34,0,0,1,.07.17,2.14,2.14,0,0,0,0,.22c0,.08,0,.17.07.26s.15.46.24.77.16.65.22,1c.05.18.1.37.14.56l.13.63q.07.34.12.67c0,.22.06.45.08.7a5.87,5.87,0,0,1,.1.72c0,.14,0,.26.06.37a1.68,1.68,0,0,1,0,.34c0,.3,0,.56,0,.8a7.66,7.66,0,0,0,.08.77c0,.27,0,.53,0,.78s0,.51,0,.78a1.22,1.22,0,0,1,0,.41,1.2,1.2,0,0,0,0,.41l.16-.14,0-.71c0-.27,0-.53,0-.78s0-.51,0-.78,0-.56,0-.8,0-.49-.07-.77l-.05-.36Zm-.31-3.89c-.09-.23-.17-.46-.24-.68s-.15-.46-.24-.68-.18-.45-.28-.65-.19-.4-.29-.58a3.24,3.24,0,0,0-.31-.6,4.88,4.88,0,0,1-.29-.5l-.52-.65-.22-.27.05.07a.3.3,0,0,1,0,.1.39.39,0,0,0,.07.14,2.85,2.85,0,0,1,.2.29c.08.13.16.27.24.43a4.78,4.78,0,0,0,.28.48,3.23,3.23,0,0,1,.29.58c.09.23.18.44.26.63s.17.41.26.63l.26.67.26.67c.07.21.13.41.18.62l.13.55.14.48a1.31,1.31,0,0,1,.06.38.61.61,0,0,0,.1.2.12.12,0,0,1,0,.1l0-.31a2.15,2.15,0,0,0,0-.39,4.77,4.77,0,0,0-.12-.5c0-.16-.07-.35-.11-.56A3.72,3.72,0,0,0,86.87,120.9Z"/><path d="M105.53,107.86c0-.18.22-.31.65-.39a5.32,5.32,0,0,1,1.43,0,5.71,5.71,0,0,1,1.43.31q.64.24.65.65.08,1.75.27,4.14a30.56,30.56,0,0,1,0,4.84,17.11,17.11,0,0,1-1,4.66,7.86,7.86,0,0,1-2.78,3.65,6.65,6.65,0,0,1-2,.93,9.11,9.11,0,0,1-2.57.41,8.79,8.79,0,0,1-2.58-.34,3.87,3.87,0,0,1-2-1.37,11.8,11.8,0,0,1-1.55-3.06A47.18,47.18,0,0,1,94,117.52q-.68-2.69-1.24-5.79t-1-6.25q-.4-3.14-.67-6.06t-.43-5.2c-.11-1.52-.19-2.75-.25-3.69a10.56,10.56,0,0,0-.14-1.48q-.3-.43.18-.77a2.67,2.67,0,0,1,.81-.21A8.68,8.68,0,0,1,92.78,88a7.27,7.27,0,0,1,1.6.19,1.74,1.74,0,0,1,1.11.66,5,5,0,0,1,.26,1.68c.06.95.14,2.17.23,3.65s.2,3.16.32,5,.29,3.82.51,5.8.47,4,.76,6,.64,3.87,1,5.6a46.1,46.1,0,0,0,1.29,4.61,11.2,11.2,0,0,0,1.49,3.07c.35.47.85.46,1.48,0a5.24,5.24,0,0,0,1.54-1.88,10.77,10.77,0,0,0,.89-2.61,19.75,19.75,0,0,0,.39-3q.09-1.6.07-3.19t-.09-3.07Zm-9.94,11a3.4,3.4,0,0,1,.14.53,2,2,0,0,0,.1.39.62.62,0,0,0,.1.31c-.07-.39-.17-.81-.3-1.27l-.31-1.42q-.17-.81-.41-1.84-.08-.55-.2-1.08t-.23-1.12q-.1-.59-.21-1.19c-.07-.4-.16-.82-.26-1.26q-.22-1.31-.44-2.68t-.4-2.76q-.21-1.42-.37-2.8t-.27-2.7q-.11-1.32-.21-2.55t-.21-2.28Q92,94.05,92,93.19t-.14-1.46q-.07-.7-.13-1.3c0,.38,0,.81.05,1.3s0,.93,0,1.52,0,1.24.06,1.94S92,96.69,92,97.5s.1,1.66.18,2.55.16,1.79.25,2.72.21,1.87.35,2.82.29,1.88.45,2.78.31,1.78.44,2.63l.28,1.24q.13.59.26,1.21t.26,1.16c.09.36.17.71.25,1.05q.24,1,.47,1.82Zm4.49,4.2a2.85,2.85,0,0,0-.15-.33,1.37,1.37,0,0,1-.13-.39,6.34,6.34,0,0,1-.36-1c0-.18-.1-.37-.16-.57s-.13-.41-.21-.64-.13-.42-.18-.64-.11-.45-.16-.7q-.18-.69-.35-1.44L98,115.83q-.35-1.55-.6-3-.13-.72-.24-1.38c-.07-.44-.14-.85-.2-1.24s-.11-.74-.16-1.05-.08-.58-.11-.81a3.53,3.53,0,0,0-.12-.73v.21a.67.67,0,0,0,0,.21.65.65,0,0,1,0,.28c0,.41.09,1.06.18,1.93.06.39.12.81.18,1.26s.13.91.22,1.4.17,1,.25,1.48.18,1,.28,1.51.24,1,.34,1.53.22,1,.36,1.46a6.61,6.61,0,0,1,.2.67q.08.33.18.64l.24.62a5.39,5.39,0,0,1,.18.55,4.75,4.75,0,0,0,.2.53,2.13,2.13,0,0,1,.15.46,4,4,0,0,0,.19.38,2.86,2.86,0,0,0,.2.31,2.27,2.27,0,0,0,.28.45l.11.14-.11-.14A2.27,2.27,0,0,1,100.07,123Zm-7.32-29q0-.45-.08-.82l-.08-.62a3.62,3.62,0,0,0-.06-.6c0,.17,0,.35,0,.56a5.44,5.44,0,0,1,0,.65c0,.27,0,.55,0,.86s0,.71,0,1.07,0,.73.07,1.1.05.77.07,1.19a11.09,11.09,0,0,0,.12,1.26,18.82,18.82,0,0,0,.26,2.41q.05.56.13,1.1c.05.36.09.69.13,1s.1.6.16.84l.14.63,0,.42a.29.29,0,0,0,0,.14q0-.24-.06-.56t-.07-.62c0-.25-.06-.54-.11-.87a7.77,7.77,0,0,0-.08-1c-.05-.36-.09-.73-.13-1.1q-.1-1.11-.26-2.41c0-.42,0-.83-.08-1.24s-.07-.81-.12-1.21-.06-.74-.1-1.09S92.76,94.45,92.75,94.1Z"/><path d="M130.08,92.89c.05-.13.25-.17.58-.14a3.67,3.67,0,0,1,1.09.31,7.43,7.43,0,0,1,1.14.64,2.22,2.22,0,0,1,.74.73,3.72,3.72,0,0,1,0,1.41c-.07.79-.2,1.72-.37,2.82s-.39,2.26-.64,3.5-.54,2.42-.86,3.54a24.66,24.66,0,0,1-1,2.93,3.32,3.32,0,0,1-1.14,1.6,4.49,4.49,0,0,1-2.15.58,9.38,9.38,0,0,1-2.52-.26,10.36,10.36,0,0,1-2.38-.87,4.94,4.94,0,0,1-1.67-1.29q-.34,1.61-.78,3.18a25.5,25.5,0,0,1-1,2.92,15.34,15.34,0,0,1-1.21,2.38,5.16,5.16,0,0,1-1.46,1.57,5,5,0,0,1-2.45.77,12.46,12.46,0,0,1-2.88-.13,10.36,10.36,0,0,1-2.65-.78A4.12,4.12,0,0,1,106.8,117a8.3,8.3,0,0,1-1.33-3.68,19.81,19.81,0,0,1,0-4.87,30.9,30.9,0,0,1,1.08-5.34,33.76,33.76,0,0,1,1.94-5.1,25.93,25.93,0,0,1,2.48-4.19,9.64,9.64,0,0,1,2.61-2.58,4.45,4.45,0,0,1,2-.67,5.77,5.77,0,0,1,1.88.17q-.31-3.34-.48-6.5t-.26-5.69c-.06-1.68-.09-3.05-.11-4.12a10.63,10.63,0,0,0-.09-1.71c-.2-.36-.05-.6.43-.71a5.23,5.23,0,0,1,1.73-.07,10.28,10.28,0,0,1,2,.41,2,2,0,0,1,1.18.69,11.74,11.74,0,0,1,0,1.82c0,1.14,0,2.59,0,4.35s0,3.75.05,6,.12,4.44.26,6.69.34,4.41.6,6.5.56,3.9.89,5.44a14.35,14.35,0,0,0,1.14,3.54q.64,1.23,1.39.78a2.83,2.83,0,0,0,1-1.5,29.08,29.08,0,0,0,.83-2.82q.4-1.63.76-3.47t.65-3.43q.29-1.59.49-2.72A10.8,10.8,0,0,1,130.08,92.89ZM105.94,111.2q0-.31,0-.58a2.92,2.92,0,0,0,0-.51,5.65,5.65,0,0,1,0-.75l0-.31s0,0,0,.07a.12.12,0,0,0,0,.1.12.12,0,0,1,0,.1,2.14,2.14,0,0,0-.06.34c0,.13,0,.29,0,.47s0,.36,0,.54,0,.36,0,.54l0,.61c0,.2,0,.42.06.65a5.74,5.74,0,0,0,.07.62c0,.21.08.4.12.59l.16.56a3.65,3.65,0,0,1,.11.48,1,1,0,0,0,.15.4.89.89,0,0,1,.15.3,1.07,1.07,0,0,0,.11.25,1.05,1.05,0,0,1-.11-.25c0-.09-.05-.2-.09-.31a2.94,2.94,0,0,1-.1-.41,10.58,10.58,0,0,1-.22-1.05q-.1-.6-.18-1.19c0-.23-.05-.45-.06-.65Zm4.92,5.58a1,1,0,0,0,1.65.31A7.47,7.47,0,0,0,115,114.2a18.84,18.84,0,0,0,1.48-4.13,32.32,32.32,0,0,0,.75-4.77q.21-2.49.31-4.79c.06-1.53.09-2.92.08-4.16s0-2.21,0-2.89a2.35,2.35,0,0,0-.46.12,3.23,3.23,0,0,0-.51.25,7.7,7.7,0,0,0-2.24,2.28,23.19,23.19,0,0,0-2.08,3.78,32.24,32.24,0,0,0-1.63,4.62,29.12,29.12,0,0,0-.9,4.78,19.44,19.44,0,0,0,0,4.31A7.13,7.13,0,0,0,110.86,116.78Zm5.61-4.8s0,0,0,.06a.16.16,0,0,1-.06.09.16.16,0,0,0-.06.09c0,.09-.06.19-.11.31l-.17.4-.22.46-.26.49a3.34,3.34,0,0,1-.3.57,3.22,3.22,0,0,0-.3.57,11.33,11.33,0,0,1-1.46,1.88l-.35.31-.24.19-.25.17,0,0,.1,0a.39.39,0,0,0,.14-.07l.25-.17a2.72,2.72,0,0,0,.36-.3,1.05,1.05,0,0,1,.21-.19,1,1,0,0,0,.21-.19l.2-.21.2-.21a.87.87,0,0,1,.19-.26.87.87,0,0,0,.2-.26l.37-.56a11.91,11.91,0,0,0,1-2.13l.17-.4c0-.12.08-.22.11-.31Zm-9-10.48q-.11.33-.16.55c0,.14-.07.26-.09.35l-.11.33a.85.85,0,0,1,.11-.33,3,3,0,0,1,.15-.36l.24-.53.26-.59a6.52,6.52,0,0,0,.24-.63c.07-.22.16-.45.26-.69s.22-.49.36-.75.21-.48.33-.71.22-.46.33-.71a3.3,3.3,0,0,1,.28-.62q.17-.29.31-.59a3.61,3.61,0,0,0,.25-.47,3.86,3.86,0,0,1,.19-.38,2.46,2.46,0,0,1,.19-.32l-.21.29-.22.37-.29.47a5.4,5.4,0,0,1-.33.6,3,3,0,0,0-.31.64l-.37.68q-.19.36-.35.72l-.31.72c-.1.24-.19.47-.26.69s-.19.46-.25.66A6,6,0,0,1,107.44,101.5Zm4.32-6.82-.21.34-.21.34q-.42.67-.75,1.33c-.22.44-.41.84-.56,1.21l-.29.86c0,.09,0,.14,0,.15s0,0,0,.08l0,.07a3,3,0,0,1,.13-.29l.45-.81a4,4,0,0,1,.32-.57,2.55,2.55,0,0,0,.3-.6c.12-.22.25-.42.38-.63l.43-.66a3.55,3.55,0,0,1,.42-.67,3.46,3.46,0,0,1,.2-.3,3.24,3.24,0,0,0,.2-.3,1.42,1.42,0,0,1,.23-.3.74.74,0,0,0,.19-.27l.23-.25a2.23,2.23,0,0,0,.19-.22.65.65,0,0,1,.21-.23.66.66,0,0,0,.19-.17,2.2,2.2,0,0,1,.33-.3c.06,0,.1-.07.11-.09a.13.13,0,0,1,.06-.06l.09-.06-.09.06-.11,0a.47.47,0,0,0-.15.07,1.51,1.51,0,0,0-.31.24l-.25.18-.22.21a1.26,1.26,0,0,1-.26.21.7.7,0,0,0-.23.25,1,1,0,0,1-.22.27,1.65,1.65,0,0,0-.27.29C112,94.33,111.89,94.53,111.76,94.67Zm6.64,4.54c-.08-.33-.14-.66-.19-1s-.1-.67-.14-1c0,.28,0,.56,0,.84a6.91,6.91,0,0,1,0,.87q-.07.92-.12,1.8t-.09,1.73q0,.85-.09,1.61l-.11,1.47c0,.47-.07.88-.1,1.23s-.05.67-.08,1l0,.81a.71.71,0,0,1,0-.23,3.13,3.13,0,0,0,.07-.57l.13-1q.08-.57.15-1.24a5,5,0,0,0,.11-.72q0-.35.09-.75t.09-.81c0-.27,0-.55.07-.84q0-.75.1-1.56T118.4,99.22Zm-.61-8.53q.1.71.15,1.29l.09,1c0,.33,0,.61.05.84,0-.23,0-.51-.05-.84s0-.58-.07-1,0-.82-.06-1.29-.05-1-.09-1.52-.07-1.13-.08-1.73-.08-1.18-.11-1.79l-.09-1.9q-.12-1.9-.16-3.7l-.09-1.71c0-.55-.06-1.06-.09-1.51s-.06-.88-.07-1.29,0-.75,0-1a7.33,7.33,0,0,0-.06-.82c0,.23,0,.52,0,.85a8.12,8.12,0,0,0,0,1q0,.59,0,1.29t0,1.54q0,.83,0,1.74.09,1.77.16,3.7,0,.95.11,1.86t.14,1.8c0,.6,0,1.18.11,1.72S117.77,90.22,117.79,90.68Zm-.21-14a4.64,4.64,0,0,1-.08-.68c0-.21,0-.4,0-.57a2.13,2.13,0,0,0-.06-.47c0,.16,0,.33,0,.49s0,.35,0,.55,0,.43,0,.69,0,.54,0,.83,0,.61,0,.94.05.69.08,1a10.27,10.27,0,0,1,0,1q.06,1,.14,2t.14,1.77c0,.26,0,.49,0,.69s0,.38,0,.54a2.05,2.05,0,0,0,.07.46,1.35,1.35,0,0,1,0-.45c0-.16,0-.35,0-.56a5.92,5.92,0,0,0,0-.7c0-.53,0-1.13-.05-1.79,0-.33,0-.66-.08-1a8.32,8.32,0,0,1,0-1.06q-.08-1-.16-2c0-.33,0-.64-.06-.92S117.6,77,117.58,76.69Z"/><path d="M150.31,83.06a2.84,2.84,0,0,1,1.34.32,2,2,0,0,1,1,1,4.12,4.12,0,0,1,0,1.68,20.36,20.36,0,0,1-.56,3,35,35,0,0,1-1.2,3.74A27.65,27.65,0,0,1,149,96.77a20.09,20.09,0,0,1-2.56,3.54,11.58,11.58,0,0,1-3.37,2.59,6.18,6.18,0,0,1-3,.61,12,12,0,0,1-3.42-.6,11.8,11.8,0,0,1-3.18-1.6,7.33,7.33,0,0,1-2.24-2.43,9.84,9.84,0,0,1-1-3.12,16.47,16.47,0,0,1-.17-3.81,23.92,23.92,0,0,1,.63-4A19.13,19.13,0,0,1,132,84.07a15.76,15.76,0,0,1,2-3.14,7.39,7.39,0,0,1,2.49-2,5.78,5.78,0,0,1,3.13-.7,5.51,5.51,0,0,1,2.28.73,3.81,3.81,0,0,1,1.29,1.19c.25.42.31.65.18.71a.87.87,0,0,1-.31.1,2.45,2.45,0,0,1,.31.54,6.43,6.43,0,0,1,.52,2.93,10.69,10.69,0,0,1-.67,3.38,11.65,11.65,0,0,1-1.76,3.14,8.17,8.17,0,0,1-2.8,2.3,6.13,6.13,0,0,1-2.24.69,7.12,7.12,0,0,1-1.89-.07,10.44,10.44,0,0,0,1.08,4.51,11.5,11.5,0,0,0,.8,1.3,5.56,5.56,0,0,0,1,1.06,2.75,2.75,0,0,0,1.13.57,1.85,1.85,0,0,0,1.29-.2,12,12,0,0,0,3.4-2.59,17.4,17.4,0,0,0,2.4-3.35,21,21,0,0,0,1.57-3.61q.59-1.83,1-3.42c.24-1.06.4-2,.5-2.68s.16-1.22.2-1.46q.16-.79,1.22-.88Zm-19.39,8c0-.15.07-.3.09-.45s.05-.3.09-.45a1.63,1.63,0,0,1,.08-.42,1.64,1.64,0,0,0,.08-.42l.18-.69q.11-.36.21-.63a1.88,1.88,0,0,0,.11-.48.69.69,0,0,0,.06-.18.37.37,0,0,1,0-.12l.05-.13-.05.13a.37.37,0,0,0,0,.12.68.68,0,0,1-.06.18c-.05.13-.11.28-.18.47s-.14.38-.23.59a2,2,0,0,1-.11.36,1.22,1.22,0,0,0-.09.4,2.48,2.48,0,0,0-.13.39l-.1.43c0,.15-.07.3-.09.45s-.05.29-.09.45a7,7,0,0,1-.12.91c0,.16,0,.31,0,.45a4.45,4.45,0,0,0,0,.45c0,.16,0,.31,0,.45s0,.29,0,.45a1.6,1.6,0,0,0,0,.38,1.5,1.5,0,0,1,0,.38,5.25,5.25,0,0,1,.15.72c.05.24.1.44.14.6a2.2,2.2,0,0,0,.17.43.78.78,0,0,0,.19.35l-.06-.12a.71.71,0,0,1-.08-.26.42.42,0,0,0-.06-.22.43.43,0,0,1-.06-.22q0-.18-.15-.62a.62.62,0,0,0,0-.31,1.53,1.53,0,0,1-.06-.39,1.5,1.5,0,0,0,0-.38,1.58,1.58,0,0,1,0-.38c0-.16,0-.31,0-.45s0-.28,0-.45a3.86,3.86,0,0,1,0-.42,2.35,2.35,0,0,0,0-.46,2.39,2.39,0,0,1,0-.46A4.18,4.18,0,0,0,130.92,91.1Zm.09-2.68a1.92,1.92,0,0,0,0,.27c0,.07,0,.14,0,.21a.53.53,0,0,1,0,.17.53.53,0,0,0,0-.17.58.58,0,0,1,0-.2,1.44,1.44,0,0,0,.07-.26,7.8,7.8,0,0,0,.27-.76,8.86,8.86,0,0,1,.35-1,5.25,5.25,0,0,1,.2-.55l.25-.57c.09-.21.19-.42.29-.62s.2-.4.29-.62a5.35,5.35,0,0,1,.34-.64q.2-.32.39-.67a4.25,4.25,0,0,1,.44-.64c.16-.2.32-.4.46-.6a7.61,7.61,0,0,1,1.13-1.15,6.91,6.91,0,0,1,1.23-.94l.66-.32a3.21,3.21,0,0,1,.7-.24.46.46,0,0,1,.16-.05.47.47,0,0,0,.16-.05l.17,0a.52.52,0,0,1,.17,0,.47.47,0,0,0,.17,0l.17,0a.41.41,0,0,0,.28,0,4.93,4.93,0,0,1,1.09,0,1.5,1.5,0,0,1,.44,0,2.09,2.09,0,0,0,.39.06l.25.08a.5.5,0,0,0,.23,0,.31.31,0,0,0,.18,0,.5.5,0,0,1-.15-.07,3.58,3.58,0,0,1-.49-.16l-.35-.05a1.5,1.5,0,0,1-.44-.11,1.77,1.77,0,0,1-.54,0,3.35,3.35,0,0,0-.56,0,1,1,0,0,1-.33.06h-.3l-.38.08-.17,0a.49.49,0,0,1-.17,0,7.06,7.06,0,0,0-1.46.61l-.67.42a4.54,4.54,0,0,0-.68.53,11.74,11.74,0,0,0-1.65,1.8l-.45.67c-.13.23-.25.45-.36.67s-.23.45-.35.67a10.31,10.31,0,0,0-.53,1.26q-.21.6-.4,1.15a5.79,5.79,0,0,0-.27,1A6.6,6.6,0,0,1,131,88.42Zm4.49,3.46a7.83,7.83,0,0,0,2.88-2.34,8.11,8.11,0,0,0,1.31-2.82,9.7,9.7,0,0,0,.26-2.87q-.09-1.41-.25-2.5l-.3.12-.3.12a4.9,4.9,0,0,0-1.74,1.52,11.43,11.43,0,0,0-1.42,2.56,19.26,19.26,0,0,0-1,3.19,20.32,20.32,0,0,0-.45,3.38A3.28,3.28,0,0,0,135.5,91.87ZM146,97.25c.11-.15.21-.3.3-.43l.22-.35a3,3,0,0,0,.18-.33,2.93,2.93,0,0,1-.18.33l-.26.34-.33.43a6.25,6.25,0,0,0-.42.47,3.75,3.75,0,0,1-.51.52,2.32,2.32,0,0,1-.28.29,2.32,2.32,0,0,0-.28.29,2.38,2.38,0,0,1-.28.29l-.35.27a1.38,1.38,0,0,1-.29.27,1.4,1.4,0,0,0-.29.27l-.33.24-.33.24-.57.44-.3.18-.26.16a2.81,2.81,0,0,1-.47.29,2.22,2.22,0,0,1-.38.25l-.15.1-.1.08-.09,0,.36-.19.4-.21a2.78,2.78,0,0,0,.47-.29,4,4,0,0,0,.56-.34,4.87,4.87,0,0,0,.64-.42l.31-.23.35-.25.31-.23a2.2,2.2,0,0,0,.33-.29,1.38,1.38,0,0,1,.29-.27,1.39,1.39,0,0,0,.29-.27l.56-.57q.24-.31.48-.58A3,3,0,0,0,146,97.25Zm-5.62-12.85a.12.12,0,0,0,0,.1.14.14,0,0,0,0,.12.31.31,0,0,1,0,.16l0,.46q0,.26-.08.62a4,4,0,0,1-.15.66q-.08.33-.21.78c-.06.13-.11.26-.16.4s-.1.27-.16.4a2.21,2.21,0,0,0-.2.42,1.17,1.17,0,0,1-.22.38l-.21.4a.48.48,0,0,1-.14.19.48.48,0,0,0-.14.19,5.24,5.24,0,0,1-.59.69,2.3,2.3,0,0,1-.32.31,2.3,2.3,0,0,0-.32.31,2.67,2.67,0,0,1-.64.47l-.5.41-.47.24a1.32,1.32,0,0,1-.31.21l-.09,0,.42-.22.47-.24.27-.16a2.54,2.54,0,0,1,.32-.19,2.23,2.23,0,0,1,.3-.23l.34-.25a2.41,2.41,0,0,1,.31-.31,2.31,2.31,0,0,0,.32-.31,3.86,3.86,0,0,0,.32-.36,4,4,0,0,1,.32-.36.49.49,0,0,1,.14-.19.49.49,0,0,0,.14-.19l.21-.4a1.06,1.06,0,0,0,.27-.4,2.22,2.22,0,0,1,.2-.42,3.17,3.17,0,0,1,.15-.42,3.16,3.16,0,0,0,.15-.42,1.19,1.19,0,0,1,.1-.39,1.21,1.21,0,0,0,.1-.39l0-.36a2.3,2.3,0,0,1,.05-.32,2.5,2.5,0,0,0,0-.6,2.22,2.22,0,0,1,0-.44Z"/><path d="M170.38,75.08c.06-.24.31-.34.72-.3a5.54,5.54,0,0,1,1.35.33,4.37,4.37,0,0,1,1.25.69c.35.28.51.54.48.77-.26,1.26-.67,2.74-1.2,4.42a39.55,39.55,0,0,1-1.92,4.94,24,24,0,0,1-2.6,4.36,7.71,7.71,0,0,1-3.26,2.65,3.16,3.16,0,0,1-1.58.13,8.49,8.49,0,0,1-1.82-.45,8.63,8.63,0,0,1-1.62-.78,2.24,2.24,0,0,1-.94-.94,6.58,6.58,0,0,1-.36-2.66,32.63,32.63,0,0,1,.34-3.75q.3-2.06.69-4.32t.61-4.32a65.86,65.86,0,0,0-4.13,8.81c-1,2.71-1.77,5.07-2.31,7.08s-.9,3.6-1.13,4.76-.4,1.78-.56,1.85a1.76,1.76,0,0,1-.84.07,5,5,0,0,1-1.2-.27,5.38,5.38,0,0,1-1.19-.58,2.17,2.17,0,0,1-.81-.88,7.8,7.8,0,0,1-.14-2.14c0-1.22.06-2.68.16-4.39s.23-3.54.38-5.5.31-3.81.46-5.54.28-3.21.36-4.44a7.09,7.09,0,0,0,0-2.25.34.34,0,0,1,0-.18.44.44,0,0,1,.31-.37,2.83,2.83,0,0,1,1-.19,6,6,0,0,1,1.25.1,3.18,3.18,0,0,1,1.15.45,1.79,1.79,0,0,1,.72.82,4.12,4.12,0,0,1,.12,1.14q0,.89-.05,2.18t-.17,2.83q-.1,1.54-.2,3.16.86-2.13,1.85-4.37t1.9-4.15q.9-1.92,1.65-3.29a10.69,10.69,0,0,1,1.07-1.73.13.13,0,0,0,.07,0,.13.13,0,0,1,.07,0,.18.18,0,0,1,.12,0,.37.37,0,0,1,.22,0,5.36,5.36,0,0,1,.95.14,5.53,5.53,0,0,1,1.23.44,4.81,4.81,0,0,1,1.2.85,3.52,3.52,0,0,1,.87,1.37,5.12,5.12,0,0,1,.11,2q-.11,1.38-.37,3.09t-.6,3.65q-.34,1.94-.54,3.67t-.26,3.1a5.18,5.18,0,0,0,.19,2,5.25,5.25,0,0,0,2.14-1.78,17,17,0,0,0,1.91-3.26,42,42,0,0,0,1.64-4.21Q169.83,77.45,170.38,75.08ZM152.25,84.9c0-.34.07-.67.08-1s0-.65.08-1,.06-.71.07-1,0-.66.09-1,0-.63,0-.92,0-.56,0-.82,0-.48,0-.68,0-.37,0-.54a.32.32,0,0,0,0-.16.31.31,0,0,1,0-.16.16.16,0,0,1,0-.14q-.24,2.72-.43,5.44l-.13,2q-.06,1-.11,1.75c0,.27-.05.5-.06.7s0,.37,0,.54a1.37,1.37,0,0,0,0,.44q0-.2.08-.47l.14-1.21q0-.4.06-.82C152.18,85.54,152.21,85.24,152.25,84.9Zm.74-2.76a.12.12,0,0,1,0-.1.14.14,0,0,0,0-.12.23.23,0,0,1,0-.18,7.17,7.17,0,0,0,.15-1.12,6.68,6.68,0,0,0,.11-.76c0-.26.05-.53.09-.8l.08-.89c0-.3.05-.61.07-.93a7.1,7.1,0,0,0,0-.89c0-.3,0-.59,0-.87s0-.56,0-.82,0-.5,0-.72a4.79,4.79,0,0,0-.27-1.08l-.07-.16a.16.16,0,0,0-.1-.1.12.12,0,0,1-.08-.06l.08.06.05.12.07.16a.38.38,0,0,0,0,.2.66.66,0,0,1,0,.24.61.61,0,0,0,0,.31,1.49,1.49,0,0,1,0,.29,4,4,0,0,1,0,.76,7.7,7.7,0,0,0,0,.82,6.85,6.85,0,0,0-.07.86c0,.31,0,.61-.05.9s0,.63,0,.92,0,.58,0,.86,0,.58,0,.83,0,.5,0,.73a5.53,5.53,0,0,1,0,.63,3.72,3.72,0,0,1,0,.47Zm6.6,5.05a5.64,5.64,0,0,0,.09-.92,5.24,5.24,0,0,1,.1-.92c0-.33.09-.65.11-.95a8.66,8.66,0,0,1,.13-.91,10,10,0,0,1,.2-1.59c0-.25,0-.47,0-.65a3.78,3.78,0,0,1,0-.46,2.15,2.15,0,0,1,0-.34.12.12,0,0,0,0-.1.12.12,0,0,1,0,.1,1,1,0,0,0-.1.32c0,.14-.05.3-.09.48s-.08.4-.13.64-.1.5-.14.77-.1.54-.17.83-.11.61-.16.92l-.14,1c0,.3-.05.6-.07.91s0,.61-.07.91,0,.31,0,.43a3.23,3.23,0,0,1,0,.39,2.79,2.79,0,0,0,0,.42l0,.36a1.58,1.58,0,0,0,.1.63,1.76,1.76,0,0,0,0,.25,1,1,0,0,0,.07.23l.12.28,0,.08v-.1a.85.85,0,0,1-.07-.3,5.24,5.24,0,0,1-.08-1.11c0-.25,0-.51,0-.78S159.56,87.46,159.59,87.19Zm7.4,4.15a.85.85,0,0,1,.22-.2.45.45,0,0,0,.17-.18.76.76,0,0,0,.14-.19l-.15.15-.45.36a5.72,5.72,0,0,1-1.35.9l-.42.16-.22.06-.22.06a2.17,2.17,0,0,1-.77.07h-.33a.3.3,0,0,1-.22,0c-.06,0-.09,0-.1,0s0,0-.05,0-.05,0-.06,0l.19.07a.81.81,0,0,1,.23,0h.33a2.08,2.08,0,0,0,.36,0,2.32,2.32,0,0,0,.43-.05.55.55,0,0,0,.22,0,.57.57,0,0,1,.22,0l.46-.18a2.07,2.07,0,0,0,.4-.2,4,4,0,0,0,.37-.29,2.36,2.36,0,0,0,.35-.26A2,2,0,0,0,167,91.34Zm-5.75-14.41c-.11.79-.26,1.7-.45,2.72l-.12.76a6.21,6.21,0,0,0-.07.74,4,4,0,0,0-.09.67,6,6,0,0,1-.06.62,4.87,4.87,0,0,1,0,.5,2,2,0,0,0,0,.4.63.63,0,0,0,0,.32,2.13,2.13,0,0,1,0-.34,1.3,1.3,0,0,0,0-.37,3.38,3.38,0,0,1,0-.51q.11-.56.19-1.28c.05-.48.13-1,.23-1.48l.12-.76q.06-.35.09-.7c0-.27.08-.51.11-.73s0-.4.06-.57l0-.49a4.39,4.39,0,0,1,.05-.44,2.29,2.29,0,0,0,0-.34,2.8,2.8,0,0,0-.09.36,1.8,1.8,0,0,0-.07.4A3,3,0,0,1,161.24,76.94Z"/><path d="M211.19,58.21a2.18,2.18,0,0,1-1.08-.16,7.66,7.66,0,0,1-1.3-.6,8.33,8.33,0,0,1-1.12-.77c-.32-.27-.5-.47-.53-.61a1.89,1.89,0,0,1,.37-.92,8.32,8.32,0,0,0,.73-1.77,9,9,0,0,0,.33-2.48,6.59,6.59,0,0,0-.86-3.08,10.56,10.56,0,0,0-4.52,2,17.21,17.21,0,0,0-3.52,3.6,14.48,14.48,0,0,0-2.1,4,6.46,6.46,0,0,0-.34,3.37c0,.11.41.18,1.14.19s1.65.06,2.75.15a35.19,35.19,0,0,1,3.65.5,15.71,15.71,0,0,1,3.75,1.2,10,10,0,0,1,3.07,2.21,6.81,6.81,0,0,1,1.7,3.55,7.12,7.12,0,0,1-.19,3.34,10.16,10.16,0,0,1-1.58,3.13,14,14,0,0,1-2.72,2.76,20.62,20.62,0,0,1-3.63,2.26l.36-.21a5,5,0,0,1,.45-.35,5.26,5.26,0,0,0,.46-.35l.89-.7.75-.63q.34-.29.6-.55l.46-.47.39-.35-.09.06-.18.13-.18.13c-.14.12-.32.25-.53.4s-.42.32-.65.52-.48.4-.76.61-.58.42-.9.64a5.24,5.24,0,0,0-.46.32,3.83,3.83,0,0,1-.51.34,5.68,5.68,0,0,0-.48.33l-.54.3a4.64,4.64,0,0,1-.5.27l-.54.28a2.76,2.76,0,0,1-.55.24l-.56.2-.54.19-.49.18a2.88,2.88,0,0,1-.47.16l-.48.11-.81.2-.29.07a10,10,0,0,1-4.82-.13,9.76,9.76,0,0,1-3.38-1.79,9.11,9.11,0,0,1-2.11-2.49,11.14,11.14,0,0,1-1-2.27,9.74,9.74,0,0,1-.35-2,8.76,8.76,0,0,1,0-1.84,4.13,4.13,0,0,1,.42-1.39,1.26,1.26,0,0,1,.75-.69,1.71,1.71,0,0,1,.85,0,2.81,2.81,0,0,1,.75.3,1.89,1.89,0,0,1,.55.47,1.35,1.35,0,0,1,.25.43,1.71,1.71,0,0,1-.2,1q-.27.67-.57,1.43t-.54,1.49a2,2,0,0,0-.13,1.15,2.64,2.64,0,0,0,.68,1,4.37,4.37,0,0,0,1.74,1,9.79,9.79,0,0,0,3,.43,19.53,19.53,0,0,0,4.61-.65,17.16,17.16,0,0,0,4.89-2,19.86,19.86,0,0,0,3.68-2.78,12,12,0,0,0,2.25-2.86,3.62,3.62,0,0,0,.6-2.17,1.54,1.54,0,0,0-.86-1,8.9,8.9,0,0,0-1.86-.76,22.83,22.83,0,0,0-2.44-.56q-1.35-.24-2.59-.4T201.05,65l-1.44-.08a5.49,5.49,0,0,1-1.66-.43A10.78,10.78,0,0,1,194.22,62a3.6,3.6,0,0,1-1-1.57,5.57,5.57,0,0,1,.08-2.44,15.62,15.62,0,0,1,1.13-3.26,23.51,23.51,0,0,1,2.05-3.55,23,23,0,0,1,2.81-3.32,19.22,19.22,0,0,1,3.35-2.63,10.92,10.92,0,0,1,3.71-1.47,4,4,0,0,1,2.58.35,7.27,7.27,0,0,1,2.15,1.65,10.35,10.35,0,0,1,1.57,2.29,8.36,8.36,0,0,1,.81,2.33,7.81,7.81,0,0,1,0,2.36,15.88,15.88,0,0,1-.55,2.5,9.67,9.67,0,0,1-.86,2C211.77,57.86,211.47,58.16,211.19,58.21Zm-9.44,22.87-.34.08-.43.1a3.92,3.92,0,0,1-.54.08l-.57.14a6.92,6.92,0,0,1-.73.13,4.67,4.67,0,0,1-.74.09,1.71,1.71,0,0,0-.37,0,1.73,1.73,0,0,1-.37,0h-1.52a4.84,4.84,0,0,1-.7,0l-.61-.07a4.43,4.43,0,0,0-.51-.09,2.65,2.65,0,0,1-.4-.07l-.32-.05.06,0a.74.74,0,0,0,.23.08l.41.1.52.11.59.12a3.69,3.69,0,0,0,.72,0,1.33,1.33,0,0,0,.39,0,1.32,1.32,0,0,1,.39,0l.75-.05a1,1,0,0,0,.4,0,1.81,1.81,0,0,1,.39-.05l.36-.07.36-.07a4.63,4.63,0,0,0,.73-.13l.57-.14a3.7,3.7,0,0,1,.52-.17,2,2,0,0,0,.42-.14ZM203,49.63a10.69,10.69,0,0,1,1.23-.83,3.43,3.43,0,0,1,.55-.33.49.49,0,0,0-.15.08l-.41.22-.25.14-.35.2a2.32,2.32,0,0,1-.32.22l-.37.23a1.79,1.79,0,0,0-.41.31,1.8,1.8,0,0,1-.41.31l-.85.72-.44.43-.44.43a5.43,5.43,0,0,0-.4.45,5.8,5.8,0,0,1-.4.45q-.22.27-.37.48l-.31.47-.31.47a2.76,2.76,0,0,0-.26.46c-.11.18-.2.34-.28.49s-.15.31-.22.48a2.3,2.3,0,0,0-.18.4,4.47,4.47,0,0,0-.12.43c0,.13-.09.25-.14.37s-.1.22-.14.33a1,1,0,0,0-.06.33.37.37,0,0,1-.08.24c-.06.07-.08.13-.07.17a.31.31,0,0,1,0,.16.3.3,0,0,0,0,.14l0-.1.13-.39a4,4,0,0,1,.15-.53,1.56,1.56,0,0,1,.17-.35,1.61,1.61,0,0,0,.17-.35,6.65,6.65,0,0,1,.36-.85c.08-.14.16-.28.23-.44s.15-.31.22-.48a4.74,4.74,0,0,0,.31-.45l.31-.5a4.44,4.44,0,0,0,.32-.45,2.54,2.54,0,0,1,.37-.46c.15-.18.28-.34.4-.47l.41-.43a2,2,0,0,1,.38-.44q.21-.18.44-.41a3,3,0,0,1,.39-.4l.4-.35a1.76,1.76,0,0,0,.41-.31A1.75,1.75,0,0,1,203,49.63Zm-5.43,5.49a.62.62,0,0,0-.08.27.72.72,0,0,1,0,.21.29.29,0,0,0,0,.14s0,0,0-.05l0-.1.07-.2a2,2,0,0,1,.11-.25,2.5,2.5,0,0,0,.17-.24c.05-.09.11-.18.16-.28l.36-.62.39-.6.35-.55.15-.19a.62.62,0,0,0,.1-.18.48.48,0,0,1,.08-.15.68.68,0,0,1-.14.12.71.71,0,0,0-.16.15l-.15.19-.2.25a1.72,1.72,0,0,0-.19.29l-.22.27a1.86,1.86,0,0,0-.21.32l-.17.33-.17.33a2.36,2.36,0,0,0-.13.3A.85.85,0,0,1,197.61,55.12ZM201,61.48a.49.49,0,0,0-.19,0,.48.48,0,0,1-.19,0,.23.23,0,0,1-.16,0l.11,0a2.22,2.22,0,0,0,.44,0l.67.08.84.13,2,.38a5.67,5.67,0,0,0,.59.12,2.8,2.8,0,0,1,.6.17,2.84,2.84,0,0,1,.56.13l.57.18.55.23.55.23a1.16,1.16,0,0,0,.26.11,1.26,1.26,0,0,1,.26.11l.24.13.24.13a1.14,1.14,0,0,1,.47.27l.21.12.21.12a3.63,3.63,0,0,1,.74.57,2.93,2.93,0,0,1,.57.52,1.58,1.58,0,0,1,.39.42l.33.38a.33.33,0,0,0-.07-.12,1.48,1.48,0,0,1-.22-.32,2.65,2.65,0,0,0-.39-.42,3.07,3.07,0,0,0-.26-.26,1.87,1.87,0,0,1-.27-.31,1.65,1.65,0,0,0-.32-.28l-.37-.27a2.77,2.77,0,0,1-.43-.32,1.1,1.1,0,0,1-.48-.27,3.74,3.74,0,0,1-.53-.26l-.23-.11L208,63l-.55-.23-.55-.23-.57-.18-.57-.18q-.28-.08-.59-.13c-.2,0-.4-.07-.59-.12l-.56-.09-.56-.09-.5-.07-.5-.07a8.12,8.12,0,0,0-.83-.11Zm10.51-5.24c0,.19-.06.26-.07.23a.12.12,0,0,0,0,.1l0-.05a.34.34,0,0,0,.06-.1.68.68,0,0,1,.11-.15,1.19,1.19,0,0,1,.21-.35,4,4,0,0,1,.18-.52,1,1,0,0,0,.17-.25,2.11,2.11,0,0,1,.1-.33,3,3,0,0,1,.08-.3,1.93,1.93,0,0,0,.07-.35,1.77,1.77,0,0,0,.1-.35c0-.11,0-.23,0-.39a1,1,0,0,0,.07-.37,2.41,2.41,0,0,1,0-.36.92.92,0,0,0,0-.41,1.19,1.19,0,0,1,0-.36,1.63,1.63,0,0,0,0-.38,1.58,1.58,0,0,1,0-.38l-.11-.65a3.61,3.61,0,0,0-.16-.6,2.06,2.06,0,0,0-.14-.47l-.18-.37a.51.51,0,0,1-.1-.25l0-.09.06.35.15.87a3.47,3.47,0,0,0,.05.61,4.43,4.43,0,0,1,.06.66,3.14,3.14,0,0,0,0,.72,3.3,3.3,0,0,1,0,.72l0,.36,0,.36,0,.36,0,.36a1,1,0,0,0-.08.33,1,1,0,0,1-.08.33,2,2,0,0,1-.17.57l-.06.28a1.69,1.69,0,0,1-.07.24l-.07.19Z"/><path d="M235.31,60.84q.21-.46.83-.3a3.5,3.5,0,0,1,1.23.64,5,5,0,0,1,1,1.06c.27.39.35.69.23.91q-.92,1.84-2.15,4.12a32.74,32.74,0,0,1-2.78,4.32,20,20,0,0,1-3.45,3.55A8.59,8.59,0,0,1,226,77a7.1,7.1,0,0,1-2.09-.1,8.09,8.09,0,0,1-2.58-.94,8.29,8.29,0,0,1-2.39-2,7.22,7.22,0,0,1-1.44-3.44,10.46,10.46,0,0,1,.16-2.9c.21-1.35.51-2.91.93-4.67s.91-3.63,1.48-5.61,1.16-3.9,1.77-5.76c-.7.16-1.39.29-2.06.39l-1.91.29a2.85,2.85,0,0,1-2.12-.31,2.78,2.78,0,0,1-1-1.23,2.75,2.75,0,0,1-.2-1.37c.06-.44.19-.68.41-.71l1.53-.25,2.31-.38,2.5-.41q1.24-.2,2-.35c1-2.88,1.82-5.12,2.41-6.73a12.83,12.83,0,0,0,.85-2.76q-.09-.74.65-.76a3.77,3.77,0,0,1,1.66.41,7.87,7.87,0,0,1,1.73,1.09,2.11,2.11,0,0,1,.87,1.32,7.44,7.44,0,0,1-.6,1.7c-.41,1-1,2.56-1.86,4.71q2.59-.43,4.73-.68c1.43-.17,2.47-.27,3.12-.33a4.61,4.61,0,0,1,1.73.1,1.87,1.87,0,0,1,.89.57,1.76,1.76,0,0,1,.37.9c0,.35.08.7.11,1a.65.65,0,0,1-.46.74,5.29,5.29,0,0,1-1.25.23q-2.58.21-5.32.67t-5.44,1q-1,3-2.12,6.35t-1.84,6.57a58.2,58.2,0,0,0-1.13,5.84,15.52,15.52,0,0,0-.12,4.24q.16,1,.8.95a7.67,7.67,0,0,0,3.81-1.8A22.91,22.91,0,0,0,230.26,69a38.82,38.82,0,0,0,2.88-4.24C234,63.33,234.73,62,235.31,60.84Zm-14.95,13.9a1.44,1.44,0,0,0,.35.3l.17.11a.48.48,0,0,1-.12-.11l-.15-.18-.21-.21a.75.75,0,0,1-.21-.21,1.71,1.71,0,0,0-.22-.25l-.25-.29a3,3,0,0,1-.26-.34l-.22-.3L219,73a2.7,2.7,0,0,1-.4-.56l-.14-.22a.48.48,0,0,1-.08-.19.17.17,0,0,1-.07-.12v0l0,.17a.89.89,0,0,0,.06.19l.12.27a1.41,1.41,0,0,1,.12.27,1,1,0,0,0,.18.31,3.19,3.19,0,0,1,.23.32,3.28,3.28,0,0,0,.23.32q.25.32.53.6A3,3,0,0,0,220.36,74.74ZM219.49,61q-.19.83-.35,1.48c-.11.43-.19.82-.24,1.15l-.16,1a.5.5,0,0,0,.07-.23,2.23,2.23,0,0,0,.08-.3c0-.14.07-.28.11-.44q.13-.47.3-1.11t.41-1.44l.6-1.94q.36-1.14.73-2.4t.79-2.51q.41-1.26.75-2.32l.07-.28.07-.28a1.35,1.35,0,0,1-.42.1.76.76,0,0,0-.06.19.78.78,0,0,1-.05.19c-.13.37-.27.81-.41,1.3s-.31,1-.48,1.51-.34,1-.48,1.49-.26.89-.35,1.23q-.28,1-.5,1.94T219.49,61Zm.41,1.31A1,1,0,0,0,220,62a3.34,3.34,0,0,1,.1-.39c.1-.28.2-.61.32-1l.16-.53a5.52,5.52,0,0,1,.2-.59c0-.18.09-.38.15-.58l.16-.53c0-.18.09-.36.13-.53s.09-.33.14-.49l.23-1-.4.94c0,.15-.09.32-.14.49s-.09.33-.14.49a4,4,0,0,1-.18.56,3,3,0,0,0-.17.6l-.31,1.11c0,.18-.09.35-.13.51l-.14.47a2.64,2.64,0,0,0-.09.41c0,.12,0,.23-.06.32a1.28,1.28,0,0,1-.06.28Zm4.49-16.91a4.83,4.83,0,0,1-.18.51,1.78,1.78,0,0,0-.1.28c0,.09-.06.2-.1.32s-.11.32-.22.6l.38,0q.11-.41.17-.6a1.73,1.73,0,0,0,.07-.3,1.63,1.63,0,0,1,0-.25c0-.09.08-.25.16-.46q.28-.79.48-1.46a7.75,7.75,0,0,1,.41-1.14,3.53,3.53,0,0,0,.12-.39c0-.11,0-.2.07-.3a1.14,1.14,0,0,1,.08-.27,1.47,1.47,0,0,0-.08.23.71.71,0,0,0-.16.28l-.14.42q-.21.51-.44,1.14T224.39,45.41Z"/><path d="M261.26,59.57c.1-.09.28,0,.54.13a3.82,3.82,0,0,1,.77.72,7,7,0,0,1,.69,1,1.85,1.85,0,0,1,.3.88,4,4,0,0,1-.56,1.49,25.43,25.43,0,0,1-1.49,2.39q-.93,1.34-2.14,2.83a29.75,29.75,0,0,1-2.49,2.72,17.41,17.41,0,0,1-2.56,2.06,4.86,4.86,0,0,1-2.44.88,2.79,2.79,0,0,1-1.44-.42,10,10,0,0,1-1.55-1.07,7.8,7.8,0,0,1-1.25-1.3,2.28,2.28,0,0,1-.54-1.16l0-.35q-1,1-2,1.86t-2,1.57a14.27,14.27,0,0,1-1.83,1.13,4.42,4.42,0,0,1-1.6.51,4.65,4.65,0,0,1-2.43-.51,11.62,11.62,0,0,1-2.38-1.53,10.79,10.79,0,0,1-1.88-2,4.25,4.25,0,0,1-.87-1.94,8.53,8.53,0,0,1,.56-3.86,19.27,19.27,0,0,1,2.21-4.25,31.14,31.14,0,0,1,3.37-4.13,32.58,32.58,0,0,1,4-3.53,24.82,24.82,0,0,1,4-2.48,9.11,9.11,0,0,1,3.42-1,4.12,4.12,0,0,1,2.86.86,6.25,6.25,0,0,1,1.71,2.06,5.06,5.06,0,0,1,.58,2.09c0,.64-.13,1-.44,1a.83.83,0,0,1-.77-.35q-.25-.37-.5-.82a2.84,2.84,0,0,0-.69-.81,2,2,0,0,0-1.33-.32,7.29,7.29,0,0,0-3,.92,22.25,22.25,0,0,0-3.52,2.31,31.24,31.24,0,0,0-3.52,3.26,28.63,28.63,0,0,0-3,3.75,19.46,19.46,0,0,0-2,3.78,7.32,7.32,0,0,0-.55,3.3,1,1,0,0,0,1.25,1.07,5.19,5.19,0,0,0,2.26-.89,16.82,16.82,0,0,0,2.46-2q1.24-1.17,2.51-2.58t2.39-2.72q1.12-1.32,2-2.44c.58-.75,1.05-1.33,1.41-1.76s.46-.59.59-.6a1.77,1.77,0,0,1,.79.43,15.39,15.39,0,0,1,2.29,2.14,1.76,1.76,0,0,1,.48.78,2.81,2.81,0,0,1-.31.76q-.31.63-.71,1.5t-.87,1.83q-.47,1-.78,1.79a11.23,11.23,0,0,0-.44,1.36q-.13.53.17.52a3.68,3.68,0,0,0,2-.8,13.72,13.72,0,0,0,2.07-1.89,27.55,27.55,0,0,0,2-2.46q1-1.34,1.79-2.53t1.41-2.08A6.35,6.35,0,0,1,261.26,59.57ZM234.33,64a7.06,7.06,0,0,1,.5-.91l.61-.92.71-1q.34-.47.72-.95t.77-.93l.83-.93a23.55,23.55,0,0,1,1.74-1.75q.93-.84,1.88-1.62l.9-.75a11,11,0,0,1,.91-.65q.45-.34.91-.63l.87-.54a12.89,12.89,0,0,1,1.6-.88,1.35,1.35,0,0,1,.34-.15,1.37,1.37,0,0,0,.34-.15,3.76,3.76,0,0,1,.63-.21l.53-.16a1.46,1.46,0,0,1,.37-.06.24.24,0,0,0,.13,0,.13.13,0,0,1,.08,0h-.21l-.19,0-.19,0a.69.69,0,0,1-.26.06.72.72,0,0,0-.26.06l-.32.1-.37.11a1.33,1.33,0,0,1-.34.15,1.34,1.34,0,0,0-.34.15c-.28.1-.56.22-.83.35s-.55.28-.83.44q-.88.49-1.81,1.12t-1.94,1.41q-.95.77-1.88,1.6a21.86,21.86,0,0,0-1.79,1.78q-.81.91-1.6,1.91c-.25.32-.49.63-.72.95s-.45.63-.66.95a18,18,0,0,0-1.1,1.88,5.79,5.79,0,0,0-.42.93,3.36,3.36,0,0,1-.18.44,3.6,3.6,0,0,0-.18.44,5.73,5.73,0,0,0-.25.8q-.09.39-.15.74a1,1,0,0,0-.09.34,1.43,1.43,0,0,1,0,.29,1.18,1.18,0,0,0,0,.31.72.72,0,0,1,0,.27,1.91,1.91,0,0,0,0,.42l0,.33,0,.31V69.4a.45.45,0,0,1,0-.22l0-.31a.38.38,0,0,0,0-.2.71.71,0,0,1,0-.25,1,1,0,0,1,.09-.54,3.68,3.68,0,0,1,.13-.68,8.84,8.84,0,0,1,.45-1.51l.37-.83a2.23,2.23,0,0,1,.21-.44Zm10.92,7.25.42-.36.33-.31.28-.28a2.92,2.92,0,0,1-.28.24l-.36.26-.45.36a5.06,5.06,0,0,1-.52.45l-.61.46-.63.48c-.2.16-.43.32-.68.49a1.86,1.86,0,0,0-.35.25,1.88,1.88,0,0,1-.35.25l-.31.2-.35.2-.36.18-.35.18a.79.79,0,0,1-.31.14l-.31.09a.78.78,0,0,1-.29.07.76.76,0,0,1-.29.07l-.44,0h-.3l.15,0,.15,0h.22a.37.37,0,0,0,.22,0l.29,0a1.22,1.22,0,0,0,.34-.07l.31-.09a.8.8,0,0,0,.31-.14,2.55,2.55,0,0,0,.36-.14l.35-.18.35-.2.35-.2a1.92,1.92,0,0,0,.35-.25,1.83,1.83,0,0,1,.35-.25,6.31,6.31,0,0,0,.68-.51q.3-.26.63-.51l.59-.46C244.93,71.53,245.09,71.38,245.25,71.23Zm-4-.68a.77.77,0,0,0-.19.15l0,0,0,0a.78.78,0,0,1,.19-.15l.28-.22a3.18,3.18,0,0,1,.38-.27l.4-.34.44-.43a5.85,5.85,0,0,0,.47-.43l.47-.47.45-.47.4-.47a4.89,4.89,0,0,0,.4-.44,4,4,0,0,1,.35-.4q.14-.18.26-.37a1.55,1.55,0,0,1,.21-.28,1.47,1.47,0,0,1,.19-.23l-.24.23-.24.23a3,3,0,0,0-.28.33,4.08,4.08,0,0,0-.35.4,5.05,5.05,0,0,1-.4.44l-.45.47-.45.47-.89.9-.42.43a3.78,3.78,0,0,1-.38.34,4.91,4.91,0,0,0-.37.34Zm5.33-17.92.36-.2a1.73,1.73,0,0,0,.26-.19l.26-.15s0,0-.05,0l-.1,0-.1,0a1,1,0,0,1-.28.17l-.44.18-.44.22a3.7,3.7,0,0,0-.49.31l-.54.3a3.92,3.92,0,0,0-.54.34l-.48.36-.48.36-.45.36-.35.31-.32.31-.22.21-.2.19a.56.56,0,0,1,.2-.19l.6-.44.85-.63,1-.72a4.74,4.74,0,0,1,.51-.34,5.09,5.09,0,0,0,.51-.34c.17-.1.32-.2.46-.29A2.21,2.21,0,0,1,246.55,52.63Z"/><path d="M278.09,60a.62.62,0,0,1,.86-.17,3.49,3.49,0,0,1,1.11.82,5,5,0,0,1,.85,1.2q.32.64.09.93-1.19,1.68-2.76,3.75a32.86,32.86,0,0,1-3.41,3.85,20.12,20.12,0,0,1-3.95,3,8.58,8.58,0,0,1-4.49,1.17,7.09,7.09,0,0,1-2-.42,8.06,8.06,0,0,1-2.4-1.32,8.28,8.28,0,0,1-2-2.38,7.23,7.23,0,0,1-.89-3.61,10.42,10.42,0,0,1,.6-2.84q.62-2,1.63-4.47t2.32-5.31q1.3-2.81,2.62-5.42c-.72,0-1.41.07-2.09.07h-1.93a2.84,2.84,0,0,1-2-.63,2.77,2.77,0,0,1-.81-2.76q.18-.64.51-.64h1.55l2.34,0,2.53,0,2.07,0c1.43-2.7,2.58-4.79,3.41-6.28a12.8,12.8,0,0,0,1.26-2.6q0-.75.75-.65a3.76,3.76,0,0,1,1.58.66,7.83,7.83,0,0,1,1.54,1.34,2.1,2.1,0,0,1,.66,1.44,7.44,7.44,0,0,1-.85,1.59c-.56.91-1.42,2.37-2.55,4.37,1.75,0,3.34,0,4.77.05s2.48.1,3.13.15a4.58,4.58,0,0,1,1.7.36,1.88,1.88,0,0,1,.79.7,1.75,1.75,0,0,1,.23.94c0,.35,0,.7-.05,1.05a.65.65,0,0,1-.56.66,5.24,5.24,0,0,1-1.27,0q-2.58-.18-5.36-.15t-5.52.16q-1.49,2.76-3.06,6t-2.82,6.21a58.72,58.72,0,0,0-2,5.6,15.55,15.55,0,0,0-.77,4.17q0,1.05.64,1.06a7.67,7.67,0,0,0,4-1.2,23,23,0,0,0,3.88-3,38.86,38.86,0,0,0,3.49-3.75C276.42,62.22,277.34,61,278.09,60ZM261.21,71.43a1.38,1.38,0,0,0,.3.35l.15.13a.46.46,0,0,1-.1-.13l-.13-.2-.17-.24a.74.74,0,0,1-.17-.24,1.74,1.74,0,0,0-.17-.28l-.2-.33a3,3,0,0,1-.2-.37l-.18-.33-.18-.33a2.69,2.69,0,0,1-.3-.61l-.1-.24a.49.49,0,0,1-.05-.2.17.17,0,0,1-.05-.13v.13a.89.89,0,0,0,0,.2c0,.07,0,.17.08.28a1.41,1.41,0,0,1,.08.28,1,1,0,0,0,.13.33,3.28,3.28,0,0,1,.18.35,3.55,3.55,0,0,0,.18.35c.13.23.28.46.43.68A2.91,2.91,0,0,0,261.21,71.43Zm1.23-13.71q-.31.79-.57,1.41t-.41,1.1l-.3.92a.5.5,0,0,0,.1-.22,2.39,2.39,0,0,0,.13-.29c.05-.13.11-.27.18-.42s.29-.65.46-1.06.38-.86.62-1.36l.89-1.82c.35-.72.72-1.47,1.09-2.26s.76-1.57,1.16-2.36l1.1-2.18.11-.26.11-.26a1.31,1.31,0,0,1-.43,0,.71.71,0,0,0-.08.17.82.82,0,0,1-.08.17q-.28.52-.6,1.22t-.71,1.42q-.38.72-.7,1.4T264,54.25q-.43,1-.79,1.84T262.44,57.72Zm.21,1.36a1,1,0,0,0,.16-.29,3.53,3.53,0,0,1,.16-.37l.47-.92.24-.5a5.57,5.57,0,0,1,.29-.55c.07-.17.15-.36.24-.55l.24-.5.21-.5.21-.46.38-.92-.53.87-.21.46-.21.46a3.87,3.87,0,0,1-.26.53,3,3,0,0,0-.26.57l-.47,1.05c-.07.18-.14.34-.21.48l-.21.44a2.49,2.49,0,0,0-.16.39c0,.12-.07.22-.1.31a1.3,1.3,0,0,1-.1.26Zm7-16q-.17.35-.26.48a1.91,1.91,0,0,0-.14.26l-.14.3c-.06.12-.16.3-.31.56h.38c.11-.26.2-.45.26-.56a1.72,1.72,0,0,0,.12-.28,1.57,1.57,0,0,1,.09-.24c0-.09.12-.23.23-.43q.4-.74.69-1.37a7.83,7.83,0,0,1,.58-1.06,3.76,3.76,0,0,0,.18-.37l.12-.28a1.12,1.12,0,0,1,.12-.26,1.42,1.42,0,0,0-.12.22.72.72,0,0,0-.2.26l-.2.39c-.19.32-.4.67-.61,1.06S270,42.56,269.67,43Z"/><path d="M300,62.13a2.78,2.78,0,0,1,1,1,2,2,0,0,1,.27,1.37,4.16,4.16,0,0,1-.83,1.46,20.53,20.53,0,0,1-2,2.27,35.09,35.09,0,0,1-2.94,2.57,27.46,27.46,0,0,1-3.58,2.39,19.68,19.68,0,0,1-4,1.69,11.14,11.14,0,0,1-4.15.45,5.94,5.94,0,0,1-2.82-1,11.64,11.64,0,0,1-2.54-2.3,11.81,11.81,0,0,1-1.82-3,7.46,7.46,0,0,1-.61-3.24,10,10,0,0,1,.75-3.2,16.61,16.61,0,0,1,1.81-3.33,23.79,23.79,0,0,1,2.6-3.12,18.92,18.92,0,0,1,3.09-2.56,15.45,15.45,0,0,1,3.25-1.65,7.15,7.15,0,0,1,3.12-.44,5.58,5.58,0,0,1,3,1,5.44,5.44,0,0,1,1.54,1.81,3.83,3.83,0,0,1,.47,1.69q0,.73-.22.7a.85.85,0,0,1-.31-.08,2.44,2.44,0,0,1,0,.62A6.55,6.55,0,0,1,294,59.94a10.68,10.68,0,0,1-2.31,2.53,11.45,11.45,0,0,1-3.09,1.77,7.88,7.88,0,0,1-3.52.51,5.88,5.88,0,0,1-2.23-.58,6.88,6.88,0,0,1-1.54-1,10.62,10.62,0,0,0-1.41,4.41,11.76,11.76,0,0,0,0,1.52,5.61,5.61,0,0,0,.26,1.41,2.73,2.73,0,0,0,.65,1.08A1.78,1.78,0,0,0,282,72a11.54,11.54,0,0,0,4.16-.44A17,17,0,0,0,289.86,70,20.82,20.82,0,0,0,293,67.73q1.44-1.25,2.56-2.42t1.8-2c.45-.58.76-1,.93-1.14A1.13,1.13,0,0,1,299.8,62ZM279.71,58.9c.11-.11.21-.22.31-.33l.31-.33a1.63,1.63,0,0,1,.28-.31,1.59,1.59,0,0,0,.28-.31l.5-.49.5-.43a1.87,1.87,0,0,0,.34-.35.69.69,0,0,0,.14-.12l.08-.08.11-.08-.11.08-.08.08a.7.7,0,0,1-.14.12l-.39.3-.5.38a2,2,0,0,1-.28.25,1.21,1.21,0,0,0-.28.29,2.34,2.34,0,0,0-.3.27l-.31.31c-.11.11-.21.22-.31.33l-.31.33a7.16,7.16,0,0,1-.56.71c-.08.14-.15.27-.23.38s-.15.24-.23.38-.15.27-.23.38-.15.24-.23.38a1.6,1.6,0,0,0-.17.34,1.55,1.55,0,0,1-.17.34,5.28,5.28,0,0,1-.24.69q-.12.34-.18.58a2.24,2.24,0,0,0-.08.46.8.8,0,0,0,0,.39v-.13a.74.74,0,0,1,.07-.26.43.43,0,0,0,.06-.22.44.44,0,0,1,.06-.22q.06-.17.19-.61a.63.63,0,0,0,.14-.28,1.54,1.54,0,0,1,.15-.37,1.51,1.51,0,0,0,.17-.34,1.63,1.63,0,0,1,.17-.34c.08-.14.15-.27.23-.38s.15-.24.23-.38a4.2,4.2,0,0,1,.25-.34,2.47,2.47,0,0,0,.26-.38,2.38,2.38,0,0,1,.26-.38C279.54,59.13,279.63,59,279.71,58.9Zm1.45-2.24a1.83,1.83,0,0,0-.17.21l-.12.17a.53.53,0,0,1-.11.12.52.52,0,0,0,.11-.12.58.58,0,0,1,.14-.15,1.49,1.49,0,0,0,.2-.18,7.65,7.65,0,0,0,.61-.51,8.83,8.83,0,0,1,.78-.63,5.15,5.15,0,0,1,.45-.36l.5-.36.56-.38.56-.38a5.22,5.22,0,0,1,.61-.37l.67-.36a4.18,4.18,0,0,1,.69-.32c.24-.08.47-.17.69-.27a7.32,7.32,0,0,1,1.53-.39,6.58,6.58,0,0,1,1.51-.17l.72.07a3.09,3.09,0,0,1,.71.16.44.44,0,0,1,.16,0,.44.44,0,0,0,.16,0,.48.48,0,0,0,.15.06l.15.06a.46.46,0,0,0,.15.06.49.49,0,0,1,.15.06.4.4,0,0,0,.26.12,4.85,4.85,0,0,1,.9.58,1.44,1.44,0,0,1,.34.26,2,2,0,0,0,.29.25,1.86,1.86,0,0,1,.16.2.5.5,0,0,0,.17.15.3.3,0,0,0,.15.11.49.49,0,0,1-.09-.14,3.43,3.43,0,0,1-.33-.39,2.45,2.45,0,0,0-.27-.23,1.49,1.49,0,0,1-.31-.32,1.73,1.73,0,0,1-.45-.29,3.31,3.31,0,0,0-.45-.34.94.94,0,0,1-.31-.12,1.34,1.34,0,0,0-.25-.16l-.36-.13-.15-.06a.45.45,0,0,1-.16-.06,6.8,6.8,0,0,0-1.53-.24h-.78a4.35,4.35,0,0,0-.84.1,11.4,11.4,0,0,0-2.3.68l-.72.34-.64.39-.64.39a10.28,10.28,0,0,0-1.09.8l-.93.77a5.78,5.78,0,0,0-.73.7A6.44,6.44,0,0,1,281.15,56.66Zm2,5.29a7.51,7.51,0,0,0,3.6-.5,8,8,0,0,0,2.55-1.72,9.76,9.76,0,0,0,1.7-2.31q.65-1.25,1.08-2.26l-.31-.05-.31-.05a4.74,4.74,0,0,0-2.24.4,11.22,11.22,0,0,0-2.5,1.44,19,19,0,0,0-2.46,2.21,20.26,20.26,0,0,0-2.11,2.65A3.14,3.14,0,0,0,283.12,62Zm6,10,.47-.22.37-.18.32-.19-.32.19-.39.16-.49.19a5.79,5.79,0,0,0-.59.18,3.66,3.66,0,0,1-.69.18,2.36,2.36,0,0,1-.38.1,2.25,2.25,0,0,0-.38.1,2.29,2.29,0,0,1-.38.1l-.43.05a1.3,1.3,0,0,1-.38.08,1.4,1.4,0,0,0-.38.08l-.4,0-.4,0-.7.08h-.64a2.63,2.63,0,0,1-.55,0,2,2,0,0,1-.45,0h-.4l.39,0,.44,0a2.59,2.59,0,0,0,.54,0,3.85,3.85,0,0,0,.64,0,4.75,4.75,0,0,0,.75,0l.37,0,.42,0,.37,0a2,2,0,0,0,.43-.07,1.34,1.34,0,0,1,.38-.08,1.31,1.31,0,0,0,.38-.08l.76-.19q.36-.14.7-.24A2.94,2.94,0,0,0,289.09,72ZM291,58.1a.12.12,0,0,0-.06.08.13.13,0,0,0-.06.1.31.31,0,0,1-.07.15l-.27.37-.39.49a4,4,0,0,1-.47.48c-.16.16-.35.35-.57.56l-.34.26-.34.26a2.21,2.21,0,0,0-.39.25,1.14,1.14,0,0,1-.38.21l-.38.23a.47.47,0,0,1-.22.09.48.48,0,0,0-.22.09A5,5,0,0,1,286,62a2.14,2.14,0,0,1-.42.1,2.21,2.21,0,0,0-.42.1,2.52,2.52,0,0,1-.78.07l-.63.09-.51,0a1.28,1.28,0,0,1-.36,0h-.1l.46,0,.51,0h.67a2.2,2.2,0,0,1,.36,0l.42,0a2.25,2.25,0,0,1,.42-.1,2.23,2.23,0,0,0,.42-.1,3.77,3.77,0,0,0,.45-.14,3.8,3.8,0,0,1,.45-.14.48.48,0,0,1,.21-.09.47.47,0,0,0,.22-.09l.38-.23a1.06,1.06,0,0,0,.43-.2,2.14,2.14,0,0,1,.39-.25,3,3,0,0,1,.34-.28,3.1,3.1,0,0,0,.34-.28,1.19,1.19,0,0,1,.29-.28,1.2,1.2,0,0,0,.29-.28l.21-.29a2.45,2.45,0,0,1,.21-.24,2.49,2.49,0,0,0,.34-.5,2.31,2.31,0,0,1,.22-.38Z"/><path d="M363.73,56.5a1.72,1.72,0,0,1,.71.75,10.14,10.14,0,0,1,.72,1.38,4.18,4.18,0,0,1,.36,1.37c0,.42-.1.67-.37.75a117.42,117.42,0,0,0-13.4,5.64,100.82,100.82,0,0,0-9.48,5.37,67.89,67.89,0,0,0-6.39,4.63c-1.67,1.39-3,2.57-4,3.54s-1.7,1.7-2.18,2.2-.77.73-.9.7a2.87,2.87,0,0,1-.92-.55,13,13,0,0,1-1.16-1,8.43,8.43,0,0,1-1-1.14c-.26-.38-.37-.66-.33-.83a9,9,0,0,1,.71-1.75q.55-1.11,1.34-2.52t1.79-3q1-1.58,2-3.13,2.37-3.61,5.47-7.79a86.83,86.83,0,0,0-10.35,6.26c-3,2.14-5.52,4.11-7.58,5.87s-3.64,3.2-4.78,4.29a8.29,8.29,0,0,1-1.89,1.6,3.83,3.83,0,0,1-1-.49c-.48-.3-1-.63-1.49-1a10.39,10.39,0,0,1-1.35-1.15c-.38-.39-.56-.7-.52-.94a23.58,23.58,0,0,1,1.87-4q1.26-2.21,2.93-4.61T316.35,62q2-2.44,4-4.67t4-4.15c1.29-1.28,2.47-2.38,3.51-3.32s1.9-1.66,2.57-2.18,1.08-.76,1.23-.73a2.31,2.31,0,0,1,.92.58,7.9,7.9,0,0,1,1,1.13,8.94,8.94,0,0,1,.78,1.23,1.44,1.44,0,0,1,.24.85,6.1,6.1,0,0,1-1.19,1.13c-.76.64-1.73,1.47-2.88,2.49s-2.44,2.17-3.83,3.46-2.75,2.62-4.08,4S320,64.62,318.92,66a23.8,23.8,0,0,0-2.58,3.8c.46-.41,1.21-1,2.25-1.83s2.27-1.7,3.69-2.7,3-2.05,4.66-3.16,3.41-2.2,5.17-3.26,3.48-2.06,5.16-3,3.2-1.77,4.56-2.45,2.47-1.22,3.34-1.61a4.25,4.25,0,0,1,1.52-.52,1.32,1.32,0,0,1,.67.49,3.22,3.22,0,0,1,.65,1.91,3.34,3.34,0,0,1-.13,1,8.26,8.26,0,0,1-1.1,1.55q-1,1.26-2.46,3l-3.12,3.81q-1.67,2-3.08,3.88t-2.38,3.24A8.61,8.61,0,0,0,334.63,72c3.89-2.83,7.72-5.33,11.44-7.51q2.38-1.39,4.89-2.73t4.88-2.43q2.36-1.09,4.4-1.84A18.35,18.35,0,0,1,363.73,56.5ZM319,59.92a1.81,1.81,0,0,1,.16-.26l.14-.17.14-.15c-.18.17-.36.36-.55.56s-.37.38-.58.62l-.73.82c-.25.34-.52.69-.82,1l-.94,1.12q-.49.62-1,1.25l-1,1.29c-.33.45-.64.89-.93,1.32l-.86,1.29-.72,1.25-.64,1.13q-.62,1.14-.87,1.72a3.7,3.7,0,0,0-.19.5.65.65,0,0,0-.08.16.64.64,0,0,1,.08-.16.44.44,0,0,0,.09-.21.65.65,0,0,1,.15-.28,8.24,8.24,0,0,1,.41-.73c.17-.27.37-.57.6-.92s.43-.72.69-1.1.52-.79.77-1.22.58-.85.89-1.27l1-1.3c.3-.45.6-.89.91-1.32s.63-.84,1-1.23.58-.81.87-1.17.55-.71.8-1.05.47-.63.68-.87S318.82,60.13,319,59.92Zm16-2.32-.19.09-.25.12a1.44,1.44,0,0,0-.26.16l-.78.44q-.45.25-1,.61l-1.14.69-1.32.79-1.39.89-1.38.89q-.71.47-1.36.95t-1.34.91l-2.29,1.65q-.51.38-.9.7a8.63,8.63,0,0,1-.69.52l-.57.46.18-.1a3.2,3.2,0,0,0,.44-.35l.71-.48c.27-.18.57-.4.91-.66l2.36-1.61,2.66-1.84Q331.16,60,335,57.61Zm-11.66.54q-.12.06-.14.13a.31.31,0,0,1-.08.14.29.29,0,0,0-.08.12.3.3,0,0,1,.08-.12.3.3,0,0,0,.08-.12s.05-.06.13-.11a4,4,0,0,1,.36-.39l.48-.46c.19-.2.37-.4.54-.6a8,8,0,0,1,.61-.63l.7-.68.71-.68,1.38-1.4c.44-.44.84-.83,1.22-1.16a6.2,6.2,0,0,1,.44-.46,4.07,4.07,0,0,0,.37-.39l.36-.32a2.36,2.36,0,0,1-.35.28l-.39.36-.53.46-.6.54-.67.61-.71.65c-.24.22-.47.45-.71.69l-.68.7-.67.66a6.6,6.6,0,0,0-.61.65l-.5.63a2.94,2.94,0,0,0-.44.49A3.12,3.12,0,0,1,323.35,58.15Zm6.1,15.27.37-.63.37-.63a5.47,5.47,0,0,0,.29-.49c.07-.15.14-.27.2-.38a1.71,1.71,0,0,0,.18-.27l0-.09a1.6,1.6,0,0,1-.24.3q-.31.37-.64.84c-.12.18-.25.37-.41.58a5.72,5.72,0,0,0-.42.62q-.25.35-.46.7l-.47.74-.39.74c-.13.26-.26.49-.38.7a6.73,6.73,0,0,0-.33.69,5.33,5.33,0,0,1-.31.65,1.78,1.78,0,0,0-.23.51,2.07,2.07,0,0,1-.16.44.88.88,0,0,0-.12.29l0,.09s.05,0,.07-.07a.87.87,0,0,1,.12-.29c.11-.15.28-.44.52-.87s.48-.79.75-1.26.56-.95.85-1.42c.14-.27.28-.52.43-.75S329.32,73.66,329.45,73.42Zm4.32-6,.3-.42.23-.35.19-.31a1.64,1.64,0,0,1-.24.3A2.18,2.18,0,0,0,334,67l-.3.42a7.11,7.11,0,0,1-.78,1.11,12.4,12.4,0,0,0-.82,1.29c-.16.2-.31.41-.46.63s-.28.43-.41.64-.24.42-.34.61a4.39,4.39,0,0,1-.32.53c-.12.18-.21.34-.28.47l-.2.36a1.21,1.21,0,0,0-.14.33l.19-.32a8.06,8.06,0,0,1,.51-.78l.74-1.13.84-1.28a5.76,5.76,0,0,1,.44-.68,7,7,0,0,0,.43-.64l.34-.59C333.54,67.77,333.65,67.59,333.77,67.41Zm14.93-3.25a.61.61,0,0,0,.21-.14l.16-.16a.52.52,0,0,1,.14-.09.52.52,0,0,0-.14.09l-.45.18-.61.34-.69.41a5.81,5.81,0,0,0-.65.4c-.21.15-.41.27-.59.37l-.22.16-.15.14a.51.51,0,0,1-.14.09l.19-.08a.72.72,0,0,0,.2-.12.71.71,0,0,1,.2-.12l.6-.32q.33-.17.68-.39l.66-.42C348.33,64.37,348.52,64.25,348.7,64.16Zm13.83-6.63.24-.08a.61.61,0,0,0,.18-.1.51.51,0,0,1,.15-.09l-.61.2-1.61.55-1.08.39-1.16.46-1.23.53-1.29.56a3.37,3.37,0,0,0-.62.3q-.29.18-.57.32a4.28,4.28,0,0,0-.61.28l-.56.3-1.08.59q-.52.27-.95.55a4.86,4.86,0,0,0-.8.46,5.41,5.41,0,0,1-.6.38,1.18,1.18,0,0,0-.35.21.54.54,0,0,1-.14.09l2-1,2.1-1,2.41-1.17,1.24-.58,1.23-.53a12.12,12.12,0,0,1,1.13-.54l1-.43.87-.37Z"/><path d="M374.51,83c.13,0,.28.08.45.34a3.91,3.91,0,0,1,.43,1,7,7,0,0,1,.24,1.19,1.83,1.83,0,0,1-.07.93,3.92,3.92,0,0,1-1.13,1.13,25.44,25.44,0,0,1-2.36,1.57q-1.41.85-3.13,1.7a30.39,30.39,0,0,1-3.42,1.46,17.71,17.71,0,0,1-3.21.84,5,5,0,0,1-2.62-.2,2.85,2.85,0,0,1-1.16-1,10.07,10.07,0,0,1-1-1.61,7.84,7.84,0,0,1-.63-1.7,2.27,2.27,0,0,1,0-1.28L357,87q-1.31.49-2.6.89t-2.46.63a14.78,14.78,0,0,1-2.15.29,4.5,4.5,0,0,1-1.69-.19,4.7,4.7,0,0,1-2-1.45,11.56,11.56,0,0,1-1.57-2.36,10.74,10.74,0,0,1-.93-2.58,4.23,4.23,0,0,1,0-2.12,8.51,8.51,0,0,1,2.09-3.3,19.28,19.28,0,0,1,3.76-3,31.18,31.18,0,0,1,4.79-2.4,32.81,32.81,0,0,1,5.13-1.6A25.16,25.16,0,0,1,364,69.2a9.33,9.33,0,0,1,3.58.48,4.21,4.21,0,0,1,2.31,2,6.25,6.25,0,0,1,.75,2.58,5,5,0,0,1-.31,2.15q-.37.89-.81.71a.85.85,0,0,1-.57-.64c-.05-.29-.1-.61-.13-1a2.83,2.83,0,0,0-.31-1,2,2,0,0,0-1.1-.84,7.46,7.46,0,0,0-3.12-.37,22.44,22.44,0,0,0-4.19.68,31.45,31.45,0,0,0-4.58,1.55,28.67,28.67,0,0,0-4.26,2.22,19.46,19.46,0,0,0-3.35,2.66,7.28,7.28,0,0,0-1.85,2.79,1,1,0,0,0,.72,1.49,5.26,5.26,0,0,0,2.45.1,17.08,17.08,0,0,0,3.07-.8q1.62-.57,3.37-1.34T359,81.1q1.57-.75,2.84-1.42t2-1c.4-.25.66-.35.79-.3s.32.29.56.72a14.89,14.89,0,0,1,.7,1.41,15.06,15.06,0,0,1,.55,1.48,1.75,1.75,0,0,1,.13.91,2.81,2.81,0,0,1-.59.57q-.54.44-1.27,1.07l-1.55,1.32q-.82.69-1.45,1.31a11.07,11.07,0,0,0-1,1.06c-.22.29-.24.47-.05.55a3.78,3.78,0,0,0,2.17.08,14,14,0,0,0,2.68-.88,28.16,28.16,0,0,0,2.84-1.44q1.44-.83,2.69-1.58l2.16-1.32A6.34,6.34,0,0,1,374.51,83Zm-26.72-7a7.23,7.23,0,0,1,.83-.63l.93-.6,1-.58,1-.58c.36-.19.72-.37,1.09-.54l1.15-.51a23.75,23.75,0,0,1,2.32-.89q1.2-.39,2.39-.71l1.13-.32a11,11,0,0,1,1.11-.23c.37-.08.74-.15,1.1-.2l1-.14a13.05,13.05,0,0,1,1.84-.15,1.4,1.4,0,0,1,.37,0,1.41,1.41,0,0,0,.37,0,3.87,3.87,0,0,1,.67.07l.55.07a1.48,1.48,0,0,1,.37.1.26.26,0,0,0,.13,0,.13.13,0,0,1,.08,0l.1,0-.3-.12-.18,0-.18,0a.72.72,0,0,1-.27-.06.73.73,0,0,0-.27-.06l-.33,0-.38-.05a1.32,1.32,0,0,1-.37,0,1.36,1.36,0,0,0-.37,0q-.45,0-.92,0c-.31,0-.63,0-.95.07q-1,.09-2.14.29t-2.37.5q-1.19.32-2.39.69a21.83,21.83,0,0,0-2.38.9q-1.12.5-2.25,1.09l-1,.58-1,.6a18.2,18.2,0,0,0-1.78,1.27,5.8,5.8,0,0,0-.76.68,3.33,3.33,0,0,1-.35.33,3.65,3.65,0,0,0-.35.33,5.84,5.84,0,0,0-.55.63c-.16.21-.3.42-.44.62a1,1,0,0,0-.22.28,1.4,1.4,0,0,1-.16.25,1.12,1.12,0,0,0-.14.28.72.72,0,0,1-.13.24,2,2,0,0,0-.17.38l-.1.31-.09.29,0-.08a.46.46,0,0,1,.11-.19l.09-.29a.37.37,0,0,0,.11-.17.69.69,0,0,1,.12-.21,1,1,0,0,1,.3-.46,3.65,3.65,0,0,1,.39-.57,8.87,8.87,0,0,1,1-1.19l.68-.61a2.19,2.19,0,0,1,.37-.32Zm7.14,11.06.54-.15.43-.15.37-.14-.36.1-.44.1-.56.15a5.29,5.29,0,0,1-.66.2l-.75.17-.78.18q-.38.1-.83.17a1.87,1.87,0,0,0-.43.08,1.85,1.85,0,0,1-.43.08l-.36.06-.41,0-.4,0-.4,0a.83.83,0,0,1-.34,0l-.33,0a.78.78,0,0,1-.3-.05.77.77,0,0,1-.3-.05l-.42-.14-.16-.08-.11-.06-.09,0,.09,0a.41.41,0,0,0,.13.09.42.42,0,0,1,.13.09l.2.09a.37.37,0,0,0,.22.05l.28.1a1.19,1.19,0,0,0,.34.07l.33,0a.82.82,0,0,0,.34,0,2.54,2.54,0,0,0,.39,0l.4,0,.41,0,.41,0a1.94,1.94,0,0,0,.43-.08,1.82,1.82,0,0,1,.43-.08,6.48,6.48,0,0,0,.84-.19c.26-.08.52-.15.79-.21l.73-.18C354.51,87.2,354.72,87.13,354.93,87.05Zm-3.45-2.26a.77.77,0,0,0-.23.06l-.06,0,.06,0a.77.77,0,0,1,.23-.06l.35-.09a3.19,3.19,0,0,1,.46-.09l.51-.15.59-.21A5.94,5.94,0,0,0,354,84l.63-.24.6-.25.56-.27a5.06,5.06,0,0,0,.55-.24,4.46,4.46,0,0,1,.49-.22l.39-.23a11.15,11.15,0,0,1,.58-.3l-.32.12-.32.12a2.94,2.94,0,0,0-.39.18,4.06,4.06,0,0,0-.49.22,4.89,4.89,0,0,1-.55.24l-.6.25-.6.25-1.19.46-.56.22a4,4,0,0,1-.48.16l-.48.16Zm12.21-14.21.41,0a1.79,1.79,0,0,0,.31-.07l.3,0s0,0-.07,0l-.11,0-.11,0a1,1,0,0,1-.33,0l-.48,0-.5,0a3.81,3.81,0,0,0-.58.09l-.62.05a4,4,0,0,0-.63.09l-.59.13-.59.14-.56.15-.45.14-.42.15-.29.11-.26.09a.57.57,0,0,1,.26-.09l.73-.16,1-.23,1.23-.25a5.13,5.13,0,0,1,.61-.1,5.16,5.16,0,0,0,.61-.1l.54-.08A2.27,2.27,0,0,1,363.68,70.58Z"/><path d="M391.9,91.6a1,1,0,0,1,1.06.14,3.15,3.15,0,0,1,1,1,3.3,3.3,0,0,1,.47,1.3.92.92,0,0,1-.38,1,18.64,18.64,0,0,1-1.67.9c-.81.4-1.77.83-2.89,1.3s-2.33.93-3.63,1.41a35,35,0,0,1-3.8,1.15,21.75,21.75,0,0,1-3.47.56,5.33,5.33,0,0,1-2.69-.39,3.59,3.59,0,0,1-.84-.74,6.36,6.36,0,0,1-1-1.52,6.65,6.65,0,0,1-.62-2,3.93,3.93,0,0,1,.36-2.25,8.87,8.87,0,0,1,2.22-2.9A35.55,35.55,0,0,1,379.16,88l3.07-2.15A5.2,5.2,0,0,0,384,84.14c.05-.11-.12-.39-.51-.85a11.94,11.94,0,0,0-1.17-1.21q-1.52,1-3.38,2.26l-3.34,2.3a.71.71,0,0,1-1,0,3,3,0,0,1-.69-1.14,4,4,0,0,1-.24-1.47,1.17,1.17,0,0,1,.42-1L376.59,81q1.36-1,2.63-1.9-.67-.73-1.26-1.52a6.79,6.79,0,0,1-.92-1.65,5.56,5.56,0,0,1-.36-1.81,4.53,4.53,0,0,1,.4-2,7.36,7.36,0,0,1,1.7-2.35,16.55,16.55,0,0,1,2.69-2.09,21.68,21.68,0,0,1,3.21-1.65A26.49,26.49,0,0,1,387.93,65a16.46,16.46,0,0,1,2.75-.52,3.64,3.64,0,0,1,1.79.16,4.72,4.72,0,0,1,1.38,1.15,11,11,0,0,1,1.36,1.91,7.8,7.8,0,0,1,.84,2.15,2.85,2.85,0,0,1-.17,1.93,6.33,6.33,0,0,1-1.4,1.61q-1.08,1-2.72,2.23t-3.69,2.67q-2,1.42-4.36,2.91.69.67,1.45,1.49a14.52,14.52,0,0,1,1.33,1.67A6,6,0,0,1,387.3,86a1.8,1.8,0,0,1-.06,1.37,4.63,4.63,0,0,1-1.17,1.16q-1,.77-2.22,1.72l-2.64,2q-1.39,1-2.44,1.95a16.11,16.11,0,0,0-1.61,1.55q-.55.64-.14.83a3.75,3.75,0,0,0,2.06.21,15.92,15.92,0,0,0,2.8-.64A30.74,30.74,0,0,0,385,94.94q1.59-.7,3-1.36t2.45-1.21Zm-9-23.71.46-.28.46-.28.94-.45a2.28,2.28,0,0,1,.4-.21,2.43,2.43,0,0,0,.4-.2c.27-.14.5-.25.71-.33s.39-.17.55-.26l.47-.22-.14,0-.15.05-.22.07a2.53,2.53,0,0,1-.59.21,3.43,3.43,0,0,0-.75.29,3.36,3.36,0,0,0-.43.14l-.45.18-.94.45-.53.22-.48.25-1,.57a4,4,0,0,1-.44.31l-.49.29-.41.32-.41.32-.39.33-.39.33a3.57,3.57,0,0,0-.57.62,1.43,1.43,0,0,0-.28.31,1.28,1.28,0,0,1-.2.25,2.47,2.47,0,0,0-.28.5.21.21,0,0,0-.09.15.21.21,0,0,1-.1.15l0,.08s0,0,0,.06l.05-.12a1.22,1.22,0,0,1,.19-.3l.36-.42a3.67,3.67,0,0,1,.51-.5l.33-.29.34-.29.38-.31.38-.31.86-.58c.29-.19.6-.39.93-.6ZM377.57,76s0,0,0-.06l0-.2a.87.87,0,0,1-.08-.28l0-.36a3,3,0,0,1,0-.92.66.66,0,0,1,0-.24.65.65,0,0,0,0-.24,1.18,1.18,0,0,0,.08-.25,1.37,1.37,0,0,1,.08-.25l.19-.44a1.92,1.92,0,0,0,.26-.46,3.59,3.59,0,0,0,.25-.37,3.74,3.74,0,0,1,.25-.37,1,1,0,0,0,.26-.25,1.46,1.46,0,0,1,.19-.23.17.17,0,0,1,.06-.07.15.15,0,0,0,.06-.07l0,0s-.06,0-.07,0A.16.16,0,0,1,379,71,.17.17,0,0,0,379,71a1.41,1.41,0,0,0-.2.18,3.25,3.25,0,0,1-.3.28.37.37,0,0,0-.13.16.36.36,0,0,1-.13.16,1.28,1.28,0,0,0-.29.4,1.45,1.45,0,0,0-.24.42,1.9,1.9,0,0,0-.26.46,357.18,357.18,0,0,0-.22,1.05c0,.16,0,.32,0,.47s0,.31,0,.47a3,3,0,0,0,.08.37,1.61,1.61,0,0,0,.11.29Zm2.6-.92a2.34,2.34,0,0,0-.2,1.5,4.15,4.15,0,0,0,.75,1.49q2.6-1.81,4.91-3.5t4-3c1.13-.89,2-1.62,2.57-2.18s.78-.89.57-1a2.5,2.5,0,0,0-1.26,0,13.76,13.76,0,0,0-2.21.58q-1.26.43-2.68,1.05a19.86,19.86,0,0,0-2.71,1.44,17.08,17.08,0,0,0-2.3,1.74A5.8,5.8,0,0,0,380.16,75.07Zm4.06,1.46.86-.62.86-.61q.45-.32.84-.62l.79-.65.38-.28.38-.28c.23-.22.44-.41.64-.57a10.13,10.13,0,0,1,.91-.88.56.56,0,0,1,.1-.15.6.6,0,0,0,.1-.15c0-.05.05-.07.09-.06l0,0a1.28,1.28,0,0,1-.39.3l-.47.34c-.18.12-.37.27-.57.43q-.62.53-1.42,1.13T385.65,75q-.86.67-1.67,1.26l-1.45,1.07q-.78.52-1.43,1l0,0,.46-.23a2.63,2.63,0,0,1,.46-.3,6.66,6.66,0,0,0,.62-.37A14.31,14.31,0,0,0,384.22,76.53Zm-8.73,15.62a.32.32,0,0,1-.1.1,2.9,2.9,0,0,0-.29.26l-.32.46-.36.54a3.74,3.74,0,0,0-.36,1.14.94.94,0,0,0,0,.42.32.32,0,0,1,0,.14.16.16,0,0,1,0-.14.66.66,0,0,0,.05-.17.75.75,0,0,1,.07-.21,2.94,2.94,0,0,1,.18-.52l.27-.58c.12-.17.22-.35.33-.53a3.55,3.55,0,0,1,.29-.45,1,1,0,0,1,.21-.34Zm2.86-2.5a.41.41,0,0,1,.09-.13.41.41,0,0,0,.09-.13.12.12,0,0,1,.08-.06.12.12,0,0,0-.08.06.13.13,0,0,0-.09.08.32.32,0,0,1-.11.12l-.37.31a4.87,4.87,0,0,0-.41.39l-.48.48a6.32,6.32,0,0,0-.51.56l-.25.3L376,92l-.47.65c-.09.12-.17.23-.24.35a3.38,3.38,0,0,0-.2.37,1,1,0,0,0-.19.35,1.11,1.11,0,0,1-.19.35,1.81,1.81,0,0,1-.12.38,1.23,1.23,0,0,0-.1.34.36.36,0,0,1,0,.18.35.35,0,0,0,0,.18,82.64,82.64,0,0,1-.07.64.46.46,0,0,0,0,.13.57.57,0,0,1,0,.13.72.72,0,0,0,0,.25,1.25,1.25,0,0,1,0,.21l.11.24a.12.12,0,0,0,0,.1l0,0,0,0v-.1a.54.54,0,0,1,0-.26.74.74,0,0,1-.06-.46.12.12,0,0,1,0-.1.33.33,0,0,0,0-.14.6.6,0,0,1,0-.28.35.35,0,0,1,0-.18.37.37,0,0,0,0-.18.43.43,0,0,0,0-.15.43.43,0,0,1,0-.15,1.29,1.29,0,0,1,.1-.34l.17-.36.17-.36a1.76,1.76,0,0,1,.21-.34,2.69,2.69,0,0,1,.19-.35l.24-.33a1.86,1.86,0,0,0,.22-.36,1,1,0,0,1,.27-.34l.23-.33a1,1,0,0,1,.26-.27l.49-.57.46-.49A3.68,3.68,0,0,1,378.34,89.65Z"/><path d="M409.34,101.59a1,1,0,0,1,1.06.22,3.2,3.2,0,0,1,.89,1.08,3.32,3.32,0,0,1,.38,1.34.91.91,0,0,1-.44.94,18.94,18.94,0,0,1-1.74.77c-.84.34-1.84.69-3,1.07s-2.41.76-3.74,1.13a35.28,35.28,0,0,1-3.89.86,22,22,0,0,1-3.52.3,5.41,5.41,0,0,1-2.67-.6,3.64,3.64,0,0,1-.79-.8,6.38,6.38,0,0,1-.92-1.6,6.67,6.67,0,0,1-.49-2A3.92,3.92,0,0,1,391,102a8.82,8.82,0,0,1,2.43-2.73A35.55,35.55,0,0,1,396.8,97L400,95.06a5.16,5.16,0,0,0,1.86-1.55c.06-.1-.09-.4-.45-.89a12.18,12.18,0,0,0-1.09-1.29q-1.6.87-3.55,2l-3.51,2a.72.72,0,0,1-1-.1,3,3,0,0,1-.61-1.2,4.06,4.06,0,0,1-.14-1.49,1.15,1.15,0,0,1,.49-1l2.7-1.75q1.43-.93,2.77-1.7-.62-.79-1.16-1.62a6.8,6.8,0,0,1-.81-1.72,5.57,5.57,0,0,1-.24-1.83,4.5,4.5,0,0,1,.54-1.92,7.32,7.32,0,0,1,1.87-2.22A16.41,16.41,0,0,1,400.54,77a21.72,21.72,0,0,1,3.34-1.41,26.36,26.36,0,0,1,3.32-.87,16.49,16.49,0,0,1,2.79-.31,3.67,3.67,0,0,1,1.78.3,4.79,4.79,0,0,1,1.31,1.25,11.19,11.19,0,0,1,1.23,2,7.82,7.82,0,0,1,.69,2.22,2.83,2.83,0,0,1-.31,1.91,6.34,6.34,0,0,1-1.52,1.5c-.77.6-1.73,1.27-2.88,2s-2.45,1.55-3.89,2.39-3,1.7-4.57,2.58q.65.72,1.36,1.6a14.9,14.9,0,0,1,1.22,1.77,6.15,6.15,0,0,1,.7,1.68A1.8,1.8,0,0,1,405,97,4.56,4.56,0,0,1,403.7,98q-1,.7-2.35,1.55l-2.79,1.79q-1.47.93-2.59,1.76a16.06,16.06,0,0,0-1.72,1.42c-.4.4-.47.67-.2.82a3.79,3.79,0,0,0,2.05.36,16.06,16.06,0,0,0,2.86-.42,30.78,30.78,0,0,0,3.2-.94q1.65-.58,3.09-1.13t2.54-1ZM402,77.21l.48-.24c.15-.08.31-.17.48-.24l1-.38a2.34,2.34,0,0,1,.42-.17,2.23,2.23,0,0,0,.42-.17c.28-.12.52-.21.73-.28a6.08,6.08,0,0,0,.57-.21l.49-.18-.14,0-.15,0-.22.05a2.51,2.51,0,0,1-.61.17,3.37,3.37,0,0,0-.77.23,3.3,3.3,0,0,0-.45.11l-.47.15-1,.38c-.2.06-.38.12-.54.18l-.49.21-1,.5a4,4,0,0,1-.46.28l-.51.25-.44.29-.44.29-.41.3-.41.31a3.51,3.51,0,0,0-.61.57,1.34,1.34,0,0,0-.31.29,1.36,1.36,0,0,1-.22.23,2.41,2.41,0,0,0-.31.48.21.21,0,0,0-.11.14.2.2,0,0,1-.11.14l0,.08s0,0,0,.06l.06-.12a1.19,1.19,0,0,1,.21-.29l.39-.39a3.68,3.68,0,0,1,.55-.46l.35-.26.36-.26.4-.29.4-.29.9-.52,1-.53Zm-6,7.68s0,0,0-.06v-.21a.87.87,0,0,1-.07-.28l0-.36a3,3,0,0,1,.05-.92.64.64,0,0,1,.06-.24.62.62,0,0,0,.06-.24,1.28,1.28,0,0,0,.1-.25,1.31,1.31,0,0,1,.1-.25l.22-.43a1.84,1.84,0,0,0,.29-.44,3.59,3.59,0,0,0,.28-.35,3.91,3.91,0,0,1,.28-.35,1,1,0,0,0,.28-.23,1.38,1.38,0,0,1,.21-.21.17.17,0,0,1,.07-.06.16.16,0,0,0,.06-.06l0,0s-.06,0-.07,0a.16.16,0,0,1-.07.06.17.17,0,0,0-.06.07,1.4,1.4,0,0,0-.21.16,3.26,3.26,0,0,1-.32.25.37.37,0,0,0-.14.15.35.35,0,0,1-.14.15,1.27,1.27,0,0,0-.32.38,1.46,1.46,0,0,0-.27.4,1.89,1.89,0,0,0-.29.44,213.79,213.79,0,0,1-.29,1c0,.16,0,.32,0,.47s0,.31,0,.47a2.94,2.94,0,0,0,0,.37,1.64,1.64,0,0,0,.09.3Zm2.67-.72a2.32,2.32,0,0,0-.3,1.48A4.18,4.18,0,0,0,399,87.2q2.73-1.61,5.16-3.12t4.22-2.72c1.19-.81,2.1-1.46,2.73-2s.84-.83.64-.95a2.54,2.54,0,0,0-1.26-.09,14,14,0,0,0-2.26.41q-1.29.33-2.77.85a20,20,0,0,0-2.82,1.24,17,17,0,0,0-2.42,1.56A5.74,5.74,0,0,0,398.7,84.17Zm4,1.77.91-.55.91-.55q.48-.29.89-.56l.84-.59.4-.25.4-.25q.36-.3.68-.52a9.81,9.81,0,0,1,1-.81.55.55,0,0,1,.11-.14.57.57,0,0,0,.11-.14c0-.05.06-.07.09,0l0,0a1.19,1.19,0,0,1-.41.27l-.49.3c-.19.11-.39.24-.61.39q-.66.49-1.5,1t-1.78,1.07q-.91.6-1.76,1.13l-1.53,1q-.81.46-1.5.93l0,0,.48-.19a2.6,2.6,0,0,1,.48-.26,6.76,6.76,0,0,0,.64-.32A14.16,14.16,0,0,0,402.67,85.94Zm-9.84,14.94a.29.29,0,0,1-.11.09l-.3.23-.35.43-.4.51a3.73,3.73,0,0,0-.44,1.11.94.94,0,0,0-.06.42.31.31,0,0,1,0,.14.16.16,0,0,1,0-.14.66.66,0,0,0,.06-.17.81.81,0,0,1,.08-.2,2.85,2.85,0,0,1,.22-.51l.31-.56c.13-.16.25-.33.36-.5a3.72,3.72,0,0,1,.32-.43,1,1,0,0,1,.24-.32Zm3-2.28a.39.39,0,0,1,.1-.12.45.45,0,0,0,.1-.12.12.12,0,0,1,.09-.05.12.12,0,0,0-.09.05.14.14,0,0,0-.1.07.32.32,0,0,1-.12.11l-.4.28a4.7,4.7,0,0,0-.44.36l-.51.44a6.34,6.34,0,0,0-.56.52l-.27.28-.29.32-.52.62a4.05,4.05,0,0,0-.27.33,3.18,3.18,0,0,0-.22.35,1.09,1.09,0,0,0-.21.33,1.07,1.07,0,0,1-.21.33,1.73,1.73,0,0,1-.15.37,1.26,1.26,0,0,0-.13.33.35.35,0,0,1,0,.18.33.33,0,0,0,0,.18.62.62,0,0,0-.06.32.63.63,0,0,0-.06.32.46.46,0,0,0,0,.13.53.53,0,0,1,0,.13.73.73,0,0,0,0,.25,1.13,1.13,0,0,1,0,.22l.09.25a.12.12,0,0,0,0,.1l0,0,0,0v-.1a.53.53,0,0,1,0-.27.74.74,0,0,1,0-.47.12.12,0,0,1,0-.1.32.32,0,0,0,0-.14.6.6,0,0,1,0-.28.34.34,0,0,1,0-.18.35.35,0,0,0,0-.18.45.45,0,0,0,.05-.15.42.42,0,0,1,.05-.15,1.25,1.25,0,0,1,.13-.33l.19-.35.19-.35a1.74,1.74,0,0,1,.24-.32,2.57,2.57,0,0,1,.21-.33c.07-.09.16-.2.26-.31a1.83,1.83,0,0,0,.25-.34,1,1,0,0,1,.29-.32l.26-.31a1,1,0,0,1,.28-.25c.19-.2.36-.38.53-.53l.49-.46A3.69,3.69,0,0,1,395.87,98.6Z"/><path d="M420.67,108.49q.26-.09.59.28a2.72,2.72,0,0,1,.54,1,4.14,4.14,0,0,1,.2,1.35,2.26,2.26,0,0,1-.41,1.32,4.2,4.2,0,0,1-1.37,1,21.78,21.78,0,0,1-2.67,1.16q-1.59.58-3.48,1.07a23.59,23.59,0,0,1-3.83.65,17.68,17.68,0,0,1-3.72-.06,7.54,7.54,0,0,1-3.15-1.08,4.57,4.57,0,0,1-1-1.07,9.88,9.88,0,0,1-1.08-1.81,9.19,9.19,0,0,1-.69-2,2.41,2.41,0,0,1,.24-1.78,9.47,9.47,0,0,1,1.89-2,37.31,37.31,0,0,1,3.26-2.49q1.86-1.28,3.9-2.54t3.79-2.24q1.74-1,3-1.57t1.39-.64c.29-.05.57.12.81.52a4.72,4.72,0,0,1,.54,1.43,7.29,7.29,0,0,1,.17,1.64,2.28,2.28,0,0,1-.28,1.21,7.45,7.45,0,0,1-1.31.85q-1.21.7-2.92,1.65t-3.62,2.08q-1.91,1.12-3.46,2.11t-2.46,1.72c-.61.48-.81.79-.61.92a6.82,6.82,0,0,0,3.79,1,17.58,17.58,0,0,0,4.27-.59,31.75,31.75,0,0,0,4.22-1.42C418.52,109.47,419.69,109,420.67,108.49Zm-18-1.22a7.29,7.29,0,0,1,.65-.48l.74-.52,1-.69a6.16,6.16,0,0,1,.56-.41,4.65,4.65,0,0,0,.58-.44l.64-.43a6.69,6.69,0,0,1,.68-.4q.66-.47,1.39-.94t1.51-.92l1.48-.94q.74-.47,1.46-.9a5.72,5.72,0,0,0,.53-.29l.28-.19.24-.18a3.78,3.78,0,0,1,.43-.27q.61-.34,1-.63l.77-.5a2.11,2.11,0,0,0,.3-.17l.21-.13.21-.13,0,0-.75.35c-.25.12-.53.27-.84.45s-.66.38-1,.58l-2.12,1.18q-.94.53-2.41,1.47t-2.88,1.88q-1.37,1-2.43,1.8l-.92.75c-.28.23-.51.42-.69.58a.9.9,0,0,0-.27.25.43.43,0,0,1-.16.16A.64.64,0,0,0,402.64,107.27Zm4.27-2.28.43-.35.39-.28a1.36,1.36,0,0,0,.34-.25,1.47,1.47,0,0,1-.32.21l-.42.23a3.65,3.65,0,0,0-.49.34q-.59.36-1.23.79l-1.36,1-.68.51a7,7,0,0,0-.63.54l-.54.49a5.25,5.25,0,0,0-.5.52,1.79,1.79,0,0,0-.37.42l-.24.39a.33.33,0,0,0-.05.28.12.12,0,0,0,0,.1.12.12,0,0,1,0-.1s0-.13.09-.25a4.32,4.32,0,0,1,.66-.78l.52-.46.54-.49,1.36-1a7.29,7.29,0,0,1,.64-.54l.66-.47q.34-.25.65-.45A6.12,6.12,0,0,0,406.91,105Zm16.18-7a1.28,1.28,0,0,1-.41-.64,7.51,7.51,0,0,1-.29-1.07,5.18,5.18,0,0,1-.11-1.1,2.6,2.6,0,0,1,.08-.74,4.46,4.46,0,0,1,1-.79,16.89,16.89,0,0,1,1.91-1.1,15,15,0,0,1,2.07-.86c.67-.22,1.12-.25,1.34-.1a2,2,0,0,1,.65,1,9.48,9.48,0,0,1,.4,1.58,14.35,14.35,0,0,1,.17,1.51,1.82,1.82,0,0,1-.06.84,3,3,0,0,1-1.06.44q-1,.3-2.16.57t-2.25.43A2.42,2.42,0,0,1,423.09,98ZM412.3,113.59l.45-.07.54-.11a4.18,4.18,0,0,0,.55-.16,4.17,4.17,0,0,1,.55-.16,4.13,4.13,0,0,0,.55-.16l.51-.19.51-.19.44-.18.35-.19a.72.72,0,0,1,.3-.11l.21-.12L417,112a1.25,1.25,0,0,0-.31.08l-.36.15a9,9,0,0,0-1,.3l-.51.19a4.25,4.25,0,0,1-.55.16,4,4,0,0,0-.55.16,4.23,4.23,0,0,1-.55.16,2.83,2.83,0,0,1-.5.14l-.48.1-.68.18a.57.57,0,0,1-.27,0l.27,0A2.08,2.08,0,0,0,412.3,113.59Zm6.13-1.57.38-.22a1.39,1.39,0,0,1,.33-.15l.28-.13-.28.13-.36.1a1.74,1.74,0,0,0-.41.17,2.67,2.67,0,0,1-.5.21,5.21,5.21,0,0,0-.57.22l-.58.24-.65.25-1.24.43a3.93,3.93,0,0,1-.55.21l-.53.17-.45.15-.33.07a.74.74,0,0,1-.23.06H413a1.83,1.83,0,0,1,.36-.07,1.88,1.88,0,0,0,.45-.12l.53-.17.57-.14,1.24-.43.65-.25.58-.24.56-.26Z"/><path d="M443.27,121.3a.73.73,0,0,1,.82.4,3.84,3.84,0,0,1,.53,1.22,5.55,5.55,0,0,1,.17,1.33c0,.42-.08.67-.23.73a34.37,34.37,0,0,1-3.62,1.27,20.24,20.24,0,0,1-4.61.78,17.81,17.81,0,0,1-5.09-.46,13.15,13.15,0,0,1-5.06-2.49l-.39-.3a3,3,0,0,1-.37-.34q-1.62.32-3.18.46a18.86,18.86,0,0,1-3,.05,12.65,12.65,0,0,1-2.68-.45,7.26,7.26,0,0,1-2.21-1,5.07,5.07,0,0,1-1.11-1.34,11,11,0,0,1-1.12-2.38,10,10,0,0,1-.53-2.78,4.2,4.2,0,0,1,.71-2.59,7.2,7.2,0,0,1,1.88-1.83A17.83,17.83,0,0,1,417,110a22.16,22.16,0,0,1,3.24-1.19,28.07,28.07,0,0,1,3.19-.72l.48-.68a4,4,0,0,1,2.37-1.47,11.63,11.63,0,0,1,3.55-.33,15.71,15.71,0,0,1,3.8.68,9.8,9.8,0,0,1,3.06,1.47,4,4,0,0,1,1.09,1.58,7.23,7.23,0,0,1,.58,2.59A10.63,10.63,0,0,1,438,115a8.24,8.24,0,0,1-1.58,3.12,10.1,10.1,0,0,1-2.81,2.34,24.07,24.07,0,0,1-4,1.88,8.08,8.08,0,0,0,3.44.92,17,17,0,0,0,3.74-.24,28.86,28.86,0,0,0,3.57-.85Q442,121.61,443.27,121.3Zm-28.64-5.7a1.2,1.2,0,0,1,.31-.27,1.23,1.23,0,0,1,.31-.27,3.68,3.68,0,0,0,.41-.28,3.84,3.84,0,0,1,.41-.28,3,3,0,0,1,.87-.52l.4-.21.4-.21a1,1,0,0,0,.28-.18.36.36,0,0,1,.23-.11.54.54,0,0,1,.25-.09l-.25.09a.84.84,0,0,0-.28.07l-.3.11a4.64,4.64,0,0,0-.84.38l-.44.23-.44.23a2.11,2.11,0,0,0-.4.31,2,2,0,0,1-.4.31,1.26,1.26,0,0,0-.33.3.82.82,0,0,1-.13.15.88.88,0,0,0-.13.15,1.64,1.64,0,0,0-.24.26l-.15.22-.12.18,0,0a.09.09,0,0,1,.06,0s0,0,.08-.08a1.44,1.44,0,0,1,.17-.2Zm.29.31.32-.29a2.37,2.37,0,0,1,.36-.26,6.81,6.81,0,0,1,.87-.52l.56-.25a2.53,2.53,0,0,1,.52-.28l.58-.24.58-.24,1.25-.41.64-.17.61-.13.1-.42-.21,0-.64.17a6.1,6.1,0,0,0-.66.21l-1.25.41-.63.26-.56.25a2.11,2.11,0,0,0-.3.16l-.24.16a.63.63,0,0,0-.26.14.61.61,0,0,1-.26.14l-.44.31a3.94,3.94,0,0,1-.41.28l-.38.27a1.13,1.13,0,0,1-.15.17,1.18,1.18,0,0,0-.15.17,3.25,3.25,0,0,0-.46.48.42.42,0,0,0-.16.19.84.84,0,0,1-.09.18l-.07.11.07-.11a1.31,1.31,0,0,0,.29-.33,1.37,1.37,0,0,0,.23-.19A1.6,1.6,0,0,1,414.93,115.91Zm-.82,1.84a8.86,8.86,0,0,0,3.6,1.43,16.1,16.1,0,0,0,4.27.13,8.37,8.37,0,0,1-1-2.94,9.65,9.65,0,0,1,.07-2.79,16.26,16.26,0,0,0-3.91,1.45A8.39,8.39,0,0,0,414.11,117.74Zm9.09-4.56a3.17,3.17,0,0,0-.71,2.55,5.83,5.83,0,0,0,2,3.21,31.94,31.94,0,0,0,3.68-1,25.2,25.2,0,0,0,3.37-1.38,21.1,21.1,0,0,0,2.78-1.66,9.11,9.11,0,0,0,1.93-1.78.89.89,0,0,0-.17-1.41,6.67,6.67,0,0,0-3.41-1.22,15.42,15.42,0,0,0-4.3.15,4.68,4.68,0,0,1-.06,1.56c-.11.45-.28.68-.51.69s-.75,0-1.6,0A24.12,24.12,0,0,0,423.2,113.18Zm-1.77,6.52a1.3,1.3,0,0,0,.36,0l.39,0s0,0,0,0,0,0,0,0l-.75.05a3.17,3.17,0,0,0-.57,0,2.59,2.59,0,0,1-.5,0,3.17,3.17,0,0,1-.48,0h-.93a.3.3,0,0,1-.18,0l.74,0,.4,0,.47,0h.51Zm2.8-7.41-.21.15-.21.15.56-.09.53,0,.52,0a3.32,3.32,0,0,0,.48-.06l.69,0,.7,0-.18,0-.24,0h-.27c-.23,0-.49,0-.77,0s-.61,0-1,0Zm4.87-5.75h-.89l0,0h.51l.35,0,.41,0,.52.08.49,0a1.86,1.86,0,0,1,.51.1l.56.08a3.07,3.07,0,0,1,.49.09,2.52,2.52,0,0,0,.5.12,3.31,3.31,0,0,1,.45.09l.65.15.23.06,0,0-.28-.1c-.11,0-.31-.11-.62-.19l-1-.24q-.5-.12-1.06-.2a8.89,8.89,0,0,0-1-.11Zm.89-.39c-.08,0-.12,0-.13,0a.12.12,0,0,1-.08,0h-.07l.3.06a1.09,1.09,0,0,1,.31,0,2.83,2.83,0,0,0,.43.07,2.41,2.41,0,0,0,.53.12l.56.08a.74.74,0,0,1,.3.06.74.74,0,0,0,.3.06,1,1,0,0,1,.31.09,1,1,0,0,0,.31.09c.12,0,.34.07.65.15a4.51,4.51,0,0,0,.58.16l.54.21a3.57,3.57,0,0,0,.49.18,2.2,2.2,0,0,1,.41.2.58.58,0,0,1,.18.08.54.54,0,0,0,.18.08l.18.14s.05,0,.07,0l-.27-.2-.27-.2a2.13,2.13,0,0,0-.43-.27,4.18,4.18,0,0,0-.5-.26,1.22,1.22,0,0,1-.26-.11,1.24,1.24,0,0,0-.26-.11c-.21-.09-.42-.16-.63-.22l-.66-.19-.63-.13a4.11,4.11,0,0,0-.65-.1,5.66,5.66,0,0,0-1.05-.06A3.06,3.06,0,0,0,430,106.15Zm-.64,11.94.35-.15.35-.15c.24-.08.46-.16.66-.24l.62-.27a2.93,2.93,0,0,1,.56-.29,3.93,3.93,0,0,0,.54-.25q.94-.6,1.56-1a2.52,2.52,0,0,1,.4-.25.34.34,0,0,0,.15-.1.33.33,0,0,1-.15.1l-.21.09-.23.12c-.18.12-.41.25-.69.41a10.21,10.21,0,0,1-.93.45c-.16.1-.34.19-.51.27l-.58.27-.62.28c-.2.09-.42.17-.66.24a5.62,5.62,0,0,1-.67.26l-.35.15a1.71,1.71,0,0,1-.32.11l-.77.22q-.34.1-.72.25l-.76.17-.76.17a1.17,1.17,0,0,1-.4.09,1.2,1.2,0,0,0-.39.09l.17.13.7-.14.76-.17.76-.17.77-.22c.23-.07.47-.15.72-.25l.33-.13Zm3.7-1.2c.2-.14.4-.27.61-.39s.41-.25.61-.39l.57-.42.5-.42a3.3,3.3,0,0,0,.51-.44,4.57,4.57,0,0,1,.42-.4l.51-.66.22-.28-.05.07-.09.07a.38.38,0,0,0-.12.1,3,3,0,0,1-.24.26l-.36.33a5.14,5.14,0,0,0-.4.38,3.19,3.19,0,0,1-.5.42l-.55.4-.55.4-.59.41-.59.41q-.28.18-.56.32l-.5.25-.43.25a1.35,1.35,0,0,1-.35.15.62.62,0,0,0-.18.14.12.12,0,0,1-.1,0l.29-.11a2,2,0,0,0,.37-.13l.45-.23.52-.24A3.57,3.57,0,0,0,433,116.9Z"/><path d="M454.18,136.35a1.09,1.09,0,0,1,1,.46,3.57,3.57,0,0,1,.82,2.69.89.89,0,0,1-.62.84,18.65,18.65,0,0,1-1.89.37c-.9.15-2,.27-3.2.39s-2.55.21-4,.28a36,36,0,0,1-4.06,0,22.85,22.85,0,0,1-3.58-.49,5.71,5.71,0,0,1-2.56-1.19,3.86,3.86,0,0,1-.64-1,6.7,6.7,0,0,1-.62-1.79,6.79,6.79,0,0,1-.1-2.14,3.83,3.83,0,0,1,.94-2.08,8.58,8.58,0,0,1,2.95-2.17,34.89,34.89,0,0,1,3.83-1.54l3.59-1.19a5.06,5.06,0,0,0,2.15-1.12c.08-.09,0-.41-.28-1a12.78,12.78,0,0,0-.84-1.52q-1.76.51-3.93,1.2l-3.9,1.25a.75.75,0,0,1-1-.32,3.14,3.14,0,0,1-.38-1.32,4,4,0,0,1,.15-1.5c.14-.49.37-.78.67-.87l3-1.14q1.61-.6,3.09-1.08-.47-.91-.85-1.85a7.07,7.07,0,0,1-.48-1.88,5.6,5.6,0,0,1,.11-1.87,4.4,4.4,0,0,1,.9-1.79,7.12,7.12,0,0,1,2.29-1.79,16.24,16.24,0,0,1,3.2-1.24,21.69,21.69,0,0,1,3.6-.66,26.73,26.73,0,0,1,3.48-.13,17,17,0,0,1,2.85.31,3.87,3.87,0,0,1,1.72.69,5.09,5.09,0,0,1,1.07,1.53,11.67,11.67,0,0,1,.85,2.26,8,8,0,0,1,.27,2.35,2.78,2.78,0,0,1-.67,1.83,6.12,6.12,0,0,1-1.8,1.15c-.88.42-2,.87-3.27,1.36s-2.74,1-4.34,1.51-3.29,1-5.06,1.54q.51.85,1.05,1.89a15.46,15.46,0,0,1,.88,2,6.31,6.31,0,0,1,.38,1.82,1.77,1.77,0,0,1-.41,1.32,4.47,4.47,0,0,1-1.45.79l-2.64,1-3.13,1.15q-1.64.6-2.92,1.17a15.61,15.61,0,0,0-2,1c-.47.31-.59.56-.36.77a4,4,0,0,0,2,.81,16.51,16.51,0,0,0,2.94.21,31.05,31.05,0,0,0,3.38-.22q1.76-.2,3.31-.43t2.74-.44Zm-2.72-25.78.52-.13.53-.13,1-.16a2.22,2.22,0,0,1,.45-.08,2.41,2.41,0,0,0,.45-.08c.3-.05.56-.09.78-.11l.61-.09.52-.07h-.54a2.61,2.61,0,0,1-.64,0,3.44,3.44,0,0,0-.82.06,3.28,3.28,0,0,0-.47,0l-.49,0-1,.16-.58.06-.53.1-1.12.27a4.06,4.06,0,0,1-.52.17l-.56.14-.49.19-.49.19-.47.21-.47.21a3.5,3.5,0,0,0-.72.43,1.37,1.37,0,0,0-.36.22,1.24,1.24,0,0,1-.26.18,2.43,2.43,0,0,0-.4.41.21.21,0,0,0-.13.12.2.2,0,0,1-.13.12l-.06.07s0,0,0,.07l.08-.1a1.17,1.17,0,0,1,.27-.24l.46-.3a3.62,3.62,0,0,1,.64-.33l.4-.18.41-.18.45-.19.45-.2,1-.31,1.07-.31Zm-7.41,6.29s0,0,0-.07l0-.21a.87.87,0,0,1,0-.29l0-.36a3,3,0,0,1,.22-.9.65.65,0,0,1,.11-.22.63.63,0,0,0,.11-.22,1.22,1.22,0,0,0,.14-.22,1.29,1.29,0,0,1,.15-.22l.3-.37a1.84,1.84,0,0,0,.38-.37,3.71,3.71,0,0,0,.34-.29,3.46,3.46,0,0,1,.34-.29.92.92,0,0,0,.32-.17,1.38,1.38,0,0,1,.25-.17.17.17,0,0,1,.08,0,.14.14,0,0,0,.08,0l0,0s-.05,0-.07,0a.16.16,0,0,1-.08.05.16.16,0,0,0-.08,0,1.36,1.36,0,0,0-.24.12,3.13,3.13,0,0,1-.37.18.36.36,0,0,0-.17.12.35.35,0,0,1-.17.12,1.25,1.25,0,0,0-.39.3,1.41,1.41,0,0,0-.35.34,1.87,1.87,0,0,0-.38.37,296.6,296.6,0,0,0-.49,1c0,.16-.06.32-.09.47s-.06.3-.09.46a2.9,2.9,0,0,0,0,.38,1.6,1.6,0,0,0,0,.31Zm2.8-.13a2.28,2.28,0,0,0-.58,1.4,4.3,4.3,0,0,0,.35,1.67q3-1,5.75-2t4.73-1.76c1.34-.53,2.38-1,3.1-1.36s1-.64.82-.8a2.66,2.66,0,0,0-1.24-.37,14.24,14.24,0,0,0-2.33-.09c-.9,0-1.88.1-2.92.23a19.72,19.72,0,0,0-3,.6,16.71,16.71,0,0,0-2.72,1A5.59,5.59,0,0,0,446.86,116.74Zm3.63,2.62,1-.35,1-.34,1-.36,1-.39.45-.16.45-.16c.28-.14.54-.27.78-.37a10,10,0,0,1,1.13-.59.51.51,0,0,1,.14-.11.55.55,0,0,0,.14-.11s.07-.05.1,0l0,0a1.25,1.25,0,0,1-.46.18l-.55.19q-.32.1-.68.25c-.5.22-1.07.45-1.7.67s-1.29.45-2,.67-1.34.51-2,.73l-1.71.61c-.6.18-1.16.38-1.68.59l0,0,.51-.08A2.64,2.64,0,0,1,448,120a6.83,6.83,0,0,0,.71-.18A14.15,14.15,0,0,0,450.49,119.36ZM437.81,132a.3.3,0,0,1-.13.07,2.69,2.69,0,0,0-.35.16l-.44.35-.49.42a3.61,3.61,0,0,0-.65,1,.92.92,0,0,0-.14.4.31.31,0,0,1,0,.14.16.16,0,0,1,0-.14.6.6,0,0,0,.09-.15.76.76,0,0,1,.12-.18,2.81,2.81,0,0,1,.32-.45l.41-.49c.16-.13.31-.27.46-.42a3.56,3.56,0,0,1,.4-.35.93.93,0,0,1,.3-.27Zm3.47-1.59a.42.42,0,0,1,.12-.1.42.42,0,0,0,.12-.1.12.12,0,0,1,.1,0,.12.12,0,0,0-.1,0,.13.13,0,0,0-.11,0,.31.31,0,0,1-.14.08l-.45.19a4.93,4.93,0,0,0-.51.26l-.6.33a6.19,6.19,0,0,0-.65.39l-.32.21-.35.25-.63.5-.33.27a3.25,3.25,0,0,0-.29.3,1,1,0,0,0-.28.28,1,1,0,0,1-.28.28,1.77,1.77,0,0,1-.22.34,1.18,1.18,0,0,0-.19.3.35.35,0,0,1-.07.17.34.34,0,0,0-.07.17,79.84,79.84,0,0,1-.24.6.45.45,0,0,0,0,.13.62.62,0,0,1,0,.13.71.71,0,0,0,0,.25,1.33,1.33,0,0,1,0,.22l0,.27a.12.12,0,0,0,0,.1l0,0,0,0,0-.1a.54.54,0,0,1,0-.27.74.74,0,0,1,.06-.47.12.12,0,0,1,0-.1.32.32,0,0,0,0-.13.6.6,0,0,1,.09-.27.34.34,0,0,1,.07-.17.36.36,0,0,0,.07-.17.42.42,0,0,0,.08-.13.42.42,0,0,1,.08-.13,1.24,1.24,0,0,1,.19-.3l.26-.3.26-.3a1.74,1.74,0,0,1,.3-.27,2.69,2.69,0,0,1,.28-.28l.32-.25a1.8,1.8,0,0,0,.31-.28,1,1,0,0,1,.35-.25l.32-.25a1,1,0,0,1,.33-.18l.63-.41.58-.34A3.58,3.58,0,0,1,441.29,130.39Z"/><path d="M472,154.76a.79.79,0,0,1,1,.46,3.06,3.06,0,0,1,.28,1.4,3.51,3.51,0,0,1-.35,1.49,1.27,1.27,0,0,1-.88.79,33,33,0,0,1-4.87.31,27.7,27.7,0,0,1-5.8-.65,27.09,27.09,0,0,1-6.11-2.14,21.94,21.94,0,0,1-5.87-4.25l-.55-.46c-.17-.15-.34-.31-.52-.49a6.36,6.36,0,0,1-1.53-2.22,5,5,0,0,1-.34-2.14A4.66,4.66,0,0,1,447,145a4.73,4.73,0,0,1,1.16-1.44,4.26,4.26,0,0,1,1.19-.74,1.86,1.86,0,0,1,.84-.14.69.69,0,0,1,.45.19c.08.1.09.18,0,.24a2.54,2.54,0,0,0-1,1.9,4.09,4.09,0,0,0,.61,2.13,9.34,9.34,0,0,0,1.69,2.09,11.81,11.81,0,0,0,2.19,1.67,7.63,7.63,0,0,0,2.17.89,2,2,0,0,0,1.69-.23c.32-.26.35-.72.07-1.39a17.15,17.15,0,0,0-1.24-2.36l-1.8-2.92a19.45,19.45,0,0,1-1.59-3.12,7.2,7.2,0,0,1-.56-3,3.36,3.36,0,0,1,1.29-2.47,5.54,5.54,0,0,1,2.75-1.23,11.72,11.72,0,0,1,3.42,0,19.66,19.66,0,0,1,3.68.86,25.14,25.14,0,0,1,3.54,1.49,28.46,28.46,0,0,1,3,1.74,12,12,0,0,1,2,1.6,2.64,2.64,0,0,1,.76,1.55,3.79,3.79,0,0,1-.21,1.65,5.38,5.38,0,0,1-.83,1.5,6.12,6.12,0,0,1-1.06,1.09,3.93,3.93,0,0,1-1.45.63,11.77,11.77,0,0,1-1.84.31,11.51,11.51,0,0,1-1.61,0,1.59,1.59,0,0,1-.81-.16l-.56-.59a10.88,10.88,0,0,1-.76-.9,4.6,4.6,0,0,1-.56-.94q-.2-.46.06-.64a3,3,0,0,1,1-.32l1.54-.3,1.54-.29a3,3,0,0,0,1-.3c.08-.08-.09-.29-.54-.63a12.87,12.87,0,0,0-1.83-1.12q-1.17-.61-2.63-1.23a20.66,20.66,0,0,0-2.88-1,13.29,13.29,0,0,0-2.61-.42,2.4,2.4,0,0,0-1.78.47c-.06.06.08.37.42.91l1.28,2q.76,1.23,1.56,2.77a20.93,20.93,0,0,1,1.29,3,8.67,8.67,0,0,1,.48,2.81,2.76,2.76,0,0,1-.85,2.08q-.35.33-.66.58c-.21.17-.41.32-.6.45a23.37,23.37,0,0,0,7,1.32A25.38,25.38,0,0,0,472,154.76Zm-15.32-19.07.56-.1a3.23,3.23,0,0,1,.6-.06l1.36,0a10.46,10.46,0,0,1,1.49.2l1.55.32a23.49,23.49,0,0,1,3,.93q1.49.57,2.6,1.09l1.06.53q.47.23.77.42a1.06,1.06,0,0,1,.3.15,1.26,1.26,0,0,0,.23.14l.12.13s0,0,.07,0l0,0a.14.14,0,0,0-.08,0,.14.14,0,0,1-.08,0,4.81,4.81,0,0,1-.49-.33c-.23-.15-.49-.31-.79-.48l-1-.55-1.23-.6a12,12,0,0,0-1.36-.54q-.77-.28-1.54-.52t-1.53-.44a16.36,16.36,0,0,0-3.07-.49,4.87,4.87,0,0,0-.72,0l-.68,0a3.28,3.28,0,0,0-.6.06l-.56.1a2.26,2.26,0,0,0-.9.29l-.39.17a.43.43,0,0,1-.13.09.37.37,0,0,0-.13.09,2,2,0,0,0-.37.31l-.09.1.09-.1a.8.8,0,0,1,.16-.12l.26-.15a.79.79,0,0,1,.25-.18l.36-.14a1.54,1.54,0,0,1,.43-.13A3,3,0,0,1,456.73,135.69Zm.48.46h1.39c.26,0,.5,0,.74,0a6.32,6.32,0,0,0,.67,0,2.33,2.33,0,0,1,.46,0l.21,0-.18-.06-.24-.08-.27,0-1.41-.15a4.7,4.7,0,0,0-1.37.14l-.44.06a.3.3,0,0,0-.13.06s0,0,.07,0l.1,0c.09,0,.15,0,.17,0h.24Zm-1.87,15.79a.83.83,0,0,0,.24.06.17.17,0,0,1,.11,0l-.32-.14-.39-.22a2.32,2.32,0,0,1-.46-.22l-.56-.35-.6-.39-.62-.51-.63-.51-.56-.57a1.6,1.6,0,0,1-.53-.53,3.4,3.4,0,0,1-.27-.3,3.09,3.09,0,0,0-.23-.26,1.2,1.2,0,0,0-.2-.26,1.21,1.21,0,0,1-.2-.26,1.12,1.12,0,0,0-.18-.24.63.63,0,0,1-.14-.2c-.11-.19-.18-.32-.21-.39l-.14-.32v.07a1.29,1.29,0,0,0,.1.28l.09.18.09.18a1.05,1.05,0,0,0,.14.23,1.16,1.16,0,0,1,.14.23l.4.58a1.27,1.27,0,0,0,.21.28,1.31,1.31,0,0,1,.21.28l.56.56.56.57.64.53a6.42,6.42,0,0,0,.64.46l.32.21.32.21a2.33,2.33,0,0,0,.54.3l.27.15.23.11Z"/></svg>