<svg id="Bulls" xmlns="http://www.w3.org/2000/svg" viewBox="0 0 512 512"><defs><style>.cls-1{opacity:0.5;}.cls-2{fill:#fff;}.cls-3{fill:#841717;}.cls-4{fill:#ce1141;}.cls-5{fill:#cc8217;}</style></defs><title>Bulls</title><g class="cls-1"><ellipse class="cls-2" cx="255.78" cy="256" rx="242.51" ry="244.7"/><path class="cls-3" d="M255.78,503.34c-65.48,0-127-25.73-173.35-72.45a248.9,248.9,0,0,1,0-349.77C128.73,34.4,190.3,8.66,255.78,8.66s127,25.73,173.35,72.45a248.9,248.9,0,0,1,0,349.77C382.83,477.61,321.27,503.34,255.78,503.34Zm0-489.4A237.21,237.21,0,0,0,86.18,84.83a243.63,243.63,0,0,0,0,342.35,238.34,238.34,0,0,0,339.21,0,243.63,243.63,0,0,0,0-342.35A237.21,237.21,0,0,0,255.78,13.94Z"/></g><g class="cls-1"><ellipse class="cls-4" cx="254.51" cy="256.04" rx="169.5" ry="169.09"/><path class="cls-3" d="M254.51,427.15C159.93,427.15,83,350.39,83,256S159.93,84.92,254.51,84.92,426,161.68,426,256,349.09,427.15,254.51,427.15Zm0-338.19C162.16,89,87,163.91,87,256s75.13,167.07,167.48,167.07S422,348.16,422,256,346.86,89,254.51,89Z"/></g><g class="cls-1"><ellipse class="cls-5" cx="251.28" cy="257.13" rx="147.98" ry="153.11"/><path class="cls-3" d="M251.28,410.54c-81.76,0-148.27-68.82-148.27-153.4s66.51-153.4,148.27-153.4,148.27,68.82,148.27,153.4S333,410.54,251.28,410.54Zm0-306.22c-81.43,0-147.69,68.55-147.69,152.82s66.25,152.82,147.69,152.82S399,341.4,399,257.13,332.72,104.31,251.28,104.31Z"/></g><rect class="cls-3" x="103.3" y="255.08" width="295.96" height="4.1"/><rect class="cls-3" x="251.8" y="105.22" width="2.34" height="306.22"/><path class="cls-3" d="M353,370.86c-33.37-9.38-57.16-47.89-60.62-98.13-1.82-26.4,2.52-53,12.23-74.84,10.9-24.56,28.13-42.54,49.84-52l1.17,2.68c-21,9.17-37.74,26.65-48.34,50.52-9.51,21.43-13.77,47.52-12,73.45,3.37,49,26.33,86.47,58.49,95.51Z"/><path class="cls-3" d="M149.91,370.86l-.79-2.82c32.16-9,55.12-46.53,58.49-95.51,1.79-25.93-2.47-52-12-73.45-10.6-23.88-27.31-41.35-48.34-50.52l1.17-2.68c21.71,9.47,38.95,27.46,49.85,52,9.7,21.86,14,48.44,12.23,74.84C207.07,323,183.28,361.49,149.91,370.86Z"/><path d="M122.5,85.88a1.06,1.06,0,0,1,.42-.9,3.18,3.18,0,0,1,1.19-.72,2.54,2.54,0,0,1,1.38-.1,1.19,1.19,0,0,1,.9.94,8.3,8.3,0,0,1,.23,3.06,29.2,29.2,0,0,1-.67,4.3,45.91,45.91,0,0,1-1.43,5,43.69,43.69,0,0,1-2.14,5.09,33.59,33.59,0,0,1-2.81,4.7A19.2,19.2,0,0,1,116,111a7,7,0,0,1-2.71,1.22,13.15,13.15,0,0,1-3.69.38,13.54,13.54,0,0,1-3.86-.7,7.12,7.12,0,0,1-3.16-2,13,13,0,0,1-2.35-4.31,31.43,31.43,0,0,1-1.44-6.15,42.39,42.39,0,0,1-.36-7.08,37.38,37.38,0,0,1,.89-7.09,26.66,26.66,0,0,1,2.14-6.12A10.94,10.94,0,0,1,104.74,75a4.93,4.93,0,0,1,2.22-.81,10.47,10.47,0,0,1,2.66,0,8.38,8.38,0,0,1,2.45.67A3.66,3.66,0,0,1,113.66,76a9.9,9.9,0,0,1,1.16,2.71,34.38,34.38,0,0,1,.81,3.4,22.79,22.79,0,0,1,.37,3c0,.86,0,1.35-.18,1.46a2.49,2.49,0,0,1-1,.27q-.72.11-1.52.16a11.33,11.33,0,0,1-1.49,0c-.46,0-.75-.11-.85-.25a3.27,3.27,0,0,1-.21-1q-.11-.87-.27-2.08t-.37-2.52a15.5,15.5,0,0,0-.54-2.31,3.28,3.28,0,0,0-.83-1.46.9.9,0,0,0-1.22.05,6.16,6.16,0,0,0-1.84,2.94,30.48,30.48,0,0,0-1.34,5.26,45.61,45.61,0,0,0-.61,6.49,53.3,53.3,0,0,0,.23,6.65,31.94,31.94,0,0,0,1.07,5.75,10.47,10.47,0,0,0,1.83,3.83q.57.67,1.09,1.24a2.66,2.66,0,0,0,1.13.77,2.31,2.31,0,0,0,1.42,0,6.12,6.12,0,0,0,1.93-1.17,21.21,21.21,0,0,0,3.63-3.79,30.77,30.77,0,0,0,2.72-4.35,37.26,37.26,0,0,0,2-4.55,35.44,35.44,0,0,0,1.26-4.33,25.35,25.35,0,0,0,.55-3.68A9.71,9.71,0,0,0,122.5,85.88Zm-20.91,19.57a3.27,3.27,0,0,0-.16-.5c-.07-.17-.13-.35-.19-.53l-.16-.55c-.06-.18-.12-.38-.19-.59q-.25-1.11-.49-2.41c0-.23-.07-.46-.1-.67s-.05-.43-.09-.67l-.06-.64c0-.21-.05-.44-.09-.67-.07-.89-.11-1.78-.13-2.66s0-1.76,0-2.64q0-.64,0-1.27c0-.42,0-.82,0-1.2s0-.83.08-1.19l.09-1.08c.08-.7.15-1.33.21-1.9s.13-1.07.21-1.5.13-.71.19-1a2.11,2.11,0,0,0,0-.36l-.11.37a3.15,3.15,0,0,0-.09.4c0,.17-.06.36-.1.58q-.13.65-.28,1.52t-.27,1.92q-.07.51-.13,1.08T99.7,90.5q-.06.61-.11,1.24c0,.42-.05.84-.07,1.27a34.48,34.48,0,0,0,.16,5.34A18.38,18.38,0,0,0,100,101q.14.63.27,1.24t.25,1.2c.07.21.14.4.19.59l.17.55.42,1,.21.51a.39.39,0,0,0,.1.2.67.67,0,0,1,.13.24.6.6,0,0,0,.11.22.62.62,0,0,1,.11.22.59.59,0,0,0,.11.22.62.62,0,0,1,.11.22,1,1,0,0,1,.12.18,1.05,1.05,0,0,0,.12.18,1.19,1.19,0,0,1,.24.37,2.46,2.46,0,0,1,.24.32.93.93,0,0,0,.28.28l.46.53a1.68,1.68,0,0,0,.24.23,1.55,1.55,0,0,1,.21.2c.08.09.14.13.19.13l.17.2a1.62,1.62,0,0,1,.29.16.24.24,0,0,0,.11.08.16.16,0,0,1,.08,0l.06.07-.06-.07a.17.17,0,0,0-.08,0,.23.23,0,0,1-.11-.08,1.13,1.13,0,0,0-.27-.23l-.29-.33a2.55,2.55,0,0,1-.45-.43l-.46-.53a2.51,2.51,0,0,1-.22-.3,3.59,3.59,0,0,1-.21-.37.74.74,0,0,1-.11-.17,1,1,0,0,0-.14-.2.35.35,0,0,0-.09-.19.62.62,0,0,1-.11-.22.92.92,0,0,1-.12-.19,1.08,1.08,0,0,0-.12-.18,1.8,1.8,0,0,0-.09-.24,1.65,1.65,0,0,1-.09-.24.62.62,0,0,0-.11-.22.6.6,0,0,1-.11-.22Zm.43-1.3c-.1-.3-.2-.61-.29-.93a8,8,0,0,1-.23-1q-.13-.52-.23-1l-.2-1a9.25,9.25,0,0,0-.15-1,7.65,7.65,0,0,1-.13-.86q-.06-.64-.12-1.27l0-.53c0,.14,0,.31,0,.5a2.61,2.61,0,0,1,0,.6,5.38,5.38,0,0,0,0,.78q0,.42.1.86c0,.29.07.62.11,1l.2,1c.07.33.13.68.19,1q.26,1,.57,1.94a2,2,0,0,0,.15.45l.2.41a1.3,1.3,0,0,0,.15.4c.06.1.13.22.19.36s.21.46.3.61a2.09,2.09,0,0,0,.3.44,1.11,1.11,0,0,0,.19.3l.09.1-.09-.1a1.1,1.1,0,0,1-.19-.3.39.39,0,0,0-.1-.2.65.65,0,0,1-.13-.24l-.13-.33-.13-.33c-.07-.14-.12-.26-.17-.38l-.17-.38a2.11,2.11,0,0,0-.15-.45A2,2,0,0,1,102,104.15Z"/><path d="M148.24,72.47c.05-.15.3-.27.74-.36a4.67,4.67,0,0,1,1.47,0,3.21,3.21,0,0,1,1.39.51,1.25,1.25,0,0,1,.53,1.21,25,25,0,0,1-.53,2.6q-.39,1.57-.94,3.38t-1.21,3.69a33.4,33.4,0,0,1-1.44,3.5,20.62,20.62,0,0,1-1.65,2.87,5.66,5.66,0,0,1-1.8,1.76,4.37,4.37,0,0,1-1.38.47,4.63,4.63,0,0,1-1.6,0,4.47,4.47,0,0,1-1.59-.61,3.8,3.8,0,0,1-1.3-1.38,5.25,5.25,0,0,1-.52-1.88,26.54,26.54,0,0,1-.2-2.9q0-1.62,0-3.37t0-3.35c0-1.06,0-2,0-2.81a4.45,4.45,0,0,0-.36-1.75,94.48,94.48,0,0,0-4.26,12.33c-1,3.78-1.73,6.91-2.29,9.4,0,0,0,.16-.11.33-.28,1.37-.54,2.47-.79,3.3a2,2,0,0,1-1.78,1.94,3.42,3.42,0,0,1-1.1.06,5.6,5.6,0,0,1-1-.2,1.57,1.57,0,0,1-.7-.39l-.13-.18a11.46,11.46,0,0,1-1.3-3.13,50.14,50.14,0,0,1-1.19-5.15c-.35-2-.68-4.12-1-6.46s-.52-4.69-.68-7-.27-4.66-.33-6.88-.08-4.2-.08-5.94,0-3.15,0-4.22a13.86,13.86,0,0,0,0-1.69q-.31-.53.45-.75a6.51,6.51,0,0,1,1.87-.19,9.32,9.32,0,0,1,2.12.29q1,.26,1.23.65a8.32,8.32,0,0,1,0,1.59c0,1-.09,2.25-.12,3.81s-.06,3.33-.08,5.33,0,4,.08,6.14.19,4.18.34,6.24.38,3.94.66,5.64c.32-1.18.69-2.48,1.11-3.89s.88-2.85,1.37-4.31,1-2.89,1.59-4.28,1.13-2.66,1.69-3.79a22.06,22.06,0,0,1,1.66-2.87,4.81,4.81,0,0,1,1.45-1.5,3.15,3.15,0,0,1,1.21-.32,4.84,4.84,0,0,1,1.58.15,4.75,4.75,0,0,1,1.62.77,4.4,4.4,0,0,1,1.32,1.62,5,5,0,0,1,.3,1.87q0,1.36,0,3.16t-.08,3.81q0,2,0,3.78t.11,3.07a4.84,4.84,0,0,0,.33,1.72,4.68,4.68,0,0,0,1.45-2,34.83,34.83,0,0,0,1.55-4q.76-2.3,1.41-4.81A39.75,39.75,0,0,0,148.24,72.47ZM123.76,92.32l-.18-.62a3.17,3.17,0,0,1-.1-.51l-.08-.42.08.42c0,.16,0,.34,0,.53a3,3,0,0,0,.12.63,4.46,4.46,0,0,1,.15.77c0,.28.07.56.13.84s.14.6.2.9.13.61.19,1,.16.6.24.9.17.59.25.9.2.55.29.81a6.58,6.58,0,0,0,.29.71,3,3,0,0,0,.26.57,1.7,1.7,0,0,0,.23.43.56.56,0,0,0,.12.13l.1.09.08.11-.08-.11-.18-.25a1.09,1.09,0,0,1-.1-.2,1.27,1.27,0,0,0-.13-.23c0-.12-.11-.32-.21-.6l-.23-.72q-.12-.37-.28-.79t-.21-.89q-.1-.44-.23-.93l-.22-.91-.22-.92c-.06-.28-.11-.55-.15-.83A6.76,6.76,0,0,0,123.76,92.32Zm3.6-2.23c-.08-.33-.15-.66-.2-1s-.11-.65-.18-1l-.17-.85c-.06-.26-.1-.49-.13-.68a.59.59,0,0,0-.07-.22.32.32,0,0,1,0-.18.32.32,0,0,1,0-.18c0,.17,0,.36,0,.6s.06.42.1.69.07.57.1.9.07.68.13,1,.11.76.16,1.18c0,.09,0,.18,0,.26s0,.17,0,.26c0-.14.09-.28.13-.42S127.33,90.25,127.36,90.09Zm-1.76-12c0,.14,0,.25,0,.34s0,.16,0,.23a.57.57,0,0,0,0,.18c0-.24,0-.5,0-.78s0-.52,0-.87,0-.74,0-1.18,0-.84,0-1.31,0-1,0-1.53,0-1.05,0-1.6,0-1.09,0-1.64,0-1.16,0-1.7,0-1.07,0-1.59,0-1.06,0-1.53,0-.91,0-1.31,0-.77,0-1.1,0-.62,0-.89a4.76,4.76,0,0,0,0-.8.44.44,0,0,0,0,.21,4.22,4.22,0,0,1,0,.57c0,.24,0,.54-.06.9s-.06.74-.06,1.15,0,.86,0,1.35-.05,1-.08,1.52,0,1.06-.05,1.61,0,1.12-.05,1.71,0,1.09,0,1.63,0,1.08,0,1.62,0,1,0,1.48.05.91.08,1.34,0,.77,0,1.1S125.59,77.85,125.61,78.11Zm-.77-10.51c0,.24,0,.43,0,.58a2.57,2.57,0,0,1,0,.43,1.41,1.41,0,0,0,0,.4,3,3,0,0,0,.05-.39,10,10,0,0,1,0-1q0-.32,0-.66c0-.23,0-.48.05-.77s0-.56,0-.84,0-.55.05-.84a6.72,6.72,0,0,0,0-.83,6.39,6.39,0,0,1,0-.83c0-.27,0-.52,0-.76s0-.47,0-.68,0-.37,0-.53a2.07,2.07,0,0,1,0-.45,1.48,1.48,0,0,0,0-.4q-.17,2.26-.3,4.52a8.58,8.58,0,0,1,0,1.65c0,.26,0,.52,0,.76S124.86,67.39,124.84,67.6Zm14.45,14.31,0,.31a3.19,3.19,0,0,0,0,.43c0,.17,0,.34,0,.51s0,.35,0,.56a5.69,5.69,0,0,0,0,.7,5.54,5.54,0,0,0,0,.73c0,.23,0,.48,0,.74s0,.5,0,.74a4.45,4.45,0,0,0,.07.67c.05.24.1.46.15.65a5.26,5.26,0,0,1,.11.57,1.24,1.24,0,0,0,.15.47.94.94,0,0,1,.13.33l.18.3,0-.08a.68.68,0,0,1-.08-.26,1.45,1.45,0,0,0-.1-.35,1.85,1.85,0,0,1-.12-.49c0-.16,0-.35-.06-.55s-.07-.42-.13-.66,0-.47,0-.7,0-.48,0-.74,0-.5,0-.74,0-.47,0-.7a3.58,3.58,0,0,1,0-.65c0-.22,0-.41,0-.58Q139.31,82.53,139.29,81.91Zm-4.29-11a7.37,7.37,0,0,1,.62-1,6,6,0,0,1,.76-.83l.47-.32a1.52,1.52,0,0,1,.53-.2,4.88,4.88,0,0,1,.9-.07,3.14,3.14,0,0,1,.74.14l.56.18a.71.71,0,0,0,.33.13A.12.12,0,0,1,140,69l-.09-.05a.45.45,0,0,1-.35-.17l-.22-.11a1.19,1.19,0,0,0-.27-.08,1.21,1.21,0,0,0-.69-.18,2.28,2.28,0,0,0-1,.05,2.42,2.42,0,0,0-1,.53,5.34,5.34,0,0,0-.87.89,7.41,7.41,0,0,0-.62,1c-.18.33-.35.66-.51,1s-.32.66-.48,1-.27.62-.39.92-.23.57-.33.79-.22.51-.3.72-.14.4-.18.56l-.2.47.2-.47a4.8,4.8,0,0,0,.27-.53l.31-.7c.12-.27.24-.54.38-.82s.27-.59.39-.92.34-.66.5-1S134.82,71.21,135,70.88Zm3.84,10q0-.53-.05-1a9.71,9.71,0,0,1,0-1c0-.33,0-.64-.05-.92s0-.56-.06-.82,0-.49-.05-.7a5.45,5.45,0,0,1,0-.55.29.29,0,0,0,0-.16.3.3,0,0,1,0-.16.16.16,0,0,1,0-.14s0,.05,0,.1a.32.32,0,0,0,0,.18.32.32,0,0,1,0,.18c0,.17,0,.35,0,.55s0,.44,0,.72c0,.52,0,1.12,0,1.78s0,1.34,0,2c0,.37,0,.72,0,1.05s0,.66,0,1a8.63,8.63,0,0,0,0,1c0,.29,0,.57.05.83s0,.49,0,.69,0,.38,0,.54a1.23,1.23,0,0,0,0,.49q0-.21,0-.48c0-.16,0-.34,0-.54s0-.44,0-.71a8.4,8.4,0,0,0,0-.86,5.72,5.72,0,0,1,0-.92c0-.35,0-.68,0-1S138.83,81.23,138.83,80.86Z"/><path d="M160.79,67.27c0-.18.24-.3.58-.36a2.91,2.91,0,0,1,1.15.06,4.19,4.19,0,0,1,1.28.56,2.2,2.2,0,0,1,.9,1.06,4.1,4.1,0,0,1,0,1.68,22,22,0,0,1-.56,2.89q-.42,1.66-1.1,3.54a24.74,24.74,0,0,1-1.64,3.61,18.92,18.92,0,0,1-2.18,3.15,8.21,8.21,0,0,1-2.74,2.14,5,5,0,0,1-1.51.33,10.64,10.64,0,0,1-2.19,0,9.64,9.64,0,0,1-2.17-.46,2.35,2.35,0,0,1-1.42-1.13,9,9,0,0,1-.7-2.7,35.43,35.43,0,0,1-.3-4.12q0-2.28,0-4.71t.25-4.45c.11-1.35.23-2.48.37-3.4s.22-1.43.26-1.54c.13-.28.44-.43.93-.42a5,5,0,0,1,1.57.28,7.35,7.35,0,0,1,1.53.72,2.2,2.2,0,0,1,.89.88,7.27,7.27,0,0,1,0,1.57c-.07.94-.16,2.07-.27,3.39s-.22,2.72-.31,4.22-.14,2.86-.17,4.1a28.71,28.71,0,0,0,.08,3q.11,1.17.45,1a7.47,7.47,0,0,0,3.08-2.72,18.46,18.46,0,0,0,2-4,33,33,0,0,0,1.22-4.37C160.38,69.63,160.62,68.35,160.79,67.27Zm-11.5,14.87a7.06,7.06,0,0,1,0-.81c0-.26,0-.56,0-.92s0-.75,0-1.2a6,6,0,0,1,0-.69,4.48,4.48,0,0,0-.05-.73V77a6.76,6.76,0,0,1,0-.8c0-.54,0-1.11,0-1.7s0-1.19.08-1.79,0-1.18,0-1.77,0-1.17.07-1.73a5.73,5.73,0,0,0,.06-.61c0-.13,0-.24,0-.34s0-.2,0-.31a3.61,3.61,0,0,1,0-.52q.06-.7.06-1.24c0-.36,0-.67,0-.93a2.29,2.29,0,0,0,0-.35,1.4,1.4,0,0,1,0-.25,1.45,1.45,0,0,1,0-.25l-.05,0-.13.83c0,.28-.08.6-.1,1s-.06.77-.11,1.21c-.08.91-.15,1.73-.21,2.45s-.1,1.68-.12,2.86-.06,2.36,0,3.48.09,2.14.17,3.05q.08.65.13,1.19t.11.9a.85.85,0,0,0,.06.36.41.41,0,0,1,0,.22A.64.64,0,0,0,149.29,82.14Zm.47-4.89c0-.22,0-.4-.06-.56a4.58,4.58,0,0,1,0-.48,1.32,1.32,0,0,0,0-.43,1.46,1.46,0,0,1,0,.39c0,.14,0,.3,0,.49a3.6,3.6,0,0,0,0,.6q0,.7,0,1.48t.11,1.71l.06.85a6.79,6.79,0,0,0,.11.83l.12.73a5.13,5.13,0,0,0,.17.7,1.69,1.69,0,0,0,.15.54l.21.41a.32.32,0,0,0,.21.19.12.12,0,0,0,.09.05.12.12,0,0,1-.09-.05s-.1-.08-.17-.21a4.1,4.1,0,0,1-.31-1c0-.21-.06-.44-.1-.69l-.12-.73q-.06-.85-.12-1.71a6.5,6.5,0,0,1-.1-.83q0-.43,0-.82t0-.8A5.61,5.61,0,0,0,149.75,77.25Zm3.39-17.64a1.41,1.41,0,0,1-.8,0,8,8,0,0,1-1.1-.31,5.22,5.22,0,0,1-1-.48,2.55,2.55,0,0,1-.59-.46,4.27,4.27,0,0,1-.11-1.27,16.38,16.38,0,0,1,.17-2.23,15.16,15.16,0,0,1,.49-2.24c.21-.7.45-1.1.71-1.21a2.24,2.24,0,0,1,1.29,0,9.65,9.65,0,0,1,1.62.49,13.93,13.93,0,0,1,1.41.66c.42.23.65.39.69.5a3,3,0,0,1-.25,1.14q-.31,1-.79,2.16t-1,2.16Q153.41,59.5,153.14,59.62Zm7.18,17.52c.06-.12.13-.26.2-.42s.14-.33.22-.52a4.16,4.16,0,0,0,.18-.55,4.06,4.06,0,0,1,.18-.55,4.29,4.29,0,0,0,.18-.55l.13-.53.13-.53c0-.18.08-.33.1-.47a3.31,3.31,0,0,0,0-.4.72.72,0,0,1,.08-.32,1.56,1.56,0,0,1,0-.24,2.16,2.16,0,0,1-.07.27,1.21,1.21,0,0,0-.11.31c0,.12-.05.25-.08.39a9.21,9.21,0,0,0-.3,1l-.13.53a4.19,4.19,0,0,1-.18.55,4,4,0,0,0-.18.55,4.26,4.26,0,0,1-.18.55,2.8,2.8,0,0,1-.17.5c-.07.16-.13.31-.18.46l-.24.68a.58.58,0,0,1-.13.25l.13-.25A2.16,2.16,0,0,0,160.32,77.14Zm2.2-6.07c0-.16,0-.31,0-.44a1.39,1.39,0,0,1,.06-.36l.06-.31-.06.31-.12.36a1.69,1.69,0,0,0-.09.44,2.74,2.74,0,0,1-.11.54,5.24,5.24,0,0,0-.14.6c0,.2-.08.41-.13.62l-.16.68-.35,1.29a3.78,3.78,0,0,1-.14.58q-.09.28-.15.54c0,.18-.09.33-.13.46a2.17,2.17,0,0,1-.13.32.71.71,0,0,1-.08.23l0,.06,0-.06a.16.16,0,0,1,.06-.07.39.39,0,0,0,.09-.13,1.9,1.9,0,0,1,.15-.35,1.93,1.93,0,0,0,.16-.45c0-.18.09-.36.15-.54s.13-.37.21-.56l.35-1.29.16-.68c.05-.21.09-.42.13-.62l.11-.61C162.48,71.42,162.5,71.24,162.52,71.07Z"/><path d="M183.41,59.64c.08-.14.27-.16.59-.05a4.73,4.73,0,0,1,1,.49,7,7,0,0,1,1,.75,1.77,1.77,0,0,1,.55.76,3.29,3.29,0,0,1-.46,1.63,29.77,29.77,0,0,1-1.59,3c-.68,1.14-1.51,2.36-2.47,3.67a42.79,42.79,0,0,1-3.17,3.81A34.09,34.09,0,0,1,175.22,77a14.8,14.8,0,0,1-4,2.32,6.35,6.35,0,0,1-3,.32A12.61,12.61,0,0,1,165,78.9a12,12,0,0,1-2.69-1.45,4.44,4.44,0,0,1-1.55-1.71,9.12,9.12,0,0,1-.65-3.57,20.15,20.15,0,0,1,.49-4.34,26,26,0,0,1,1.46-4.57A28.08,28.08,0,0,1,164.3,59,19,19,0,0,1,167,55.69a7.67,7.67,0,0,1,2.81-1.87,5.56,5.56,0,0,1,2.53-.25,7.52,7.52,0,0,1,2.44.74,6.8,6.8,0,0,1,1.93,1.44,4.79,4.79,0,0,1,1.11,1.84,5.43,5.43,0,0,1,.15,2.19,12.78,12.78,0,0,1-1.38,4.5c-.32.58-.61.92-.89,1a2.05,2.05,0,0,1-.68,0,2.57,2.57,0,0,1,.28-.37c.07-.15.14-.28.21-.42s.15-.26.23-.38a2.44,2.44,0,0,1,.13-.39l.15-.35a1.34,1.34,0,0,0,.08-.28.59.59,0,0,1,.1-.24l.05-.2s0,0,0,.06,0,.07,0,.08,0,0,0,.08a.72.72,0,0,1-.1.22,1.57,1.57,0,0,0-.14.28,2.76,2.76,0,0,1-.36.67,3.23,3.23,0,0,1-.22.4,3.14,3.14,0,0,0-.22.4l-.14.21-.13.21a3.8,3.8,0,0,1-1.41-.54,1.8,1.8,0,0,1-.79-.75,2.17,2.17,0,0,1,.22-1.17q.32-.88.67-2t.62-2.19a3.44,3.44,0,0,0,0-1.86,3.19,3.19,0,0,0-.21-.46q-.16-.3-.92,0a6.16,6.16,0,0,0-2.35,1.58,15,15,0,0,0-2.21,2.86,24.15,24.15,0,0,0-2.94,7.59,18.65,18.65,0,0,0-.37,3.82,8.77,8.77,0,0,0,.56,3.17,3.31,3.31,0,0,0,1.16,1.54,2.54,2.54,0,0,0,2.34-.09,11.67,11.67,0,0,0,3.51-2.18,28.09,28.09,0,0,0,3.16-3.27,40.31,40.31,0,0,0,2.75-3.75q1.26-1.95,2.26-3.6c.66-1.1,1.22-2.05,1.66-2.85S183.28,59.83,183.41,59.64ZM162.83,70.23c0-.26,0-.5.06-.74s0-.44,0-.63a3.17,3.17,0,0,1,.05-.54l.09-.46a1.54,1.54,0,0,0,0-.39.12.12,0,0,1,0,.1.26.26,0,0,0,0,.13,1.08,1.08,0,0,1,0,.17,3.12,3.12,0,0,0-.1.42l-.11.56c0,.21-.07.42-.1.65s-.06.48-.11.76q0,.78,0,1.57a2.86,2.86,0,0,0,0,.43c0,.12,0,.26,0,.41a2.64,2.64,0,0,0,.06.36c0,.12.05.25.07.4a3.08,3.08,0,0,0,.17.69l.25.61a3.84,3.84,0,0,0,.45.81.39.39,0,0,0,.08.13.29.29,0,0,1,.07.09.12.12,0,0,0,.08.06.12.12,0,0,1-.08-.06l-.1-.24a4.94,4.94,0,0,1-.4-.83q-.18-.59-.34-1.33a8.85,8.85,0,0,1-.18-1.54,4.4,4.4,0,0,1,0-.79C162.8,70.76,162.82,70.49,162.83,70.23Zm-1.09-3.3c0,.1,0,.05.07-.12s.12-.39.2-.65.16-.51.24-.78a2.62,2.62,0,0,1,.19-.52q.08-.27.16-.51a3.54,3.54,0,0,0,.13-.45,7.75,7.75,0,0,0,.25-.76.6.6,0,0,0,.09-.25c0-.08,0-.16,0-.23a.52.52,0,0,1,.06-.16.49.49,0,0,0-.06.16,1.14,1.14,0,0,1-.07.22,1.81,1.81,0,0,1-.12.24c-.11.23-.23.49-.34.77a9.62,9.62,0,0,0-.33,1,4.23,4.23,0,0,0-.21.55,4.2,4.2,0,0,1-.2.55Zm17.95-.12a1.85,1.85,0,0,0,.13-.22,1.18,1.18,0,0,0,.08-.21.51.51,0,0,1,.07-.16l-.35.52c-.13.19-.26.4-.4.63a9.21,9.21,0,0,1-.52.77q-.31.47-.66,1c-.24.32-.49.65-.76,1a3.35,3.35,0,0,1-.42.53,6.1,6.1,0,0,0-.47.55l-.42.51-.47.53a8.62,8.62,0,0,1-.95,1l-.49.52-.51.48a8.71,8.71,0,0,1-1,.83.52.52,0,0,1-.21.19.51.51,0,0,0-.21.19l-.25.16-.25.16a6,6,0,0,1-.82.54,1.5,1.5,0,0,1-.39.24,1.31,1.31,0,0,0-.31.16,1.1,1.1,0,0,1-.26.14l-.22.09-.15.06.2-.08.45-.17.35-.13a2.08,2.08,0,0,0,.38-.19l.45-.24a2.29,2.29,0,0,0,.44-.28,1.56,1.56,0,0,0,.5-.33l.5-.32a.93.93,0,0,1,.26-.21.92.92,0,0,0,.26-.21,4.08,4.08,0,0,0,.53-.42l.51-.46a6.21,6.21,0,0,0,.5-.5,12.75,12.75,0,0,0,1-1,19.13,19.13,0,0,0,1.75-2.21q.39-.54.71-1l.63-1q.31-.47.49-.8Zm-2.95-4.55c-.06.17-.12.35-.18.54a3.54,3.54,0,0,1-.19.5l-.32.8a3,3,0,0,1-.14.28,1,1,0,0,1,.14-.28l.2-.3a2,2,0,0,0,.21-.44,8.6,8.6,0,0,0,.47-1.08c.09-.21.17-.42.24-.63a4.91,4.91,0,0,0,.17-.65c0-.23.08-.44.1-.63s.08-.44.1-.63a1.4,1.4,0,0,0,0-.3,1.31,1.31,0,0,1,0-.3,1.8,1.8,0,0,0,0-.26,1,1,0,0,0,0-.24,1.47,1.47,0,0,0-.08-.44l-.09-.29-.09-.29.09.29a.6.6,0,0,0,0,.31.35.35,0,0,0,0,.21.63.63,0,0,1,0,.25.59.59,0,0,1,0,.23l0,.29q0,.28,0,.55a.6.6,0,0,0-.05.29,1,1,0,0,1,0,.34l-.16.6A5.31,5.31,0,0,1,176.74,62.26Z"/><path d="M210.76,53.71q.15-.15.6,0a4,4,0,0,1,.93.6,7,7,0,0,1,.88.87,1.76,1.76,0,0,1,.45.82,3.81,3.81,0,0,1-.39,1.56,25.66,25.66,0,0,1-1.23,2.6q-.79,1.47-1.84,3.13a32.17,32.17,0,0,1-2.21,3.09,18.9,18.9,0,0,1-2.37,2.46,5.41,5.41,0,0,1-2.42,1.28,3.1,3.1,0,0,1-1.57-.17,10.84,10.84,0,0,1-1.79-.79,8.08,8.08,0,0,1-1.52-1.06,2.21,2.21,0,0,1-.75-1l-.08-.34q-.88,1.15-1.79,2.2t-1.8,1.91a16,16,0,0,1-1.73,1.46,5,5,0,0,1-1.59.81,5.23,5.23,0,0,1-2.63,0,12.57,12.57,0,0,1-2.76-1,11,11,0,0,1-2.32-1.57,4.07,4.07,0,0,1-1.26-1.73,8.05,8.05,0,0,1-.09-3.92,18.85,18.85,0,0,1,1.6-4.64,31.31,31.31,0,0,1,2.88-4.74,33.67,33.67,0,0,1,3.68-4.25,26.89,26.89,0,0,1,3.93-3.2A10.49,10.49,0,0,1,197,46.4a4.69,4.69,0,0,1,3.2.35,6.28,6.28,0,0,1,2.15,1.74,4.74,4.74,0,0,1,.94,2q.17.95-.33,1a.92.92,0,0,1-.87-.22c-.21-.21-.43-.46-.66-.72a2.87,2.87,0,0,0-.86-.69,2.23,2.23,0,0,0-1.47-.09,8.32,8.32,0,0,0-3,1.44,23.87,23.87,0,0,0-3.38,2.92A32.12,32.12,0,0,0,189.53,58,28.54,28.54,0,0,0,187,62.28a19,19,0,0,0-1.43,4.11,6.92,6.92,0,0,0,0,3.36,1.07,1.07,0,0,0,1.5.81,5.85,5.85,0,0,0,2.22-1.32,18.58,18.58,0,0,0,2.26-2.41q1.11-1.39,2.21-3t2.09-3.13c.65-1,1.23-1.92,1.72-2.77s.9-1.5,1.22-2,.39-.66.54-.69a2,2,0,0,1,.91.29,15.25,15.25,0,0,1,1.43.79,15.05,15.05,0,0,1,1.33.93c.4.31.61.54.63.69a2.71,2.71,0,0,1-.21.8c-.16.45-.33,1-.53,1.6s-.41,1.27-.64,2-.41,1.32-.55,1.9a10.59,10.59,0,0,0-.25,1.42c0,.37.05.53.26.48a4.12,4.12,0,0,0,2-1.13,14.8,14.8,0,0,0,1.89-2.21A29.06,29.06,0,0,0,207.31,60q.82-1.48,1.52-2.79c.47-.88.87-1.63,1.2-2.28A6.41,6.41,0,0,1,210.76,53.71ZM182.91,62.9a7.09,7.09,0,0,1,.37-1l.48-1q.31-.54.59-1.08t.6-1.08q.31-.54.66-1.07l.73-1.08a24.22,24.22,0,0,1,1.56-2.07q.85-1,1.74-2c.28-.31.55-.61.84-.91a11.72,11.72,0,0,1,.86-.82q.43-.42.88-.79l.84-.69a14.31,14.31,0,0,1,1.57-1.16A1.58,1.58,0,0,1,195,48a1.52,1.52,0,0,0,.34-.21,4.39,4.39,0,0,1,.64-.32l.54-.25a1.72,1.72,0,0,1,.39-.13A.29.29,0,0,0,197,47a.14.14,0,0,1,.08,0l.11,0-.34.07-.19.06-.19.06a.84.84,0,0,1-.27.1.83.83,0,0,0-.27.1l-.32.16-.38.17a1.54,1.54,0,0,1-.34.21,1.57,1.57,0,0,0-.34.21c-.28.15-.56.32-.84.5s-.55.38-.81.59q-.86.65-1.76,1.45t-1.84,1.76q-.88.94-1.74,1.94A22.6,22.6,0,0,0,186,56.43q-.71,1.06-1.38,2.2-.31.54-.6,1.08t-.54,1.07a17.64,17.64,0,0,0-.84,2.07,5.66,5.66,0,0,0-.28,1,3.28,3.28,0,0,1-.12.47,3.61,3.61,0,0,0-.12.47,5.56,5.56,0,0,0-.12.84c0,.26,0,.52,0,.76a1,1,0,0,0,0,.35,1.34,1.34,0,0,1,0,.3,1.08,1.08,0,0,0,0,.31.68.68,0,0,1,0,.27,1.82,1.82,0,0,0,.07.41l.1.32.09.29,0-.08a.42.42,0,0,1,0-.23l-.09-.29a.36.36,0,0,0,0-.2.66.66,0,0,1,0-.25,1,1,0,0,1,0-.55,3.5,3.5,0,0,1,0-.69,8.51,8.51,0,0,1,.21-1.58l.25-.9a2.15,2.15,0,0,1,.15-.48C182.78,63.23,182.85,63.07,182.91,62.9Zm12.72,5,.39-.43.3-.36.25-.33a3,3,0,0,1-.26.29l-.33.33-.41.44a5.44,5.44,0,0,1-.47.54l-.57.57-.59.6q-.28.3-.63.61a2,2,0,0,0-.33.31,2,2,0,0,1-.33.31l-.29.25-.34.27-.34.25-.34.25a.89.89,0,0,1-.3.19,2.36,2.36,0,0,0-.31.15.85.85,0,0,1-.29.12.87.87,0,0,1-.29.12l-.45.12-.18,0h-.13l-.1,0,.1,0h.33l.23,0a.41.41,0,0,0,.22-.08l.3-.08a1.39,1.39,0,0,0,.34-.14l.31-.15a.91.91,0,0,0,.3-.19,2.94,2.94,0,0,0,.35-.21l.34-.25.34-.27.34-.27a2,2,0,0,0,.33-.31,2,2,0,0,1,.33-.31,6.8,6.8,0,0,0,.63-.63c.18-.21.38-.42.58-.62s.39-.39.54-.56S195.5,68.12,195.64,67.94Zm-4.35.08a.79.79,0,0,0-.17.18l0,.06,0-.06a.83.83,0,0,1,.17-.18l.26-.27a3.45,3.45,0,0,1,.35-.34c.12-.12.24-.26.36-.41s.26-.32.4-.51a6.3,6.3,0,0,0,.42-.51l.42-.55q.21-.28.39-.55c.12-.18.24-.36.34-.53a5.14,5.14,0,0,0,.35-.51,4.38,4.38,0,0,1,.31-.46q.12-.21.21-.41a1.51,1.51,0,0,1,.18-.31,1.58,1.58,0,0,1,.16-.26l-.21.28-.21.27a3.11,3.11,0,0,0-.25.37,4.37,4.37,0,0,0-.31.46,5.19,5.19,0,0,1-.35.51c-.14.18-.27.37-.39.55s-.25.36-.39.55l-.79,1.05-.37.5a4.16,4.16,0,0,1-.34.4,5.16,5.16,0,0,0-.34.4ZM194,49.34l.36-.26a1.88,1.88,0,0,0,.24-.23l.25-.19s0,0,0,.06l-.11,0-.11,0a1.1,1.1,0,0,1-.28.22l-.44.26-.43.3a4.12,4.12,0,0,0-.47.4l-.53.39a4.21,4.21,0,0,0-.52.44l-.45.45-.45.45-.42.44-.32.37-.29.37-.2.25-.18.23a.59.59,0,0,1,.18-.23l.57-.55.81-.78c.29-.28.61-.58,1-.9a5.28,5.28,0,0,1,.49-.43,5.65,5.65,0,0,0,.49-.43c.17-.13.32-.25.45-.37A2.51,2.51,0,0,1,194,49.34Z"/><path d="M238.44,52.08a1.38,1.38,0,0,1,1.26-.79,2.38,2.38,0,0,1,1.34.55A3.94,3.94,0,0,1,242,53c.24.44.29.76.14,1A19.25,19.25,0,0,1,239,57.84q-2,2-4.33,3.91t-4.89,4l-5,4q-1.22,2.85-2.45,5.59t-2.45,4.9a21,21,0,0,1-2.44,3.55,4.27,4.27,0,0,1-2.44,1.58,3.2,3.2,0,0,1-1.51-.23,8.36,8.36,0,0,1-3.33-2.22,2.85,2.85,0,0,1-.31-3.8A13.88,13.88,0,0,1,212,76.43c.94-.94,2.07-1.95,3.39-3s2.76-2.23,4.34-3.44q.77-2.21,1.52-4.48T222.74,61q-1.15,1.3-2.34,2.56t-2.32,2.26a15.46,15.46,0,0,1-2.22,1.66,5.5,5.5,0,0,1-2,.79,4.35,4.35,0,0,1-1.83-.17,7.55,7.55,0,0,1-1.94-.87,6.8,6.8,0,0,1-1.63-1.42,4,4,0,0,1-.88-1.88,9.53,9.53,0,0,1,.27-4,21.07,21.07,0,0,1,1.85-4.62,29.77,29.77,0,0,1,3.1-4.63,31.5,31.5,0,0,1,3.93-4.07A23.11,23.11,0,0,1,221,43.68a10.43,10.43,0,0,1,4-1.28,6.77,6.77,0,0,1,3.73.65,8.21,8.21,0,0,1,2.5,1.9,6.66,6.66,0,0,1,1.24,2q.33.91,0,.92a.72.72,0,0,1-.61-.37,5.54,5.54,0,0,0-.78-.84,4.75,4.75,0,0,0-1.33-.8,5,5,0,0,0-2.24-.25,10.93,10.93,0,0,0-4.21,1.22,19.2,19.2,0,0,0-4,2.74,24.65,24.65,0,0,0-3.44,3.74,25.7,25.7,0,0,0-2.57,4.2,19.48,19.48,0,0,0-1.47,4.12,9.38,9.38,0,0,0-.22,3.48A5,5,0,0,0,213.68,64a32.49,32.49,0,0,0,2.63-2.27q1.41-1.33,2.88-2.92l2.84-3,2.48-2.63c.74-.78,1.33-1.37,1.74-1.75.35-.76.58-1.15.69-1.15a2.18,2.18,0,0,1,1.11.32,8.33,8.33,0,0,1,2.41,2,1.75,1.75,0,0,1,.47.9,5.66,5.66,0,0,1-.3,1c-.2.6-.47,1.38-.81,2.34s-.75,2.07-1.23,3.32-1,2.58-1.56,4q3.1-2.62,6-5.58A46.86,46.86,0,0,0,238.44,52.08ZM210,58.23a3.75,3.75,0,0,1,.18-.45l.23-.46a7.44,7.44,0,0,1,.47-.92,7.29,7.29,0,0,1,.47-.91l.54-.88q.28-.39.5-.78t.46-.73l.42-.61.33-.47.28-.44-.1.1-.1.12a1.2,1.2,0,0,1-.15.17l-.33.45c-.13.17-.27.36-.42.59l-.51.74-.56.79-.54.88q-.27.44-.53.92a7.66,7.66,0,0,1-.47.92,3.32,3.32,0,0,1-.18.45,3.67,3.67,0,0,0-.18.45,9.12,9.12,0,0,0-.32.9l-.23.79a4.49,4.49,0,0,0-.14.67,3,3,0,0,1-.1.53,1.66,1.66,0,0,0-.06.32v.09l.09-.42c0-.16.09-.33.13-.51s.1-.4.17-.65.16-.51.26-.8A9.26,9.26,0,0,1,210,58.23Zm-1.08.84a.34.34,0,0,0,0,.18v0a.34.34,0,0,1,0-.18,4.45,4.45,0,0,1,.22-.66,21.81,21.81,0,0,1,1.14-2.27,35,35,0,0,1,1.89-3.06,32.2,32.2,0,0,1,2.65-3.35c.27-.27.52-.54.75-.8s.48-.53.76-.8l.79-.76.81-.71.45-.36.4-.31.43-.31.43-.31.81-.5.82-.5L222,44l.78-.34.65-.21.59-.16a3.54,3.54,0,0,1,.51-.09,1,1,0,0,0,.34-.07l.29,0-.29,0-.35,0a1.78,1.78,0,0,0-.51.13,5.7,5.7,0,0,0-1.3.34c-.22.08-.47.17-.72.29l-.42.19-.41.19a14.13,14.13,0,0,0-1.69,1,5.67,5.67,0,0,0-.86.58l-.42.33-.42.34-.83.72c-.28.24-.55.49-.82.76s-.52.54-.76.8-.48.53-.75.81a6.58,6.58,0,0,0-.71.85,7.13,7.13,0,0,1-.71.85q-.33.45-.61.86T212,53q-.61.84-1.08,1.62t-.81,1.46a10,10,0,0,0-.63,1.28c-.16.4-.29.74-.39,1A3.34,3.34,0,0,0,208.91,59.07Zm4.54,23.38c.67-.11,1.34-.75,2.05-1.94A31.3,31.3,0,0,0,217.64,76a27.82,27.82,0,0,0-3.23,3.7A4,4,0,0,0,213.45,82.45ZM211,61.31a.7.7,0,0,0,0,.27v.09a.13.13,0,0,1,0-.09.71.71,0,0,1,.07-.23,2.06,2.06,0,0,1,.1-.39c.05-.14.1-.29.15-.45a3.67,3.67,0,0,1,.19-.56,6,6,0,0,0,.23-.66,6.51,6.51,0,0,1,.26-.64,5,5,0,0,0,.26-.68q.17-.33.32-.67t.32-.67a4.77,4.77,0,0,1,.27-.62l.29-.53a3.71,3.71,0,0,0,.21-.45,2,2,0,0,1,.17-.36.7.7,0,0,1,.14-.2.12.12,0,0,0,0-.09l-.24.26-.23.34-.33.44a11.19,11.19,0,0,0-1.36,2.46,2.14,2.14,0,0,0-.12.33,2.24,2.24,0,0,1-.12.33,1.65,1.65,0,0,0-.11.35,1.8,1.8,0,0,1-.11.35,2.05,2.05,0,0,0-.11.33c0,.09,0,.2-.06.32a2.46,2.46,0,0,0-.13.55,3.51,3.51,0,0,0-.09.5A2.43,2.43,0,0,1,211,61.31Zm12.58,10.18q.2-.51.46-1l-.57.45a1.24,1.24,0,0,0-.13.26,1.4,1.4,0,0,1-.13.26l-.55,1.31q-.26.62-.45,1.17c-.16.37-.3.7-.42,1s-.23.55-.34.77l-.12.28-.08.19-.08.19v0l.09-.1.1-.21.15-.26A6.54,6.54,0,0,0,222,75c.13-.3.3-.61.5-1s.34-.76.53-1.18S223.4,72,223.63,71.49ZM224.29,58c.08-.27.15-.53.2-.77a3.8,3.8,0,0,1,.17-.59,3.07,3.07,0,0,0,.12-.54c-.2.58-.4,1.2-.6,1.86s-.36,1.22-.58,1.95-.43,1.47-.64,2.22a10.43,10.43,0,0,0-.34,1.16,6.64,6.64,0,0,1-.34,1.07l-.29,1c-.09.32-.19.63-.29.94a7.22,7.22,0,0,0-.26.76c-.06.23-.12.42-.17.57a.7.7,0,0,0-.1.23.85.85,0,0,1-.06.18.3.3,0,0,0,0,.14.29.29,0,0,1,0-.14l.17-.37q.08-.23.22-.58c.1-.23.2-.5.31-.81s.22-.58.32-.9.21-.66.32-1a17.8,17.8,0,0,0,.68-2.23,8.7,8.7,0,0,0,.35-1.11q.13-.56.3-1.11l.31-1A6.72,6.72,0,0,0,224.29,58ZM222,60.8l.61-.64.66-.73.15-.15.25-.82-.34.41-.34.41q-.68.82-1.15,1.44l-.45.55-.35.46a1,1,0,0,0-.14.17l-.09.12-.1.1.1-.1a2,2,0,0,1,.29-.25,2.94,2.94,0,0,1,.38-.42A6.4,6.4,0,0,0,222,60.8Zm4.06,4.3.24-.22.24-.22c.12-.24.22-.48.31-.71l.26-.66.37-1,.28-.79.22-.68c-.09.21-.2.44-.32.68s-.2.46-.34.75-.28.62-.42,1a8.47,8.47,0,0,0-.43.89Z"/><path d="M265.52,48.69a.75.75,0,0,1,.92-.13,3.93,3.93,0,0,1,1.14.72,5.55,5.55,0,0,1,.9,1q.36.53.23.73a35.32,35.32,0,0,1-2.32,3.08A20.8,20.8,0,0,1,263,57.33a18.43,18.43,0,0,1-4.52,2.49,13.71,13.71,0,0,1-5.65.84l-.5,0a3,3,0,0,1-.5-.06q-1.16,1.18-2.37,2.2A19.48,19.48,0,0,1,247,64.55a13.08,13.08,0,0,1-2.48,1.18,7.5,7.5,0,0,1-2.43.44,5.21,5.21,0,0,1-1.71-.44A11.37,11.37,0,0,1,238,64.45a10.23,10.23,0,0,1-2.1-1.93,4.14,4.14,0,0,1-1-2.51,7,7,0,0,1,.46-2.59,17.45,17.45,0,0,1,1.37-2.92,21.74,21.74,0,0,1,2-2.86A27.91,27.91,0,0,1,241,49.18v-.83a3.9,3.9,0,0,1,1.11-2.58,11.85,11.85,0,0,1,2.8-2.33,16.35,16.35,0,0,1,3.63-1.64,10.38,10.38,0,0,1,3.46-.56,4.2,4.2,0,0,1,1.86.67,7.32,7.32,0,0,1,2,1.79,10.42,10.42,0,0,1,1.53,2.73,8,8,0,0,1,.48,3.46,10,10,0,0,1-1,3.52,24.38,24.38,0,0,1-2.3,3.85,8.36,8.36,0,0,0,3.41-1.2,17.43,17.43,0,0,0,3-2.31,29.89,29.89,0,0,0,2.51-2.71Q264.63,49.66,265.52,48.69ZM238.2,60.43a1476,1476,0,0,1,.19-.8,3.6,3.6,0,0,0,.18-.47,3.74,3.74,0,0,1,.18-.46,2.94,2.94,0,0,1,.41-.93c.07-.15.14-.28.21-.4s.14-.25.21-.4a1,1,0,0,0,.13-.31.37.37,0,0,1,.13-.22.54.54,0,0,1,.16-.22l-.16.22a.86.86,0,0,0-.19.22,2.46,2.46,0,0,1-.18.27,4.54,4.54,0,0,0-.47.8c-.07.15-.15.29-.23.44s-.16.3-.23.44a2,2,0,0,0-.15.49,2,2,0,0,1-.15.49,1.24,1.24,0,0,0-.1.44.85.85,0,0,1,0,.2.85.85,0,0,0,0,.2,1.61,1.61,0,0,0,0,.35v.44a.08.08,0,0,1,0-.07s0-.05,0-.11a1.34,1.34,0,0,1,0-.26Zm.43.08.1-.42a2.43,2.43,0,0,1,.15-.42,6.53,6.53,0,0,1,.41-.93l.31-.53a2.59,2.59,0,0,1,.26-.53q.16-.27.34-.53c.12-.18.24-.36.34-.53l.8-1.06.43-.51.43-.46-.17-.39-.16.13-.43.51a5.87,5.87,0,0,0-.43.55l-.8,1.06c-.14.21-.26.4-.37.58l-.31.53a2.07,2.07,0,0,0-.16.31l-.1.27a.61.61,0,0,0-.13.27.62.62,0,0,1-.13.27c-.07.18-.13.35-.18.51a3.6,3.6,0,0,1-.18.47c0,.12-.08.26-.15.44a1.09,1.09,0,0,1,0,.22,1.15,1.15,0,0,0,0,.22,3.13,3.13,0,0,0-.09.66.41.41,0,0,0,0,.24.82.82,0,0,1,0,.2v0a1.28,1.28,0,0,0,0-.44,1.37,1.37,0,0,0,.07-.29A1.51,1.51,0,0,1,238.63,60.51Zm.41,2a9.28,9.28,0,0,0,3.84-.94,16.67,16.67,0,0,0,3.63-2.37A8.63,8.63,0,0,1,244,57.31a9.75,9.75,0,0,1-1.6-2.3,16,16,0,0,0-2.4,3.45A8.21,8.21,0,0,0,239,62.48Zm4.86-9a3.12,3.12,0,0,0,.92,2.49,6.06,6.06,0,0,0,3.6,1.44,32.86,32.86,0,0,0,2.5-2.91,25.34,25.34,0,0,0,2-3.06,21,21,0,0,0,1.37-2.95,8.94,8.94,0,0,0,.58-2.57.9.9,0,0,0-1-1.06,7,7,0,0,0-3.6,1,15.58,15.58,0,0,0-3.54,2.6,4.64,4.64,0,0,1,.87,1.31c.18.43.17.71,0,.86s-.64.42-1.35.92A24.09,24.09,0,0,0,243.9,53.47Zm2.38,6.34a1.33,1.33,0,0,0,.3-.21l.3-.26s-.05,0-.05,0,0,0-.05,0l-.59.47a3.24,3.24,0,0,0-.46.35,2.56,2.56,0,0,1-.4.3,3.26,3.26,0,0,1-.4.28,2.3,2.3,0,0,0-.29.2l-.27.2-.21.15a.32.32,0,0,1-.16.09l.64-.39a3.52,3.52,0,0,0,.35-.22l.4-.26.43-.28Zm-2-7.66a1.67,1.67,0,0,0-.08.24,1.87,1.87,0,0,1-.08.24l.41-.39.42-.35.42-.33a3.5,3.5,0,0,0,.36-.33l.56-.43.56-.43a.7.7,0,0,1-.17.08l-.22.11-.22.15q-.28.22-.64.45c-.24.16-.51.35-.81.59Zm.66-7.51-.31.22-.26.17-.17.13h.06l.17-.13.26-.17.32-.17.37-.19.49-.24.43-.26a1.88,1.88,0,0,1,.49-.21l.52-.25a3.16,3.16,0,0,1,.46-.21,2.65,2.65,0,0,0,.49-.19,3.42,3.42,0,0,1,.44-.19c.31-.11.52-.19.64-.25l.23-.08v0l-.29.08q-.17,0-.64.2l-1,.35q-.49.19-1,.44a9.1,9.1,0,0,0-.92.49Zm.52-.83c-.08,0-.11.05-.12.06s0,0-.06.07l-.06,0,.29-.13a1.14,1.14,0,0,1,.29-.15,3,3,0,0,0,.4-.19,2.55,2.55,0,0,0,.52-.21,5.62,5.62,0,0,1,.52-.26.81.81,0,0,1,.29-.13.77.77,0,0,0,.29-.13,1.1,1.1,0,0,1,.32-.1,1.05,1.05,0,0,0,.32-.1c.12-.06.33-.14.64-.25a4.67,4.67,0,0,0,.58-.2l.58-.14a3.94,3.94,0,0,0,.52-.14,2.38,2.38,0,0,1,.47-.07.6.6,0,0,1,.2,0,.59.59,0,0,0,.2,0h.23s.06,0,.06,0h-.69a2.28,2.28,0,0,0-.52,0,4.36,4.36,0,0,0-.58.07,1.35,1.35,0,0,1-.29.06,1.32,1.32,0,0,0-.29.06c-.23.05-.46.11-.67.18l-.67.23-.61.25a4.43,4.43,0,0,0-.61.3,5.83,5.83,0,0,0-.93.56A3.16,3.16,0,0,0,245.42,43.82ZM252,53.95l.21-.32.21-.32c.15-.2.29-.39.41-.58l.36-.58a2.91,2.91,0,0,1,.3-.56,3.64,3.64,0,0,0,.3-.51q.44-1,.75-1.68a2.39,2.39,0,0,1,.19-.43.33.33,0,0,0,.07-.17.33.33,0,0,1-.07.17l-.12.19-.12.24q-.13.3-.34.73t-.52.9c-.08.17-.17.34-.27.51l-.33.56-.36.58c-.12.19-.26.38-.41.58a5.83,5.83,0,0,1-.41.6l-.2.32a1.72,1.72,0,0,1-.2.28l-.51.62c-.15.19-.3.39-.46.62l-.53.58-.53.58a1.21,1.21,0,0,1-.28.3,1.19,1.19,0,0,0-.28.3H249l.5-.51.53-.58.53-.58.51-.62c.15-.19.3-.39.46-.62l.2-.3Zm2.4-3.1c.09-.23.18-.45.28-.67s.2-.44.29-.67.16-.45.23-.67.13-.43.17-.63a3.16,3.16,0,0,0,.18-.65,4.78,4.78,0,0,1,.12-.57l0-.83,0-.35v.09a.29.29,0,0,1,0,.11.38.38,0,0,0,0,.15,2.88,2.88,0,0,1,0,.35c0,.15-.06.31-.11.48a4.79,4.79,0,0,0-.11.54,3.17,3.17,0,0,1-.17.63q-.13.35-.23.65c-.07.2-.14.42-.23.65l-.26.67-.26.67a6.38,6.38,0,0,1-.28.58l-.27.49-.21.45a1.32,1.32,0,0,1-.21.32.6.6,0,0,0-.06.22.12.12,0,0,1-.06.09l.18-.26a2.22,2.22,0,0,0,.24-.32,4.79,4.79,0,0,0,.24-.45c.08-.14.18-.31.3-.49A3.6,3.6,0,0,0,254.36,50.85Z"/><path d="M313.77,50a6.59,6.59,0,0,1-1.82,2.9,9.14,9.14,0,0,1-3,1.8,15.91,15.91,0,0,1-3.67.9,36.54,36.54,0,0,1-4,.29,8,8,0,0,1,3.55,3.49c.73,1.45.71,3.38,0,5.79A5.59,5.59,0,0,1,303,68a11.15,11.15,0,0,1-3.07,1.76,17.85,17.85,0,0,1-3.67,1,36.15,36.15,0,0,1-3.65.4,29.87,29.87,0,0,1-3.06,0,12.84,12.84,0,0,1-1.85-.17,5.39,5.39,0,0,1-2.33-1,3.9,3.9,0,0,1-1.13-1.47,3.81,3.81,0,0,1-.31-1.5,6.38,6.38,0,0,1,.08-1.06q.07-.34.27-.28a2,2,0,0,1,.55.34c.23.18.52.38.85.6a3.4,3.4,0,0,0,1.17.47,13.58,13.58,0,0,0,2.92.26,29,29,0,0,0,3.35-.22,33.22,33.22,0,0,0,3.43-.6,23,23,0,0,0,3.09-.92A12.29,12.29,0,0,0,302,64.44a2.56,2.56,0,0,0,1.15-1.34,1.9,1.9,0,0,0-.46-1.71,8,8,0,0,0-2-1.78A19.16,19.16,0,0,0,297.43,58a26.38,26.38,0,0,0-3.84-1.21,13.36,13.36,0,0,0-1.93-.31c-.64-.05-1.22-.08-1.75-.1h-1.39a4.54,4.54,0,0,1-.82,0c-.14,0-.27-.2-.38-.5a9.31,9.31,0,0,1-.28-1,59.43,59.43,0,0,0-4.06,5,10,10,0,0,0-1.86,3.54,5.94,5.94,0,0,0-.1,1.28q0,.63,0,1.1a3,3,0,0,1-.08.74.3.3,0,0,1-.39.22,2.23,2.23,0,0,1-.81-.53,5.65,5.65,0,0,1-1.06-1.28,7.5,7.5,0,0,1-.83-1.92,5.44,5.44,0,0,1-.11-2.42,10.38,10.38,0,0,1,1.78-3.71,52.19,52.19,0,0,1,3.84-5q2.29-2.64,5.07-5.29t5.26-4.75a29.19,29.19,0,0,1-3.3-.21.82.82,0,0,1-.62-.66,5,5,0,0,1-.17-1.29,11.87,11.87,0,0,1,.06-1.35q.07-.64.11-.85c0-.06.27-.09.79-.11s1.21,0,2.07,0,1.83.07,2.91.16l3.26.3a4.61,4.61,0,0,1,1.47-.87,2.07,2.07,0,0,1,.83.45,6.85,6.85,0,0,1,.8.81c1.12.19,2.12.41,3,.64a21.17,21.17,0,0,1,3.61,1.36,12.56,12.56,0,0,1,3.33,2.28,8,8,0,0,1,2.06,3.25A6.72,6.72,0,0,1,313.77,50Zm-31.49,4.53a.3.3,0,0,0,.08-.14.3.3,0,0,1,.08-.14.16.16,0,0,1,.08-.12.29.29,0,0,1-.08.12,2,2,0,0,0-.22.27l-.84.92q-.5.62-1.12,1.41a12.07,12.07,0,0,0-1.09,1.68L279,59l-.19.46a1.34,1.34,0,0,0-.19.48,1.9,1.9,0,0,1-.13.45l-.08.48a1.27,1.27,0,0,1,0,.44,3.72,3.72,0,0,1,0,.43,1,1,0,0,0,.07.39,1.56,1.56,0,0,0,.15.69l.06.28a1.43,1.43,0,0,0,.07.23,1,1,0,0,0,.11.33l0,.1-.09-.42a9.38,9.38,0,0,1-.12-1.22,1.29,1.29,0,0,1,0-.38,1.78,1.78,0,0,0,0-.42l.07-.39.07-.43.31-.88.19-.48a2,2,0,0,1,.24-.43l.48-.85a3.78,3.78,0,0,0,.27-.42,3.49,3.49,0,0,1,.27-.42c.19-.26.37-.52.52-.76s.31-.47.46-.68.28-.4.39-.58A5.38,5.38,0,0,1,282.28,54.58Zm8.21,14.21.41,0,.31,0,.28,0a1,1,0,0,0-.27,0l-.3,0h-.41q-.43,0-1-.08l-1.15-.15a3.37,3.37,0,0,1-.55-.08l-.54-.12-.51-.11a2.28,2.28,0,0,0-.45-.14,1.62,1.62,0,0,0-.4-.13.49.49,0,0,0-.15-.08.44.44,0,0,1-.15-.08l-.2,0s0,0,0-.05,0,0,0,.05a.12.12,0,0,1,.07,0,.24.24,0,0,0,.12,0,.47.47,0,0,0,.15.08.48.48,0,0,1,.15.08.47.47,0,0,0,.17.08.49.49,0,0,1,.17.08.6.6,0,0,0,.22.09.62.62,0,0,1,.22.09l.51.11a2.87,2.87,0,0,0,.58.15l.59.11.55.06.55.06a3.57,3.57,0,0,1,.54,0Zm0-17.64a57.27,57.27,0,0,0,8.4.76,41.86,41.86,0,0,0,6.68-.4,16.68,16.68,0,0,0,4.57-1.26,3.55,3.55,0,0,0,2-1.83,1.69,1.69,0,0,0-.64-1.76A10.62,10.62,0,0,0,309.27,45a22.69,22.69,0,0,0-3-1.33q-1.58-.58-2.63-.85a21.39,21.39,0,0,0-3.45-.53c-1.25,1-2.75,2.34-4.47,3.89S292.27,49.4,290.54,51.15Zm9.27,15.21.2-.1.13-.08.13-.06-.45.19-.56.19a7.48,7.48,0,0,1-.73.23l-.36.11-.42.14-.48.12-.48.12-.53.13a2.26,2.26,0,0,1-.52.09,5.28,5.28,0,0,0-.53.14,2.31,2.31,0,0,1-.52.09,3,3,0,0,0-.54.09,2.92,2.92,0,0,1-.54.09l-.53,0-.53.05L292,68l-.48.07-.49,0h-.43a1.52,1.52,0,0,1-.41,0,.92.92,0,0,0-.36,0,1.18,1.18,0,0,1-.32,0,.7.7,0,0,0-.27,0h-.38l-.15,0,.15,0a1.38,1.38,0,0,0,.37,0,.69.69,0,0,1,.27,0,1.17,1.17,0,0,0,.32,0,5.82,5.82,0,0,0,.81,0h.43l.49,0,1,0,.54-.07a4.91,4.91,0,0,1,.54-.07,9.7,9.7,0,0,0,1.09-.18,3,3,0,0,0,.54-.09l.56-.13a2.28,2.28,0,0,0,.52-.09,5.39,5.39,0,0,1,.53-.13l.91-.3.45-.13a3,3,0,0,0,.4-.14l.68-.25ZM303.47,40,303,40h-.19l.59.15a4.56,4.56,0,0,1,1.23.32l1.29.35.53.14a.22.22,0,0,0-.11-.07,1.78,1.78,0,0,1-.4-.15l-.6-.23-.67-.2-.64-.17A4.24,4.24,0,0,0,303.47,40Zm1.21-.32-.18,0h-.12l-.12,0,.41.11.46.15.57.22.35.12.35.12a4.83,4.83,0,0,0,.8.31L308,41a5.91,5.91,0,0,1,.76.42,3,3,0,0,1,.76.45c.18.11.4.27.68.47l.33.26.28.24a2.45,2.45,0,0,1,.49.47,5.69,5.69,0,0,1,.67.71.27.27,0,0,0,.08.14l.1.1,0,.06,0-.06a.72.72,0,0,1-.12-.22l-.22-.32a3.35,3.35,0,0,0-.37-.45,2,2,0,0,0-.24-.26,2,2,0,0,1-.24-.25,3.55,3.55,0,0,0-.3-.25l-.3-.25A1.74,1.74,0,0,0,310,42a1.64,1.64,0,0,1-.34-.24l-.8-.51-.78-.38-.84-.39a2.54,2.54,0,0,0-.4-.16,1.55,1.55,0,0,1-.34-.14l-.4-.13-.35-.12Z"/><path d="M337.08,72.33c.22-.12.48,0,.76.31a4.68,4.68,0,0,1,.72,1.18,4.75,4.75,0,0,1,.37,1.36c.05.45,0,.73-.26.85-1.23.64-2.74,1.31-4.53,2A53.69,53.69,0,0,1,328.66,80,32.32,32.32,0,0,1,323.21,81a9.41,9.41,0,0,1-4.53-.46,3.88,3.88,0,0,1-1.47-1,4.79,4.79,0,0,1-.9-1.4,4.57,4.57,0,0,1-.35-1.47,2.28,2.28,0,0,1,.18-1.15,8.26,8.26,0,0,1,.9-1.19q.72-.83,1.84-2-1.89,1-3.67,1.79a34.82,34.82,0,0,1-3.4,1.37,15.4,15.4,0,0,1-3,.72,5.78,5.78,0,0,1-2.5-.18,3.85,3.85,0,0,1-1.22-.74A5.94,5.94,0,0,1,303.88,74a5.14,5.14,0,0,1-.72-1.78,3.49,3.49,0,0,1,.23-2,7.65,7.65,0,0,1,1.48-2c.82-.88,1.78-1.86,2.9-2.92s2.32-2.15,3.61-3.27,2.5-2.15,3.63-3.1,2.09-1.76,2.88-2.44a7.46,7.46,0,0,0,1.38-1.38.36.36,0,0,1,.48-.2,1.54,1.54,0,0,1,.63.5,7.62,7.62,0,0,1,.67,1,8.4,8.4,0,0,1,.57,1.17,6.78,6.78,0,0,1,.32,1.06,1.39,1.39,0,0,1,0,.69,5,5,0,0,1-1.18,1c-.73.54-1.62,1.22-2.65,2S316,64,314.8,64.94s-2.27,1.88-3.29,2.77-1.88,1.7-2.61,2.42a6.85,6.85,0,0,0-1.29,1.52,5.77,5.77,0,0,0,3.51-.38,44.48,44.48,0,0,0,5-2.13q2.73-1.34,5.68-3c2-1.09,3.79-2.09,5.46-3s3.09-1.64,4.24-2.21,1.83-.82,2-.74a1.84,1.84,0,0,1,1,.91,3.71,3.71,0,0,1,.34,1.28,4.16,4.16,0,0,1-.07,1.24,4.77,4.77,0,0,1-.25.85,14.85,14.85,0,0,1-1.23,1.06l-2.62,2.14q-1.53,1.25-3.24,2.72t-3.12,2.74q-1.41,1.27-2.26,2.14c-.56.58-.78.89-.65.95a6.58,6.58,0,0,0,2.91.37,18.51,18.51,0,0,0,3.75-.69,43.11,43.11,0,0,0,4.35-1.5Q334.71,73.49,337.08,72.33ZM306.25,67.8l.37-.37a4.42,4.42,0,0,1,.42-.35,5.09,5.09,0,0,1,.42-.44l.49-.47a3.41,3.41,0,0,0,.54-.43c.17-.16.36-.33.57-.51q.56-.47,1.11-1a14.06,14.06,0,0,1,1.18-1q.64-.53,1.23-1t1.16-1q.59-.5,1.07-1l.93-.87.82-.69a5.22,5.22,0,0,0,.6-.58.62.62,0,0,0,.22-.2.64.64,0,0,1,.15-.18.45.45,0,0,1,.17-.13l-.58.45c-.21.14-.44.32-.7.52s-.54.43-.86.66-.62.55-1,.85l-1.11.9a13.36,13.36,0,0,0-1.21,1q-.59.52-1.22,1L309.87,64l-1.15,1q-.5.49-1,1l-.89.92q-.78.86-1.23,1.41a.6.6,0,0,0-.19.24.36.36,0,0,1-.11.17.67.67,0,0,0-.1.15.34.34,0,0,1,.1-.15l.16-.14.23-.2a2.94,2.94,0,0,1,.23-.3Zm8.07,6.05.17-.08.11-.05.13,0-.39.14a2.72,2.72,0,0,0-.51.16,4.81,4.81,0,0,1-.64.21l-.32.12a2.11,2.11,0,0,1-.38.1l-.41.13-.41.13-.92.24-.92.24a1.66,1.66,0,0,0-.49.06,2.09,2.09,0,0,1-.44.08.49.49,0,0,1-.26,0,.49.49,0,0,0-.26,0h-.44a.33.33,0,0,1-.23,0,.55.55,0,0,0-.21,0H307l-.2-.07a.24.24,0,0,0-.13,0h-.08l-.4-.13-.17-.08-.17-.08a.48.48,0,0,0-.14-.09.46.46,0,0,1-.14-.09,1,1,0,0,1-.22-.16.32.32,0,0,1-.17-.15l-.13-.11-.13-.11a.17.17,0,0,0-.09-.07l.09.07.13.11a.73.73,0,0,1,.12.15l.17.15a1.24,1.24,0,0,0,.21.2l.27.18a1.4,1.4,0,0,0,.34.15l.4.13.2.06a.34.34,0,0,0,.21,0,2,2,0,0,0,.48.06,2,2,0,0,0,.43,0,2.29,2.29,0,0,1,.5,0,.48.48,0,0,1,.23,0,.49.49,0,0,0,.23,0,2.25,2.25,0,0,0,.52-.06,3,3,0,0,1,.47-.07l.48-.11.49-.11.41-.14.46-.12,1.55-.57.59-.23Zm-2.51-1.4a1.7,1.7,0,0,0-.38.12l-.27.12a.89.89,0,0,1-.24.05l.06,0s0,0,.18,0l.29-.09.35-.11.47-.12.48-.16.49-.18a5.14,5.14,0,0,0,.51-.22,10.93,10.93,0,0,0,1.85-.83l.32-.16.31-.12.23-.15-.21.11-.31.12-.32.16-.89.38-1,.43A16.08,16.08,0,0,1,311.81,72.45ZM322,69.38a.4.4,0,0,0,.19-.11.74.74,0,0,1,.14-.13.52.52,0,0,1,.15-.08.52.52,0,0,0-.15.08l-.16.1-.21.08-.57.32-.72.4-1.8,1q-.53.32-1.06.56c-.35.17-.72.35-1.1.55l-1.1.55c-.35.17-.7.33-1.06.48l-1,.47-.49.18a3.39,3.39,0,0,0-.44.19l-1.42.53a.83.83,0,0,1-.24.05l-.18,0c-.08,0-.12,0-.13,0s.05,0,.13,0l.18,0a.86.86,0,0,0,.24-.05,4.53,4.53,0,0,0,.63-.2,4,4,0,0,0,.83-.27,6.34,6.34,0,0,0,1-.3l1-.42,1.08-.52,1.1-.55A21.48,21.48,0,0,0,319,71.19c.34-.18.66-.37.95-.56l.82-.51.69-.41ZM328.11,68a3.23,3.23,0,0,0-.58.52l-.22.24.26-.18a1.3,1.3,0,0,0,.31-.23l.34-.31a4,4,0,0,1,.44-.32,2.73,2.73,0,0,0,.46-.35,3.57,3.57,0,0,1,.49-.43l.55-.41a3.45,3.45,0,0,1,.5-.43,5,5,0,0,0,.48-.39A7.34,7.34,0,0,1,332,65a2.84,2.84,0,0,0,.32-.29l.23-.24a1.13,1.13,0,0,1,.21-.2l-.26.17a1.35,1.35,0,0,0-.31.2l-.34.28-.42.32a4.33,4.33,0,0,0-.44.36l-.52.42-.52.42a3.67,3.67,0,0,1-.49.43,4.4,4.4,0,0,0-.48.39Q328.48,67.71,328.11,68Z"/><path d="M350.63,79.41c.17-.07.4.07.67.43a5.68,5.68,0,0,1,.73,1.31,5.83,5.83,0,0,1,.41,1.45c.06.46,0,.75-.28.88q-1.58.8-3.7,2A31.86,31.86,0,0,1,344,87.55a18.2,18.2,0,0,1-4.76,1.1,8.5,8.5,0,0,1-4.66-.92,7.15,7.15,0,0,1-1.79-1.38,9.62,9.62,0,0,1-1.6-2.14,9,9,0,0,1-.94-2.48,3.8,3.8,0,0,1,.25-2.45,11.34,11.34,0,0,1,2-2.77,44.2,44.2,0,0,1,3.6-3.43q2.12-1.82,4.69-3.69t5.28-3.61q2.7-1.74,5.27-3.24c1.71-1,3.26-1.88,4.62-2.62l3.32-1.8a10.25,10.25,0,0,0,1.32-.75c.17-.31.44-.36.81-.15a3.06,3.06,0,0,1,.61.67,9.62,9.62,0,0,1,.85,1.34,7.74,7.74,0,0,1,.63,1.58,1.68,1.68,0,0,1-.07,1.31A4.84,4.84,0,0,1,362,63l-3.3,1.74c-1.34.71-2.86,1.51-4.55,2.43s-3.4,1.9-5.14,3-3.45,2.15-5.15,3.29-3.24,2.27-4.63,3.4a43.1,43.1,0,0,0-3.58,3.21,10.74,10.74,0,0,0-2.07,2.71c-.26.53,0,1,.73,1.33a5.65,5.65,0,0,0,2.45.56,11.48,11.48,0,0,0,2.81-.33,20.66,20.66,0,0,0,3-1q1.51-.61,3-1.32t2.79-1.4Zm-15-4.3a3.31,3.31,0,0,1-.42.36,2,2,0,0,0-.31.27.6.6,0,0,0-.23.23q.48-.36,1-.83l1.15-.91L338.34,73a10.68,10.68,0,0,0,.89-.67q.42-.36.91-.7l1-.71c.33-.24.68-.51,1-.79l2.25-1.58q1.15-.8,2.34-1.57t2.4-1.55q1.19-.74,2.37-1.41l2.26-1.29q1.09-.61,2-1.16c.65-.35,1.24-.66,1.75-.95l1.3-.74,1.16-.67-1.19.6-1.4.68-1.78.88-2.09,1.1q-1.1.58-2.28,1.25l-2.39,1.4q-1.22.73-2.43,1.54t-2.34,1.63q-1.13.81-2.2,1.55l-1,.8-1,.77c-.34.26-.65.51-.93.74l-.84.69q-.83.67-1.44,1.23ZM334,81a3,3,0,0,0,.23-.28,1.33,1.33,0,0,1,.29-.3,6.16,6.16,0,0,1,.73-.77l.44-.4c.15-.14.31-.3.48-.48s.32-.3.49-.44l.56-.46q.54-.47,1.15-1l1.23-1q1.25-1,2.45-1.87l1.15-.82,1-.72.89-.6.69-.46a3.5,3.5,0,0,0,.61-.42l-.18.1a.64.64,0,0,0-.17.14.65.65,0,0,1-.24.15c-.37.21-.93.54-1.69,1l-1.07.71c-.38.25-.78.52-1.18.81l-1.24.88c-.42.3-.84.61-1.25.92s-.83.67-1.23,1-.79.63-1.16,1a6.79,6.79,0,0,1-.51.48q-.26.22-.49.44l-.45.49a5,5,0,0,1-.41.41,4.58,4.58,0,0,0-.39.42,2.13,2.13,0,0,1-.35.34,4,4,0,0,0-.25.34A2.7,2.7,0,0,0,334,81a2.19,2.19,0,0,0-.28.45l-.08.16.08-.16A2.19,2.19,0,0,1,334,81Zm23.08-19.29.73-.43.54-.33a3.7,3.7,0,0,0,.53-.31c-.14.09-.31.18-.51.27a5.33,5.33,0,0,1-.59.3c-.25.11-.51.25-.78.4l-1,.5-1,.54-1.07.57a10.78,10.78,0,0,0-1.11.65,18.26,18.26,0,0,0-2.11,1.27q-.49.29-1,.59l-.86.54q-.41.28-.7.5l-.51.4-.37.2a.28.28,0,0,0-.11.09,5.4,5.4,0,0,1,.49-.29l.54-.34q.34-.2.75-.48a7.59,7.59,0,0,0,.91-.52c.31-.2.62-.4,1-.59q1-.57,2.11-1.27l1.11-.6,1.07-.62,1-.55Q356.62,62,357.11,61.76Z"/><path d="M363.73,87.44c.18-.06.39.1.65.48a5.81,5.81,0,0,1,.65,1.36,5.9,5.9,0,0,1,.31,1.48c0,.46-.08.75-.34.86q-1.65.68-3.86,1.71a31.69,31.69,0,0,1-4.62,1.73,18.22,18.22,0,0,1-4.85.74A8.63,8.63,0,0,1,347,94.54,7.27,7.27,0,0,1,345.33,93a9.75,9.75,0,0,1-1.47-2.25,9.07,9.07,0,0,1-.77-2.54,3.78,3.78,0,0,1,.41-2.43,11.3,11.3,0,0,1,2.21-2.62A44.08,44.08,0,0,1,349.56,80q2.25-1.66,5-3.35t5.54-3.22q2.83-1.54,5.51-2.85t4.81-2.28l3.45-1.55a10.17,10.17,0,0,0,1.37-.66q.29-.44.82-.09a3.14,3.14,0,0,1,.57.71,9.92,9.92,0,0,1,.76,1.4,7.79,7.79,0,0,1,.52,1.62,1.68,1.68,0,0,1-.15,1.3,4.82,4.82,0,0,1-1.51.83l-3.43,1.49c-1.39.61-3,1.3-4.73,2.09s-3.55,1.64-5.36,2.57-3.61,1.89-5.39,2.91-3.41,2-4.88,3.05A42.58,42.58,0,0,0,348.61,87a10.68,10.68,0,0,0-2.26,2.56c-.29.51-.08,1,.64,1.39a5.75,5.75,0,0,0,2.43.74,11.52,11.52,0,0,0,2.85-.13,20.82,20.82,0,0,0,3.06-.74q1.56-.5,3.07-1.09t2.89-1.19ZM349,82a3.27,3.27,0,0,1-.44.33,2,2,0,0,0-.33.24.59.59,0,0,0-.25.21q.5-.32,1.07-.76l1.21-.83,1.56-1.08a11,11,0,0,0,.94-.6c.3-.22.62-.43,1-.63l1-.64q.53-.33,1.09-.71l2.36-1.41q1.21-.71,2.46-1.39t2.52-1.37q1.24-.66,2.47-1.24L368,71q1.14-.53,2.1-1l1.82-.82,1.35-.64,1.2-.58c-.35.16-.77.32-1.23.51l-1.46.58-1.85.75-2.17.94q-1.15.5-2.37,1.08t-2.5,1.22q-1.28.64-2.54,1.36t-2.45,1.45q-1.19.73-2.31,1.39l-1.06.73-1,.69q-.54.35-1,.67l-.89.63c-.59.41-1.09.79-1.53,1.13Zm-2,5.81a2.45,2.45,0,0,0,.25-.26,1.36,1.36,0,0,1,.31-.28,6.09,6.09,0,0,1,.79-.71l.47-.37.51-.44q.25-.21.52-.41l.59-.42q.57-.43,1.22-.87l1.29-.87q1.32-.91,2.59-1.68l1.21-.73,1.1-.64.94-.54.73-.41a3.42,3.42,0,0,0,.64-.38l-.19.09a.64.64,0,0,0-.18.12.65.65,0,0,1-.25.13c-.38.18-1,.47-1.76.88l-1.12.63q-.6.33-1.24.72l-1.3.79q-.67.4-1.31.83t-1.31.89q-.63.42-1.23.89a6.34,6.34,0,0,1-.55.44c-.18.13-.36.27-.52.41l-.49.46a5.16,5.16,0,0,1-.44.38,4.62,4.62,0,0,0-.42.39,2.07,2.07,0,0,1-.37.32,3.55,3.55,0,0,0-.28.32,2.63,2.63,0,0,0-.21.31,2.17,2.17,0,0,0-.31.43l-.09.15.09-.15A2.24,2.24,0,0,1,346.94,87.83Zm24.47-17.56.76-.37.56-.29a3.54,3.54,0,0,0,.55-.27,5.71,5.71,0,0,1-.53.23,5.44,5.44,0,0,1-.61.26q-.39.14-.81.34l-1,.42-1,.46c-.35.16-.72.32-1.11.49a9.89,9.89,0,0,0-1.16.57,18.19,18.19,0,0,0-2.2,1.11c-.34.17-.67.34-1,.52l-.9.48q-.43.25-.73.45l-.54.37-.39.18a.29.29,0,0,0-.12.08c.14-.08.31-.17.51-.26l.57-.3c.23-.12.49-.26.78-.42a7.62,7.62,0,0,0,.95-.45c.32-.18.65-.35,1-.52l2.2-1.11,1.16-.52,1.11-.54,1-.48C370.75,70.55,371.08,70.4,371.41,70.27Z"/><path d="M385.05,103.63a.84.84,0,0,1,1.07.34,3.23,3.23,0,0,1,.52,1.38,3.52,3.52,0,0,1-.1,1.55,1.23,1.23,0,0,1-.76.91,34.47,34.47,0,0,1-4.86.93,29.56,29.56,0,0,1-12.46-1.16,23.87,23.87,0,0,1-6.65-3.36l-.63-.37-.61-.4a6.75,6.75,0,0,1-1.95-2,5.2,5.2,0,0,1-.75-2.08A4.79,4.79,0,0,1,359,95.76a4.15,4.15,0,0,1,1.05-.93,1.86,1.86,0,0,1,.82-.27.72.72,0,0,1,.49.12c.1.08.12.16.08.24a2.49,2.49,0,0,0-.62,2,4.27,4.27,0,0,0,1,2,10.08,10.08,0,0,0,2.08,1.82,12.77,12.77,0,0,0,2.51,1.33,8.13,8.13,0,0,0,2.34.57,2,2,0,0,0,1.66-.48c.28-.3.22-.77-.17-1.4a17.75,17.75,0,0,0-1.68-2.18q-1.09-1.23-2.36-2.65a21.27,21.27,0,0,1-2.2-2.87,7.54,7.54,0,0,1-1.14-2.87,3.28,3.28,0,0,1,.81-2.68,5.4,5.4,0,0,1,2.53-1.66,11.89,11.89,0,0,1,3.46-.55,20.44,20.44,0,0,1,3.91.32,26.28,26.28,0,0,1,3.88,1A30.1,30.1,0,0,1,380.75,88a13,13,0,0,1,2.3,1.35,2.87,2.87,0,0,1,1.06,1.47,3.82,3.82,0,0,1,.09,1.7,5.2,5.2,0,0,1-.57,1.63,5.85,5.85,0,0,1-.88,1.24,3.82,3.82,0,0,1-1.35.83,12,12,0,0,1-1.8.56,11.82,11.82,0,0,1-1.62.26,1.67,1.67,0,0,1-.85,0l-.67-.52a11.76,11.76,0,0,1-.93-.8,5,5,0,0,1-.74-.86q-.29-.44-.06-.65a2.88,2.88,0,0,1,.93-.46l1.5-.52,1.51-.51a3,3,0,0,0,.94-.44c.07-.09-.15-.28-.66-.56a13.91,13.91,0,0,0-2.07-.87c-.87-.3-1.83-.59-2.9-.86a21.41,21.41,0,0,0-3.11-.56,13.68,13.68,0,0,0-2.72,0,2.38,2.38,0,0,0-1.71.74c-.05.07.15.35.61.85l1.69,1.86c.67.75,1.37,1.59,2.1,2.54a21.73,21.73,0,0,1,1.87,2.87,8.93,8.93,0,0,1,1,2.75,2.72,2.72,0,0,1-.49,2.21q-.3.38-.56.67c-.18.2-.35.38-.53.54a25,25,0,0,0,7.23.37A26.26,26.26,0,0,0,385.05,103.63Zm-19-17,.55-.19a3.25,3.25,0,0,1,.6-.15l1.39-.17a10.83,10.83,0,0,1,1.55,0l1.63.09a24.55,24.55,0,0,1,3.27.49q1.62.36,2.86.73l1.18.39c.34.11.63.22.86.32a1.17,1.17,0,0,1,.33.11,1.47,1.47,0,0,0,.26.11l.14.11s.06,0,.07,0l0,0a.16.16,0,0,0-.09,0,.15.15,0,0,1-.08,0,5.23,5.23,0,0,1-.56-.26c-.26-.12-.56-.25-.9-.37l-1.17-.4-1.37-.43a12.36,12.36,0,0,0-1.49-.35q-.84-.17-1.66-.3T371.73,86a16.72,16.72,0,0,0-3.21,0,5.12,5.12,0,0,0-.73.09l-.68.12a3.29,3.29,0,0,0-.6.15l-.55.19a2.24,2.24,0,0,0-.85.44l-.36.23a.38.38,0,0,1-.11.11.37.37,0,0,0-.11.11,1.89,1.89,0,0,0-.32.37l-.07.11.07-.11a.74.74,0,0,1,.13-.15l.23-.19a.74.74,0,0,1,.22-.22,2.89,2.89,0,0,0,.34-.2,1.54,1.54,0,0,1,.41-.2A2.91,2.91,0,0,1,366,86.6Zm.58.39.67-.1.74-.1c.26,0,.51-.06.76-.07a6.51,6.51,0,0,0,.68-.06,2.42,2.42,0,0,1,.47-.05h.22l-.2,0-.26,0h-.28l-1.47.06a4.66,4.66,0,0,0-1.36.35l-.44.13a.28.28,0,0,0-.12.08s.06,0,.07,0l.1,0c.1,0,.15,0,.17,0l.12,0Zm1.11,16.1a.87.87,0,0,0,.26,0,.17.17,0,0,1,.12,0l-.35-.09-.43-.16a2.41,2.41,0,0,1-.5-.16l-.62-.27-.67-.3-.72-.42-.72-.41-.67-.48a1.69,1.69,0,0,1-.63-.45,3.47,3.47,0,0,1-.32-.26l-.28-.22a1.29,1.29,0,0,0-.24-.22,1.27,1.27,0,0,1-.24-.22,1.17,1.17,0,0,0-.22-.21.65.65,0,0,1-.18-.18q-.22-.26-.29-.36l-.2-.3,0,.07a1.35,1.35,0,0,0,.15.26l.12.16.12.16a1.13,1.13,0,0,0,.19.21,1.19,1.19,0,0,1,.19.21l.51.52a1.39,1.39,0,0,0,.27.24,1.41,1.41,0,0,1,.27.24l.67.48.67.48.74.43a6.8,6.8,0,0,0,.72.36l.36.16.36.16a2.57,2.57,0,0,0,.59.22l.3.11.25.08Z"/></svg>