<svg id="Clippers" xmlns="http://www.w3.org/2000/svg" viewBox="0 0 512 512"><defs><style>.cls-1{opacity:0.5;}.cls-2{fill:#fff;}.cls-3{fill:#841717;}.cls-4{fill:#cc8217;}</style></defs><title>Clippers</title><g class="cls-1"><ellipse class="cls-2" cx="256" cy="256" rx="242.51" ry="244.7"/><path class="cls-3" d="M256,503.34c-65.48,0-127-25.73-173.35-72.45a248.9,248.9,0,0,1,0-349.77C129,34.4,190.52,8.66,256,8.66S383,34.4,429.35,81.12a248.9,248.9,0,0,1,0,349.77C383,477.6,321.48,503.34,256,503.34Zm0-489.4A237.21,237.21,0,0,0,86.4,84.83a243.63,243.63,0,0,0,0,342.35,238.34,238.34,0,0,0,339.21,0,243.63,243.63,0,0,0,0-342.35A237.21,237.21,0,0,0,256,13.94Z"/></g><g class="cls-1"><ellipse class="cls-2" cx="254.73" cy="256.04" rx="169.5" ry="169.09"/><path class="cls-3" d="M254.73,427.15c-94.58,0-171.52-76.76-171.52-171.11S160.15,84.92,254.73,84.92,426.25,161.68,426.25,256,349.31,427.15,254.73,427.15Zm0-338.19C162.38,89,87.25,163.91,87.25,256s75.13,167.07,167.48,167.07S422.21,348.16,422.21,256,347.08,89,254.73,89Z"/></g><g class="cls-1"><ellipse class="cls-4" cx="251.5" cy="257.13" rx="147.98" ry="153.11"/><path class="cls-3" d="M251.5,410.53c-81.76,0-148.27-68.82-148.27-153.4s66.51-153.4,148.27-153.4,148.27,68.82,148.27,153.4S333.26,410.53,251.5,410.53Zm0-306.22c-81.43,0-147.69,68.55-147.69,152.82S170.06,409.95,251.5,409.95,399.18,341.4,399.18,257.13,332.93,104.31,251.5,104.31Z"/></g><rect class="cls-3" x="103.52" y="255.08" width="295.96" height="4.1"/><rect class="cls-3" x="252.01" y="105.22" width="2.34" height="306.22"/><path class="cls-3" d="M353.24,370.86c-33.37-9.38-57.17-47.89-60.62-98.13-1.82-26.4,2.52-53,12.23-74.84,10.9-24.56,28.14-42.54,49.85-52l1.17,2.68c-21,9.17-37.74,26.64-48.34,50.52-9.51,21.43-13.77,47.52-12,73.45,3.37,49,26.33,86.47,58.49,95.51Z"/><path class="cls-3" d="M150.13,370.86l-.79-2.82c32.16-9,55.12-46.53,58.49-95.51,1.79-25.93-2.47-52-12-73.45-10.6-23.88-27.31-41.35-48.34-50.52l1.17-2.68c21.71,9.47,38.95,27.46,49.85,52,9.7,21.86,14,48.44,12.23,74.84C207.29,323,183.5,361.49,150.13,370.86Z"/><path d="M145.45,96.12q.14,0,.43.57a7.89,7.89,0,0,1,.51,1.25,9.18,9.18,0,0,1,.32,1.3c.07.4,0,.64-.13.74l-1,.59-2.18,1.31q-1.32.81-3,1.91t-3.35,2.35q-1.7,1.24-3.37,2.62t-3,2.67q-.41.44-.74.77l-.64.63s0,0,0,.07l-.13.1a1.65,1.65,0,0,1-1.33.53,9.29,9.29,0,0,1-1.75.47,1.27,1.27,0,0,1-1.23-.25,8.72,8.72,0,0,1-.57-1.82c-.28-1.11-.6-2.52-.94-4.26s-.7-3.7-1.06-5.91-.69-4.48-1-6.82-.51-4.63-.68-6.89-.28-4.28-.36-6.07-.09-3.26-.07-4.39.11-1.75.25-1.84a2.42,2.42,0,0,1,1.3-.4,10.27,10.27,0,0,1,1.52,0,9.83,9.83,0,0,1,1.83.35,80.19,80.19,0,0,0-.05,8.53q.2,4.54.74,9t1.25,8.3c.47,2.59.91,4.8,1.29,6.63.9-.76,1.95-1.6,3.13-2.51s2.39-1.82,3.64-2.72,2.48-1.78,3.7-2.61,2.32-1.56,3.28-2.18,1.75-1.11,2.36-1.47A6.07,6.07,0,0,1,145.45,96.12Zm-22.16,7.14q0-.42-.12-1c-.05-.37-.12-.79-.19-1.25s-.14-1-.21-1.52-.13-1.13-.21-1.73-.13-1.18-.2-1.79-.16-1.23-.25-1.87-.17-1.26-.24-1.89-.13-1.23-.18-1.82-.1-1.16-.16-1.72-.12-1.07-.17-1.55-.1-.9-.15-1.28a9,9,0,0,1-.09-1c0-.33-.07-.55-.09-.64a1.36,1.36,0,0,1,0-.25,1.36,1.36,0,0,0,0,.25c0,.07,0,.16,0,.27s0,.23,0,.38a6.68,6.68,0,0,0,0,1q0,.57.07,1.32t.11,1.57q.08.82.15,1.7t.16,1.84q.09,1,.22,1.91t.26,1.88c.08.62.16,1.22.22,1.81s.14,1.15.25,1.68.19,1,.27,1.5a12.33,12.33,0,0,0,.26,1.25,6.18,6.18,0,0,1,.19,1,1.49,1.49,0,0,0,.11.36.68.68,0,0,1,.07.22,1.58,1.58,0,0,1,0,.24,1.6,1.6,0,0,0,0-.24A5.07,5.07,0,0,1,123.28,103.26Zm-.59-8.76a4.32,4.32,0,0,1-.1-.56c0-.19,0-.35,0-.49a1.5,1.5,0,0,0-.07-.39l0,.42,0,.48,0,.58a3.15,3.15,0,0,1,.12.69c0,.25,0,.51.05.79s.1.53.14.81.09.57.13.88.05.56.1.84.1.55.15.8a7.74,7.74,0,0,0,.1.79c0,.24.09.48.12.72a4.77,4.77,0,0,1,.15.56c0,.16.05.31.07.45a1.47,1.47,0,0,0,.08.38l0-.42c0-.14,0-.28-.05-.44l-.09-.58c0-.23-.07-.47-.09-.72a6.26,6.26,0,0,0-.11-.75q0-.42-.1-.84t-.13-.88q-.12-.91-.27-1.68A9,9,0,0,0,122.69,94.5Zm13.38,11.09a.92.92,0,0,0,.29-.16l.74-.54a3.74,3.74,0,0,0,.51-.31l.57-.41a6.57,6.57,0,0,0,.62-.39l.64-.45.62-.43a5.11,5.11,0,0,1,.6-.36l.56-.42.52-.38,1-.7a.92.92,0,0,0-.29.14l-.33.23a3.23,3.23,0,0,1-.45.25l-.51.35a6.44,6.44,0,0,1-.62.38l-.58.4a6.75,6.75,0,0,1-.64.4l-1.23.88-1.05.76c-.15.11-.28.21-.4.32l-.31.26Zm9.36-5.6a1.9,1.9,0,0,1-.34.17,1.71,1.71,0,0,0-.38.2,3.23,3.23,0,0,1-.47.26,3.8,3.8,0,0,0-.54.31,6.44,6.44,0,0,1-.63.37l-.67.45a8.06,8.06,0,0,1-.69.42l-1.28.89-1.15.81c-.18.13-.33.24-.45.35l-.32.25-.31.22.31-.22.34-.22c.14-.08.3-.19.47-.31l.52-.34.65-.43.63-.41.68-.44Q143.62,101.13,145.44,100Z"/><path d="M155.42,87.56a1.81,1.81,0,0,1,.84-.06,8.72,8.72,0,0,1,1.35.22,10.43,10.43,0,0,1,1.28.39,1.33,1.33,0,0,1,.67.41,2.25,2.25,0,0,1,.1.87,11,11,0,0,1-.12,1.43q-.11.76-.24,1.4c-.09.43-.18.67-.27.72a2,2,0,0,1-.7.08c-.38,0-.78,0-1.22,0a9.75,9.75,0,0,1-1.2-.13c-.36-.06-.57-.15-.63-.25a3.45,3.45,0,0,1-.17-.91c-.06-.5-.1-1-.11-1.63a12.16,12.16,0,0,1,.06-1.62C155.11,88,155.23,87.66,155.42,87.56Z"/><path d="M190.6,42.51c.16,0,.4,0,.74.28a8.93,8.93,0,0,1,1,.8,8.4,8.4,0,0,1,.87.93,2.47,2.47,0,0,1,.42.64,14.81,14.81,0,0,1-.4,1.67c-.28,1.06-.65,2.42-1.1,4.1s-.95,3.58-1.47,5.71-1,4.3-1.54,6.51-1,4.38-1.41,6.51-.8,4-1.11,5.67-.57,3-.78,4a4.44,4.44,0,0,1-.46,1.59,2,2,0,0,1-.9,0,11.79,11.79,0,0,1-1.36-.37,11.5,11.5,0,0,1-1.28-.5c-.39-.18-.6-.33-.64-.44a5.72,5.72,0,0,1,.08-.76c.06-.48.16-1.11.28-1.89s.28-1.7.47-2.77.39-2.2.63-3.4q-1.53.59-3.25,1.33t-3.45,1.57q-1.74.83-3.45,1.71l-3.26,1.71c-.74,1.86-1.35,3.56-1.85,5.08s-.9,2.83-1.2,3.92-.53,1.94-.71,2.54-.3.93-.39,1a1.53,1.53,0,0,1-.85,0,7,7,0,0,1-1.28-.36,9,9,0,0,1-1.21-.56,1.7,1.7,0,0,1-.69-.58,4.91,4.91,0,0,1,.23-2.39,45.89,45.89,0,0,1,1.51-4.92l-.83.48-.36.2s-.15-.15-.32-.4-.35-.56-.53-.89a10.56,10.56,0,0,1-.48-1,.9.9,0,0,1-.11-.66,8.82,8.82,0,0,1,1.36-1c.87-.6,2-1.34,3.47-2.2.9-2.06,1.94-4.23,3.14-6.51s2.49-4.54,3.88-6.77,2.85-4.4,4.36-6.5,3-4,4.51-5.71a54.92,54.92,0,0,1,4.27-4.4,17.42,17.42,0,0,1,3.59-2.65.65.65,0,0,1,.58,0,.14.14,0,0,1,0,.17,2.41,2.41,0,0,0,.4-.16A5.1,5.1,0,0,1,190.6,42.51ZM171.26,65q.52-.87,1.09-1.78t1.17-1.8l2.38-3.57q1.15-1.73,2.11-3.13.46-.67.86-1.23c.27-.37.51-.69.72-.94l.6-.85-.19.2a4.16,4.16,0,0,0-.5.58q-.3.43-.75,1a13.87,13.87,0,0,0-.91,1.2c-.34.46-.71.95-1.11,1.47s-.79,1.06-1.16,1.64-.76,1.16-1.17,1.75-.82,1.19-1.25,1.79Q172,63.13,170.93,65l-.5.84c-.16.27-.3.54-.44.82s-.27.54-.42.79-.27.49-.38.73-.26.48-.36.68-.21.41-.33.62a7.35,7.35,0,0,1-.44,1l-.36.87a.72.72,0,0,1,.09-.23,3,3,0,0,1,.16-.26,1.72,1.72,0,0,0,.18-.37q.62-1.13,1.26-2.26Q170.32,66.61,171.26,65Zm12.31,1.23q.65-2.91,1.38-5.85c.48-2,.94-3.74,1.34-5.33s.74-2.9,1-3.93a6.88,6.88,0,0,0,.32-1.74,80.59,80.59,0,0,0-9.65,11.46,82.13,82.13,0,0,0-6.31,10.76q3-1.59,6.15-3C179.86,67.71,181.8,66.92,183.57,66.25Zm-5.64,3.1,1.38-.61,1.23-.54,1.23-.53-.37.13-.89.32-1.26.46a5.64,5.64,0,0,1-.66.29,6.75,6.75,0,0,0-.72.32l-.73.35-.69.29c-.2.11-.41.21-.63.31s-.41.2-.57.29l-.47.26-.38.17a1.92,1.92,0,0,1-.29.16l.36-.14.39-.15a3.49,3.49,0,0,0,.48-.24l.56-.24.67-.28c.2-.11.41-.21.65-.32ZM185.61,47c.36-.35.67-.68.94-1s.5-.57.69-.77a8.15,8.15,0,0,1,.64-.64l-.21.15a1.44,1.44,0,0,1-.22.22l-.28.24-.79.76-1,1q-.54.53-1.13,1.15t-1.2,1.32q-.66.72-1.3,1.45l-1.28,1.46q-.31.38-.59.76t-.58.8l-.59.74c-.19.24-.37.48-.53.72l-.49.73q-.25.37-.5.69l-.38.67c-.13.22-.26.43-.4.63q-.4.61-.69,1.09t-.47.83a1.47,1.47,0,0,0-.16.32,1.13,1.13,0,0,1-.12.26l-.12.18.12-.18.35-.55a1.67,1.67,0,0,0,.24-.35,3.27,3.27,0,0,1,.32-.47c.11-.16.22-.33.35-.5s.25-.36.39-.56.28-.41.43-.62a6.1,6.1,0,0,0,.42-.66l.51-.67.56-.73c.17-.24.34-.48.53-.72l.59-.74,1.19-1.51,1.24-1.49q.61-.73,1.27-1.44l1.16-1.33Zm-1.19,31.37a.29.29,0,0,1,0-.14.8.8,0,0,0,0-.19.69.69,0,0,1,0-.25,4.13,4.13,0,0,0,.12-.6c0-.23.06-.47.08-.73s0-.5,0-.74,0-.45,0-.64a.72.72,0,0,0,0-.21.69.69,0,0,1,0-.21.34.34,0,0,0,0-.18l0,.2,0,.2a1.43,1.43,0,0,0,0,.24,4.21,4.21,0,0,0-.13.6c0,.23-.06.47-.08.73s0,.5,0,.74,0,.44,0,.6a2.21,2.21,0,0,0,0,.45A.3.3,0,0,0,184.42,78.33Zm2.74-12.21c0-.07,0-.14,0-.22a2.16,2.16,0,0,1,0-.22.3.3,0,0,0,0-.14l-.16.6c-.11.37-.24.88-.38,1.51-.08.34-.16.68-.24,1s-.15.72-.21,1.11-.14.79-.23,1.21-.16.83-.21,1.25-.11.83-.17,1.24-.13.81-.18,1.2-.1.76-.15,1.12-.09.7-.12,1a7.55,7.55,0,0,0-.13.89c0,.26,0,.47-.06.63s0,.33,0,.43a.3.3,0,0,0,0,.14.29.29,0,0,1,0-.14,1.24,1.24,0,0,1,0-.18l.08-.24q0-.24.11-.64t.2-.86a17.82,17.82,0,0,1,.38-2.13q.08-.59.18-1.2t.23-1.26q.07-.63.18-1.24c.07-.41.14-.81.2-1.2s.12-.77.17-1.14.1-.7.16-1,.09-.61.12-.87S187.15,66.31,187.17,66.12Zm-5.87-15.83a3.25,3.25,0,0,0-.27.32l-.17.24-.17.24.19-.2.2-.25.3-.33.71-.74c.25-.27.51-.56.79-.9a4,4,0,0,0,.43-.44c.12-.15.25-.28.38-.42a4.1,4.1,0,0,0,.41-.4,4.05,4.05,0,0,1,.31-.33,2.46,2.46,0,0,0,.33-.28l.21-.25a.19.19,0,0,1,.07-.07.19.19,0,0,0,.07-.07s.05,0,0-.06a.81.81,0,0,1-.21.15,1.24,1.24,0,0,1-.25.24l-.36.27a4,4,0,0,0-.38.32l-.42.38a4.52,4.52,0,0,1-.37.44q-.19.2-.44.42l-.42.48-.37.42c-.12.16-.23.31-.34.43S181.38,50.17,181.29,50.29Z"/><path d="M241.47,53.58a1,1,0,0,1,.79-.56,2.94,2.94,0,0,1,1.34,0,2.41,2.41,0,0,1,1.19.63,1.23,1.23,0,0,1,.28,1.27,8.48,8.48,0,0,1-1.33,2.74A29.54,29.54,0,0,1,241.07,61a44.79,44.79,0,0,1-3.6,3.49,41.46,41.46,0,0,1-4.23,3.24,30.94,30.94,0,0,1-4.56,2.55A17.07,17.07,0,0,1,224,71.64a6.32,6.32,0,0,1-2.78-.37A12.31,12.31,0,0,1,218,69.66,13.4,13.4,0,0,1,215.2,67a7.5,7.5,0,0,1-1.6-3.39,13.66,13.66,0,0,1,.14-4.89,31.89,31.89,0,0,1,1.75-6,41.66,41.66,0,0,1,3.1-6.22A35.87,35.87,0,0,1,222.75,41a25.13,25.13,0,0,1,4.73-4.11,10.1,10.1,0,0,1,4.71-1.79,4.58,4.58,0,0,1,2.23.45,10.06,10.06,0,0,1,2.21,1.36,8.3,8.3,0,0,1,1.69,1.84,3.78,3.78,0,0,1,.72,1.85,10.26,10.26,0,0,1-.38,2.92q-.44,1.74-1,3.33a23.67,23.67,0,0,1-1.15,2.73c-.39.76-.67,1.14-.86,1.16a2.31,2.31,0,0,1-.92-.27q-.65-.28-1.33-.65a10.63,10.63,0,0,1-1.23-.76c-.37-.26-.56-.48-.57-.66a3.35,3.35,0,0,1,.32-1l.8-1.92q.46-1.12.93-2.34a16.15,16.15,0,0,0,.69-2.25,3.41,3.41,0,0,0,0-1.68c-.13-.43-.47-.63-1-.59a5.74,5.74,0,0,0-3,1.56A29.06,29.06,0,0,0,226.7,44,44,44,0,0,0,223,49.24,52.2,52.2,0,0,0,220,55a32.09,32.09,0,0,0-1.88,5.46,11,11,0,0,0-.33,4.21q.14.87.29,1.62a2.79,2.79,0,0,0,.55,1.25,2.2,2.2,0,0,0,1.18.7,5.4,5.4,0,0,0,2.12,0,18.87,18.87,0,0,0,4.76-1.34,28.25,28.25,0,0,0,4.31-2.3,35.35,35.35,0,0,0,3.82-2.86A34.55,34.55,0,0,0,238,58.74a25.3,25.3,0,0,0,2.26-2.87A9.81,9.81,0,0,0,241.47,53.58Zm-26.57,5.83a3.31,3.31,0,0,0,.11-.51c0-.18.06-.37.1-.55l.13-.56c0-.19.08-.39.12-.6q.32-1.08.75-2.31c.08-.22.16-.43.24-.62s.16-.4.24-.62l.25-.57c.08-.19.17-.4.25-.62q.56-1.2,1.17-2.33t1.27-2.25c.22-.36.43-.71.64-1.07l.6-1q.34-.53.64-1l.6-.87,1.09-1.51q.48-.68.9-1.17t.63-.74a2.08,2.08,0,0,0,.21-.29l-.27.25a3,3,0,0,0-.27.3l-.37.44-1,1.16q-.54.66-1.15,1.5-.31.39-.63.86l-.67,1q-.35.49-.68,1c-.23.34-.45.69-.67,1a33.8,33.8,0,0,0-2.43,4.63,18.44,18.44,0,0,0-1,2.43l-.37,1.2L215,57.16c0,.22-.08.41-.12.6l-.13.56-.14,1.1-.07.55a.41.41,0,0,0,0,.23.7.7,0,0,1,0,.27.63.63,0,0,0,0,.25.66.66,0,0,1,0,.25.62.62,0,0,0,0,.25.66.66,0,0,1,0,.25,1.17,1.17,0,0,1,0,.22,1.1,1.1,0,0,0,0,.22,1.25,1.25,0,0,1,0,.44,2.6,2.6,0,0,1,0,.39,1,1,0,0,0,.1.38l.12.69a1.81,1.81,0,0,0,.08.32,1.66,1.66,0,0,1,.08.28c0,.11.05.18.09.21l0,.26a1.63,1.63,0,0,1,.16.28.26.26,0,0,0,0,.13.16.16,0,0,1,0,.08l0,.09,0-.09a.17.17,0,0,0,0-.08.26.26,0,0,1,0-.13,1.24,1.24,0,0,0-.11-.34l-.08-.43a2.68,2.68,0,0,1-.16-.6l-.12-.69a2.64,2.64,0,0,1,0-.37,3.85,3.85,0,0,1,0-.42.81.81,0,0,1,0-.2,1,1,0,0,0,0-.24.37.37,0,0,0,0-.2.63.63,0,0,1,0-.25,1,1,0,0,1,0-.22,1.21,1.21,0,0,0,0-.22,1.81,1.81,0,0,0,0-.25,1.68,1.68,0,0,1,0-.25.66.66,0,0,0,0-.25.62.62,0,0,1,0-.25Zm1-.88c.06-.31.13-.62.21-.95a8,8,0,0,1,.31-1c.09-.34.19-.67.29-1l.3-.94a9.54,9.54,0,0,0,.34-.9,7.45,7.45,0,0,1,.3-.8l.51-1.15.22-.48c-.06.13-.13.27-.22.43a2.64,2.64,0,0,1-.26.53,5.33,5.33,0,0,0-.35.68q-.17.38-.33.79t-.37.88l-.3.94q-.15.47-.35,1-.28,1-.46,1.95a2,2,0,0,0-.09.46l0,.45a1.34,1.34,0,0,0-.07.41c0,.12,0,.25,0,.4s0,.5-.05.68a2.22,2.22,0,0,0,0,.53,1.18,1.18,0,0,0,0,.36l0,.13,0-.13a1.17,1.17,0,0,1,0-.36.42.42,0,0,0,0-.23.67.67,0,0,1,0-.27c0-.12,0-.24.05-.34s0-.22.05-.34,0-.29,0-.41,0-.26,0-.41a2.17,2.17,0,0,0,.09-.46A2.07,2.07,0,0,1,215.86,58.53Z"/><path d="M255.18,55.05c.11-.14.37-.12.77.07a5.45,5.45,0,0,1,1.21.81,5.74,5.74,0,0,1,1,1.09c.26.38.31.68.15.91q-1,1.45-2.26,3.5a31.78,31.78,0,0,1-2.88,3.93,17.7,17.7,0,0,1-3.56,3.2,8,8,0,0,1-4.4,1.38,6.75,6.75,0,0,1-2.17-.37,9.24,9.24,0,0,1-2.35-1.13,8.92,8.92,0,0,1-1.94-1.75,3.88,3.88,0,0,1-.92-2.28,11.59,11.59,0,0,1,.46-3.39,44.26,44.26,0,0,1,1.52-4.72q1-2.6,2.34-5.46T245,45.16q1.53-2.8,3.05-5.34t2.78-4.48c.83-1.3,1.52-2.35,2-3.14a10.38,10.38,0,0,0,.79-1.28c0-.35.22-.52.63-.52a2.94,2.94,0,0,1,.83.3,9.33,9.33,0,0,1,1.34.78,7.56,7.56,0,0,1,1.26,1.1,1.7,1.7,0,0,1,.54,1.19,5,5,0,0,1-.81,1.51l-2,3.09c-.83,1.25-1.77,2.68-2.8,4.28s-2.06,3.27-3.07,5-2,3.52-2.92,5.32-1.74,3.53-2.42,5.18a43.5,43.5,0,0,0-1.6,4.52,11,11,0,0,0-.53,3.36c0,.59.43.86,1.23.83a5.35,5.35,0,0,0,2.36-.66,11.07,11.07,0,0,0,2.26-1.62A20.41,20.41,0,0,0,250,62.34q1-1.25,1.94-2.56t1.75-2.54Zm-14.8,3.23a3.42,3.42,0,0,1-.19.51,2.18,2.18,0,0,0-.14.38.61.61,0,0,0-.09.31q.24-.54.48-1.21l.57-1.34c.22-.51.46-1.09.73-1.74a11.06,11.06,0,0,0,.46-1q.2-.51.46-1l.52-1.09q.26-.56.53-1.18.59-1.2,1.21-2.45t1.3-2.49q.67-1.28,1.36-2.5T249,41.06l1.36-2.2c.44-.7.84-1.36,1.21-2s.76-1.16,1.07-1.66l.78-1.26.69-1.13c-.21.32-.46.68-.75,1.09l-.9,1.26-1.13,1.62-1.29,2q-.69,1-1.39,2.18t-1.42,2.36q-.72,1.22-1.38,2.5t-1.26,2.53q-.6,1.25-1.18,2.41l-.5,1.18c-.15.37-.32.75-.49,1.14s-.33.75-.46,1.09l-.4,1c-.27.66-.49,1.24-.67,1.76S240.5,57.9,240.38,58.28Zm1.32,6a2.81,2.81,0,0,0,.06-.35,1.42,1.42,0,0,1,.12-.4,6.23,6.23,0,0,1,.28-1l.19-.56q.1-.29.19-.64c.06-.21.14-.42.22-.62L243,60q.25-.67.55-1.38l.61-1.42q.61-1.47,1.25-2.8l.61-1.26.57-1.13.49-1,.39-.73a3.5,3.5,0,0,0,.33-.66l-.11.18a.68.68,0,0,0-.08.2.64.64,0,0,1-.14.24c-.22.35-.55.91-1,1.68q-.27.53-.59,1.13t-.64,1.27l-.66,1.36c-.23.46-.44.93-.65,1.4s-.41,1-.61,1.45-.39.93-.55,1.4a6.44,6.44,0,0,1-.22.67c-.08.21-.16.42-.22.62s-.12.45-.16.64a5.68,5.68,0,0,1-.17.56,4.73,4.73,0,0,0-.14.55,2.16,2.16,0,0,1-.14.47,4.1,4.1,0,0,0-.06.42,2.82,2.82,0,0,0,0,.37,2.24,2.24,0,0,0,0,.53v0A2.23,2.23,0,0,1,241.69,64.29Zm11-27.87c.16-.26.31-.5.43-.72l.31-.54a3.78,3.78,0,0,0,.31-.52c-.08.15-.19.3-.31.48a5.67,5.67,0,0,1-.37.54q-.25.33-.49.72l-.61.89-.61.94c-.2.32-.42.66-.66,1a10.73,10.73,0,0,0-.66,1.1,18.1,18.1,0,0,0-1.23,2.11c-.2.32-.38.65-.55,1l-.49.88q-.23.44-.37.77l-.25.6-.23.35a.29.29,0,0,0-.06.13c.07-.15.17-.31.28-.49s.18-.33.31-.55.27-.48.43-.77a7.7,7.7,0,0,0,.55-.88c.17-.32.36-.65.55-1q.58-1,1.23-2.11.36-.53.69-1.05c.22-.35.43-.7.63-1.05l.58-.94C252.31,37,252.5,36.72,252.7,36.42Z"/><path d="M268.6,55.66c.12-.13.35-.15.67,0a2.81,2.81,0,0,1,1,.58,4.13,4.13,0,0,1,.86,1.08,2.22,2.22,0,0,1,.3,1.36,4.17,4.17,0,0,1-.73,1.51,22.2,22.2,0,0,1-1.8,2.31q-1.12,1.28-2.56,2.64a24.67,24.67,0,0,1-3.05,2.45,18.45,18.45,0,0,1-3.3,1.8,7.83,7.83,0,0,1-3.32.65,4.69,4.69,0,0,1-1.45-.4,10.3,10.3,0,0,1-1.88-1,9.41,9.41,0,0,1-1.66-1.41,2.38,2.38,0,0,1-.72-1.65,9.27,9.27,0,0,1,.6-2.72,35.88,35.88,0,0,1,1.58-3.8q1-2,2.14-4.17c.77-1.42,1.52-2.69,2.21-3.84s1.32-2.1,1.85-2.85.84-1.17.92-1.25c.24-.19.57-.18,1,.05a4.87,4.87,0,0,1,1.24,1,7.32,7.32,0,0,1,1,1.34,2.21,2.21,0,0,1,.38,1.19,7.34,7.34,0,0,1-.74,1.38c-.48.81-1.08,1.77-1.77,2.89s-1.42,2.32-2.16,3.61-1.41,2.47-2,3.57a28.83,28.83,0,0,0-1.29,2.72c-.29.72-.3,1.09-.06,1.1a7.14,7.14,0,0,0,3.88-1,18.32,18.32,0,0,0,3.48-2.63,33.19,33.19,0,0,0,3-3.32C267.17,57.57,268,56.54,268.6,55.66ZM251.94,63.6a7.38,7.38,0,0,1,.33-.74l.38-.83.5-1.09a5.62,5.62,0,0,1,.28-.63,4.64,4.64,0,0,0,.28-.68l.34-.7a6.8,6.8,0,0,1,.4-.69q.34-.74.75-1.52t.87-1.56l.83-1.56q.41-.78.84-1.51a5.66,5.66,0,0,0,.33-.51l.15-.3.12-.28a3.89,3.89,0,0,1,.24-.45q.36-.6.61-1.07l.44-.82a2.12,2.12,0,0,0,.18-.3,1.46,1.46,0,0,1,.13-.21,1.61,1.61,0,0,1,.12-.21H260l-.49.68q-.24.34-.52.81t-.64,1q-.73,1.16-1.29,2.08c-.38.62-.84,1.44-1.39,2.48s-1.11,2.07-1.58,3.08-.88,1.95-1.21,2.79q-.22.61-.42,1.11c-.13.34-.23.62-.3.85a.88.88,0,0,0-.11.35.42.42,0,0,1-.06.22A.61.61,0,0,0,251.94,63.6Zm2.58-4.13.2-.52c.06-.14.13-.29.2-.43a1.33,1.33,0,0,0,.17-.39,1.48,1.48,0,0,1-.17.35l-.25.41a3.55,3.55,0,0,0-.26.54c-.23.4-.45.84-.67,1.3l-.67,1.57-.33.79a7,7,0,0,0-.28.79l-.22.7a5.26,5.26,0,0,0-.17.7,1.71,1.71,0,0,0-.11.55v.46a.33.33,0,0,0,.1.26.12.12,0,0,0,.05.09.12.12,0,0,1-.05-.09s-.05-.12,0-.26a4.22,4.22,0,0,1,.17-1c.07-.2.15-.42.22-.66l.22-.7.66-1.57a6.94,6.94,0,0,1,.28-.79c.11-.26.22-.51.34-.74s.23-.5.34-.72A5.87,5.87,0,0,0,254.52,59.47ZM265.4,45.35a1.38,1.38,0,0,1-.7-.36,7.86,7.86,0,0,1-.82-.78,5.21,5.21,0,0,1-.68-.9,2.6,2.6,0,0,1-.31-.68,4.29,4.29,0,0,1,.49-1.18,16.1,16.1,0,0,1,1.16-1.91A14.93,14.93,0,0,1,266,37.78c.5-.52.89-.77,1.17-.75a2.19,2.19,0,0,1,1.13.58,9.58,9.58,0,0,1,1.19,1.18,14,14,0,0,1,.94,1.23,1.77,1.77,0,0,1,.38.76c0,.12-.26.42-.74.9s-1,1-1.67,1.55-1.24,1-1.82,1.48S265.59,45.37,265.4,45.35Zm-1.68,18.86.37-.28.43-.37a4.23,4.23,0,0,0,.4-.41,4,4,0,0,1,.41-.41,4.28,4.28,0,0,0,.41-.41l.36-.41.36-.41c.12-.14.22-.26.3-.37a3.43,3.43,0,0,0,.22-.33.72.72,0,0,1,.21-.25,1.38,1.38,0,0,1,.13-.21l-.18.21a1.18,1.18,0,0,0-.24.22l-.24.31a8.91,8.91,0,0,0-.71.74l-.35.41a4.35,4.35,0,0,1-.41.41,3.84,3.84,0,0,0-.41.41,4.3,4.3,0,0,1-.4.41,2.66,2.66,0,0,1-.37.37l-.37.33-.51.49a.55.55,0,0,1-.22.16l.22-.16A2.12,2.12,0,0,0,263.72,64.21Zm4.66-4.38.23-.38a1.4,1.4,0,0,1,.22-.29l.19-.25-.19.25-.27.26a1.69,1.69,0,0,0-.28.35,2.72,2.72,0,0,1-.34.43,5.23,5.23,0,0,0-.39.47q-.18.25-.4.49l-.45.53-.89,1a3.77,3.77,0,0,1-.38.45c-.14.14-.26.27-.38.41s-.22.25-.32.35a2.05,2.05,0,0,1-.26.22.72.72,0,0,1-.17.16l-.06,0,.06,0,.08,0a.38.38,0,0,0,.14-.08,1.86,1.86,0,0,1,.28-.24,1.93,1.93,0,0,0,.35-.33c.12-.14.24-.27.38-.41l.43-.41.89-1,.45-.53c.14-.16.27-.33.4-.49l.37-.5C268.19,60.12,268.29,60,268.38,59.83Z"/><path d="M294.4,59.81a.91.91,0,0,1,1.13-.22,2.86,2.86,0,0,1,1.09,1,3.88,3.88,0,0,1,.63,1.43,1.14,1.14,0,0,1-.28,1.15,35,35,0,0,1-3.84,3.13,30.23,30.23,0,0,1-5.19,2.95,29.35,29.35,0,0,1-6.33,2,23.64,23.64,0,0,1-7.45.21h-.25a7.2,7.2,0,0,1-2.19-.71,7.44,7.44,0,0,1-3-2.74,12,12,0,0,1-.86-1.67q-1.83,3.23-3.5,6.43c-1.11,2.13-2.08,4.07-2.91,5.81s-1.48,3.2-2,4.37a10.2,10.2,0,0,0-.76,2.16c0,.2-.25.23-.71.08a9,9,0,0,1-1.51-.68,9.26,9.26,0,0,1-1.51-1q-.7-.59-.69-1a10.17,10.17,0,0,1,.72-1.8c.48-1.06,1.12-2.42,1.92-4.09s1.75-3.53,2.85-5.59,2.25-4.15,3.48-6.3,2.45-4.25,3.69-6.3,2.36-3.9,3.37-5.54,1.85-3,2.51-4.09a8.93,8.93,0,0,0,1-2q.12-1,.78-1a2.72,2.72,0,0,1,1.37.74A7.39,7.39,0,0,1,277.32,48a2.27,2.27,0,0,1,.48,1.39,4.74,4.74,0,0,1-.45,1c-.28.54-.69,1.22-1.21,2a35,35,0,0,1,5-3.24,6.54,6.54,0,0,1,3.87-1,3.36,3.36,0,0,1,1.47.67,4.17,4.17,0,0,1,1.22,1.58,7.7,7.7,0,0,1,.63,2.59,13.58,13.58,0,0,1-.26,3.68,12.87,12.87,0,0,1-.73,2.41,24.32,24.32,0,0,1-1.27,2.63,30.71,30.71,0,0,1-1.66,2.65,24.45,24.45,0,0,1-2,2.47,24,24,0,0,0,3.81-1.38,28.62,28.62,0,0,0,3.31-1.8,24.59,24.59,0,0,0,2.73-2Q293.51,60.74,294.4,59.81ZM257.06,78.58q.27-.61.56-1.21t.52-1.08c.15-.34.31-.69.5-1l-.16.26a1.89,1.89,0,0,0-.22.34l-.22.43c-.07.14-.16.3-.27.47a3.1,3.1,0,0,0-.27.56l-.32.58c-.11.19-.21.39-.32.62a3.47,3.47,0,0,1-.27.63,3.7,3.7,0,0,0-.26.58c-.14.37-.3.74-.47,1.08a3.79,3.79,0,0,0-.32.78c0,.12-.07.22-.11.3l.15-.26a1.32,1.32,0,0,0,.18-.32l.18-.46c.07-.14.16-.3.26-.47a3.12,3.12,0,0,0,.26-.56q.16-.3.29-.6Zm14.27-26.32.25-.5a2.07,2.07,0,0,1,.24-.37,2.14,2.14,0,0,0,.2-.29H272c-.19.36-.42.75-.69,1.17s-.51.82-.84,1.31-.67,1-1,1.69q-1.18,1.87-2.64,4.26t-2.86,4.93q-2.67,4.65-5.11,9.37-1.16,2.27-2.17,4.26l0,0a2.27,2.27,0,0,1,.16-.3l.21-.37.27-.49a12.58,12.58,0,0,1,.73-1.35q.46-.75,1-1.74t1.17-2q.62-1.09,1.26-2.28t1.37-2.44q.74-1.25,1.47-2.52t1.39-2.51q.72-1.24,1.42-2.42t1.35-2.28q.65-1.07,1.19-2l.51-.92c.16-.28.31-.56.45-.84a6.55,6.55,0,0,0,.44-.71Zm-.83,10.6c-.12.49-.23,1-.33,1.64a7,7,0,0,0-.08,1.74,3.08,3.08,0,0,0,.46,1.42,1.56,1.56,0,0,0,1.21.69A5.92,5.92,0,0,0,275,67.8a11.88,11.88,0,0,0,3-2.07,18.22,18.22,0,0,0,2.63-3.09A34.06,34.06,0,0,0,282.82,59a31.32,31.32,0,0,0,1.58-3.57,18.13,18.13,0,0,0,.87-3.08,8.75,8.75,0,0,0-3.36,1.24,36.39,36.39,0,0,0-4.63,3.08A61.77,61.77,0,0,0,270.51,62.86Zm3.52-8-.45.5-.32.38a1.39,1.39,0,0,0-.27.37.12.12,0,0,1,.07-.08l.25-.24a4.6,4.6,0,0,1,.35-.38l.48-.5.63-.54.69-.58a9.11,9.11,0,0,1,.73-.64c.27-.21.56-.42.85-.62q.76-.61,1.65-1.2a15.46,15.46,0,0,1,1.52-1c.21-.15.41-.27.61-.38l.47-.26a.45.45,0,0,0,.16-.13.27.27,0,0,1,.1-.1l.13-.07-.13.07-.32.17-.5.26a5.08,5.08,0,0,0-.63.37,6.8,6.8,0,0,0-.75.4l-.82.53-.85.59-.85.6-.79.63a9.5,9.5,0,0,0-.73.64,7.91,7.91,0,0,0-.67.6C274.44,54.53,274.24,54.72,274,54.9Zm6.61-2.76-1,.57c-.21.12-.42.25-.63.4s-.42.31-.64.49l-.72.52-.73.57a7.92,7.92,0,0,1-.67.58l-.66.54-.6.57-.53.44-.44.43c-.13.13-.23.25-.32.36a1.09,1.09,0,0,0-.25.28l.31-.27.31-.3a5.79,5.79,0,0,1,.49-.41c.17-.16.35-.32.56-.48l.62-.52.66-.54a8.25,8.25,0,0,0,.67-.58l.73-.57.67-.53c.21-.18.43-.34.64-.49s.42-.28.63-.4a2.64,2.64,0,0,0,.51-.37,1.93,1.93,0,0,1,.39-.3,1.34,1.34,0,0,1,.38-.21Zm-1.77,14.48.09-.08.09-.07.06,0-1,.61a5.56,5.56,0,0,1-.47.33l-.52.32a5.44,5.44,0,0,0-.63.36,6.27,6.27,0,0,1-.62.31,4.72,4.72,0,0,0-.67.27l-.33.11-.33.11a6.12,6.12,0,0,0-.6.19l-.32,0-.27.06q-.54.11-.91.16a.66.66,0,0,1-.26,0s-.05,0-.06,0h.05a.66.66,0,0,0,.26,0l.45,0a3.66,3.66,0,0,0,.5-.07,1.09,1.09,0,0,1,.27,0,.91.91,0,0,0,.32-.07,3.8,3.8,0,0,0,.65-.14,4.6,4.6,0,0,0,.66-.22,3.49,3.49,0,0,0,.72-.26,12.33,12.33,0,0,0,1.21-.7l1-.68.39-.3Zm3.9-5.48.33-.66.33-.66a5.14,5.14,0,0,0,.27-.64,4.78,4.78,0,0,1,.28-.64l.21-.57.21-.57q.2-.54.34-1c.08-.28.17-.53.24-.76a1.12,1.12,0,0,1,.08-.28.87.87,0,0,0,.06-.19l0-.17-.28.62q-.17.33-.35.74t-.38.92l-.21.57a4,4,0,0,1-.26.56c-.11.22-.21.43-.3.62s-.19.4-.3.62-.23.43-.35.63a7.2,7.2,0,0,0-.35.63c-.11.22-.23.44-.35.65a4.44,4.44,0,0,1-.46.64c-.06.14-.12.26-.17.35a1.72,1.72,0,0,1-.21.3,3.32,3.32,0,0,0-.24.32,3.3,3.3,0,0,1-.24.32l-.24.3-.24.3a1.69,1.69,0,0,0-.23.25l-.23.3a3.57,3.57,0,0,0-.51.52,2.45,2.45,0,0,1-.5.48l-.25.23-.25.23a1.53,1.53,0,0,0-.24.19,1.62,1.62,0,0,1-.24.19l-.45.34-.44.29a2.44,2.44,0,0,1-.36.26,2.52,2.52,0,0,0-.4.21l-.64.4.17-.11a1.15,1.15,0,0,1,.25-.12l.31-.11a1.51,1.51,0,0,0,.34-.17l.2-.11.2-.11.47-.29.53-.32a1.58,1.58,0,0,0,.24-.19.88.88,0,0,1,.29-.18l.25-.23.25-.23a4.66,4.66,0,0,0,1.06-1l.26-.25.26-.29.24-.3.24-.3a2.48,2.48,0,0,0,.48-.63,1.86,1.86,0,0,0,.21-.3,3.56,3.56,0,0,1,.22-.34c.15-.21.28-.43.41-.65S282.63,61.36,282.78,61.15ZM283,50.37l-.4.14-.4.14-.46.2-.41.21-.38.23-.38.23-.35.26-.29.22a1.49,1.49,0,0,0-.39.34l-.14.16.19-.11.22-.15.23-.19q.31-.18.66-.41a5.63,5.63,0,0,1,.79-.44,2.34,2.34,0,0,1,.81-.41l.38-.21.18-.06a.68.68,0,0,1,.18-.06,2.12,2.12,0,0,0,.55-.18h.18s.06,0,.06,0l-.24.05A5.33,5.33,0,0,0,283,50.37Z"/><path d="M319.76,67.18a.92.92,0,0,1,1.16-.07,2.89,2.89,0,0,1,1,1.11,3.89,3.89,0,0,1,.44,1.51,1.13,1.13,0,0,1-.42,1.11,35.12,35.12,0,0,1-4.24,2.6,30.4,30.4,0,0,1-5.55,2.24,29.77,29.77,0,0,1-6.57,1.15,24,24,0,0,1-7.46-.76l-.1,0h0l-.1,0a7.26,7.26,0,0,1-2.09-1,7.47,7.47,0,0,1-2.6-3.1,12.06,12.06,0,0,1-.65-1.77q-2.23,3-4.3,5.92c-1.38,2-2.58,3.77-3.63,5.39s-1.88,3-2.53,4.08a10.19,10.19,0,0,0-1,2c0,.2-.28.2-.72,0a9.06,9.06,0,0,1-1.41-.87,9.3,9.3,0,0,1-1.37-1.22c-.41-.45-.6-.8-.56-1.07a10.05,10.05,0,0,1,.95-1.7c.61-1,1.42-2.26,2.43-3.81s2.19-3.28,3.54-5.18,2.77-3.83,4.26-5.81,3-3.9,4.47-5.78,2.85-3.56,4.06-5.06,2.22-2.74,3-3.74A9,9,0,0,0,301,51.51c.17-.68.47-1,.9-.84a2.74,2.74,0,0,1,1.28.91,7.39,7.39,0,0,1,1.07,1.66,2.27,2.27,0,0,1,.31,1.44,4.7,4.7,0,0,1-.58,1c-.35.5-.84,1.12-1.46,1.87a35.12,35.12,0,0,1,5.41-2.56,6.61,6.61,0,0,1,4-.46,3.4,3.4,0,0,1,1.38.86,4.19,4.19,0,0,1,1,1.72,7.69,7.69,0,0,1,.3,2.66,13.51,13.51,0,0,1-.73,3.62,12.73,12.73,0,0,1-1,2.3,24,24,0,0,1-1.6,2.44,30.86,30.86,0,0,1-2,2.41,24.72,24.72,0,0,1-2.28,2.19,24.21,24.21,0,0,0,4-.87,28.77,28.77,0,0,0,3.53-1.35,24.71,24.71,0,0,0,3-1.62Q318.75,68,319.76,67.18ZM280.15,81q.35-.57.72-1.13c.25-.37.47-.71.65-1s.4-.64.62-1l-.19.23a1.91,1.91,0,0,0-.26.31l-.27.4c-.09.13-.2.28-.33.43a3.08,3.08,0,0,0-.34.52l-.39.54c-.13.17-.26.36-.4.58a3.48,3.48,0,0,1-.35.59,3.66,3.66,0,0,0-.34.55,11.67,11.67,0,0,1-.61,1,3.81,3.81,0,0,0-.41.73c0,.11-.1.21-.14.29l.18-.24a1.34,1.34,0,0,0,.22-.3l.24-.43c.09-.13.19-.28.32-.44a3.1,3.1,0,0,0,.33-.52c.13-.19.25-.37.37-.56Zm17.56-24.28.31-.47a2.08,2.08,0,0,1,.28-.34,2.1,2.1,0,0,0,.24-.26h-.06q-.35.5-.83,1.07t-1,1.19q-.58.65-1.24,1.54-1.42,1.71-3.17,3.89t-3.47,4.53q-3.25,4.27-6.27,8.65l-2.7,3.95,0,.05a2.37,2.37,0,0,1,.2-.28l.26-.34.33-.46a12.66,12.66,0,0,1,.9-1.25c.37-.46.76-1,1.17-1.6l1.42-1.86q.76-1,1.54-2.1t1.68-2.25q.89-1.14,1.78-2.31t1.71-2.32q.87-1.14,1.72-2.22t1.64-2.09q.78-1,1.44-1.86l.62-.85q.29-.38.55-.77a6.43,6.43,0,0,0,.53-.64ZM295.53,67.1q-.28.7-.54,1.59a7,7,0,0,0-.3,1.71,3.07,3.07,0,0,0,.27,1.46,1.56,1.56,0,0,0,1.12.84,6,6,0,0,0,3.33-.13,11.92,11.92,0,0,0,3.25-1.67,18.23,18.23,0,0,0,3-2.73,33.93,33.93,0,0,0,2.6-3.29,31.16,31.16,0,0,0,2-3.33,18,18,0,0,0,1.26-2.95,8.81,8.81,0,0,0-3.51.79,36.55,36.55,0,0,0-5,2.46A61.62,61.62,0,0,0,295.53,67.1Zm4.52-7.44-.51.44-.37.34a1.38,1.38,0,0,0-.31.33.12.12,0,0,1,.08-.07l.28-.2a4.73,4.73,0,0,1,.4-.33l.54-.43.7-.46.76-.49a9.29,9.29,0,0,1,.81-.54c.3-.18.61-.35.92-.51q.84-.5,1.79-1a15.55,15.55,0,0,1,1.64-.78c.23-.12.45-.22.65-.3l.51-.2a.45.45,0,0,0,.18-.11.28.28,0,0,1,.11-.08l.13-.05-.13.05-.34.13-.53.19a5.2,5.2,0,0,0-.68.29,6.75,6.75,0,0,0-.8.3l-.89.42-.93.48-.92.48-.87.52a9.66,9.66,0,0,0-.81.54,7.86,7.86,0,0,0-.74.51C300.51,59.34,300.29,59.5,300.06,59.66ZM307,57.77l-1.07.43q-.33.14-.68.31c-.23.12-.46.25-.7.4l-.79.43-.8.47a7.89,7.89,0,0,1-.74.49l-.72.45-.67.49-.58.37-.5.37-.36.32a1.08,1.08,0,0,0-.29.24l.34-.23.35-.25a5.84,5.84,0,0,1,.54-.34c.19-.13.39-.27.62-.41l.69-.44.72-.45a8.25,8.25,0,0,0,.74-.49l.8-.47.73-.44c.23-.15.47-.28.7-.4s.45-.22.68-.31a2.59,2.59,0,0,0,.56-.3,1.94,1.94,0,0,1,.42-.25,1.36,1.36,0,0,1,.4-.16Zm-3.6,14.14.1-.06.1-.06.06,0-1.07.47a5.47,5.47,0,0,1-.51.27l-.56.25a5.33,5.33,0,0,0-.67.27,6.26,6.26,0,0,1-.66.23,4.77,4.77,0,0,0-.7.18l-.34.07-.34.07c-.3,0-.51.08-.62.11h-.32l-.27,0c-.37,0-.67,0-.92,0a.65.65,0,0,1-.26,0s-.05,0-.06,0h.05a.67.67,0,0,0,.26,0l.45,0a3.56,3.56,0,0,0,.51,0,1.16,1.16,0,0,1,.27,0,.9.9,0,0,0,.33,0,3.94,3.94,0,0,0,.66-.05,4.57,4.57,0,0,0,.69-.14,3.54,3.54,0,0,0,.75-.16,12.53,12.53,0,0,0,1.29-.54l1.08-.54.43-.24ZM308,67l.41-.61.41-.61a5.06,5.06,0,0,0,.36-.6,4.85,4.85,0,0,1,.36-.6l.28-.54.28-.53c.18-.34.33-.65.46-.92s.23-.51.34-.72a1.12,1.12,0,0,1,.11-.26.86.86,0,0,0,.08-.18l.05-.17-.35.58c-.14.2-.29.43-.45.69s-.32.54-.5.86l-.28.53a4,4,0,0,1-.33.52c-.14.2-.26.39-.38.57l-.38.57c-.14.2-.28.4-.43.58s-.3.38-.43.58-.28.4-.44.6a4.43,4.43,0,0,1-.54.57c-.08.13-.15.24-.21.33a1.7,1.7,0,0,1-.25.27,3.34,3.34,0,0,0-.28.28,3.13,3.13,0,0,1-.28.28l-.27.26-.27.26a1.72,1.72,0,0,0-.26.22l-.27.26a3.58,3.58,0,0,0-.58.45,2.48,2.48,0,0,1-.56.41l-.28.2-.28.2a1.44,1.44,0,0,0-.26.15,1.6,1.6,0,0,1-.26.15l-.49.28-.48.23a2.41,2.41,0,0,1-.39.21,2.58,2.58,0,0,0-.42.16l-.69.32.19-.09a1.19,1.19,0,0,1,.27-.09l.32-.07a1.5,1.5,0,0,0,.36-.13l.21-.08.21-.08.5-.23.57-.25a1.61,1.61,0,0,0,.26-.15.88.88,0,0,1,.32-.14l.28-.2.28-.2a4.68,4.68,0,0,0,1.19-.85l.29-.21.3-.26.27-.26.27-.26a2.45,2.45,0,0,0,.56-.57,1.79,1.79,0,0,0,.25-.27,3.55,3.55,0,0,1,.26-.31c.17-.19.33-.39.49-.59S307.81,67.17,308,67Zm1.58-10.66-.42.09-.41.09-.49.13-.43.15-.41.18-.41.18-.39.21-.32.18a1.47,1.47,0,0,0-.43.29l-.16.14.2-.08.24-.12.25-.16q.33-.13.71-.32a5.61,5.61,0,0,1,.84-.33,2.37,2.37,0,0,1,.86-.3l.4-.16.19,0,.19,0a2.16,2.16,0,0,0,.57-.11h.18s.06,0,.07,0l-.25,0A5.38,5.38,0,0,0,309.56,56.32Z"/><path d="M341.78,76.74a3,3,0,0,1,.68,1.28,1.92,1.92,0,0,1-.15,1.4,4,4,0,0,1-1.3,1.09,21.15,21.15,0,0,1-2.79,1.43,38.84,38.84,0,0,1-3.8,1.4,30.82,30.82,0,0,1-4.38,1,22.47,22.47,0,0,1-4.53.27,12.89,12.89,0,0,1-4.34-.93,6.72,6.72,0,0,1-2.55-1.91,12.55,12.55,0,0,1-1.92-3,12,12,0,0,1-1-3.47A7.09,7.09,0,0,1,316,72a9.37,9.37,0,0,1,1.67-2.84,15.81,15.81,0,0,1,2.81-2.63A23.05,23.05,0,0,1,324,64.41,19.35,19.35,0,0,1,328,63a16.8,16.8,0,0,1,3.88-.49,8.37,8.37,0,0,1,3.39.65,6.58,6.58,0,0,1,2.8,2,5.77,5.77,0,0,1,1.05,2.27,3.62,3.62,0,0,1,0,1.78c-.15.46-.3.66-.44.6a1,1,0,0,1-.3-.19,2.26,2.26,0,0,1-.21.58,6.13,6.13,0,0,1-2,2.26A11,11,0,0,1,333,74.08a12.77,12.77,0,0,1-3.71.63,9.24,9.24,0,0,1-3.77-.69,6.87,6.87,0,0,1-2.12-1.28,7.76,7.76,0,0,1-1.28-1.5A10,10,0,0,0,319.44,75a10.87,10.87,0,0,0-.43,1.46,5.3,5.3,0,0,0-.14,1.43,2.74,2.74,0,0,0,.35,1.24,2,2,0,0,0,1.06.86,13.39,13.39,0,0,0,4.37.94,19.42,19.42,0,0,0,4.29-.29,22.81,22.81,0,0,0,3.93-1.07q1.85-.69,3.36-1.41c1-.48,1.83-.91,2.48-1.3s1.08-.64,1.31-.76a1.3,1.3,0,0,1,1.56.43Zm-20-10.06.41-.22.41-.22a1.67,1.67,0,0,1,.38-.21,1.69,1.69,0,0,0,.38-.21l.66-.31.64-.25a1.84,1.84,0,0,0,.45-.23l.18-.07.11-.05.14,0-.14,0-.11.05a.65.65,0,0,1-.18.07l-.49.16-.63.21a2,2,0,0,1-.36.15,1.22,1.22,0,0,0-.37.19,2.44,2.44,0,0,0-.39.16l-.41.2-.41.22-.41.22a7.15,7.15,0,0,1-.79.51l-.35.29a4.18,4.18,0,0,0-.35.29l-.35.3-.34.3a1.61,1.61,0,0,0-.28.27,1.39,1.39,0,0,1-.28.27,5,5,0,0,1-.45.59c-.15.2-.27.36-.36.5a2.15,2.15,0,0,0-.21.42.73.73,0,0,0-.13.37l0-.12a.72.72,0,0,1,.14-.23.39.39,0,0,0,.13-.19.41.41,0,0,1,.13-.19l.36-.52a.59.59,0,0,0,.23-.22,1.49,1.49,0,0,1,.26-.3,1.48,1.48,0,0,0,.28-.27,1.56,1.56,0,0,1,.28-.27,4.49,4.49,0,0,1,.34-.29l.35-.3a3.76,3.76,0,0,1,.36-.24,2.4,2.4,0,0,0,.37-.28,2.24,2.24,0,0,1,.37-.28ZM323.87,65l-.24.14-.17.12a.52.52,0,0,1-.15.08.51.51,0,0,0,.15-.08.59.59,0,0,1,.19-.09l.26-.11a8,8,0,0,0,.78-.29,9.26,9.26,0,0,1,1-.35,5.51,5.51,0,0,1,.57-.2l.63-.18.69-.18.69-.17a5.63,5.63,0,0,1,.75-.15l.8-.13a4.67,4.67,0,0,1,.81-.07q.41,0,.8,0a8.47,8.47,0,0,1,1.71.15,7.82,7.82,0,0,1,1.63.36l.73.32a3.73,3.73,0,0,1,.69.4.52.52,0,0,1,.15.09.53.53,0,0,0,.15.09.55.55,0,0,0,.14.11.6.6,0,0,1,.14.11.54.54,0,0,0,.14.11.6.6,0,0,1,.14.11.47.47,0,0,0,.23.2,5.6,5.6,0,0,1,.76.87,1.6,1.6,0,0,1,.28.37,2.37,2.37,0,0,0,.23.35,1.75,1.75,0,0,1,.11.25.54.54,0,0,0,.13.21.35.35,0,0,0,.12.15.5.5,0,0,1-.05-.17,3.68,3.68,0,0,1-.22-.49,2.83,2.83,0,0,0-.21-.31,1.6,1.6,0,0,1-.23-.42,2,2,0,0,1-.38-.44,3.75,3.75,0,0,0-.36-.48,1.09,1.09,0,0,1-.29-.22,1.54,1.54,0,0,0-.21-.24,3.19,3.19,0,0,1-.34-.25.57.57,0,0,0-.14-.11.54.54,0,0,1-.14-.11,8.13,8.13,0,0,0-1.53-.76l-.82-.26a5.26,5.26,0,0,0-.91-.19,8.5,8.5,0,0,0-1.71-.15,8.1,8.1,0,0,0-.89,0l-.85.08-.78.16-.78.16a11,11,0,0,0-1.37.4l-1.19.43a5.83,5.83,0,0,0-1,.43A6.66,6.66,0,0,1,323.87,65Zm.51,5.71a8.87,8.87,0,0,0,3.86.71,8.69,8.69,0,0,0,3.14-.78A9.7,9.7,0,0,0,333.83,69c.7-.65,1.3-1.24,1.8-1.78l-.31-.16-.31-.16a5.53,5.53,0,0,0-2.44-.39,12,12,0,0,0-3,.53,19.15,19.15,0,0,0-3.19,1.3,19.7,19.7,0,0,0-3,1.84A3.71,3.71,0,0,0,324.39,70.71Zm3.15,11.58.54,0,.43-.05.38-.07-.38.07-.45,0-.56,0c-.19,0-.41,0-.66,0a4.15,4.15,0,0,1-.75-.06,2.53,2.53,0,0,1-.42,0,2.51,2.51,0,0,0-.42,0,2.58,2.58,0,0,1-.42,0l-.45-.09a1.46,1.46,0,0,1-.41-.05,1.54,1.54,0,0,0-.41-.05l-.42-.1-.42-.1-.73-.16-.35-.12-.3-.1a3,3,0,0,1-.55-.17,2.39,2.39,0,0,1-.46-.13l-.18,0-.13,0-.1,0,.39.15.44.17a3.08,3.08,0,0,0,.55.17,4.53,4.53,0,0,0,.65.21,5.41,5.41,0,0,0,.77.22l.39.09.44.11.39.09a2.3,2.3,0,0,0,.46.07,1.55,1.55,0,0,1,.41.05,1.52,1.52,0,0,0,.41.05l.83.07c.27,0,.53,0,.78,0A3.23,3.23,0,0,0,327.54,82.29Zm6.13-12.61a.12.12,0,0,0-.09.06.13.13,0,0,0-.1.08.29.29,0,0,1-.11.12l-.39.26-.55.34a4.07,4.07,0,0,1-.63.3l-.76.34-.42.13-.42.13a2.27,2.27,0,0,0-.47.11,1.28,1.28,0,0,1-.46.07l-.46.09a.51.51,0,0,1-.25,0,.53.53,0,0,0-.25,0,5.8,5.8,0,0,1-1,0,2.48,2.48,0,0,1-.46,0,2.63,2.63,0,0,0-.46,0,3,3,0,0,1-.82-.19l-.67-.12-.52-.2A1.55,1.55,0,0,1,324,71l-.1,0,.47.18.52.2.32.1.37.12a2.44,2.44,0,0,1,.39.08l.44.1a2.56,2.56,0,0,1,.46,0,2.55,2.55,0,0,0,.46,0l.51,0a4.18,4.18,0,0,1,.51,0,.53.53,0,0,1,.25,0,.53.53,0,0,0,.25,0l.46-.09a1.17,1.17,0,0,0,.51,0,2.36,2.36,0,0,1,.47-.11,3.18,3.18,0,0,1,.43-.15,3.33,3.33,0,0,0,.43-.15,1.24,1.24,0,0,1,.38-.17,1.25,1.25,0,0,0,.38-.17l.3-.2.29-.16a2.41,2.41,0,0,0,.5-.36,2.14,2.14,0,0,1,.34-.28Z"/><path d="M358.76,86.56a1.15,1.15,0,0,1,1.12.27,3.6,3.6,0,0,1,1,1.14,3.5,3.5,0,0,1,.43,1.38.86.86,0,0,1-.45.94c-.33.17-.94.4-1.81.71s-1.91.63-3.11,1-2.5.69-3.88,1a38.63,38.63,0,0,1-4,.78,24.08,24.08,0,0,1-3.66.24,6,6,0,0,1-2.8-.63,4,4,0,0,1-.85-.81,7.18,7.18,0,0,1-1.61-3.69,3.78,3.78,0,0,1,.44-2.25,8.35,8.35,0,0,1,2.41-2.76,33,33,0,0,1,3.46-2.32q1.8-1.05,3.31-1.9a5,5,0,0,0,1.89-1.54c.06-.1-.12-.41-.52-.91a13.4,13.4,0,0,0-1.22-1.34q-1.65.86-3.65,2l-3.59,2a.78.78,0,0,1-1.07-.1,3.28,3.28,0,0,1-.7-1.21,4,4,0,0,1-.23-1.51,1.09,1.09,0,0,1,.46-1l2.75-1.77q1.46-.94,2.84-1.71-.7-.8-1.32-1.65a7.41,7.41,0,0,1-1-1.75,5.62,5.62,0,0,1-.37-1.86,4.22,4.22,0,0,1,.45-2,6.79,6.79,0,0,1,1.85-2.25,15.76,15.76,0,0,1,2.92-1.89,21.67,21.67,0,0,1,3.49-1.39,26.9,26.9,0,0,1,3.52-.83,17.72,17.72,0,0,1,3-.25,4.3,4.3,0,0,1,1.94.35,5.68,5.68,0,0,1,1.48,1.32,12.49,12.49,0,0,1,1.43,2.1,8.3,8.3,0,0,1,.86,2.3,2.69,2.69,0,0,1-.24,1.95,5.91,5.91,0,0,1-1.55,1.48c-.8.59-1.79,1.24-3,2s-2.54,1.51-4,2.33-3.07,1.67-4.73,2.53q.72.74,1.51,1.66a16,16,0,0,1,1.37,1.83,6.52,6.52,0,0,1,.81,1.73,1.74,1.74,0,0,1-.11,1.39,4.39,4.39,0,0,1-1.28,1.06q-1.06.68-2.41,1.52l-2.86,1.76q-1.5.92-2.64,1.75a15.16,15.16,0,0,0-1.74,1.43q-.6.6-.18.83a4.2,4.2,0,0,0,2.15.39,17.41,17.41,0,0,0,3-.38,33.43,33.43,0,0,0,3.32-.88q1.71-.54,3.21-1.07t2.64-1Zm-8.94-25,.5-.24c.16-.08.32-.16.5-.24l1-.37a2.29,2.29,0,0,1,.44-.17,2.42,2.42,0,0,0,.44-.17c.29-.11.55-.2.77-.27s.42-.14.6-.21l.52-.18-.15,0-.16,0-.24,0a2.64,2.64,0,0,1-.64.16,3.62,3.62,0,0,0-.81.22,3.53,3.53,0,0,0-.47.1l-.49.14-1,.37L350,61l-.52.21-1.07.5a3.77,3.77,0,0,1-.48.28l-.53.25-.45.29-.45.29-.42.31-.42.31a3.32,3.32,0,0,0-.62.58,1.37,1.37,0,0,0-.31.29,1.19,1.19,0,0,1-.22.24,2.27,2.27,0,0,0-.3.49.19.19,0,0,0-.1.15.19.19,0,0,1-.1.15l0,.08s0,0,0,.07l.06-.12a1.1,1.1,0,0,1,.21-.29l.39-.4a3.45,3.45,0,0,1,.56-.46l.36-.26.36-.26.41-.29.41-.29.93-.52,1-.53Zm-5.88,7.77s0,0,0-.07l0-.21a.89.89,0,0,1-.09-.29l0-.37a2.93,2.93,0,0,1,0-.93.6.6,0,0,1,.05-.24.6.6,0,0,0,.05-.24,1.11,1.11,0,0,0,.09-.25,1.2,1.2,0,0,1,.09-.25l.21-.43a1.71,1.71,0,0,0,.28-.45,3.52,3.52,0,0,0,.27-.36,3.75,3.75,0,0,1,.27-.36.86.86,0,0,0,.28-.23,1.42,1.42,0,0,1,.21-.22.16.16,0,0,1,.07-.07.15.15,0,0,0,.06-.07l0,0s-.06,0-.07,0a.15.15,0,0,1-.06.07.16.16,0,0,0-.07.07,1.27,1.27,0,0,0-.21.16,3.33,3.33,0,0,1-.33.26.34.34,0,0,0-.14.15.33.33,0,0,1-.14.15,1.19,1.19,0,0,0-.32.38,1.34,1.34,0,0,0-.26.41,1.78,1.78,0,0,0-.28.45,667.06,667.06,0,0,1-.25,1.05c0,.17,0,.33,0,.48s0,.31,0,.48a3,3,0,0,0,.08.38,1.77,1.77,0,0,0,.11.3Zm2.79-.71a2.2,2.2,0,0,0-.23,1.51,4.49,4.49,0,0,0,.77,1.58q2.81-1.61,5.32-3.1c1.67-1,3.13-1.89,4.36-2.68s2.18-1.44,2.82-1.95.86-.83.64-1a2.92,2.92,0,0,0-1.36-.13,14.75,14.75,0,0,0-2.4.36q-1.37.31-2.92.8a19.42,19.42,0,0,0-2.94,1.21,16.18,16.18,0,0,0-2.49,1.56A5.36,5.36,0,0,0,346.73,68.56Zm4.32,1.85.93-.55.94-.54c.33-.19.63-.37.92-.55l.86-.58.41-.25.41-.25c.25-.2.48-.37.7-.52a9.32,9.32,0,0,1,1-.8.51.51,0,0,1,.11-.14.51.51,0,0,0,.11-.14c0-.05.06-.07.1,0l0,0a1.22,1.22,0,0,1-.43.27l-.51.29c-.2.11-.41.23-.63.38q-.68.48-1.55,1T352.62,69q-.93.6-1.82,1.12l-1.58,1q-.84.45-1.55.93l.05,0,.5-.19a2.56,2.56,0,0,1,.5-.26,6.23,6.23,0,0,0,.67-.32A14.27,14.27,0,0,0,351.05,70.42Zm-9.65,15.07a.29.29,0,0,1-.11.09,2.94,2.94,0,0,0-.31.24l-.35.44-.39.51a3.52,3.52,0,0,0-.41,1.13.89.89,0,0,0,0,.42.3.3,0,0,1,0,.14.16.16,0,0,1,0-.14.66.66,0,0,0,.06-.17.71.71,0,0,1,.08-.21,2.73,2.73,0,0,1,.21-.51l.29-.56c.13-.17.24-.33.36-.51a3.39,3.39,0,0,1,.32-.43.88.88,0,0,1,.23-.32Zm3.08-2.29a.38.38,0,0,1,.1-.12.39.39,0,0,0,.1-.12.11.11,0,0,1,.09-.05.12.12,0,0,0-.09.05.13.13,0,0,0-.1.07.3.3,0,0,1-.12.11l-.4.28a4.3,4.3,0,0,0-.44.36l-.52.45a5.94,5.94,0,0,0-.56.52l-.27.28-.29.32-.51.62a3.66,3.66,0,0,0-.27.33,2.92,2.92,0,0,0-.22.36,1,1,0,0,0-.21.34,1,1,0,0,1-.21.34,1.68,1.68,0,0,1-.14.37,1.18,1.18,0,0,0-.12.34.35.35,0,0,1,0,.18.33.33,0,0,0,0,.18,147.77,147.77,0,0,0-.1.64.48.48,0,0,0,0,.13.55.55,0,0,1,0,.13.68.68,0,0,0,0,.26,1.28,1.28,0,0,1,0,.22l.1.25a.12.12,0,0,0,0,.1l0,0,0,0V90a.54.54,0,0,1,0-.27.73.73,0,0,1-.05-.47.12.12,0,0,1,0-.1.31.31,0,0,0,0-.14.59.59,0,0,1,0-.28.32.32,0,0,1,0-.18.34.34,0,0,0,0-.18.43.43,0,0,0,0-.15.38.38,0,0,1,0-.15,1.2,1.2,0,0,1,.12-.34l.18-.35.18-.35a1.67,1.67,0,0,1,.23-.32,2.42,2.42,0,0,1,.21-.34,3.94,3.94,0,0,1,.26-.31,1.81,1.81,0,0,0,.24-.34.94.94,0,0,1,.29-.32l.26-.31a.91.91,0,0,1,.29-.25q.28-.3.53-.54l.49-.46A3.51,3.51,0,0,1,344.49,83.19Z"/><path d="M380.41,102a.83.83,0,0,1,1.07.32,3.19,3.19,0,0,1,.54,1.37,3.51,3.51,0,0,1-.08,1.54,1.23,1.23,0,0,1-.75.92,34.92,34.92,0,0,1-4.83,1,29.54,29.54,0,0,1-12.4-.88,23.52,23.52,0,0,1-6.65-3.18l-.63-.35-.61-.39a6.63,6.63,0,0,1-2-1.91,5.16,5.16,0,0,1-.78-2,4.83,4.83,0,0,1,1-3.64,4.15,4.15,0,0,1,1-1,1.88,1.88,0,0,1,.81-.29.71.71,0,0,1,.49.11c.1.08.13.16.08.23a2.5,2.5,0,0,0-.58,2.06,4.23,4.23,0,0,0,1,2,9.91,9.91,0,0,0,2.1,1.76,12.65,12.65,0,0,0,2.52,1.26,8,8,0,0,0,2.34.51,2,2,0,0,0,1.64-.52c.27-.31.21-.77-.2-1.39a17.44,17.44,0,0,0-1.71-2.13q-1.1-1.2-2.4-2.59A21.07,21.07,0,0,1,359.24,92a7.49,7.49,0,0,1-1.2-2.83,3.29,3.29,0,0,1,.76-2.69,5.41,5.41,0,0,1,2.49-1.73,11.84,11.84,0,0,1,3.43-.63,20.14,20.14,0,0,1,3.9.22,26,26,0,0,1,3.89.89,29.67,29.67,0,0,1,3.36,1.27,12.93,12.93,0,0,1,2.32,1.3,2.85,2.85,0,0,1,1.08,1.44,3.81,3.81,0,0,1,.12,1.69,5.21,5.21,0,0,1-.54,1.64,5.87,5.87,0,0,1-.85,1.26,3.82,3.82,0,0,1-1.33.86,12.11,12.11,0,0,1-1.79.6,11.84,11.84,0,0,1-1.61.3,1.65,1.65,0,0,1-.85,0l-.67-.5a11.72,11.72,0,0,1-.94-.77,4.89,4.89,0,0,1-.75-.84q-.3-.43-.07-.65a2.87,2.87,0,0,1,.92-.48l1.49-.55,1.49-.54a3,3,0,0,0,.93-.46c.07-.09-.15-.28-.67-.55a13.81,13.81,0,0,0-2.08-.83c-.87-.28-1.84-.55-2.91-.79a21.17,21.17,0,0,0-3.11-.48,13.56,13.56,0,0,0-2.71,0,2.39,2.39,0,0,0-1.68.79q-.07.11.62.83L364,91.57q1,1.09,2.14,2.49A21.31,21.31,0,0,1,368,96.88a8.83,8.83,0,0,1,1,2.72,2.72,2.72,0,0,1-.45,2.21c-.19.26-.38.49-.55.69s-.35.38-.51.55a25,25,0,0,0,7.2.21A26.49,26.49,0,0,0,380.41,102ZM361.17,85.43l.54-.2a3.21,3.21,0,0,1,.59-.17l1.38-.2a10.75,10.75,0,0,1,1.55-.06l1.63.05a24.22,24.22,0,0,1,3.27.41q1.63.32,2.86.66l1.18.36c.34.1.63.2.86.3a1.18,1.18,0,0,1,.33.11,1.4,1.4,0,0,0,.26.11l.15.11s.06,0,.07,0l0,0a.16.16,0,0,0-.09,0,.14.14,0,0,1-.09,0,5.06,5.06,0,0,1-.57-.25q-.39-.18-.9-.35L373,85.82l-1.37-.4a12,12,0,0,0-1.49-.31c-.56-.1-1.11-.19-1.66-.26s-1.09-.13-1.63-.17a16.55,16.55,0,0,0-3.2,0,5.06,5.06,0,0,0-.73.1l-.68.14a3.33,3.33,0,0,0-.59.17l-.54.2a2.24,2.24,0,0,0-.84.46l-.36.24a.37.37,0,0,1-.11.12.37.37,0,0,0-.11.11,1.92,1.92,0,0,0-.31.38l-.07.11.07-.11a.73.73,0,0,1,.13-.15l.22-.2a.74.74,0,0,1,.21-.23l.33-.2a1.52,1.52,0,0,1,.41-.21A3,3,0,0,1,361.17,85.43Zm.59.38.66-.12.74-.12c.26,0,.51-.07.75-.09a6.22,6.22,0,0,0,.68-.08,2.46,2.46,0,0,1,.46-.06h.22l-.2,0-.26,0h-.28l-1.46.1a4.69,4.69,0,0,0-1.35.38l-.43.14a.28.28,0,0,0-.12.08s.06,0,.07,0l.1,0c.1,0,.15,0,.17,0l.12,0Zm1.4,16a.84.84,0,0,0,.26,0,.17.17,0,0,1,.12,0l-.35-.09-.43-.15a2.45,2.45,0,0,1-.5-.14l-.63-.25-.67-.28-.72-.4-.72-.39-.68-.46a1.66,1.66,0,0,1-.63-.43,3.46,3.46,0,0,1-.33-.25l-.28-.22a1.27,1.27,0,0,0-.25-.22,1.21,1.21,0,0,1-.25-.22,1.17,1.17,0,0,0-.23-.2.62.62,0,0,1-.18-.17,4.45,4.45,0,0,1-.29-.35l-.2-.29,0,.07a1.28,1.28,0,0,0,.16.26l.12.16.12.16a1.11,1.11,0,0,0,.19.2,1.17,1.17,0,0,1,.19.21l.52.5a1.35,1.35,0,0,0,.27.23,1.36,1.36,0,0,1,.27.23l.68.46.67.46.74.41a6.48,6.48,0,0,0,.72.34l.36.15.36.15a2.48,2.48,0,0,0,.59.2l.3.1.25.07Z"/></svg>