<svg id="Grizzlies" xmlns="http://www.w3.org/2000/svg" viewBox="0 0 512 512"><defs><style>.cls-1{opacity:0.5;}.cls-2{fill:#fff;}.cls-3{fill:#841717;}.cls-4{fill:#23375b;}.cls-5{fill:#cc8217;}</style></defs><title>Grizzlies</title><g class="cls-1"><ellipse class="cls-2" cx="256" cy="256" rx="242.51" ry="244.7"/><path class="cls-3" d="M256,503.34c-65.48,0-127-25.73-173.35-72.45a248.9,248.9,0,0,1,0-349.77C129,34.4,190.52,8.66,256,8.66S383,34.4,429.35,81.12a248.9,248.9,0,0,1,0,349.77C383,477.61,321.48,503.34,256,503.34Zm0-489.4A237.21,237.21,0,0,0,86.4,84.83a243.63,243.63,0,0,0,0,342.35,238.34,238.34,0,0,0,339.21,0,243.63,243.63,0,0,0,0-342.35A237.21,237.21,0,0,0,256,13.94Z"/></g><g class="cls-1"><ellipse class="cls-4" cx="254.73" cy="256.04" rx="169.5" ry="169.09"/><path class="cls-3" d="M254.73,427.15c-94.58,0-171.52-76.76-171.52-171.11S160.15,84.92,254.73,84.92,426.25,161.68,426.25,256,349.31,427.15,254.73,427.15Zm0-338.19C162.38,89,87.25,163.91,87.25,256s75.13,167.07,167.48,167.07S422.21,348.16,422.21,256,347.08,89,254.73,89Z"/></g><g class="cls-1"><ellipse class="cls-5" cx="251.5" cy="257.13" rx="147.98" ry="153.11"/><path class="cls-3" d="M251.5,410.54c-81.76,0-148.27-68.82-148.27-153.4s66.51-153.4,148.27-153.4,148.27,68.82,148.27,153.4S333.26,410.54,251.5,410.54Zm0-306.22c-81.43,0-147.69,68.55-147.69,152.82S170.06,409.95,251.5,409.95,399.18,341.4,399.18,257.13,332.93,104.31,251.5,104.31Z"/></g><rect class="cls-3" x="103.52" y="255.08" width="295.96" height="4.1"/><rect class="cls-3" x="252.01" y="105.22" width="2.34" height="306.22"/><path class="cls-3" d="M353.24,370.86c-33.37-9.38-57.17-47.89-60.62-98.13-1.82-26.4,2.52-53,12.23-74.84,10.9-24.56,28.14-42.54,49.85-52l1.17,2.68c-21,9.17-37.74,26.64-48.34,50.52-9.51,21.43-13.77,47.52-12,73.45,3.37,49,26.33,86.47,58.49,95.51Z"/><path class="cls-3" d="M150.13,370.86l-.79-2.82c32.16-9,55.12-46.53,58.49-95.51,1.79-25.93-2.47-52-12-73.45-10.6-23.88-27.31-41.35-48.34-50.52l1.17-2.68c21.71,9.47,38.95,27.46,49.85,52,9.7,21.86,14,48.44,12.23,74.84C207.29,323,183.5,361.49,150.13,370.86Z"/><path d="M103.94,87.57c.14-.08.35,0,.65.11a7.38,7.38,0,0,1,.91.57q.47.34.88.71a2.84,2.84,0,0,1,.5.52,8.38,8.38,0,0,1-.06,1.38c-.07.87-.16,2-.26,3.45s-.21,3.08-.32,4.93-.19,3.79-.25,5.82-.09,4.09-.07,6.17.07,4.06.15,5.95.21,3.61.38,5.17a31.62,31.62,0,0,0,.62,3.86q.1.35-.54.49a7.22,7.22,0,0,1-1.48.15,10.71,10.71,0,0,1-1.55-.09c-.48-.06-.74-.13-.79-.2q-.42-1.47-.72-2.59a22.25,22.25,0,0,1-.5-2.39,28.19,28.19,0,0,1-.28-2.93c-.05-1.11-.09-2.52-.1-4.23s0-3.81.11-6.3.23-5.54.46-9.16a86.85,86.85,0,0,0-6.28,15.71A81.42,81.42,0,0,0,93,126a49,49,0,0,0-.48,6.91c0,1.56,0,2.41-.19,2.54a1.77,1.77,0,0,1-.9.25q-.64.05-1.33.05a8.64,8.64,0,0,1-1.23-.07,1.25,1.25,0,0,1-.63-.18c-.05-.78-.16-2-.31-3.54s-.33-3.32-.51-5.21-.38-3.86-.57-5.91-.36-3.92-.52-5.63-.31-3.15-.45-4.32a6.93,6.93,0,0,0-.41-2.05,66.62,66.62,0,0,0-2.54,8.68q-1,4.45-1.49,8.62c-.34,2.77-.56,5.38-.67,7.83s-.15,4.58-.14,6.4,0,3.28.06,4.37a7.32,7.32,0,0,1,0,1.71,1.76,1.76,0,0,1-.77.23,12.25,12.25,0,0,1-1.31.12,10.3,10.3,0,0,1-1.34,0,1.28,1.28,0,0,1-.84-.29,77.3,77.3,0,0,1-.26-10.09,98.92,98.92,0,0,1,1-10.58q.76-5.24,1.91-10.07c.76-3.22,1.57-6.09,2.4-8.62a57.5,57.5,0,0,1,2.38-6.19,8.11,8.11,0,0,1,1.78-2.84,1.84,1.84,0,0,1,1.18-.29,6.43,6.43,0,0,1,1.35.23,5.74,5.74,0,0,1,1.17.46,1.92,1.92,0,0,1,.6.42,3.28,3.28,0,0,1,.09.78q0,.71.1,1.81T90.2,104q.08,1.38.14,2.82c.12,2.26.27,4.79.46,7.59,1.66-4.74,3.3-9,4.83-12.72q1-2.4,2-4.7c.68-1.53,1.31-2.91,1.87-4.12s1-2.2,1.44-3a6.68,6.68,0,0,1,.7-1.21.75.75,0,0,1,.46-.09,3.66,3.66,0,0,1,.5.09,1.13,1.13,0,0,1,.53.2l.23-.54A1.53,1.53,0,0,1,103.94,87.57ZM76.73,134.94l0-.36a.87.87,0,0,1,0-.3,2.19,2.19,0,0,0,0-.28,2.21,2.21,0,0,1,0,.28q0,.14-.06.33a3.18,3.18,0,0,0,0,.37,3.87,3.87,0,0,1-.07,1,9.22,9.22,0,0,1,0,1.14c0,.18,0,.36,0,.54s0,.35,0,.54a4.33,4.33,0,0,0,0,.54,4.06,4.06,0,0,0,0,.43,2.08,2.08,0,0,0,0,.4.85.85,0,0,1,0,.29.38.38,0,0,0,.06.24,1.33,1.33,0,0,0,0-.24,1.55,1.55,0,0,0,0-.31,2.89,2.89,0,0,0,0-.38c0-.16,0-.32,0-.47a2.84,2.84,0,0,0,0-.5,4.16,4.16,0,0,1,0-.55,4.29,4.29,0,0,0,0-.55,4,4,0,0,0,0-.59l0-.55a4.78,4.78,0,0,1,0-.52A2.31,2.31,0,0,0,76.73,134.94ZM79.88,115l.33-1.37c.1-.42.19-.79.25-1.09s.15-.66.21-.92a1,1,0,0,0-.11.25,2.68,2.68,0,0,0-.07.3,3.68,3.68,0,0,1-.09.37,21.53,21.53,0,0,0-.73,2.46q-.08.39-.18.79t-.22.83q-.09.46-.2.9c-.07.29-.15.6-.24.93q-.2,1-.38,2t-.38,2q-.16,1-.31,2t-.27,1.93q-.13.95-.21,1.8t-.19,1.63c0,.49-.08.94-.12,1.34s-.05.76,0,1.06a3.82,3.82,0,0,0,0,.38,1.09,1.09,0,0,1,0,.28.41.41,0,0,0,0,.21q.05-.38.14-.91t.11-1l.2-1.38.23-1.63.25-1.8q.13-.95.27-1.93t.38-2c.11-.68.22-1.35.34-2s.24-1.31.37-1.91.26-1.27.36-1.85S79.76,115.54,79.88,115Zm7.75-2.34a2.65,2.65,0,0,1-.06-.39.3.3,0,0,0,0-.14l0,.53a4.89,4.89,0,0,1,0,.6q0,.35,0,.77c0,.28,0,.57.06.88s0,.63.07,1,.08.73.13,1.07.1.7.14,1.07.07.73.12,1.08.09.69.14,1,.08.71.14,1l.16.84a6.41,6.41,0,0,0,.08.73l.1.56a2.21,2.21,0,0,1,0,.35.28.28,0,0,0,0,.14l0-.52a3.37,3.37,0,0,1,0-.57c0-.22,0-.47,0-.75a6,6,0,0,0,0-.9q-.05-.45-.08-1L88.5,119q-.05-.51-.1-1.07t-.13-1.07c-.06-.34-.12-.68-.18-1s-.07-.71-.13-1l-.14-.84a3.87,3.87,0,0,0-.09-.72A5.32,5.32,0,0,1,87.63,112.71Zm14.3-1.67a.72.72,0,0,0,0-.26.73.73,0,0,1,0-.19v-.21a.51.51,0,0,0,0,.17c0,.07,0,.14,0,.21a2.11,2.11,0,0,1,0,.28,4.66,4.66,0,0,1,0,.8,6.67,6.67,0,0,0,0,1q0,.56,0,1.18t0,1.35q0,.66.08,1.39t.07,1.46l.07.7q0,.35.09.73l.07.69.07.69.22,1.26q.1.59.15,1.14c.11.35.19.67.25.95a3.2,3.2,0,0,0,.08.4c0,.11.06.22.1.33a.58.58,0,0,0,.06.28.34.34,0,0,1,.05.18.34.34,0,0,0,.05.18.33.33,0,0,1-.05-.18.78.78,0,0,0,0-.19,1.28,1.28,0,0,1,0-.29,4.63,4.63,0,0,0-.1-.73l-.07-.49-.07-.48q0-.55-.1-1.18c0-.42-.1-.84-.17-1.29s-.08-.93-.11-1.4-.06-.94-.11-1.41q-.11-1.46-.21-2.83t-.16-2.49c0-.37,0-.7,0-1A4.2,4.2,0,0,0,101.93,111Zm.81,3.82a2.8,2.8,0,0,0-.08-.42.88.88,0,0,1,0-.35,2.26,2.26,0,0,0,0-.35v.31a2,2,0,0,0,0,.4c0,.15,0,.31,0,.47a4.07,4.07,0,0,1,0,.54,6,6,0,0,0,0,.64c0,.21,0,.42,0,.64s0,.45,0,.68,0,.46.05.68a3.59,3.59,0,0,0,.1.65c0,.21,0,.41,0,.61s0,.38.06.54a2.29,2.29,0,0,0,.09.44.87.87,0,0,1,0,.36v0a2.9,2.9,0,0,0,0-.38c0-.14,0-.29,0-.45a3.86,3.86,0,0,1,0-.54,6,6,0,0,0,0-.64c0-.21,0-.42,0-.64s0-.45,0-.68,0-.46-.08-.68a4.66,4.66,0,0,1-.06-.64c0-.23,0-.45-.06-.64S102.75,115,102.74,114.86Zm-6.47-12.3q.18-.48.35-.91t.33-.84l.3-.79.27-.72.24-.62a2.5,2.5,0,0,0,.13-.45l.16-.41a.2.2,0,0,0-.08.1,1.25,1.25,0,0,1-.16.31L97.3,99.3q-.13.34-.31.72c-.12.25-.25.51-.41.78s-.21.55-.33.84-.24.58-.38.87-.25.59-.36.89l-.31.86c-.13.3-.24.57-.33.82l-.25.72c-.08.23-.14.43-.19.6s-.1.33-.14.46a.73.73,0,0,0,0,.19.36.36,0,0,1,0,.12l0,.07,0-.07a.53.53,0,0,1,.06-.12.79.79,0,0,0,.08-.19,2.84,2.84,0,0,1,.22-.46,3.69,3.69,0,0,0,.27-.6,6.43,6.43,0,0,1,.32-.73,7.52,7.52,0,0,0,.34-.8,8.38,8.38,0,0,0,.39-.83Q96.07,103,96.27,102.56Zm3.12-6.23a2.93,2.93,0,0,0,.1-.29,2.77,2.77,0,0,1,.1-.29l.08-.2a1,1,0,0,0-.13.24s-.11.23-.29.54-.21.49-.35.78l-.45.95q-.19.48-.38.94c-.13.31-.24.57-.32.8a.94.94,0,0,1-.09.29,2.06,2.06,0,0,0-.11.25l-.08.21a.36.36,0,0,0,.1-.17,1.32,1.32,0,0,1,.14-.27,1.79,1.79,0,0,0,.17-.34c.09-.23.2-.49.34-.78s.29-.6.46-.91.25-.63.38-.94S99.3,96.56,99.39,96.33Z"/><path d="M130.22,96a3,3,0,0,1,1.41.24,2,2,0,0,1,1,1,4,4,0,0,1,.09,1.69,20.36,20.36,0,0,1-.51,3.07,35.85,35.85,0,0,1-1.16,3.86,28.92,28.92,0,0,1-1.84,4.1,21.62,21.62,0,0,1-2.58,3.75,12.84,12.84,0,0,1-3.45,2.85,6.82,6.82,0,0,1-3.12.83,12.5,12.5,0,0,1-3.58-.36,11.83,11.83,0,0,1-3.35-1.39,7,7,0,0,1-2.39-2.3,9.4,9.4,0,0,1-1.14-3.09,16.16,16.16,0,0,1-.27-3.84,24.09,24.09,0,0,1,.55-4.14,19.81,19.81,0,0,1,1.31-4,16.83,16.83,0,0,1,2-3.31,8.12,8.12,0,0,1,2.54-2.23,6.33,6.33,0,0,1,3.24-.92,5.69,5.69,0,0,1,2.39.58,3.71,3.71,0,0,1,1.38,1.12q.41.6.21.71a1,1,0,0,1-.32.12,2.32,2.32,0,0,1,.33.52,6.2,6.2,0,0,1,.61,2.93,10.74,10.74,0,0,1-.62,3.46,12.32,12.32,0,0,1-1.75,3.29,9,9,0,0,1-2.86,2.52,6.77,6.77,0,0,1-2.32.86,7.64,7.64,0,0,1-2,.06,10,10,0,0,0,1.24,4.48,10.88,10.88,0,0,0,.87,1.25,5.28,5.28,0,0,0,1,1,2.74,2.74,0,0,0,1.19.5,2,2,0,0,0,1.34-.3A13.29,13.29,0,0,0,123.2,112a18.73,18.73,0,0,0,2.42-3.55,21.82,21.82,0,0,0,1.54-3.76q.57-1.89.9-3.51c.22-1.08.37-2,.45-2.74s.13-1.24.18-1.49c.1-.54.52-.86,1.25-1Zm-20,9.46c0-.16.06-.31.09-.46s0-.3.09-.46a1.62,1.62,0,0,1,.07-.43,1.61,1.61,0,0,0,.07-.43l.17-.71c.07-.25.14-.46.2-.65a1.89,1.89,0,0,0,.1-.49.69.69,0,0,0,.06-.19.38.38,0,0,1,0-.12l.05-.13-.05.13a.38.38,0,0,0,0,.12.69.69,0,0,1-.06.19c-.05.13-.11.29-.17.48s-.14.39-.23.62a2.08,2.08,0,0,1-.11.37,1.22,1.22,0,0,0-.09.41,2.45,2.45,0,0,0-.12.4l-.1.44c0,.16-.07.31-.09.46s0,.3-.08.46a7.11,7.11,0,0,1-.1.93c0,.16,0,.32,0,.45a4.34,4.34,0,0,0,0,.45c0,.16,0,.32,0,.45s0,.29,0,.45a1.55,1.55,0,0,0,0,.39,1.47,1.47,0,0,1,0,.39,5.14,5.14,0,0,1,.17.72c.06.24.11.44.17.59a2.08,2.08,0,0,0,.19.42.74.74,0,0,0,.21.34l-.07-.11a.68.68,0,0,1-.09-.25.41.41,0,0,0-.07-.22.41.41,0,0,1-.07-.22c0-.12-.09-.32-.18-.61a.6.6,0,0,0,0-.32,1.48,1.48,0,0,1-.07-.39,1.47,1.47,0,0,0,0-.39,1.54,1.54,0,0,1,0-.39c0-.16,0-.31,0-.45s0-.29,0-.45a4.05,4.05,0,0,1,0-.43,2.35,2.35,0,0,0,0-.47,2.34,2.34,0,0,1,0-.47C110.24,105.7,110.25,105.55,110.25,105.41Zm0-2.72a1.92,1.92,0,0,0,0,.27v.21a.54.54,0,0,1,0,.17.53.53,0,0,0,0-.17.59.59,0,0,1,0-.2,1.49,1.49,0,0,0,.07-.27,7.94,7.94,0,0,0,.26-.79,9.3,9.3,0,0,1,.34-1,5.41,5.41,0,0,1,.19-.57l.24-.6c.09-.22.18-.44.28-.65s.19-.42.29-.64a5.6,5.6,0,0,1,.34-.67q.2-.34.39-.7a4.58,4.58,0,0,1,.44-.68q.25-.32.46-.64a8.25,8.25,0,0,1,1.14-1.24,7.57,7.57,0,0,1,1.26-1l.68-.37a3.57,3.57,0,0,1,.72-.29.52.52,0,0,1,.16-.06.5.5,0,0,0,.16-.06.52.52,0,0,0,.17,0,.56.56,0,0,1,.17,0,.52.52,0,0,0,.17,0l.17,0a.45.45,0,0,0,.29-.06,5.31,5.31,0,0,1,1.13-.05,1.59,1.59,0,0,1,.45,0,2.23,2.23,0,0,0,.4,0l.26.06a.53.53,0,0,0,.24,0,.33.33,0,0,0,.19,0,.5.5,0,0,1-.16-.06,3.53,3.53,0,0,1-.52-.13l-.37,0a1.54,1.54,0,0,1-.46-.08,2,2,0,0,1-.57,0,3.68,3.68,0,0,0-.59,0,1.06,1.06,0,0,1-.34.08,1.48,1.48,0,0,0-.31,0l-.39.11-.17,0a.52.52,0,0,1-.17,0,7.84,7.84,0,0,0-1.5.71l-.69.48a5,5,0,0,0-.69.58,8.32,8.32,0,0,0-1.14,1.24,8.19,8.19,0,0,0-.53.7l-.45.71c-.13.24-.24.48-.35.71s-.23.47-.35.71a10.74,10.74,0,0,0-.52,1.31q-.2.62-.39,1.19a5.9,5.9,0,0,0-.26,1A6.6,6.6,0,0,1,110.28,102.69Zm4.76,3.18A8.63,8.63,0,0,0,118,103.3a8.5,8.5,0,0,0,1.3-2.94,9.63,9.63,0,0,0,.2-2.92q-.13-1.42-.32-2.51l-.31.14-.31.14a5.38,5.38,0,0,0-1.77,1.66,12.1,12.1,0,0,0-1.42,2.68,19.79,19.79,0,0,0-.94,3.29,20.34,20.34,0,0,0-.39,3.45A3.64,3.64,0,0,0,115,105.87Zm11,4.7c.11-.16.21-.31.3-.46l.22-.37a3.19,3.19,0,0,0,.18-.35,3.1,3.1,0,0,1-.18.35c-.07.1-.15.22-.26.36l-.33.45q-.19.21-.42.51a4.08,4.08,0,0,1-.51.56,2.6,2.6,0,0,1-.29.31,2.53,2.53,0,0,0-.29.31,2.7,2.7,0,0,1-.29.31l-.35.3a1.5,1.5,0,0,1-.29.29,1.53,1.53,0,0,0-.29.29l-.34.27-.34.27-.58.48a2.81,2.81,0,0,0-.31.2l-.27.18a3,3,0,0,1-.49.33,2.4,2.4,0,0,1-.39.28.71.71,0,0,0-.15.11l-.1.09-.09.05.37-.21.41-.24a3.06,3.06,0,0,0,.49-.33,4.49,4.49,0,0,0,.58-.38,5.4,5.4,0,0,0,.65-.47l.31-.25.36-.28.32-.25a2.41,2.41,0,0,0,.34-.32,1.54,1.54,0,0,1,.3-.29,1.49,1.49,0,0,0,.3-.29l.57-.62c.16-.22.32-.43.48-.61A3.16,3.16,0,0,0,126.06,110.57ZM119.88,98a.12.12,0,0,0,0,.1.13.13,0,0,0,0,.12.3.3,0,0,1,0,.16l0,.47c0,.17,0,.39-.07.64a4,4,0,0,1-.14.68c0,.23-.11.49-.19.81q-.08.2-.15.41c0,.14-.1.28-.15.41a2.33,2.33,0,0,0-.2.44,1.24,1.24,0,0,1-.22.4l-.21.42a.53.53,0,0,1-.14.2.53.53,0,0,0-.14.2,5.69,5.69,0,0,1-.6.74,2.5,2.5,0,0,1-.32.33,2.54,2.54,0,0,0-.32.33,2.94,2.94,0,0,1-.66.52l-.51.45-.48.28a1.42,1.42,0,0,1-.31.23l-.1.06.43-.25.48-.28.28-.18a2.82,2.82,0,0,1,.32-.21,2.35,2.35,0,0,1,.3-.25l.35-.28a2.66,2.66,0,0,1,.32-.33,2.51,2.51,0,0,0,.32-.33,4.23,4.23,0,0,0,.32-.38,4.14,4.14,0,0,1,.32-.38.52.52,0,0,1,.14-.2.52.52,0,0,0,.14-.2l.21-.42a1.14,1.14,0,0,0,.27-.43,2.29,2.29,0,0,1,.2-.44,3.17,3.17,0,0,1,.14-.43,3.23,3.23,0,0,0,.14-.43,1.23,1.23,0,0,1,.1-.4,1.24,1.24,0,0,0,.1-.4l0-.36a2.27,2.27,0,0,1,0-.32,2.43,2.43,0,0,0,0-.61,2.17,2.17,0,0,1,0-.44Z"/><path d="M162.46,82.31c.07-.24.32-.35.76-.31a4.93,4.93,0,0,1,1.38.34,5.85,5.85,0,0,1,1.3.7c.38.27.55.53.51.76-.3,1.27-.74,2.76-1.32,4.46a40.21,40.21,0,0,1-2.09,5,24.12,24.12,0,0,1-2.79,4.4,8.56,8.56,0,0,1-3.49,2.72,3.55,3.55,0,0,1-1.64.18,7.57,7.57,0,0,1-1.89-.42,9.65,9.65,0,0,1-1.68-.78,2.18,2.18,0,0,1-1-.93,6.35,6.35,0,0,1-.33-2.67,30.45,30.45,0,0,1,.43-3.76q.35-2.06.8-4.34t.76-4.38a58.42,58.42,0,0,0-4.32,8.89,65.57,65.57,0,0,0-2.26,7.06c-.5,2-.82,3.56-1,4.7s-.34,1.74-.5,1.82a2.61,2.61,0,0,1-1,.13,9.28,9.28,0,0,1-1.5-.13,6.17,6.17,0,0,1-1.51-.43,1.74,1.74,0,0,1-.94-.82,5.26,5.26,0,0,1,0-1.86c.08-1,.22-2.28.4-3.75s.39-3.08.62-4.82.45-3.44.65-5.1a76.46,76.46,0,0,0-4.23,9.78c-.92,2.72-1.58,5-2,6.75s-.7,3.12-.86,4-.35,1.41-.6,1.54a2.17,2.17,0,0,1-1.16.15,8.45,8.45,0,0,1-1.47-.25,10,10,0,0,1-1.3-.43,1.44,1.44,0,0,1-.68-.44,7.58,7.58,0,0,1-.06-1.19c0-.74,0-1.69,0-2.85s0-2.48.05-4,.08-3,.13-4.52.11-3,.19-4.54.14-2.83.19-4,.09-2.18.12-3a5.32,5.32,0,0,0,0-1.32c-.15-.32,0-.54.38-.67a3.88,3.88,0,0,1,1.42-.14,7.49,7.49,0,0,1,1.61.29c.53.16.85.36,1,.6a4.69,4.69,0,0,1,.07,1.3q0,1.1-.13,2.8t-.21,3.74L133,96.72q1-2.58,2.14-5.25t2.23-4.91c.72-1.49,1.38-2.78,2-3.87a16.66,16.66,0,0,1,1.27-2.13.37.37,0,0,1,.17-.17,2.13,2.13,0,0,1,1.1-.09,5.46,5.46,0,0,1,1.39.39,5.93,5.93,0,0,1,1.29.75,2.38,2.38,0,0,1,.78.94,3,3,0,0,1,.11.93q0,.68-.06,1.67c0,.66-.11,1.39-.19,2.2s-.15,1.65-.23,2.5q.94-2.12,2-4.36t2-4.15c.64-1.28,1.22-2.36,1.74-3.25a11.31,11.31,0,0,1,1.13-1.7s0,0,0,0,0,0,.1-.06h.12a.64.64,0,0,1,.23,0,6,6,0,0,1,2.25.55,4.81,4.81,0,0,1,1.23.83,3.29,3.29,0,0,1,.87,1.32,4.93,4.93,0,0,1,.08,2q-.14,1.39-.45,3.14t-.67,3.7q-.36,1.95-.63,3.7t-.35,3.13a5,5,0,0,0,.16,2,5.84,5.84,0,0,0,2.29-1.84,17.21,17.21,0,0,0,2.06-3.32A40.87,40.87,0,0,0,161,87Q161.84,84.71,162.46,82.31ZM129.59,103.1c0-.14,0-.28,0-.44a3.35,3.35,0,0,0,0-.48c0-.16,0-.34,0-.54a3.47,3.47,0,0,1,0-.57q0-.52,0-1c0-.16,0-.33,0-.49s0-.31,0-.45a1.5,1.5,0,0,0,0-.39,1.26,1.26,0,0,1,0-.28,1.68,1.68,0,0,1,0-.25,2,2,0,0,1,0,.27,3.52,3.52,0,0,0,0,.66,4.7,4.7,0,0,0-.08.93,4,4,0,0,1,0,.53,2.83,2.83,0,0,0,0,.57q0,.52,0,1c0,.16,0,.33,0,.49s0,.31,0,.45a3.82,3.82,0,0,0,0,.41,1.26,1.26,0,0,1,0,.26,1.37,1.37,0,0,1,0,.24,2.24,2.24,0,0,1,0-.27.54.54,0,0,0,0-.27Q129.6,103.35,129.59,103.1Zm-.36-4.45c0,.37,0,.7,0,1s0,.53,0,.72,0,.44,0,.63a3,3,0,0,1,0-.66q0-.31,0-.73t0-1c0-.37,0-.76.06-1.16s0-.84.06-1.3.05-.89.07-1.36,0-.93.05-1.4,0-.93.06-1.4,0-.92,0-1.38,0-.9,0-1.29,0-.77,0-1.14q0-.86-.07-1.72a1.36,1.36,0,0,1,0-.25l0-.21a.32.32,0,0,0,0-.18q0,.29,0,.64c0,.19,0,.43,0,.73s0,.63-.05,1-.05.76-.07,1.16,0,.82-.08,1.26,0,.91,0,1.38,0,.93-.06,1.4q-.09,1.46-.13,2.81C129.25,97.12,129.24,97.93,129.23,98.66Zm1,1.94c0-.23,0-.48,0-.73s0-.52.06-.79,0-.56.07-.84,0-.58.05-.88,0-.59,0-.87,0-.55,0-.81a4.28,4.28,0,0,0,0-.79,5.9,5.9,0,0,1,0-.73c0-.22,0-.41,0-.59a3.61,3.61,0,0,0,0-.45.31.31,0,0,0,0-.16.13.13,0,0,1,0-.12.12.12,0,0,1,0-.1.12.12,0,0,1,0,.1.27.27,0,0,0,0,.14,1.14,1.14,0,0,1,0,.17l-.05.47-.06.57c0,.23,0,.48,0,.73s0,.52-.07.79,0,.55-.05.83,0,.57,0,.87,0,.6,0,.89a8.14,8.14,0,0,1,0,.85,4.73,4.73,0,0,0,0,.77c0,.24,0,.47,0,.7a4.54,4.54,0,0,0,0,.58,4.29,4.29,0,0,1,0,.48.93.93,0,0,1,0,.31.12.12,0,0,0,0,.1,2.39,2.39,0,0,1,.08-.44c0-.14,0-.29,0-.44Zm6.85-11.84a6.77,6.77,0,0,0,.41-.93,5.2,5.2,0,0,1,.31-.74l.26-.65-.33.63q-.17.32-.34.73c-.12.28-.27.59-.44.92l-.5,1.12-.56,1.25-.6,1.34-.59,1.34q-.6,1.45-1.08,2.71-.28.67-.48,1.28a9.07,9.07,0,0,1-.43,1.11q-.22.55-.34,1a5.4,5.4,0,0,1-.27.74l-.06.25a1.14,1.14,0,0,1-.08.21l-.09.19c.06-.19.14-.41.22-.65s.2-.46.3-.74.23-.59.39-.93q.45-1.05,1-2.39L135,93.82q.57-1.38,1.14-2.71Zm3.66,4.9q.07-.65.07-1l.06-.41a.93.93,0,0,1-.06.41c0,.14,0,.29-.09.47s-.07.37-.1.58a9.09,9.09,0,0,0-.22,1.5,4.48,4.48,0,0,0-.12.85,4.75,4.75,0,0,1-.12.85c-.06.32-.1.62-.12.9s-.06.57-.09.84-.06.53-.08.79,0,.49,0,.72c0,.46,0,.81,0,1a1.49,1.49,0,0,0,0,.39l0-.41c0-.23,0-.57.11-1s.14-1,.21-1.52.14-1.14.2-1.71a4.29,4.29,0,0,0,.11-.87,4.07,4.07,0,0,1,.11-.87l.1-.77C140.74,94.12,140.77,93.88,140.78,93.65Zm4-8.67a1,1,0,0,0,0,.34.7.7,0,0,1,0,.23.58.58,0,0,0,0,.22.45.45,0,0,0,0-.2,1.6,1.6,0,0,0,0-.25,2.06,2.06,0,0,1,0-.35q0-.39.07-.84a3.42,3.42,0,0,0,0-.9,2.56,2.56,0,0,0-.2-.92.61.61,0,0,1-.14-.2.36.36,0,0,0-.13-.16,3,3,0,0,0-.29-.26,1.37,1.37,0,0,0-.5-.32.15.15,0,0,1-.1-.1s0,0-.07,0l0,0a.15.15,0,0,0,.1.1.38.38,0,0,1,.21.15,1,1,0,0,0,.25.23.66.66,0,0,1,.24.28,1.06,1.06,0,0,1,.2.34,3.48,3.48,0,0,1,.14.42,4,4,0,0,1,.09.44,2.31,2.31,0,0,0,0,.45,2.33,2.33,0,0,1,0,.45,2.62,2.62,0,0,0,0,.43A1.5,1.5,0,0,1,144.77,85Zm3.58-1.37a8.75,8.75,0,0,1,.4-.87q.22-.42.42-.83a8.77,8.77,0,0,1,.37-.81c.13-.24.24-.47.35-.71a3.82,3.82,0,0,0,.28-.58,2.94,2.94,0,0,1,.21-.46.72.72,0,0,0,.08-.17.37.37,0,0,1,0-.11l.07-.12-.22.37-.26.48c-.1.2-.22.4-.34.6l-.4.67c-.14.25-.28.51-.41.78a6.63,6.63,0,0,1-.41.85,6.44,6.44,0,0,0-.41.85l-.42.88c-.13.27-.27.55-.43.84a4.55,4.55,0,0,1-.3.79c-.12.24-.23.48-.33.71s-.19.43-.26.61a4,4,0,0,1-.2.44,2.28,2.28,0,0,0-.19.41l.2-.37.25-.46c.1-.18.2-.39.31-.63s.23-.43.35-.67.24-.51.36-.81.26-.55.41-.83S148.19,83.9,148.36,83.61Zm2.37,12a.63.63,0,0,0,0-.29.66.66,0,0,1,0-.23.44.44,0,0,1,0-.2s0,0,0,.06a.08.08,0,0,1,0,.07.08.08,0,0,0,0,.07,2,2,0,0,0-.13.53l0,.73a2.31,2.31,0,0,0,0,.45c0,.14,0,.28.06.43a3.86,3.86,0,0,0,.09.42,3,3,0,0,0,.14.4,1.51,1.51,0,0,0,.42.59,1.93,1.93,0,0,0,.21.22l.17.14.2.06s-.05,0-.07,0,0,0,0,0,0,0-.06-.07a2.45,2.45,0,0,1-.31-.35A2,2,0,0,1,151,98a4.86,4.86,0,0,1-.19-.8c0-.15,0-.28-.05-.41s0-.26-.05-.41A3.78,3.78,0,0,0,150.73,95.64Zm.71-4.94c0-.3.08-.6.13-.9l.17-1a8,8,0,0,0,.16-.94,7.57,7.57,0,0,1,.16-.94l.15-.81a7,7,0,0,0,.1-.79c0-.23.06-.44.08-.62s0-.36.06-.52,0-.31.06-.45a.89.89,0,0,1-.06.45,2.88,2.88,0,0,1-.1.51c0,.18-.11.39-.17.63l-.3,1.63c-.07.31-.14.62-.19.93l-.17,1a7.38,7.38,0,0,0-.15.94,5.23,5.23,0,0,1-.17.89q-.11.9-.21,1.65a5.33,5.33,0,0,0-.07.67,3.81,3.81,0,0,1,0,.47l-.07.41a.92.92,0,0,1,.07-.41c0-.13.05-.3.09-.49s.09-.41.14-.65l.14-.81A7.87,7.87,0,0,1,151.44,90.7ZM150.51,80q.2-.41.38-.81a6.49,6.49,0,0,1,.36-.7,1.08,1.08,0,0,0,.11-.25,1.11,1.11,0,0,1,.11-.26l.11-.18-.11.18a1.34,1.34,0,0,1-.18.23,1.33,1.33,0,0,0-.18.23c-.12.2-.25.44-.39.69a8.91,8.91,0,0,0-.4.84c-.13.27-.26.54-.38.81a6.9,6.9,0,0,1-.35.71,4.48,4.48,0,0,0-.2.55c0,.08-.07.14-.06.16l.39-.67q.18-.31.39-.7A9.09,9.09,0,0,0,150.51,80Z"/><path d="M187.2,75a.89.89,0,0,1,.89-.69,2.79,2.79,0,0,1,1.38.39,3.9,3.9,0,0,1,1.18,1,1.16,1.16,0,0,1,.27,1.15,33.09,33.09,0,0,1-2,4.5,28.39,28.39,0,0,1-3.3,4.93,27.77,27.77,0,0,1-4.82,4.54,23,23,0,0,1-6.68,3.37l-.1,0,0,0-.1,0a7.21,7.21,0,0,1-2.3.28,7.41,7.41,0,0,1-3.85-1.26,12,12,0,0,1-1.48-1.16q-.33,3.69-.57,7.3c-.16,2.4-.26,4.57-.33,6.5s-.1,3.53-.09,4.82a10,10,0,0,0,.16,2.29q.11.29-.65.36a9.37,9.37,0,0,1-1.71,0,9.53,9.53,0,0,1-1.85-.33c-.6-.17-.95-.38-1-.62a10,10,0,0,1,0-2c0-1.17.09-2.68.18-4.53s.22-3.95.41-6.27.4-4.72.65-7.18.51-4.88.78-7.26.53-4.52.75-6.42.41-3.48.54-4.75a9,9,0,0,0,.09-2.23q-.33-1,.29-1.18a2.63,2.63,0,0,1,1.52.11,7.27,7.27,0,0,1,1.75.85,2.3,2.3,0,0,1,1,1.06,4.75,4.75,0,0,1,0,1.12q0,.91-.21,2.35a36.37,36.37,0,0,1,3.07-5,6.33,6.33,0,0,1,3-2.51,3.21,3.21,0,0,1,1.57,0,4.13,4.13,0,0,1,1.74.9A7.87,7.87,0,0,1,179,71.6,14,14,0,0,1,180.34,75a13,13,0,0,1,.4,2.49,23.76,23.76,0,0,1,0,2.91,30.22,30.22,0,0,1-.33,3.1,23.76,23.76,0,0,1-.69,3.07,22.73,22.73,0,0,0,2.81-2.89,26.65,26.65,0,0,0,2.15-3.06,23.44,23.44,0,0,0,1.53-3A27.58,27.58,0,0,0,187.2,75Zm-25.95,32.83c0-.44,0-.89,0-1.34s0-.85.05-1.2,0-.76,0-1.15l0,.3a1.83,1.83,0,0,0-.06.4c0,.16,0,.32,0,.48s0,.34-.06.54a3,3,0,0,0,0,.62c0,.23,0,.45-.07.66s0,.45-.05.7a3.32,3.32,0,0,1,0,.68,3.76,3.76,0,0,0,0,.64,11.22,11.22,0,0,1,0,1.19,3.73,3.73,0,0,0,0,.85c0,.12,0,.23,0,.32l0-.3a1.32,1.32,0,0,0,0-.37c0-.14,0-.31,0-.49s0-.34.05-.54a3.1,3.1,0,0,0,0-.62c0-.23,0-.45,0-.67S161.24,108.1,161.25,107.84ZM163.58,78q0-.33,0-.56a2.13,2.13,0,0,1,.06-.44,2.28,2.28,0,0,0,.06-.34l-.05,0q0,.61-.13,1.34t-.21,1.53q-.14.86-.23,2-.29,2.19-.63,5t-.58,5.67q-.54,5.34-.91,10.65-.17,2.56-.32,4.79l.06,0a2.26,2.26,0,0,1,0-.34c0-.13,0-.27.05-.42s0-.33.05-.56a12.61,12.61,0,0,1,.14-1.54q.13-.87.2-2c.09-.72.18-1.5.27-2.33s.17-1.7.24-2.6S161.85,96,162,95s.22-1.93.32-2.9.15-1.91.24-2.86.19-1.88.29-2.78.19-1.81.28-2.63.17-1.6.23-2.33c0-.38,0-.73.08-1s0-.63.05-.95a6.26,6.26,0,0,0,.1-.82Q163.58,78.31,163.58,78Zm3.66,10c.09.5.22,1,.38,1.63a7,7,0,0,0,.65,1.61,3.05,3.05,0,0,0,1,1.1,1.56,1.56,0,0,0,1.39.12,5.88,5.88,0,0,0,2.74-1.88,11.61,11.61,0,0,0,1.83-3.14,17.74,17.74,0,0,0,1-3.91,33.27,33.27,0,0,0,.37-4.16,31,31,0,0,0-.13-3.89,18.34,18.34,0,0,0-.56-3.15,8.59,8.59,0,0,0-2.43,2.54,38.34,38.34,0,0,0-2.8,4.73A68.06,68.06,0,0,0,167.24,88Zm-.15-8.7c-.08.24-.14.45-.19.64s-.1.35-.13.48a1.36,1.36,0,0,0-.08.44.12.12,0,0,1,0-.1l.13-.32a4.54,4.54,0,0,1,.16-.49c.07-.19.14-.41.22-.65l.33-.75c.11-.25.23-.52.37-.81a9.32,9.32,0,0,1,.38-.88q.23-.46.49-.92.42-.87,1-1.77a15.31,15.31,0,0,1,.93-1.53c.13-.22.25-.42.37-.6l.31-.44a.46.46,0,0,0,.09-.19.26.26,0,0,1,0-.13l.08-.12-.08.12-.2.29-.33.45a5,5,0,0,0-.4.6,6.62,6.62,0,0,0-.49.68c-.16.25-.33.52-.5.82s-.35.6-.51.89-.33.59-.5.89l-.44.9a9.18,9.18,0,0,0-.38.88,7.84,7.84,0,0,0-.34.83C167.3,78.76,167.2,79,167.09,79.27Zm4.7-5.25-.64.93q-.2.29-.39.62c-.12.22-.24.46-.36.71s-.29.52-.42.78l-.41.82a8,8,0,0,1-.35.8c-.13.26-.25.51-.36.76s-.2.53-.3.77-.19.44-.29.62-.15.4-.21.58-.1.33-.14.46a1.07,1.07,0,0,0-.11.36c0-.11.1-.23.16-.38l.16-.4a5.89,5.89,0,0,1,.27-.57c.08-.21.18-.44.3-.67s.23-.48.34-.73.23-.5.36-.76a8,8,0,0,0,.35-.8l.41-.82c.13-.26.25-.51.37-.76s.23-.49.36-.71.25-.43.39-.62a2.49,2.49,0,0,0,.29-.55,1.93,1.93,0,0,1,.22-.43,1.36,1.36,0,0,1,.24-.35Zm4.59,13.85a.37.37,0,0,0,.05-.11.34.34,0,0,1,.05-.11l0-.06-.64,1a5.19,5.19,0,0,1-.29.5l-.33.52a5.55,5.55,0,0,0-.42.59,6,6,0,0,1-.43.55,4.82,4.82,0,0,0-.49.52l-.25.24-.25.24c-.23.2-.38.34-.47.43l-.27.18-.22.16c-.29.22-.55.39-.76.52a.67.67,0,0,1-.23.12s0,0,0,.06l0,0a.67.67,0,0,0,.23-.12l.39-.22a3.63,3.63,0,0,0,.43-.28,1.09,1.09,0,0,1,.23-.14.88.88,0,0,0,.26-.2,3.91,3.91,0,0,0,.53-.4,4.49,4.49,0,0,0,.5-.48,3.49,3.49,0,0,0,.54-.54,12.31,12.31,0,0,0,.8-1.14c.24-.4.45-.74.61-1l.22-.44A3.49,3.49,0,0,0,176.38,87.86Zm1.15-6.61c0-.24,0-.49,0-.73s0-.49,0-.73a5.36,5.36,0,0,0,0-.7,4.81,4.81,0,0,1,0-.7c0-.21,0-.41-.06-.6s0-.39-.06-.6c0-.39-.08-.72-.12-1s-.08-.55-.11-.79a1.2,1.2,0,0,1-.05-.28.82.82,0,0,0,0-.2l0-.17,0,.68q0,.37,0,.82c0,.3,0,.63.06,1l.06.6a4.09,4.09,0,0,1,0,.62c0,.25,0,.47,0,.69s0,.44,0,.69,0,.49,0,.72,0,.48,0,.72,0,.49,0,.74a4.33,4.33,0,0,1-.14.77c0,.15,0,.28,0,.39a1.8,1.8,0,0,1-.06.36,3.13,3.13,0,0,0-.08.39,3.49,3.49,0,0,1-.08.39c0,.13-.06.26-.08.37s-.05.24-.08.37a1.7,1.7,0,0,0-.1.33q0,.17-.08.37a3.5,3.5,0,0,0-.23.69,2.5,2.5,0,0,1-.25.65l-.13.31-.13.31a1.5,1.5,0,0,0-.14.27,1.59,1.59,0,0,1-.14.27l-.26.49q-.12.22-.27.45a2.31,2.31,0,0,1-.21.39,2.46,2.46,0,0,0-.27.36l-.41.63.11-.17a1.21,1.21,0,0,1,.18-.22l.23-.23a1.48,1.48,0,0,0,.23-.3,1.26,1.26,0,0,1,.14-.18,1.23,1.23,0,0,0,.14-.18l.3-.46.34-.52a1.49,1.49,0,0,0,.14-.27.9.9,0,0,1,.19-.29l.12-.31.13-.31a4.64,4.64,0,0,0,.53-1.35c0-.1.08-.21.12-.33s.07-.24.11-.38.06-.26.09-.37,0-.24.08-.37a2.46,2.46,0,0,0,.16-.78,1.77,1.77,0,0,0,.06-.36,3.25,3.25,0,0,1,0-.4c0-.25.07-.51.09-.76S177.49,81.5,177.53,81.25Zm-4.42-9.83-.29.29-.29.29-.32.37-.27.36c-.08.12-.16.24-.24.37s-.15.25-.24.37l-.2.38a3.38,3.38,0,0,0-.16.32,1.47,1.47,0,0,0-.2.48l-.05.2.12-.17a1.74,1.74,0,0,0,.13-.22l.12-.27c.13-.19.27-.41.41-.65a5.54,5.54,0,0,1,.51-.73,2.3,2.3,0,0,1,.54-.71l.25-.35a.68.68,0,0,0,.14-.13.68.68,0,0,1,.14-.13,2.06,2.06,0,0,0,.41-.39.13.13,0,0,0,.07,0,.14.14,0,0,1,.07,0s0,0,0-.06l-.19.15A4.82,4.82,0,0,0,173.1,71.42Z"/><path d="M215,69.09c.09-.13.35-.17.78-.11a4.4,4.4,0,0,1,1.34.43,3.17,3.17,0,0,1,1.13.91,1.29,1.29,0,0,1,.15,1.31A24,24,0,0,1,217.17,74q-.8,1.37-1.83,2.92T213.16,80a31.2,31.2,0,0,1-2.35,2.87,19.34,19.34,0,0,1-2.37,2.19,5.27,5.27,0,0,1-2.18,1.09,4.06,4.06,0,0,1-1.41,0,4.42,4.42,0,0,1-2.73-1.61,3.93,3.93,0,0,1-.77-1.73,5.44,5.44,0,0,1,.09-1.94,27.63,27.63,0,0,1,.68-2.8q.45-1.54,1-3.19t1-3.14q.49-1.5.78-2.66a4.63,4.63,0,0,0,.18-1.77,101.88,101.88,0,0,0-7.48,10.23c-2,3.22-3.66,5.9-4.94,8,0,.06-.05.15-.2.27-.68,1.18-1.26,2.13-1.74,2.82s-.85,1.07-1.12,1.14a2.74,2.74,0,0,1-1.1.05,3.21,3.21,0,0,1-1-.33,5.44,5.44,0,0,1-.83-.53,1.61,1.61,0,0,1-.51-.61l-.06-.21a12,12,0,0,1-.19-3.38c.07-1.52.25-3.26.54-5.22s.66-4.09,1.11-6.37,1-4.55,1.51-6.82,1.14-4.45,1.74-6.55,1.16-4,1.66-5.6.91-3,1.22-4a13.94,13.94,0,0,0,.45-1.59c-.08-.4.12-.59.61-.55a5.89,5.89,0,0,1,1.71.45,8.79,8.79,0,0,1,1.8,1c.55.39.85.73.91,1a8.48,8.48,0,0,1-.46,1.49c-.32.91-.72,2.09-1.19,3.54s-1,3.11-1.61,5-1.17,3.8-1.73,5.79-1.07,4-1.55,6-.85,3.82-1.11,5.51q1-1.49,2.17-3.27T196.2,71q1.32-1.81,2.69-3.49t2.63-3a21,21,0,0,1,2.32-2.17,4.38,4.38,0,0,1,1.73-1,2.87,2.87,0,0,1,1.18.09,4.62,4.62,0,0,1,1.38.64,4.75,4.75,0,0,1,1.24,1.24,4.63,4.63,0,0,1,.73,2,5.18,5.18,0,0,1-.26,1.86q-.35,1.3-.89,3t-1.17,3.58q-.62,1.89-1.13,3.56t-.81,2.94a5,5,0,0,0-.21,1.74,4.38,4.38,0,0,0,1.94-1.47,32.35,32.35,0,0,0,2.58-3.27q1.36-1.94,2.68-4.12A37.94,37.94,0,0,0,215,69.09Zm-28,10.64,0-.64a3.22,3.22,0,0,1,.06-.51l.06-.42-.06.42c0,.16-.07.33-.12.51a3.17,3.17,0,0,0-.09.63,4.55,4.55,0,0,1-.11.77c-.06.27-.11.55-.14.83s-.06.61-.09.91-.08.62-.13,1,0,.62-.06.92,0,.61-.06.92,0,.59,0,.86a6.67,6.67,0,0,0,0,.76,3.21,3.21,0,0,0,.06.62,1.79,1.79,0,0,0,.07.48.61.61,0,0,0,.07.16.51.51,0,0,1,.06.12l0,.13,0-.13-.08-.3a1.13,1.13,0,0,1,0-.22,1.35,1.35,0,0,0,0-.26c0-.12,0-.33,0-.63s0-.5,0-.75,0-.54,0-.84.06-.61.09-.91.06-.61.08-1l.09-.93.09-.93c0-.28.08-.56.12-.82A6.9,6.9,0,0,0,186.95,79.74Zm3.92-.83q0-.51.12-1c.05-.33.09-.65.13-1l.1-.86c0-.26.06-.49.09-.68a.63.63,0,0,0,0-.23.34.34,0,0,1,0-.18.33.33,0,0,1,0-.18c0,.16-.08.35-.14.57s-.07.41-.12.68-.11.56-.18.88-.14.66-.2,1-.13.75-.22,1.16c0,.09,0,.18,0,.26s0,.17,0,.26l.24-.35Zm2-11.82c0,.13-.08.24-.1.31s0,.15-.06.22a.59.59,0,0,0,0,.18c.06-.22.14-.47.24-.73s.16-.49.28-.8.25-.68.39-1.1.24-.79.39-1.23.31-.91.47-1.42.33-1,.49-1.49l.49-1.54q.29-.82.52-1.59t.49-1.49c.17-.51.32-1,.45-1.43s.25-.86.37-1.24.22-.73.3-1,.15-.59.22-.85a4.92,4.92,0,0,0,.21-.76.44.44,0,0,0-.08.19,4.31,4.31,0,0,1-.19.53c-.07.22-.18.5-.31.82s-.26.68-.38,1.06-.26.8-.43,1.25l-.51,1.4q-.26.73-.51,1.49T195,59.44q-.25.77-.46,1.53t-.45,1.53q-.25.73-.42,1.39t-.32,1.28q-.16.57-.28,1.05C193,66.55,193,66.84,192.9,67.09ZM195.29,57c-.07.22-.12.41-.15.55a2.55,2.55,0,0,1-.12.41,1.42,1.42,0,0,0-.1.38,2.85,2.85,0,0,0,.16-.35q.13-.48.33-1c.08-.2.15-.4.23-.61s.16-.44.27-.7.2-.52.28-.77.18-.51.29-.77a6.82,6.82,0,0,0,.26-.77,6.38,6.38,0,0,1,.26-.77c.07-.25.14-.49.21-.71s.15-.43.23-.63.08-.36.11-.51a2.16,2.16,0,0,1,.13-.43,1.51,1.51,0,0,0,.11-.38Q197,52,196.23,54.09a8.68,8.68,0,0,1-.51,1.54q-.1.38-.21.71T195.29,57Zm8.82,18.23-.11.29a3.15,3.15,0,0,0-.17.39c-.06.16-.11.32-.15.48s-.1.33-.17.52a5.8,5.8,0,0,0-.2.66,5.81,5.81,0,0,0-.25.67c-.07.22-.13.46-.19.71s-.12.49-.18.71a4.55,4.55,0,0,0-.14.65c0,.24,0,.46-.06.66a5.35,5.35,0,0,1-.07.57,1.31,1.31,0,0,0,0,.49,1,1,0,0,1,0,.35l.07.34,0-.09a.72.72,0,0,1,0-.27,1.52,1.52,0,0,0,0-.36,1.89,1.89,0,0,1,0-.5c0-.16.08-.34.11-.54s.06-.42.08-.67l.19-.66q.1-.33.18-.71c.06-.25.12-.49.19-.71l.2-.66a3.67,3.67,0,0,1,.15-.63c.07-.21.12-.39.17-.55Zm-.68-11.8a6.92,6.92,0,0,1,.84-.71,5.59,5.59,0,0,1,.92-.54l.51-.16a1.36,1.36,0,0,1,.53,0,4.55,4.55,0,0,1,.83.22,3,3,0,0,1,.63.36l.45.35a.71.71,0,0,0,.26.22.12.12,0,0,1,.07.08l-.07-.08a.44.44,0,0,1-.27-.27l-.17-.17a1.19,1.19,0,0,0-.22-.16,1.17,1.17,0,0,0-.57-.39,2.11,2.11,0,0,0-1-.28,2.14,2.14,0,0,0-1,.18,4.89,4.89,0,0,0-1,.56,6.82,6.82,0,0,0-.84.71l-.74.76c-.24.25-.48.52-.73.81s-.42.5-.62.74l-.53.64q-.28.32-.48.58c-.13.18-.24.33-.33.47l-.32.38.32-.38a4.64,4.64,0,0,0,.4-.41l.48-.56.58-.65c.2-.22.41-.46.62-.74l.73-.76ZM204,74.06c.08-.34.17-.67.25-1a9.9,9.9,0,0,1,.32-1q.13-.47.22-.89c.06-.28.12-.54.19-.79s.12-.47.16-.67a5.44,5.44,0,0,1,.12-.54.31.31,0,0,0,0-.16.31.31,0,0,1,0-.16.16.16,0,0,1,0-.14s0,0,0,.1a.34.34,0,0,0,0,.18.33.33,0,0,1,0,.18l-.16.52q-.09.28-.24.67c-.13.5-.29,1.07-.49,1.7s-.4,1.26-.61,1.9q-.18.52-.3,1l-.26.94a8.83,8.83,0,0,0-.29.9q-.11.42-.2.8c-.06.25-.12.47-.17.66l-.14.52a1.26,1.26,0,0,0-.12.47c0-.13.11-.27.18-.44l.14-.52c.05-.19.13-.41.22-.67s.18-.53.25-.81a5.78,5.78,0,0,1,.3-.86c.12-.32.22-.64.31-1S203.89,74.41,204,74.06Z"/><path d="M227.92,67.89c.09-.16.31-.21.64-.17a2.73,2.73,0,0,1,1,.39,4.14,4.14,0,0,1,1,.9,2.26,2.26,0,0,1,.54,1.28,4.21,4.21,0,0,1-.42,1.62,21.52,21.52,0,0,1-1.3,2.61,35.82,35.82,0,0,1-2,3.06,23.6,23.6,0,0,1-2.53,3A17.78,17.78,0,0,1,222,82.91a7.72,7.72,0,0,1-3.15,1.21,4.68,4.68,0,0,1-1.5-.15,10.06,10.06,0,0,1-2-.68,9.31,9.31,0,0,1-1.87-1.11,2.38,2.38,0,0,1-1-1.51,9.39,9.39,0,0,1,.14-2.78,37,37,0,0,1,.91-4q.61-2.18,1.37-4.46t1.48-4.16c.47-1.25.9-2.29,1.28-3.12s.6-1.3.66-1.39.52-.27,1-.12a4.77,4.77,0,0,1,1.35.74,7.34,7.34,0,0,1,1.19,1.14,2.26,2.26,0,0,1,.57,1.11,7.37,7.37,0,0,1-.46,1.49q-.48,1.32-1.18,3.15t-1.46,3.92Q218.57,74.27,218,76a29.78,29.78,0,0,0-.79,2.9c-.16.76-.11,1.13.13,1.09A7,7,0,0,0,221,78.37a17.63,17.63,0,0,0,2.92-3.2,31.56,31.56,0,0,0,2.33-3.81C226.9,70,227.48,68.88,227.92,67.89ZM213.18,78.6a7.2,7.2,0,0,1,.2-.79l.24-.88.3-1.16a6.09,6.09,0,0,1,.17-.67,4.62,4.62,0,0,0,.16-.71l.21-.74a6.91,6.91,0,0,1,.27-.75q.21-.78.47-1.62t.58-1.68l.53-1.67q.27-.83.55-1.63a5.67,5.67,0,0,0,.23-.56l.1-.32c0-.09,0-.19.07-.3a3.7,3.7,0,0,1,.16-.49q.25-.65.4-1.16l.28-.88a2.29,2.29,0,0,0,.12-.33,1.38,1.38,0,0,1,.08-.23,1.41,1.41,0,0,1,.08-.23h-.06l-.35.75q-.17.38-.36.89t-.43,1.12c-.33.84-.62,1.6-.88,2.27s-.56,1.56-.91,2.68-.72,2.22-1,3.3-.53,2.06-.71,2.95q-.12.64-.22,1.17t-.16.89a.88.88,0,0,0,0,.36.42.42,0,0,1,0,.23A.66.66,0,0,0,213.18,78.6Zm1.83-4.5.11-.55a4.73,4.73,0,0,1,.12-.46,1.35,1.35,0,0,0,.1-.41,1.5,1.5,0,0,1-.11.37l-.18.45a3.73,3.73,0,0,0-.16.58q-.23.66-.44,1.4l-.39,1.66-.19.83a7,7,0,0,0-.14.82l-.1.73a5.28,5.28,0,0,0,0,.72,1.73,1.73,0,0,0,0,.56l.07.46a.33.33,0,0,0,.14.24.12.12,0,0,0,.06.08.13.13,0,0,1-.06-.08s-.07-.11-.09-.25a4.26,4.26,0,0,1,0-1c0-.21.07-.44.11-.68l.1-.73.39-1.66a6.87,6.87,0,0,1,.14-.82q.1-.41.2-.79t.21-.76A6,6,0,0,0,215,74.11Zm8-15.77a1.29,1.29,0,0,1-.73-.23,7.48,7.48,0,0,1-.92-.62,5.06,5.06,0,0,1-.8-.77,2.57,2.57,0,0,1-.41-.61,4.44,4.44,0,0,1,.25-1.25,16.94,16.94,0,0,1,.76-2.08,15.31,15.31,0,0,1,1-2c.38-.6.7-.92,1-.94a2,2,0,0,1,1.17.36,9.46,9.46,0,0,1,1.34.95,14,14,0,0,1,1.11,1,1.8,1.8,0,0,1,.49.68,3,3,0,0,1-.53,1q-.55.85-1.3,1.83T224,57.5C223.51,58,223.18,58.32,223,58.34Zm1.78,18.85.3-.34.35-.44a4.25,4.25,0,0,0,.32-.48,3.94,3.94,0,0,1,.32-.48,4.11,4.11,0,0,0,.32-.48l.27-.47.27-.47c.09-.16.16-.3.22-.42a3.32,3.32,0,0,0,.15-.37.72.72,0,0,1,.16-.28,1.52,1.52,0,0,1,.08-.23,2.26,2.26,0,0,1-.14.23,1.17,1.17,0,0,0-.19.26l-.18.35a9.24,9.24,0,0,0-.55.85l-.27.47a4.2,4.2,0,0,1-.32.48,4,4,0,0,0-.32.48,4.12,4.12,0,0,1-.32.48,2.77,2.77,0,0,1-.29.43c-.11.13-.21.26-.3.39l-.41.58a.56.56,0,0,1-.19.2l.19-.2A2.11,2.11,0,0,0,224.78,77.19ZM228.49,72l.15-.41a1.37,1.37,0,0,1,.16-.32l.13-.28-.13.28-.21.31a1.71,1.71,0,0,0-.2.39,2.72,2.72,0,0,1-.25.49,5.36,5.36,0,0,0-.29.54c-.09.18-.19.37-.29.56l-.34.61-.68,1.13a3.85,3.85,0,0,1-.29.52c-.11.16-.2.32-.29.47s-.17.29-.25.4a2.11,2.11,0,0,1-.21.27.69.69,0,0,1-.14.19l0,0,0,0a.16.16,0,0,1,.07-.05s.06,0,.12-.1a1.88,1.88,0,0,1,.23-.29,1.91,1.91,0,0,0,.28-.38q.13-.23.29-.47c.11-.16.22-.32.35-.48l.68-1.13.34-.61q.16-.28.29-.56l.27-.56C228.36,72.35,228.43,72.18,228.49,72Z"/><path d="M252.73,66.84a.75.75,0,0,1,.94-.45,2.89,2.89,0,0,1,1.19.7,3.52,3.52,0,0,1,.86,1.23,1.32,1.32,0,0,1,0,1.19,32.48,32.48,0,0,1-2.8,3.9,26.7,26.7,0,0,1-4.09,4,25.48,25.48,0,0,1-5.39,3.24,20.53,20.53,0,0,1-6.84,1.67l-.68.11-.69.07a6.08,6.08,0,0,1-2.62-.3,4.92,4.92,0,0,1-1.8-1.14,4.7,4.7,0,0,1-1.06-1.67,4.85,4.85,0,0,1-.33-1.82,4.36,4.36,0,0,1,.21-1.39,1.85,1.85,0,0,1,.43-.72.66.66,0,0,1,.43-.22c.12,0,.19,0,.2.14a2.57,2.57,0,0,0,.78,2,4,4,0,0,0,2,.94,8.82,8.82,0,0,0,2.61.09,11.1,11.1,0,0,0,2.62-.57,7.27,7.27,0,0,0,2-1.06,2,2,0,0,0,.89-1.43c0-.41-.31-.73-1-1a16.13,16.13,0,0,0-2.52-.6l-3.29-.55a18.59,18.59,0,0,1-3.31-.84A7,7,0,0,1,229,70.84a3.42,3.42,0,0,1-1-2.6,5.62,5.62,0,0,1,.84-2.88,11.62,11.62,0,0,1,2.16-2.6,19.26,19.26,0,0,1,3-2.22,24.36,24.36,0,0,1,3.33-1.7,27.18,27.18,0,0,1,3.14-1.1,11.22,11.22,0,0,1,2.41-.44,2.48,2.48,0,0,1,1.61.44A3.73,3.73,0,0,1,245.5,59a5.51,5.51,0,0,1,.58,1.61,6.38,6.38,0,0,1,.13,1.51,4.06,4.06,0,0,1-.44,1.51,11.81,11.81,0,0,1-.92,1.59,11.39,11.39,0,0,1-1,1.25c-.31.34-.52.51-.63.51l-.78,0a10,10,0,0,1-1.14,0,4.33,4.33,0,0,1-1-.19c-.31-.1-.46-.25-.43-.46a3,3,0,0,1,.38-.94L241,64l.76-1.36a3.06,3.06,0,0,0,.4-.94c0-.12-.27-.12-.8,0a12.24,12.24,0,0,0-2,.65q-1.18.49-2.56,1.19a20,20,0,0,0-2.55,1.54,13.09,13.09,0,0,0-2,1.69,2.42,2.42,0,0,0-.78,1.65c0,.09.32.18.94.27l2.32.37q1.39.23,3,.63a19.89,19.89,0,0,1,3.05,1,8.36,8.36,0,0,1,2.36,1.47,2.8,2.8,0,0,1,1,2c0,.32,0,.62,0,.88s0,.51,0,.75a22.37,22.37,0,0,0,5.32-4.41A25,25,0,0,0,252.73,66.84ZM229.1,66l.28-.49a3.2,3.2,0,0,1,.34-.49l.9-1a10.32,10.32,0,0,1,1.1-1l1.22-1a23,23,0,0,1,2.62-1.69q1.36-.75,2.45-1.26l1.06-.46c.31-.13.57-.24.79-.31a1,1,0,0,1,.3-.13l.25-.08h.17s.06,0,.05,0h-.06a.14.14,0,0,0-.08,0,.13.13,0,0,1-.08,0,4.51,4.51,0,0,1-.55.16q-.39.11-.85.29l-1.06.44-1.22.54a11.24,11.24,0,0,0-1.26.68q-.69.4-1.35.82t-1.29.87a16,16,0,0,0-2.31,2,5.05,5.05,0,0,0-.48.53l-.42.52a3.27,3.27,0,0,0-.34.49l-.28.49a2.28,2.28,0,0,0-.35.87l-.12.41a.4.4,0,0,1,0,.16.39.39,0,0,0,0,.16,2,2,0,0,0,0,.49v0a.8.8,0,0,1,0-.2c0-.07,0-.17.05-.29a.81.81,0,0,1,0-.31,3,3,0,0,0,.13-.36,1.56,1.56,0,0,1,.18-.41A2.92,2.92,0,0,1,229.1,66Zm.65-.06.42-.5.47-.55q.25-.29.5-.53a5.79,5.79,0,0,0,.45-.48,2.3,2.3,0,0,1,.3-.33l.15-.14a.67.67,0,0,1-.16.1l-.21.13-.21.17-1,1a4.65,4.65,0,0,0-.77,1.13c-.13.19-.21.31-.24.37a.29.29,0,0,0,0,.14s.05,0,0,0l0-.09c.07-.06.1-.11.1-.14a.37.37,0,0,0,.07-.09A.36.36,0,0,1,229.75,65.91Zm10.46,11.74a.81.81,0,0,0,.2-.14.16.16,0,0,1,.1,0l-.3.15-.41.16a2.24,2.24,0,0,1-.46.2l-.61.19-.66.2-.77.14-.77.14-.78.06a1.5,1.5,0,0,1-.72.05h-.73a1.13,1.13,0,0,0-.31,0,1.17,1.17,0,0,1-.31,0,1.07,1.07,0,0,0-.29,0,.58.58,0,0,1-.24,0l-.43-.1-.32-.11.06,0a1.25,1.25,0,0,0,.27.11l.19.05.19.05a1,1,0,0,0,.26,0,1.11,1.11,0,0,1,.26,0l.68.08a1.24,1.24,0,0,0,.34,0,1.25,1.25,0,0,1,.34,0l.78-.06.77-.05.8-.14a6.06,6.06,0,0,0,.74-.18l.36-.11.36-.11a2.23,2.23,0,0,0,.56-.21l.28-.1.23-.1Z"/><path d="M304.46,68.73a.59.59,0,0,1,.1.82,2.44,2.44,0,0,1-1.09.88,7.27,7.27,0,0,1-2.07.59,9.25,9.25,0,0,1-2.81,0,8.84,8.84,0,0,1-.89-.09c-.3,0-.62-.08-.94-.1-.45.61-1.08,1.35-1.87,2.21s-1.69,1.75-2.7,2.66-2.12,1.81-3.31,2.7a29.26,29.26,0,0,1-3.73,2.35,19.27,19.27,0,0,1-4,1.58,11.74,11.74,0,0,1-4.07.39,7.21,7.21,0,0,1-2.63-.84,9.43,9.43,0,0,1-2.72-2.14,11.29,11.29,0,0,1-2.07-3.42,11.07,11.07,0,0,1-.69-4.7,10.9,10.9,0,0,1,1.61-4.8,29.33,29.33,0,0,1,4-5.31,46.43,46.43,0,0,1,5.6-5.08,49.56,49.56,0,0,1,6.37-4.21,33.13,33.13,0,0,1,6.21-2.69,11.91,11.91,0,0,1,5-.62,7.11,7.11,0,0,1,3,1,6.14,6.14,0,0,1,1.73,1.67,4.46,4.46,0,0,1,.74,1.92,6.2,6.2,0,0,1,0,1.78,4.91,4.91,0,0,1-.84,1.84,19.62,19.62,0,0,1-1.58,2,19.13,19.13,0,0,1-1.61,1.64q-.75.66-1,.63a2.13,2.13,0,0,1-.72-.3,4.47,4.47,0,0,1-.84-.65,5,5,0,0,1-.7-.85,1.29,1.29,0,0,1-.24-.9,2.92,2.92,0,0,1,.81-1.35q.74-.83,1.4-1.62a3.7,3.7,0,0,0,.81-1.41c.1-.41-.25-.68-1-.79a10.79,10.79,0,0,0-4.71.54,25.09,25.09,0,0,0-5.4,2.48,35.42,35.42,0,0,0-5.29,3.92,36.77,36.77,0,0,0-4.52,4.81,28.93,28.93,0,0,0-3.22,5.09,12.9,12.9,0,0,0-1.38,4.79,8.2,8.2,0,0,0,0,1.34,2.36,2.36,0,0,0,.42,1.15,2.64,2.64,0,0,0,1.11.85A6.67,6.67,0,0,0,277,79a10.18,10.18,0,0,0,4.56-.61,16.81,16.81,0,0,0,3.87-2.12,21.56,21.56,0,0,0,3.17-2.82c.92-1,1.71-1.9,2.35-2.68-1.08,0-1.89,0-2.43-.05l-1.39-.14a1.25,1.25,0,0,1-.95-.7,5.34,5.34,0,0,1-.55-1.43,9.87,9.87,0,0,1-.24-1.55,6.75,6.75,0,0,1,0-1.11c0-.09.47-.11,1.38-.07s2,.13,3.4.28,2.84.34,4.44.58,3.11.49,4.52.77,2.62.55,3.63.81A5.91,5.91,0,0,1,304.46,68.73Zm-32.34-2.87a2.8,2.8,0,0,1,.3-.42,3,3,0,0,0,.3-.42q.54-.8.9-1.26a4.26,4.26,0,0,0,.3-.33c0-.06.08-.08.12-.08s-.08,0-.12.08a4.12,4.12,0,0,1-.3.33,14,14,0,0,0-1,1.21c-.2.25-.39.53-.59.82s-.4.63-.6,1a3.65,3.65,0,0,0-.3.51c-.08.17-.16.36-.25.56l-.24.54-.25.58a4,4,0,0,0-.19.58l-.14.59-.14.59a3.19,3.19,0,0,0-.08.59,2.67,2.67,0,0,0-.08.55l0,.55a2.12,2.12,0,0,1,0,.49,2,2,0,0,0,0,.48,3.69,3.69,0,0,0,.12.8,2.77,2.77,0,0,0,.12.67.63.63,0,0,1,0,.22.33.33,0,0,0,0,.18.16.16,0,0,0,0,.13.16.16,0,0,1,0-.13.81.81,0,0,0,0-.2,1,1,0,0,1,0-.24,1.46,1.46,0,0,1-.06-.27c0-.09,0-.21-.06-.36a1.27,1.27,0,0,1,0-.38,1.8,1.8,0,0,0,0-.42,2.08,2.08,0,0,1,0-.48l0-.53c0-.15,0-.31.05-.5s0-.37.05-.55.08-.39.11-.57.06-.36.11-.57a6,6,0,0,1,.16-.58c.06-.19.14-.38.22-.58s.16-.39.22-.58a5.1,5.1,0,0,1,.22-.54,4.55,4.55,0,0,1,.27-.56c.1-.17.19-.34.27-.51s.17-.34.27-.51Zm9.09,16a.15.15,0,0,1,.11,0,.16.16,0,0,0,.11,0,.16.16,0,0,0,.11,0,.16.16,0,0,1-.11,0h-.1a.41.41,0,0,1-.16,0c-.25.07-.53.13-.84.19a7.23,7.23,0,0,1-1.25.11,1.2,1.2,0,0,1-.34,0,1.79,1.79,0,0,0-.39,0H278a1.17,1.17,0,0,1-.38-.05,1,1,0,0,1-.36,0l-.36-.05a1.75,1.75,0,0,0-.35-.07,1.77,1.77,0,0,1-.35-.07l-.6-.18-.55-.17a2.22,2.22,0,0,0-.45-.21l-.35-.16L274,81l0,0a1.17,1.17,0,0,0,.25.15.32.32,0,0,0,.12.07l.17.08a.47.47,0,0,0,.22.13.48.48,0,0,1,.22.13l.28.11.27.11.65.18.7.19.71.06a5.07,5.07,0,0,0,.77,0,5.18,5.18,0,0,0,.72,0,1.14,1.14,0,0,0,.31,0l.31-.06.57-.08.5-.11A1.77,1.77,0,0,0,281.21,81.85Zm3.85-2.08s0,0-.06,0a.12.12,0,0,0-.08,0h-.08c-.08.05-.26.15-.55.29l-.84.29-.94.32-1,.3-.85.23a1.47,1.47,0,0,1-.37.08,1.08,1.08,0,0,0-.26,0,.62.62,0,0,0-.21.07,1,1,0,0,0,.26,0,.69.69,0,0,1,.26,0,.92.92,0,0,0,.37-.05,2.48,2.48,0,0,1,.4-.09l.45-.09A4.5,4.5,0,0,0,282,81a4.82,4.82,0,0,1,.51-.15,3.93,3.93,0,0,0,1-.34,1.66,1.66,0,0,0,.46-.17l.36-.18q.44-.22.55-.29Zm-.75-25.29a.91.91,0,0,1-.24.17.49.49,0,0,0-.18.14c-.08.05-.12.09-.13.12s0-.07.13-.12a4.1,4.1,0,0,1,.48-.26c.2-.13.45-.27.75-.43s.61-.34.94-.54l.57-.29.58-.34a4.82,4.82,0,0,1,.64-.33,5.08,5.08,0,0,0,.64-.33,5.63,5.63,0,0,1,.67-.34l.73-.34.73-.34a7.59,7.59,0,0,1,.79-.28l.79-.3.37-.15a2.31,2.31,0,0,1,.43-.15l.36-.13.42-.12.36-.11.42-.1.72-.17a3.93,3.93,0,0,0,.77-.12.76.76,0,0,1,.36,0,.76.76,0,0,0,.36,0,4.12,4.12,0,0,1,.7,0l.33,0,.32,0,.57.08a.44.44,0,0,1,.23,0l.23.05a1.9,1.9,0,0,0,.45.11.72.72,0,0,0,.3.13.74.74,0,0,1,.25.08.64.64,0,0,0,.22.08h-.06a.28.28,0,0,1-.16-.07l-.22-.12-.33-.14a.58.58,0,0,0-.19-.07.57.57,0,0,1-.19-.07l-.26-.06-.25-.06a2.63,2.63,0,0,1-.57-.13l-.35,0-.35,0-.71,0a1.51,1.51,0,0,1-.38,0,.84.84,0,0,0-.38,0l-.38,0-.38,0a1.59,1.59,0,0,1-.39.08,1.58,1.58,0,0,0-.39.08l-.42.1-.42.1-.39.13-.39.13-.42.12-.42.13-.73.31-.79.33-.73.34-.73.36c-.24.12-.47.24-.67.37l-.67.35-.61.35-.58.36-.52.32c-.33.2-.62.4-.89.59S284.5,54.36,284.3,54.48Zm6.3-2.68.28-.14.28-.14.19-.11-.24.06a1.38,1.38,0,0,1-.27.12,1.35,1.35,0,0,0-.27.12l-.79.37-.85.41c-.32.14-.63.28-.91.43s-.53.28-.73.41l-.67.41a.33.33,0,0,0,.18-.07c.08,0,.28-.1.6-.25a7,7,0,0,1,.73-.38l.91-.41q.48-.21.88-.43ZM303.69,69l-.21-.08-.57-.23a8.5,8.5,0,0,0-.87-.28q-.45-.12-1-.21a9.53,9.53,0,0,0-1.83-.29,3.74,3.74,0,0,1-.6,0,.73.73,0,0,0-.28,0,.75.75,0,0,0,.26.08l.24.06.35.08.85.22c.32.08.64.15,1,.2s.64.15,1,.2l.86.14Zm-2.3-11.68c-.1.13-.2.28-.3.44a1.7,1.7,0,0,1-.15.2s.05-.08.14-.16l.17-.2.24-.27a1.38,1.38,0,0,0,.24-.27l.26-.36a3.23,3.23,0,0,0,.42-.82.41.41,0,0,0,.09-.21.41.41,0,0,1,.09-.21l.07-.43.07-.43a.9.9,0,0,1,0-.36,2.6,2.6,0,0,0-.06-.37,1.55,1.55,0,0,0-.08-.23l-.08-.19v0a.15.15,0,0,0,0,.09.17.17,0,0,1,0,.09.12.12,0,0,1,0,.1.29.29,0,0,0,0,.14l0,.3a.72.72,0,0,1,0,.36l-.06.39a1,1,0,0,1-.07.23.78.78,0,0,0-.06.19,1.17,1.17,0,0,1-.18.42,3.48,3.48,0,0,0-.15.42,1.38,1.38,0,0,1-.21.41,2.49,2.49,0,0,0-.23.36A1.53,1.53,0,0,1,301.4,57.32Z"/><path d="M323.79,75.37a1.06,1.06,0,0,1,1.09-.11,3.29,3.29,0,0,1,1.21.76,3.35,3.35,0,0,1,.79,1.16.9.9,0,0,1-.13,1,18.51,18.51,0,0,1-1.44,1.26q-1.05.86-2.56,1.93t-3.26,2.21a35.69,35.69,0,0,1-3.5,2A22.44,22.44,0,0,1,312.66,87a5.61,5.61,0,0,1-2.78.24,3.8,3.8,0,0,1-1-.52,6.59,6.59,0,0,1-1.41-1.24,6.75,6.75,0,0,1-1.12-1.81,3.85,3.85,0,0,1-.2-2.27A8.64,8.64,0,0,1,307.62,78a35.19,35.19,0,0,1,2.56-3.24L312.71,72a5.11,5.11,0,0,0,1.32-2c0-.11-.22-.35-.72-.71a12.55,12.55,0,0,0-1.47-.9q-1.27,1.31-2.81,3l-2.76,3a.74.74,0,0,1-1,.22,3.11,3.11,0,0,1-1-1,4,4,0,0,1-.6-1.38,1.13,1.13,0,0,1,.16-1.09l2.07-2.49q1.1-1.32,2.15-2.47-.85-.56-1.64-1.19a7,7,0,0,1-1.33-1.39,5.58,5.58,0,0,1-.81-1.68,4.41,4.41,0,0,1-.09-2,7.18,7.18,0,0,1,1.11-2.68,16.34,16.34,0,0,1,2.17-2.66,21.81,21.81,0,0,1,2.8-2.35,26.83,26.83,0,0,1,2.95-1.84,17.09,17.09,0,0,1,2.61-1.14,3.83,3.83,0,0,1,1.82-.26,5,5,0,0,1,1.66.8,11.46,11.46,0,0,1,1.83,1.54,7.91,7.91,0,0,1,1.37,1.9,2.8,2.8,0,0,1,.31,1.92,6.21,6.21,0,0,1-1,1.89q-.83,1.21-2.15,2.8t-3,3.46Q315,65.15,313,67.13q.86.49,1.82,1.12a15.13,15.13,0,0,1,1.74,1.32A6.22,6.22,0,0,1,317.81,71a1.78,1.78,0,0,1,.29,1.35,4.51,4.51,0,0,1-.87,1.4q-.77,1-1.79,2.19l-2.14,2.55q-1.13,1.33-2,2.46a15.86,15.86,0,0,0-1.22,1.88q-.39.75.07.84a4,4,0,0,0,2.11-.28,16.4,16.4,0,0,0,2.64-1.27,30.85,30.85,0,0,0,2.8-1.86q1.41-1,2.64-2t2.14-1.74ZM309,54.36c.14-.12.27-.25.39-.38s.25-.25.39-.37l.82-.65a2.33,2.33,0,0,1,.35-.29,2.37,2.37,0,0,0,.35-.29c.23-.19.44-.36.62-.49s.34-.25.48-.38l.42-.32-.13.06-.13.09-.2.12a2.58,2.58,0,0,1-.54.34,3.46,3.46,0,0,0-.68.45,3.14,3.14,0,0,0-.4.24l-.4.28-.82.65c-.18.12-.33.23-.47.34l-.41.35-.84.79a3.93,3.93,0,0,1-.36.4l-.42.4-.33.41-.33.41-.3.42-.3.42a3.54,3.54,0,0,0-.41.73,1.4,1.4,0,0,0-.21.37,1.25,1.25,0,0,1-.14.29,2.43,2.43,0,0,0-.15.55.21.21,0,0,0-.06.17.2.2,0,0,1-.06.17v.09s0,0,0,.05l0-.13a1.2,1.2,0,0,1,.11-.34l.26-.49a3.68,3.68,0,0,1,.39-.6l.26-.36.26-.36.3-.39.3-.39.71-.77q.36-.38.78-.8Zm-3.35,9.13s-.05,0,0-.05l-.08-.19a.88.88,0,0,1-.15-.25l-.14-.34a3,3,0,0,1-.24-.89.65.65,0,0,1,0-.25.62.62,0,0,0,0-.25,1.21,1.21,0,0,0,0-.26,1.36,1.36,0,0,1,0-.26l.08-.48a1.86,1.86,0,0,0,.14-.51,3.78,3.78,0,0,0,.16-.42,3.72,3.72,0,0,1,.16-.42.93.93,0,0,0,.2-.3,1.45,1.45,0,0,1,.13-.27.16.16,0,0,1,0-.08.15.15,0,0,0,0-.08v0s-.06,0-.06,0a.16.16,0,0,1,0,.08.17.17,0,0,0,0,.08,1.36,1.36,0,0,0-.15.22,3.34,3.34,0,0,1-.23.34.36.36,0,0,0-.09.18.35.35,0,0,1-.09.19,1.25,1.25,0,0,0-.19.46,1.45,1.45,0,0,0-.14.47,1.85,1.85,0,0,0-.14.51,310.83,310.83,0,0,0,0,1.08c0,.16.1.31.15.45s.1.29.15.45a3.07,3.07,0,0,0,.17.34,1.66,1.66,0,0,0,.18.25ZM308,62a2.28,2.28,0,0,0,.18,1.51,4.25,4.25,0,0,0,1.12,1.28q2.14-2.37,4-4.54t3.23-3.87q1.35-1.69,2-2.72t.32-1.1a2.62,2.62,0,0,0-1.25.3,14.17,14.17,0,0,0-2.06,1.08q-1.15.71-2.41,1.65a20,20,0,0,0-2.34,2,16.92,16.92,0,0,0-1.86,2.22A5.65,5.65,0,0,0,308,62Zm4.41.48.7-.8.71-.8q.37-.42.68-.8t.63-.81l.31-.36.31-.36c.17-.26.34-.5.5-.7a9.89,9.89,0,0,1,.69-1.07.54.54,0,0,1,.06-.17.57.57,0,0,0,.06-.17c0-.06,0-.08.07-.07v0a1.24,1.24,0,0,1-.32.38l-.38.44c-.15.16-.31.35-.47.55q-.49.66-1.14,1.43t-1.38,1.56q-.69.85-1.35,1.61l-1.18,1.38q-.64.68-1.17,1.34h.05l.4-.33a2.61,2.61,0,0,1,.39-.39,6.62,6.62,0,0,0,.52-.5A14.32,14.32,0,0,0,312.38,62.47ZM307.56,79.7a.31.31,0,0,1-.08.12,2.72,2.72,0,0,0-.22.32l-.21.52c-.07.18-.15.38-.22.61a3.62,3.62,0,0,0-.07,1.19.92.92,0,0,0,.08.42.31.31,0,0,1,0,.14.16.16,0,0,1,0-.14.63.63,0,0,0,0-.18.72.72,0,0,1,0-.22,2.84,2.84,0,0,1,.05-.55l.12-.63c.07-.19.14-.39.19-.59a3.48,3.48,0,0,1,.18-.5.93.93,0,0,1,.13-.38Zm2.23-3.1a.42.42,0,0,1,.06-.15.41.41,0,0,0,.06-.15.12.12,0,0,1,.07-.08s-.06,0-.07.08a.13.13,0,0,0-.07.1.3.3,0,0,1-.08.14l-.29.39a5,5,0,0,0-.31.48q-.16.28-.36.58a6.18,6.18,0,0,0-.37.67l-.18.35-.18.39-.31.75c-.06.14-.11.27-.16.39a3.17,3.17,0,0,0-.1.4,1,1,0,0,0-.1.38,1.05,1.05,0,0,1-.1.38,1.74,1.74,0,0,1,0,.4,1.2,1.2,0,0,0,0,.36.35.35,0,0,1,0,.18.34.34,0,0,0,0,.18,75.16,75.16,0,0,1,.09.64.43.43,0,0,0,.06.12.53.53,0,0,1,.06.12.71.71,0,0,0,.08.24,1.29,1.29,0,0,1,.09.2l.17.21a.12.12,0,0,0,0,.1h0l0-.1a.53.53,0,0,1-.11-.25.74.74,0,0,1-.18-.44.12.12,0,0,1,0-.1.32.32,0,0,0,0-.14.6.6,0,0,1-.05-.28.34.34,0,0,1,0-.18.36.36,0,0,0,0-.18.41.41,0,0,0,0-.16.42.42,0,0,1,0-.16,1.21,1.21,0,0,1,0-.35l.08-.39.08-.39a1.76,1.76,0,0,1,.13-.38,2.63,2.63,0,0,1,.1-.38c0-.11.09-.23.15-.37a1.77,1.77,0,0,0,.13-.4,1,1,0,0,1,.18-.39c.06-.14.11-.26.15-.37a1,1,0,0,1,.2-.32c.12-.24.24-.47.35-.67l.33-.58A3.64,3.64,0,0,1,309.79,76.6Z"/><path d="M336.9,78.51c.15-.11.37-.08.66.08a2.76,2.76,0,0,1,.82.76,4.14,4.14,0,0,1,.62,1.22A2.25,2.25,0,0,1,339,82a4.19,4.19,0,0,1-1,1.34,21.42,21.42,0,0,1-2.21,1.92,35.94,35.94,0,0,1-3,2.08,23.8,23.8,0,0,1-3.48,1.78,18.08,18.08,0,0,1-3.61,1.08,7.81,7.81,0,0,1-3.39-.08,4.72,4.72,0,0,1-1.34-.7,10.09,10.09,0,0,1-1.62-1.4A9.23,9.23,0,0,1,318,86.24a2.37,2.37,0,0,1-.33-1.77A9.39,9.39,0,0,1,318.88,82a37.25,37.25,0,0,1,2.37-3.36q1.4-1.78,3-3.61t3-3.28q1.37-1.46,2.37-2.4c.66-.63,1-1,1.14-1q.4-.21.95.25a4.76,4.76,0,0,1,1,1.2,7.38,7.38,0,0,1,.68,1.51,2.25,2.25,0,0,1,.11,1.24,7.45,7.45,0,0,1-1,1.2q-.95,1-2.3,2.46t-2.85,3.08q-1.49,1.65-2.68,3.07a29.63,29.63,0,0,0-1.84,2.39q-.65,1-.3,1.06a7,7,0,0,0,4-.16,17.78,17.78,0,0,0,3.94-1.86A32,32,0,0,0,334,81.06Q335.71,79.62,336.9,78.51Zm-17.79,4.31a7.41,7.41,0,0,1,.48-.65l.56-.72.72-1a6.15,6.15,0,0,1,.41-.56,4.64,4.64,0,0,0,.42-.6l.48-.61a7,7,0,0,1,.53-.59q.49-.65,1.05-1.32c.37-.45.76-.9,1.17-1.34l1.13-1.34q.57-.67,1.13-1.3a5.55,5.55,0,0,0,.43-.43l.21-.26.18-.25a3.91,3.91,0,0,1,.33-.39q.48-.51.82-.92l.59-.71a2.36,2.36,0,0,0,.24-.25,1.47,1.47,0,0,1,.16-.18,1.42,1.42,0,0,1,.17-.18h-.05l-.61.56q-.31.28-.67.69t-.83.87l-1.68,1.77q-.74.78-1.87,2.13t-2.2,2.67q-1,1.33-1.78,2.46l-.65,1c-.2.3-.36.55-.48.77a.88.88,0,0,0-.18.32.41.41,0,0,1-.1.2A.67.67,0,0,0,319.11,82.82Zm3.41-3.47.31-.47a4.76,4.76,0,0,1,.29-.38,1.34,1.34,0,0,0,.25-.34,1.48,1.48,0,0,1-.24.3l-.34.35a3.75,3.75,0,0,0-.37.47q-.46.52-.94,1.13l-1,1.39-.49.69a7,7,0,0,0-.44.71l-.37.63a5.09,5.09,0,0,0-.32.65,1.75,1.75,0,0,0-.23.51l-.11.45a.33.33,0,0,0,0,.28.12.12,0,0,0,0,.1.12.12,0,0,1,0-.1s0-.13,0-.27a4.26,4.26,0,0,1,.39-.95l.36-.59.37-.63,1-1.39a6.58,6.58,0,0,1,.44-.71c.16-.23.33-.45.49-.65s.33-.44.48-.63A5.88,5.88,0,0,0,322.52,79.35ZM335.95,67.8a1.31,1.31,0,0,1-.59-.49,7.64,7.64,0,0,1-.62-.93,5,5,0,0,1-.45-1,2.56,2.56,0,0,1-.15-.73,4.45,4.45,0,0,1,.71-1.06,16.89,16.89,0,0,1,1.5-1.63,15.34,15.34,0,0,1,1.73-1.45c.58-.41,1-.58,1.26-.51a2.07,2.07,0,0,1,.95.78,9.41,9.41,0,0,1,.89,1.38,14.07,14.07,0,0,1,.64,1.38,1.8,1.8,0,0,1,.2.82,3.05,3.05,0,0,1-.88.74q-.83.57-1.9,1.2t-2,1.1A2.46,2.46,0,0,1,335.95,67.8Zm-5.51,18.12.41-.2.49-.27a4.48,4.48,0,0,0,.48-.32,3.91,3.91,0,0,1,.48-.32,4.29,4.29,0,0,0,.48-.32l.43-.33.43-.33.37-.3a3.42,3.42,0,0,0,.28-.28.73.73,0,0,1,.25-.2,1.52,1.52,0,0,1,.16-.18l-.22.17a1.16,1.16,0,0,0-.27.17l-.3.26a9.15,9.15,0,0,0-.84.58l-.43.33a4,4,0,0,1-.48.32,4,4,0,0,0-.48.32,4.09,4.09,0,0,1-.48.32,2.73,2.73,0,0,1-.44.29l-.43.24-.6.38a.57.57,0,0,1-.25.11l.25-.11A2.1,2.1,0,0,0,330.44,85.91Zm5.42-3.36.29-.32a1.34,1.34,0,0,1,.27-.24l.23-.21-.23.21-.31.2a1.64,1.64,0,0,0-.34.29,2.73,2.73,0,0,1-.41.36,5.28,5.28,0,0,0-.48.38l-.48.41-.55.43-1.06.79a3.68,3.68,0,0,1-.47.37l-.45.33-.38.28a2.07,2.07,0,0,1-.3.17.65.65,0,0,1-.2.13l-.06,0,.06,0,.09,0a.36.36,0,0,0,.15,0,1.84,1.84,0,0,1,.33-.18,1.92,1.92,0,0,0,.4-.25l.45-.33.5-.31,1.06-.79.55-.43.48-.41.46-.41C335.61,82.8,335.75,82.67,335.86,82.55Z"/><path d="M356.41,85.39a.7.7,0,0,1,1,.11,3.71,3.71,0,0,1,.81,1.16,5,5,0,0,1,.43,1.44c.06.48,0,.78-.15.91a53.18,53.18,0,0,1-6.21,4.08q-3,1.69-6,3.07A12.58,12.58,0,0,1,344,99.89a32.49,32.49,0,0,1-3.66,3.7,49,49,0,0,1-4.34,3.35,45.9,45.9,0,0,1-4.37,2.69,23.68,23.68,0,0,1-3.8,1.67,4.79,4.79,0,0,1-2.68.28A4.37,4.37,0,0,1,324,111a9,9,0,0,1-1.3-1.1,6.08,6.08,0,0,1-1-1.33,1.76,1.76,0,0,1-.21-1.33,7.71,7.71,0,0,1,2.47-3.74,28.38,28.38,0,0,1,4.8-3.34c1.92-1.09,4.09-2.18,6.52-3.27s5-2.29,7.62-3.58a2.4,2.4,0,0,0,0-1.41,1,1,0,0,0-.63-.61,1.8,1.8,0,0,0-1,0,6.08,6.08,0,0,0-1.16.4q-1.47,1.13-2.51,1.84c-.69.47-1.11.69-1.24.64a2.72,2.72,0,0,1-.83-.56,11,11,0,0,1-1.05-1.06,8.74,8.74,0,0,1-.88-1.19,1.24,1.24,0,0,1-.26-.93,4.18,4.18,0,0,1,1-1q.95-.79,2.35-1.83l3-2.24,3.1-2.25c1-.7,1.79-1.31,2.46-1.82a3.8,3.8,0,0,0,1.11-1.06q.08-.25-.59-.82T344.08,78q-1,.91-2.09,1.75t-1.9,1.49l-1.42,1.1-.7.54q-.37.3-.77-.15a4,4,0,0,1-.69-1.15,5.87,5.87,0,0,1-.4-1.4c-.07-.46,0-.77.19-.93.48-.35,1.13-.88,2-1.59S340,76.15,341,75.36a15.77,15.77,0,0,1-2.72-3.17,4.06,4.06,0,0,1-.58-3.47A9.19,9.19,0,0,1,339.92,65a16.82,16.82,0,0,1,3.58-2.91,15.73,15.73,0,0,1,3.86-1.72,5.31,5.31,0,0,1,3-.16,4.55,4.55,0,0,1,1.38.87,11.24,11.24,0,0,1,1.54,1.58,7.38,7.38,0,0,1,1.09,1.84,2.36,2.36,0,0,1,.12,1.69,10.66,10.66,0,0,1-1.38,2.56,28.83,28.83,0,0,1-2.22,2.74q-1.25,1.38-2.72,2.74t-2.87,2.61q1,.74,2,1.44A11.09,11.09,0,0,1,349,79.78a5.11,5.11,0,0,1,1,1.57A2.31,2.31,0,0,1,350,83a3,3,0,0,1-.67.91q-.55.57-1.38,1.31t-1.87,1.61L344,88.6a7.59,7.59,0,0,1,1.12,1.4,9.89,9.89,0,0,1,.88,1.75q2.65-1.35,5.29-2.91A58.19,58.19,0,0,0,356.41,85.39Zm-29,16.55,1.25-.73,1.2-.7,1.18-.63q.57-.31,1.06-.53l.89-.49a7.05,7.05,0,0,1,.69-.36l.58-.33s-.05.06-.14.1l-.49.21-.71.33-.89.41-.51.28-.55.27-.58.28-.6.33q-.62.32-1.24.69l-1.25.73a4.75,4.75,0,0,0-.58.4,4.66,4.66,0,0,1-.58.4l-.58.43-.52.4-.25.25-.24.21a3.42,3.42,0,0,0-.47.42l-.43.43-.16.23-.17.23a4.67,4.67,0,0,0-.52.77,1,1,0,0,0-.2.36,1.29,1.29,0,0,1-.14.33.44.44,0,0,0-.09.23.93.93,0,0,1,0,.2.33.33,0,0,0-.08.11v0s0,0,0,0,0,0,0-.08l.05-.19a.72.72,0,0,1,.11-.22,1.25,1.25,0,0,0,.13-.3,1,1,0,0,1,.19-.33c.17-.26.36-.52.58-.8a4.32,4.32,0,0,1,.36-.4,1.29,1.29,0,0,0,.21-.19,1.27,1.27,0,0,1,.21-.19,1,1,0,0,1,.19-.24l.23-.19a2.61,2.61,0,0,1,.27-.24l.26-.2.52-.4.58-.43a6.23,6.23,0,0,0,.57-.38ZM339.2,72.69a1.14,1.14,0,0,0,.15.18l.11.12a.18.18,0,0,0,.09.07.18.18,0,0,1-.09-.07l-.2-.29a.41.41,0,0,0-.09-.09.27.27,0,0,1-.07-.14l-.16-.23a.25.25,0,0,0-.07-.14.26.26,0,0,1-.07-.14,1.08,1.08,0,0,1-.14-.32c0-.13-.08-.26-.12-.38s-.08-.25-.12-.38a1.62,1.62,0,0,1-.1-.44.9.9,0,0,1,0-.43,1.11,1.11,0,0,0,0-.41,1.06,1.06,0,0,0,0-.22,1.13,1.13,0,0,1,0-.22,1.88,1.88,0,0,1,.08-.46l.13-.44a3.6,3.6,0,0,1,.15-.41,4.29,4.29,0,0,1,.21-.4,3.36,3.36,0,0,0,.21-.4,1.36,1.36,0,0,1,.26-.38l.22-.35a2.65,2.65,0,0,1,.28-.33c.08-.13.15-.24.22-.33a1.72,1.72,0,0,1,.26-.27,1.5,1.5,0,0,1,.45-.51c.07-.1.17-.22.29-.37a2.26,2.26,0,0,1,.25-.25.12.12,0,0,0,.08-.07.12.12,0,0,1-.08.07,2.32,2.32,0,0,0-.25.25l-.4.34a1.77,1.77,0,0,1-.21.21,1.32,1.32,0,0,0-.22.25,1.77,1.77,0,0,0-.26.27,3.19,3.19,0,0,1-.27.31,2.68,2.68,0,0,0-.28.33l-.22.35a8.89,8.89,0,0,0-.47.78,3.51,3.51,0,0,0-.21.42,3.79,3.79,0,0,0-.16.43,1.28,1.28,0,0,0-.16.43,4,4,0,0,1-.1.45.59.59,0,0,1,0,.25.36.36,0,0,0,0,.21,1.18,1.18,0,0,0,0,.45c0,.12,0,.28,0,.47a.24.24,0,0,1,.06.2.24.24,0,0,0,.06.2,2.75,2.75,0,0,0,.29.77.49.49,0,0,0,.07.16.53.53,0,0,1,.07.16.76.76,0,0,0,.13.15.25.25,0,0,1,.07.14.3.3,0,0,1,.11.12.35.35,0,0,0,.05.11A.93.93,0,0,1,339.2,72.69ZM338.66,70a1.91,1.91,0,0,1,.08-.66l.21-.72q.1-.34.23-.69a5,5,0,0,1,.26-.59,1.21,1.21,0,0,1,.1-.24,1,1,0,0,0,.09-.2l.05-.17v0a.07.07,0,0,1,0,.05.08.08,0,0,0,0,.06,2.51,2.51,0,0,0-.29.37,2.89,2.89,0,0,1-.3.6,1.65,1.65,0,0,0-.16.34l-.11.36-.11.38a1.69,1.69,0,0,0-.06.4,2.09,2.09,0,0,0-.07.62,1.22,1.22,0,0,0,0,.28l.06.2a.33.33,0,0,1,0,.18.33.33,0,0,1,0-.18.53.53,0,0,0,0-.18A.94.94,0,0,1,338.66,70ZM327.9,107a8.48,8.48,0,0,0,2-.83,31.57,31.57,0,0,0,2.74-1.68q1.49-1,3.09-2.29t3-2.66a59.52,59.52,0,0,0-6.11,3.27A18,18,0,0,0,327.9,107Zm14.49-32.82q1.41-1.12,2.82-2.33t2.62-2.4a23.38,23.38,0,0,0,2.08-2.32A7.47,7.47,0,0,0,351.1,65q.25-.75-.25-.92a3.38,3.38,0,0,0-2.08.24,12.15,12.15,0,0,0-2.8,1.47,14.68,14.68,0,0,0-2.64,2.34A7.68,7.68,0,0,0,341.68,71a3.08,3.08,0,0,0-.08,1.7A4.06,4.06,0,0,0,342.39,74.22ZM345,64.92a2.35,2.35,0,0,0-.36.3,1.43,1.43,0,0,1-.28.23.58.58,0,0,0-.2.26l.24-.2.31-.22.39-.29.49-.31.56-.33a5.66,5.66,0,0,1,.64-.3l.66-.34a1.45,1.45,0,0,0,.37-.11,1.42,1.42,0,0,1,.37-.11,1.31,1.31,0,0,1,.35-.14l.34-.1.38,0a1.15,1.15,0,0,0,.32-.06l.35,0a2,2,0,0,0,.34,0l.54,0a.65.65,0,0,1,.24,0,.69.69,0,0,0,.23,0l.28.09a.2.2,0,0,0,.13,0l-.11,0-.12,0a.51.51,0,0,1-.17,0l-.44-.15a1.29,1.29,0,0,1-.3,0,1.3,1.3,0,0,0-.3,0,1.07,1.07,0,0,1-.34,0,1.1,1.1,0,0,0-.34,0l-.39.06-.39.06a6.56,6.56,0,0,1-.73.18,2.87,2.87,0,0,0-.7.28,2.94,2.94,0,0,0-.7.28l-.66.35a6.21,6.21,0,0,0-.54.36Zm-9.5,32.56a1.4,1.4,0,0,0-.4.24l-.14.09.62-.26a4.45,4.45,0,0,0,.61-.24l.64-.32.68-.36.56-.3a2.72,2.72,0,0,1,.4-.24l.19-.08-.17,0-.44.18-.63.28-.69.31-.65.35ZM351.3,66.6,351,67a3.23,3.23,0,0,1-.33.42,9.5,9.5,0,0,1-.58.82l-.54.7a1.37,1.37,0,0,0-.25.31.7.7,0,0,1-.16.2.58.58,0,0,0-.12.19,1.62,1.62,0,0,0,.18-.17l.18-.17.27-.28a2.33,2.33,0,0,0,.3-.34,2.25,2.25,0,0,1,.3-.34,1.93,1.93,0,0,0,.32-.4,1.84,1.84,0,0,1,.32-.4,1.85,1.85,0,0,0,.31-.45,1.32,1.32,0,0,1,.29-.41,1.71,1.71,0,0,0,.2-.4,1.7,1.7,0,0,1,.2-.4l.2-.58.07-.21v0a.16.16,0,0,1-.06.07.15.15,0,0,0-.06.07,1.43,1.43,0,0,1-.1.22,1.94,1.94,0,0,0-.15.34,3.88,3.88,0,0,0-.22.37A1.88,1.88,0,0,1,351.3,66.6Z"/><path d="M375.71,93.6a.7.7,0,0,1,1,.18,3.7,3.7,0,0,1,.73,1.22,5,5,0,0,1,.33,1.47q0,.73-.22.89A53.1,53.1,0,0,1,371,101q-3.18,1.45-6.21,2.61a12.53,12.53,0,0,1-2.54,3.56,32.44,32.44,0,0,1-3.94,3.41,49.43,49.43,0,0,1-4.59,3,46.1,46.1,0,0,1-4.58,2.35,23.84,23.84,0,0,1-3.93,1.38,4.84,4.84,0,0,1-2.7.08,4.41,4.41,0,0,1-1.14-.71,9.06,9.06,0,0,1-1.23-1.2,6,6,0,0,1-.91-1.4,1.75,1.75,0,0,1-.11-1.35,7.68,7.68,0,0,1,2.74-3.55,28.4,28.4,0,0,1,5-3c2-.94,4.25-1.87,6.77-2.77s5.14-1.9,7.89-3a2.4,2.4,0,0,0,.11-1.41,1,1,0,0,0-.59-.65,1.81,1.81,0,0,0-1-.08,6.15,6.15,0,0,0-1.19.32q-1.56,1-2.65,1.65t-1.29.55a2.74,2.74,0,0,1-.79-.62,11.06,11.06,0,0,1-1-1.14,8.84,8.84,0,0,1-.8-1.25,1.24,1.24,0,0,1-.2-.95,4.2,4.2,0,0,1,1.09-.92q1-.72,2.49-1.65l3.21-2,3.27-2q1.53-.93,2.6-1.63a3.8,3.8,0,0,0,1.19-1c.07-.16-.11-.45-.53-.87s-1-.94-1.63-1.56q-1.12.82-2.22,1.58t-2,1.35l-1.5,1-.74.49c-.26.18-.52.11-.76-.2a4,4,0,0,1-.61-1.2,6,6,0,0,1-.3-1.43c0-.47.05-.77.26-.91.51-.31,1.2-.79,2.08-1.44s1.86-1.33,2.94-2A15.88,15.88,0,0,1,358.51,79a4.06,4.06,0,0,1-.33-3.51A9.14,9.14,0,0,1,360.64,72a16.82,16.82,0,0,1,3.8-2.64,15.79,15.79,0,0,1,4-1.42,5.37,5.37,0,0,1,3,.07,4.63,4.63,0,0,1,1.32,1,11.38,11.38,0,0,1,1.43,1.7,7.39,7.39,0,0,1,1,1.92,2.36,2.36,0,0,1,0,1.7,10.58,10.58,0,0,1-1.57,2.45,28.47,28.47,0,0,1-2.42,2.57q-1.36,1.28-2.92,2.53t-3.06,2.39q.93.81,1.87,1.59a11.2,11.2,0,0,1,1.59,1.59,5.11,5.11,0,0,1,.92,1.64,2.3,2.3,0,0,1-.11,1.68,3,3,0,0,1-.73.85c-.4.35-.89.75-1.48,1.2s-1.25.93-2,1.46L363,95.85a7.62,7.62,0,0,1,1,1.49,9.93,9.93,0,0,1,.75,1.81q2.76-1.14,5.51-2.5A58.66,58.66,0,0,0,375.71,93.6ZM345.4,107.9l1.31-.64,1.25-.61,1.23-.54c.39-.18.76-.33,1.1-.45l.93-.42a6.74,6.74,0,0,1,.72-.31l.6-.28s-.06.06-.14.08l-.51.18-.74.28-.92.35-.53.24-.57.23-.61.24-.62.28c-.43.18-.86.38-1.3.59l-1.31.64a4.6,4.6,0,0,0-.61.36,4.8,4.8,0,0,1-.61.36l-.62.38-.55.36-.27.23-.25.19a3.5,3.5,0,0,0-.5.38l-.46.4-.18.21-.18.22a4.57,4.57,0,0,0-.57.73,1,1,0,0,0-.23.34,1.31,1.31,0,0,1-.16.31.44.44,0,0,0-.1.22.89.89,0,0,1,0,.19.31.31,0,0,0-.09.11v0s0,0,0,0,0,0,.05-.07l.07-.19a.71.71,0,0,1,.13-.21,1.21,1.21,0,0,0,.16-.29,1,1,0,0,1,.22-.32c.19-.24.4-.49.63-.75a4.43,4.43,0,0,1,.4-.37,1.36,1.36,0,0,0,.22-.18,1.35,1.35,0,0,1,.22-.18,1,1,0,0,1,.21-.23l.24-.17.29-.22.28-.18.55-.36.62-.38a6.5,6.5,0,0,0,.6-.34Zm14-28.3a1.26,1.26,0,0,0,.13.19l.1.13a.18.18,0,0,0,.09.08.18.18,0,0,1-.09-.08l-.18-.3a.49.49,0,0,0-.08-.1.26.26,0,0,1-.06-.14l-.14-.24a.26.26,0,0,0-.07-.14.27.27,0,0,1-.06-.14,1.07,1.07,0,0,1-.11-.33c0-.14-.06-.27-.09-.39s-.06-.25-.09-.39a1.61,1.61,0,0,1-.07-.45.92.92,0,0,1,0-.43,1.11,1.11,0,0,0,0-.41,1,1,0,0,0,.05-.22,1.14,1.14,0,0,1,.05-.21,1.85,1.85,0,0,1,.11-.45l.16-.43a3.4,3.4,0,0,1,.18-.4,3.81,3.81,0,0,1,.24-.38,3.54,3.54,0,0,0,.24-.38,1.31,1.31,0,0,1,.29-.36l.25-.33a2.74,2.74,0,0,1,.3-.31c.09-.12.17-.23.24-.31a1.76,1.76,0,0,1,.28-.25,1.48,1.48,0,0,1,.49-.47c.08-.1.18-.21.32-.35a2.14,2.14,0,0,1,.27-.23.11.11,0,0,0,.08-.06.11.11,0,0,1-.08.06,2.14,2.14,0,0,0-.27.23l-.43.31a1.77,1.77,0,0,1-.23.2,1.3,1.3,0,0,0-.24.24,1.73,1.73,0,0,0-.28.25,3.26,3.26,0,0,1-.29.29,2.77,2.77,0,0,0-.3.31l-.25.33c-.15.19-.33.44-.52.74a3.66,3.66,0,0,0-.24.4,4,4,0,0,0-.19.42,1.27,1.27,0,0,0-.19.42,3.84,3.84,0,0,1-.14.44.62.62,0,0,1,0,.25.36.36,0,0,0,0,.2,1.19,1.19,0,0,0,0,.45c0,.12,0,.28,0,.47a.24.24,0,0,1,0,.2.24.24,0,0,0,0,.2,2.84,2.84,0,0,0,.24.8.55.55,0,0,0,.06.16.52.52,0,0,1,.06.16A.85.85,0,0,0,359,79a.27.27,0,0,1,.06.14.29.29,0,0,1,.1.13.41.41,0,0,0,0,.11A.9.9,0,0,1,359.37,79.6ZM359,76.84a1.92,1.92,0,0,1,.13-.66l.26-.7c.08-.22.18-.44.28-.67a5.06,5.06,0,0,1,.31-.56,1.29,1.29,0,0,1,.12-.24,1.09,1.09,0,0,0,.1-.2l.06-.16,0,0a.08.08,0,0,1,0,.05.08.08,0,0,0-.05.05,2.56,2.56,0,0,0-.32.35,2.83,2.83,0,0,1-.34.58,1.5,1.5,0,0,0-.19.33l-.13.35-.14.37a1.62,1.62,0,0,0-.09.39,2.07,2.07,0,0,0-.11.61,1.25,1.25,0,0,0,0,.29l0,.2a.32.32,0,0,1,0,.18.32.32,0,0,1,0-.18.57.57,0,0,0,0-.17A.89.89,0,0,1,359,76.84ZM345.56,113a8.5,8.5,0,0,0,2-.68,31.64,31.64,0,0,0,2.87-1.47q1.56-.89,3.26-2t3.23-2.42a59.53,59.53,0,0,0-6.36,2.79A18,18,0,0,0,345.56,113Zm16.89-31.65q1.49-1,3-2.11t2.79-2.2a23.11,23.11,0,0,0,2.25-2.16,7.38,7.38,0,0,0,1.36-2q.31-.73-.18-.93a3.4,3.4,0,0,0-2.1.08,12.21,12.21,0,0,0-2.91,1.26,14.67,14.67,0,0,0-2.82,2.14A7.62,7.62,0,0,0,362,78.12a3,3,0,0,0-.21,1.69A4,4,0,0,0,362.45,81.38Zm3.3-9.09a2.3,2.3,0,0,0-.39.27,1.4,1.4,0,0,1-.3.21.58.58,0,0,0-.22.24l.26-.18a2.85,2.85,0,0,0,.33-.2l.41-.26.51-.27.58-.29a5.61,5.61,0,0,1,.67-.25l.68-.29a1.45,1.45,0,0,0,.38-.08,1.42,1.42,0,0,1,.38-.08,1.3,1.3,0,0,1,.36-.11l.34-.07h.38a1.15,1.15,0,0,0,.33,0,2.05,2.05,0,0,1,.35,0h.35l.54.08a.69.69,0,0,1,.23,0,.67.67,0,0,0,.23.05l.27.11a.19.19,0,0,0,.12,0l-.11,0-.12,0a.52.52,0,0,1-.17,0l-.43-.18a1.39,1.39,0,0,1-.3-.05,1.38,1.38,0,0,0-.3-.05,1.11,1.11,0,0,1-.34,0,1.1,1.1,0,0,0-.34,0l-.39,0-.39,0a6.77,6.77,0,0,1-.74.12,2.94,2.94,0,0,0-.72.23,3,3,0,0,0-.72.23l-.68.29a6.36,6.36,0,0,0-.56.32Zm-11.87,31.77a1.36,1.36,0,0,0-.42.21l-.14.08.64-.22a4.52,4.52,0,0,0,.63-.2l.67-.28.71-.3.58-.26a2.6,2.6,0,0,1,.42-.21l.19-.06-.18,0-.45.15-.65.23-.72.25-.67.3Zm18.06-29.61-.29.38a3,3,0,0,1-.36.4,9.94,9.94,0,0,1-.64.78l-.59.66a1.43,1.43,0,0,0-.28.29.69.69,0,0,1-.17.19.56.56,0,0,0-.14.18l.19-.16.19-.16.3-.26a2.37,2.37,0,0,0,.32-.32,2.12,2.12,0,0,1,.32-.32,2,2,0,0,0,.35-.38,1.94,1.94,0,0,1,.35-.38,1.81,1.81,0,0,0,.34-.43,1.31,1.31,0,0,1,.32-.39,1.81,1.81,0,0,0,.22-.38,1.7,1.7,0,0,1,.23-.38l.24-.57.09-.2,0,0a.16.16,0,0,1-.06.07.16.16,0,0,0-.06.07,1.37,1.37,0,0,1-.12.21,2,2,0,0,0-.17.33,3.42,3.42,0,0,0-.24.35A1.9,1.9,0,0,1,371.94,74.45Z"/><path d="M389.11,100.29c.17-.08.39.06.66.41a5.57,5.57,0,0,1,.73,1.27,5.86,5.86,0,0,1,.41,1.43q.1.68-.27.88-1.54.86-3.61,2.11a30.6,30.6,0,0,1-4.37,2.19,17.46,17.46,0,0,1-4.69,1.2,8.23,8.23,0,0,1-4.63-.84,7,7,0,0,1-1.78-1.35,9.36,9.36,0,0,1-1.59-2.12,8.87,8.87,0,0,1-.92-2.46,3.83,3.83,0,0,1,.26-2.44,11.65,11.65,0,0,1,2-2.78,46.34,46.34,0,0,1,3.56-3.46q2.09-1.84,4.61-3.75t5.15-3.7q2.63-1.79,5.12-3.36t4.47-2.75l3.2-1.9a10.55,10.55,0,0,0,1.27-.8c.16-.31.42-.37.78-.18a2.84,2.84,0,0,1,.58.64,9.1,9.1,0,0,1,.81,1.28,7.52,7.52,0,0,1,.6,1.53,1.72,1.72,0,0,1-.06,1.3,4.94,4.94,0,0,1-1.39,1l-3.18,1.86-4.4,2.57q-2.46,1.44-5,3.09t-5,3.4Q380,96.3,377.91,98a44.89,44.89,0,0,0-3.53,3.25,11,11,0,0,0-2,2.73c-.25.53,0,1,.72,1.32a5.47,5.47,0,0,0,2.43.52,11.07,11.07,0,0,0,2.78-.38,20.08,20.08,0,0,0,2.93-1q1.48-.65,2.91-1.39t2.72-1.47Zm-14.66-3.94a3.39,3.39,0,0,1-.41.36,2.11,2.11,0,0,0-.31.27.61.61,0,0,0-.23.23c.31-.24.64-.52,1-.84l1.13-.92,1.46-1.21a11,11,0,0,0,.87-.68c.28-.24.58-.48.9-.71l1-.73c.33-.25.66-.52,1-.8l2.2-1.62q1.13-.82,2.29-1.61t2.34-1.61q1.16-.77,2.3-1.47l2.19-1.35q1.05-.64,1.95-1.22t1.69-1l1.25-.78,1.11-.7c-.33.19-.71.4-1.15.64l-1.35.73-1.72.94-2,1.16q-1.07.61-2.21,1.31l-2.32,1.46q-1.19.76-2.36,1.6t-2.28,1.67q-1.1.83-2.15,1.59l-1,.82-1,.78q-.5.4-.91.76l-.82.7c-.54.45-1,.87-1.41,1.25Zm-1.64,5.93A2.53,2.53,0,0,0,373,102a1.37,1.37,0,0,1,.29-.3,6.15,6.15,0,0,1,.72-.77l.43-.4c.15-.14.3-.3.47-.48s.31-.3.49-.45l.55-.46c.35-.32.73-.64,1.13-1l1.2-1q1.23-1,2.4-1.9l1.13-.84,1-.74.87-.62.68-.47a3.45,3.45,0,0,0,.6-.44l-.18.11a.67.67,0,0,0-.16.14.64.64,0,0,1-.23.15q-.54.32-1.65,1l-1,.73c-.38.25-.76.53-1.15.83l-1.21.9q-.62.45-1.22.94t-1.21,1q-.59.47-1.14,1a6.22,6.22,0,0,1-.51.49c-.17.15-.33.3-.48.45l-.45.49a5.21,5.21,0,0,1-.41.41,4.78,4.78,0,0,0-.38.43,2.11,2.11,0,0,1-.34.35,3.7,3.7,0,0,0-.25.34,2.68,2.68,0,0,0-.18.33,2.31,2.31,0,0,0-.27.45l-.08.16.08-.16A2.29,2.29,0,0,1,372.8,102.28Zm22.53-19.72.7-.45.52-.35a3.45,3.45,0,0,0,.51-.33,5.25,5.25,0,0,1-.49.29A5.43,5.43,0,0,1,396,82q-.36.18-.76.42l-.94.53-1,.57-1,.6a10.85,10.85,0,0,0-1.07.68,18.53,18.53,0,0,0-2,1.32c-.32.2-.63.4-.92.61l-.83.56c-.27.19-.5.36-.68.52l-.5.41-.36.21a.28.28,0,0,0-.11.09c.13-.1.29-.2.47-.3l.53-.35c.22-.14.46-.3.73-.49a7.67,7.67,0,0,0,.88-.54c.3-.21.61-.41.93-.61q1-.6,2-1.32l1.08-.63,1-.65.93-.58C394.72,82.91,395,82.73,395.33,82.56Z"/><path d="M400.94,106.82c.17-.07.38,0,.63.25a2.87,2.87,0,0,1,.63.95,4.21,4.21,0,0,1,.32,1.35,2.21,2.21,0,0,1-.31,1.36,4.12,4.12,0,0,1-1.32,1,21.75,21.75,0,0,1-2.65,1.29,36.48,36.48,0,0,1-3.49,1.24,24.18,24.18,0,0,1-3.87.84,18.51,18.51,0,0,1-3.82.12,8.13,8.13,0,0,1-3.33-.94,4.89,4.89,0,0,1-1.15-1,10.43,10.43,0,0,1-1.26-1.77,9.46,9.46,0,0,1-.88-2,2.36,2.36,0,0,1,.1-1.8,9.2,9.2,0,0,1,1.78-2.15,36.4,36.4,0,0,1,3.14-2.67q1.81-1.38,3.8-2.75t3.7-2.44q1.71-1.07,2.92-1.73t1.38-.72c.3-.07.59.1.87.49a4.91,4.91,0,0,1,.68,1.42,7.32,7.32,0,0,1,.31,1.64,2.23,2.23,0,0,1-.19,1.23,7.28,7.28,0,0,1-1.27.91q-1.18.76-2.86,1.81T391.24,105q-1.87,1.22-3.38,2.3a29.46,29.46,0,0,0-2.39,1.85q-.88.77-.55,1a7.31,7.31,0,0,0,4,.87,18,18,0,0,0,4.33-.79,31.92,31.92,0,0,0,4.22-1.63C398.82,107.91,400,107.33,400.94,106.82Zm-18.61-.37a7,7,0,0,1,.63-.51l.72-.56.94-.74a6,6,0,0,1,.54-.44,4.54,4.54,0,0,0,.56-.47l.62-.47a6.43,6.43,0,0,1,.67-.44q.64-.5,1.36-1t1.48-1l1.44-1q.72-.51,1.42-1a5.67,5.67,0,0,0,.52-.31l.27-.2.24-.2a3.52,3.52,0,0,1,.42-.29q.59-.37,1-.69l.75-.54a2.14,2.14,0,0,0,.3-.19l.21-.14.21-.14,0,0-.74.39q-.37.2-.83.5t-1,.64l-2.08,1.29c-.61.38-1.4.91-2.35,1.6s-1.92,1.34-2.81,2-1.67,1.34-2.35,1.94l-.88.8q-.4.36-.66.62a.87.87,0,0,0-.26.26.42.42,0,0,1-.15.17A.59.59,0,0,0,382.33,106.44Zm4.2-2.5.42-.37a4.59,4.59,0,0,1,.38-.3,1.3,1.3,0,0,0,.33-.27,1.47,1.47,0,0,1-.31.23l-.41.25a3.54,3.54,0,0,0-.48.37q-.58.39-1.19.86l-1.31,1.09-.65.55a6.8,6.8,0,0,0-.61.58l-.52.52a5.06,5.06,0,0,0-.47.55,1.7,1.7,0,0,0-.35.44l-.21.41a.32.32,0,0,0,0,.28.12.12,0,0,0,0,.1.12.12,0,0,1,0-.1s0-.13.08-.26a4.11,4.11,0,0,1,.61-.82l.5-.48.52-.52,1.31-1.1a7,7,0,0,1,.61-.57l.64-.51c.22-.18.43-.34.63-.49A6,6,0,0,0,386.53,103.94Zm16-7.8a1.36,1.36,0,0,1-.47-.63,7.82,7.82,0,0,1-.39-1.06,5.17,5.17,0,0,1-.2-1.1,2.54,2.54,0,0,1,0-.75,4.4,4.4,0,0,1,1-.85,16.62,16.62,0,0,1,1.87-1.2,15.19,15.19,0,0,1,2.06-1c.67-.25,1.13-.31,1.37-.17a2.14,2.14,0,0,1,.75,1,9.76,9.76,0,0,1,.54,1.58,14.16,14.16,0,0,1,.3,1.51,1.78,1.78,0,0,1,0,.85,3,3,0,0,1-1.05.49q-1,.35-2.17.67t-2.27.54A2.51,2.51,0,0,1,402.56,96.14Zm-9.79,16.21.46-.09.55-.14a4.25,4.25,0,0,0,.55-.19,4,4,0,0,1,.55-.19,4,4,0,0,0,.55-.19l.51-.21.5-.21.44-.2a3.27,3.27,0,0,0,.34-.2.73.73,0,0,1,.3-.13l.21-.13-.25.1a1.25,1.25,0,0,0-.31.1l-.36.17a9.32,9.32,0,0,0-1,.35l-.5.21a4.35,4.35,0,0,1-.55.19,4.06,4.06,0,0,0-.55.19,4.52,4.52,0,0,1-.55.19,2.82,2.82,0,0,1-.5.17l-.48.13-.68.21a.56.56,0,0,1-.27,0l.27,0A2.15,2.15,0,0,0,392.78,112.35Zm6.16-1.87.37-.24a1.39,1.39,0,0,1,.32-.16l.28-.14-.28.14-.36.12a1.68,1.68,0,0,0-.4.19,2.78,2.78,0,0,1-.5.24,5.42,5.42,0,0,0-.57.25l-.58.27-.64.28-1.24.49a3.94,3.94,0,0,1-.55.24l-.53.2-.45.17a2,2,0,0,1-.33.09.73.73,0,0,1-.23.07h.09a.38.38,0,0,0,.16,0,1.86,1.86,0,0,1,.37-.09,1.92,1.92,0,0,0,.46-.14l.53-.2.57-.17,1.24-.49.64-.28.58-.27.55-.28Z"/><path d="M420.69,120.1a3,3,0,0,1,.47,1.37,1.93,1.93,0,0,1-.37,1.36,4,4,0,0,1-1.46.86,20.63,20.63,0,0,1-3,1,36.43,36.43,0,0,1-4,.75,29.67,29.67,0,0,1-4.53.26,22.26,22.26,0,0,1-4.57-.55,13.08,13.08,0,0,1-4.17-1.73,6.88,6.88,0,0,1-2.21-2.37,12.53,12.53,0,0,1-1.37-3.34,11.81,11.81,0,0,1-.34-3.61,7,7,0,0,1,.91-3.19,9.4,9.4,0,0,1,2.19-2.46,16,16,0,0,1,3.26-2,23.85,23.85,0,0,1,3.91-1.45,19.78,19.78,0,0,1,4.12-.69,16.86,16.86,0,0,1,3.86.2,8.24,8.24,0,0,1,3.18,1.22A6.49,6.49,0,0,1,419,108.1a5.76,5.76,0,0,1,.64,2.4,3.67,3.67,0,0,1-.33,1.75c-.23.43-.41.6-.53.51a1,1,0,0,1-.26-.23,2.25,2.25,0,0,1-.3.54,6.11,6.11,0,0,1-2.31,1.91,10.8,10.8,0,0,1-3.37,1.06,12.53,12.53,0,0,1-3.76,0,9.19,9.19,0,0,1-3.6-1.36,6.86,6.86,0,0,1-1.86-1.65,7.61,7.61,0,0,1-1-1.72,10,10,0,0,0-3.38,3.2,10.82,10.82,0,0,0-.7,1.35,5.32,5.32,0,0,0-.4,1.38,2.75,2.75,0,0,0,.12,1.29,2,2,0,0,0,.9,1A13.51,13.51,0,0,0,403,121.3a19.16,19.16,0,0,0,4.31.49,22.24,22.24,0,0,0,4.08-.37q1.95-.37,3.56-.82t2.66-.87c.7-.28,1.17-.45,1.41-.53.53-.16,1,.06,1.46.67Zm-17.93-13.37.45-.14.45-.14a1.67,1.67,0,0,1,.41-.13,1.63,1.63,0,0,0,.41-.13l.71-.18.67-.13a1.89,1.89,0,0,0,.49-.14l.19,0,.12,0,.14,0-.14,0-.12,0-.19,0-.51.07-.65.09a2,2,0,0,1-.38.08,1.23,1.23,0,0,0-.4.11,2.55,2.55,0,0,0-.41.08l-.43.12-.45.14-.45.14a7,7,0,0,1-.87.35l-.4.22-.39.22-.39.22-.39.22a1.53,1.53,0,0,0-.32.22,1.49,1.49,0,0,1-.32.22,5,5,0,0,1-.55.49q-.27.25-.45.42a2.1,2.1,0,0,0-.28.37.75.75,0,0,0-.2.34l.07-.11a.69.69,0,0,1,.18-.2.4.4,0,0,0,.16-.16.41.41,0,0,1,.16-.16l.46-.44a.61.61,0,0,0,.27-.17,1.43,1.43,0,0,1,.31-.25,1.49,1.49,0,0,0,.32-.22,1.57,1.57,0,0,1,.32-.22l.39-.22.39-.22.4-.17a2.35,2.35,0,0,0,.42-.21,2.33,2.33,0,0,1,.42-.21Zm2.41-1.25-.26.1-.19.09a.51.51,0,0,1-.16.05.55.55,0,0,0,.16-.05.62.62,0,0,1,.2-.06l.27-.06a7.87,7.87,0,0,0,.82-.14,9,9,0,0,1,1-.16,5.43,5.43,0,0,1,.6-.1l.64-.06.7-.05.71,0a5.64,5.64,0,0,1,.76,0l.8,0a4.5,4.5,0,0,1,.81.07c.27,0,.53.09.78.11a8.34,8.34,0,0,1,1.64.44,7.64,7.64,0,0,1,1.52.63l.65.43a3.65,3.65,0,0,1,.6.51.53.53,0,0,1,.13.12.52.52,0,0,0,.13.11.54.54,0,0,0,.12.13.57.57,0,0,1,.12.13.55.55,0,0,0,.12.13.57.57,0,0,1,.12.13.46.46,0,0,0,.19.23,5.5,5.5,0,0,1,.59,1,1.62,1.62,0,0,1,.21.41,2.23,2.23,0,0,0,.16.38,2,2,0,0,1,.07.26.55.55,0,0,0,.09.22.35.35,0,0,0,.09.17.49.49,0,0,1,0-.17,3.67,3.67,0,0,1-.14-.52,2.57,2.57,0,0,0-.15-.34,1.61,1.61,0,0,1-.15-.45,1.94,1.94,0,0,1-.29-.49,3.73,3.73,0,0,0-.27-.53,1.08,1.08,0,0,1-.24-.27,1.49,1.49,0,0,0-.17-.27,2.84,2.84,0,0,1-.29-.3.57.57,0,0,0-.12-.13.55.55,0,0,1-.12-.13,8,8,0,0,0-1.35-1l-.75-.39a5.15,5.15,0,0,0-.85-.34,8.41,8.41,0,0,0-1.64-.44,8.29,8.29,0,0,0-.87-.14l-.84-.07-.79,0-.79,0a11,11,0,0,0-1.41.15l-1.24.21a5.9,5.9,0,0,0-1,.25A6.63,6.63,0,0,1,405.17,105.48Zm-.56,5.7a8.75,8.75,0,0,0,3.67,1.4,8.57,8.57,0,0,0,3.22-.22,9.63,9.63,0,0,0,2.68-1.18q1.2-.77,2.07-1.45a2.68,2.68,0,0,1-.27-.21l-.27-.21a5.48,5.48,0,0,0-2.32-.8,12.14,12.14,0,0,0-3.05,0,19.68,19.68,0,0,0-3.36.7,20.18,20.18,0,0,0-3.24,1.27A3.67,3.67,0,0,0,404.61,111.18Zm1.07,12,.55.05.44,0h0l-.45-.06-.56-.08q-.28-.08-.65-.14a4.3,4.3,0,0,1-.74-.2,2.7,2.7,0,0,1-.41-.11,2.61,2.61,0,0,0-.41-.11,2.69,2.69,0,0,1-.41-.11l-.43-.18a1.53,1.53,0,0,1-.4-.13,1.57,1.57,0,0,0-.4-.13l-.4-.18-.4-.18-.7-.29-.33-.18-.28-.15a3.17,3.17,0,0,1-.52-.28,2.43,2.43,0,0,1-.43-.22l-.17-.08-.12-.05-.09-.06.36.23.41.26a3.15,3.15,0,0,0,.52.28,4.47,4.47,0,0,0,.61.33,5.65,5.65,0,0,0,.72.36l.37.16.42.19.37.16a2.32,2.32,0,0,0,.44.16,1.57,1.57,0,0,1,.4.13,1.51,1.51,0,0,0,.4.13l.82.22c.27,0,.53.09.78.14A3.26,3.26,0,0,0,405.68,123.16Zm8.22-11.36a.12.12,0,0,0-.1,0,.13.13,0,0,0-.11.06.29.29,0,0,1-.13.1l-.43.19-.6.24a4.18,4.18,0,0,1-.67.19l-.81.2-.44.05-.44.05a2.32,2.32,0,0,0-.48,0,1.28,1.28,0,0,1-.46,0h-.47a.53.53,0,0,1-.25,0,.53.53,0,0,0-.25,0,5.74,5.74,0,0,1-.94-.19,2.46,2.46,0,0,1-.45-.13,2.53,2.53,0,0,0-.45-.13,3,3,0,0,1-.77-.34l-.64-.24-.47-.3a1.48,1.48,0,0,1-.35-.17l-.09-.06.42.27.47.3.29.16a3,3,0,0,1,.34.19,2.38,2.38,0,0,1,.36.15l.41.18a2.6,2.6,0,0,1,.45.13,2.61,2.61,0,0,0,.45.13l.49.11a4.24,4.24,0,0,1,.49.11.53.53,0,0,1,.25,0,.54.54,0,0,0,.25,0h.47a1.18,1.18,0,0,0,.51,0,2.27,2.27,0,0,1,.48,0,3.05,3.05,0,0,1,.45-.07,3.34,3.34,0,0,0,.45-.07,1.22,1.22,0,0,1,.4-.1,1.27,1.27,0,0,0,.4-.1l.33-.15.31-.11a2.4,2.4,0,0,0,.55-.27,2.22,2.22,0,0,1,.38-.22Z"/><path d="M439.83,135.26a.81.81,0,0,1,1,.33,3.13,3.13,0,0,1,.49,1.36,3.51,3.51,0,0,1-.12,1.53,1.25,1.25,0,0,1-.76.91,32.88,32.88,0,0,1-4.81,1,28.05,28.05,0,0,1-12.34-1.2,22.86,22.86,0,0,1-6.54-3.47l-.62-.38-.59-.42a6.64,6.64,0,0,1-1.88-2,5.13,5.13,0,0,1-.68-2.09,4.64,4.64,0,0,1,.26-2,4.69,4.69,0,0,1,.94-1.6,4.24,4.24,0,0,1,1.08-.9,1.88,1.88,0,0,1,.82-.25.71.71,0,0,1,.48.13c.1.09.12.17.07.24a2.5,2.5,0,0,0-.69,2,4.2,4.2,0,0,0,.94,2,9.75,9.75,0,0,0,2,1.86,12.27,12.27,0,0,0,2.45,1.37,7.88,7.88,0,0,0,2.31.6,2,2,0,0,0,1.66-.46c.28-.3.24-.76-.14-1.39a17.61,17.61,0,0,0-1.6-2.19l-2.26-2.68a20.27,20.27,0,0,1-2.07-2.9,7.34,7.34,0,0,1-1-2.88,3.32,3.32,0,0,1,.92-2.64,5.48,5.48,0,0,1,2.57-1.59,11.89,11.89,0,0,1,3.42-.48,20.19,20.19,0,0,1,3.82.37,26.06,26.06,0,0,1,3.77,1,29.52,29.52,0,0,1,3.23,1.34,12.36,12.36,0,0,1,2.21,1.34,2.72,2.72,0,0,1,1,1.45,3.78,3.78,0,0,1,0,1.68,5.32,5.32,0,0,1-.6,1.61,6,6,0,0,1-.89,1.23,3.89,3.89,0,0,1-1.35.82,11.71,11.71,0,0,1-1.79.55,11.47,11.47,0,0,1-1.61.26,1.61,1.61,0,0,1-.84-.05l-.65-.52a11.25,11.25,0,0,1-.9-.8,4.77,4.77,0,0,1-.7-.86c-.18-.29-.2-.51,0-.64a2.88,2.88,0,0,1,.93-.44l1.49-.5,1.5-.5a3,3,0,0,0,.94-.43c.07-.09-.14-.28-.63-.56a13.43,13.43,0,0,0-2-.87q-1.26-.45-2.82-.88a21.37,21.37,0,0,0-3-.59,13.69,13.69,0,0,0-2.68-.07,2.4,2.4,0,0,0-1.71.71c-.05.07.14.35.57.85l1.6,1.87q1,1.13,2,2.56a21.58,21.58,0,0,1,1.76,2.87,8.84,8.84,0,0,1,.91,2.74,2.73,2.73,0,0,1-.54,2.19c-.2.25-.39.47-.57.67s-.36.37-.53.53a23.81,23.81,0,0,0,7.15.39A25.35,25.35,0,0,0,439.83,135.26Zm-18.24-17,.55-.18a3.32,3.32,0,0,1,.59-.14l1.37-.14a10.8,10.8,0,0,1,1.53,0l1.6.12a24.27,24.27,0,0,1,3.19.53q1.58.37,2.77.74l1.14.39c.33.11.61.22.83.32a1.11,1.11,0,0,1,.32.11,1.36,1.36,0,0,0,.25.11l.14.11s.06,0,.07,0l0,0a.15.15,0,0,0-.08,0,.15.15,0,0,1-.08,0,5,5,0,0,1-.54-.26c-.25-.12-.54-.25-.87-.37l-1.13-.41-1.32-.44a12.05,12.05,0,0,0-1.45-.36q-.82-.18-1.62-.31c-.54-.09-1.07-.17-1.6-.23a16.67,16.67,0,0,0-3.15-.08,5,5,0,0,0-.72.07l-.68.11a3.32,3.32,0,0,0-.59.14l-.55.18a2.26,2.26,0,0,0-.86.41l-.37.22a.37.37,0,0,1-.11.11.41.41,0,0,0-.11.11,1.92,1.92,0,0,0-.33.36l-.08.11.08-.11a.73.73,0,0,1,.14-.14l.24-.18a.78.78,0,0,1,.22-.22l.34-.19a1.55,1.55,0,0,1,.41-.19A2.87,2.87,0,0,1,421.6,118.26Zm.55.4.66-.09.73-.09c.26,0,.51,0,.75-.05a6.16,6.16,0,0,0,.68,0,2.34,2.34,0,0,1,.46,0h.22l-.19,0-.25,0h-.28l-1.44,0a4.72,4.72,0,0,0-1.36.32l-.44.12a.28.28,0,0,0-.12.07s.05,0,.07,0l.1,0c.1,0,.15,0,.17,0l.12,0Zm.55,16a.89.89,0,0,0,.25,0,.17.17,0,0,1,.11,0l-.34-.1-.43-.17a2.42,2.42,0,0,1-.5-.16l-.61-.28-.66-.31-.7-.43-.7-.42-.65-.49a1.65,1.65,0,0,1-.61-.46,3.46,3.46,0,0,1-.31-.26l-.27-.23a1.25,1.25,0,0,0-.24-.23,1.26,1.26,0,0,1-.24-.23,1.17,1.17,0,0,0-.21-.21.65.65,0,0,1-.17-.18q-.21-.26-.27-.36l-.19-.3,0,.07a1.31,1.31,0,0,0,.14.27l.11.17.11.17a1.1,1.1,0,0,0,.18.21,1.24,1.24,0,0,1,.18.22l.49.53a1.33,1.33,0,0,0,.26.25,1.36,1.36,0,0,1,.26.25l.65.49.65.49.73.44a6.75,6.75,0,0,0,.71.37l.36.16.36.16a2.45,2.45,0,0,0,.58.23l.29.12.25.08Z"/></svg>