<svg id="Rockets" xmlns="http://www.w3.org/2000/svg" viewBox="0 0 512 512"><defs><style>.cls-1{opacity:0.5;}.cls-2{fill:#fff;}.cls-3{fill:#841717;}.cls-4{fill:#ce1141;}.cls-5{fill:#cc8217;}</style></defs><title>Rockets</title><g class="cls-1"><ellipse class="cls-2" cx="257.89" cy="247.17" rx="242.51" ry="244.7"/><path class="cls-3" d="M257.89,494.5c-65.48,0-127-25.73-173.35-72.45a248.9,248.9,0,0,1,0-349.77C130.84,25.56,192.4-.17,257.89-.17s127,25.73,173.35,72.45a248.9,248.9,0,0,1,0,349.77C384.93,468.77,323.37,494.5,257.89,494.5Zm0-489.4A237.21,237.21,0,0,0,88.28,76a243.63,243.63,0,0,0,0,342.35,238.34,238.34,0,0,0,339.21,0,243.63,243.63,0,0,0,0-342.35A237.21,237.21,0,0,0,257.89,5.1Z"/></g><g class="cls-1"><ellipse class="cls-4" cx="256.62" cy="247.2" rx="169.5" ry="169.09"/><path class="cls-3" d="M256.62,418.32C162,418.32,85.09,341.56,85.09,247.2S162,76.09,256.62,76.09,428.14,152.85,428.14,247.2,351.19,418.32,256.62,418.32Zm0-338.19c-92.35,0-167.48,74.95-167.48,167.08s75.13,167.08,167.48,167.08,167.49-75,167.49-167.08S349,80.13,256.62,80.13Z"/></g><g class="cls-1"><ellipse class="cls-5" cx="253.38" cy="248.3" rx="147.98" ry="153.11"/><path class="cls-3" d="M253.38,401.7c-81.76,0-148.27-68.82-148.27-153.4S171.63,94.9,253.38,94.9s148.27,68.82,148.27,153.4S335.14,401.7,253.38,401.7Zm0-306.22C171.95,95.48,105.7,164,105.7,248.3s66.25,152.82,147.69,152.82S401.07,332.56,401.07,248.3,334.82,95.48,253.38,95.48Z"/></g><rect class="cls-3" x="105.41" y="246.25" width="295.96" height="4.1"/><rect class="cls-3" x="253.9" y="96.39" width="2.34" height="306.22"/><path class="cls-3" d="M355.13,362c-33.37-9.37-57.16-47.89-60.62-98.13-1.82-26.4,2.52-53,12.23-74.84,10.9-24.56,28.13-42.54,49.85-52l1.17,2.68c-21,9.17-37.74,26.65-48.34,50.52-9.51,21.43-13.77,47.52-12,73.45,3.37,49,26.33,86.47,58.49,95.51Z"/><path class="cls-3" d="M152,362l-.79-2.82c32.16-9,55.12-46.53,58.49-95.51,1.79-25.93-2.47-52-12-73.45-10.6-23.88-27.31-41.35-48.34-50.52l1.17-2.68c21.71,9.47,38.95,27.46,49.85,52,9.7,21.86,14,48.44,12.23,74.84C209.18,314.14,185.38,352.65,152,362Z"/><path d="M124,67.85a15.25,15.25,0,0,1,3.48.51c.51.14.77.26.79.36s0,.6.09,1.66.19,2.44.34,4.14.33,3.61.55,5.75.46,4.31.72,6.52.54,4.37.83,6.49.58,4,.83,5.64.48,3,.66,4,.26,1.54.25,1.58-.29.22-.79.27a16.1,16.1,0,0,1-1.64.09,15,15,0,0,1-1.61-.06c-.47,0-.69-.12-.65-.23a6.7,6.7,0,0,0-.17-1.44c-.14-.9-.34-2.08-.58-3.56s-.52-3.17-.82-5.08-.6-3.9-.88-6q-.82.69-2,1.7L121,92.41q-1.32,1.18-2.73,2.47l-2.71,2.5q.45,3.34,1,6.48c.37,2.1.72,4,1,5.58s.57,2.94.77,3.94.3,1.52.3,1.56-.28.24-.79.33-1.06.16-1.66.21-1.14.09-1.61.09-.69,0-.65-.16-.07-.45-.21-1.22-.35-1.79-.6-3.06-.54-2.74-.85-4.42-.64-3.44-1-5.3a13.39,13.39,0,0,1-1.29,1.14c-.07,0-.24-.12-.49-.42l-.82-1q-.44-.52-.76-1c-.22-.31-.32-.52-.3-.61a4.15,4.15,0,0,1,.82-.89l2.07-2q-.55-3.35-1-6.59c-.29-2.16-.53-4.1-.73-5.81s-.41-3.63-.61-5.75c0-.16.3-.26.83-.29a14.3,14.3,0,0,1,1.77,0,17.92,17.92,0,0,1,1.79.21c.54.09.82.19.84.28a11.74,11.74,0,0,0,.1,1.24c.08.78.17,1.81.29,3.09s.26,2.77.45,4.44.41,3.43.68,5.26l2.92-2.48q1.47-1.24,2.84-2.32l2.45-1.92,1.68-1.32q-.39-3.21-.71-6.2t-.53-5.33q-.21-2.34-.43-5.19C123.2,67.92,123.48,67.84,124,67.85ZM113.23,106.3l-.14-.91q-.08-.51-.16-1.18t-.27-1.4l-.26-1.58c0-.14,0-.26-.06-.37s0-.24-.06-.37a1.35,1.35,0,0,0-.3.31,4.1,4.1,0,0,0,.1.54q.32,1.73.64,2.95.12.64.25,1.17c.09.35.15.66.19.93a1,1,0,0,0,.1.32.72.72,0,0,1,.08.22.46.46,0,0,1,0,.2ZM112.8,101l-.11-.42a3.43,3.43,0,0,1-.08-.39l-.12.1c0,.14,0,.26.06.37s.05.25.09.41.06.41.1.63.07.45.09.7.12.48.16.69a3.66,3.66,0,0,0,.17.63l.09.61c0,.2.07.38.11.54s.08.3.12.44a1.28,1.28,0,0,1,.07.37,2.09,2.09,0,0,0,.08.34l0-.3a2.31,2.31,0,0,0,0-.39,3.61,3.61,0,0,1-.06-.49q0-.27-.05-.56a6.18,6.18,0,0,0-.11-.63,5.36,5.36,0,0,1-.26-1.32Zm-2.49-11.57a2.24,2.24,0,0,0-.06-.35,1.49,1.49,0,0,1,0-.24.45.45,0,0,1,0-.21l0,.21c0,.07,0,.15,0,.24s0,.21,0,.34.06.59.11.95.1.75.16,1.19.09.94.16,1.44.14,1,.21,1.58c0,.27.08.55.13.82s.11.56.16.86a1,1,0,0,0,.16-.15,1.15,1.15,0,0,1,.16-.15,6.08,6.08,0,0,1-.14-.74,6.34,6.34,0,0,0-.13-.74q-.12-.86-.24-1.58c-.08-.48-.16-1-.24-1.41s-.16-.86-.23-1.19ZM124.13,89l.31-.3a2.48,2.48,0,0,0,.22-.24,1.25,1.25,0,0,1,.24-.22l-.26.19-.27.22a4,4,0,0,1-.36.28c-.13.13-.26.25-.4.37s-.29.24-.46.36-.28.27-.46.41-.35.3-.5.45-.32.3-.5.45a6.09,6.09,0,0,0-.46.42l-.44.44a3.85,3.85,0,0,1-.42.37l-.35.34a1.28,1.28,0,0,0-.22.25l-.19.2.26-.19.28-.21a3,3,0,0,0,.34-.31l.39-.37c.13-.12.29-.24.46-.37l1-.87.52-.46c.16-.14.33-.28.48-.43l.4-.4A3.66,3.66,0,0,1,124.13,89Zm3,6.44a.26.26,0,0,1-.06-.12.17.17,0,0,0,0-.09.12.12,0,0,1,0-.1.12.12,0,0,1,0,.1,1,1,0,0,0,0,.27,1.25,1.25,0,0,0,0,.37,3.41,3.41,0,0,1,.08.51,17.31,17.31,0,0,0,.41,2.75q.1.74.24,1.46t.3,1.26l.13.48a2.76,2.76,0,0,1,.08.41.63.63,0,0,0,.09.21.12.12,0,0,1,0,.1.12.12,0,0,1,0-.1.12.12,0,0,0,0-.1s0-.08,0-.17l-.1-.91a11.56,11.56,0,0,0-.17-1.27c-.09-.46-.16-.94-.23-1.44s-.21-1-.3-1.46-.17-.91-.24-1.29a2.28,2.28,0,0,0-.13-.45A1.38,1.38,0,0,1,127.13,95.45Z"/><path d="M155.66,68.72q.06-.47.65-.57a3.57,3.57,0,0,1,1.27,0,5.38,5.38,0,0,1,1.24.39c.38.18.56.34.57.51a35.21,35.21,0,0,1-.18,3.79,20.08,20.08,0,0,1-1,4.48,16.92,16.92,0,0,1-2.25,4.4,12.11,12.11,0,0,1-4.06,3.56l-.41.23a2.89,2.89,0,0,1-.44.2q-.31,1.59-.74,3.06a18.16,18.16,0,0,1-1,2.73,12,12,0,0,1-1.38,2.24,6.78,6.78,0,0,1-1.74,1.59,4.78,4.78,0,0,1-1.62.47,10.66,10.66,0,0,1-2.56.08,9.89,9.89,0,0,1-2.72-.61,4.26,4.26,0,0,1-2.1-1.67,7.34,7.34,0,0,1-1-2.44,18.05,18.05,0,0,1-.41-3.17,22.16,22.16,0,0,1,.12-3.42,27.89,27.89,0,0,1,.53-3.2l-.44-.71a4,4,0,0,1-.46-2.74,11.46,11.46,0,0,1,1-3.36,15.18,15.18,0,0,1,2-3.19,9.28,9.28,0,0,1,2.46-2.19,3.76,3.76,0,0,1,1.82-.35,7,7,0,0,1,2.54.52,10.53,10.53,0,0,1,2.65,1.55,8.51,8.51,0,0,1,2.21,2.7,10.51,10.51,0,0,1,1.07,3.49,24.56,24.56,0,0,1,.21,4.42,7.55,7.55,0,0,0,2.07-2.74,16.53,16.53,0,0,0,1.15-3.47,29.17,29.17,0,0,0,.54-3.57Q155.47,70,155.66,68.72ZM140,92.37a8619.63,8619.63,0,0,0-.26-.77,3.73,3.73,0,0,0-.1-.48,4,4,0,0,1-.1-.48,3,3,0,0,1-.15-1c0-.16,0-.31,0-.44s0-.28,0-.44a1,1,0,0,0-.06-.33.37.37,0,0,1,0-.25.54.54,0,0,1,0-.27,2.06,2.06,0,0,1,0,.27.84.84,0,0,0,0,.28,2.51,2.51,0,0,1,0,.32,4.66,4.66,0,0,0,0,.91q0,.24,0,.49c0,.17,0,.33,0,.49a2.13,2.13,0,0,0,.13.49,2,2,0,0,1,.13.49,1.27,1.27,0,0,0,.15.42.85.85,0,0,1,.09.18.92.92,0,0,0,.09.18,1.63,1.63,0,0,0,.15.32l.14.22.12.18,0,0a.08.08,0,0,1,0-.07s0-.06,0-.11a1.42,1.42,0,0,1-.12-.24Zm.39-.14-.14-.41a2.53,2.53,0,0,1-.1-.43,6.7,6.7,0,0,1-.15-1l0-.61a2.6,2.6,0,0,1-.07-.58c0-.2,0-.41,0-.62s0-.42,0-.62q0-.65.09-1.3c0-.22.05-.44.08-.65s.07-.41.11-.61l-.34-.25-.06.19c0,.22-.05.44-.08.65a5.93,5.93,0,0,0-.06.68q0,.65-.09,1.3c0,.25,0,.47,0,.67l0,.61a2.12,2.12,0,0,0,0,.34l.06.28a.62.62,0,0,0,0,.29.62.62,0,0,1,0,.29c0,.19.08.36.12.52a3.78,3.78,0,0,1,.1.48c0,.12.07.27.11.45a1.15,1.15,0,0,1,.1.2,1.25,1.25,0,0,0,.1.2,3.24,3.24,0,0,0,.27.61.42.42,0,0,0,.11.22.87.87,0,0,1,.13.15l.07.11-.07-.11a1.36,1.36,0,0,0-.2-.4,1.39,1.39,0,0,0-.09-.28A1.55,1.55,0,0,1,140.43,92.23Zm1.36,1.47A8.4,8.4,0,0,0,144.41,91a15.53,15.53,0,0,0,1.68-3.83,8.18,8.18,0,0,1-3-.31,9.79,9.79,0,0,1-2.5-1.17,16.24,16.24,0,0,0-.13,4.13A8.58,8.58,0,0,0,141.79,93.7ZM141,83.61a3.22,3.22,0,0,0,2,1.66,5.55,5.55,0,0,0,3.65-.57,31.88,31.88,0,0,0,.47-3.73,25.38,25.38,0,0,0,0-3.61,21.74,21.74,0,0,0-.47-3.19,9.48,9.48,0,0,0-.89-2.47.87.87,0,0,0-1.33-.41,6.31,6.31,0,0,0-2.36,2.61,15,15,0,0,0-1.46,4,4.66,4.66,0,0,1,1.39.68c.37.28.51.52.44.74s-.29.68-.59,1.45A23.73,23.73,0,0,0,141,83.61Zm5.24,4.22a1.28,1.28,0,0,0,.13-.33c0-.12.06-.24.1-.37s0,0-.05,0,0,0-.05,0l-.23.7a3.09,3.09,0,0,0-.19.52,2.44,2.44,0,0,1-.16.46,3,3,0,0,1-.18.44,2.13,2.13,0,0,0-.13.31,2.47,2.47,0,0,1-.11.3,1.72,1.72,0,0,0-.09.24.29.29,0,0,1-.08.15l.31-.65a3.46,3.46,0,0,0,.17-.36c.05-.14.12-.28.19-.42s.13-.3.2-.45S146.18,88,146.25,87.83Zm-5.66-5.51a1.77,1.77,0,0,0,.06.25,2.06,2.06,0,0,1,.06.25q.06-.29.13-.54t.15-.5l.16-.48a3.42,3.42,0,0,0,.12-.46l.22-.65.22-.65a.61.61,0,0,1-.09.16,1.45,1.45,0,0,0-.12.2,1.85,1.85,0,0,0-.1.24c-.07.22-.17.45-.28.71s-.22.56-.34.9Zm-3.41-6.72c0,.13-.09.24-.14.34a2.74,2.74,0,0,0-.11.28l-.07.2,0,0,.07-.2a2.71,2.71,0,0,1,.11-.28l.16-.3.2-.35c.07-.13.16-.27.27-.44s.15-.29.21-.43a1.76,1.76,0,0,1,.28-.42q.16-.25.28-.47a3,3,0,0,1,.26-.41,2.42,2.42,0,0,0,.29-.4,3.25,3.25,0,0,1,.25-.38q.28-.37.38-.53l.14-.18,0,0-.19.21a6.22,6.22,0,0,0-.4.49l-.58.78c-.2.27-.39.56-.57.88a8.54,8.54,0,0,0-.48.88Zm0-1c0,.06-.07.1-.06.11s0,0,0,.08l0,.07a2.66,2.66,0,0,0,.16-.25,1.06,1.06,0,0,1,.15-.27,2.85,2.85,0,0,0,.22-.36,2.33,2.33,0,0,0,.3-.44c.08-.15.17-.31.28-.48a.73.73,0,0,1,.16-.25.71.71,0,0,0,.16-.25,1,1,0,0,1,.2-.25,1,1,0,0,0,.2-.25c.06-.1.19-.28.38-.53a4.1,4.1,0,0,0,.36-.46c.13-.14.26-.28.39-.41a3.48,3.48,0,0,0,.35-.38,2,2,0,0,1,.33-.29.53.53,0,0,1,.14-.13.52.52,0,0,0,.14-.13l.19-.11s0,0,0-.07l-.28.16-.28.16a2.07,2.07,0,0,0-.4.28,3.87,3.87,0,0,0-.42.35,1.16,1.16,0,0,1-.2.19,1.2,1.2,0,0,0-.2.19c-.16.16-.3.32-.44.49l-.41.52-.35.52a4,4,0,0,0-.33.55,5.43,5.43,0,0,0-.45.93A3,3,0,0,0,137.16,74.64ZM147.71,80q0-.2,0-.38c0-.11,0-.24,0-.38s0-.48,0-.69,0-.44,0-.67a3,3,0,0,1-.05-.63,3.75,3.75,0,0,0,0-.59q-.2-1.1-.29-1.8a2.46,2.46,0,0,1-.08-.46.35.35,0,0,0,0-.18.35.35,0,0,1,0,.18c0,.07,0,.14,0,.22s0,.17,0,.26.08.48.11.79.06.66.06,1c0,.19,0,.38.05.57s0,.41,0,.64,0,.45,0,.67,0,.45,0,.69a5.88,5.88,0,0,1,0,.71c0,.14,0,.26,0,.38a1.69,1.69,0,0,1,0,.34c0,.29-.06.55-.08.78s0,.49,0,.76-.09.51-.12.76-.08.49-.12.76a1.19,1.19,0,0,1-.06.39,1.19,1.19,0,0,0-.06.39l.18-.1.13-.69c0-.26.08-.51.12-.76s.08-.49.12-.76l.08-.78c0-.23,0-.49,0-.76s0-.26,0-.36S147.71,80.15,147.71,80Zm.28-3.84q-.08-.36-.13-.71t-.12-.71c-.05-.24-.11-.47-.17-.68s-.13-.42-.19-.62a3.35,3.35,0,0,0-.2-.64,5,5,0,0,1-.21-.54l-.4-.73-.17-.31,0,.08a.32.32,0,0,1,0,.11.39.39,0,0,0,.05.15,3.08,3.08,0,0,1,.15.32c.06.14.11.29.16.46a5.1,5.1,0,0,0,.2.52,3.34,3.34,0,0,1,.19.62c.05.24.1.46.16.67s.11.43.16.67l.15.7c0,.23.1.46.15.7s.07.42.08.63,0,.39,0,.56l.07.49a1.35,1.35,0,0,1,0,.38.63.63,0,0,0,.06.22.12.12,0,0,1,0,.1v-.31a2.16,2.16,0,0,0,0-.39c0-.15,0-.32,0-.5s0-.35,0-.57A3.72,3.72,0,0,0,148,76.17Z"/><path d="M178.42,62.57c.05-.24.28-.34.68-.31a4.23,4.23,0,0,1,1.25.32,4.65,4.65,0,0,1,1.16.69c.34.28.48.54.43.78-.3,1.3-.76,2.83-1.34,4.58a48.83,48.83,0,0,1-2.05,5.15,28.69,28.69,0,0,1-2.62,4.55,8.07,8.07,0,0,1-3.16,2.81,3.32,3.32,0,0,1-1.62.3,4.48,4.48,0,0,1-1.54-.38,4.61,4.61,0,0,1-1.24-.8,2.43,2.43,0,0,1-.69-.94,8.66,8.66,0,0,1-.25-1.46q-.12-1.08-.19-2.65-.51,2-1.08,3.79a32.24,32.24,0,0,1-1.22,3.3,13.94,13.94,0,0,1-1.44,2.58,5.07,5.07,0,0,1-1.74,1.58,3.4,3.4,0,0,1-1.3.3,5.47,5.47,0,0,1-1.72-.16,5.09,5.09,0,0,1-1.7-.78,3.7,3.7,0,0,1-1.27-1.61,8,8,0,0,1-.44-2.46q-.13-1.78-.15-4.05t.06-4.79q.08-2.51.17-4.67c.06-1.44.11-2.67.14-3.7a7.75,7.75,0,0,0-.08-1.92.34.34,0,0,1,.16-.47,1.34,1.34,0,0,1,.74-.07,7.13,7.13,0,0,1,1.1.25,8.09,8.09,0,0,1,1.16.44,6.74,6.74,0,0,1,.93.53,1.46,1.46,0,0,1,.49.47,5.2,5.2,0,0,1,0,1.52c-.08.88-.18,2-.27,3.25s-.19,2.66-.27,4.15-.14,2.89-.17,4.21,0,2.49,0,3.5a7.24,7.24,0,0,0,.23,2,5.15,5.15,0,0,0,2-2.67,40.79,40.79,0,0,0,1.69-4.92q.8-2.82,1.51-6c.47-2.12.93-4.08,1.34-5.86s.78-3.28,1.09-4.48.56-1.84.72-1.91a1.58,1.58,0,0,1,1.23,0,3.69,3.69,0,0,1,1.09.67,4.47,4.47,0,0,1,.81.92,5.26,5.26,0,0,1,.43.77,15.45,15.45,0,0,1,0,1.6q-.05,1.38-.13,3.32t-.12,4.16q0,2.22,0,4.09t.07,3.07c0,.8.13,1.17.25,1.11a5.62,5.62,0,0,0,2.07-1.75,16.53,16.53,0,0,0,1.85-3.08A39.27,39.27,0,0,0,177,67.29Q177.79,65,178.42,62.57ZM156,80.57c0-.16,0-.33,0-.51a4.63,4.63,0,0,1,0-.54,5.25,5.25,0,0,1,0-.6c0-.21,0-.44,0-.67a3.44,3.44,0,0,0,.05-.67c0-.23,0-.48,0-.75q0-.71,0-1.47a14.53,14.53,0,0,1,0-1.53q0-.81.06-1.59t.06-1.49q0-.75,0-1.41c0-.44,0-.86,0-1.25l0-1a5.3,5.3,0,0,0,0-.82.62.62,0,0,0,0-.3.68.68,0,0,1,0-.23.45.45,0,0,1,0-.2c0,.2,0,.44-.06.72s-.06.53-.08.85,0,.67-.09,1.05,0,.82,0,1.27-.05.92-.08,1.4a13.65,13.65,0,0,0-.11,1.51c0,.51,0,1-.08,1.55s0,1,0,1.56,0,1,0,1.52,0,.91.05,1.36,0,.87.06,1.26c.06.76.12,1.38.18,1.84a.62.62,0,0,0,0,.3.38.38,0,0,1,0,.2.67.67,0,0,0,0,.18.36.36,0,0,1,0-.18c0-.07,0-.14,0-.2s0-.17,0-.3A3.06,3.06,0,0,1,156,81Q156,80.81,156,80.57Zm9.36-1.2a.67.67,0,0,0,.05-.17.34.34,0,0,1,0-.11l.05-.12-.15.37a2.58,2.58,0,0,0-.21.47,4.55,4.55,0,0,1-.26.59l-.13.31a2,2,0,0,1-.17.33c0,.12-.11.25-.17.38s-.12.26-.17.38l-.43.8-.42.8a1.51,1.51,0,0,0-.27.38,1.91,1.91,0,0,1-.23.36.44.44,0,0,1-.15.2.44.44,0,0,0-.15.2l-.29.3a.29.29,0,0,1-.13.17.49.49,0,0,0-.15.13l-.29.3-.17.09a.21.21,0,0,0-.1.08.1.1,0,0,1-.05.05l-.35.18-.16.06-.16.06-.15,0a.4.4,0,0,1-.15,0,.88.88,0,0,1-.26,0,.29.29,0,0,1-.21,0h-.32a.15.15,0,0,0-.11,0h.27l.18,0h.21a1.14,1.14,0,0,0,.28,0l.3-.06a1.18,1.18,0,0,0,.32-.12l.35-.18.17-.09c.09,0,.14-.09.15-.13a1.67,1.67,0,0,0,.35-.28,1.73,1.73,0,0,0,.31-.26,2.07,2.07,0,0,1,.31-.36.45.45,0,0,1,.12-.19.45.45,0,0,0,.12-.19,2,2,0,0,0,.29-.39,2.7,2.7,0,0,1,.25-.37l.23-.41.23-.41q.07-.18.17-.38c.06-.13.14-.26.21-.4l.6-1.47c.08-.2.16-.39.22-.57S165.29,79.49,165.35,79.37Zm-2.57.72a1.58,1.58,0,0,0-.16.35,2.65,2.65,0,0,1-.09.27.8.8,0,0,1-.12.21l0-.06s0,0,.09-.15a2.51,2.51,0,0,1,.12-.26c0-.09.1-.2.15-.32l.22-.4c.07-.13.13-.28.2-.44l.19-.46a5.1,5.1,0,0,0,.17-.5,10.24,10.24,0,0,0,.6-1.86,2.89,2.89,0,0,1,.09-.34c0-.12.07-.21.11-.3a2.11,2.11,0,0,0,0-.26,1.35,1.35,0,0,0-.06.22c0,.08-.07.18-.11.3a2.92,2.92,0,0,0-.09.34l-.3.88-.35,1A15,15,0,0,1,162.77,80.09Zm4.32-9.16a.39.39,0,0,0,0-.21.78.78,0,0,1,0-.19.51.51,0,0,1,0-.16.51.51,0,0,0,0,.16,1.39,1.39,0,0,1,0,.18,1.11,1.11,0,0,1-.08.2q0,.26-.14.62t-.17.78q-.19.91-.43,1.95a11.41,11.41,0,0,1-.28,1.12c-.11.36-.21.74-.32,1.15s-.21.79-.31,1.15-.22.71-.34,1.07l-.32,1-.19.46a3.18,3.18,0,0,0-.14.44L163.84,82a.77.77,0,0,1-.12.21.59.59,0,0,0-.09.14c0,.06-.06.1,0,.12s0-.07,0-.12a.59.59,0,0,1,.09-.14.76.76,0,0,0,.12-.21,4,4,0,0,0,.27-.57,3.78,3.78,0,0,0,.34-.76,5.86,5.86,0,0,0,.42-.89q.18-.48.37-1l.32-1.11c.11-.36.21-.74.31-1.15a20.94,20.94,0,0,0,.6-2.27c.09-.36.16-.71.21-1s.1-.64.16-.92l.15-.77ZM170,65.76a3.41,3.41,0,0,0,0,.77c0,.12,0,.23,0,.32l0-.3a1.31,1.31,0,0,0,0-.37c0-.14,0-.29,0-.45a4,4,0,0,1,.05-.53,2.88,2.88,0,0,0,0-.57,3.74,3.74,0,0,1,0-.65q0-.32.05-.67a3.68,3.68,0,0,1,0-.65,5,5,0,0,0,0-.61,7.75,7.75,0,0,1,0-1.15,2.81,2.81,0,0,0,0-.43,3.23,3.23,0,0,1,0-.32,1.2,1.2,0,0,1,0-.28l0,.3a1.38,1.38,0,0,0,0,.35c0,.13,0,.27,0,.44s0,.34,0,.52a4.62,4.62,0,0,0,0,.56q0,.34,0,.66c0,.21,0,.43,0,.66a3.83,3.83,0,0,1,0,.65,4.8,4.8,0,0,0,0,.61C170,65.06,170,65.44,170,65.76Z"/><path d="M201,55.21a.7.7,0,0,1,.74-.66,2.7,2.7,0,0,1,1.27.38,3.53,3.53,0,0,1,1.1,1,1.4,1.4,0,0,1,.33,1.14,33,33,0,0,1-1.53,4.45,26,26,0,0,1-2.67,4.84,23.68,23.68,0,0,1-4,4.44,18.26,18.26,0,0,1-5.74,3.28l-.59.28-.6.24a5.41,5.41,0,0,1-2.45.36,4.68,4.68,0,0,1-1.95-.65,4.81,4.81,0,0,1-1.42-1.34,5.13,5.13,0,0,1-.8-1.67,4.57,4.57,0,0,1-.19-1.39,1.86,1.86,0,0,1,.2-.8.6.6,0,0,1,.33-.31c.11,0,.19,0,.22.08a2.68,2.68,0,0,0,1.25,1.71,3.7,3.7,0,0,0,2,.41,7.9,7.9,0,0,0,2.4-.56,9.92,9.92,0,0,0,2.22-1.19,6.66,6.66,0,0,0,1.55-1.52,2,2,0,0,0,.43-1.6c-.1-.4-.48-.63-1.14-.69a14.47,14.47,0,0,0-2.45,0l-3.15.29a17.1,17.1,0,0,1-3.25,0,6.7,6.7,0,0,1-2.74-.82,3.55,3.55,0,0,1-1.63-2.24,5.78,5.78,0,0,1,0-3,11.31,11.31,0,0,1,1.27-3,18.14,18.14,0,0,1,2.13-2.88,22.36,22.36,0,0,1,2.6-2.47,24.9,24.9,0,0,1,2.59-1.85,10.18,10.18,0,0,1,2.09-1,2.28,2.28,0,0,1,1.59,0,3.7,3.7,0,0,1,1.31.93,5.73,5.73,0,0,1,1,1.41,6.71,6.71,0,0,1,.52,1.43,4.2,4.2,0,0,1,0,1.56,12,12,0,0,1-.42,1.76,11.31,11.31,0,0,1-.57,1.44c-.2.4-.34.61-.44.65l-.7.23a9.26,9.26,0,0,1-1,.27,3.9,3.9,0,0,1-1,.08c-.31,0-.49-.13-.52-.34a3.1,3.1,0,0,1,.1-1l.32-1.49.33-1.49a3.16,3.16,0,0,0,.11-1c0-.11-.28,0-.73.19a11.12,11.12,0,0,0-1.63,1.12q-1,.76-2,1.78a18.59,18.59,0,0,0-1.92,2.12,12.42,12.42,0,0,0-1.34,2.12A2.46,2.46,0,0,0,182,62c0,.08.34.09.94,0l2.22-.22q1.33-.13,2.93-.15a18,18,0,0,1,3.06.22,7.82,7.82,0,0,1,2.54.83,2.89,2.89,0,0,1,1.43,1.69c.1.31.18.59.24.84s.12.5.16.73a21.43,21.43,0,0,0,3.67-5.55A25.27,25.27,0,0,0,201,55.21Zm-21.83,5q.07-.26.13-.54a3.2,3.2,0,0,1,.18-.56l.55-1.19a10,10,0,0,1,.74-1.23l.86-1.23a21.35,21.35,0,0,1,1.95-2.28q1-1.07,1.91-1.82l.85-.7a8,8,0,0,1,.64-.49.94.94,0,0,1,.24-.2,1.08,1.08,0,0,0,.21-.14l.15,0s0,0,0-.06l-.05,0a.13.13,0,0,0-.07,0,.12.12,0,0,1-.07,0,4,4,0,0,1-.46.29c-.22.13-.45.3-.7.49l-.86.68-1,.82a10.35,10.35,0,0,0-1,1q-.53.56-1,1.13t-.95,1.16a15.27,15.27,0,0,0-1.58,2.5,4.81,4.81,0,0,0-.29.63q-.13.33-.24.61a3.27,3.27,0,0,0-.18.56c0,.19-.08.37-.13.54a2.32,2.32,0,0,0-.09.93c0,.14,0,.28,0,.42a.43.43,0,0,1,0,.15.41.41,0,0,0,0,.15,2.16,2.16,0,0,0,.13.47l0,.12,0-.12a.84.84,0,0,1,0-.19c0-.07,0-.17,0-.29a.86.86,0,0,1-.06-.31,3,3,0,0,0,0-.38,1.58,1.58,0,0,1,.05-.44A2.94,2.94,0,0,1,179.12,60.23Zm.58-.22.25-.59.28-.65c.1-.22.21-.44.32-.63a5.9,5.9,0,0,0,.29-.57,2.23,2.23,0,0,1,.19-.4l.1-.18a.6.6,0,0,1-.12.14,1.37,1.37,0,0,0-.16.18,1.86,1.86,0,0,0-.14.22L180,58.71a4.61,4.61,0,0,0-.4,1.28,4.15,4.15,0,0,0-.12.42.3.3,0,0,0,0,.14s0,0,0-.06l0-.1c0-.08.06-.13,0-.16a.38.38,0,0,0,0-.11A.34.34,0,0,1,179.7,60Zm12.72,8.7a.76.76,0,0,0,.14-.19.15.15,0,0,1,.08-.07l-.24.22-.33.25a2,2,0,0,1-.36.31l-.5.33-.55.35-.66.32-.66.33-.69.24A1.34,1.34,0,0,1,188,71l-.35.1-.31.09a1,1,0,0,0-.29.06,1,1,0,0,1-.29.06,1,1,0,0,0-.27.05.52.52,0,0,1-.22,0h-.41l-.32,0,.06,0a1.1,1.1,0,0,0,.28,0h.37a.9.9,0,0,0,.25,0,1,1,0,0,1,.25,0l.64-.09a1.07,1.07,0,0,0,.31-.07,1.16,1.16,0,0,1,.31-.07l.69-.25.69-.24.68-.33a5.36,5.36,0,0,0,.62-.36l.29-.19.29-.19a2,2,0,0,0,.45-.34l.23-.17.18-.15A3.22,3.22,0,0,1,192.42,68.71Z"/><path d="M217.22,51.13c.11-.32.37-.45.78-.38a3.43,3.43,0,0,1,1.27.51,5,5,0,0,1,1.11.95q.46.54.32.88c-.47,1.28-1,2.72-1.66,4.31A33.22,33.22,0,0,1,216.81,62a19.86,19.86,0,0,1-3,3.89,8.26,8.26,0,0,1-3.93,2.27,6.86,6.86,0,0,1-2,.12,7.83,7.83,0,0,1-2.62-.66,8.28,8.28,0,0,1-2.56-1.77,7.35,7.35,0,0,1-1.8-3.25,10.56,10.56,0,0,1-.19-2.89c0-1.37.16-2.95.37-4.74s.47-3.7.81-5.73.69-4,1.08-5.92q-1,.35-2,.61l-1.85.5a2.6,2.6,0,0,1-3.27-1.18,2.77,2.77,0,0,1-.36-1.34q0-.66.32-.75l1.48-.42,2.24-.63L202,39.4c.8-.22,1.46-.41,2-.57.67-3,1.23-5.29,1.63-6.95a12.89,12.89,0,0,0,.54-2.83q-.17-.73.56-.83a3.74,3.74,0,0,1,1.69.23,7.82,7.82,0,0,1,1.82.9,2.11,2.11,0,0,1,1,1.22,7.5,7.5,0,0,1-.41,1.75c-.3,1-.75,2.65-1.32,4.88q2.5-.7,4.58-1.17c1.39-.31,2.4-.53,3-.65a4.52,4.52,0,0,1,1.72-.08,1.85,1.85,0,0,1,.94.47,1.77,1.77,0,0,1,.46.85c.08.34.15.69.22,1a.65.65,0,0,1-.37.78,5.14,5.14,0,0,1-1.2.36q-2.51.47-5.16,1.21t-5.24,1.57q-.71,3.05-1.37,6.54T206,54.86a57.72,57.72,0,0,0-.44,5.93,15.8,15.8,0,0,0,.37,4.22q.27,1,.88.85a7.4,7.4,0,0,0,3.49-2.19,22.75,22.75,0,0,0,2.9-3.86,39.41,39.41,0,0,0,2.34-4.51C216.22,53.74,216.78,52.36,217.22,51.13Zm-13,15.39a1.38,1.38,0,0,0,.37.26l.17.09a.48.48,0,0,1-.13-.1l-.17-.16-.23-.19a.75.75,0,0,1-.23-.19,1.69,1.69,0,0,0-.24-.23l-.28-.26a3.12,3.12,0,0,1-.29-.31l-.25-.27-.25-.27a2.68,2.68,0,0,1-.45-.51l-.16-.21A.49.49,0,0,1,202,64a.17.17,0,0,1-.08-.11v0l0,.17a.9.9,0,0,0,.08.18l.15.25a1.47,1.47,0,0,1,.15.25,1,1,0,0,0,.21.28,3.21,3.21,0,0,1,.26.29,3.51,3.51,0,0,0,.26.29c.19.19.38.37.58.54A3,3,0,0,0,204.22,66.52ZM201.76,53q-.09.84-.17,1.5t-.1,1.17l0,1a.51.51,0,0,0,0-.24,2.15,2.15,0,0,0,0-.31c0-.14,0-.29.06-.45q.08-.48.16-1.14T202,53q.15-.81.37-2t.44-2.46q.23-1.29.49-2.58t.48-2.39l0-.28,0-.28a1.33,1.33,0,0,1-.4.15.76.76,0,0,0,0,.19.85.85,0,0,1,0,.19c-.08.38-.17.83-.26,1.34s-.19,1-.3,1.55-.21,1-.3,1.53-.16.91-.2,1.26q-.15,1-.27,2T201.76,53Zm.56,1.26a1,1,0,0,0,.07-.32,3.36,3.36,0,0,1,0-.4c.06-.29.13-.63.2-1l.09-.55a5.63,5.63,0,0,1,.13-.6c0-.19,0-.38.08-.59s.07-.39.1-.55,0-.37.07-.54.05-.34.08-.5l.12-1-.28,1c0,.16-.06.32-.08.5s-.05.34-.08.5a3.9,3.9,0,0,1-.11.58,3,3,0,0,0-.1.62l-.17,1.14q0,.28-.07.52l-.08.48a2.64,2.64,0,0,0,0,.42c0,.12,0,.23,0,.32a1.28,1.28,0,0,1,0,.28Zm2.49-17.29a4.91,4.91,0,0,1-.12.53,1.85,1.85,0,0,0-.07.29c0,.09,0,.2-.06.33s-.08.33-.15.63l.37-.09c0-.28.08-.49.1-.61a1.8,1.8,0,0,0,0-.3,1.71,1.71,0,0,1,0-.25c0-.09,0-.25.11-.48q.19-.81.31-1.5a7.78,7.78,0,0,1,.28-1.17,3.53,3.53,0,0,0,.07-.4c0-.11,0-.21,0-.3a1.16,1.16,0,0,1,0-.28,1.49,1.49,0,0,0-.06.24.71.71,0,0,0-.13.3l-.1.43q-.16.53-.31,1.18T204.82,36.95Z"/><path d="M240.47,43.84a.65.65,0,0,1,.8-.3,3.48,3.48,0,0,1,1.16.48,5.33,5.33,0,0,1,1,.81c.28.3.4.52.34.67A35.41,35.41,0,0,1,242.3,49a20,20,0,0,1-2.43,3.83,16.52,16.52,0,0,1-3.57,3.3A11.51,11.51,0,0,1,231.38,58l-.46.07a2.61,2.61,0,0,1-.46,0q-.82,1.37-1.72,2.59a17.83,17.83,0,0,1-1.88,2.17,11.52,11.52,0,0,1-2,1.59,6.39,6.39,0,0,1-2.12.85,4.51,4.51,0,0,1-1.63-.15,10.2,10.2,0,0,1-2.35-.86,9.71,9.71,0,0,1-2.26-1.56,4.37,4.37,0,0,1-1.34-2.31,7.56,7.56,0,0,1-.05-2.62,18.17,18.17,0,0,1,.7-3.1A22.14,22.14,0,0,1,217,51.52a27.59,27.59,0,0,1,1.57-2.78l-.16-.82A4.09,4.09,0,0,1,219,45.2,11.18,11.18,0,0,1,221,42.44,14.53,14.53,0,0,1,224,40.21a8.82,8.82,0,0,1,3-1.16,3.6,3.6,0,0,1,1.78.33,6.87,6.87,0,0,1,2.14,1.4,10.65,10.65,0,0,1,1.88,2.4,8.71,8.71,0,0,1,1.1,3.31,10.75,10.75,0,0,1-.22,3.64,24.83,24.83,0,0,1-1.32,4.2,7.25,7.25,0,0,0,2.83-1.81,16.26,16.26,0,0,0,2.24-2.83,29.19,29.19,0,0,0,1.72-3.14Q239.86,45,240.47,43.84ZM218.16,60.27a1.24,1.24,0,0,1,0-.41,1.27,1.27,0,0,1,0-.41,3.73,3.73,0,0,0,.07-.49,3.94,3.94,0,0,1,.07-.49,3.08,3.08,0,0,1,.2-1c0-.16.07-.3.11-.43s.08-.27.11-.43a1.07,1.07,0,0,0,.06-.33.37.37,0,0,1,.08-.24.54.54,0,0,1,.1-.24,2.09,2.09,0,0,1-.1.24.83.83,0,0,0-.13.25,2.55,2.55,0,0,1-.12.29,4.64,4.64,0,0,0-.28.86q-.05.23-.13.47c-.05.16-.09.32-.13.48a2.2,2.2,0,0,0,0,.5,2.09,2.09,0,0,1,0,.5,1.32,1.32,0,0,0,0,.45.88.88,0,0,1,0,.2.91.91,0,0,0,0,.2,1.73,1.73,0,0,0,0,.35l.05.26,0,.22v0a.09.09,0,0,1,0-.07s0-.05,0-.11a1.4,1.4,0,0,1,0-.26C218.16,60.53,218.16,60.42,218.16,60.27Zm.4,0c0-.15,0-.29,0-.43a2.53,2.53,0,0,1,.06-.44,6.84,6.84,0,0,1,.2-1l.18-.58a2.66,2.66,0,0,1,.14-.57c.06-.19.13-.39.21-.58s.15-.39.21-.58l.53-1.18q.14-.3.29-.57t.3-.53l-.22-.36-.12.16c-.1.2-.2.39-.3.57a5.79,5.79,0,0,0-.29.62L219.24,56c-.09.23-.16.44-.23.63l-.19.58a2.25,2.25,0,0,0-.08.33l0,.28a.63.63,0,0,0-.07.28.63.63,0,0,1-.07.28c0,.19-.05.36-.07.53a3.92,3.92,0,0,1-.07.49q0,.18-.05.46a1.18,1.18,0,0,1,0,.22,1.25,1.25,0,0,0,0,.22,3.4,3.4,0,0,0,0,.66.44.44,0,0,0,0,.24.88.88,0,0,1,.06.19l0,.13,0-.13a1.39,1.39,0,0,0,0-.44,1.47,1.47,0,0,0,0-.29A1.6,1.6,0,0,1,218.56,60.27Zm.74,1.87a7.89,7.89,0,0,0,3.3-1.57,15.06,15.06,0,0,0,2.83-3,8,8,0,0,1-2.63-1.38,9.78,9.78,0,0,1-1.87-2A16.24,16.24,0,0,0,219.4,58,8.8,8.8,0,0,0,219.3,62.14ZM222,52.47a3.28,3.28,0,0,0,1.29,2.29,5.31,5.31,0,0,0,3.51.79,32,32,0,0,0,1.7-3.3,25.59,25.59,0,0,0,1.23-3.37,22,22,0,0,0,.66-3.14,9.71,9.71,0,0,0,0-2.62c-.1-.67-.46-1-1.07-.86a6,6,0,0,0-3,1.58A14.69,14.69,0,0,0,223.65,47a4.7,4.7,0,0,1,1,1.14c.24.39.29.67.15.84s-.49.52-1,1.14A23.22,23.22,0,0,0,222,52.47Zm3.33,5.82a1.27,1.27,0,0,0,.23-.26q.1-.15.22-.31s0,0-.05,0,0,0-.05,0l-.45.57a3,3,0,0,0-.35.42,2.47,2.47,0,0,1-.31.37,3,3,0,0,1-.31.35,2.1,2.1,0,0,0-.23.24,2.39,2.39,0,0,1-.2.24l-.16.19c-.05.07-.1.11-.13.11l.5-.49a3.24,3.24,0,0,0,.27-.27l.31-.32.33-.35Zm-3.28-7.17a1.88,1.88,0,0,0,0,.25,2,2,0,0,1,0,.25l.3-.46c.09-.14.2-.27.31-.41l.31-.39a3.28,3.28,0,0,0,.27-.38l.42-.52.42-.52a.62.62,0,0,1-.14.11l-.18.14-.17.19q-.21.26-.49.56t-.62.71Zm-.81-7.49-.24.27-.2.22-.13.16h.05l.13-.16.2-.22.25-.22.3-.26.39-.32.34-.33a1.66,1.66,0,0,1,.4-.29q.23-.18.42-.34a2.88,2.88,0,0,1,.38-.29,2.27,2.27,0,0,0,.4-.27,3.14,3.14,0,0,1,.35-.26c.26-.16.43-.28.53-.36l.19-.12v0l-.24.13a5.79,5.79,0,0,0-.53.31l-.79.51q-.41.27-.82.61a8.28,8.28,0,0,0-.73.64Zm.31-.91c-.06,0-.09.07-.09.08s0,0,0,.07l0,.05.23-.18a1,1,0,0,1,.23-.2,2.58,2.58,0,0,0,.33-.26,2.18,2.18,0,0,0,.43-.3q.18-.17.42-.34a.71.71,0,0,1,.24-.17.68.68,0,0,0,.24-.17.92.92,0,0,1,.27-.16A.91.91,0,0,0,224,41c.09-.08.27-.19.53-.36a4,4,0,0,0,.48-.3l.49-.24a3.21,3.21,0,0,0,.44-.23,2,2,0,0,1,.4-.15.5.5,0,0,1,.18-.07.49.49,0,0,0,.17-.07l.21,0s0,0,0-.05l-.31,0-.31,0a1.89,1.89,0,0,0-.46.12,3.7,3.7,0,0,0-.51.17,1.11,1.11,0,0,1-.25.11,1.1,1.1,0,0,0-.25.11c-.2.09-.39.19-.56.29l-.56.34-.5.35a3.89,3.89,0,0,0-.49.4,5.3,5.3,0,0,0-.73.71A2.86,2.86,0,0,0,221.57,42.73Zm7.77,8.8c0-.13.09-.24.12-.35s.07-.23.12-.35.19-.44.26-.64.14-.41.21-.63a3,3,0,0,1,.16-.6,3.8,3.8,0,0,0,.17-.56q.2-1.09.35-1.78a2.5,2.5,0,0,1,.09-.46.36.36,0,0,0,0-.18.35.35,0,0,1,0,.18c0,.06,0,.13-.07.21s0,.16-.07.25-.09.47-.17.78-.17.63-.29,1q-.06.28-.15.55l-.19.61-.21.63c-.07.2-.16.42-.26.64a6.08,6.08,0,0,1-.25.66c0,.13-.09.24-.12.35a1.69,1.69,0,0,1-.13.31l-.34.7c-.1.21-.2.44-.29.69l-.37.66-.37.66a1.2,1.2,0,0,1-.19.34,1.18,1.18,0,0,0-.19.34l.19,0,.35-.59.37-.66.37-.66.34-.7c.1-.21.2-.44.3-.69l.13-.33Zm1.57-3.48c0-.24.08-.48.13-.71s.09-.46.13-.71.06-.47.08-.7,0-.44,0-.65a3.39,3.39,0,0,0,0-.67,5.13,5.13,0,0,1,0-.58l-.12-.83,0-.35V43a.31.31,0,0,1,0,.11.41.41,0,0,0,0,.16,3.29,3.29,0,0,1,0,.35c0,.15,0,.31,0,.49a5.24,5.24,0,0,0,0,.55,3.53,3.53,0,0,1,0,.65c0,.24-.06.47-.08.68s0,.44-.08.68-.07.48-.1.7-.07.46-.1.7-.08.42-.14.62l-.15.53-.11.48a1.32,1.32,0,0,1-.13.35.63.63,0,0,0,0,.22.12.12,0,0,1,0,.09l.11-.28a2.18,2.18,0,0,0,.15-.36,5,5,0,0,0,.13-.49c0-.15.1-.33.18-.54A3.92,3.92,0,0,0,230.91,48.05Z"/><path d="M261.24,46.2c.13-.21.38-.23.76-.06a5.3,5.3,0,0,1,1.15.73,4.31,4.31,0,0,1,.94,1c.24.38.31.67.21.88-.62,1.12-1.44,2.39-2.43,3.83a40.1,40.1,0,0,1-3.24,4.1A23.64,23.64,0,0,1,255,60.06a7.21,7.21,0,0,1-3.75,1.51,2.94,2.94,0,0,1-1.48-.36,8.16,8.16,0,0,1-1.53-1A8.56,8.56,0,0,1,246.95,59a2.28,2.28,0,0,1-.58-1.18,6.79,6.79,0,0,1,.44-2.64,32.42,32.42,0,0,1,1.4-3.46q.88-1.87,1.9-3.9t1.84-3.92A62.43,62.43,0,0,0,245.55,51c-1.72,2.26-3.09,4.28-4.16,6s-1.85,3.14-2.39,4.18-.87,1.57-1,1.59a1.63,1.63,0,0,1-.79-.19,4.8,4.8,0,0,1-1-.62,5.36,5.36,0,0,1-.92-.92,2.24,2.24,0,0,1-.49-1.09,8,8,0,0,1,.47-2.08q.53-1.73,1.39-4.12t1.92-5.12q1.06-2.73,2-5.13c.64-1.6,1.19-3,1.62-4.11a7.26,7.26,0,0,0,.61-2.15.35.35,0,0,1,0-.18.42.42,0,0,1,.4-.26,2.69,2.69,0,0,1,1,.13,5.66,5.66,0,0,1,1.12.48,3.13,3.13,0,0,1,.93.78,1.83,1.83,0,0,1,.42,1,4.21,4.21,0,0,1-.23,1.12q-.25.86-.69,2.06l-1,2.64L243.69,48q1.41-1.76,3-3.59t3-3.37c.93-1,1.77-1.9,2.5-2.62a10.42,10.42,0,0,1,1.5-1.31l.08,0a.12.12,0,0,1,.08,0,.17.17,0,0,1,.11,0,.35.35,0,0,1,.21,0,5.26,5.26,0,0,1,.83.42,5.43,5.43,0,0,1,1,.79,4.82,4.82,0,0,1,.85,1.18,3.6,3.6,0,0,1,.39,1.57,5.24,5.24,0,0,1-.49,1.93q-.52,1.27-1.26,2.82t-1.63,3.29q-.89,1.74-1.58,3.32t-1.15,2.86a5.34,5.34,0,0,0-.41,1.94,4.92,4.92,0,0,0,2.49-1,16.71,16.71,0,0,0,2.71-2.51,42.54,42.54,0,0,0,2.76-3.49Q260,48.28,261.24,46.2Zm-19.58,3.75q.2-.46.36-.92c.1-.3.22-.61.36-.92s.26-.66.36-1,.23-.61.37-.92l.3-.87.26-.77c.08-.24.15-.46.22-.64l.19-.5a.32.32,0,0,0,0-.16.32.32,0,0,1,0-.16.16.16,0,0,1,0-.14q-1,2.52-2,5l-.7,1.86-.61,1.63q-.16.37-.26.65l-.17.5a1.39,1.39,0,0,0-.15.41c.05-.12.12-.26.2-.42l.48-1.11q.16-.37.3-.76T241.67,49.95Zm1.48-2.4a.13.13,0,0,1,0-.09.14.14,0,0,0,0-.11s0-.1.09-.16a7.16,7.16,0,0,0,.47-1,6.77,6.77,0,0,0,.32-.69q.15-.37.32-.73l.34-.82q.17-.41.34-.87a7.27,7.27,0,0,0,.29-.84q.12-.43.24-.84c.08-.27.15-.53.22-.79l.18-.7a5,5,0,0,0,.07-1.11v-.18a.16.16,0,0,0-.06-.13.12.12,0,0,1-.06-.08l.06.08v.31a.38.38,0,0,0,0,.2.68.68,0,0,1,0,.24.62.62,0,0,0-.11.29,1.47,1.47,0,0,1-.05.29,4,4,0,0,1-.23.72,7.71,7.71,0,0,0-.27.77,7,7,0,0,0-.32.8c-.1.29-.2.57-.31.84l-.31.87q-.14.41-.26.82c-.11.27-.21.53-.29.78s-.16.47-.24.68a5.63,5.63,0,0,1-.15.61,3.77,3.77,0,0,1-.16.43Zm4.59,6.83a5.71,5.71,0,0,0,.35-.84,5.3,5.3,0,0,1,.36-.84q.21-.46.38-.86a8.86,8.86,0,0,1,.39-.82,9.9,9.9,0,0,1,.65-1.45l.21-.61a3.75,3.75,0,0,1,.17-.43,2.13,2.13,0,0,1,.13-.32.12.12,0,0,0,0-.09.12.12,0,0,1,0,.09,1,1,0,0,0-.18.28l-.22.43-.31.57q-.18.32-.35.69c-.12.24-.25.49-.4.73s-.28.55-.41.82l-.41.87q-.17.41-.33.84l-.33.84-.14.41a3.15,3.15,0,0,1-.14.36,2.91,2.91,0,0,0-.11.41l-.07.36a1.63,1.63,0,0,0-.09.62,1.88,1.88,0,0,0-.05.25,1.09,1.09,0,0,0,0,.24l0,.31v.09l0-.09a.89.89,0,0,1,0-.31,5.36,5.36,0,0,1,.25-1.08c.08-.24.16-.48.26-.73S247.63,54.62,247.74,54.38Zm5.56,6.23a.8.8,0,0,1,.26-.12.42.42,0,0,0,.21-.12.72.72,0,0,0,.18-.14l-.19.1-.51.2a5.3,5.3,0,0,1-1.5.44l-.43,0h-.43a2,2,0,0,1-.73-.17l-.29-.11a.28.28,0,0,1-.2-.07c-.06,0-.1,0-.1,0s0,0,0,0,0,0-.05,0l.15.12a.8.8,0,0,1,.2.12l.29.11a1.94,1.94,0,0,0,.32.13,2.18,2.18,0,0,0,.41.08.51.51,0,0,0,.22,0,.52.52,0,0,1,.22,0l.47,0a1.88,1.88,0,0,0,.42-.07,3.65,3.65,0,0,0,.42-.16,2.13,2.13,0,0,0,.4-.13A1.93,1.93,0,0,0,253.3,60.61Zm-1-15.47q-.5,1.09-1.22,2.45l-.34.68a6.26,6.26,0,0,0-.28.68,4,4,0,0,0-.28.61,5.92,5.92,0,0,1-.24.57,4.85,4.85,0,0,1-.17.47,2.11,2.11,0,0,0-.12.38.65.65,0,0,0-.08.31,2.17,2.17,0,0,1,.13-.32,1.34,1.34,0,0,0,.15-.34,3.44,3.44,0,0,1,.19-.48q.27-.5.55-1.16c.19-.44.4-.88.64-1.34l.34-.68q.16-.32.29-.63l.32-.66c.09-.2.16-.37.22-.52l.18-.45c.06-.15.12-.28.18-.41a2.29,2.29,0,0,0,.14-.32,2.73,2.73,0,0,0-.19.32,1.8,1.8,0,0,0-.18.36A3.05,3.05,0,0,1,252.27,45.14Z"/><path d="M298.83,27.18a18.84,18.84,0,0,1,4.8,1.22,11.19,11.19,0,0,1,3.66,2.35,7.75,7.75,0,0,1,2,3.45,8.91,8.91,0,0,1,0,4.52,5.83,5.83,0,0,1-1.88,3,15.84,15.84,0,0,1-3.51,2.33l.26-.14.26-.14.53-.34.53-.34a5.42,5.42,0,0,0,1-.78,6,6,0,0,0,.46-.39,5.83,5.83,0,0,0,.42-.44,3.18,3.18,0,0,0,.42-.46q.17-.24.32-.48l.15-.24.15-.24.25-.49a.43.43,0,0,0,.09-.21.7.7,0,0,1,.1-.25,1.11,1.11,0,0,1,.06-.21,1.25,1.25,0,0,0,.06-.21,2.88,2.88,0,0,1,.1-.41.88.88,0,0,0,0-.37,2.13,2.13,0,0,0,.05-.61,2.79,2.79,0,0,1,0-.41l0-.13-.09.52a.46.46,0,0,1,0,.26,1.89,1.89,0,0,0-.08.34,2.37,2.37,0,0,1-.09.34,2.52,2.52,0,0,0-.09.39.66.66,0,0,0-.09.23.64.64,0,0,1-.09.23.42.42,0,0,0-.09.21.27.27,0,0,1-.14.2,1.72,1.72,0,0,0-.12.23,1.83,1.83,0,0,1-.12.23l-.15.24a1.72,1.72,0,0,1-.14.2,6,6,0,0,1-.74.9,5.42,5.42,0,0,1-.42.44,5.57,5.57,0,0,1-.46.39,5.45,5.45,0,0,0-.46.39,2.93,2.93,0,0,1-.51.39,5.52,5.52,0,0,1-.47.33l-.52.32-.52.3a3.16,3.16,0,0,0-.47.31,2.22,2.22,0,0,0-.48.22,2.29,2.29,0,0,1-.48.22l-.42.2-.36.17a2,2,0,0,1-.34.17,1.71,1.71,0,0,0-.28.14l-.2.11-.19.06-.16.07q-1.9.62-3.94,1.1t-3.91.85a29,29,0,0,0,.59,3.53,23.8,23.8,0,0,0,.92,3c.77,1.89,1.42,3.35,2,4.38a21.45,21.45,0,0,0,1.37,2.31c.37.51.63.86.8,1a.67.67,0,0,1,.21.54c0,.17-.18.34-.46.51a4,4,0,0,1-1,.41,7.72,7.72,0,0,1-1.27.23,5.65,5.65,0,0,1-1.24,0c-.25,0-.56-.31-.92-.84a16.82,16.82,0,0,1-1.18-2.06q-.63-1.27-1.3-2.88t-1.28-3.31q-.6-1.69-1-3.32a18.1,18.1,0,0,1-.58-3l-1.14.08-1,.09L283,53c-.92,1.5-1.71,2.84-2.4,4s-1.24,2.09-1.68,2.78-.7,1-.8,1a2.16,2.16,0,0,1-.82-.31,6.53,6.53,0,0,1-1-.71,8.13,8.13,0,0,1-.87-.83,1.09,1.09,0,0,1-.36-.67,17.39,17.39,0,0,1,.84-1.64c.56-1,1.28-2.35,2.19-3.94s1.95-3.38,3.15-5.34,2.42-3.93,3.66-5.89,2.45-3.83,3.64-5.61,2.21-3.27,3.05-4.48A13.37,13.37,0,0,0,288,32.73a4.11,4.11,0,0,1-1.54.73,1,1,0,0,1-.59-.35,3.29,3.29,0,0,1-.58-.86,5.44,5.44,0,0,1-.4-1.13,3,3,0,0,1,0-1.21c0-.15.41-.41,1.2-.79A20,20,0,0,1,289.2,28a28.7,28.7,0,0,1,4.48-.85A21.59,21.59,0,0,1,298.83,27.18ZM280.56,49.7c.11-.23.22-.43.31-.6l.25-.47q.12-.21.23-.38c-.07.11-.17.24-.28.38a3.91,3.91,0,0,1-.28.45,4.39,4.39,0,0,0-.33.57,7.37,7.37,0,0,1-.39.68c-.15.23-.29.48-.44.77a6.56,6.56,0,0,0-.49.81c-.15.29-.31.57-.49.85l-.44.86c-.15.29-.29.56-.43.81s-.33.55-.45.79-.24.48-.35.71-.21.42-.29.58l-.24.45-.16.39a1.4,1.4,0,0,1,.21-.39l.24-.45.34-.58q.21-.34.4-.68c.13-.23.28-.49.45-.77l.43-.79c.14-.27.31-.56.49-.88a8.24,8.24,0,0,0,.47-.83,7.67,7.67,0,0,1,.47-.83q.22-.43.42-.77C280.33,50.15,280.45,49.93,280.56,49.7Zm27-13.89a1.79,1.79,0,0,0-.36-1.48,5.23,5.23,0,0,0-1.66-1.42,13.77,13.77,0,0,0-2.73-1.18,19.7,19.7,0,0,0-3.54-.77l-1.08-.11-1-.05-1.31,1.88Q295,34,293.78,35.81t-2.65,4q-1.43,2.2-2.87,4.54c1.57-.27,3.4-.64,5.51-1.1a56.35,56.35,0,0,0,6.11-1.67A23.15,23.15,0,0,0,305,39.2,5.08,5.08,0,0,0,307.56,35.8ZM292.93,60.36c-.08-.16-.16-.33-.23-.51s-.18-.4-.31-.65a2.54,2.54,0,0,0-.18-.35,1.71,1.71,0,0,1-.17-.39,3.72,3.72,0,0,0-.17-.44,3.46,3.46,0,0,1-.17-.44q-.19-.46-.36-.92l-.36-1q-.39-1-.71-1.91t-.6-1.67l-.21-.66-.17-.52a.23.23,0,0,1-.08-.16.32.32,0,0,0,0-.16.31.31,0,0,1,0-.14,2.24,2.24,0,0,0,.11.45q.1.5.33,1.22a5.27,5.27,0,0,1,.27.78,8.8,8.8,0,0,0,.3.91c.1.3.2.62.3.94s.21.65.34,1,.26.66.39,1l.39.93c.13.31.25.59.37.84s.24.5.38.75l.34.66a4.26,4.26,0,0,0,.26.47l.24.43,0-.09A.45.45,0,0,1,292.93,60.36Zm1-32.9-.39,0a.49.49,0,0,1-.17,0,.26.26,0,0,1,.17,0,1.51,1.51,0,0,0,.39,0,2.49,2.49,0,0,1,.66,0l.83,0a6.13,6.13,0,0,1,1,0l1.07.06.6.05.6.05.6.1.6.1.6.1.59.14.56.14a2.49,2.49,0,0,1,.56.19l.53.16.53.16a2.39,2.39,0,0,0,.47.18,1.61,1.61,0,0,1,.42.17l.72.37.31.14.26.13.35.23a.17.17,0,0,0,.1.06.18.18,0,0,1-.1-.06l-.35-.23a.52.52,0,0,0-.23-.15,1,1,0,0,1-.28-.15l-.36-.19-.41-.19a2.52,2.52,0,0,0-.42-.19,4.24,4.24,0,0,1-.47-.2,4.14,4.14,0,0,0-.5-.2,3.82,3.82,0,0,1-.5-.2l-.56-.14-.62-.15-.56-.14-.62-.15-1.2-.15-.6-.07a3.67,3.67,0,0,0-.6,0l-1.13,0a8.35,8.35,0,0,0-1,0l-.83,0Zm-2.73,27.85a3.84,3.84,0,0,1-.21-.38.31.31,0,0,1,0-.14.31.31,0,0,0,0,.14.38.38,0,0,1,0,.18.24.24,0,0,0,.08.18l.17.53a5.9,5.9,0,0,0,.21.57,2.64,2.64,0,0,0,.21.55,3.73,3.73,0,0,1,.21.51,2.83,2.83,0,0,1,.16.33.47.47,0,0,0,.08.14c0-.15-.09-.32-.14-.5l-.16-.5-.2-.6Zm6.81-9.71a4.8,4.8,0,0,0,.7-.17l.27-.1-.27.05-.32,0a2.18,2.18,0,0,0-.42.08l-.45.12-.5.11L296,46q-1.17.26-2.11.5c-.35.08-.67.16-.95.25a1,1,0,0,0,.26,0l.29-.06.44-.08a3.13,3.13,0,0,1,.47-.1l.52-.09,1.11-.26,1.11-.26A6.36,6.36,0,0,0,298.07,45.59Z"/><path d="M330.62,51.08a.65.65,0,0,1,.86,0,3.5,3.5,0,0,1,.91.87,5.36,5.36,0,0,1,.65,1.12c.16.38.18.63.08.75a35.66,35.66,0,0,1-2.64,2.7,20.1,20.1,0,0,1-3.67,2.69A16.68,16.68,0,0,1,322.26,61,11.61,11.61,0,0,1,317,61l-.45-.1a2.75,2.75,0,0,1-.44-.14q-1.27,1-2.55,1.79A17.81,17.81,0,0,1,311,63.85a11.59,11.59,0,0,1-2.46.75,6.41,6.41,0,0,1-2.28,0,4.5,4.5,0,0,1-1.47-.73,10.15,10.15,0,0,1-1.88-1.65A9.65,9.65,0,0,1,301.36,60a4.37,4.37,0,0,1-.41-2.64,7.56,7.56,0,0,1,.9-2.46,18.25,18.25,0,0,1,1.77-2.64,22.16,22.16,0,0,1,2.31-2.47,27.62,27.62,0,0,1,2.46-2l.14-.82A4.09,4.09,0,0,1,310,44.58a11.2,11.2,0,0,1,2.93-1.82,14.59,14.59,0,0,1,3.55-1,8.83,8.83,0,0,1,3.21,0,3.61,3.61,0,0,1,1.55.95,6.88,6.88,0,0,1,1.5,2.08,10.59,10.59,0,0,1,.89,2.92,8.66,8.66,0,0,1-.17,3.48,10.72,10.72,0,0,1-1.53,3.31,24.76,24.76,0,0,1-2.76,3.44,7.31,7.31,0,0,0,3.3-.66,16.39,16.39,0,0,0,3.12-1.83,29.46,29.46,0,0,0,2.75-2.3Q329.64,51.91,330.62,51.08Zm-26.8,7.26A1.25,1.25,0,0,1,304,58a1.28,1.28,0,0,1,.16-.37,3.76,3.76,0,0,0,.24-.43,3.93,3.93,0,0,1,.24-.43,3.06,3.06,0,0,1,.54-.85c.09-.13.18-.25.26-.36s.17-.22.26-.36a1.06,1.06,0,0,0,.17-.28.38.38,0,0,1,.16-.2.53.53,0,0,1,.18-.19l-.18.19a.82.82,0,0,0-.21.19,2.31,2.31,0,0,1-.21.23,4.6,4.6,0,0,0-.57.71c-.09.13-.19.27-.29.4s-.2.26-.29.4a2.21,2.21,0,0,0-.22.45,2,2,0,0,1-.22.45,1.33,1.33,0,0,0-.17.42.88.88,0,0,1-.06.19.93.93,0,0,0-.06.19,1.76,1.76,0,0,0-.11.34l0,.26,0,.22v0a.09.09,0,0,1,0-.06s0,0,0-.1a1.43,1.43,0,0,1,.07-.26Zm.37.15.16-.4a2.67,2.67,0,0,1,.21-.39,6.7,6.7,0,0,1,.54-.84l.38-.47a2.77,2.77,0,0,1,.33-.48c.13-.16.26-.31.41-.47s.28-.31.41-.47l.92-.91.48-.43.48-.38-.08-.42-.17.1-.48.43a5.74,5.74,0,0,0-.49.47l-.92.91c-.17.18-.31.35-.44.5l-.38.47a2.12,2.12,0,0,0-.2.28l-.14.24a.62.62,0,0,0-.17.24.64.64,0,0,1-.16.24q-.14.24-.25.47a3.75,3.75,0,0,1-.24.43c-.05.11-.12.25-.22.41a1.22,1.22,0,0,1-.06.21,1.3,1.3,0,0,0-.06.21,3.33,3.33,0,0,0-.2.63.43.43,0,0,0-.06.23.86.86,0,0,1,0,.2l0,.13,0-.13a1.41,1.41,0,0,0,.12-.43,1.46,1.46,0,0,0,.12-.27A1.57,1.57,0,0,1,304.19,58.48Zm0,2a7.89,7.89,0,0,0,3.64-.28,15.12,15.12,0,0,0,3.71-1.73,7.94,7.94,0,0,1-2-2.23,9.79,9.79,0,0,1-1-2.53,16.23,16.23,0,0,0-2.79,3A8.81,8.81,0,0,0,304.2,60.49Zm6-8a3.28,3.28,0,0,0,.37,2.6,5.29,5.29,0,0,0,3,2,32.06,32.06,0,0,0,2.78-2.47,25.48,25.48,0,0,0,2.37-2.7,22,22,0,0,0,1.76-2.69,9.7,9.7,0,0,0,1-2.43c.15-.66-.08-1.06-.69-1.19a6,6,0,0,0-3.41.38,14.6,14.6,0,0,0-3.65,2,4.72,4.72,0,0,1,.55,1.43c.08.45,0,.73-.17.84s-.65.31-1.38.69A23,23,0,0,0,310.23,52.45Zm1,6.63a1.24,1.24,0,0,0,.31-.16l.32-.21s0,0,0,0,0,0,0,0l-.62.37a3.12,3.12,0,0,0-.48.27,2.37,2.37,0,0,1-.42.23,3,3,0,0,1-.41.21l-.3.14-.28.15-.22.12a.28.28,0,0,1-.16.06l.65-.28.35-.16.41-.19.44-.21Zm-.46-7.87a2,2,0,0,0-.12.22,1.88,1.88,0,0,1-.12.22l.45-.32.44-.27.43-.25a3.5,3.5,0,0,0,.39-.26l.58-.33.58-.33-.17.06L313,50l-.23.11c-.2.11-.42.23-.66.34s-.52.26-.83.44Zm2-7.27-.32.16-.26.13-.18.1H312l.18-.1.26-.13.31-.12.37-.13.48-.15.43-.18a1.68,1.68,0,0,1,.48-.13l.51-.17a2.85,2.85,0,0,1,.45-.13A2.33,2.33,0,0,0,316,43a3.26,3.26,0,0,1,.43-.12,6.19,6.19,0,0,0,.62-.14l.22,0v0l-.28,0a5.75,5.75,0,0,0-.61.1l-.92.19q-.48.11-1,.27a8.23,8.23,0,0,0-.92.34Zm.62-.73c-.07,0-.11,0-.11,0s0,0-.06.05l-.06,0,.28-.08a1,1,0,0,1,.29-.1,2.71,2.71,0,0,0,.4-.12,2.2,2.2,0,0,0,.51-.13l.51-.17a.71.71,0,0,1,.28-.08.68.68,0,0,0,.28-.08.92.92,0,0,1,.31-.05.91.91,0,0,0,.31-.05c.11,0,.32-.08.62-.14a4,4,0,0,0,.56-.11l.55,0a3.29,3.29,0,0,0,.5-.05,2,2,0,0,1,.43,0,.5.5,0,0,1,.19,0,.48.48,0,0,0,.19,0l.21,0s.05,0,.06,0l-.31-.07-.31-.07a1.9,1.9,0,0,0-.47-.06,3.77,3.77,0,0,0-.53,0,1.11,1.11,0,0,1-.27,0,1.1,1.1,0,0,0-.27,0c-.22,0-.43,0-.63.07l-.64.12-.59.15a3.82,3.82,0,0,0-.6.19,5.26,5.26,0,0,0-.93.4A2.89,2.89,0,0,0,313.34,43.21Zm4.07,11,.24-.28.24-.28c.18-.17.33-.34.47-.5l.42-.51a3,3,0,0,1,.37-.5,3.66,3.66,0,0,0,.36-.46q.58-1,1-1.54a2.45,2.45,0,0,1,.25-.39.36.36,0,0,0,.09-.16.35.35,0,0,1-.09.16l-.14.17-.15.21c-.11.18-.26.41-.44.67s-.39.53-.63.8-.22.31-.34.46l-.4.5-.43.51c-.14.16-.3.33-.47.5a6,6,0,0,1-.48.53l-.24.28a1.79,1.79,0,0,1-.23.24l-.58.53q-.26.24-.52.54l-.59.48-.58.48a1.23,1.23,0,0,1-.31.25,1.18,1.18,0,0,0-.3.25l.19,0,.54-.43.58-.48.59-.48.57-.53c.17-.16.35-.34.53-.54l.24-.26Zm2.72-2.68c.12-.21.24-.42.38-.61s.26-.4.38-.61.23-.42.33-.62.19-.4.27-.59a3.36,3.36,0,0,0,.27-.61A5.29,5.29,0,0,1,322,48l.19-.81.08-.34,0,.09a.31.31,0,0,1-.05.1.43.43,0,0,0-.06.14,3,3,0,0,1-.11.34c0,.14-.11.29-.19.45a5,5,0,0,0-.2.52,3.49,3.49,0,0,1-.27.59c-.12.21-.23.41-.32.6l-.32.6-.35.62-.35.62c-.11.19-.23.36-.35.53l-.33.44-.27.41a1.36,1.36,0,0,1-.24.28.63.63,0,0,0-.1.2.12.12,0,0,1-.07.07l.21-.22a2.34,2.34,0,0,0,.27-.28,5,5,0,0,0,.3-.41l.36-.44A3.88,3.88,0,0,0,320.13,51.54Z"/><path d="M347.85,60.36q.2-.11.47.29a4.48,4.48,0,0,1,.47,1,7,7,0,0,1,.31,1.16,1.86,1.86,0,0,1,0,.93c-.09.25-.51.61-1.26,1.08A28.4,28.4,0,0,1,345,66.33q-1.72.83-3.89,1.62a37.82,37.82,0,0,1-4.48,1.33A29.07,29.07,0,0,1,332,70a12.31,12.31,0,0,1-4.23-.4,5.36,5.36,0,0,1-2.37-1.47,11.34,11.34,0,0,1-1.84-2.46,11.68,11.68,0,0,1-1.11-2.73,4.74,4.74,0,0,1-.14-2.28,10,10,0,0,1,1.55-3.26,21.09,21.09,0,0,1,2.8-3.23,26,26,0,0,1,3.62-2.86,26.9,26.9,0,0,1,4-2.18,17.16,17.16,0,0,1,3.8-1.2,6.48,6.48,0,0,1,3.08.07,4.7,4.7,0,0,1,2,1.22,6.91,6.91,0,0,1,2,4.23,5.17,5.17,0,0,1-.22,2.13,5.85,5.85,0,0,1-1.12,1.87A12.53,12.53,0,0,1,342,59.14a11.84,11.84,0,0,1-1.78,1.2,1.79,1.79,0,0,1-1.22.32,1.73,1.73,0,0,1-.52-.35,2.45,2.45,0,0,1,.42-.14l.39-.22.38-.18a2.41,2.41,0,0,1,.32-.24l.3-.2a1.42,1.42,0,0,0,.22-.18.58.58,0,0,1,.21-.14l.15-.14s-.05,0-.06,0-.07,0-.07,0,0,0-.07,0a.69.69,0,0,1-.2.12,1.58,1.58,0,0,0-.26.15,2.71,2.71,0,0,1-.65.35,3,3,0,0,1-.38.2,3.15,3.15,0,0,0-.38.2l-.22.09-.21.09a3.53,3.53,0,0,1-.72-1.24,1.86,1.86,0,0,1-.15-1.06c.06-.19.33-.47.82-.83s1-.76,1.6-1.23,1.14-.94,1.68-1.45a3.66,3.66,0,0,0,1.06-1.5,3.47,3.47,0,0,0,.11-.5c0-.22-.18-.4-.65-.55a5.25,5.25,0,0,0-2.59,0,13.71,13.71,0,0,0-3.21,1.09,22.57,22.57,0,0,0-3.33,2,23.64,23.64,0,0,0-3.06,2.55,19.5,19.5,0,0,0-2.42,2.88,9.59,9.59,0,0,0-1.39,2.89,3.56,3.56,0,0,0,0,1.92c.17.57.74,1,1.74,1.27a9.73,9.73,0,0,0,3.77.23,24.39,24.39,0,0,0,4.15-.87,36.15,36.15,0,0,0,4.12-1.52q2-.88,3.68-1.68c1.11-.53,2-1,2.83-1.41S347.64,60.44,347.85,60.36Zm-20.93-3c.16-.2.31-.39.46-.56s.28-.34.39-.49a3.22,3.22,0,0,1,.34-.41l.32-.32a1.64,1.64,0,0,0,.24-.3.12.12,0,0,1-.07.07.26.26,0,0,0-.1.09l-.11.13a3,3,0,0,0-.31.28l-.39.4c-.14.14-.29.3-.44.47s-.32.36-.51.55q-.47.6-.9,1.26a3,3,0,0,0-.24.35l-.2.36a2.81,2.81,0,0,0-.16.32c0,.11-.1.23-.17.36a3.45,3.45,0,0,0-.27.66l-.16.64a4.22,4.22,0,0,0-.13.92.44.44,0,0,0,0,.15.31.31,0,0,1,0,.11.12.12,0,0,0,0,.1.12.12,0,0,1,0-.1l.07-.26a5.33,5.33,0,0,1,.18-.9q.2-.58.51-1.28a9.79,9.79,0,0,1,.74-1.35,4.79,4.79,0,0,1,.45-.63Zm1.08-3.3c-.06.08,0,.06.12-.06l.51-.41.61-.5a2.52,2.52,0,0,1,.43-.32l.41-.32a3.4,3.4,0,0,0,.35-.29,7.57,7.57,0,0,0,.61-.47.58.58,0,0,0,.2-.15l.15-.16a.5.5,0,0,1,.13-.1.5.5,0,0,0-.13.1l-.17.13-.22.12q-.32.19-.68.43a9.57,9.57,0,0,0-.77.59,4.07,4.07,0,0,0-.46.33,4,4,0,0,1-.46.33Zm13.08,10.09.22-.11.17-.13a.48.48,0,0,1,.14-.09l-.55.23-.65.29a8.41,8.41,0,0,1-.82.33q-.49.21-1,.41l-1.11.38a3.07,3.07,0,0,1-.61.2,5.57,5.57,0,0,0-.65.19l-.6.18-.64.17a7.78,7.78,0,0,1-1.27.3l-.66.15-.64.11a7.51,7.51,0,0,1-1.2.1.44.44,0,0,1-.26,0,.45.45,0,0,0-.26,0h-.55a5.11,5.11,0,0,1-.9,0,1.24,1.24,0,0,1-.42,0,1.07,1.07,0,0,0-.31,0,.9.9,0,0,1-.27,0l-.21-.06-.14,0,.19.05.42.12.33.09a1.77,1.77,0,0,0,.38.06l.46.06a2,2,0,0,0,.47,0,1.3,1.3,0,0,0,.55,0l.55,0a.82.82,0,0,1,.31,0,.8.8,0,0,0,.31,0,3.42,3.42,0,0,0,.62,0l.64-.08a5.91,5.91,0,0,0,.65-.12,11.26,11.26,0,0,0,1.32-.28,17.33,17.33,0,0,0,2.52-.82c.39-.15.76-.3,1.11-.45l1-.44q.49-.21.81-.38Zm.4-5.37-.43.34a3.47,3.47,0,0,1-.42.3l-.69.47-.26.15a1,1,0,0,1,.26-.15l.31-.13a1.88,1.88,0,0,0,.4-.24,8.32,8.32,0,0,0,.95-.61l.53-.38a5.17,5.17,0,0,0,.5-.44q.24-.24.42-.46c.16-.16.3-.32.42-.46a1.56,1.56,0,0,0,.16-.25,1.41,1.41,0,0,1,.16-.25l.15-.2a1.12,1.12,0,0,0,.1-.22,1.6,1.6,0,0,0,.19-.4l.1-.29.1-.29-.1.29a.66.66,0,0,0-.15.28.38.38,0,0,0-.11.17.7.7,0,0,1-.13.21.65.65,0,0,1-.12.19l-.18.22-.31.45a.63.63,0,0,0-.21.21,1,1,0,0,1-.22.25l-.46.4A5.34,5.34,0,0,1,341.49,58.78Z"/><path d="M372,70.57c.21-.12.46,0,.74.31a5.63,5.63,0,0,1,.75,1.18,5.32,5.32,0,0,1,.44,1.3c.08.42,0,.68-.14.79-.54.32-1.26.71-2.16,1.18s-1.91.95-3,1.42-2.32.93-3.6,1.35a27.49,27.49,0,0,1-3.87,1,18.37,18.37,0,0,1-3.88.27,10.3,10.3,0,0,1-3.61-.78,4.82,4.82,0,0,1-1.74-1.36,7.78,7.78,0,0,1-1.39-2.47,12.41,12.41,0,0,1-.66-3.42,14.12,14.12,0,0,1,.4-4.17l-.89-.27-.92-.32a2.25,2.25,0,0,1-.7-.4c-1.61,1.56-2.92,2.94-4,4.12A10.62,10.62,0,0,0,342,72.64a1.33,1.33,0,0,1-.69.87,1.2,1.2,0,0,1-.85,0,2.64,2.64,0,0,1-.81-.51,4.36,4.36,0,0,1-.8-.92,5,5,0,0,1-.56-1.14,1.69,1.69,0,0,1,0-1.1,10.1,10.1,0,0,1,1.23-1.4c.79-.82,1.81-1.86,3.09-3.13s2.75-2.69,4.45-4.26,3.44-3.17,5.24-4.8,3.6-3.22,5.42-4.78,3.46-3,4.92-4.25,2.69-2.37,3.67-3.28a8.16,8.16,0,0,0,1.68-1.85q.2-.49.71-.06a5.26,5.26,0,0,1,1,1.18,9.59,9.59,0,0,1,.82,1.57,1.68,1.68,0,0,1,.19,1.14,8.33,8.33,0,0,1-1.78,1.8c-1.05.9-2.37,2-3.95,3.32l-5.23,4.36q-2.86,2.4-5.66,4.9a42.77,42.77,0,0,1,4.07-1.63,39.06,39.06,0,0,1,4.31-1.23,19.68,19.68,0,0,1,4.06-.49,7.84,7.84,0,0,1,3.32.6,3.27,3.27,0,0,1,1.2,1,6.1,6.1,0,0,1,1.25,3.53,3.76,3.76,0,0,1-.34,1.71,5.13,5.13,0,0,1-2.38,2.11,19,19,0,0,1-4.43,1.57,30.22,30.22,0,0,1-5.71.75,29.25,29.25,0,0,1-6.32-.43q-.43.82-.89,1.92a6.32,6.32,0,0,0-.5,2.21,4.17,4.17,0,0,0,.45,2.1,3.64,3.64,0,0,0,2,1.59,6.8,6.8,0,0,0,2.83.48,16.89,16.89,0,0,0,3.28-.44,26,26,0,0,0,3.45-1.05c1.15-.44,2.26-.9,3.31-1.4s2-1,2.88-1.43S371.44,70.92,372,70.57Zm-27-6.8a2.28,2.28,0,0,1-.24.24,3.14,3.14,0,0,0-.33.26l-.36.34-.4.4-.48.46a6.63,6.63,0,0,1-.52.52,6.24,6.24,0,0,0-.52.52l-1,1.06-.45.47-.38.45-.31.38a2.69,2.69,0,0,1-.28.3,2.29,2.29,0,0,0-.24.24,2.31,2.31,0,0,1,.24-.24l.67-.61a4,4,0,0,1,.4-.42,6.21,6.21,0,0,0,.48-.49l.49-.51q.25-.26.55-.53c.17-.19.34-.37.5-.53l.48-.48.47-.51.39-.45ZM353.52,60a.38.38,0,0,1,.17-.17l.22-.15a1.91,1.91,0,0,0,.32-.25q.32-.25.79-.66t1-.85l1.25-1q.67-.54,1.37-1.16l1.44-1.24,1.52-1.26q.73-.65,1.49-1.29l1.48-1.24q1.38-1.19,2.54-2.22c.37-.32.71-.61,1-.89l.75-.71a1.48,1.48,0,0,0,.27-.29.65.65,0,0,1,.17-.19l.19-.16a1.37,1.37,0,0,0-.19.16l-.48.42q-.36.28-.83.67c-.31.27-.67.55-1.08.85l-2.64,2.13q-1.47,1.2-3,2.48-.73.65-1.47,1.28l-1.44,1.25-1.35,1.19q-.65.57-1.18,1.07l-1,.92c-.29.28-.55.5-.76.67a3.32,3.32,0,0,0-.28.29,1.43,1.43,0,0,1-.18.19Zm15.81.75a6.94,6.94,0,0,0-3.46-.44,23,23,0,0,0-4.33.82,38.83,38.83,0,0,0-4.3,1.51c-1.38.58-2.54,1.1-3.48,1.55,1.17.08,2.46.11,3.88.08a28.17,28.17,0,0,0,4.24-.39A22.66,22.66,0,0,0,366,62.82,9.89,9.89,0,0,0,369.33,60.78Zm-13-.57-.2.09-.15.11a.52.52,0,0,1-.15.08,5.36,5.36,0,0,0,.53-.22,4.11,4.11,0,0,1,.62-.23,8.12,8.12,0,0,0,.82-.29,3.2,3.2,0,0,1,.44-.18l.49-.16a3.37,3.37,0,0,0,.54-.16l.56-.2,1.16-.33a8.29,8.29,0,0,1,1.27-.28l.62-.17.61-.13.63-.11a5.16,5.16,0,0,1,.62-.07,10.76,10.76,0,0,1,1.22-.1l.54,0a3.33,3.33,0,0,1,.52,0,.5.5,0,0,1,.24,0l.22,0,.45.05a1.58,1.58,0,0,1,.39.05l.32.07a1.06,1.06,0,0,1,.26.07.55.55,0,0,0,.21,0l.15.07-.15-.07-.44-.2a1.35,1.35,0,0,1-.34-.1,1.06,1.06,0,0,0-.4-.08.58.58,0,0,1-.21,0,.55.55,0,0,0-.21,0,2.33,2.33,0,0,0-.51,0,5,5,0,0,0-.55,0,4.86,4.86,0,0,1-.54,0l-1.25,0-.63.09-.62.09a3.22,3.22,0,0,1-.67.13,3.37,3.37,0,0,0-.66.13l-.62.17-.6.13-.6.21a3.77,3.77,0,0,1-.58.17l-1,.41q-.5.2-.93.41c-.31.13-.57.24-.79.35Zm2.84-6.81a1.59,1.59,0,0,1-.28.27l-.08.06.08-.06.33-.25a4.45,4.45,0,0,0,.49-.37,4.64,4.64,0,0,1,.64-.45L361,52l.82-.67c.29-.23.57-.46.84-.7l.86-.74c.29-.23.57-.47.85-.72s.56-.49.86-.72.55-.45.79-.67.47-.42.7-.61a4.68,4.68,0,0,0,.6-.49c.17-.17.32-.3.44-.41a.33.33,0,0,0,.12-.14A.32.32,0,0,1,368,46a.16.16,0,0,1,.1-.1.3.3,0,0,1-.1.1,2.77,2.77,0,0,1-.32.2q-.19.16-.49.37l-.66.49-.73.53-.83.63-.88.71-.88.71-.86.76q-.41.38-.84.73a9.73,9.73,0,0,0-.77.69l-.62.61a7.07,7.07,0,0,0-.59.55ZM367.44,63l.38-.21c.06,0,.1-.05.13,0l-.13,0-.16.1-.21.08a1.46,1.46,0,0,0-.28.11,1.94,1.94,0,0,1-.35.13l-.36.15-.42.17-.44.14-.5.16-.52.15a5.48,5.48,0,0,1-.57.13,2.44,2.44,0,0,1-.55.17,5.11,5.11,0,0,0-.6.15l-.61.12-.61.12-1.26.18-.61.05-.61.06L358,65l-1,0a8.41,8.41,0,0,1-.91,0l-.67,0a.55.55,0,0,1-.25,0,.46.46,0,0,0-.18,0l-.16,0a.41.41,0,0,0,.16,0l.17,0,.24,0a.85.85,0,0,1,.32,0,1.44,1.44,0,0,0,.37,0h.44l.48,0,.52,0,.52,0,.57,0,.57,0c.22,0,.44,0,.66,0l.61-.05,1.25-.18.61-.12.61-.12a5.11,5.11,0,0,1,.6-.15,5.18,5.18,0,0,0,.6-.14l.55-.16a4.89,4.89,0,0,0,.51-.18,3.57,3.57,0,0,0,.48-.17,3.68,3.68,0,0,1,.48-.17l.4-.18.33-.16a1.11,1.11,0,0,0,.32-.14A.86.86,0,0,1,367.44,63Zm1.72-4.62-.35-.08-.35-.08a3.23,3.23,0,0,0-.78-.08,5.3,5.3,0,0,1-.64,0,2.27,2.27,0,0,1-.59,0l.16,0a.56.56,0,0,1,.21,0,.33.33,0,0,0,.23,0l.64.07.74.11a4.12,4.12,0,0,1,1.29.39l.19.11.19.11a.17.17,0,0,0,.08.08l0,.06,0-.06a.17.17,0,0,1-.08-.08l-.13-.16a1.25,1.25,0,0,0-.18-.18l-.29-.13Z"/><path d="M391.43,81.16a2.81,2.81,0,0,1,.5,1.28,2,2,0,0,1-.29,1.37,4.14,4.14,0,0,1-1.34,1,20.66,20.66,0,0,1-2.77,1.27,36.31,36.31,0,0,1-3.73,1.18,27.94,27.94,0,0,1-4.24.77,20,20,0,0,1-4.3,0,11.15,11.15,0,0,1-4-1.2,5.91,5.91,0,0,1-2.17-2.06,11.66,11.66,0,0,1-1.44-3.1,11.82,11.82,0,0,1-.5-3.49,7.51,7.51,0,0,1,.69-3.23,10.05,10.05,0,0,1,1.92-2.66,16.58,16.58,0,0,1,3-2.38,23.48,23.48,0,0,1,3.61-1.87,18.64,18.64,0,0,1,3.85-1.15,15.36,15.36,0,0,1,3.66-.24,7.2,7.2,0,0,1,3.07.83,5.69,5.69,0,0,1,2.36,2.14,5.5,5.5,0,0,1,.72,2.28,3.81,3.81,0,0,1-.23,1.74c-.2.44-.35.63-.48.56A.86.86,0,0,1,389,74a2.5,2.5,0,0,1-.26.56,6.49,6.49,0,0,1-2.09,2.12,10.77,10.77,0,0,1-3.13,1.41,11.6,11.6,0,0,1-3.54.4,7.94,7.94,0,0,1-3.45-.92,5.91,5.91,0,0,1-1.83-1.4,6.91,6.91,0,0,1-1-1.57,10.6,10.6,0,0,0-3,3.52,11.75,11.75,0,0,0-.59,1.41,5.67,5.67,0,0,0-.31,1.4A2.74,2.74,0,0,0,370,82.2a1.76,1.76,0,0,0,.89.92,11.53,11.53,0,0,0,4,1.22,17.17,17.17,0,0,0,4.06,0,21.09,21.09,0,0,0,3.82-.83q1.82-.58,3.32-1.21c1-.42,1.82-.8,2.47-1.15s1.09-.57,1.31-.68a1.15,1.15,0,0,1,1.41.49Zm-17.54-11,.41-.19.41-.19a1.6,1.6,0,0,1,.38-.18,1.64,1.64,0,0,0,.38-.18l.66-.26.63-.2a1.87,1.87,0,0,0,.45-.19l.18-.06.11,0,.13,0-.13,0-.11,0-.18.06-.48.13-.61.16a2,2,0,0,1-.35.12,1.17,1.17,0,0,0-.37.16,2.45,2.45,0,0,0-.38.13l-.4.17-.41.19-.41.19a7,7,0,0,1-.8.44l-.36.26-.36.26-.36.26-.36.26a1.71,1.71,0,0,0-.29.25A1.55,1.55,0,0,1,371,72a5.59,5.59,0,0,1-.49.54c-.16.18-.3.34-.4.47a2.28,2.28,0,0,0-.25.39.77.77,0,0,0-.17.36l.06-.12a.74.74,0,0,1,.16-.22.43.43,0,0,0,.14-.18.44.44,0,0,1,.14-.18l.41-.49a.62.62,0,0,0,.24-.2,1.59,1.59,0,0,1,.28-.28,1.53,1.53,0,0,0,.29-.25,1.54,1.54,0,0,1,.29-.25l.36-.27.36-.26.36-.21a2.41,2.41,0,0,0,.38-.25,2.33,2.33,0,0,1,.38-.25Zm2.21-1.5-.24.13-.17.11-.15.07a.52.52,0,0,0,.15-.07.56.56,0,0,1,.19-.08l.25-.09a7.72,7.72,0,0,0,.76-.23,8.8,8.8,0,0,1,1-.27,5.27,5.27,0,0,1,.56-.16l.6-.13.66-.13.66-.13a5.2,5.2,0,0,1,.71-.1l.76-.07a4.18,4.18,0,0,1,.76,0q.38,0,.75,0a7.39,7.39,0,0,1,1.57.24,6.7,6.7,0,0,1,1.47.45l.64.35a3.15,3.15,0,0,1,.59.43.46.46,0,0,1,.13.1.44.44,0,0,0,.13.1.48.48,0,0,0,.12.12.49.49,0,0,1,.12.12.46.46,0,0,0,.12.12.5.5,0,0,1,.12.12.41.41,0,0,0,.19.21,4.9,4.9,0,0,1,.61.9,1.48,1.48,0,0,1,.22.38,2.14,2.14,0,0,0,.17.35,2,2,0,0,1,.08.25.5.5,0,0,0,.1.21.31.31,0,0,0,.1.16.51.51,0,0,1,0-.17,3.56,3.56,0,0,1-.15-.49,2.37,2.37,0,0,0-.16-.32,1.48,1.48,0,0,1-.16-.42,1.75,1.75,0,0,1-.3-.45,3.49,3.49,0,0,0-.28-.49,1,1,0,0,1-.24-.23,1.36,1.36,0,0,0-.17-.25A2.67,2.67,0,0,1,388,69a.51.51,0,0,0-.12-.12.47.47,0,0,1-.12-.12,6.94,6.94,0,0,0-1.33-.83l-.73-.3a4.45,4.45,0,0,0-.82-.24,7.46,7.46,0,0,0-1.58-.24,7.3,7.3,0,0,0-.83,0l-.8,0-.75.11-.75.11a9.93,9.93,0,0,0-1.32.31l-1.16.35a5.67,5.67,0,0,0-.95.36A6.46,6.46,0,0,1,376.09,68.63Zm-.24,5.64a7.61,7.61,0,0,0,3.52,1,8.11,8.11,0,0,0,3-.58,9.78,9.78,0,0,0,2.47-1.46c.73-.6,1.36-1.14,1.89-1.65l-.27-.18-.27-.17a4.81,4.81,0,0,0-2.23-.53,11.18,11.18,0,0,0-2.88.34A18.76,18.76,0,0,0,378,72.07a19.91,19.91,0,0,0-3,1.61A3.16,3.16,0,0,0,375.86,74.27Zm1.57,11.58h.52l.41,0,.37,0-.37,0h-.42l-.53,0a5.86,5.86,0,0,0-.62-.06,3.62,3.62,0,0,1-.7-.11,2.12,2.12,0,0,1-.39-.06,2.3,2.3,0,0,0-.39-.06,2.33,2.33,0,0,1-.39-.06l-.41-.12a1.33,1.33,0,0,1-.38-.08,1.38,1.38,0,0,0-.38-.08l-.38-.13-.38-.13-.67-.2-.32-.14-.27-.12a2.62,2.62,0,0,1-.5-.21,2.06,2.06,0,0,1-.41-.16l-.16-.06-.12,0-.09,0,.35.18.39.2a2.62,2.62,0,0,0,.5.21,3.87,3.87,0,0,0,.59.26,4.68,4.68,0,0,0,.69.26l.36.11.4.14.36.12a2.17,2.17,0,0,0,.42.1,1.37,1.37,0,0,1,.38.08,1.32,1.32,0,0,0,.38.08l.78.12c.26,0,.5,0,.73,0A2.85,2.85,0,0,0,377.43,85.85Zm7.21-12a.12.12,0,0,0-.09.05.14.14,0,0,0-.1.07.31.31,0,0,1-.12.11l-.4.23-.55.3a3.85,3.85,0,0,1-.62.26l-.75.29-.41.1-.41.1a2.16,2.16,0,0,0-.46.08,1.15,1.15,0,0,1-.43,0l-.44.06a.47.47,0,0,1-.23,0,.5.5,0,0,0-.23,0,5.11,5.11,0,0,1-.89-.08,2.26,2.26,0,0,1-.43-.08,2.22,2.22,0,0,0-.43-.08,2.57,2.57,0,0,1-.75-.24l-.61-.16-.46-.24a1.25,1.25,0,0,1-.34-.12l-.09,0,.41.21.46.24.28.12.33.14a2.09,2.09,0,0,1,.35.11l.4.13a2.2,2.2,0,0,1,.43.07,2.24,2.24,0,0,0,.43.08l.47.05.47.05a.48.48,0,0,1,.23,0,.47.47,0,0,0,.23,0l.44-.06a1,1,0,0,0,.48,0,2.18,2.18,0,0,1,.45-.08,3,3,0,0,1,.42-.12,3,3,0,0,0,.42-.12,1.2,1.2,0,0,1,.38-.15,1.18,1.18,0,0,0,.38-.14l.31-.18.29-.14a2.49,2.49,0,0,0,.51-.32,2.2,2.2,0,0,1,.35-.26Z"/><path d="M404.55,89.6c.31-.14.59,0,.84.32a3.59,3.59,0,0,1,.54,1.3A5,5,0,0,1,406,92.7c0,.48-.18.76-.41.84-1.28.53-2.73,1.09-4.36,1.7a33.71,33.71,0,0,1-5,1.45,20.62,20.62,0,0,1-5,.46,8.75,8.75,0,0,1-4.47-1.36,7.18,7.18,0,0,1-1.55-1.43A8.1,8.1,0,0,1,383.95,92a8.29,8.29,0,0,1-.53-3.1,7.21,7.21,0,0,1,1.1-3.56,10.39,10.39,0,0,1,2-2.12q1.54-1.36,3.72-3T395,76.89q2.58-1.72,5.09-3.26-1-.51-1.86-1l-1.68-1A2.92,2.92,0,0,1,395.07,70a2.78,2.78,0,0,1,0-1.61,2.71,2.71,0,0,1,.72-1.18c.33-.3.59-.39.78-.28l1.36.81L400,68.91l2.22,1.32c.73.44,1.34.8,1.82,1.07,2.65-1.54,4.75-2.71,6.25-3.55a12.61,12.61,0,0,0,2.46-1.54.6.6,0,0,1,1-.15,4,4,0,0,1,1,1.41,8.07,8.07,0,0,1,.65,2,2.09,2.09,0,0,1-.18,1.58,7.37,7.37,0,0,1-1.58.89c-1,.48-2.48,1.25-4.52,2.35q2.3,1.39,4.15,2.62c1.23.82,2.12,1.44,2.67,1.83a4.85,4.85,0,0,1,1.3,1.23,1.92,1.92,0,0,1,.33,1,1.71,1.71,0,0,1-.3.93c-.19.29-.39.58-.6.87a.65.65,0,0,1-.84.25,5.61,5.61,0,0,1-1.13-.66q-2.16-1.56-4.6-3t-4.91-2.83q-2.74,1.56-5.77,3.45t-5.67,3.82a56.3,56.3,0,0,0-4.64,3.74,15.4,15.4,0,0,0-2.82,3.17c-.36.6-.36,1,0,1.24A7.8,7.8,0,0,0,390.4,93a23.6,23.6,0,0,0,4.89-.49,40.23,40.23,0,0,0,5-1.34Q402.72,90.36,404.55,89.6ZM384,90.48a1.42,1.42,0,0,0,.08.45l.06.19a.5.5,0,0,1,0-.16c0-.07,0-.14,0-.23s0-.19,0-.3a.75.75,0,0,1,0-.3,1.7,1.7,0,0,0,0-.33q0-.2,0-.38a3.09,3.09,0,0,1,0-.42q0-.2,0-.37c0-.11,0-.24,0-.37a2.64,2.64,0,0,1,.05-.68c0-.09,0-.18,0-.26a.48.48,0,0,1,.06-.2.16.16,0,0,1,0-.14l0,0-.09.15a.9.9,0,0,0-.08.18c0,.07,0,.17-.08.28a1.44,1.44,0,0,1-.08.28,1,1,0,0,0-.06.35,3.38,3.38,0,0,1,0,.39,3.32,3.32,0,0,0,0,.39c0,.27,0,.54,0,.8A3,3,0,0,0,384,90.48Zm8.15-11.09-1.22.91q-.54.39-.92.73l-.74.63a.5.5,0,0,0,.2-.14l.26-.18.37-.26.95-.66q.54-.39,1.24-.84L394,78.48l2.11-1.36q1.1-.71,2.23-1.41l2.09-1.28.23-.16.23-.17a1.37,1.37,0,0,1-.39-.2l-.16.11a.83.83,0,0,1-.16.11c-.34.2-.73.44-1.16.72s-.88.56-1.35.84-.91.55-1.33.83l-1.07.71-1.64,1.16Q392.84,78.93,392.13,79.38Zm-.52,1.27a1,1,0,0,0,.28-.16,3.16,3.16,0,0,1,.33-.24l.88-.54.47-.31a5.68,5.68,0,0,1,.53-.32l.49-.34.47-.31.45-.32.42-.28.8-.59-.92.46-.42.28-.42.28a3.84,3.84,0,0,1-.5.31,2.9,2.9,0,0,0-.53.35l-1,.65-.43.3-.41.27a2.75,2.75,0,0,0-.34.26l-.25.21a1.28,1.28,0,0,1-.23.17Zm14.42-10a4.92,4.92,0,0,1-.47.27l-.26.15-.28.18-.57.32.33.21.52-.34a1.63,1.63,0,0,0,.25-.18l.2-.16.43-.25c.49-.28.93-.54,1.32-.8a7.73,7.73,0,0,1,1.06-.59,3.26,3.26,0,0,0,.35-.22l.25-.18a1.13,1.13,0,0,1,.24-.16l-.21.12a.71.71,0,0,0-.31.11l-.38.22c-.33.17-.69.36-1.08.58S406.55,70.4,406,70.66Z"/><path d="M423.73,104.65a.75.75,0,0,1,1,.28,2.89,2.89,0,0,1,.43,1.31,3.52,3.52,0,0,1-.17,1.49,1.33,1.33,0,0,1-.76.91,33.37,33.37,0,0,1-4.66,1.09,27.15,27.15,0,0,1-5.67.33,25.48,25.48,0,0,1-6.12-1,19.86,19.86,0,0,1-6.14-3.11l-.58-.35-.55-.38a5.74,5.74,0,0,1-1.74-1.89,4.8,4.8,0,0,1-.59-2,4.75,4.75,0,0,1,.29-1.94,5,5,0,0,1,.93-1.6,4.39,4.39,0,0,1,1.05-.92,1.85,1.85,0,0,1,.79-.28.63.63,0,0,1,.46.11c.09.08.11.16.06.23a2.63,2.63,0,0,0-.71,2,3.85,3.85,0,0,0,.84,2,8.48,8.48,0,0,0,1.87,1.73,10.7,10.7,0,0,0,2.31,1.24,7.1,7.1,0,0,0,2.19.49,2,2,0,0,0,1.6-.51c.28-.3.25-.75-.09-1.35a15.52,15.52,0,0,0-1.47-2.07l-2.09-2.52a18.12,18.12,0,0,1-1.91-2.75,6.89,6.89,0,0,1-.91-2.77,3.48,3.48,0,0,1,.93-2.62,5.68,5.68,0,0,1,2.49-1.66,11.38,11.38,0,0,1,3.29-.6,18.54,18.54,0,0,1,3.66.22,23.49,23.49,0,0,1,3.6.86,26.48,26.48,0,0,1,3.08,1.2,11,11,0,0,1,2.1,1.23,2.45,2.45,0,0,1,.92,1.38,3.72,3.72,0,0,1,0,1.63,5.57,5.57,0,0,1-.62,1.59,6.43,6.43,0,0,1-.89,1.23,4.08,4.08,0,0,1-1.32.85,12,12,0,0,1-1.74.6,11.44,11.44,0,0,1-1.55.3,1.51,1.51,0,0,1-.8,0l-.61-.48a9.94,9.94,0,0,1-.84-.74,4.21,4.21,0,0,1-.65-.81q-.25-.42,0-.63a3.09,3.09,0,0,1,.9-.47l1.45-.55,1.45-.54a3.09,3.09,0,0,0,.91-.46c.07-.09-.13-.27-.59-.52a12,12,0,0,0-1.9-.78q-1.2-.4-2.69-.75a19.35,19.35,0,0,0-2.9-.47,12.61,12.61,0,0,0-2.56,0,2.43,2.43,0,0,0-1.65.76c-.05.07.12.34.52.81l1.48,1.77c.59.71,1.21,1.52,1.84,2.42a19.26,19.26,0,0,1,1.61,2.73,8.19,8.19,0,0,1,.8,2.63,2.82,2.82,0,0,1-.58,2.15q-.3.38-.57.67c-.18.2-.35.37-.53.54a22.55,22.55,0,0,0,6.85.12A25.6,25.6,0,0,0,423.73,104.65ZM406.65,88.72l.53-.19a3.2,3.2,0,0,1,.57-.16l1.32-.19a10.13,10.13,0,0,1,1.47-.06l1.53.05a22.05,22.05,0,0,1,3.05.4q1.51.31,2.65.63l1.09.34q.48.15.79.28a1,1,0,0,1,.31.1,1.13,1.13,0,0,0,.24.1l.13.1s.05,0,.07,0l0,0a.13.13,0,0,0-.08,0,.13.13,0,0,1-.08,0,4.33,4.33,0,0,1-.52-.23c-.24-.11-.51-.22-.82-.33l-1.08-.36-1.26-.38a11,11,0,0,0-1.38-.3c-.52-.1-1-.18-1.55-.25s-1-.13-1.53-.17a15.54,15.54,0,0,0-3,0,4.73,4.73,0,0,0-.69.1l-.65.13a3.23,3.23,0,0,0-.57.16l-.53.19a2.28,2.28,0,0,0-.83.44l-.36.23a.44.44,0,0,1-.11.11.39.39,0,0,0-.11.11,2.09,2.09,0,0,0-.32.37l-.08.11.08-.11a.8.8,0,0,1,.13-.15l.23-.19a.83.83,0,0,1,.22-.22l.33-.2a1.57,1.57,0,0,1,.4-.2A3,3,0,0,1,406.65,88.72Zm.52.37.64-.11.71-.12a7.19,7.19,0,0,1,.72-.08,6.31,6.31,0,0,0,.65-.07,2.25,2.25,0,0,1,.44-.06h.21l-.18,0-.24,0h-.26l-1.38.09a4.63,4.63,0,0,0-1.31.36l-.42.13a.3.3,0,0,0-.12.08s.05,0,.07,0l.09,0q.14,0,.16,0l.12,0Zm.13,15.61a.81.81,0,0,0,.24,0,.16.16,0,0,1,.11,0l-.32-.08-.4-.14a2.17,2.17,0,0,1-.47-.14l-.58-.25-.62-.28-.66-.39-.66-.39-.61-.45a1.44,1.44,0,0,1-.57-.42,3,3,0,0,1-.29-.24l-.25-.21a1.11,1.11,0,0,0-.22-.21,1.1,1.1,0,0,1-.22-.21,1,1,0,0,0-.2-.2.56.56,0,0,1-.16-.17,4,4,0,0,1-.25-.34l-.17-.28,0,.07a1.24,1.24,0,0,0,.13.25l.11.16.1.16a1,1,0,0,0,.17.2,1.09,1.09,0,0,1,.17.2l.45.49a1.12,1.12,0,0,0,.24.23,1.22,1.22,0,0,1,.24.23l.61.45.61.45.68.4a5.78,5.78,0,0,0,.67.34l.34.14.34.14a2.17,2.17,0,0,0,.55.2l.28.1.24.07Z"/></svg>