<svg id="Thunder" xmlns="http://www.w3.org/2000/svg" viewBox="0 0 512 512"><defs><style>.cls-1{opacity:0.5;}.cls-2{fill:#fff;}.cls-3{fill:#841717;}.cls-4{fill:#23375b;}.cls-5{fill:#cc8217;}</style></defs><title>Thunder</title><g class="cls-1"><ellipse class="cls-2" cx="256" cy="257.5" rx="242.51" ry="244.7"/><path class="cls-3" d="M256,504.83c-65.48,0-127-25.73-173.35-72.45a248.9,248.9,0,0,1,0-349.77C129,35.89,190.52,10.16,256,10.16S383,35.89,429.35,82.61a248.9,248.9,0,0,1,0,349.77C383,479.1,321.48,504.83,256,504.83Zm0-489.4A237.21,237.21,0,0,0,86.4,86.32a243.63,243.63,0,0,0,0,342.35,238.34,238.34,0,0,0,339.21,0,243.63,243.63,0,0,0,0-342.35A237.21,237.21,0,0,0,256,15.43Z"/></g><g class="cls-1"><ellipse class="cls-4" cx="254.73" cy="257.53" rx="169.5" ry="169.09"/><path class="cls-3" d="M254.73,428.65c-94.58,0-171.52-76.76-171.52-171.11S160.15,86.42,254.73,86.42s171.52,76.76,171.52,171.11S349.31,428.65,254.73,428.65Zm0-338.19c-92.35,0-167.48,74.95-167.48,167.08s75.13,167.07,167.48,167.07,167.48-74.95,167.48-167.07S347.08,90.46,254.73,90.46Z"/></g><g class="cls-1"><ellipse class="cls-5" cx="251.5" cy="258.63" rx="147.98" ry="153.11"/><path class="cls-3" d="M251.5,412c-81.76,0-148.27-68.82-148.27-153.4s66.51-153.4,148.27-153.4S399.77,174,399.77,258.63,333.26,412,251.5,412Zm0-306.22c-81.43,0-147.69,68.55-147.69,152.82S170.06,411.44,251.5,411.44s147.69-68.55,147.69-152.82S332.93,105.81,251.5,105.81Z"/></g><rect class="cls-3" x="103.52" y="256.58" width="295.96" height="4.1"/><rect class="cls-3" x="252.01" y="106.72" width="2.34" height="306.22"/><path class="cls-3" d="M353.24,372.36c-33.37-9.38-57.17-47.89-60.62-98.13-1.82-26.4,2.52-53,12.23-74.84,10.9-24.56,28.14-42.54,49.85-52l1.17,2.68c-21,9.17-37.74,26.64-48.34,50.52C298,222,293.76,248.09,295.54,274c3.37,49,26.33,86.47,58.49,95.51Z"/><path class="cls-3" d="M150.13,372.36l-.79-2.82c32.16-9,55.12-46.53,58.49-95.51,1.79-25.93-2.47-52-12-73.45-10.6-23.88-27.31-41.35-48.34-50.52l1.17-2.68c21.71,9.47,38.95,27.46,49.85,52,9.7,21.86,14,48.44,12.23,74.84C207.29,324.46,183.49,363,150.13,372.36Z"/><path d="M42.27,215.85a23.38,23.38,0,0,1,.9-3.46,20.76,20.76,0,0,1,1.94-4.26A12.13,12.13,0,0,1,48,204.8a4,4,0,0,1,3.62-.79A10.44,10.44,0,0,1,56,206.6a27.13,27.13,0,0,1,4.16,5,49.83,49.83,0,0,1,3.64,6.55,64.07,64.07,0,0,1,2.9,7.34A51.94,51.94,0,0,1,68.62,233a32.15,32.15,0,0,1,.44,7.25,25.94,25.94,0,0,1-.87,5.31,27.69,27.69,0,0,1-1.67,4.6,14.33,14.33,0,0,1-2,3.27,2.89,2.89,0,0,1-2,1.23A6.74,6.74,0,0,1,58,252.44a31,31,0,0,1-4.49-5.5,4.8,4.8,0,0,1-1,.21,6.39,6.39,0,0,1-1,0c-.29,0-.79-.47-1.48-1.4a27.13,27.13,0,0,1-2.25-3.73,54.73,54.73,0,0,1-2.43-5.53,58.61,58.61,0,0,1-2.09-6.67,45.66,45.66,0,0,1-1.19-7.12A29.28,29.28,0,0,1,42.27,215.85Zm13.42,33a2.19,2.19,0,0,1-.29-.26q-.07-.08-.11-.08a.62.62,0,0,0,.11.17.56.56,0,0,0,.14.13.44.44,0,0,1,.14.21l1,1.17.34.34.34.33a3.66,3.66,0,0,1,.38.42,2.4,2.4,0,0,0,.42.41l.44.33.44.33.44.33L60,253a1.63,1.63,0,0,0,.46.25,1.74,1.74,0,0,1,.46.25,2.24,2.24,0,0,0,1,.25,1.25,1.25,0,0,0,.88,0,1.94,1.94,0,0,1,.38-.12.83.83,0,0,0,.39-.2l.33-.24.15-.16.15-.16.24-.27.2-.28a1,1,0,0,0,.22-.47s0,0,.07-.08,0,0,0-.08a.57.57,0,0,1-.11.15l-.13.16a1.77,1.77,0,0,0-.13.24,1.49,1.49,0,0,0-.22.2l-.26.27a.16.16,0,0,0-.13.08.16.16,0,0,1-.13.08l-.33.24a1.85,1.85,0,0,1-.37.12l-.4.12h-.4a.14.14,0,0,1-.11,0,.14.14,0,0,0-.11,0h-.22l-.44-.16-.44-.16a2.65,2.65,0,0,0-.47-.25,1.74,1.74,0,0,1-.44-.25l-.47-.29a3.77,3.77,0,0,1-.44-.29l-.87-.75a6.5,6.5,0,0,1-.8-.67l-.34-.29-.34-.29A13.87,13.87,0,0,1,55.69,248.83Zm2.79,1.38a1,1,0,0,0-.31-.21.82.82,0,0,1-.24-.13.85.85,0,0,1-.22-.17l.22.17a1.59,1.59,0,0,1,.22.21,3.84,3.84,0,0,0,.29.29,3.26,3.26,0,0,0,.36.29l.4.29.43.33.47.33a1.63,1.63,0,0,0,.45.25,1.73,1.73,0,0,1,.45.25,2.94,2.94,0,0,0,.42.13,1.91,1.91,0,0,1,.38.12h.33a.22.22,0,0,0,.26,0h0a1,1,0,0,1-.26,0l-.33-.12-.38-.17a1.82,1.82,0,0,1-.42-.25,3,3,0,0,1-.44-.21,4,4,0,0,1-.44-.29l-.47-.29a3.77,3.77,0,0,1-.44-.29A6.85,6.85,0,0,1,58.49,250.21Zm-4.75-13.79a22.73,22.73,0,0,0,1.94,4A26.83,26.83,0,0,0,58.26,244,19.82,19.82,0,0,0,61,246.68a7.52,7.52,0,0,0,2.52,1.4,1.83,1.83,0,0,0,1.86-.36,3.57,3.57,0,0,0,.8-2.52,44.87,44.87,0,0,0-.4-7.9,53.75,53.75,0,0,0-1.66-7.77,50.84,50.84,0,0,0-2.7-7.21,37.14,37.14,0,0,0-3.59-6.19,23.8,23.8,0,0,0-4.37-4.66,12.53,12.53,0,0,0-5.1-2.52c-1.08-.24-1.91.26-2.48,1.54a13.69,13.69,0,0,0-.93,5.29,39.62,39.62,0,0,0,.75,7.78,50.68,50.68,0,0,0,2.5,8.8,13.17,13.17,0,0,1,.76-1.93q.5-1,1.06-2a13.46,13.46,0,0,1,1.06-1.52c.34-.41.58-.61.73-.58s.26.18.2.47a9.84,9.84,0,0,0-.09,1.56,18.17,18.17,0,0,0,.32,3.07A28.43,28.43,0,0,0,53.74,236.42ZM65.47,223.7a2.31,2.31,0,0,0-.11-.28,2.57,2.57,0,0,1-.11-.28.57.57,0,0,1-.09-.16.57.57,0,0,0,.09.16,2.55,2.55,0,0,0,.11.28,2.41,2.41,0,0,1,.11.28q.13.4.29.91t.37,1.14c.26.89.52,1.93.79,3.14s.52,2.47.74,3.79a37.76,37.76,0,0,1,.52,4.06,33.94,33.94,0,0,1,.09,3.8,7.92,7.92,0,0,1-.08,1.5,2.41,2.41,0,0,1,0,.3,2.63,2.63,0,0,0,0,.3,1.32,1.32,0,0,0-.05.3,1.29,1.29,0,0,1-.05.3,3.19,3.19,0,0,1-.14.68v.23c0,.05,0,.08,0,.07s0,0,0-.07v-.23l.09-.3c0-.1.06-.22.09-.37a1.15,1.15,0,0,0,0-.26,1.15,1.15,0,0,1,0-.26c0-.1,0-.21,0-.34s0-.24,0-.34.06-.5.08-.75,0-.5,0-.75a32.92,32.92,0,0,0,0-3.83q-.18-2-.49-4.16-.34-1.83-.78-3.83c-.13-.56-.27-1.11-.42-1.63s-.29-1-.44-1.41A20.79,20.79,0,0,0,65.47,223.7Zm0,1.27a1.46,1.46,0,0,0,.07.31q.05.16.1.35c0,.13.06.27.09.43l.3,1.17c0,.26.09.49.14.69s.11.44.18.7l.29,1.39q.07.38.13.65c0,.18.08.37.11.57l.08.53a1.9,1.9,0,0,0,.09.38,3,3,0,0,0,.08.31c0-.1,0-.23,0-.38a5.88,5.88,0,0,0-.13-.91c0-.2-.06-.41-.1-.61a6.52,6.52,0,0,1-.09-.68c-.05-.2-.1-.42-.15-.66s-.1-.47-.14-.73-.13-.49-.18-.7-.11-.41-.19-.63a9.21,9.21,0,0,0-.3-1.17l-.27-.79Zm-6.72-13.56-.4-.47a1.16,1.16,0,0,1-.15-.19,2.33,2.33,0,0,1,.14.26,3.92,3.92,0,0,0,.35.54l.23.36a4,4,0,0,0,.27.37,3.35,3.35,0,0,1,.28.41,3,3,0,0,0,.28.41q.62.9,1.06,1.6a1.82,1.82,0,0,0,.36.53,1.4,1.4,0,0,1,.15.18,1.92,1.92,0,0,0-.11-.25,1.07,1.07,0,0,0-.14-.29l-.21-.31-.19-.38a2.31,2.31,0,0,0-.27-.4l-.27-.48a3.39,3.39,0,0,0-.28-.41,4.61,4.61,0,0,1-.3-.41,4.86,4.86,0,0,0-.3-.41l-.28-.33A3,3,0,0,1,58.73,211.41Z"/><path d="M72.71,169.5c-.08-.24,0-.57.39-1a8.33,8.33,0,0,1,1.18-1.16,6.07,6.07,0,0,1,1.26-.81q.59-.27.71,0c.21.6.47,1.42.78,2.43s.6,2.17.89,3.47.55,2.71.77,4.23a43,43,0,0,1,.43,4.69A35.84,35.84,0,0,1,79,186.3a23.79,23.79,0,0,1-1,4.9,10.26,10.26,0,0,1-1.33,2.63,11.5,11.5,0,0,1-2.27,2.46,11.2,11.2,0,0,1-3,1.76,8.24,8.24,0,0,1-3.64.52q-.12.63-.27,1.28t-.32,1.34a5.34,5.34,0,0,1-.37,1.07c1.31,1.8,2.48,3.25,3.49,4.38a6.77,6.77,0,0,0,2,1.82,1,1,0,0,1,.75.72,2.63,2.63,0,0,1,0,1.18,6.3,6.3,0,0,1-.45,1.28,8.26,8.26,0,0,1-.8,1.39,6.75,6.75,0,0,1-1,1.11,1.1,1.1,0,0,1-.95.37,7.59,7.59,0,0,1-1.21-1.36c-.71-.89-1.61-2-2.69-3.49s-2.3-3.13-3.63-5.06-2.68-3.92-4-6-2.68-4.08-4-6.14-2.43-3.91-3.46-5.55-1.91-3-2.65-4.08a5.63,5.63,0,0,0-1.52-1.77c-.28-.1-.28-.41,0-.92a9.08,9.08,0,0,1,1.13-1.6,12.77,12.77,0,0,1,1.47-1.45c.51-.42.85-.59,1-.52a6,6,0,0,1,1.45,1.9c.72,1.16,1.59,2.63,2.63,4.39s2.2,3.72,3.49,5.88,2.62,4.28,4,6.38c-.45-1.55-.86-3.24-1.21-5.06s-.61-3.63-.78-5.42a33,33,0,0,1-.09-5.2,15.71,15.71,0,0,1,.87-4.42,6.27,6.27,0,0,1,1-1.76,8.11,8.11,0,0,1,1.59-1.5,5.5,5.5,0,0,1,1.76-.86,2.23,2.23,0,0,1,1.51.06c.65.29,1.19,1.15,1.63,2.56a26,26,0,0,1,.93,5.3,58.52,58.52,0,0,1,.13,7.23,73.61,73.61,0,0,1-.83,8.49,12.73,12.73,0,0,0,1.64.71,3.39,3.39,0,0,0,1.92.12,3.85,3.85,0,0,0,1.88-1.13,7.48,7.48,0,0,0,1.55-3,15.2,15.2,0,0,0,.65-3.82,31.29,31.29,0,0,0-.09-4.15,39.16,39.16,0,0,0-.58-4.18q-.4-2.06-.88-3.89t-.94-3.31C73.23,170.92,73,170.12,72.71,169.5Zm-8.15,37.24a1.82,1.82,0,0,1,.2.28,3.41,3.41,0,0,0,.22.39,4.85,4.85,0,0,0,.29.41q.15.19.34.45l.4.54a5.37,5.37,0,0,1,.44.59,5.45,5.45,0,0,0,.44.59l.91,1.1.41.5.39.42.33.33a2.1,2.1,0,0,1,.26.31,2,2,0,0,0,.21.27,1.9,1.9,0,0,1-.21-.27l-.52-.78a3,3,0,0,1-.36-.45,5.12,5.12,0,0,0-.42-.54l-.44-.54a7.47,7.47,0,0,1-.46-.62c-.16-.19-.31-.37-.45-.55l-.41-.54-.44-.52q-.19-.23-.38-.43Zm-3-10.77s-.09-.08-.14-.19a2,2,0,0,1-.12-.26,1.81,1.81,0,0,0-.21-.37c-.14-.25-.32-.54-.54-.89s-.45-.74-.69-1.18L59,191.64c-.29-.51-.61-1-.94-1.55s-.67-1.07-1-1.62-.67-1.13-1-1.72-.7-1.09-1-1.66l-1-1.66q-.95-1.54-1.78-2.81c-.25-.42-.49-.79-.71-1.11s-.41-.6-.57-.82a1,1,0,0,0-.23-.29.48.48,0,0,1-.15-.18,1.25,1.25,0,0,1-.12-.21,1.21,1.21,0,0,0,.12.21c.05.08.16.25.33.53s.32.58.53.93.43.76.67,1.22q.74,1.32,1.69,3t2,3.35q.53.81,1,1.64t1,1.62l1,1.52q.47.73.88,1.32l.76,1.08c.23.33.41.61.55.86a2.53,2.53,0,0,0,.24.3,1.06,1.06,0,0,1,.16.2A1.53,1.53,0,0,1,61.57,196Zm1.92-21a13.56,13.56,0,0,0-.75,4.56,35.87,35.87,0,0,0,.35,5.46,52.66,52.66,0,0,0,1,5.33c.42,1.7.81,3.13,1.15,4.28q.2-2.4.32-5.21t0-5.5a36.62,36.62,0,0,0-.58-5A10.16,10.16,0,0,0,63.49,175Zm-1.62,17.23a1.5,1.5,0,0,0,.06.25,1.34,1.34,0,0,0,.08.18.61.61,0,0,1,.07.17q-.06-.32-.16-.66a6,6,0,0,1-.16-.78q-.07-.44-.2-1a4.55,4.55,0,0,1-.13-.54l-.11-.61a5.41,5.41,0,0,0-.1-.69c0-.19-.09-.43-.14-.7-.06-.48-.13-1-.21-1.46a13.47,13.47,0,0,1-.15-1.61c0-.27-.07-.54-.1-.78s0-.5-.06-.77l0-.8c0-.27,0-.53,0-.79,0-.58,0-1.1,0-1.56,0-.26,0-.49,0-.69a6.49,6.49,0,0,1,.06-.68.92.92,0,0,1,0-.31,2.51,2.51,0,0,0,0-.29c.05-.29.08-.49.09-.59a3.19,3.19,0,0,1,.09-.51q.06-.21.1-.43a2.31,2.31,0,0,1,.09-.35,1.17,1.17,0,0,0,.07-.29l.07-.2-.07.2-.22.61a2.8,2.8,0,0,1-.13.46,2.26,2.26,0,0,0-.11.54,1.16,1.16,0,0,1-.06.29,1.21,1.21,0,0,0-.06.29,4.65,4.65,0,0,0-.08.67q-.05.37-.07.71t-.07.71q0,.81-.08,1.62c0,.27,0,.53,0,.8s0,.53,0,.79a5.71,5.71,0,0,1,.06.85,5.39,5.39,0,0,0,.06.84q.06.42.1.78c0,.24.05.5.07.77s.09.52.14.74a5.85,5.85,0,0,1,.11.73c.1.44.19.87.29,1.29s.2.79.3,1.13.18.71.26,1S61.81,192,61.88,192.18ZM56,190.07a1.23,1.23,0,0,1,.22.3l.05.09-.05-.09-.2-.38a4.06,4.06,0,0,0-.3-.56,4.69,4.69,0,0,1-.36-.75q-.2-.38-.45-.82l-.53-.93q-.28-.49-.57-.94l-.6-1c-.18-.33-.38-.65-.58-1s-.39-.63-.57-1a9,9,0,0,0-.54-.88,8,8,0,0,1-.49-.78,4.22,4.22,0,0,0-.39-.67c-.13-.18-.24-.34-.33-.49a.22.22,0,0,0-.11-.12.22.22,0,0,1-.12-.12A.12.12,0,0,1,50,180s0,0,.08.11a3.12,3.12,0,0,1,.15.38,6,6,0,0,1,.29.55c.11.23.23.48.38.75s.26.54.41.84.32.61.5.94.37.66.56,1l.57,1c.21.34.41.66.62,1s.4.62.59.95a7.91,7.91,0,0,0,.56.85l.5.67a5.79,5.79,0,0,0,.45.65C55.83,189.79,55.94,189.94,56,190.07Zm9.22-13.18q-.11-.35-.15-.45a.2.2,0,0,1,0-.16l0,.16.07.18a1.56,1.56,0,0,1,0,.25,1.94,1.94,0,0,0,.07.34,2.46,2.46,0,0,1,.08.42,4,4,0,0,1,.1.42q0,.25.11.5c0,.16,0,.34.08.53s.07.4.1.61l.09.64q0,.32.07.71a3.64,3.64,0,0,1,.1.68c0,.23,0,.48.08.75l.05.77c0,.26,0,.52.05.77q0,.8.06,1.6c0,.25,0,.51,0,.79s0,.54,0,.79q0,.82-.06,1.55t-.06,1.33q0,.67-.05,1.21l-.07.91a1.09,1.09,0,0,1,0,.33,1,1,0,0,0,0,.25,1,1,0,0,1,0,.22,1,1,0,0,0,0-.22,1.45,1.45,0,0,0,.05-.24l0-.32a1.77,1.77,0,0,1,0-.44,3.13,3.13,0,0,0,.05-.51c0-.19,0-.39,0-.58s0-.41.06-.65,0-.47.06-.69,0-.45.06-.69,0-.49,0-.74,0-.49,0-.74,0-.58,0-.85,0-.54,0-.79q0-.8-.06-1.6c0-.26,0-.51-.05-.77l0-.77c0-.27-.06-.52-.08-.75s0-.48-.07-.75L66,180.2c0-.19-.06-.39-.12-.61a4.86,4.86,0,0,0-.11-.58,4.86,4.86,0,0,1-.11-.58l-.12-.47-.11-.39a1.31,1.31,0,0,0-.1-.38A1,1,0,0,1,65.26,176.89Zm-4-1.18q0,.22-.11.46c0,.16-.08.32-.11.46a6.48,6.48,0,0,0-.15,1c0,.3,0,.58-.08.83a4.29,4.29,0,0,1,0,.77,1,1,0,0,0,0-.22,1.21,1.21,0,0,1,.06-.29.65.65,0,0,0,0-.3l.12-.85c0-.32.11-.64.18-1a8.63,8.63,0,0,1,.48-1.75,2.14,2.14,0,0,1,.12-.26,2.25,2.25,0,0,0,.12-.26.3.3,0,0,0,.08-.12l.06-.05-.06.05a.31.31,0,0,1-.08.12l-.16.21a2.24,2.24,0,0,0-.18.28l-.15.41Z"/><path d="M80.57,153.34q-.06-.27.48-.79a7,7,0,0,1,1.29-1,6,6,0,0,1,1.38-.62c.43-.12.68-.05.77.2Q85,152.8,85.82,155a30.24,30.24,0,0,1,1.31,4.64,21.82,21.82,0,0,1,.4,5.14,13.89,13.89,0,0,1-1.38,5.4,12.08,12.08,0,0,1-1.44,2.26,14.05,14.05,0,0,1-2.08,2.17,9.88,9.88,0,0,1-2.3,1.47,2.55,2.55,0,0,1-2.16.09,7.31,7.31,0,0,1-2.28-1.92,33.58,33.58,0,0,1-2.71-3.66q-1.41-2.17-2.83-4.84t-2.68-5.48q-1.27-2.81-2.33-5.47C64.65,153,64,151.39,63.53,150s-.92-2.55-1.23-3.42a9,9,0,0,0-.52-1.35c-.26-.15-.27-.44,0-.87a4.35,4.35,0,0,1,.68-.75,12.2,12.2,0,0,1,1.32-1.08,8.5,8.5,0,0,1,1.51-.87,1.3,1.3,0,0,1,1.18-.08A3.91,3.91,0,0,1,67.1,143c.3.88.69,2,1.16,3.37s1,2.93,1.64,4.67,1.31,3.51,2.06,5.3,1.54,3.56,2.37,5.32a53.89,53.89,0,0,0,2.54,4.76,33.11,33.11,0,0,0,2.5,3.63,7,7,0,0,0,2.21,2c.45.21.87-.13,1.27-1a9.48,9.48,0,0,0,.77-2.88,15.72,15.72,0,0,0,0-3.13,23.52,23.52,0,0,0-.52-3.2q-.37-1.6-.83-3.13t-.92-2.89ZM75,170.75a2.57,2.57,0,0,1,.28.43,1.63,1.63,0,0,0,.21.32.44.44,0,0,0,.18.23q-.27-.5-.64-1l-.7-1.19L73.38,168a8.92,8.92,0,0,0-.5-.92q-.27-.43-.53-.94l-.53-1q-.28-.52-.6-1.06-.58-1.13-1.17-2.33t-1.15-2.42q-.59-1.25-1.13-2.48t-1-2.45l-.9-2.34q-.43-1.12-.81-2.08c-.24-.68-.45-1.28-.65-1.8s-.37-1-.52-1.33l-.46-1.18q.18.52.4,1.23l.45,1.45q.27.85.59,1.85l.75,2.16q.4,1.15.87,2.37t1,2.48q.52,1.27,1.12,2.52t1.21,2.41q.61,1.16,1.16,2.28l.61,1c.19.32.39.66.58,1s.39.67.57,1l.53.86q.52.85,1,1.47Zm5.14,1a1.68,1.68,0,0,0-.23-.22,1,1,0,0,1-.24-.29,4.27,4.27,0,0,1-.61-.73l-.31-.44q-.16-.23-.38-.48t-.35-.5l-.35-.58q-.36-.55-.73-1.17l-.73-1.26q-.76-1.28-1.41-2.52l-.61-1.19-.53-1.08-.44-.92-.33-.71a2.91,2.91,0,0,0-.31-.63l.07.19a.51.51,0,0,0,.1.17.56.56,0,0,1,.11.25c.14.38.38,1,.72,1.76q.25.51.52,1.11t.6,1.22l.65,1.28q.33.66.7,1.29t.75,1.27q.35.62.75,1.18a4.56,4.56,0,0,1,.38.52c.11.18.23.34.35.5l.39.45a3.83,3.83,0,0,1,.32.41,3.25,3.25,0,0,0,.34.38,1.55,1.55,0,0,1,.27.35,2.72,2.72,0,0,0,.28.24,1.73,1.73,0,0,0,.27.17,1.35,1.35,0,0,0,.38.25l.13.06-.13-.06A1.35,1.35,0,0,1,80.1,171.75ZM65.34,148.48c-.11-.28-.2-.53-.3-.75l-.24-.55a3.15,3.15,0,0,0-.22-.54,5.36,5.36,0,0,1,.19.52,5.23,5.23,0,0,1,.2.61q.11.39.27.81t.33,1q.17.51.37,1t.39,1.11a9.36,9.36,0,0,0,.46,1.14,16,16,0,0,0,.9,2.17c.14.34.28.67.42,1s.28.61.39.88.26.52.38.71l.31.52.14.39a.22.22,0,0,0,.07.11,5.27,5.27,0,0,1-.21-.5q-.1-.21-.24-.56t-.34-.77a7.08,7.08,0,0,0-.36-.95c-.15-.32-.29-.64-.42-1q-.41-1-.9-2.17-.2-.59-.41-1.16t-.44-1.1c-.13-.34-.26-.67-.38-1S65.44,148.81,65.34,148.48Z"/><path d="M98.92,126.34c0-.15.19-.29.51-.44a4.47,4.47,0,0,1,1.08-.33,6.57,6.57,0,0,1,1.19-.11,1.29,1.29,0,0,1,.81.2A2.8,2.8,0,0,1,103,127a22.9,22.9,0,0,1,.38,2.71c.1,1.07.15,2.26.17,3.56a35.8,35.8,0,0,1-.14,3.86,24.34,24.34,0,0,1-.59,3.59,8.32,8.32,0,0,1-1.25,2.87,4.64,4.64,0,0,1-1.34,1.19,13.42,13.42,0,0,1-1.84,1,8.25,8.25,0,0,1-1.77.56,1.61,1.61,0,0,1-1.15-.08l-.25-.17q-.07,1.53-.22,3c-.1,1-.22,2-.37,2.86a24.51,24.51,0,0,1-.54,2.5,7.62,7.62,0,0,1-2.79,4.23,15.65,15.65,0,0,1-2.64,1.72,10.63,10.63,0,0,1-2.59,1,2.75,2.75,0,0,1-1.88-.09A5.55,5.55,0,0,1,82,158.59a17.92,17.92,0,0,1-1.34-4.66,34.92,34.92,0,0,1-.41-5.81,41,41,0,0,1,.5-6.09,35.46,35.46,0,0,1,1.31-5.5,15.52,15.52,0,0,1,1.88-4,6.64,6.64,0,0,1,2.72-2.4,6,6,0,0,1,2.65-.58,3.2,3.2,0,0,1,1.81.56q.65.5.3,1a1.23,1.23,0,0,1-.82.57c-.28,0-.59,0-.91,0a2.77,2.77,0,0,0-1.05.24,3.23,3.23,0,0,0-1.22,1.15,12.33,12.33,0,0,0-1.61,3.48,30.94,30.94,0,0,0-1.06,4.83,38.24,38.24,0,0,0-.38,5.4,31,31,0,0,0,.4,5.12A17.74,17.74,0,0,0,86,156a4.81,4.81,0,0,0,1.82,2.36c.58.34,1.1.08,1.57-.76a9.55,9.55,0,0,0,1-2.86,26.23,26.23,0,0,0,.42-3.62q.1-1.91.08-4t-.06-3.91c0-1.23-.08-2.34-.14-3.33s-.1-1.77-.11-2.37a1.47,1.47,0,0,1,.05-.92,2.57,2.57,0,0,1,.88-.56,16.37,16.37,0,0,1,1.56-.64,15.29,15.29,0,0,1,1.56-.47c.48-.11.78-.13.88-.05a2.08,2.08,0,0,1,.26.71q.17.64.44,1.51t.55,1.85a17.45,17.45,0,0,0,.59,1.74,8,8,0,0,0,.56,1.17q.26.41.47.11a6.19,6.19,0,0,0,1-2.39,17.91,17.91,0,0,0,.33-3,30.69,30.69,0,0,0-.09-3.26c-.09-1.1-.17-2.13-.27-3.1s-.17-1.79-.25-2.48A6.23,6.23,0,0,1,98.92,126.34ZM82,155.94a6.89,6.89,0,0,1-.27-1c-.07-.37-.13-.75-.2-1.14s-.09-.86-.14-1.27-.1-.84-.14-1.27-.06-.87-.08-1.32,0-.91,0-1.38q0-1.34.07-2.77t.27-2.83q.07-.67.16-1.33c.06-.44.13-.87.23-1.29s.16-.86.25-1.28.19-.81.28-1.18a19.72,19.72,0,0,1,.6-2.11,2.27,2.27,0,0,1,.15-.42,2.28,2.28,0,0,0,.15-.42,6.45,6.45,0,0,1,.33-.75q.12-.24.29-.62a2.6,2.6,0,0,1,.24-.41.43.43,0,0,0,.08-.15.22.22,0,0,1,0-.09l.08-.11-.23.33a1.33,1.33,0,0,0-.12.2,1.23,1.23,0,0,1-.12.2,1.25,1.25,0,0,1-.16.3,1.28,1.28,0,0,0-.16.3l-.17.37-.2.43a2.3,2.3,0,0,1-.15.42,2.25,2.25,0,0,0-.15.43q-.21.51-.38,1t-.32,1.08q-.32,1.16-.58,2.47t-.47,2.77q-.17,1.4-.28,2.83a27.17,27.17,0,0,0-.08,2.85q0,1.35.15,2.72.06.65.14,1.27c.05.41.11.82.18,1.21a17.83,17.83,0,0,0,.5,2.19,5.12,5.12,0,0,0,.34.95,2.91,2.91,0,0,1,.17.43,3.13,3.13,0,0,0,.17.43,4.45,4.45,0,0,0,.37.69c.13.2.27.39.4.56a.74.74,0,0,0,.17.28,1,1,0,0,1,.17.2.7.7,0,0,0,.2.18.44.44,0,0,1,.16.17,1.11,1.11,0,0,0,.28.23l.24.14.23.13-.06,0a.28.28,0,0,1-.13-.15l-.23-.13a.25.25,0,0,0-.12-.14A.43.43,0,0,1,84,160a.7.7,0,0,1-.3-.39,2.51,2.51,0,0,1-.37-.5,6.67,6.67,0,0,1-.7-1.29l-.31-.85a2,2,0,0,1-.15-.46C82.12,156.29,82.08,156.12,82,155.94Zm12.45-7.56c0-.23.05-.44.07-.62s0-.35,0-.5l0-.44a4.19,4.19,0,0,1,0,.42c0,.13-.05.3-.08.51s-.06.42-.09.65a6.91,6.91,0,0,1-.07.77c0,.27-.09.56-.14.87s-.09.62-.13.91-.09.62-.16,1a2.74,2.74,0,0,0-.09.5,2.88,2.88,0,0,1-.08.5c0,.13,0,.27-.08.42s-.07.31-.11.48-.09.32-.13.47-.08.3-.13.47a1.39,1.39,0,0,1-.13.39,3.81,3.81,0,0,0-.16.38,197.45,197.45,0,0,0-.31.68l-.28.48a1.08,1.08,0,0,1-.12.18l-.09.12-.06.11.06-.11a.71.71,0,0,0,.12-.14.72.72,0,0,1,.12-.14,2.46,2.46,0,0,1,.15-.23.68.68,0,0,0,.12-.25l.19-.32a2.25,2.25,0,0,0,.19-.39,3.94,3.94,0,0,1,.16-.38,1.4,1.4,0,0,0,.13-.39c.06-.15.12-.3.16-.45s.08-.3.13-.47.08-.33.11-.48.07-.31.11-.48a2.86,2.86,0,0,0,.08-.5,2.72,2.72,0,0,1,.09-.5,9.45,9.45,0,0,0,.14-1q0-.45.12-.92c.05-.31.09-.59.12-.85S94.47,148.63,94.48,148.39Zm-3.32,3.79a1.11,1.11,0,0,0,0,.27v0a1.09,1.09,0,0,1,0-.27c0-.13,0-.27.05-.41a4.83,4.83,0,0,1,.09-.54c0-.18,0-.38.06-.6s0-.44,0-.69,0-.47.05-.72,0-.49,0-.74,0-.48,0-.71,0-.45,0-.66a6.09,6.09,0,0,0,0-.65,4.8,4.8,0,0,1,0-.57q0-.24-.06-.46a1.71,1.71,0,0,1,0-.36,1.65,1.65,0,0,1,0-.32l0,.37,0,.37a3.54,3.54,0,0,0,0,.46,4.89,4.89,0,0,0,0,.57,6,6,0,0,1,0,.65q0,.37,0,.71c0,.23,0,.47,0,.71q0,.7,0,1.4c0,.25,0,.47,0,.66a5.14,5.14,0,0,1,0,.57q0,.35,0,.57C91.16,152,91.16,152.08,91.16,152.17Zm-8-15.13c.06-.17.1-.33.14-.47a2.44,2.44,0,0,0,.06-.36c0-.14.07-.25.1-.34s0,0,0,.08a.51.51,0,0,0-.06.12.49.49,0,0,1-.06.12,1.49,1.49,0,0,1-.1.38l-.21.55-.18.57a5.7,5.7,0,0,0-.15.67l-.2.71a5.92,5.92,0,0,0-.17.73l-.11.69-.11.69c0,.24-.07.46-.09.66s0,.37,0,.53,0,.37,0,.5l0,.35,0,.31a.71.71,0,0,1,0-.31l.14-.86.2-1.22c.07-.43.15-.91.26-1.43q.06-.36.15-.71c.06-.23.11-.46.15-.71s.11-.44.15-.63A3.59,3.59,0,0,1,83.17,137Z"/><path d="M121.82,102.68c0-.15.26-.35.7-.58a6,6,0,0,1,1.47-.53,3.31,3.31,0,0,1,1.47,0,.85.85,0,0,1,.69.88,22.12,22.12,0,0,1-.19,2.48c-.12,1-.29,2.12-.5,3.32s-.45,2.44-.72,3.71a36.79,36.79,0,0,1-1,3.65,25.32,25.32,0,0,1-1.25,3.18A7.85,7.85,0,0,1,121,121a6.3,6.3,0,0,1-1.29,1,5.88,5.88,0,0,1-1.56.62,4.28,4.28,0,0,1-1.64.07,2.65,2.65,0,0,1-1.46-.74,3.63,3.63,0,0,1-.78-1.5,20.6,20.6,0,0,1-.61-2.54q-.26-1.45-.49-3t-.42-3c-.13-1-.27-1.8-.43-2.5a3.12,3.12,0,0,0-.6-1.44,89.49,89.49,0,0,0-2.4,12.75c-.42,3.83-.66,7-.82,9.5,0,0,0,.15-.05.35-.06,1.37-.14,2.5-.25,3.37a3.77,3.77,0,0,1-.46,1.68,4.27,4.27,0,0,1-.93.86,4.13,4.13,0,0,1-1,.52,5.74,5.74,0,0,1-1,.23,1.22,1.22,0,0,1-.72-.07l-.15-.12a7.81,7.81,0,0,1-1.72-2.37,37.75,37.75,0,0,1-1.93-4.29c-.64-1.68-1.29-3.53-1.92-5.57s-1.21-4.1-1.73-6.2-1-4.14-1.36-6.14-.71-3.79-1-5.36-.46-2.85-.62-3.82a11.25,11.25,0,0,0-.28-1.51c-.25-.24-.14-.52.32-.84a8.17,8.17,0,0,1,1.78-.88,10.33,10.33,0,0,1,2.1-.54c.68-.1,1.11-.05,1.29.12a6.58,6.58,0,0,1,.22,1.43c.1.9.24,2.05.43,3.46s.42,3,.7,4.84.6,3.66,1,5.53.8,3.73,1.25,5.55a49.33,49.33,0,0,0,1.48,4.9q.19-1.81.48-4t.69-4.47q.4-2.28.92-4.49t1.11-4.06a25,25,0,0,1,1.22-3.19,6.31,6.31,0,0,1,1.22-1.88,4.34,4.34,0,0,1,1.15-.73,5.75,5.75,0,0,1,1.58-.45,4.39,4.39,0,0,1,1.71.1,3.07,3.07,0,0,1,1.53,1,3.53,3.53,0,0,1,.55,1.55q.23,1.19.44,2.8c.14,1.07.29,2.22.45,3.43s.32,2.34.49,3.39.35,2,.53,2.71a3.42,3.42,0,0,0,.56,1.43,6,6,0,0,0,1.15-2.39,38.28,38.28,0,0,0,1-4.13q.44-2.33.76-4.79A36.12,36.12,0,0,0,121.82,102.68Zm-21,27.34-.27-.5a2.39,2.39,0,0,1-.18-.43l-.14-.36.14.36c0,.14.09.3.12.47a2.36,2.36,0,0,0,.21.54,3.43,3.43,0,0,1,.26.66c.07.25.16.49.25.73l.33.75q.16.37.33.82t.37.73q.2.35.37.73l.4.63a4.5,4.5,0,0,0,.38.54,2,2,0,0,0,.33.42,1.13,1.13,0,0,0,.28.3.4.4,0,0,0,.14.07l.11,0,.09.07-.09-.07-.2-.16a.77.77,0,0,1-.13-.14.8.8,0,0,0-.16-.16c-.05-.09-.15-.25-.3-.47l-.33-.57q-.17-.29-.39-.62l-.34-.74q-.16-.37-.37-.77l-.35-.76-.35-.76-.27-.7A5,5,0,0,0,100.82,130Zm3.08-3.52q-.19-.41-.34-.83c-.1-.28-.21-.55-.31-.81l-.3-.71q-.14-.33-.22-.57a.41.41,0,0,0-.1-.17.23.23,0,0,1-.07-.14.23.23,0,0,1-.07-.15c0,.15.08.32.13.53l.2.59c.08.23.16.5.24.78s.17.59.28.9.22.65.33,1l.08.23a2.3,2.3,0,0,0,.08.23c0-.14,0-.29.06-.44S103.89,126.66,103.89,126.5Zm-3.48-10.26a2.91,2.91,0,0,0,0,.31c0,.07,0,.14,0,.21a.41.41,0,0,0,.07.15c0-.21-.08-.45-.11-.71a7.74,7.74,0,0,1-.11-.8q0-.48-.13-1.09t-.19-1.2q-.08-.65-.2-1.39t-.21-1.46q-.12-.74-.23-1.49t-.22-1.54c-.09-.48-.15-1-.2-1.45s-.14-1-.21-1.38-.14-.81-.19-1.18-.11-.7-.18-1-.12-.55-.16-.78a3.79,3.79,0,0,0-.13-.71.4.4,0,0,0,0,.2,3.63,3.63,0,0,1,0,.53c0,.22,0,.5.07.83s.05.69.11,1.05.1.78.15,1.23.09.92.14,1.4.11,1,.18,1.47.14,1,.2,1.57.16,1,.25,1.47.18,1,.26,1.46.14.92.23,1.33.18.81.28,1.18.14.69.21,1S100.35,116,100.41,116.24ZM98.13,107a4.4,4.4,0,0,0,.1.51,2.13,2.13,0,0,1,.07.39,1.11,1.11,0,0,0,.08.35,2.71,2.71,0,0,0,0-.37,8.27,8.27,0,0,1-.12-.95c0-.2,0-.4-.06-.61s0-.45-.06-.71,0-.53-.08-.78-.06-.51-.07-.78a5.64,5.64,0,0,0-.1-.75,5.3,5.3,0,0,1-.09-.75q-.07-.35-.11-.68c0-.22,0-.43-.06-.63s-.08-.32-.12-.46a1.68,1.68,0,0,1-.07-.4,1.14,1.14,0,0,0-.07-.36q.16,2.09.37,4.18a7.15,7.15,0,0,1,.2,1.5c.05.24.09.46.12.68S98.11,106.82,98.13,107Zm16.11,7.37,0,.29a2.73,2.73,0,0,0,0,.4,4.18,4.18,0,0,0,.07.46c0,.15.05.31.07.5a4.53,4.53,0,0,0,.11.63,4.72,4.72,0,0,0,.07.67c0,.21.08.43.14.65s.1.44.14.65a3.44,3.44,0,0,0,.16.58l.24.53a3.8,3.8,0,0,1,.19.48.87.87,0,0,0,.21.37.64.64,0,0,1,.17.25l.21.21L116,121a.47.47,0,0,1-.12-.2,1,1,0,0,0-.15-.27,1.3,1.3,0,0,1-.19-.39,4.54,4.54,0,0,0-.14-.47c-.06-.17-.13-.35-.22-.55l-.12-.62c0-.21-.08-.42-.14-.65s-.1-.44-.14-.65l-.11-.63a2.8,2.8,0,0,1-.14-.57c0-.2-.05-.37-.08-.52Zm-5.75-8.27A8.83,8.83,0,0,1,109,105a7.84,7.84,0,0,1,.63-1l.41-.46a2.14,2.14,0,0,1,.49-.38,6.29,6.29,0,0,1,.87-.4,3.48,3.48,0,0,1,.75-.15l.58,0a.7.7,0,0,0,.34,0s.08,0,.1,0H113a.42.42,0,0,1-.37,0h-.23a1.22,1.22,0,0,0-.28,0,1.28,1.28,0,0,0-.71.09,3,3,0,0,0-1,.43,3.37,3.37,0,0,0-.91.84,7,7,0,0,0-.73,1.12,8.69,8.69,0,0,0-.47,1.09c-.13.36-.25.72-.36,1.07s-.22.71-.32,1.09-.18.66-.25,1-.14.6-.21.84-.14.54-.19.76-.08.42-.1.58l-.13.5.13-.5a5.51,5.51,0,0,0,.19-.58l.2-.75c.08-.29.16-.58.25-.88s.18-.63.25-1,.24-.72.35-1.07S108.35,106.47,108.48,106.11Zm5.16,7.5c-.07-.31-.14-.61-.19-.9a8.13,8.13,0,0,1-.12-.92q-.08-.44-.18-.81c-.07-.25-.12-.48-.17-.71s-.1-.43-.15-.6a4.21,4.21,0,0,1-.11-.48.22.22,0,0,0,0-.14.21.21,0,0,1,0-.14.12.12,0,0,1,0-.12s0,.06,0,.1a.23.23,0,0,0,.06.15.23.23,0,0,1,.06.15l.08.49c0,.18.05.4.07.66.1.46.19,1,.28,1.59s.18,1.21.27,1.82c0,.34.1.65.15.94l.18.87a6.9,6.9,0,0,0,.13.87q.09.39.17.73t.13.6c0,.18.07.34.1.48a1,1,0,0,0,.09.43c0-.13,0-.28,0-.45s-.06-.31-.1-.48-.06-.39-.09-.65a6.77,6.77,0,0,0-.12-.77,4.78,4.78,0,0,1-.1-.84,9,9,0,0,0-.13-.92Q113.7,114.12,113.64,113.61Z"/><path d="M143.94,83.71c.06-.3.31-.52.76-.67a5.21,5.21,0,0,1,1.43-.26,6.23,6.23,0,0,1,1.38.08q.62.11.61.33a28.2,28.2,0,0,1-.42,3.48,19.41,19.41,0,0,1-1.33,4.3,21.92,21.92,0,0,1-2.73,4.57A20.37,20.37,0,0,1,139,99.86l-.46.33a4.82,4.82,0,0,1-.48.3q-.4,1.56-.93,3a22.34,22.34,0,0,1-1.22,2.83,17.45,17.45,0,0,1-1.56,2.49,11.25,11.25,0,0,1-1.91,2,7.76,7.76,0,0,1-1.74.92,15.19,15.19,0,0,1-2.73.84,11.09,11.09,0,0,1-2.88.25,3,3,0,0,1-2.19-.94,4.67,4.67,0,0,1-1-2,13.58,13.58,0,0,1-.39-2.9,19.27,19.27,0,0,1,.19-3.29,26.88,26.88,0,0,1,.64-3.19l-.46-.54a2.91,2.91,0,0,1-.42-2.46,12.52,12.52,0,0,1,1.2-3.47A20.17,20.17,0,0,1,125,90.48a14.27,14.27,0,0,1,2.77-2.71,5.87,5.87,0,0,1,2-.81,8.43,8.43,0,0,1,2.77-.18,9.25,9.25,0,0,1,2.85.76,5.53,5.53,0,0,1,2.32,1.93,6.57,6.57,0,0,1,1,3,18.62,18.62,0,0,1,0,4,11.13,11.13,0,0,0,2.41-3,18.36,18.36,0,0,0,1.44-3.47,26.9,26.9,0,0,0,.79-3.4Q143.66,84.91,143.94,83.71Zm-18,26.13a325.27,325.27,0,0,1-.26-.66,2.65,2.65,0,0,0-.1-.43,2.79,2.79,0,0,1-.1-.43,2.22,2.22,0,0,1-.14-.9,3.59,3.59,0,0,1,0-.41,3.84,3.84,0,0,0,0-.41.74.74,0,0,0-.05-.29.3.3,0,0,1,0-.24.47.47,0,0,1,0-.26,2,2,0,0,1,0,.26.8.8,0,0,0,0,.28,2.1,2.1,0,0,1,0,.31,3.81,3.81,0,0,0,0,.86,4.21,4.21,0,0,1,0,.46,4.48,4.48,0,0,0,0,.46,1.42,1.42,0,0,0,.13.42,1.37,1.37,0,0,1,.13.42.84.84,0,0,0,.15.36.54.54,0,0,1,.09.14.53.53,0,0,0,.09.15,1,1,0,0,0,.15.26l.15.17.12.14,0,0a.06.06,0,0,1,0-.06s0-.05,0-.09a.88.88,0,0,1-.12-.19Zm.41-.25-.14-.34a1.78,1.78,0,0,1-.1-.38,5,5,0,0,1-.14-.9v-.57a2,2,0,0,1-.06-.53q0-.28,0-.59t0-.59q.06-.63.13-1.26c0-.22.06-.43.1-.64s.08-.41.13-.61L126,103l-.07.2c0,.22-.07.43-.11.64a5.23,5.23,0,0,0-.08.66q-.07.63-.13,1.26c0,.24,0,.45,0,.64s0,.38,0,.57a1.61,1.61,0,0,0,0,.31l.05.25a.48.48,0,0,0,0,.27.47.47,0,0,1,0,.26q.05.25.12.46a2.62,2.62,0,0,1,.1.43,3.49,3.49,0,0,1,.11.4.69.69,0,0,1,.1.16.75.75,0,0,0,.1.16,2,2,0,0,0,.28.5.26.26,0,0,0,.11.17.56.56,0,0,1,.13.11l.07.08-.07-.08a.83.83,0,0,0-.2-.32.92.92,0,0,0-.09-.24A1.07,1.07,0,0,1,126.39,109.59Zm1.42,1a13.71,13.71,0,0,0,2.86-3.33,20.28,20.28,0,0,0,1.92-4.07,10.6,10.6,0,0,1-3.24.56,9,9,0,0,1-2.65-.38,14,14,0,0,0-.24,3.94A5.56,5.56,0,0,0,127.81,110.58Zm-.59-9.31a2.37,2.37,0,0,0,2.15,1,8.45,8.45,0,0,0,4-1.55,30.91,30.91,0,0,0,.64-3.6,20.48,20.48,0,0,0,.14-3.36,15.16,15.16,0,0,0-.38-2.83,5.82,5.82,0,0,0-.88-2.06c-.33-.46-.82-.47-1.45,0a9.36,9.36,0,0,0-2.68,3.05A16.89,16.89,0,0,0,127,96a4.25,4.25,0,0,1,1.48.25c.39.16.54.35.45.57s-.34.71-.69,1.53A25.32,25.32,0,0,0,127.21,101.27Zm5.54,2.48a1.48,1.48,0,0,0,.15-.35c0-.12.08-.24.12-.37,0,0-.05,0-.06,0s0,0-.06,0l-.27.72a3.64,3.64,0,0,0-.22.54,2.91,2.91,0,0,1-.19.48,3.67,3.67,0,0,1-.2.46,2.61,2.61,0,0,0-.15.33,2.87,2.87,0,0,1-.13.31,2.14,2.14,0,0,0-.1.25.39.39,0,0,1-.09.17l.35-.7a4.2,4.2,0,0,0,.19-.38c.06-.14.13-.29.21-.45s.15-.31.23-.48S132.67,104,132.75,103.76Zm-6-3.57a1.1,1.1,0,0,0,.06.22,1.38,1.38,0,0,1,.06.22q.08-.3.15-.55c.05-.17.11-.34.18-.52l.19-.5a3.7,3.7,0,0,0,.14-.46l.26-.67.26-.67a.84.84,0,0,1-.1.17,2.06,2.06,0,0,0-.14.22,2.34,2.34,0,0,0-.12.25q-.13.34-.32.74c-.13.27-.26.59-.39.94Zm-3.48-5.35c-.05.14-.11.26-.16.36s-.1.2-.13.29l-.08.2,0,0,.08-.2c0-.09.08-.19.13-.29l.18-.33.22-.38q.12-.21.3-.49l.24-.47a2.44,2.44,0,0,1,.32-.48c.12-.19.23-.36.32-.52a4.15,4.15,0,0,1,.29-.45,3.47,3.47,0,0,0,.33-.46,4.38,4.38,0,0,1,.28-.42c.21-.28.36-.48.43-.6l.16-.21,0,0-.21.25q-.13.14-.45.57l-.65.88c-.22.31-.44.63-.65,1s-.38.62-.54,1Zm0-.9c-.05.07-.07.11-.07.12s0,0,0,.08l0,.07c.05-.07.11-.17.18-.28a1.38,1.38,0,0,1,.17-.3,3.68,3.68,0,0,0,.25-.4,3.33,3.33,0,0,0,.34-.5q.13-.24.32-.52a1,1,0,0,1,.19-.28,1,1,0,0,0,.19-.28,1.47,1.47,0,0,1,.23-.29,1.39,1.39,0,0,0,.23-.29c.07-.12.22-.32.43-.6a6.38,6.38,0,0,0,.41-.53l.44-.48A5.34,5.34,0,0,0,127,89a3.39,3.39,0,0,1,.37-.36.84.84,0,0,1,.16-.16.84.84,0,0,0,.16-.16l.21-.15s0,0,0-.07l-.32.23-.31.23a3.25,3.25,0,0,0-.45.37,6.07,6.07,0,0,0-.48.44,1.75,1.75,0,0,1-.23.24,1.88,1.88,0,0,0-.23.24c-.18.19-.34.38-.49.57l-.47.6-.4.58a5.35,5.35,0,0,0-.38.61,6.83,6.83,0,0,0-.51,1A3.57,3.57,0,0,0,123.32,93.93Zm11.28,2.13c0-.13,0-.24,0-.35s0-.22,0-.35a6.31,6.31,0,0,0,.05-.65q0-.3,0-.62a2.2,2.2,0,0,1,0-.57,2.85,2.85,0,0,0,0-.54c-.11-.64-.19-1.18-.24-1.59a1.72,1.72,0,0,1-.06-.41.23.23,0,0,0,0-.16.23.23,0,0,1,0,.16,1.91,1.91,0,0,0,0,.21c0,.07,0,.15,0,.24s.06.42.09.71a7.81,7.81,0,0,1,0,.93c0,.17,0,.34,0,.52s0,.37,0,.58,0,.42,0,.62a6.46,6.46,0,0,1-.05.65,4.74,4.74,0,0,1,0,.67c0,.13,0,.24,0,.35a1.42,1.42,0,0,1,0,.32c0,.28-.09.53-.12.75a6.46,6.46,0,0,0-.07.71c-.06.26-.11.5-.16.74s-.1.48-.16.74a1.15,1.15,0,0,1-.08.39,1.13,1.13,0,0,0-.08.39l.19-.14.17-.68c.06-.26.11-.5.16-.74s.1-.48.16-.74l.12-.75a7,7,0,0,0,.07-.71c0-.13,0-.24,0-.33S134.6,96.19,134.61,96.06Zm.46-3.63a5.45,5.45,0,0,1-.11-.62,6,6,0,0,0-.11-.62c0-.21-.1-.4-.16-.59s-.12-.36-.19-.53a2.11,2.11,0,0,0-.2-.54,3.14,3.14,0,0,1-.2-.45l-.41-.57-.17-.24,0,.06a.2.2,0,0,1,0,.09.25.25,0,0,0,0,.12,1.87,1.87,0,0,1,.15.26c.05.11.11.24.16.38a3.07,3.07,0,0,0,.19.43,2.12,2.12,0,0,1,.19.53c0,.21.1.4.15.58s.1.37.15.58l.13.61q.06.3.13.61a4.58,4.58,0,0,1,.07.56c0,.19,0,.36,0,.5L135,94a1,1,0,0,1,0,.35.4.4,0,0,0,.06.18s0,.05,0,.1l0-.29a1.87,1.87,0,0,0,0-.37,3.64,3.64,0,0,0,0-.46c0-.15,0-.32,0-.52A2.77,2.77,0,0,0,135.07,92.43Z"/><path d="M180.8,69.68c.09-.21.38-.33.86-.35a6.31,6.31,0,0,1,1.52.15,6.1,6.1,0,0,1,1.4.48c.4.2.57.4.52.6-.41,1.12-1,2.44-1.74,4a41.26,41.26,0,0,1-2.58,4.53,28.26,28.26,0,0,1-3.28,4.13A12.13,12.13,0,0,1,173.58,86a5.17,5.17,0,0,1-1.78.38,9.43,9.43,0,0,1-2-.1,10.3,10.3,0,0,1-1.79-.44,1.7,1.7,0,0,1-1-.67,4.21,4.21,0,0,1-.26-2.28,22.81,22.81,0,0,1,.61-3.35q.47-1.85,1.06-3.9t1-3.92a53.63,53.63,0,0,0-5.12,8.38,54.45,54.45,0,0,0-2.68,6.55,43.44,43.44,0,0,0-1.2,4.3c-.22,1-.4,1.6-.57,1.69a3.69,3.69,0,0,1-1,.29,12.53,12.53,0,0,1-1.59.16,7.07,7.07,0,0,1-1.6-.11,1.38,1.38,0,0,1-1-.55,3.82,3.82,0,0,1,0-1.64c.11-.92.28-2.06.51-3.39s.5-2.8.79-4.37.58-3.11.85-4.61a67.32,67.32,0,0,0-4.8,9.4,64.17,64.17,0,0,0-2.23,6.4c-.47,1.67-.77,2.92-.94,3.76s-.38,1.33-.64,1.5a3,3,0,0,1-1.22.38,10.18,10.18,0,0,1-1.53.09,10.34,10.34,0,0,1-1.36-.1q-.6-.09-.71-.24a5.54,5.54,0,0,1-.06-1.05c0-.66,0-1.51,0-2.55s0-2.22.07-3.56.1-2.69.18-4.08.16-2.75.26-4.09.2-2.56.27-3.63.14-2,.19-2.66a3.84,3.84,0,0,0,0-1.17c-.16-.25,0-.48.42-.67a5.51,5.51,0,0,1,1.54-.4,9.22,9.22,0,0,1,1.73,0c.57,0,.91.16,1,.35a3.28,3.28,0,0,1,0,1.14c0,.65-.11,1.49-.21,2.51s-.21,2.14-.31,3.36-.2,2.45-.3,3.68q1.11-2.5,2.4-5.08c.86-1.72,1.72-3.3,2.54-4.75s1.58-2.7,2.25-3.75a18.15,18.15,0,0,1,1.47-2.08.5.5,0,0,1,.2-.18,3.05,3.05,0,0,1,1.21-.25,6.43,6.43,0,0,1,1.51.13,5.73,5.73,0,0,1,1.38.46,1.71,1.71,0,0,1,.81.7,1.94,1.94,0,0,1,.08.8,14,14,0,0,1-.14,1.47q-.12.87-.3,2t-.34,2.23q1.1-2,2.35-4.13t2.4-3.92c.76-1.2,1.46-2.23,2.08-3.07a12.76,12.76,0,0,1,1.34-1.63s.06,0,.05,0,0,0,.11-.07h.13a1,1,0,0,1,.25-.06,7.84,7.84,0,0,1,1.08,0,6.75,6.75,0,0,1,1.38.21,4.54,4.54,0,0,1,1.32.57,2.26,2.26,0,0,1,.89,1,3.32,3.32,0,0,1,0,1.73q-.23,1.22-.67,2.78t-.93,3.3q-.49,1.74-.87,3.3a25.72,25.72,0,0,0-.53,2.77,3.35,3.35,0,0,0,.09,1.71,8.2,8.2,0,0,0,2.58-1.9,19.89,19.89,0,0,0,2.42-3.14,42.06,42.06,0,0,0,2.18-3.9Q180,71.81,180.8,69.68ZM144.47,93.14c0-.12,0-.26.05-.41a2.54,2.54,0,0,0,0-.44c0-.15,0-.31,0-.48a2.91,2.91,0,0,1,.06-.52q0-.47,0-.94c0-.15,0-.29,0-.44a3.89,3.89,0,0,1,0-.41,1.08,1.08,0,0,0,0-.34.87.87,0,0,1,0-.25,1.2,1.2,0,0,1,0-.22,1.7,1.7,0,0,1-.06.25,2.78,2.78,0,0,0,0,.6,3.85,3.85,0,0,0-.1.85,3.21,3.21,0,0,1,0,.49,2.23,2.23,0,0,0,0,.52q0,.47,0,.94c0,.15,0,.29,0,.44a3.57,3.57,0,0,1,0,.41,2.61,2.61,0,0,0,0,.36.92.92,0,0,1,0,.23,1.12,1.12,0,0,1,0,.22,1.82,1.82,0,0,1,0-.25.47.47,0,0,0,0-.25C144.48,93.4,144.48,93.29,144.47,93.14Zm-.34-3.9c0,.34,0,.63,0,.89s0,.47,0,.64a4.93,4.93,0,0,0,0,.56,2.36,2.36,0,0,1,0-.6q0-.28,0-.66c0-.25,0-.54,0-.88s.05-.69.08-1.05.06-.76.08-1.18.07-.81.09-1.23.05-.84.08-1.26.06-.84.09-1.26,0-.83,0-1.23.05-.8.06-1.15,0-.69.07-1q0-.76,0-1.52a1.11,1.11,0,0,1,0-.22l0-.19a.22.22,0,0,0,0-.16,5.12,5.12,0,0,1,0,.57c0,.17,0,.39,0,.65s0,.56-.08.9-.07.69-.1,1-.06.74-.11,1.14,0,.81,0,1.23-.06.84-.09,1.26q-.12,1.32-.18,2.53T144.13,89.24Zm1.07,1.52c0-.21,0-.43,0-.66s0-.47.07-.72.06-.51.08-.77,0-.53.07-.8,0-.53,0-.78,0-.49,0-.72a3.3,3.3,0,0,0,0-.71,4.25,4.25,0,0,1,0-.64,4.75,4.75,0,0,1,0-.52,2.72,2.72,0,0,0,0-.39.22.22,0,0,0,0-.14.1.1,0,0,1,0-.11s0-.05,0-.09,0,.05,0,.09a.24.24,0,0,0,0,.13.93.93,0,0,1,0,.16l-.06.43-.08.52c0,.21,0,.43-.06.66s-.05.47-.09.72-.06.5-.07.75,0,.51,0,.78,0,.54,0,.8a6.32,6.32,0,0,1,0,.77,3.58,3.58,0,0,0,0,.69,5.75,5.75,0,0,1,0,.63,3.27,3.27,0,0,0,0,.52,3.23,3.23,0,0,1,0,.42.77.77,0,0,1,0,.28s0,.07,0,.09a2.06,2.06,0,0,1,.09-.41c0-.13,0-.26.06-.41Zm7.56-11.86a7.26,7.26,0,0,0,.47-.9,5.25,5.25,0,0,1,.36-.71l.31-.62-.38.61c-.13.21-.26.44-.39.71s-.31.57-.5.89L152.05,80l-.63,1.21-.67,1.3-.66,1.3q-.67,1.4-1.21,2.61-.32.65-.53,1.23a9.72,9.72,0,0,1-.47,1.08,10,10,0,0,0-.37.94,5.51,5.51,0,0,1-.29.72l-.06.23a1.2,1.2,0,0,1-.08.2L147,91c.07-.19.15-.4.24-.62s.22-.45.33-.72.26-.57.43-.91q.5-1,1.1-2.32l1.24-2.63q.64-1.33,1.29-2.62T152.77,78.89Zm3.81,3.68c.06-.39.1-.7.11-.93l.07-.37a.75.75,0,0,1-.07.37c0,.12-.06.27-.11.43s-.09.34-.13.52a7.53,7.53,0,0,0-.28,1.36,3.65,3.65,0,0,0-.15.77,3.9,3.9,0,0,1-.15.77c-.07.29-.12.56-.15.82s-.08.51-.12.76-.08.48-.11.71-.05.44-.07.65l-.07.93a1.09,1.09,0,0,0,0,.34l.06-.37a8.81,8.81,0,0,1,.14-.92q.12-.62.26-1.39t.25-1.55a3.44,3.44,0,0,0,.14-.79,3.31,3.31,0,0,1,.14-.79l.13-.7C156.52,83,156.55,82.79,156.57,82.58Zm4.63-8.28a.71.71,0,0,0,0,.3.48.48,0,0,1,0,.2.39.39,0,0,0,0,.19.38.38,0,0,0,0-.19,1.18,1.18,0,0,0,0-.22,1.63,1.63,0,0,1,.05-.31c0-.23.06-.48.11-.75a2.44,2.44,0,0,0,0-.79,1.64,1.64,0,0,0-.18-.77.42.42,0,0,1-.15-.15.26.26,0,0,0-.13-.12l-.31-.18a1.29,1.29,0,0,0-.53-.2.12.12,0,0,1-.11-.07s0,0-.08,0l0,0a.12.12,0,0,0,.11.07.34.34,0,0,1,.23.1.77.77,0,0,0,.26.16.47.47,0,0,1,.25.21.7.7,0,0,1,.21.27,2.21,2.21,0,0,1,.14.34,2.57,2.57,0,0,1,.08.37,1.55,1.55,0,0,0,0,.39,1.66,1.66,0,0,1,0,.39,1.83,1.83,0,0,0,0,.38A1.13,1.13,0,0,1,161.2,74.3Zm4-1.74a8.72,8.72,0,0,1,.48-.82q.26-.4.5-.78a8.46,8.46,0,0,1,.45-.76l.42-.66a4,4,0,0,0,.34-.55,2.87,2.87,0,0,1,.26-.43.72.72,0,0,0,.1-.16.33.33,0,0,1,.06-.1l.09-.12-.26.35-.32.45c-.12.19-.26.38-.4.57l-.47.64q-.25.35-.49.74a7.22,7.22,0,0,1-.49.8,6.55,6.55,0,0,0-.49.8l-.5.83c-.15.26-.32.52-.51.8a4.37,4.37,0,0,1-.37.74q-.21.34-.39.67l-.3.57a4.07,4.07,0,0,1-.24.42,2.41,2.41,0,0,0-.22.39l.24-.36.3-.44q.18-.27.36-.6l.41-.64c.14-.23.28-.48.42-.76s.31-.52.48-.79S165,72.83,165.18,72.56Zm2.08,10.17a.47.47,0,0,0,0-.26.47.47,0,0,1,0-.2.36.36,0,0,1,0-.18s0,0,0,.06a.06.06,0,0,1,0,.06.06.06,0,0,0,0,.06,1.72,1.72,0,0,0-.16.48l-.08.65a1.61,1.61,0,0,0,0,.39c0,.12,0,.24.05.36a2.49,2.49,0,0,0,.08.35,1.93,1.93,0,0,0,.13.33,1.06,1.06,0,0,0,.43.45,1.37,1.37,0,0,0,.21.16l.18.1.21,0s-.06,0-.07,0,0,0,0,0,0,0-.06-.05a1.86,1.86,0,0,1-.33-.26,1.31,1.31,0,0,1-.36-.51,3.15,3.15,0,0,1-.17-.67c0-.13,0-.24,0-.35s0-.22,0-.35A2.68,2.68,0,0,0,167.26,82.72Zm1-4.42c.05-.27.11-.54.18-.81l.23-.87a6.38,6.38,0,0,0,.21-.84,5.92,5.92,0,0,1,.22-.84l.2-.73a5.43,5.43,0,0,0,.15-.71q.06-.31.12-.55c0-.16.07-.32.1-.46a3.42,3.42,0,0,1,.09-.4.69.69,0,0,1-.09.4,2.41,2.41,0,0,1-.13.46l-.21.57L168.9,75c-.09.28-.18.56-.25.83l-.23.87a5.88,5.88,0,0,0-.21.84,4.28,4.28,0,0,1-.22.8q-.16.8-.3,1.47a4,4,0,0,0-.11.6,2.88,2.88,0,0,1-.06.41l-.09.36a.75.75,0,0,1,.09-.36c0-.12.07-.27.12-.44l.18-.59.18-.73A6.71,6.71,0,0,1,168.24,78.31Zm-.52-9.23c.16-.25.31-.51.46-.75a6.82,6.82,0,0,1,.43-.66,1.13,1.13,0,0,0,.14-.24,1.09,1.09,0,0,1,.14-.24L169,67l-.13.17a1.59,1.59,0,0,1-.21.23,1.53,1.53,0,0,0-.21.23q-.22.29-.47.66a8.93,8.93,0,0,0-.48.78c-.16.26-.31.51-.45.75a7.27,7.27,0,0,1-.42.66,4.18,4.18,0,0,0-.25.51c-.06.08-.08.13-.07.15l.46-.64.46-.66C167.41,69.62,167.57,69.36,167.72,69.08Z"/><path d="M210.87,61.47c.11-.1.33-.1.66,0a4.52,4.52,0,0,1,1,.42,6.62,6.62,0,0,1,1,.65,1.29,1.29,0,0,1,.51.65,2.69,2.69,0,0,1-.41,1.34,21.7,21.7,0,0,1-1.34,2.29q-.86,1.31-2,2.8a33,33,0,0,1-2.43,2.82,22.05,22.05,0,0,1-2.61,2.32,7.64,7.64,0,0,1-2.68,1.35,4.45,4.45,0,0,1-1.75,0,13.14,13.14,0,0,1-2-.45,8.37,8.37,0,0,1-1.7-.71,1.69,1.69,0,0,1-.84-.79l-.09-.28q-1,1.08-2,2.09t-2,1.85a20.86,20.86,0,0,1-1.89,1.47,7.17,7.17,0,0,1-1.74.91,7.56,7.56,0,0,1-2.88.35,15.14,15.14,0,0,1-3-.48,11,11,0,0,1-2.54-1,3,3,0,0,1-1.38-1.29,5.41,5.41,0,0,1-.13-3.34,15.86,15.86,0,0,1,1.7-4.2,30.55,30.55,0,0,1,3.09-4.45,36.57,36.57,0,0,1,4-4.1,32.35,32.35,0,0,1,4.27-3.2,14.46,14.46,0,0,1,3.84-1.77,6.5,6.5,0,0,1,3.53-.07,6.19,6.19,0,0,1,2.39,1.23,3.3,3.3,0,0,1,1.07,1.56c.14.52,0,.82-.35.91a1.22,1.22,0,0,1-1-.09q-.36-.23-.73-.54a2.87,2.87,0,0,0-1-.48,3.13,3.13,0,0,0-1.62.09,11.5,11.5,0,0,0-3.31,1.56A28.42,28.42,0,0,0,191,63.8a34.29,34.29,0,0,0-3.48,3.71,27.49,27.49,0,0,0-2.71,4,15.85,15.85,0,0,0-1.53,3.71,4.65,4.65,0,0,0,0,2.87c.25.62.79.77,1.64.47a8.25,8.25,0,0,0,2.42-1.44,22.5,22.5,0,0,0,2.46-2.36q1.2-1.33,2.41-2.85T194.46,69q1.06-1.39,1.87-2.55c.54-.77,1-1.38,1.32-1.82s.43-.61.59-.65a2.55,2.55,0,0,1,1,.14q.77.2,1.59.51a15.85,15.85,0,0,1,1.48.64q.66.33.71.51a2,2,0,0,1-.22.7c-.17.39-.36.86-.56,1.4s-.43,1.12-.68,1.72a16.37,16.37,0,0,0-.59,1.67,7.57,7.57,0,0,0-.27,1.23q0,.47.29.38a5.68,5.68,0,0,0,2.17-1.18,16.39,16.39,0,0,0,2.07-2.07,28.15,28.15,0,0,0,1.88-2.5q.89-1.33,1.65-2.5c.51-.78.94-1.46,1.3-2A5.9,5.9,0,0,1,210.87,61.47ZM180.31,72.6a6,6,0,0,1,.39-.91l.52-.95c.22-.34.43-.68.63-1s.42-.67.64-1,.46-.67.71-1l.78-1a25.47,25.47,0,0,1,1.69-2q.92-1,1.88-1.89l.91-.88q.46-.43.94-.8t1-.78l.92-.69A18,18,0,0,1,193,58.52a2.07,2.07,0,0,1,.37-.22,2,2,0,0,0,.37-.22,6.08,6.08,0,0,1,.7-.34l.59-.27a2.41,2.41,0,0,1,.43-.15.43.43,0,0,0,.15-.06l.09,0,.12,0-.37.1-.21.08-.21.08a1.2,1.2,0,0,1-.3.12,1.18,1.18,0,0,0-.3.12l-.35.17-.41.19a2,2,0,0,1-.37.22,2,2,0,0,0-.37.22q-.46.24-.91.52t-.89.6q-.93.65-1.91,1.45t-2,1.73q-1,.92-1.88,1.88a23.79,23.79,0,0,0-1.74,2q-.77,1-1.48,2.07-.34.51-.64,1t-.57,1a15.73,15.73,0,0,0-.9,1.89,4.57,4.57,0,0,0-.3.89,2.59,2.59,0,0,1-.12.42,2.81,2.81,0,0,0-.12.42,4.07,4.07,0,0,0-.12.74c0,.23,0,.45,0,.66a.69.69,0,0,0,0,.31.91.91,0,0,1,0,.25.69.69,0,0,0,0,.26.44.44,0,0,1,0,.23,1.12,1.12,0,0,0,.08.34l.11.26.1.24,0-.07a.28.28,0,0,1,0-.19l-.1-.24a.25.25,0,0,0,0-.17.43.43,0,0,1,0-.21.68.68,0,0,1,0-.47,2.36,2.36,0,0,1,0-.6,6.19,6.19,0,0,1,.22-1.38l.26-.8a1.78,1.78,0,0,1,.15-.43C180.17,72.9,180.24,72.75,180.31,72.6Zm14,2.54.42-.41.32-.34.27-.31-.29.27-.36.32-.45.42a6.16,6.16,0,0,1-.51.52l-.62.55-.64.58q-.31.29-.69.6a2.42,2.42,0,0,0-.36.31A2.52,2.52,0,0,1,191,78l-.31.26-.37.27-.37.26-.37.26a1.2,1.2,0,0,1-.33.21l-.34.17a215.2,215.2,0,0,0-.64.29l-.5.17-.2,0-.14,0-.11,0,.11,0,.18,0,.18,0,.25-.07a.6.6,0,0,0,.24-.1l.33-.11a2.1,2.1,0,0,0,.37-.16l.34-.17a1.23,1.23,0,0,0,.33-.21l.38-.22.37-.26.37-.27.37-.27a2.54,2.54,0,0,0,.36-.31,2.45,2.45,0,0,1,.36-.31,8,8,0,0,0,.69-.62c.2-.2.41-.4.63-.6l.59-.55Q194.06,75.39,194.29,75.13Zm-4.78.64a1,1,0,0,0-.19.18l0,.05,0-.05a1,1,0,0,1,.19-.18l.28-.27a4.41,4.41,0,0,1,.38-.34l.4-.4.43-.48c.16-.15.31-.32.46-.49l.45-.52.43-.52c.13-.17.26-.33.37-.5a5.14,5.14,0,0,0,.38-.48,4.27,4.27,0,0,1,.34-.43q.13-.19.23-.37a1.52,1.52,0,0,1,.19-.29,1.46,1.46,0,0,1,.18-.24l-.23.26-.23.26a3.25,3.25,0,0,0-.27.35,4.51,4.51,0,0,0-.33.43,5.3,5.3,0,0,1-.38.48l-.43.51-.43.52-.86,1-.4.47a4.37,4.37,0,0,1-.37.39,5,5,0,0,0-.37.39Zm2.81-16.19.39-.26a2.31,2.31,0,0,0,.26-.23l.28-.19s0,0-.05.05l-.12.05-.12.05a1.29,1.29,0,0,1-.3.22l-.48.27-.47.31a5.16,5.16,0,0,0-.51.4l-.57.4a5.29,5.29,0,0,0-.56.43l-.49.43-.49.44-.46.43-.35.36-.32.35-.22.24-.19.21a.63.63,0,0,1,.19-.21l.62-.54.88-.77,1-.89a6.42,6.42,0,0,1,.53-.42c.18-.13.36-.27.53-.42l.49-.37A3.19,3.19,0,0,1,192.31,59.59Z"/><path d="M262.72,56.17a1.2,1.2,0,0,1,.93-.4,4.4,4.4,0,0,1,1.5.11,3,3,0,0,1,1.28.62.83.83,0,0,1,.21,1.08,6.64,6.64,0,0,1-1.72,2.16,28.71,28.71,0,0,1-3.28,2.55,50.75,50.75,0,0,1-4.36,2.63,53.22,53.22,0,0,1-5.07,2.41,44.87,44.87,0,0,1-5.4,1.84,26.83,26.83,0,0,1-5.48.91,9.37,9.37,0,0,1-3.11-.44,14.92,14.92,0,0,1-3.41-1.47,12.46,12.46,0,0,1-2.88-2.28A5.1,5.1,0,0,1,230.51,63a8.87,8.87,0,0,1,.66-4.08A24.36,24.36,0,0,1,233.74,54a36.45,36.45,0,0,1,4.07-5.06A35.64,35.64,0,0,1,243,44.48a29.07,29.07,0,0,1,5.63-3.15A14,14,0,0,1,254,40.14a6.39,6.39,0,0,1,2.43.53,11.67,11.67,0,0,1,2.33,1.28,7.82,7.82,0,0,1,1.72,1.65,2.63,2.63,0,0,1,.64,1.59,6.65,6.65,0,0,1-.67,2.4A25.22,25.22,0,0,1,259,50.28a18.14,18.14,0,0,1-1.53,2.18c-.5.6-.85.9-1.07.9a3.24,3.24,0,0,1-1-.28q-.7-.28-1.43-.63a12.74,12.74,0,0,1-1.31-.71c-.39-.24-.58-.44-.58-.58a2.46,2.46,0,0,1,.44-.79l1.06-1.54q.62-.9,1.24-1.88a11.48,11.48,0,0,0,1-1.82,2.18,2.18,0,0,0,.18-1.39c-.11-.37-.47-.55-1.09-.56a7.66,7.66,0,0,0-3.42,1.1,31.39,31.39,0,0,0-4.42,2.94,42.41,42.41,0,0,0-4.56,4.15A45.73,45.73,0,0,0,238.58,56a25.24,25.24,0,0,0-2.65,4.47,7.22,7.22,0,0,0-.8,3.5q.07.73.16,1.36a1.9,1.9,0,0,0,.49,1.06,2.47,2.47,0,0,0,1.25.63,8.25,8.25,0,0,0,2.39.1,29.73,29.73,0,0,0,5.51-.88A41.2,41.2,0,0,0,250,64.63a45.93,45.93,0,0,0,4.57-2.13,39.25,39.25,0,0,0,3.82-2.31A25,25,0,0,0,261.18,58,8.06,8.06,0,0,0,262.72,56.17ZM232.39,59.5a2.35,2.35,0,0,0,.17-.42,4,4,0,0,1,.17-.46l.2-.46c.07-.15.13-.32.2-.5.31-.59.67-1.22,1.07-1.9.11-.18.22-.35.33-.51s.22-.32.33-.51l.34-.47q.17-.23.34-.5.74-1,1.53-1.9t1.63-1.82l.82-.86.76-.82.8-.78.75-.7,1.35-1.2q.6-.54,1.11-.93l.77-.58a2,2,0,0,0,.26-.23l-.33.19a3.23,3.23,0,0,0-.32.23l-.45.35-1.18.91q-.67.53-1.42,1.19-.38.31-.78.68l-.83.76-.86.8-.85.84a30,30,0,0,0-3.16,3.76,15.22,15.22,0,0,0-1.34,2l-.53,1-.53.95c-.07.18-.13.34-.2.5l-.2.46-.27.91-.14.46a.27.27,0,0,0,0,.19.46.46,0,0,1,0,.22.41.41,0,0,0,0,.21.42.42,0,0,1,0,.21.41.41,0,0,0,0,.21.43.43,0,0,1,0,.21.67.67,0,0,1,0,.19.69.69,0,0,0,0,.19.8.8,0,0,1,0,.37,1.58,1.58,0,0,1,0,.33.64.64,0,0,0,.07.32l.07.58a1.15,1.15,0,0,0,.06.27,1.1,1.1,0,0,1,.06.23c0,.1,0,.16.08.18l0,.22a1.13,1.13,0,0,1,.15.24.16.16,0,0,0,0,.11.12.12,0,0,1,0,.07v0a.12.12,0,0,0,0-.07.16.16,0,0,1,0-.11.78.78,0,0,0-.09-.29l0-.36a1.69,1.69,0,0,1-.12-.5l-.07-.58a1.61,1.61,0,0,1,0-.31,2.44,2.44,0,0,1,.05-.36.49.49,0,0,1,0-.17.65.65,0,0,0,0-.2.25.25,0,0,0,0-.17.42.42,0,0,1,0-.21.67.67,0,0,1,0-.18.71.71,0,0,0,0-.19,1.28,1.28,0,0,0,.07-.21,1.16,1.16,0,0,1,.07-.21.42.42,0,0,0,0-.21.41.41,0,0,1,0-.21Zm1.17-.7c.1-.25.21-.52.33-.78a6.23,6.23,0,0,1,.45-.83c.14-.28.28-.55.43-.81l.43-.77a7.42,7.42,0,0,0,.47-.74,6.37,6.37,0,0,1,.42-.66l.68-.93.29-.39q-.12.16-.29.35a2.35,2.35,0,0,1-.35.43,4.65,4.65,0,0,0-.46.55l-.45.64-.5.72-.43.77c-.14.26-.31.53-.49.81-.28.56-.52,1.1-.71,1.61a1.49,1.49,0,0,0-.15.38l-.09.38a.93.93,0,0,0-.12.34,3.4,3.4,0,0,1-.06.34c-.06.23-.1.41-.13.56a1.37,1.37,0,0,0,0,.44.74.74,0,0,0,0,.3v0a.74.74,0,0,1,0-.3.28.28,0,0,0,0-.19.44.44,0,0,1,0-.22l.09-.29.09-.28c0-.12.06-.24.09-.34s.06-.21.09-.34a1.52,1.52,0,0,0,.15-.38A1.49,1.49,0,0,1,233.56,58.8Z"/><path d="M276.33,58.32q.21-.16.75,0a3.69,3.69,0,0,1,1.09.53,4.13,4.13,0,0,1,1,.94,1.54,1.54,0,0,1,.35,1.15,3,3,0,0,1-.81,1.23,18.82,18.82,0,0,1-2,1.86q-1.25,1-2.87,2.1a27,27,0,0,1-3.44,1.94,24,24,0,0,1-3.74,1.4,11.87,11.87,0,0,1-3.77.46,7.08,7.08,0,0,1-1.65-.36,13.79,13.79,0,0,1-2.14-.87,10.73,10.73,0,0,1-1.88-1.19,1.78,1.78,0,0,1-.81-1.38,6,6,0,0,1,.7-2.26,26.28,26.28,0,0,1,1.8-3.15Q260,59,261.3,57.25t2.5-3.16q1.18-1.41,2.08-2.33c.59-.62.94-1,1-1a1.27,1.27,0,0,1,1.12.07,5.7,5.7,0,0,1,1.39.84,7,7,0,0,1,1.13,1.15,1.58,1.58,0,0,1,.42,1,5.52,5.52,0,0,1-.83,1.13q-.81,1-2,2.36t-2.43,3q-1.27,1.58-2.24,2.93A21.79,21.79,0,0,0,262,65.41c-.33.6-.35.9-.07.91a10.46,10.46,0,0,0,4.4-.75,20.86,20.86,0,0,0,3.93-2.1,31.21,31.21,0,0,0,3.41-2.67C274.74,59.86,275.62,59,276.33,58.32Zm-18.79,6.19a5.42,5.42,0,0,1,.37-.61l.44-.69.57-.9a4.34,4.34,0,0,1,.32-.52,3.38,3.38,0,0,0,.32-.56l.39-.57a5.18,5.18,0,0,1,.45-.57c.26-.41.54-.82.85-1.25s.63-.86,1-1.28l.93-1.28q.47-.64.94-1.24a5.32,5.32,0,0,0,.37-.42l.17-.25.14-.23a2.63,2.63,0,0,1,.27-.37c.27-.33.5-.62.69-.88l.49-.67a1.72,1.72,0,0,0,.21-.25,26.32,26.32,0,0,1,.28-.35h-.06l-.55.56a8.52,8.52,0,0,0-.58.67c-.21.26-.45.54-.72.84l-1.45,1.71q-.64.76-1.56,2T260,60q-.81,1.26-1.38,2.31l-.48.92c-.15.28-.26.51-.35.71a.6.6,0,0,0-.13.29.28.28,0,0,1-.06.18A.42.42,0,0,0,257.54,64.51Zm2.94-3.4.23-.43a3.35,3.35,0,0,1,.23-.36,1,1,0,0,0,.2-.32,1.13,1.13,0,0,1-.2.29l-.29.34a2.73,2.73,0,0,0-.29.45q-.38.5-.77,1.08l-.76,1.3-.38.65a4.83,4.83,0,0,0-.32.65l-.25.58a3.32,3.32,0,0,0-.19.58,1.11,1.11,0,0,0-.13.45c0,.13,0,.26,0,.38a.24.24,0,0,0,.11.22s0,0,.06.07-.06,0-.06-.07-.06-.1-.05-.22a2.67,2.67,0,0,1,.2-.84c.08-.17.17-.35.25-.54l.25-.58.76-1.3a4.75,4.75,0,0,1,.32-.65q.19-.32.38-.61t.38-.59A4.26,4.26,0,0,0,260.48,61.11ZM272.7,49.6a1.84,1.84,0,0,1-.79-.32,8.83,8.83,0,0,1-.92-.68,4.88,4.88,0,0,1-.76-.77,2,2,0,0,1-.35-.57,3,3,0,0,1,.54-1,13.09,13.09,0,0,1,1.29-1.56,13.5,13.5,0,0,1,1.6-1.43,2.16,2.16,0,0,1,1.3-.59,2.89,2.89,0,0,1,1.26.52,10.2,10.2,0,0,1,1.33,1,13.6,13.6,0,0,1,1.05,1.06c.29.34.43.56.42.65s-.29.34-.82.72-1.15.8-1.86,1.23-1.38.83-2,1.17A3.17,3.17,0,0,1,272.7,49.6Zm-1.82,15.68.41-.22.48-.29a4,4,0,0,0,.45-.33,4,4,0,0,1,.46-.33,4,4,0,0,0,.46-.33l.4-.33.4-.33.34-.3a2.93,2.93,0,0,0,.24-.27.67.67,0,0,1,.24-.2,1.21,1.21,0,0,1,.14-.17l-.2.16a1.22,1.22,0,0,0-.26.18l-.27.25a8.81,8.81,0,0,0-.79.59l-.4.33a4,4,0,0,1-.46.33,4,4,0,0,0-.46.33,4.3,4.3,0,0,1-.45.33,2.77,2.77,0,0,1-.42.3l-.41.26-.58.4a.64.64,0,0,1-.25.13l.25-.13A2.45,2.45,0,0,0,270.88,65.28Zm5.23-3.49.25-.31a1.14,1.14,0,0,1,.24-.23l.21-.2-.21.2-.3.21a1.46,1.46,0,0,0-.31.28,2.38,2.38,0,0,1-.38.35,4.58,4.58,0,0,0-.44.38c-.14.13-.29.27-.44.4l-.5.43-1,.79a3.61,3.61,0,0,1-.43.36l-.43.33-.36.28-.29.18a.74.74,0,0,1-.19.13l-.06,0,.06,0,.09,0a.47.47,0,0,0,.16-.06,2,2,0,0,1,.32-.19,2,2,0,0,0,.39-.26l.43-.33.49-.32,1-.79.5-.43c.16-.13.3-.26.44-.4l.41-.4C275.9,62,276,61.91,276.11,61.8Z"/><path d="M296.35,61.44a1,1,0,0,1,1,0,4.54,4.54,0,0,1,1.23.89,4.73,4.73,0,0,1,.87,1.16c.2.39.2.66,0,.79-1.07.77-2.3,1.62-3.69,2.57a35,35,0,0,1-4.47,2.56,26.18,26.18,0,0,1-5,1.81,14.27,14.27,0,0,1-5.43.28,12.11,12.11,0,0,1-2.38-.63,11.42,11.42,0,0,1-2.71-1.41,8.29,8.29,0,0,1-2.19-2.23,4.59,4.59,0,0,1-.7-3.1,6.56,6.56,0,0,1,1-2.28,40.28,40.28,0,0,1,2.4-3.5q1.48-1.95,3.32-4.09t3.72-4.12c-.87-.06-1.71-.14-2.53-.24l-2.33-.26a4.53,4.53,0,0,1-2.4-.78,2.28,2.28,0,0,1-.85-1.24,1.61,1.61,0,0,1,.15-1.14c.19-.34.42-.49.68-.47l1.87.19,2.83.29,3.06.34,2.5.28c2-2,3.62-3.56,4.78-4.66a9.59,9.59,0,0,0,1.8-1.94c.07-.41.4-.55,1-.41a5.9,5.9,0,0,1,1.83.82,9.49,9.49,0,0,1,1.7,1.39c.5.51.7,1,.63,1.31a5.75,5.75,0,0,1-1.21,1.16c-.78.65-2,1.7-3.56,3.17q3.15.43,5.72.91c1.71.31,3,.57,3.73.73a7.68,7.68,0,0,1,2,.64,2.28,2.28,0,0,1,.87.74,1.16,1.16,0,0,1,.16.83c-.05.29-.11.58-.19.86s-.33.45-.75.43a9.31,9.31,0,0,1-1.52-.23q-3.06-.67-6.38-1.16t-6.64-.83q-2.09,2-4.32,4.44T282,60a39.13,39.13,0,0,0-3,4.35,9.54,9.54,0,0,0-1.35,3.35q-.11.87.65,1a12.6,12.6,0,0,0,4.91-.42,30.49,30.49,0,0,0,4.92-1.84,43.25,43.25,0,0,0,4.56-2.5C294.11,63,295.34,62.18,296.35,61.44Zm-21.29,6.84a1.36,1.36,0,0,0,.32.33l.16.13a.43.43,0,0,1-.1-.12l-.13-.18-.18-.22a.68.68,0,0,1-.18-.22,1.41,1.41,0,0,0-.18-.26l-.21-.3a2.37,2.37,0,0,1-.2-.33l-.18-.29-.18-.29a2,2,0,0,1-.3-.54l-.1-.21a.32.32,0,0,1,0-.17.12.12,0,0,1,0-.11v0l0,.15a.56.56,0,0,0,0,.17l.07.25a1,1,0,0,1,.06.25.7.7,0,0,0,.12.29,2.49,2.49,0,0,1,.18.31,2.9,2.9,0,0,0,.18.31c.14.21.28.41.44.61A3,3,0,0,0,275.06,68.28Zm2.87-11.19-.82,1.09a8.89,8.89,0,0,0-.6.86l-.46.73a.39.39,0,0,0,.14-.17,1.62,1.62,0,0,0,.18-.22l.26-.32q.29-.34.66-.81t.88-1l1.25-1.39L281,54.09q.8-.9,1.64-1.79l1.55-1.65.16-.2.16-.2a2.35,2.35,0,0,1-.52,0,.56.56,0,0,0-.12.13.68.68,0,0,1-.12.13q-.39.39-.85.92t-1,1.07c-.35.36-.68.71-1,1.06s-.56.64-.76.89q-.61.74-1.14,1.42T277.92,57.09Zm.11,1.15a.81.81,0,0,0,.22-.22,2.59,2.59,0,0,1,.22-.29l.66-.7.34-.39a4.52,4.52,0,0,1,.4-.41c.1-.14.22-.28.34-.42l.34-.38.31-.39.3-.35.55-.71-.73.65-.3.35-.3.35a2.91,2.91,0,0,1-.37.4,2.29,2.29,0,0,0-.38.44l-.67.81-.3.37-.29.34a1.94,1.94,0,0,0-.23.31,2.57,2.57,0,0,1-.16.24,1,1,0,0,1-.15.2ZM288.13,46a4.58,4.58,0,0,1-.36.35,1.43,1.43,0,0,0-.2.19l-.2.23-.44.42.46.07.37-.43a1.3,1.3,0,0,0,.17-.22,1.07,1.07,0,0,1,.13-.18l.32-.32q.56-.54,1-1a6.18,6.18,0,0,1,.82-.78,2.8,2.8,0,0,0,.25-.28l.17-.21a.91.91,0,0,1,.17-.2,1.27,1.27,0,0,0-.17.16.69.69,0,0,0-.27.18l-.29.29c-.27.23-.55.49-.85.78S288.55,45.64,288.13,46Z"/><path d="M328.37,70.46a1.3,1.3,0,0,1,1.14.17,4.7,4.7,0,0,1,1.28,1,2.81,2.81,0,0,1,.72,1.23.82.82,0,0,1-.46,1,58.35,58.35,0,0,1-6.71,2.87q-3.87,1.42-7.94,2.94t-8,3.17a72,72,0,0,0-7,3.36,29.3,29.3,0,0,0-5,3.38,5.26,5.26,0,0,0-2.07,3.18c-.06.39-.32.48-.77.28a6.48,6.48,0,0,1-1.46-1,16.79,16.79,0,0,1-1.46-1.37c-.45-.48-.66-.81-.61-1a4.26,4.26,0,0,1,.67-1.42,30.88,30.88,0,0,1,1.8-2.56q1.15-1.5,2.72-3.38t3.47-3.91q1.9-2,4-4.1t4.4-4l-4.24,1.4-3.67,1.22c-1.1.35-2,.63-2.76.82a4.24,4.24,0,0,1-1.46.22,6.24,6.24,0,0,1-1.83-.74,17.39,17.39,0,0,1-1.89-1.25,8.63,8.63,0,0,1-1.49-1.4,1.92,1.92,0,0,1-.56-1.16A4.82,4.82,0,0,1,290.41,67a24.67,24.67,0,0,1,2.84-3,48.92,48.92,0,0,1,3.85-3.18q2.11-1.58,4.07-2.79a29.62,29.62,0,0,1,3.5-1.89,4.17,4.17,0,0,1,2-.56,2.72,2.72,0,0,1,1.17.62,6.41,6.41,0,0,1,.95,1,7.7,7.7,0,0,1,.67,1.06,1.16,1.16,0,0,1,.2.71,4.2,4.2,0,0,1-1.11.78l-2.67,1.61c-1.06.65-2.2,1.37-3.4,2.16s-2.31,1.59-3.34,2.38a26.63,26.63,0,0,0-2.58,2.23,3,3,0,0,0-1.06,1.68,5.17,5.17,0,0,0,1.54-.45c.87-.33,2-.77,3.31-1.31s2.85-1.14,4.55-1.78,3.42-1.28,5.18-1.9,3.46-1.19,5.11-1.71,3.11-.94,4.39-1.26a14.31,14.31,0,0,1,2.41-1,2.84,2.84,0,0,1,1.58-.11,4.79,4.79,0,0,1,1.31.74,10.11,10.11,0,0,1,1.36,1.22,5.71,5.71,0,0,1,.9,1.23c.2.38.18.63-.05.76a18.46,18.46,0,0,0-3.1,1.12,45,45,0,0,0-4.08,2.09q-2.18,1.25-4.53,2.81t-4.47,3.25q-2.12,1.69-3.91,3.41a29.21,29.21,0,0,0-2.92,3.22c1.44-.61,3-1.23,4.83-1.83s3.69-1.28,5.73-2,4.2-1.59,6.5-2.52S325.85,71.73,328.37,70.46Zm-34.37-6c.05,0,.08-.07.08-.1s0,0,.08-.06,0,0,.08-.06,0,0-.08.06a1,1,0,0,0-.22.15l-.33.22a2.06,2.06,0,0,0-.35.33l-.39.36-.46.42c-.16.17-.31.34-.44.5l-.44.5-.18.27-.18.27-.17.25-.17.25a2.23,2.23,0,0,0-.26.51,3.07,3.07,0,0,1-.18.45l-.14.72.07.24v0a.18.18,0,0,0,0-.1.28.28,0,0,1,0-.13l.06-.29a.88.88,0,0,1,.19-.37l.21-.45a3.7,3.7,0,0,1,.28-.51l.28-.51a.67.67,0,0,0,.21-.26.72.72,0,0,1,.21-.26,3.41,3.41,0,0,1,.41-.5,4.38,4.38,0,0,0,.4-.47l.44-.46.36-.4.32-.31A1.68,1.68,0,0,1,294,64.45Zm1.52-.38.68-.54.77-.63c.26-.22.54-.44.85-.65s.59-.43.85-.65l.92-.63.92-.63q.4-.33.79-.6t.77-.49l1.17-.75a1.66,1.66,0,0,0,.46-.27l-.14,0-.15.1-.22.08-.57.31-.71.39a16.26,16.26,0,0,0-1.74,1l-.91.59c-.15.09-.3.2-.46.32s-.31.22-.46.32q-.46.32-.88.66l-.82.68a2.1,2.1,0,0,0-.39.32l-.33.33-.32.29-.32.29a5.83,5.83,0,0,0-.52.52c-.14.16-.26.29-.37.4l-.12.14a.26.26,0,0,0-.06.12c-.05,0-.08.07-.08.1l.38-.3.39-.37A6.26,6.26,0,0,1,295.51,64.08Zm0-1.16a2.92,2.92,0,0,0-.25.27.89.89,0,0,1-.16.17l-.16.16.22-.14a.5.5,0,0,0,.22-.14l.24-.25.34-.25a2.91,2.91,0,0,0,.35-.29,3.61,3.61,0,0,1,.39-.32,2.34,2.34,0,0,0,.4-.35l.78-.65.7-.55a7.53,7.53,0,0,1,.64-.54l-.23.14a.75.75,0,0,0-.26.15l-.28.22a3.43,3.43,0,0,1-.37.24,1.85,1.85,0,0,0-.38.28,3.41,3.41,0,0,1-.39.31,3.43,3.43,0,0,0-.39.31,3.69,3.69,0,0,0-.42.31l-.36.32-.32.31A3.46,3.46,0,0,1,295.52,62.92ZM296.3,85a4.18,4.18,0,0,1,.55-.82,1.73,1.73,0,0,0,.25-.32,1.71,1.71,0,0,1-.25.32l-.34.32a2.27,2.27,0,0,0-.36.43,5.45,5.45,0,0,1-.41.53c-.16.18-.32.37-.48.59l-.49.62c-.16.2-.33.42-.49.66l-.47.69c-.14.22-.3.44-.46.65s-.24.44-.34.64a6.48,6.48,0,0,1-.33.57,3.54,3.54,0,0,0-.38.89.29.29,0,0,0,0,.13.28.28,0,0,1,0,.13l.09.09-.09-.09.06-.25a2,2,0,0,1,.15-.4,4.19,4.19,0,0,1,.28-.48,8.39,8.39,0,0,1,.77-1.15,5.87,5.87,0,0,1,.43-.66l.5-.68c.17-.24.34-.46.5-.66a5.36,5.36,0,0,0,.44-.64q.25-.32.48-.59A5.6,5.6,0,0,0,296.3,85Zm7-15.19.87-.34q.45-.17.81-.35c.28-.11.54-.22.78-.33a4.94,4.94,0,0,1,.71-.28l.61-.24a2.33,2.33,0,0,0,.41-.22,2.11,2.11,0,0,0,.38-.21,2.55,2.55,0,0,1-.42.16,3.09,3.09,0,0,0-.46.18,4,4,0,0,1-.6.23l-1.48.59-1.74.69-.93.34-.86.33-.81.3-.74.25-.6.22a3.47,3.47,0,0,1-.53.16l-.4.14a.23.23,0,0,0,.13,0l.13,0,.2-.07.52-.11c.21-.05.43-.12.66-.19l1.61-.53.86-.33Zm.63,4.43.76-.74.68-.68,1.32-1.37-.41.35-.44.44c-.17.17-.37.35-.59.55l-.7.64-.78.73c-.28.26-.54.52-.79.79l-.8.83-.79.83-.79.83a10.14,10.14,0,0,0-.7.76,8.84,8.84,0,0,1-.62.67q-.32.34-.54.61l-.38.46a1.74,1.74,0,0,0-.33.38.23.23,0,0,1,.08-.09l.12-.12a.58.58,0,0,1,.18-.15q.33-.38,1-1c.42-.41.88-.87,1.38-1.41s1-1.09,1.58-1.66l.8-.82C303.37,74.78,303.63,74.52,303.91,74.26Zm1.51-5c.19-.08.4-.15.63-.22l.76-.24,1-.3,1.14-.34q.59-.18,1.24-.43v0a3.32,3.32,0,0,1,.41-.29,2.35,2.35,0,0,0,.42-.32l-1.08.39-1.22.47-1.07.4-.89.38-.68.28a1,1,0,0,1-.28.1.51.51,0,0,0-.21.08Q305.42,69.26,305.42,69.3Zm13.08,6.07.38-.18a.48.48,0,0,1,.15-.07l0-.05a.49.49,0,0,0-.15.07,1.5,1.5,0,0,1-.44.17,4.27,4.27,0,0,1-.62.24c-.26.08-.54.18-.83.29l-2.2.75-2.52.87-2.47.85q-1.22.41-2.17.76t-1.45.63a1.39,1.39,0,0,0-.41.19s-.07,0-.08.06,0,0-.06,0h.05a.48.48,0,0,0,.14-.08,1.64,1.64,0,0,1,.4-.16l.3-.11.37-.13.42-.11a3.38,3.38,0,0,0,.5-.17q.47-.17,1-.32c.37-.1.76-.22,1.17-.35l1.23-.41,1.3-.42,1.26-.45c.42-.14.82-.29,1.21-.45a4,4,0,0,0,.6-.2l.54-.21a4.55,4.55,0,0,1,.48-.21,4.35,4.35,0,0,0,.48-.21l.81-.34Z"/><path d="M378.25,77.59l-2.3-1.5a6.74,6.74,0,0,0,.6.43l.69.47,1,.66c.32.24.68.49,1.06.76s.78.54,1.17.84.88.61,1.31.93l1.31.94q.71.5,1.35,1l1.24.92,2.26,1.68.48.36a4.49,4.49,0,0,1-.68.48,3.93,3.93,0,0,1-.84.37,3.87,3.87,0,0,1-.84.16.91.91,0,0,1-.61-.13L384.17,85q-1-.78-2.68-2c-1.1-.81-2.37-1.71-3.8-2.71s-3-2-4.61-3c-.68.21-1.63.55-2.85,1s-2.59,1-4.1,1.65S363,81.24,361.3,82s-3.39,1.54-5,2.34-3.23,1.58-4.72,2.35-2.8,1.45-3.93,2.06-2,1.1-2.71,1.47a11.26,11.26,0,0,1-1.08.57c-.14,0-.4-.2-.77-.64a17.06,17.06,0,0,1-1.09-1.41q-.53-.75-.92-1.37c-.27-.42-.34-.62-.21-.61a7.78,7.78,0,0,0,1.46-.76c.89-.51,2.05-1.18,3.49-2s3.07-1.72,4.89-2.7,3.7-2,5.65-2.91,3.86-1.85,5.76-2.68,3.59-1.52,5.09-2.08q-2.05-1.2-4.08-2.26t-3.93-2l-2.33-1a16,16,0,0,1-1.7-.8,2.7,2.7,0,0,1-.93-.77.84.84,0,0,1,0-.92,3,3,0,0,0,.34-.92c0-.27.08-.5.1-.69a.85.85,0,0,1,.15-.42c.07-.09.25-.12.54-.09.09,0,.61.24,1.54.68s2.13,1,3.58,1.77,3.11,1.63,5,2.67,3.74,2.13,5.66,3.29a1.72,1.72,0,0,0,.41-.14c.17,0,.45.29.85.91q3.15,1.93,6.14,3.93c2,1.33,3.75,2.56,5.28,3.66s2.75,2,3.68,2.72,1.42,1.1,1.47,1.18-.08.35-.41.62l-.26-.22-.26-.22-1-.8q-.55-.44-1.2-.91T384.5,82q-.65-.47-1.34-1l-1.32-.92q-.66-.46-1.3-.94Zm-28,5.94q.49-.25.91-.49l.38-.18-.36.14-.43.19-.53.26a8.42,8.42,0,0,0-1.39.61l-.75.36-.82.37-.76.38-.76.38c-.25.12-.47.25-.67.37l-.58.33a5,5,0,0,1-.52.28,4.21,4.21,0,0,0-.41.21l-.32.22a.8.8,0,0,1,.35-.16l.4-.19.58-.27.61-.32.7-.35a5.32,5.32,0,0,0,.77-.35,7.06,7.06,0,0,1,.79-.38l.76-.38.76-.38.68-.35Zm7.12-3.91a6.68,6.68,0,0,0,.82-.39,6.45,6.45,0,0,1,.64-.32l.58-.23a2.61,2.61,0,0,1-.58.23q-.66.23-1.55.62l-1,.42-1.12.49-1.21.53q-.62.26-1.22.57c-.43.16-.83.34-1.22.53l-1.16.56-1.07.55c-.33.18-.65.34-1,.48l-.83.38a3.27,3.27,0,0,0-.6.34,1.54,1.54,0,0,0-.52.32,2.54,2.54,0,0,1,.55-.26l.64-.3.84-.4,1-.45,1.09-.52,1.2-.56,1.2-.56q.64-.25,1.24-.54l1.19-.56,1.09-.5Z"/><path d="M392.85,109.26c.16,0,.38.22.66.62a5.9,5.9,0,0,1,.7,1.39,3.2,3.2,0,0,1,.2,1.44.85.85,0,0,1-.81.77,23.63,23.63,0,0,1-2.53.07c-1,0-2.18-.07-3.42-.14s-2.51-.18-3.83-.31-2.58-.31-3.79-.55a26.37,26.37,0,0,1-3.34-.87,7.9,7.9,0,0,1-2.43-1.24,6.1,6.1,0,0,1-1.09-1.15,5.57,5.57,0,0,1-.78-1.45,4.06,4.06,0,0,1-.23-1.58,2.61,2.61,0,0,1,.6-1.51,3.75,3.75,0,0,1,1.42-.93,21.61,21.61,0,0,1,2.49-.88q1.43-.42,3-.82l3-.75q1.43-.35,2.47-.7a3.23,3.23,0,0,0,1.38-.74,90.06,90.06,0,0,0-13-.9c-3.86,0-7,.17-9.53.3,0,0-.15,0-.35,0-1.37.1-2.48.15-3.35.15a3.74,3.74,0,0,1-1.69-.25,4,4,0,0,1-.93-.8,3.84,3.84,0,0,1-.6-.94,5.38,5.38,0,0,1-.31-.91,1.18,1.18,0,0,1,0-.71l.1-.16A8.11,8.11,0,0,1,359,93.77a38.8,38.8,0,0,1,4.06-2.37c1.6-.82,3.37-1.66,5.33-2.51s3.95-1.65,6-2.4,4-1.42,6-2,3.71-1.12,5.26-1.56l3.75-1a11.55,11.55,0,0,0,1.48-.44c.21-.27.51-.2.88.22a7.89,7.89,0,0,1,1.06,1.63,9.87,9.87,0,0,1,.76,2c.17.65.17,1.08,0,1.27a6.82,6.82,0,0,1-1.41.38c-.89.2-2,.46-3.43.81s-3,.75-4.77,1.23-3.6,1-5.43,1.59-3.64,1.2-5.41,1.86a50.76,50.76,0,0,0-4.73,2c1.21,0,2.55,0,4,0s3,.07,4.52.15,3.07.21,4.58.39,2.91.38,4.18.62a25.29,25.29,0,0,1,3.34.83,6.4,6.4,0,0,1,2,1,4.24,4.24,0,0,1,.85,1,5.52,5.52,0,0,1,.62,1.49,4.19,4.19,0,0,1,.09,1.68,3,3,0,0,1-.8,1.6,3.64,3.64,0,0,1-1.5.71c-.78.24-1.71.48-2.78.74l-3.41.81q-1.8.43-3.36.85c-1,.28-1.93.56-2.67.82a3.54,3.54,0,0,0-1.37.71,6.09,6.09,0,0,0,2.52.85,40.17,40.17,0,0,0,4.27.51q2.4.18,4.92.22A38.33,38.33,0,0,0,392.85,109.26ZM363.38,91.87l.47-.32a2.6,2.6,0,0,1,.41-.22l.34-.18-.34.18-.45.18a2.4,2.4,0,0,0-.51.27,3.59,3.59,0,0,1-.62.33c-.24.1-.47.21-.69.33l-.71.41c-.23.13-.49.27-.78.41s-.47.29-.69.45l-.69.45-.59.47a4.71,4.71,0,0,0-.5.44,2.07,2.07,0,0,0-.39.37,1.16,1.16,0,0,0-.27.31.43.43,0,0,0-.06.14.3.3,0,0,1,0,.11l-.06.09.06-.09.14-.22a.77.77,0,0,1,.13-.14.82.82,0,0,0,.15-.17l.43-.34.54-.39.58-.45.7-.42.72-.45.72-.43.72-.42.67-.35A5.08,5.08,0,0,0,363.38,91.87Zm3.76,2.58c.26-.15.52-.3.79-.43l.77-.4.68-.37.54-.28a.42.42,0,0,0,.16-.12,1544.58,1544.58,0,0,1,.28-.17l-.52.19-.57.26-.76.32c-.28.11-.57.24-.87.38l-1,.44-.22.1-.22.1h.44ZM377,89.88l-.3.08-.2.06a.41.41,0,0,0-.14.08c.21-.07.44-.13.7-.19a7.59,7.59,0,0,1,.78-.19q.47-.1,1.08-.26t1.17-.32l1.37-.36,1.44-.37,1.47-.39c.54-.12,1-.25,1.52-.39s1-.26,1.43-.36.95-.24,1.36-.37l1.16-.32c.36-.09.69-.19,1-.29l.77-.25a3.92,3.92,0,0,0,.7-.21.41.41,0,0,0-.2,0,3.81,3.81,0,0,1-.53.11l-.83.16q-.5.08-1,.22l-1.22.28-1.39.3q-.72.15-1.46.35l-1.55.37q-.74.19-1.44.41l-1.43.42c-.47.12-.91.24-1.31.38l-1.15.4-1,.32Zm9-3.28a4.52,4.52,0,0,0-.5.16,2.18,2.18,0,0,1-.38.11,1.14,1.14,0,0,0-.34.12l.37,0a8.39,8.39,0,0,1,.94-.23l.61-.13.71-.14.77-.16c.25-.06.5-.11.77-.16a6.15,6.15,0,0,0,.75-.18,5.36,5.36,0,0,1,.75-.18l.67-.19.63-.13.45-.17a1.75,1.75,0,0,1,.4-.11,1.21,1.21,0,0,0,.35-.1q-2.08.4-4.15.83a7.5,7.5,0,0,1-1.49.36l-.66.2Zm-5.76,16.52-.29.06a2.73,2.73,0,0,0-.41.06l-.45.12-.5.13a4.77,4.77,0,0,0-.62.18,4.7,4.7,0,0,0-.66.14l-.64.21-.64.21a3.74,3.74,0,0,0-.57.22l-.51.29a3.66,3.66,0,0,1-.46.23.88.88,0,0,0-.35.25.65.65,0,0,1-.23.19l-.19.23,0-.06a.48.48,0,0,1,.19-.14,1,1,0,0,0,.26-.18,1.36,1.36,0,0,1,.38-.23l.46-.19.53-.27.61-.18.64-.21.64-.21.62-.18a3.05,3.05,0,0,1,.56-.2l.51-.14Zm7.72-6.53a9,9,0,0,1,1.15.34,7.72,7.72,0,0,1,1.1.5l.51.35a2.12,2.12,0,0,1,.43.44,6.2,6.2,0,0,1,.49.81,3.37,3.37,0,0,1,.23.71c0,.21.07.4.11.56a.65.65,0,0,0,0,.34s0,.08,0,.1v-.1a.4.4,0,0,1,0-.36c0-.07,0-.14,0-.23a1.07,1.07,0,0,0-.06-.27,1.22,1.22,0,0,0-.17-.68,2.84,2.84,0,0,0-.54-1,3.35,3.35,0,0,0-.94-.79,7.1,7.1,0,0,0-1.2-.59,8.72,8.72,0,0,0-1.15-.34l-1.11-.23L385.68,96l-1-.14-.86-.11-.78-.09-.59,0-.51-.07.51.07a5.61,5.61,0,0,0,.6.11l.77.11.91.15c.31.06.65.1,1,.14l1.11.22Zm-7,5.87.89-.29a8.66,8.66,0,0,1,.91-.22c.29-.09.55-.17.79-.26l.7-.24.59-.21a4.46,4.46,0,0,1,.47-.17.22.22,0,0,0,.13-.06.21.21,0,0,1,.13-.06.12.12,0,0,1,.12,0s-.07,0-.1,0a.24.24,0,0,0-.15.07.23.23,0,0,1-.15.07l-.48.13c-.18,0-.4.09-.65.14q-.68.22-1.57.45l-1.8.46q-.5.12-.93.26l-.86.27a7.22,7.22,0,0,0-.86.23l-.71.25-.59.2-.47.15a1,1,0,0,0-.42.14l.45-.08.47-.15.64-.16a6.89,6.89,0,0,0,.76-.21,5.14,5.14,0,0,1,.83-.2c.32-.07.62-.14.91-.23S380.61,102.53,380.94,102.45Z"/><path d="M413.15,132.43c.24,0,.44.27.59.72a5.7,5.7,0,0,1,.28,1.44,4.78,4.78,0,0,1-.1,1.39q-.15.62-.51.57c-1.31-.19-2.88-.53-4.72-1s-3.71-1-5.59-1.64a41.67,41.67,0,0,1-5.36-2.25,13.89,13.89,0,0,1-4.09-3,5.65,5.65,0,0,1-1.07-1.67,5.56,5.56,0,0,1-.42-1.67,4,4,0,0,1,.12-1.42,1.53,1.53,0,0,1,.52-.86,5.79,5.79,0,0,1,1.21-.48q.93-.3,2.33-.6-2.07-.25-4-.55t-3.65-.74a19.66,19.66,0,0,1-3.12-1.06,8.46,8.46,0,0,1-2.35-1.5,5.57,5.57,0,0,1-1-1.25,7.31,7.31,0,0,1-.75-1.75,4.8,4.8,0,0,1-.17-1.83,2.33,2.33,0,0,1,.83-1.55,5.56,5.56,0,0,1,2-.88c1.06-.29,2.28-.58,3.68-.86s2.89-.53,4.46-.76,3-.43,4.41-.6l3.49-.46a5.84,5.84,0,0,0,1.73-.39.38.38,0,0,1,.51.09,2.08,2.08,0,0,1,.44.76,9.38,9.38,0,0,1,.51,2.46,6.14,6.14,0,0,1,0,1.05,1,1,0,0,1-.19.58,4.12,4.12,0,0,1-1.42.19c-.85,0-1.9.12-3.12.22s-2.55.23-4,.38-2.74.32-4,.51-2.32.39-3.23.59a5.17,5.17,0,0,0-1.7.56,7.81,7.81,0,0,0,3.49,1.58,51.47,51.47,0,0,0,5.39,1q3,.39,6.27.66c2.18.19,4.19.38,6,.57s3.37.38,4.61.56a5,5,0,0,1,2.08.53,2.5,2.5,0,0,1,.62,1.33,3.49,3.49,0,0,1-.09,1.27,3.24,3.24,0,0,1-.95,1.58,11.41,11.41,0,0,1-1.46.19l-3.07.29q-1.8.17-3.84.42c-1.36.17-2.6.35-3.74.52s-2.06.35-2.76.51-1,.31-.89.43a9.65,9.65,0,0,0,2.59,2,23.51,23.51,0,0,0,3.68,1.59c1.37.47,2.85.89,4.45,1.28S411.47,132.15,413.15,132.43Zm-27.48-21.1.47-.11a4.41,4.41,0,0,0,1.06-.2l.62-.12a3.14,3.14,0,0,0,.65-.07l.7-.12q.68-.09,1.37-.23a12.28,12.28,0,0,1,1.44-.21c.52-.06,1-.13,1.5-.2s.95-.14,1.4-.18.91-.13,1.31-.21l1.15-.21,1-.13a4,4,0,0,0,.75-.16.51.51,0,0,0,.27,0,.5.5,0,0,1,.2-.06.39.39,0,0,1,.2,0l-.69.05a8.19,8.19,0,0,0-.82.05c-.3,0-.64.06-1,.08s-.76.12-1.19.17l-1.33.14a12,12,0,0,0-1.45.14c-.48.08-1,.14-1.47.18l-1.45.26-1.42.24-1.23.29-1.14.28c-.68.19-1.21.36-1.62.5a.45.45,0,0,0-.25.1.26.26,0,0,1-.16.08.43.43,0,0,0-.15.07.24.24,0,0,1,.15-.07l.19,0,.29,0,.31-.12Zm5.91,9.33.19,0h.12l.14,0-.41-.1a3.07,3.07,0,0,0-.54-.15,5.61,5.61,0,0,1-.68-.18l-.35-.08a2.5,2.5,0,0,1-.39-.12l-.43-.12-.44-.12-1-.31-1-.3a2.24,2.24,0,0,0-.49-.22,2.66,2.66,0,0,1-.45-.17.65.65,0,0,1-.26-.12.65.65,0,0,0-.26-.12l-.42-.24a.44.44,0,0,1-.22-.11.78.78,0,0,0-.2-.13l-.42-.24-.17-.16a.36.36,0,0,0-.12-.09.17.17,0,0,1-.08,0l-.35-.32a1,1,0,0,1-.14-.15,1,1,0,0,0-.14-.15.64.64,0,0,0-.1-.15.66.66,0,0,1-.1-.15,1.42,1.42,0,0,1-.17-.25.43.43,0,0,1-.12-.21l-.09-.16-.09-.16a.22.22,0,0,0-.06-.11l.06.11.09.16a.86.86,0,0,1,.07.19l.12.21a1.64,1.64,0,0,0,.14.28l.21.29a2.06,2.06,0,0,0,.28.31l.35.32.17.16a.48.48,0,0,0,.2.13,2.83,2.83,0,0,0,.44.31,3,3,0,0,0,.4.27,3.06,3.06,0,0,1,.49.26.66.66,0,0,1,.24.1.63.63,0,0,0,.24.1,3,3,0,0,0,.52.24,3.71,3.71,0,0,1,.47.2l.5.17.5.17.43.11.48.15,1.65.38.63.13Zm-2-2.54a2,2,0,0,0-.4-.11l-.29,0a1.14,1.14,0,0,1-.25-.09l.07,0s0,0,.18.07l.3.08.37.1.48.16.51.13.52.12.55.1a11.65,11.65,0,0,0,2,.33l.35,0,.33.07h.26l-.24,0L394,119l-.35,0-1-.17-1.1-.2A18.57,18.57,0,0,1,389.61,118.12Zm10.58,3.09a.37.37,0,0,0,.22,0l.17,0a.48.48,0,0,1,.17,0l-.17,0h-.18l-.22,0-.63-.05-.8-.07-2-.17a11.52,11.52,0,0,1-1.17-.12l-1.21-.16-1.21-.15c-.38-.05-.76-.12-1.15-.19l-1.12-.17-.52-.12a3.43,3.43,0,0,0-.47-.08l-1.52-.34a1,1,0,0,1-.25-.09l-.18-.07c-.08,0-.12,0-.14,0s.06,0,.14,0l.18.07a1.06,1.06,0,0,0,.25.09,5,5,0,0,0,.66.18,4.74,4.74,0,0,0,.87.23,7.46,7.46,0,0,0,1,.29l1.11.22,1.18.17,1.21.15a23.2,23.2,0,0,0,2.38.28c.38,0,.73.06,1.06.07l.92,0,.78,0Zm6.1,2.33a2.46,2.46,0,0,0-.7.1l-.28.07h.29a1.11,1.11,0,0,0,.36,0l.41-.06a3.25,3.25,0,0,1,.5,0,2.35,2.35,0,0,0,.53,0,2.74,2.74,0,0,1,.59-.08l.63,0a2.85,2.85,0,0,1,.59-.08,4.08,4.08,0,0,0,.56-.05,5.88,5.88,0,0,1,1.06-.13,2.07,2.07,0,0,0,.38-.06l.28-.07a.86.86,0,0,1,.25,0h-.3a1.19,1.19,0,0,0-.35,0l-.4,0-.49,0a3.79,3.79,0,0,0-.51.05l-.61.05-.61.05a2.86,2.86,0,0,1-.59.08,3.62,3.62,0,0,0-.56.06Z"/><path d="M428.56,156.83c.23.07.4.36.49.87a8.23,8.23,0,0,1,.13,1.64,5,5,0,0,1-.23,1.52c-.15.43-.33.62-.54.59-1.2-.31-2.64-.78-4.3-1.38a46.86,46.86,0,0,1-5-2.18,33.78,33.78,0,0,1-4.76-2.9,13.36,13.36,0,0,1-3.5-3.63,5.38,5.38,0,0,1-.68-1.79,11.75,11.75,0,0,1-.25-2.08,9.42,9.42,0,0,1,.12-1.87,1.66,1.66,0,0,1,.51-1.11,4.21,4.21,0,0,1,2.27-.56,24.19,24.19,0,0,1,3.52.18q2,.23,4.16.58c1.45.23,2.83.41,4.12.53a61.37,61.37,0,0,0-9.47-4.3,64.72,64.72,0,0,0-7.32-2.11c-2-.45-3.63-.72-4.78-.87a4.53,4.53,0,0,1-1.91-.45,2.77,2.77,0,0,1-.4-.9,6.44,6.44,0,0,1-.24-1.31,5.43,5.43,0,0,1,.05-1.33A1.5,1.5,0,0,1,401,133a5.51,5.51,0,0,1,1.91-.35c1.12-.1,2.48-.17,4.08-.2s3.33,0,5.19,0,3.6.06,5.24.12,3,.1,4.19.11a5,5,0,0,0,2-.19.22.22,0,0,1,.16,0c.15,0,.31.11.46.33a4.87,4.87,0,0,1,.56,1.13,9,9,0,0,1,.38,1.42,3.76,3.76,0,0,1,0,1.34,1.26,1.26,0,0,1-.48.86,2.66,2.66,0,0,1-1,.19q-.8.07-2,.05l-2.63,0-3,0q2.26.83,4.66,1.84c1.6.68,3.08,1.34,4.46,2s2.56,1.24,3.56,1.78a13.43,13.43,0,0,1,1.93,1.19.22.22,0,0,0,.07.08.22.22,0,0,1,.07.08.3.3,0,0,1,0,.14.67.67,0,0,1,.11.26,8.27,8.27,0,0,1,.2,1.12,7.21,7.21,0,0,1,0,1.46,4.66,4.66,0,0,1-.36,1.44,2.23,2.23,0,0,1-.94,1.07,3.26,3.26,0,0,1-1.75.18c-.85-.06-1.81-.18-2.9-.35s-2.25-.36-3.49-.57-2.4-.38-3.49-.49-2-.16-2.88-.17a3.33,3.33,0,0,0-1.72.31,9,9,0,0,0,2.35,2.38,22.94,22.94,0,0,0,3.58,2.1q2,1,4.31,1.82T428.56,156.83ZM413.32,136.3q.49,0,.94,0a8,8,0,0,1,.94,0h1a7.78,7.78,0,0,1,.94,0l.85,0,.76,0h1.13a.2.2,0,0,0,.14,0,.21.21,0,0,1,.14,0,.12.12,0,0,1,.13,0q-2.57-.11-5.12-.15h-3.51a6.59,6.59,0,0,0-.66,0l-.5,0a1,1,0,0,0-.42,0l.45.05,1.16.07q.39,0,.77,0C412.71,136.27,413,136.28,413.32,136.3Zm2.8.65s.05,0,.1,0a.11.11,0,0,0,.11,0s.09,0,.18,0a6.1,6.1,0,0,0,1.07.1,5.65,5.65,0,0,0,.73.07l.76.06.84,0,.87,0a5.39,5.39,0,0,0,.82,0l.79-.06.74-.07.64-.08a2.83,2.83,0,0,0,.88-.36l.12-.08a.12.12,0,0,0,.06-.12c0-.05,0-.08,0-.1l0,.1-.09.06-.12.08a.24.24,0,0,0-.18,0,.4.4,0,0,1-.21.06.46.46,0,0,0-.29,0,.92.92,0,0,1-.26.05,2.93,2.93,0,0,1-.69,0,5.92,5.92,0,0,0-.76,0,5.61,5.61,0,0,0-.81,0c-.28,0-.56,0-.84,0h-.86l-.79,0c-.28,0-.54,0-.78,0h-.68a3.83,3.83,0,0,1-.56.08,2.87,2.87,0,0,1-.44,0ZM414,144.67a4.51,4.51,0,0,0,.86.06,4.13,4.13,0,0,1,.86.06l.9.08a7.35,7.35,0,0,1,.87.11,7.87,7.87,0,0,1,1.51.15h.59a2.66,2.66,0,0,1,.43,0,1.57,1.57,0,0,1,.32,0s.08,0,.1,0-.05,0-.1,0a1,1,0,0,0-.33-.1l-.47-.08-.63-.12-.74-.12a7.43,7.43,0,0,1-.81-.15q-.45-.08-.89-.13l-.92-.11-.85,0-.85,0h-.76a1.77,1.77,0,0,0-.38,0l-.32.07a1,1,0,0,0-.53.14l-.22,0a.64.64,0,0,0-.19.09l-.21.15-.06,0h.1a.52.52,0,0,1,.25-.1,3.43,3.43,0,0,1,1-.15h.72Zm-1.12,8.64a1.31,1.31,0,0,1,.25.24.67.67,0,0,0,.22.19,1.13,1.13,0,0,0,.22.15l-.19-.17-.48-.5a10.29,10.29,0,0,1-1.28-1.51l-.29-.47a2.29,2.29,0,0,1-.13-.24,2.25,2.25,0,0,0-.13-.24,3.71,3.71,0,0,1-.34-.88l-.11-.37a.47.47,0,0,1-.07-.25c0-.07-.06-.11-.05-.11s0,0,0-.06,0-.06,0-.07v.22a1.12,1.12,0,0,1,0,.27l.11.37a3.54,3.54,0,0,0,.11.41,4.2,4.2,0,0,0,.2.49.92.92,0,0,0,.12.25,1,1,0,0,1,.12.25l.32.52a3.76,3.76,0,0,0,.32.45c.11.13.23.26.38.41a4.13,4.13,0,0,0,.35.4A3.22,3.22,0,0,0,412.87,153.31Zm11-7.22c-.75-.09-1.63-.23-2.62-.42l-.73-.11a5,5,0,0,0-.69,0,3.29,3.29,0,0,0-.64-.08,4.67,4.67,0,0,1-.58,0,3.73,3.73,0,0,1-.46,0,1.41,1.41,0,0,0-.37,0,.42.42,0,0,0-.29,0,1.6,1.6,0,0,1,.32,0,1.08,1.08,0,0,0,.35,0,2.56,2.56,0,0,1,.48,0c.36.07.77.12,1.22.16s.92.11,1.42.2l.73.11.66.08.69.1.53.05.45,0,.42,0,.32,0a2.3,2.3,0,0,0-.36-.09,1.5,1.5,0,0,0-.39-.07A2.38,2.38,0,0,1,423.85,146.09Z"/><path d="M442.31,191.14c.11.11.14.38.1.8a5,5,0,0,1-.33,1.27,7.33,7.33,0,0,1-.62,1.21,1.49,1.49,0,0,1-.68.66c-.14,0-.55-.13-1.24-.53s-1.5-.91-2.46-1.54-2-1.33-3.06-2.1-2.12-1.55-3.11-2.34-1.85-1.55-2.58-2.27a5.63,5.63,0,0,1-1.41-1.93,8.69,8.69,0,0,1-.5-2.78,14,14,0,0,1,.23-2.93,11.44,11.44,0,0,1,.77-2.55,3.63,3.63,0,0,1,1.16-1.57q-1.47-.92-2.91-1.92t-2.7-2a24,24,0,0,1-2.23-2.11,9.15,9.15,0,0,1-1.51-2.12,8.67,8.67,0,0,1-.84-3,17.27,17.27,0,0,1,0-3.22,10.89,10.89,0,0,1,.56-2.77,2.93,2.93,0,0,1,1.07-1.59,5.29,5.29,0,0,1,3.36-.53,16.62,16.62,0,0,1,4.55,1.28,30.81,30.81,0,0,1,5,2.75,38.59,38.59,0,0,1,4.8,3.78,35.23,35.23,0,0,1,3.92,4.25,16.87,16.87,0,0,1,2.39,4,8.42,8.42,0,0,1,.62,2.62,8.59,8.59,0,0,1-.15,2.24q3,.78,5.85,1.69c1.89.61,3.59,1.2,5.09,1.74s2.72,1,3.67,1.39a7.79,7.79,0,0,0,1.52.53c.33-.11.53.16.62.82a9.58,9.58,0,0,1,0,2.24,15.09,15.09,0,0,1-.45,2.37c-.21.75-.43,1.17-.67,1.24a8.89,8.89,0,0,1-1.6-.66c-1-.46-2.28-1-3.84-1.7s-3.32-1.4-5.29-2.17-4-1.48-6-2.1-4-1.14-5.83-1.54a39.33,39.33,0,0,0-4.9-.78,8.35,8.35,0,0,0-3.19.2,1,1,0,0,0-.71,1.41,4.58,4.58,0,0,0,1.35,1.66q1.07.92,2.51,2t3.08,2.16l3,2.06,2.39,1.62A11,11,0,0,1,442.31,191.14Zm-16.91-34.8a5.28,5.28,0,0,1,.54.14,2.53,2.53,0,0,0,.48.11,4.78,4.78,0,0,1,.7.21l.29.07s0-.05-.06,0-.08,0-.1,0-.05,0-.1,0a2.21,2.21,0,0,0-.32-.16l-.45-.16-.51-.16-.51-.16-.57-.12-.61-.1a4.49,4.49,0,0,0-.57-.08l-.54,0-.51,0a2.59,2.59,0,0,1-.45,0,.6.6,0,0,0-.37.07.54.54,0,0,1-.27.09.61.61,0,0,0-.22.06.64.64,0,0,1,.22-.06l.29,0a2.08,2.08,0,0,1,.38,0,7.55,7.55,0,0,1,1,0l1.1.11.6.1Zm-4.91,4.05c-.58.33-.65.92-.2,1.78a13.07,13.07,0,0,0,2.8,3.63,26.44,26.44,0,0,0,3.86,2.93,37.21,37.21,0,0,0,4.39,2.36c1.52.69,3,1.33,4.37,1.9s2.65,1.07,3.77,1.47,2,.74,2.62,1a4.53,4.53,0,0,0-.11-.61,6.47,6.47,0,0,0-.23-.71,13.51,13.51,0,0,0-2.09-3.46,31,31,0,0,0-3.49-3.69,36,36,0,0,0-4.31-3.33,28.41,28.41,0,0,0-4.46-2.43,16.23,16.23,0,0,0-4-1.19A4.55,4.55,0,0,0,420.49,160.4Zm4.7,7.81s0,0-.06,0a.25.25,0,0,1-.09-.1.26.26,0,0,0-.09-.1l-.29-.22-.38-.32-.43-.39-.46-.45a4.86,4.86,0,0,1-.54-.51,4.66,4.66,0,0,0-.54-.51,20.36,20.36,0,0,1-1.81-2.2l-.31-.48-.19-.33-.17-.34,0,.06a.46.46,0,0,1,0,.12.69.69,0,0,0,.07.18l.17.34a5.11,5.11,0,0,0,.29.49,1.89,1.89,0,0,1,.19.29,1.87,1.87,0,0,0,.19.29l.21.29.21.29a1.38,1.38,0,0,1,.25.3,1.41,1.41,0,0,0,.25.3l.53.58a17.64,17.64,0,0,0,2,1.78l.37.32.29.22Zm9.32-7.38-.52-.35-.33-.21-.31-.22a1,1,0,0,1,.31.22,4.12,4.12,0,0,1,.34.28l.5.43.56.48c.19.16.38.32.59.47s.42.32.65.52.46.41.71.65l.66.6.66.6a4.69,4.69,0,0,1,.58.53c.18.2.36.38.55.55a5.67,5.67,0,0,0,.44.45c.13.12.25.23.35.34a4,4,0,0,1,.3.32l-.27-.34-.35-.38-.44-.49q-.27-.26-.56-.58a4.19,4.19,0,0,0-.6-.56l-.64-.65c-.23-.23-.45-.44-.68-.63l-.68-.59q-.34-.29-.65-.52c-.23-.19-.44-.36-.62-.49S434.69,161,434.51,160.82Zm6.41,7.21-.31-.36-.31-.36q-.63-.72-1.23-1.31t-1.13-1l-.8-.61c-.08-.06-.13-.09-.14-.09s0,0-.08,0l-.06,0,.28.25.76.79a5.81,5.81,0,0,1,.53.56,3.86,3.86,0,0,0,.56.54l.58.65.61.72a5.69,5.69,0,0,1,.62.72c.1.11.19.22.28.33s.18.23.28.34a2.44,2.44,0,0,1,.28.38,1.2,1.2,0,0,0,.25.31l.23.36.2.3a1.18,1.18,0,0,1,.21.33,1.25,1.25,0,0,0,.15.28,4.08,4.08,0,0,1,.28.5.49.49,0,0,0,.08.16.24.24,0,0,1,.06.09l.05.13-.05-.13a.57.57,0,0,1,0-.14.93.93,0,0,0-.06-.21,3,3,0,0,0-.22-.45c-.05-.13-.11-.25-.16-.35l-.2-.34a2.58,2.58,0,0,1-.19-.38,1.26,1.26,0,0,0-.23-.36,1.7,1.7,0,0,1-.25-.35,2.92,2.92,0,0,0-.27-.42Q441.13,168.32,440.92,168Zm-4,6.47c.3,0,.6.05.89.1l.92.17-.76-.27a5.89,5.89,0,0,1-.79-.33l-1.63-.74-1.57-.67-1.47-.63-1.34-.6L430,171l-.88-.39-.74-.3a.7.7,0,0,1,.21.12,3.3,3.3,0,0,0,.52.26l.89.46,1.13.57a5.16,5.16,0,0,0,.65.36c.21.1.45.21.69.35s.49.26.73.37l.77.36q.68.29,1.42.63Zm7.71,2.16c-.42-.08-.81-.17-1.16-.26l-.87-.22-.75-.22.75.22c.23.06.53.14.88.25l1.16.37c.42.14.87.28,1.37.42s1,.31,1.56.51,1.06.32,1.61.51l1.7.57q1.7.53,3.31,1.15l1.53.52,1.34.44q.6.19,1.15.4l.9.33a5.11,5.11,0,0,0,.73.23l-.75-.31a6.39,6.39,0,0,0-.89-.38c-.35-.12-.73-.27-1.15-.44s-.87-.35-1.37-.51-1-.36-1.55-.59l-3.31-1.14c-.57-.21-1.12-.38-1.67-.54l-1.61-.46a12.82,12.82,0,0,0-1.54-.48C445.46,176.92,445,176.8,444.59,176.66Zm12.52,4.8a3,3,0,0,1,.61.15l.5.19a1.37,1.37,0,0,0,.42.1l-.44-.17-.49-.19-.61-.23-.74-.26-.83-.3-.9-.27a7.91,7.91,0,0,1-.93-.34c-.61-.2-1.21-.39-1.8-.56l-1.58-.47-.61-.2-.49-.17a1.39,1.39,0,0,0-.42-.07,1.08,1.08,0,0,1,.41.16,4.4,4.4,0,0,1,.5.2,4.79,4.79,0,0,0,.63.23c.48.19,1,.38,1.6.58.29.1.59.19.89.27a6.15,6.15,0,0,1,.94.33l1.81.54c.29.11.57.2.82.27Z"/><path d="M448.8,221.92a4.79,4.79,0,0,1-.48,1.71,1.39,1.39,0,0,1-1,.85c-.24,0-.71-.2-1.4-.7a20.76,20.76,0,0,1-2.42-2.14c-.92-.92-1.91-2-3-3.3a46.87,46.87,0,0,1-3.09-4.19,41.45,41.45,0,0,1-2.74-4.86,27.22,27.22,0,0,1-1.93-5.42,13.35,13.35,0,0,1-.31-4.09,18.83,18.83,0,0,1,.73-4.1,12.28,12.28,0,0,1,1.56-3.4,4.65,4.65,0,0,1,2.24-1.9,5.46,5.46,0,0,1,2.8-.13,11.76,11.76,0,0,1,3.36,1.21,21.72,21.72,0,0,1,3.52,2.35,22.35,22.35,0,0,1,3.25,3.25,24,24,0,0,1,2.57,3.84A15.31,15.31,0,0,1,454,205a12.71,12.71,0,0,1,.27,4.49,8,8,0,0,1-.88,2.76,2.81,2.81,0,0,1-1.17,1.23c-.38.16-.59.14-.63-.06a2.18,2.18,0,0,1,0-.46,1.22,1.22,0,0,1-.49.18,3.69,3.69,0,0,1-2.55-.58,11.07,11.07,0,0,1-2.79-2.35,19.69,19.69,0,0,1-2.51-3.65,18.58,18.58,0,0,1-1.74-4.6,14,14,0,0,1-.44-3.17,13,13,0,0,1,.19-2.4,6,6,0,0,0-4-.36,6.11,6.11,0,0,0-1.18.52,3.48,3.48,0,0,0-1,.82,2.89,2.89,0,0,0-.57,1.22,3.69,3.69,0,0,0,.09,1.73,28,28,0,0,0,2,5.41,34.5,34.5,0,0,0,2.64,4.53,32.28,32.28,0,0,0,2.9,3.62c1,1.05,1.91,2,2.77,2.77s1.59,1.41,2.19,1.86,1,.76,1.2.93a2.49,2.49,0,0,1,.55,2.07Zm-4.95-29c.13.11.26.2.39.29s.25.18.39.29a1.75,1.75,0,0,1,.36.26,1.73,1.73,0,0,0,.36.27l.59.5.54.52a1.94,1.94,0,0,0,.41.33.83.83,0,0,0,.15.15.36.36,0,0,1,.1.08l.11.12-.11-.12a.35.35,0,0,0-.1-.08.86.86,0,0,1-.15-.15l-.4-.41-.5-.53a2.37,2.37,0,0,1-.31-.29,1.29,1.29,0,0,0-.34-.27,2.87,2.87,0,0,0-.33-.31l-.37-.3c-.13-.11-.26-.21-.39-.29l-.39-.29a6.76,6.76,0,0,1-.79-.49l-.39-.17-.39-.17-.39-.17-.39-.17a1.1,1.1,0,0,0-.34-.11,1.11,1.11,0,0,1-.34-.11,3.06,3.06,0,0,1-.64-.08l-.53,0a1.2,1.2,0,0,0-.39.06.42.42,0,0,0-.31.11l.1,0a.41.41,0,0,1,.23,0,.25.25,0,0,0,.19,0,.24.24,0,0,1,.19,0l.55,0a.43.43,0,0,0,.28.09,1,1,0,0,1,.35.07,1.06,1.06,0,0,0,.34.11,1.15,1.15,0,0,1,.34.11l.39.17.39.17a3.33,3.33,0,0,1,.37.22,2.07,2.07,0,0,0,.4.21,2,2,0,0,1,.4.21A3.63,3.63,0,0,0,443.85,192.89ZM446.2,194l-.23-.16-.18-.09a.52.52,0,0,1-.14-.11.52.52,0,0,0,.14.11.63.63,0,0,1,.17.14,1.7,1.7,0,0,0,.23.2c.18.2.4.41.65.64a10.59,10.59,0,0,1,.81.82,6.46,6.46,0,0,1,.47.47l.48.55q.27.3.52.62l.52.62a7.87,7.87,0,0,1,.53.7l.55.78a7.1,7.1,0,0,1,.52.83q.24.44.48.85a14.76,14.76,0,0,1,.89,2,14.59,14.59,0,0,1,.7,2l.21,1a7.46,7.46,0,0,1,.13,1,1.13,1.13,0,0,1,0,.23,1,1,0,0,0,0,.23,1.09,1.09,0,0,0,0,.23,1.14,1.14,0,0,1,0,.24,1.15,1.15,0,0,0,0,.23,1.18,1.18,0,0,1,0,.23.92.92,0,0,0,0,.4,9.72,9.72,0,0,1-.14,1.45,2.81,2.81,0,0,1-.08.57,3.79,3.79,0,0,0-.1.5,3,3,0,0,1-.1.3.91.91,0,0,0-.06.29.6.6,0,0,0,0,.24.56.56,0,0,1,.08-.17,5.31,5.31,0,0,1,.19-.6,4.36,4.36,0,0,0,.09-.45,2.38,2.38,0,0,1,.14-.54,3.57,3.57,0,0,1,.07-.73,6.48,6.48,0,0,0,.1-.74,2.23,2.23,0,0,1,0-.47,2.88,2.88,0,0,0,0-.4c0-.05,0-.23,0-.55a1.18,1.18,0,0,0,0-.23,1,1,0,0,1,0-.23,16.1,16.1,0,0,0-.37-2.2l-.3-1.07a9.67,9.67,0,0,0-.39-1.12,14.71,14.71,0,0,0-.9-2c-.18-.37-.36-.68-.52-.95l-.55-.86-.56-.74-.56-.73a13.87,13.87,0,0,0-1.06-1.19l-1-1a6.47,6.47,0,0,0-.84-.74A6.83,6.83,0,0,1,446.2,194Zm-3.3,4.41a17.54,17.54,0,0,0,1.81,4.67A12.08,12.08,0,0,0,447,206a8.4,8.4,0,0,0,2.43,1.55,19.72,19.72,0,0,0,2.16.73c0-.15-.05-.3-.07-.45s0-.3-.07-.45a10.21,10.21,0,0,0-1.14-2.95,16.94,16.94,0,0,0-2.08-2.92,21.37,21.37,0,0,0-2.69-2.56,18,18,0,0,0-2.91-1.92A7.41,7.41,0,0,0,442.9,198.45Zm-5.53,11.43c.12.21.23.4.34.57l.28.44a4.53,4.53,0,0,0,.26.38c-.07-.08-.15-.21-.26-.38s-.16-.29-.27-.48l-.33-.61q-.14-.33-.36-.74a7.61,7.61,0,0,1-.39-.88,4.88,4.88,0,0,1-.22-.49,4.68,4.68,0,0,0-.22-.48,4.74,4.74,0,0,1-.22-.48c-.06-.15-.13-.34-.2-.56a2.8,2.8,0,0,1-.2-.48,2.87,2.87,0,0,0-.21-.48c-.06-.17-.13-.35-.18-.53s-.11-.35-.18-.52c-.16-.44-.27-.74-.33-.91s-.09-.33-.13-.46-.08-.26-.12-.39a6.07,6.07,0,0,1-.22-.72,4.73,4.73,0,0,1-.19-.59,1.31,1.31,0,0,0-.08-.23,1,1,0,0,1-.06-.16l0-.13.14.53.15.6a6,6,0,0,0,.22.72c.09.36.17.64.25.86s.16.55.31,1c.07.17.12.34.17.49l.19.56c.06.17.12.34.17.49a4.83,4.83,0,0,0,.22.55,2.9,2.9,0,0,1,.2.49,2.85,2.85,0,0,0,.2.49l.44,1c.16.29.31.58.45.86A5.22,5.22,0,0,0,437.37,209.89Zm11.55-2s-.06-.06-.09-.06-.07-.06-.1-.05a.2.2,0,0,1-.14,0l-.39-.25-.53-.37a4.32,4.32,0,0,1-.55-.48c-.18-.16-.4-.36-.65-.6l-.32-.37-.33-.37a3.16,3.16,0,0,0-.34-.44,1.91,1.91,0,0,1-.31-.45l-.33-.44a.85.85,0,0,1-.15-.26.86.86,0,0,0-.15-.26,10.11,10.11,0,0,1-.55-1.06,4.8,4.8,0,0,1-.24-.54,4.52,4.52,0,0,0-.24-.53,5.87,5.87,0,0,1-.36-1l-.32-.81-.18-.7a2.84,2.84,0,0,1-.16-.48l0-.14.16.63.18.7c0,.14.08.28.12.41s.09.3.14.48a4.57,4.57,0,0,1,.17.47c.06.18.12.37.19.55a4.62,4.62,0,0,1,.24.53,4.87,4.87,0,0,0,.24.53c.1.22.2.41.28.56s.18.34.28.56a.87.87,0,0,1,.15.26.86.86,0,0,0,.15.26l.33.44a1.86,1.86,0,0,0,.32.52,3.13,3.13,0,0,1,.34.44,3.9,3.9,0,0,1,.34.37,3.82,3.82,0,0,0,.34.37,1.37,1.37,0,0,1,.33.3,1.35,1.35,0,0,0,.33.3l.3.19.27.2a2,2,0,0,0,.51.3,1.56,1.56,0,0,1,.37.18Z"/><path d="M450.72,249.1a2.38,2.38,0,0,1,.34,1.55,8,8,0,0,1-.34,2.06,5.37,5.37,0,0,1-.76,1.61c-.3.41-.59.48-.86.21a20.11,20.11,0,0,1-1.32-1.63c-.62-.81-1.32-1.81-2.12-3s-1.65-2.47-2.54-3.86-1.72-2.79-2.48-4.22a44.44,44.44,0,0,1-2-4.15,13.06,13.06,0,0,1-1-3.77,9,9,0,0,1,.11-1.6,12.85,12.85,0,0,1,.55-2.4,8.87,8.87,0,0,1,1.06-2.22,2.45,2.45,0,0,1,1.71-1.15,4.8,4.8,0,0,1,3.08.75,25.82,25.82,0,0,1,3.33,2.27q1.63,1.3,3,2.42c.89.74,1.55,1.1,2,1.05.1,0,.21-.44.35-1.28s.22-1.64.27-2.39c-.95-.84-2-1.75-3.21-2.73s-2.28-1.84-3.24-2.61a1.38,1.38,0,0,1-.5-1.3,5.44,5.44,0,0,1,.42-1.68,4.1,4.1,0,0,1,.86-1.34c.34-.34.64-.41.9-.2l2.63,1.83q1.39,1,2.63,2,.16-1.38.38-2.69a12,12,0,0,1,.63-2.34,6,6,0,0,1,1-1.74,2.59,2.59,0,0,1,1.51-.89,4,4,0,0,1,2.47.46,13,13,0,0,1,2.81,1.91,22.83,22.83,0,0,1,2.77,2.92,33.65,33.65,0,0,1,2.39,3.37,26.51,26.51,0,0,1,1.71,3.21A8.38,8.38,0,0,1,470,230a12,12,0,0,1-.14,2.67,23,23,0,0,1-.7,3.21,12.21,12.21,0,0,1-1.13,2.71c-.45.76-.93,1.16-1.44,1.19a3.47,3.47,0,0,1-1.76-.7,33.66,33.66,0,0,1-2.8-2c-1.08-.84-2.27-1.82-3.57-2.93s-2.66-2.31-4.08-3.59q-.13,1.38-.34,3t-.54,3a10.61,10.61,0,0,1-.77,2.25q-.44.89-1,.93a2.81,2.81,0,0,1-1.34-.7c-.65-.48-1.39-1-2.22-1.68l-2.61-2c-.91-.71-1.75-1.3-2.5-1.77a10.24,10.24,0,0,0-1.84-1c-.47-.17-.68,0-.64.41a8.84,8.84,0,0,0,.83,2.81,28.3,28.3,0,0,0,1.74,3.2q1,1.64,2.22,3.25c.8,1.07,1.56,2.07,2.27,3s1.35,1.73,1.91,2.41ZM463.05,220c.14.14.28.27.42.39s.28.25.42.39l.78.88a2.74,2.74,0,0,1,.34.37,2.67,2.67,0,0,0,.34.37c.23.25.42.47.58.67s.31.38.45.53l.39.45-.09-.16a1,1,0,0,0-.11-.15,1.94,1.94,0,0,1-.16-.23,3.53,3.53,0,0,1-.44-.61,4.45,4.45,0,0,0-.57-.76,5,5,0,0,0-.32-.46l-.35-.45-.78-.88c-.15-.2-.29-.37-.42-.52l-.41-.43-.89-.84a3.64,3.64,0,0,1-.44-.34l-.45-.42-.43-.29-.43-.29-.43-.25-.43-.25a2.16,2.16,0,0,0-.71-.28.87.87,0,0,0-.36-.14.75.75,0,0,1-.27-.07,1.24,1.24,0,0,0-.48,0,.12.12,0,0,0-.15,0s-.09,0-.15,0h-.07s0,0,0,.08l.11,0a.61.61,0,0,1,.3,0l.47.15a2.48,2.48,0,0,1,.6.29l.37.22.37.22.41.25.41.25.84.67c.28.23.57.48.88.76Zm-8.22-1c0-.05,0-.08,0-.08l.12-.18a1.13,1.13,0,0,1,.14-.3l.21-.32a2.38,2.38,0,0,1,.6-.67.37.37,0,0,1,.19-.12.37.37,0,0,0,.19-.12.6.6,0,0,0,.21-.08.72.72,0,0,1,.21-.08l.4-.07a.94.94,0,0,0,.45,0,2,2,0,0,0,.38.05,2,2,0,0,1,.38.05.64.64,0,0,0,.3.15.84.84,0,0,1,.25.07.1.1,0,0,1,.08,0,.1.1,0,0,0,.08,0h0c0-.05,0-.08,0-.07a.09.09,0,0,1-.08,0,.11.11,0,0,0-.08,0,.93.93,0,0,0-.22-.12,2.24,2.24,0,0,1-.34-.18.21.21,0,0,0-.17,0,.21.21,0,0,1-.17,0,.69.69,0,0,0-.42-.08.72.72,0,0,0-.41,0,1,1,0,0,0-.45,0,1.14,1.14,0,0,0-.41.24,1.13,1.13,0,0,0-.41.24l-.3.37-.3.37a3.3,3.3,0,0,0-.21.36,2.17,2.17,0,0,0-.14.34Zm2,2.64a1.5,1.5,0,0,0-1.11.82,7,7,0,0,0-.63,2c1.69,1.35,3.29,2.63,4.81,3.81s2.85,2.2,4,3a27.73,27.73,0,0,0,2.72,1.8c.67.36,1,.38,1,0a5.47,5.47,0,0,0-.6-1.66,20.93,20.93,0,0,0-1.46-2.48q-.9-1.33-2-2.73a20.26,20.26,0,0,0-2.33-2.46,13.52,13.52,0,0,0-2.34-1.69A3.12,3.12,0,0,0,456.79,221.63Zm1,6.26.84.67.84.68q.44.36.84.64l.83.57.38.29.38.29a7.45,7.45,0,0,1,.7.43,6.36,6.36,0,0,1,1,.56.29.29,0,0,1,.15,0,.28.28,0,0,0,.15,0s.08,0,.08.08h0a1,1,0,0,1-.39-.3l-.46-.37a6.45,6.45,0,0,0-.57-.44c-.44-.29-.93-.64-1.46-1s-1.08-.85-1.64-1.33-1.14-.84-1.68-1.26-1-.78-1.45-1.1A15.91,15.91,0,0,0,455,225.2v.08l.38.43a2.43,2.43,0,0,1,.43.38,6.5,6.5,0,0,0,.56.53A14.09,14.09,0,0,0,457.83,227.89Zm-15,0s-.06,0-.12-.06a1.94,1.94,0,0,0-.32-.18l-.47-.08-.54-.07a1.94,1.94,0,0,0-1,.36.67.67,0,0,0-.3.27q-.06.08-.1.09a.12.12,0,0,1,.1-.09.33.33,0,0,0,.14-.06.41.41,0,0,1,.18-.06,1.45,1.45,0,0,1,.45-.14l.53-.08a4,4,0,0,0,.52,0,1.91,1.91,0,0,1,.45,0,.48.48,0,0,1,.34,0Zm3.12,1.87a.2.2,0,0,1,.13,0,.24.24,0,0,0,.13,0s.05,0,.08.07-.06-.07-.08-.07-.06-.07-.1-.06a.2.2,0,0,1-.14-.06l-.4-.26a3.34,3.34,0,0,0-.47-.24l-.56-.27a3.92,3.92,0,0,0-.64-.26l-.33-.11-.36-.1-.68-.13a1.92,1.92,0,0,0-.36-.06,1.45,1.45,0,0,0-.35,0,.52.52,0,0,0-.33,0,.52.52,0,0,1-.33,0,.88.88,0,0,1-.32.12.64.64,0,0,0-.28.11.23.23,0,0,1-.14.09.22.22,0,0,0-.14.09,35.1,35.1,0,0,1-.48.36.42.42,0,0,0-.08.12l-.08.12a.68.68,0,0,0-.16.21,1.27,1.27,0,0,1-.13.2l-.11.31s0,0-.06.08v0l.06-.08a.56.56,0,0,1,.16-.24.73.73,0,0,1,.29-.41c0-.05,0-.08.06-.08s.06,0,.1-.09.15-.17.2-.18a.22.22,0,0,1,.14-.09.23.23,0,0,0,.14-.09.24.24,0,0,0,.12-.05.21.21,0,0,1,.12-.05.66.66,0,0,1,.28-.11l.33,0,.33,0a.87.87,0,0,1,.33,0,1.24,1.24,0,0,1,.33,0l.34.06a.92.92,0,0,0,.35,0,.54.54,0,0,1,.36.1l.34.07a.63.63,0,0,1,.31.15l.63.22.56.23A2.22,2.22,0,0,1,446,229.75Z"/></svg>